<?xml version="1.0" encoding="utf-8"?>
<svg version="1.1" id="Layer_2_00000051384606123435039170000001380658974796536709_" xmlns="http://www.w3.org/2000/svg" xmlns:xlink="http://www.w3.org/1999/xlink" x="0px" y="0px" viewBox="0 0 2352.1 1785.3">
<g id="Layer_1-2">
	<path d="M2352.1,772.8c-2.7,4.5-2.6,9.3-3.2,14.4c-1.1,10.8-0.1,21.5-1.3,32.1c-1.6,14.2-3.7,28.5-7.8,42.1
		c-2.7,8.8-2.5,18.4-8.2,26.7c-4.7,6.9-7.7,15.5-9.6,23.8c-3.8,16.1-11.4,30.8-16.2,46.5c-1.8,5.9-4.1,11.7-6,17.6
		c-4.4,13.5-15.6,22.7-22.1,34.9c-1.9,3.7-5.4,6.5-8.1,9.8c-5,6.1-9.9,12.4-15,18.4c-5.6,6.5-11.4,12.7-17.2,19
		c-0.9,0.9-2.1,2-3.2,2.2c-12.4,1.3-20.3,12.1-32.1,14.8c-0.3,0.1-0.7,0.2-0.9,0.4c-6.7,8.8-17.2,6.9-26.2,9.4
		c-15.5,4.4-31.5,7.7-45.8,15.9c-6.6,3.9-13.6,6.9-21.7,5.7c-1.3-0.2-3.1-0.7-3.9,0c-6.8,5.2-14.6,4.7-22.4,4.8
		c-5.2,0.1-10.4,0.8-15.6,1.4c-3.3,0.4-6.7,0.6-9.7,1.8c-4.1,1.7-7.9,1.4-12.2,1.4c-9.1,0.2-18.4-1.3-27.7,3.8
		c-7.1,3.9-16.3,3.8-24.7,5.3c-3.8,0.7-7.8,0.6-11.7,1.1c-16.3,2.4-32.6,2.3-48.5-2.5c-1.6-0.5-3.4-1.1-4.9-0.8
		c-14.2,3.1-28.3-1.9-42.5-0.7c-4.5,0.4-9.4-2.4-13.7-1.6c-14.3,2.8-28.3-0.4-42.4-0.7c-7.1-0.2-13.4-1.3-19.7-5
		c-4.9-2.9-11.4-3-17.1-4.4c-3.8-1-7.7-1.9-11.3-3.5c-6.8-3.1-13.4-6.7-20.2-9.9c-1.1-0.5-2.7,0.1-3.9-0.3
		c-4.7-1.2-9.9-1.6-13.9-3.9c-5.8-3.2-10.8-7.5-18-6.8c-1.4,0.1-3.2-0.9-4.4-1.9c-9-7.1-18.2-14-26.9-21.5
		c-11.1-9.6-23.3-16.6-37.6-21c-10.9-3.3-21.8-8.1-31.2-14.5c-10.7-7.3-23.8-11.8-31.4-23.6c-1.7-2.7-5.7-4-8.9-5.5
		c-3-1.4-5-3.9-7.4-5.7c-7.5-5.5-12-14.2-19.6-18.9c-5.1-3.2-8.4-7.3-12-11.5c-6-7-12.8-13.5-17.6-21.3c-5-8.1-10-16-16.8-22.8
		c-1.6-1.6-3.2-3.7-5.2-4.3c-4.9-1.6-6.9-5.2-7.3-9.7c-0.7-9.7-4.2-18.3-10.1-26c-0.4-0.5-0.5-1.3-0.5-1.9
		c-1.4-25.9-10.6-51.1-6.4-77.5c0.9-5.7-0.5-11.8-0.9-17.7c-1-16.5-1.8-33-3.1-49.5c-0.4-5.6-2.5-11-3-16.6
		c-1.3-15.2-12.1-19.5-24.6-22c-12.6-2.5-25.1-5.1-37.6-7.6c-1.6-0.3-3.3,0-5-0.1c-12.2-1.3-24.7-1.6-36.3-6.3
		c-1.2-0.5-2.5-0.8-3.8-1.1c-10.9-2.7-21.8-5.2-32.7-8c-5.4-1.3-10.8-2.9-16.2-4.3c-1.2-0.3-2.7-0.4-3.9,0
		c-17.2,4.9-34.6,2.5-51.9,2.4c-8.2,0-16.3,2.4-24.6,3.3c-6.1,0.7-12.3,0.7-18.5,1.1c-6.9,0.3-13.9,0.1-20.7,1.2
		c-15.9,2.5-32,3.2-47.6,7.5c-11.3,3.2-23.1,4.3-34.5,6.9c-4.1,0.9-7.9,3.5-12,4.8c-5,1.7-10.2,4.3-15.2,3.9
		c-17.5-1.4-33.2,4.2-48.8,10.5c-9.6,3.8-19.5,5.4-29.9,4.4c-13.1-1.3-26.1-1.7-39.3,0.7c-8.2,1.5-17.2,0.8-25.5-0.8
		c-11.6-2.2-23,0.2-34.4-0.4c-6.1-0.3-12.3,0-18.3,0.8c-8.3,1.1-17-2.4-24.9,2.4c-1.2,0.7-3.4,0.5-4.9,0c-9.3-3.4-17.5,0.9-25.9,3.4
		c-8.8,2.7-17.5,6-26.5,7.8c-12,2.5-23.8,5.3-35.3,9.8c-5.7,2.2-10.8,4.1-13.5,9.8c-1,2-1.6,4.2-2.3,6.3c-1.1,3.4-2,6.8-3.4,10.1
		c-2.1,5.1-3.3,9.8,1,14.7c1.7,2,2,5.3,2.6,8.2c1.8,9.6,5.7,17.8,11.8,25.8c6,8,9.8,17.8,14,27.1c2.6,5.7,5.3,11.6,6,17.6
		c1.5,12.4,7.9,21.5,15.2,31.3c6.2,8.4,8.3,19.8,12.5,29.8c3.2,7.5,6.9,14.7,10.1,22.2c3.1,7.1,8.5,13.2,9.7,21.2
		c0.2,1.4,1.6,2.9,2.8,3.8c3.7,2.7,4.5,6.8,4.3,10.6c-0.3,5.4,2.8,8.9,4.7,13.3c3.6,8.4,12,13.9,13.2,23.7c0.3,2.5,3.4,4.7,5.5,6.8
		c4.5,4.5,5.6,9.4,4.6,15.9c-3,19.1-14.4,32.6-28,45c-2.8,2.6-4.9,6-7.7,8.8c-3.2,3.2-6.6,6.3-10.2,9.2
		c-8.2,6.4-16.4,12.7-24.8,18.8c-7,5.1-13.2,10.7-18,18.1c-1.5,2.4-5.8,2.9-8.4,4.7c-6.7,4.7-12.1,11.7-21.3,12.1
		c-0.6,0-1.5,0.4-1.7,0.9c-2.7,8.4-11.2,9.4-17.1,13.7c-4.8,3.6-9.2,7.5-13.8,11.3c-1.5,1.3-2.8,3.6-4.4,3.9
		c-9.1,1.5-12.1,8.9-16.2,15.5c-1.9,3.1-5.9,5.7-6.2,8.8c-1,9.9-3.3,20,4.2,29.2c4,4.9,7.2,10.1,13.1,13c1.1,0.6,2.3,1.6,2.9,2.7
		c4.7,10.1,13.1,11.5,23.3,12.4c7.7,0.6,15.3,5.5,22.5,9.2c6.5,3.3,12.3,7.8,20,8.2c1.6,0.1,3.2,0.8,4.7,1.5
		c6.2,2.9,12.5,5.7,18.4,9.1c13.6,7.8,28.7,11.4,43.6,15.4c12.9,3.4,25,8.5,36.3,15.4c2.9,1.8,4.8,5.1,7.4,7.6
		c3.6,3.4,6.8,7.7,11,9.8c6,3,10,7.8,12.8,13c3.8,6.8,9.7,10,16.2,11.8c6,1.6,11.3,3.4,15.1,8.6c0.9,1.3,2.5,2.6,3.9,2.9
		c12.1,2.8,19,12.4,27.1,20.3c8,7.8,17.7,13.9,23.1,24.2c0.2,0.3,0.4,0.6,0.6,0.8c14.2,7.4,18.5,23.6,29.6,33.7
		c0.2,0.2,0.6,0.5,0.6,0.8c0.9,13.3,12.5,16.4,21.2,22.6c8.1,5.8,14.2,13.1,15.6,23.9c1.8,14.9,4.2,29.8,7,44.6
		c1.4,7.3,4,14.4,6.3,21.6c3.3,10.1,4.5,20,0.6,30.5c-3.3,8.9-5,18.3-7.5,27.5c-1.2,4.4-2.3,9.1-4.6,13
		c-10.4,17.9-15.4,38.7-29.2,54.8c-1.8,10.1-10.1,15.2-17,21.2c-5,4.2-11,7.1-16.1,11.2c-9.5,7.6-20.9,12.4-29.4,21.4
		c-1.7,1.8-4.6,2.6-7,3.6c-17.8,7.7-35.4,16-53.7,22.6c-11,3.9-22,7.9-33.9,9.9c-15,2.5-29.5-0.3-44.2,0.2c-6.3,0.2-12.2-2.2-19,0.8
		c-4.2,1.9-10.3-0.1-15.5-1c-17.6-3.3-35.2-0.7-52.7,0.1c-8.2,0.4-16.3,2.2-24.4,3.2c-1.9,0.2-4.4,0.5-5.8-0.4
		c-5.3-3.6-10.8-1.6-16.4-1.4c-4.2,0.2-8.5-0.5-12.7-0.8c-2.3-0.1-4.6-0.2-6.8-0.2c-7.9-0.1-15.8,0-23.7-0.2
		c-4.9-0.1-9.8-0.8-14.7-0.6c-6.9,0.4-13.5-2.2-20-2.5c-8.4-0.4-17-0.8-25.2-0.5c-11,0.4-21.5-1.6-32.2-2.1
		c-1.3-0.1-2.6-0.8-3.9-0.8c-12,0.3-21.3-5.9-30.6-12.3c-4.3-3-9-5.4-13.6-7.9c-8.6-4.8-17.2-9.6-25.8-14.3
		c-1.7-0.9-3.5-2.1-5.3-2.3c-8.8-1.1-17.2-2.8-25-7.7c-2.4-1.5-6.4-1.6-9.3-0.8c-6.5,1.7-12.3,2-17.8-2.5c-1.2-1-3-1.4-4.6-1.8
		c-9-1.9-18.4-2.7-27-5.7c-9.8-3.4-19.9-7.6-26.8-15.8c-7.8-9.1-17.3-15.4-28-19.9c-10-4.2-15.3-12.3-19.8-21.1
		c-2.6-5.1-6.2-9.5-6.6-16.1c-0.4-5.6-5.5-10.9-8.7-16.2c-5.2-8.7-11.8-16.4-19.1-23.5c-2.7-2.7-4.2-6.6-6.2-10
		c-1.6-2.8-2.8-6.1-4.8-8.6c-2.7-3.2-4.7-6.2-3.6-10.7c0.4-1.7-0.6-3.9-1.5-5.6c-3.3-6.1-4.9-12.4-5.7-19.5
		c-1-8.9-4.7-17.4-6.5-26.2c-1-5-1.8-10.7-0.4-15.5c2.3-8.2,0.6-15.7-1.1-23.4c-0.3-1.3-1.5-2.6-1.3-3.7c4.1-16.3,0.2-33.5,5.8-49.8
		c2.4-7,2.4-14.9,3.5-22.3c0.3-1.9,0.8-3.9,1.6-5.7c4.9-10.8,10-21.4,15-32.2c3.7-8,7.3-16.2,11.2-24.1c0.8-1.7,2.9-2.6,4.1-4.2
		c3-3.9,6.3-7.6,8.5-11.9c2.4-4.8,4.6-9.1,9.3-12.4c4-2.9,6.4-8.1,9.9-11.9c7.3-8,14.5-16.1,22.4-23.6c7.4-6.9,16.2-12.4,23.2-19.7
		c8.1-8.5,18.5-12.2,28.5-17c2-1,3.9-2.4,5.5-4c7.1-7,16.8-9.9,24.7-15.3c6.2-4.2,12.9-2.2,18.8-5.3c5.9-3.1,11.9-5.9,17.8-8.8
		c0.9-0.4,2-1.1,2.8-0.8c9,2.7,16.1-2.7,23.6-5.7c14-5.7,28.2-8.5,43.3-7.1c9.3,0.9,18.3-0.7,27.6-3.9c13.8-4.7,16.7-16.6,22.4-26.9
		c2.1-3.7,3.5-7.8,4.5-12c2.2-8.9,7.8-14.9,15-20c8.5-6,16.9-12.3,25.6-18.1c1.7-1.2,4.4-1.1,6.7-1.2c8-0.6,15.8-1.9,22.6-6.6
		c4.6-3.2,10.4-1.9,15.3-5.9c7.8-6.2,17.5-10.2,26.4-15.1c0.3-0.2,0.8-0.1,0.9-0.3c5.5-10.4,17.8-11.6,25.5-19.3
		c8.7-8.7,19.9-15.1,28.5-23.9c7.5-7.8,13.9-16.8,20.8-25.3c3.1-3.9,4.1-9.8,5.1-14.9c1-5-0.2-9.6-4.3-13.5
		c-7.9-7.3-13.4-16.5-19-25.6c-4.8-7.8-10.6-15.1-16.8-21.8c-2.9-3.2-4.7-6.2-4.8-10.3c-0.2-5.4-3.2-8.6-7.2-12.1
		c-8.4-7.3-14.9-16.3-18.8-27.1c-2.8-7.7-6.4-15.3-10.7-22.3c-2.9-4.6-7.7-8-11.7-11.9c-1.4-1.4-3.3-2.6-4.1-4.2
		c-10-20.4-25.6-37.2-37.7-56.2c-5.2-8.2-10.5-16.9-18.4-24c-6.3-5.7-9.9-14.8-13.4-22.9c-4-9.3-5.3-20-10.3-28.6
		c-6.3-11-7-25-18.4-33.3c-2.9-2.1-4.4-6.6-5.5-10.3c-1.5-4.8-5.1-7.5-8.5-10.6c-8.3-7.7-16.5-15.6-24.7-23.4
		c-2.4-2.3-4.7-4.7-7.4-6.6c-8.8-6-11.1-15.5-13.9-24.8c-2.4-7.8-7.4-12.7-14.5-16.8c-8.8-5-16.8-11.4-25.2-17.3
		c-2.4-1.7-4.8-3.3-7-5.2c-4-3.4-7.8-7-11.6-10.5c-8.7,1.7-18,3.3-27.1,5.5c-3.7,0.9-7,3.4-10.6,5.1c-7.1,3.4-14,7.3-21.4,9.8
		c-15.9,5.5-31.3,12-45.8,20.6c-2.8,1.7-4.6,4.7-7.2,6.7c-3.9,3-7.8,6.5-12.3,8.1c-10.8,3.9-22,6.5-32.9,10.1
		c-5.2,1.7-10.5,3.8-15,6.9c-5.4,3.8-11.3,4.6-17.1,4.3c-11.2-0.7-22.3-2.1-33.3-4.1c-3.5-0.6-7.5-3.4-9.6-6.4
		c-4.4-6.2-10.7-5.7-16-4.3c-11.4,3-22.8,3.3-34.1,1.8c-7-1-13.4-5.5-20.3-7.7c-8-2.5-15.7-4.8-24.8-4.4c-8.1,0.4-16.9,0.1-25.2-1
		c-3.2-0.5-6-3.7-9-5.6c-2.2-1.4-4.3-3.5-6.6-3.7c-18.2-1.5-35.2-7-48.7-18.8c-9.5-8.3-21.1-14.5-27.8-26.1
		c-2.2-3.9-6.4-6.7-9.1-10.4c-2.6-3.7-4.6-7.8-6.6-11.8c-0.6-1.1,0-3.3-0.8-3.8c-12.3-7.7-7.5-21.5-11.5-32.1
		c-3.2-8.6-1.4-18.1-3-26.9c-1.6-9.1-1.8-18.1-2-27.2c0-1.9-0.8-3.8-1.1-5.7c-0.4-2.9-2.1-6.7-0.9-8.7c5.3-8.6,2.1-17.6,2.4-26.4
		c0.6-16.2,0.6-32.4,0.8-48.6c0-2.3-0.6-4.5-0.7-6.8c-0.2-2.5-0.4-5.1-0.3-7.6c0.2-3.9,0.4-7.8,1-11.6c1.4-7.8,3.2-15.4,4.5-23.2
		c0.9-4.9,1.2-9.9,2.1-14.8c0.8-4.8,1.6-9.3,4-14c3.2-6.2,5.5-13.3,5.6-20.6c0-2.3,0.3-4.7,1.1-6.8c5-12.5,9.5-25.4,15.6-37.4
		c6-11.9,13-23.4,22.6-33.1c4-4.1,5.9-10.2,9.7-14.5c4.5-5.1,10.1-9.3,15.3-13.9c2-1.7,5.1-2.8,6.2-4.9c4.4-9,13.3-13.6,19.9-20.4
		c3.8-3.9,9.3-6,14-9c3.3-2.1,6.9-4,9.8-6.7c3.4-3.1,5.9-7.3,11.3-7c0.6,0,1.5-0.3,1.8-0.8c3.9-7.7,11.9-8.1,18.5-11.3
		c8.4-4.1,15.7-10.4,24.7-13.8c6.3-2.4,12-6.3,18.2-9.1c15-6.6,30.1-12.9,45.1-19.4c1.5-0.7,3-1.6,4.1-2.8
		c9.8-10.7,24-12.8,36.5-18.2c4.9-2.1,11-2.5,16.5-2.3c8.5,0.2,16.6-3,25.4-1.9c7.9,0.9,16.3-1,24.4-2.5c15.8-2.9,31.5-6.3,47.2-9.6
		c3.2-0.7,6.5-1.4,9.7-2.3c7.9-2.3,15.8-4.9,24.2-2.6c1.2,0.3,2.6,0.5,3.9,0.3c17.5-2,35-4.1,52.4-6.2c11.5-1.4,23.1-4.7,34.4-3.9
		c10,0.7,18.1-0.9,26.4-5.8c1.5-0.9,4-0.9,5.7-0.4c8.4,2.8,16.9,2.2,25.5,1.8c9.5-0.4,19-0.6,28.4,0.4c10.8,1.1,21.3,3.8,32,5.6
		c13.2,2.2,23.9,9.3,34.6,17.1c7.8-3.9,15.2-1,22.8,1.7c5.6,2,11.4,3.2,17,5c4,1.3,8.5,2.2,11.7,4.6c3.6,2.8,7,3.8,11.5,4.4
		c12.4,1.7,23.7,5.4,32.9,15.9c6.2,7.1,14.1,13.7,24,16.7c12.1,3.7,20.2,12.1,25.9,23.1c1.6,3.2,3.8,6,5.7,9.1
		c5.2,8.7,11.7,17,15.1,26.4c2.8,7.8,2.2,16.9,2.7,25.4c0.3,4.9,0.2,9.8-0.2,14.7c-0.8,7.8-2.5,15.5-3,23.2
		c-1.2,18-11.6,31.8-20.3,46.5c-8.7,14.5-18.6,28-32,38.6c-2.3,1.8-3.5,4.8-5.4,7.1c-1.4,1.8-2.8,4.5-4.6,4.9
		c-6,1.4-8.9,6.5-13.1,10c-5.5,4.6-10,10.5-15.5,15c-4,3.2-8.9,5.5-13.7,7.6c-7.5,3.4-12.7,9.2-18.5,14.7c-3.8,3.5-8.6,5.9-13,8.6
		c-1.1,0.7-2.8,0.4-3.8,1.2c-11.2,10-26,14.3-37.5,23.3c-9.2,7.2-19.6,12-29.2,18.2c-5.7,3.6-12.7,5.2-19.2,7.5
		c-9.8,3.4-18.4,8.8-26.6,14.8c-8.1,6-17.2,9.4-26.2,13.6c-15.5,7.1-30.9,15-40.8,30.3c-4.2,6.6-10.3,11.7-14.1,19
		c-2.7,5.3-5.8,9.7-6.6,16c-0.7,5.8-3.8,11.4-6,17.7c5.4,3.9,10.1,6.9,14.3,10.5c7.7,6.5,15,13.6,22.8,20.1c4.7,4,9.8,7.4,14.7,11
		c7,5,13.6,10.7,21.2,14.7c4.7,2.5,10.3,3.2,15.1,6.5c7.8,5.4,16.5,9.5,24.8,14.2c1.7,1,3.3,2.1,4.8,3.4c5,4.3,10.7,8,14.5,13.1
		c5.4,7.1,13.4,9.1,20.5,13c5.5,3,10.4,6.9,15.6,10.4c0.8,0.6,1.4,1.8,2.2,2c15.2,2.5,24.8,15.7,39.1,19.8c4,1.2,8.6,0.3,12.3,1.9
		c14.4,6,29.5,3.2,44.2,3.8c7.3,0.3,14.8-3.3,22.2-5.2c8-2,15.9-3.9,23.9-6c1.6-0.4,3.2-0.8,4.6-1.7c5.4-3.3,11.3-5,17.5-6.3
		c13-2.9,25.6-7.5,37.5-13.7c1.1-0.6,2.6-1.1,3.8-0.8c12.3,3.1,23-4.4,34.8-5.2c4.9-0.3,9.7-3.5,14.3-5.9c19-10,40.3-11.3,60.6-16.6
		c6.7-1.8,13.8-2.3,20-5c14.9-6.3,30.5-4,45.8-5c2.3-0.1,4.6-0.4,6.9-0.5c6.9-0.3,13.8-0.7,20.7-0.7c16.3,0.2,32.7,0.2,49,1.2
		c10.2,0.6,20.2,2.8,30.3,3.9c12.2,1.4,23.9,5,36.7,3.9c12.5-1.1,25.4,2.1,38.1,3.5c6.5,0.8,13,1.6,19.4,3c8.1,1.8,16,4.2,23.9,6.5
		c7.5,2.2,14.6,4,22.9,3.4c6.7-0.5,14.5,2.1,21.7,3.7c1.6,0.3,3.3,1.5,4.7,1.3c11.4-1.9,22.9-0.8,34.3-1.6c4.2-0.3,7.6,0.3,11.4,1.6
		c7.2,2.5,14.6,4.3,21.9,6.3c1.5,0.4,3.7,0.8,4.8,0.1c6-3.6,12.4-1.7,18.5-1.2c12.8,0.9,25.7,1.7,38.3,3.8
		c9.4,1.6,18.8,4.4,27.4,8.4c9,4.2,18.1,5.4,27.6,5.9c7.6,0.4,12.9-4.5,15.8-10c4.2-7.9,11.1-13,16.7-19.3c3-3.4,7.2-5.8,9.8-9.4
		c9.6-12.8,18.5-26.1,28.1-39c5.5-7.3,11.7-14.1,17.4-21.2c3.4-4.2,6-9,12.2-10.6c2.8-0.8,4.3-5.8,7.1-7.8c12.6-9,23.6-20,37.5-27.4
		c12.8-6.8,25.8-13,39.4-17.6c7-2.3,14.9-2.3,22.4-2.9c11.4-1,22.9-1.6,34.3-2.4c1.2-0.1,2.6,0.1,3.8,0.6c5.2,2.3,10.2,1.3,15.4-0.3
		c6.5-2.1,13.1-3.8,19.7-5.8c1.2-0.4,2.4-1.4,3.1-2.5c2.4-3.8,5.5-5.5,10.1-4c1.1,0.4,2.7,0.2,3.8-0.3c8.7-4.2,18.2-3.3,27.4-4
		c2.2-0.2,4.6,0.1,6.8,0.6c6.6,1.7,12.6,0.1,19.2-1.4c13.8-3.2,27.7-9.4,42.4-4.2c1.2,0.4,2.8,0.6,3.9,0.2c9.8-3.9,17.8,1,26,5.3
		c0.9,0.5,1.9,1.5,2.6,1.3c10.2-2,17.9,4.9,26.8,7.5c9.1,2.7,17.9,6.7,26.9,9.8c3.9,1.3,8.2,2.2,12.3,2.5c9.2,0.6,17.2,5.4,26.8,5.4
		c5.9,0,11.7,6.5,17.6,10c3.9,2.3,7.9,4.5,12,6.7c7,3.7,14,7.3,21,11.1c6.4,3.4,12,8.6,19.9,8.4c7.5,7.8,20.3,4.7,27.4,13.8
		c2.1,2.8,6.9,4.2,10.7,4.8c13.4,2.1,22.1,12.1,32.6,18.9c4.1,2.7,8.7,4.8,12.5,7.9c6.4,5.1,13.9,8.3,20.5,12.7
		c6.6,4.3,12.8,8.8,20.1,11.8c6.3,2.6,12.3,6.1,18.5,9c9.2,4.2,18.5,8.2,27.7,12.5c1.5,0.7,2.8,1.8,4,3c4.5,4.2,8.9,8.6,13.4,12.9
		c1.7,1.6,4.4,2.8,5,4.7c2.6,7.6,9.2,11.9,14,17.6c5.5,6.5,10.1,13.5,15,20.4c6.9,9.5,10.5,20,13.5,31c0.4,1.6,0.8,3.5,1.9,4.5
		c4.5,4,4.5,9.1,4.2,14.4c-0.1,2-0.1,4.2,0.6,5.9c5.3,11.8,3.9,24.4,4.4,36.8c0.2,4.4,1.9,8.7,2.8,13L2352.1,772.8L2352.1,772.8z
		 M480.9,513.8c3.5-10,5.8-17.5,8.6-24.8c3-7.7,10.2-13.9,8.5-23.3c0-0.2,0.4-0.5,0.5-0.8c4.3-8.6,14.8-13,16.2-23.6
		c0.1-0.4,1-0.7,1.6-1.1c8.5-6.2,16.3-13.7,25.5-18.4c8.9-4.5,16.2-12.8,27.1-13.2c0.9,0,1.9-0.8,2.6-1.4c9.3-7.4,20.3-11.9,30.3-18
		c10.8-6.6,22.1-11.7,33.6-16.5c8-3.3,15.7-6.9,22.7-11.6c12.5-8.3,24.5-17.4,37.1-25.7c4.8-3.2,10.5-5.2,15.8-7.7
		c1.2-0.6,2.6-1,3.4-1.9c10.4-11.7,25.9-16.8,36.5-28.5c6.7-7.4,16.6-11.7,23.9-18.6c7.8-7.3,15-15.2,23.1-22.2
		c2.4-2.1,3.3-5.7,5.4-8.2c7.9-9.4,14.4-19.6,20.1-30.5c5.7-10.9,3.8-23.9,10.4-34.4c0.3-0.5,0.2-1.4,0.1-1.9
		c-1.9-5.6,4.1-11.1,0.2-16.7c5.2-15.3-2.9-28-8.5-41c-5.6-13.2-17.3-21.8-26.3-32.4c-0.6-0.7-1.7-1.1-2.6-1.4
		c-10.2-3.1-17.5-10.2-24.7-17.4c-5.9-6-13.1-11.7-21.2-11.7c-10-0.1-17.8-3-25-9.2c-1.1-1-3.2-1.9-4.4-1.5
		c-8.3,2.6-16.1-2.1-24.4-1.5c-4.5,0.3-9.3-3-13.7-5.2c-9.4-4.7-15.8-15.5-28.4-13.7c-0.6,0.1-1.3-0.3-1.8-0.7
		c-9-6.5-19.3-7.7-30-7.2c-2.6,0.1-5.3,0-7.9-0.5c-11.1-2.2-22.2-2.7-33.4-1c-2.3,0.4-4.7,1-6.8,0.7c-12-1.9-23.5,0.6-35.1,3
		c-9.3,1.9-18.7,4.4-28.1,4.4c-8.3,0-16.1,2.1-24.1,3.1c-8.5,1.1-17.1,3-25.6,2.6c-11.2-0.6-22.3-1.7-33.3,1.2
		c-3.2,0.8-6.5,2.9-9.5,2.5c-11.5-1.7-20.4,8-31.6,6.6c-6.4,4.8-13.8,3.9-21,3.7c-3.3-0.1-6.6,0.2-9.9,0.5
		c-8.6,0.7-17.2,1.3-25.7,2.5c-11.1,1.6-23,1.7-33,6.1c-13.8,6-28.6,9.3-41.2,18.6c-9.3,6.8-21.1,10.1-31.8,15.1
		c-3.9,1.8-7.6,4-11.4,6.1c-3.4,1.8-6.7,3.8-10.2,5.4c-4.5,2.1-10.6,2.6-13.3,5.9c-4.7,5.7-11.3,6.2-17,9.1c-2,1-4.3,1.8-6.1,3.1
		c-9.7,6.8-19.2,13.8-29,20.5c-6.2,4.3-13.1,7.9-18.9,12.6c-4.8,3.9-8.5,9.1-13,13.4c-7.6,7.1-15.6,13.8-23,21
		c-3.2,3.2-5.4,7.4-8.1,11.2c-3.5,5-6.4,10.7-10.8,14.9c-6.5,6.4-12.5,14-14.2,22.1c-2.1,9.7-8.3,17.5-9.5,27.6
		c-1.7,14.9-11.1,28-12.5,43.3c-1,11.3-3,22.5-4.3,33.8c-0.9,7.5-1.4,15.1-1.6,22.7c-0.4,10.4-1.7,21-0.2,31.2
		c0.9,6.1,0.9,11.6,0.1,17.5c-0.5,3.6-0.4,7.3-0.3,10.9c0.3,10.8,1,21.7,1.2,32.5c0.1,6.8-0.5,13.6-0.3,20.4
		c0.2,6.8,4.5,13.4,0.9,20.4c-0.3,0.7,0.1,2.2,0.6,2.8c5.4,5.8,4.7,13.5,6.5,20.4c1.9,7.2,4.5,14.6,8.6,20.8
		c5,7.5,12.1,13.4,16.9,21.4c6,10,19.8,11.5,26.2,21.7c0.1,0.2,0.7,0.1,0.9,0.2c7.2,3.3,14.4,6.1,22.2,7.7c8.4,1.7,16.4,5,24.7,7
		c6.9,1.7,14,4,20.9,3.5c14.2-1,26.6,3.1,38.7,9.7c2.3,1.2,5.4,3.5,7.2,2.8c6.2-2.3,10.7,1.5,13.3,2.5c10.8-2.5,19.5-4.1,27.9-6.6
		c4.2-1.2,7.3-0.4,9.8,2.6c5.6,6.9,13.2,9.6,21.6,11c1.6,0.3,3.7,0.3,4.7,1.3c7.6,7.2,16.5,4.5,23.2,0.6c9.1-5.4,19.4-6.4,28.7-10.7
		c11.2-5.3,23.5-7.9,33.5-16.1c7.1-5.8,15.3-11,23.8-14.2c10.5-3.9,20.9-7.9,30-14.5c4.7-3.4,9.4-5.9,15.5-5.6c2.6,0.1,5.3-2,8-2.9
		c8-2.8,15.9-6.4,24.1-7.7c4-0.7,7.1-0.3,10.1-3.9c2.7-3.2,6.7-5.5,11.3-2.1c9.5,6.9,20.8,12.1,28.1,20.8
		c7.7,9.1,18.1,13.3,27.1,19.6c6.8,4.7,11.3,9.4,14.2,16.6c1.7,4.3,2.9,8.9,5.2,12.9c3.3,6,6.7,12.4,11.3,17.3
		c6.5,6.9,13.7,13.4,21.5,18.9c9.2,6.4,15.6,14.5,20.9,24.2c3.2,6,8.1,11.1,12.2,16.6c0.9,1.3,2,2.6,2.5,4c2.5,6.7,4,13.9,7.3,20.1
		c6.1,11.5,5.7,26.2,17.1,35.2c0.6,0.5,0.6,1.8,0.8,2.8c0.9,6.2,4.3,11,8.1,15.7c6.8,8.4,14.3,16.2,18.8,26.2
		c2.2,5,4.3,11.9,8.5,13.9c7.3,3.5,8.3,9.7,11.2,15.5c1.2,2.3,2.8,4.5,4.5,6.5c6.9,8.3,14.6,16,20.7,24.8c6.2,9.1,10.7,19.3,15.9,29
		c1.7,3.2,3.9,6.2,5,9.5c2.1,6.8,7.2,11.5,12.8,14.3c5.7,2.8,7.6,6.7,8.8,12.1c0.8,3.8,1.3,8.2,3.4,11.3c5.8,8.7,13.2,16,18.2,25.6
		c6.1,11.7,15.3,21.8,22.9,32.8c1.8,2.6,3.3,6,3.3,9.1c0,7.1,0.2,14.2-4.1,20.8c-3.4,5.2-4.5,12.5-8.8,16.3
		c-6.2,5.4-10.6,11.6-14.3,18.7c-0.8,1.6-2.8,3.5-4.5,3.7c-5.6,0.5-7.1,5.2-10.2,8.5c-3.7,4-8,7.4-12.2,11
		c-3.7,3.2-7.5,6.2-11.2,9.4c-1.7,1.5-3,3.9-5,4.6c-10.7,3.8-16.8,15.2-28.5,17.4c-1.6,0.3-2.7,2.8-4.1,4.1
		c-1.4,1.3-2.9,3.4-4.5,3.6c-5.6,0.5-9.5,4.4-14.3,6.3c-17.2,6.8-34.6,13.3-52.2,18.9c-9.9,3.1-16.4,8.9-20.5,18.1
		c-4.7,10.5-9.4,21.1-14.3,31.5c-2.4,5-4.3,11.1-8.3,14.2c-5.8,4.5-13.1,8.4-20.3,9.6c-10.6,1.8-21.7,0.7-32.5,1.3
		c-5.9,0.3-11.7,0-17.4,1.6c-13.7,4-27.4,7.8-41.1,11.8c-0.6,0.2-1.3,0.4-1.9,0.7c-8.5,4.1-16.7,8.9-25.5,12.1
		c-9.2,3.3-18.2,5.8-26.6,12.1c-6.9,5.2-16.7,7.2-24.2,12.4c-8.9,6.1-17.6,12.5-26,19.3c-8.8,7.2-13.3,18.8-24,24.2
		c-0.8,0.4-1,1.7-1.6,2.5c-8.1,10.3-17.1,20-24.1,31c-8.6,13.5-17.2,27-24.2,41.5c-8.2,17.1-11,35.8-17.1,53.5
		c-0.8,2.4-0.9,5.3-0.3,7.8c3.5,15.3-3.1,30.5,0,45.8c0.2,0.9-0.5,2-0.5,2.9c0,7.3-0.6,14.6,0.3,21.8c0.9,7.1,3.6,14,4.8,21.1
		c2.1,12.7,4.9,25.2,11.2,36.6c3.7,6.6,6.4,14.8,12,18.8c7.5,5.4,9.8,13.1,13,20.2c1.9,4.1,3.8,7.3,6.9,10.3
		c2.8,2.7,6.4,5.9,6.9,9.2c1.3,9.8,10,14.9,13.1,23.4c0.3,0.8,1.2,1.6,2,2c5.4,3,10.8,5.8,16.1,8.9c2.5,1.5,4.6,3.6,6.8,5.5
		c9,7.8,15.1,19.6,29,20.7c13.6,9.7,30.4,7.5,45.4,12c11.3,3.4,22.9,5.7,34.3,8.7c3.8,1,7.5,2.6,11.3,3.7c7.6,2.3,16.8,0.9,21.2,10
		c0.2,0.5,1.1,0.7,1.7,1c11.1,6.2,22.2,12.5,33.5,18.5c1.6,0.9,3.7,0.9,5.6,1.1c2.2,0.3,4.7-0.1,6.8,0.7c9.2,3.3,18.7,3.9,28.4,3.4
		c16.1-0.9,32.2,1.8,48.4,0.5c1.4-0.1,2.9,1.3,4.4,1.9c1.5,0.6,3.4,1.7,4.6,1.2c7.8-3.1,15-0.8,22.4,1.3c1.5,0.4,3.6,0.8,4.8,0.2
		c6-3.3,12.3-1.5,18.3-0.7c4,0.5,7.2,1.5,11-1.3c1.5-1.1,4.9,0.3,7.3,0.8c3.2,0.6,6.5,2.2,9.4,1.8c6.8-1.1,13.3-4,20.2-0.4
		c1.1,0.6,3.1-0.9,4.7-1.2c2.8-0.6,5.7-1.3,8.6-1.3c15.1,0,30.4,2,45.2-0.1c14.4-2.1,28.4,0.2,42.4,0.4c10,0.2,20.2,1.4,30.4,1.4
		c3.8,0,8.7,0,11.2-2.1c3.9-3.3,8.1-2.1,12-3.4c3.8-1.3,6.7-4.8,10.2-6.9c1.3-0.8,3.3-0.3,4.9-0.7c7.9-2.2,16.3-3.4,23.6-6.9
		c11.8-5.7,23.2-12.6,34.3-19.7c10.4-6.6,20.9-13.4,30.2-21.4c7.8-6.7,14-15.2,20.6-23.2c3.3-4,6.2-8.5,8.8-13
		c1.2-2.1,0.7-5.2,1.8-7.3c4.3-8.1,8.4-16.3,13.7-23.7c6.8-9.6,5.4-21.3,9.7-31.6c1.7-4.1,0.7-9.5,3.5-14c1-1.7,0.7-4.6,0.2-6.7
		c-1.8-7-1.8-14.8-4.1-21.1c-5.8-15.8-4.9-32.5-9.5-48.3c-2.8-9.8-6.2-18.8-14.8-24.3c-9.4-6-15.6-14.8-20.9-23.7
		c-7.9-12.9-18-23.9-28.7-33.8c-10.8-10.1-21.4-20.7-32.7-30.3c-10.9-9.3-23.2-15.8-34.8-23.7c-3.8-2.6-7.8-4.9-11.3-7.7
		c-11.7-9.3-21-21-32.7-30.5c-10.2-8.3-21.6-13.9-33.7-15.3c-17.3-2.1-31.7-9.6-46.3-17.7c-5.7-3.1-12.2-4.6-18.3-6.9
		c-2.6-1-5.2-2.1-7.8-3.3c-2.1-1-4-2.2-6-3.2c-6.2-3-12.4-6-18.6-8.8c-2.3-1-4.9-2.1-7.3-2.1c-14.6,0.3-26-5.5-34.9-16.9
		c-1.8-2.3-3.8-5.2-6.3-6.1c-8.6-3.1-13.3-9-14.8-17.8c-0.2-1.3-0.8-2.5-1.5-3.7c-6.7-12.6-8.7-25.4-1.4-38.5
		c0.5-0.9,0.9-1.8,1.2-2.7c3.8-12.8,13-21.8,22.4-30.4c7.3-6.8,15.7-12.4,25-15.9c5.6-2.1,7.8-7.7,12.1-10.8
		c8.2-6,17.3-10.8,25.9-16.4c6-3.9,12.6-7.2,15.5-14.5c0.7-1.7,2.4-3.7,4-4.2c5.9-1.7,9.8-6.9,14.6-9.2
		c12.9-6.2,20.2-17.9,30.2-26.8c7.3-6.5,11.7-15.9,20.7-20.9c2-1.1,3.7-4.1,3.9-6.4c0.7-7.7,0.5-16.1-4.8-21.7
		c-9.2-9.8-13.8-22.2-21.1-33c-4-6-3.3-14.6-9.2-20.1c-0.4-0.4,0.4-1.9,0.2-2.8c-0.4-2.2-0.5-4.7-1.7-6.4
		c-3.8-5.8-7.3-11.3-9.5-18.1c-2.7-8.2-7.8-15.4-9.5-24.4c-1.3-6.9-6-13.4-10-19.5c-3.6-5.7-8.5-10.6-12.3-16.2
		c-1.7-2.6-2.1-6.2-2.9-9.3c-0.5-1.9-0.4-3.9-1.1-5.7c-6-15.2-11.8-30.6-18.2-45.7c-5.3-12.5-10.5-25.2-17.1-37
		c-3.3-6-3.5-10.7-1.5-16.7c2.7-7.8,4.2-16,7.1-23.8c1.9-5.1,4-11.5,8-14.1c12.5-8,24.8-17.5,41.2-15.3c1.4,0.2,3.1-1,4.6-1.7
		c2.1-0.9,4.2-2.8,6.3-2.8c14.9-0.2,27.4-9.5,41.9-11.1c9.5-1,18.9-2.4,28.3-3.3c2.2-0.2,4.5,0.9,6.8,1.3c1.6,0.3,3.7,1.3,4.8,0.6
		c7.2-4.1,14.6-2.9,22.2-2.1c2.2,0.2,4.5-0.8,6.7-1c2.6-0.2,5.2-0.2,7.8,0c3.9,0.3,7.8,1.2,11.7,1.4c11.4,0.5,22.8,0.9,34.2,1
		c7.6,0.1,15.4,0.6,22.7-0.9c4.2-0.9,7.8-1.7,12.3-1.5c9.4,0.5,18.9-0.6,28.3-1.2c1.6-0.1,3.1-1.2,4.6-1.8c4.2-1.7,8.4-4.1,12.8-4.8
		c12.4-2,25-3.2,37.4-5c4.5-0.7,8.9-2.3,13.3-3.7c6.9-2.2,13.7-6.5,20.5-6.5c11.7,0.1,21.8-4.8,32.5-7.3c15.5-3.7,31.5-2.9,47-6.3
		c5-1.1,10.4-0.4,15.3-2.8c1.1-0.5,2.6-0.2,3.8-0.2c8.4-0.1,17,1,25.1-0.6c12.8-2.6,25.5-3.1,38.4-1.9c4.6,0.4,9.4,1.7,13.8,0.8
		c14.3-3,28.1-1.5,42,2.2c12.7,3.4,25.6,5.9,38.4,8.9c3.8,0.9,7.7,3.8,11.2,3.4c11.8-1.5,22.7,3.8,34.3,3c6.4-0.5,13.1-2,18.9,2.8
		c0.8,0.6,2.6-0.3,3.8,0.1c3.1,0.8,6.1,1.8,9,3c2.1,0.8,4.6,3.4,6,2.8c5.3-2,9.6,1.8,14.4,1.5c7-0.5,10.5,3.5,12.2,9.2
		c5,16.6,11,33,9.8,50.8c-0.2,3.2,0.3,6.6,1.1,9.8c1.8,7.4,2.5,14.8,1.1,22.4c-0.9,4.8-1.7,10.3-0.2,14.6c3.3,9.5,2.4,19,2.1,28.5
		c-0.4,13.1-0.3,25.9,4.2,38.6c2.1,5.9,5.1,12,2.7,19c-0.8,2.3,0.9,5.8,2,8.5c1.3,3.3,2.9,6.5,4.6,9.7c3,5.4,5.5,11.2,9.3,16
		c6.1,7.6,13.2,14.5,19.8,21.8c2.6,2.8,5.4,5.6,7.5,8.8c3.5,5.5,6.5,11.3,9.9,16.9c0.6,1,1.9,2.3,2.9,2.3c6.4,0,9.3,3.9,11.4,9.3
		c0.8,2,2.9,3.4,4.6,4.9c4.7,4.2,9.5,8.3,14.3,12.4c5.2,4.5,10.1,9.3,15.5,13.5c5.4,4.2,11.2,8,17.2,11.5c4.5,2.7,9.2,4.8,14.1,6.8
		c5.1,2.1,10.5,3.3,15.4,5.7c9.2,4.4,18.2,9.2,27.1,14.2c5.1,2.8,9.9,6.2,14.8,9.5c4,2.7,6.8,7.4,12.5,7.5c1.5,0,3.1,1.2,4.3,2.2
		c7.4,5.9,15.2,11.3,23.5,15.8c1.8,0.9,3.9,1.4,5.4,2.6c8.7,7,18.6,10.9,29.7,11.9c1.6,0.1,3.1,1.1,4.6,1.7
		c7.9,3.4,15.5,7.7,23.6,10c8.6,2.5,18.1,1.8,26.2,6.4c0.5,0.3,1.3-0.1,2-0.1c6.2-0.2,12.5-2.2,18.2,2.3c0.8,0.7,2.6,0.5,3.8,0.4
		c4.9-0.3,10.1-1.8,14.7-0.7c13,2.9,26.9-6.4,39.2,3.2c0.4,0.3,1.3,0.2,1.9,0c5.2-1.6,10.3,0,15.6,0.3c12.1,0.7,24.2-0.1,36.3-0.2
		c1.6,0,3.3,0.7,4.9,0.8c6.5,0.3,13.1,1.4,19.4,0.7c13-1.6,25.1-7,38.4-8.3c10.4-1,20.6-4.1,31.3-3.9c7.1,0.1,14.3-1.7,21.4-1.3
		c12.3,0.6,24.3-1,35.6-5.4c13.9-5.4,27.5-11.3,42.1-15c16.4-4.2,31-14.2,48.5-15.1c1.2-0.1,2.5-1,3.5-1.8
		c10.1-8,21.5-13.9,30.4-23.8c12.8-14.2,24.9-28.8,36.8-43.8c6.6-8.2,9.4-18.1,13.6-27.3c1.9-4.2,3.3-8.6,4.5-13
		c1.6-5.9,2-12.2,4.2-17.8c2.9-7.5,7.3-14.3,10.6-21.6c2.6-5.8,4.3-11.9,6.7-17.8c1.1-2.6,3.9-5,4-7.5c0.3-8.6,6.3-15.8,5.3-24.7
		c-0.3-2.4,2-5.1,3.1-7.7c0.6-1.5,1.8-3.1,1.6-4.6c-1.1-8.1,0.2-16,2.1-23.7c3-12.1,3.3-24.2,3.1-36.5c-0.1-3.7,3-8,1.8-10.9
		c-2.1-5.5-0.2-10.4,0.1-15.6c0.1-2.6,1-5.4,0.6-7.9c-2.2-12.3-5.3-24.4-7.1-36.8c-1.8-12.8-10.3-22.3-15.3-33.4
		c-0.8-1.7-2.7-3.1-3.1-4.9c-1.6-7.4-4.8-13.2-11.2-17.8c-5.4-3.9-7.3-11.6-14.2-14.4c-0.7-0.3-1-1.7-1.4-2.6
		c-4.3-8.8-10.8-14.6-20.4-17.3c-5.5-1.6-11.1-3.5-16-6.4c-6.3-3.6-11.6-8.8-19.6-8.4c-0.8,0-2-0.6-2.6-1.3
		c-5.5-7.1-14.3-9.2-21.2-14c-7.3-5-18.5-4.8-20.9-16.1c-0.1-0.5-1-1-1.6-1.1c-6.5-0.5-10.2-4.9-14.7-8.9
		c-4.8-4.4-10.4-8.8-16.4-10.9c-13.5-4.6-26.3-10.5-39.2-16.5c-11.4-5.3-22.9-10.6-35.2-13.7c-1.4-0.3-2.7-1.9-3.6-3.3
		c-4.2-6.1-10.9-8.3-17.1-11.3c-1.8-0.9-4.3-1.2-5.2-2.6c-6.1-9.1-17.4-8.3-25.4-13.5c-5.2-3.4-11.5-1.9-17.2-2.8
		c-10.6-1.7-21.1-5-31.3-8.3c-13.6-4.4-26.4-10.7-40.3-14.5c-12.3-3.4-24.3-4.2-36.6-3c-12.8,1.2-25.5,3.3-38.2,4.7
		c-5.1,0.5-10.2,0.2-15.3,0.4c-3.9,0.2-7.9,1.3-11.7,1c-7.8-0.6-15.3,0.1-21.8,4.6c-12.3,8.4-25.8,11.1-40.4,9.9
		c-5.2-0.5-10.8-0.4-15.9,0.7c-11.4,2.5-22.9,1.2-34.3,2.8c-11,1.5-22.5,1.1-31.6,9.5c-2.5,2.4-6.4,3.2-9.6,5
		c-6.3,3.5-13.3,6.3-18.7,10.9c-7.5,6.3-15.9,11.3-22.8,18.6c-5.4,5.8-13.8,8.9-19,14.8c-7.1,8-12.4,17.6-18.4,26.6
		c-1.6,2.4-2.2,5.6-4.1,7.8c-8.7,9.8-17.5,19.5-26.6,28.9c-6,6.2-12.8,11.5-18.7,17.7c-5,5.2-8.9,11.7-14.2,16.5
		c-7.3,6.7-15.7,10.8-26.4,7.5c-6.9-2.1-14.3-2.5-21.4-4c-2.1-0.4-4.5-1.5-5.9-3c-2.7-2.8-5.6-4-9.6-4.5
		c-10.5-1.3-20.9-3.4-31.4-4.7c-6.8-0.8-14-2-20.6-0.8c-10.1,2-19.3,0-28.8-2.3c-6.4-1.6-12.9-3.3-19.4-4
		c-5.9-0.7-12.2,1.2-17.7-0.3c-8.4-2.2-16.5-0.5-24.6-0.1c-10.1,0.5-19.6-0.7-29-4c-3.4-1.2-7-1.6-10.6-2.3
		c-12.8-2.6-26.3-1.4-38.4-8.5c-4.9-2.9-11.3-4.3-17.1-4.5c-10.4-0.4-20.9,3-31-1.8c-0.7-0.3-1.9,0.3-2.8,0.5
		c-9.2,1.8-29.7-0.2-38.8-2.6c-8.6-2.3-17.4-3.6-26.2-4.6c-7.8-0.8-15.7-0.5-23.5-0.8c-11.4-0.4-22.8-1-34.2-1.5
		c-0.3,0-0.7,0.1-0.9,0.3c-8.3,5.8-17.2,0-25.8,1.4c-7.9,1.2-16,0.5-24,1c-2.2,0.1-4.3,1.6-6.5,2.5c-1.2,0.5-2.2,1.9-3.4,2
		c-12.9,1.1-24.6,6.9-37.6,8.3c-9.9,1.1-19.9,2.3-29.5,6.8c-6.3,3-13.7,3.6-19.6,8.4c-2.8,2.3-7.4,2.6-11.3,3.5
		c-4.2,0.9-8.5,0.9-12.6,2.1c-5.6,1.7-10.7,5.5-17,2.1c-1-0.5-3,0.9-4.6,1.4c-3.8,1.2-7.5,3.2-11.3,3.6c-6.9,0.7-12.7,3.5-18.2,7.2
		c-3.7,2.5-7.2,4.2-11.8,4.2c-2.5,0-5.1,1.3-7.3,2.6c-8.2,4.6-17,6.9-26.4,7c-2.6,0-5.4,0.5-7.7,1.6c-8.9,4.6-19.8,2.1-28.3,8.1
		c-0.4,0.3-1.3-0.1-2-0.1c-6,0.2-12-0.1-17.9,0.7c-16.4,2-30.4-7.4-45.9-9.5c-0.9-0.1-1.8-0.9-2.5-1.6c-6.3-6.6-17.3-4.6-22.9-12.5
		c-0.2-0.2-0.6-0.2-0.9-0.3c-11.4-1.3-18.9-10.2-28.4-15c-6.2-3.2-13.6-6.2-17.4-13.3c-0.8-1.5-3.3-2.5-5.1-2.9
		c-7-1.4-11.5-6.3-16.4-10.8c-3.7-3.3-7.5-6.4-11.3-9.5c-9.3-7.5-21.4-10.4-30-19.1c-1.3-1.3-3.7-1.5-5.3-2.5
		c-9.6-5.8-19.4-11.3-28.5-17.8c-13.4-9.6-26.5-19.7-39.3-30.1C492,524.9,486.1,518.7,480.9,513.8L480.9,513.8z"/>
</g>
<text transform="matrix(1 0 0 1 122.1599 309.8223)" class="st0 st1">KUNST</text>
<text transform="matrix(1 0 0 1 405.6941 1434.1003)"><tspan x="0" y="0" class="st0 st1">VAK </tspan><tspan x="0" y="193.2" class="st0 st1">APART</tspan></text>
<text transform="matrix(1 0 0 1 1627.0322 760.0728)"><tspan x="0" y="0" class="st0 st1">SAMEN- </tspan><tspan x="0" y="193.2" class="st0 st1">LEVING</tspan></text>
</svg>
