<?xml version="1.0" encoding="utf-8"?>
<!-- Generator: Adobe Illustrator 27.8.0, SVG Export Plug-In . SVG Version: 6.00 Build 0)  -->
<svg version="1.1" id="Layer_1" xmlns="http://www.w3.org/2000/svg" xmlns:xlink="http://www.w3.org/1999/xlink" x="0px" y="0px"
	 viewBox="0 0 282 516" style="enable-background:new 0 0 282 516;" xml:space="preserve">
<style type="text/css">
	.st0{fill:#D3D3D3;}
</style>
<polygon class="st0" points="15.2,25.6 160.7,7.8 278.5,6.7 265.2,274.5 277.5,485.5 7.7,508.8 17.5,278.3 5.1,102.6 "/>
<path d="M276.7,476.8l-1.1-0.4l-1.1,0.2l-1,1.2l-1.3-0.9l-1.1,0.3l-1.1,0.4l-0.9,1l-1.3-0.4l-0.8,1.3l-1.2,0.1h-1.2l-0.9,0.9
	l-0.9,0.9l-1.1,0.4l-1.1,0.3l-1,0.5l-1.2,0.1l-1.2-0.1l-0.8,1.4l-1.1,0.3l-1.2-0.2l-1,0.9l-1.1,0.6l-1.2-0.3l-1.1,0.5l-1.1,0.2
	l-1.2-0.4l-1.1,0.7l-1.2-0.5l-1.1,0l-1.2-0.2l-1.1,1.4l-1.2-0.8l-1.1,0.8l-1.2-0.9l-1.1,1.5l-1.1,0.1l-1.2-1.4l-1.1,0.7l-1.1,0.7
	l-1.1,0.2l-1.2-0.1l-1.1,0.2l-1.1,0.4l-1.2-1.5l-1.1,1.1l-1.2-0.1l-1.2-0.7l-1.1,1.2l-1.1,0.2h-1.1l-1.2-0.9l-1.1,0.9l-1.1,0.4
	l-1.1,0.1l-1.2-0.8l-1.1,0.2l-1.1,1.4l-1.2-0.7l-1.2-0.6l-1.1,0.6l-1.1-0.4l-1.1,1.2l-1.2-0.3l-1.1,0l-1.2-0.6l-1.1,1l-1.1,0.1
	l-1.1-0.1l-1.2-0.3l-1.1,0.4l-1.1,0.7l-1.2-0.9l-1.1,1.2l-1.1-0.1l-1.1,0.1l-1.2-1.2l-1.1,0.8l-1.1-0.3l-1.1,0.2l-1.1,0.2l-1.1,1.2
	l-1.2-1.2l-1,1.4l-1.2-1l-1.1,0.3l-1.1-0.2l-1.1,0.5l-1.1,0.6l-1.1,0.1l-1.2-0.6l-1.1,0.6l-1.1-0.2l-1.1,0.8l-1.2-1l-1.1,1.1
	l-1.2-0.8l-1.1-0.2l-1.1,1.3l-1.2-0.6l-1.1,0.7l-1.1-0.2l-1.1,0.3l-1.1-0.4l-1.1,0.6l-1.1,0.2l-1.1,0.2l-1.1,0.2l-1.1,0.3l-1.1-0.5
	l-1.2-0.9l-1.1,1.4l-1.1-0.3l-1.2-0.8l-1.1,0.4l-1.1,0.1l-1.1,0.8l-1.2-0.6l-1.1,0.1l-1.1,0.6l-1.1-0.1l-1.1,0.9l-1.2-0.8l-1.1,0.2
	l-1.1,0.2l-1.1-0.3l-1.1,1.2l-1.2-0.5l-1.1,0.6l-1.1-0.3l-1.2-0.7l-1.1,1l-1.2-0.3l-1.2-0.8l-1.1,1l-1.1-0.1l-1.1,0.3l-1.2-0.4
	l-1.1,0.3l-1.1,0.1l-1.1-0.2l-1.1,1.3l-1.2-0.6l-1.1,0.6l-1.2-0.7l-1.1-0.3l-1.1,0.7l-1.1,0.7l-1.2-0.6l-1.1,0.9l-1.2-0.4l-1.1,0.5
	l-1.1-0.3l-1.2-0.8l-1,1.4l-1.1-0.4l-1.2-0.6l-1.1,0.2l-1.1,0.6l-1.2-0.5l-1.1,1.2l-1.2-0.9l-1.1,1.1l-1.2-0.8l-1.1,1.1l-1.2-1.3
	l-1.1,1.1l-1.2-0.4l-1.1,0.5l-1.1,0.7l-1.2-0.7l-1.1-0.1l-1.1,1.1l-1.2-0.5l-1.1-0.1l-1.1,1l-1.1-0.1l-1.2-1.1l-1.1,0.4l-1.1,0.9
	l-1.2-0.6l-1.1,0.2l-1.1,0.2l-1.1,0.5l-1.2-0.4l-1.1,0.8l-1.1,0l-1.2-0.8l-1.1,0l-1.1-0.1l-1,1.5l-1.2-0.3l-1.2-1l-1.1,0.4l-1.1,0.6
	l-1.1,0.2l-1.1,0.1l-1.1,0.2l-1.1,0.4l-1.2-0.9l-1.1-0.1l-1.1,0.7l-1.2-0.3l-1.1,0.3l-1.1,0.4l-1.2-0.5l-1.1,1.3l-1.1,0.1l-1.2-1.1
	l-1.1,0.5l-1.1,0.2l-1.1,0.7l-1.1,0.4l-1.1,0.1l-1.2,0l-1.2-0.5l-1.1,0.7l-1.1,0.6l-1.2-1.2l-1.2-0.2l-1.1,1l-1.1,0.4l-1.2-0.7
	l-1.2,0.9l-1.1-1l-1.1-0.4l-1.1-0.3l-1.2,0.7l-1.2,0l-1.2,0.2l-0.9-1.5l-1.4,0.7l-0.7-1.9l-1.1-0.2l-0.9-0.7l-1.3-0.2l-0.4-1.4
	l-1.1-0.6l0-1.6l-0.7-1l-0.3-1.3l-0.1-1.3l-0.4-1.2l-0.6-1.3l0.2-1.4l-0.3-1.4L9,487.3l-0.4-1.4l1.2-1.3l-0.5-1.4l0.2-1.4l0.1-1.4
	l0.6-1.3l-0.5-1.4l0.2-1.4l0.2-1.3l-0.7-1.4l0.9-1.3l-0.7-1.4l0.8-1.3l0.2-1.3l-0.8-1.4l0.6-1.3l-0.6-1.4l0.1-1.3l0.1-1.3l-0.3-1.4
	l1.3-1.3l-0.5-1.4l0.2-1.3l-0.6-1.4l1.1-1.3l-0.2-1.4l-0.1-1.3l-0.7-1.4l1.1-1.3l0.1-1.3l-0.1-1.3l-0.6-1.4l1-1.3l-0.9-1.4l0.9-1.3
	l0.2-1.3l-0.1-1.3l-0.5-1.4l-0.1-1.3l0.1-1.3l-0.1-1.4l0.9-1.3l-0.8-1.4l-0.2-1.4l0.2-1.3l1.1-1.3l0-1.3l-1.1-1.4l1.2-1.3l-0.2-1.4
	l0.1-1.3l-0.9-1.4l0.5-1.3l-0.3-1.4l0.6-1.3l0.6-1.3l-1-1.4l0.1-1.3l-0.2-1.3l1.2-1.3l-0.3-1.3l0.2-1.3l-0.6-1.4l0.9-1.3l-0.5-1.4
	l-0.1-1.3l1-1.3l-0.2-1.4l0-1.3l-1-1.4l0.7-1.3l0.4-1.3l0.3-1.3l-0.5-1.4l-0.2-1.3l0.3-1.3l-0.1-1.3l0.3-1.3l0-1.3l-0.4-1.4l0.7-1.3
	l-0.8-1.4l0.1-1.3l1.4-1.2l-1.3-1.4l0.6-1.3l-0.4-1.4l0-1.3l0.9-1.3l-0.4-1.4l0.6-1.3l0.1-1.3l-1-1.4l0.2-1.3l0.9-1.3l-0.5-1.4
	l-0.4-1.4l0.6-1.3l0.5-1.3l-0.8-1.4l0.4-1.3l0.6-1.3l0-1.3l-0.3-1.4l0-1.3l0.1-1.3l0.8-1.3l-0.2-1.3l-0.9-1.4l0.9-1.3l-0.7-1.4
	l0.6-1.3l0.5-1.3l-0.9-1.4l-0.1-1.3l1.2-1.3l-0.4-1.4l0.4-1.3l-0.1-1.4l-0.7-1.4l0.8-1.3l0.1-1.3l-0.5-1.4l0.6-1.3l0.4-1.3l-1.2-1.4
	l0.9-1.3l0.3-1.3l-0.7-1.4l-0.3-1.4l1.2-1.3l-1.1-1.4l0.2-1.3L17,309l0.7-1.3l-0.3-1.4l-0.2-1.3l-0.5-1.4l-0.1-1.3l0.2-1.3l0.3-1.3
	l-0.4-1.4l0.7-1.3l0.1-1.3l-0.1-1.3l0-1.3l0.3-1.3l-0.8-1.4l0.9-1.3l0.2-1.3l-0.9-1.4l0.3-1.3l0.6-1.3l-0.9-1.4l0.2-1.3l0.6-1.3
	l-0.6-1.3l0.4-1.4l-0.5-1.3l0.2-1.4l0.6-1.3l0.2-1.4l-0.1-1.3l-0.5-1.4l-0.3-1.3l0.1-1.4l1-1.4l-0.4-1.3l0-1.4l-1-1.3l1.3-1.4
	l-0.8-1.3l0.1-1.4l0.1-1.3l0.3-1.4l-0.7-1.3l0.5-1.4l0.1-1.4l0-1.4l-1.3-1.3l1-1.4l-0.2-1.3l0.4-1.4l-0.8-1.3l0.4-1.4l0.2-1.4
	l-1.1-1.3l0.7-1.4l-0.7-1.3l0.8-1.4l-0.9-1.3l0.6-1.4l-0.9-1.3l-0.4-1.3l0.2-1.4l0.4-1.4v-1.3l-0.8-1.3l0.2-1.4l0-1.3l0.4-1.4l0-1.4
	l0.2-1.4l-0.7-1.3l0.1-1.4l-0.8-1.3l-0.2-1.3l-0.2-1.3l0.6-1.4l-0.8-1.3l0.2-1.4l0.9-1.5l-0.5-1.3l-0.6-1.3l0.4-1.4l-0.2-1.3
	l-0.1-1.3l-0.3-1.3l-0.1-1.3l0.6-1.4l0.2-1.4l-0.8-1.3l0.5-1.4l-1.2-1.2l-0.1-1.3l-0.3-1.3l0.7-1.4l-0.2-1.3l0.3-1.4l0-1.3l-0.2-1.3
	l-1.2-1.2l0.4-1.4l-0.1-1.3l-0.2-1.3l0-1.3l0.3-1.4l-0.4-1.3l0.2-1.4l0.3-1.4l-0.7-1.3l-0.1-1.3l0-1.3l-0.4-1.3l-0.5-1.3l0.6-1.4
	l-0.3-1.3l0.1-1.3l-0.7-1.3l0.4-1.4l-0.5-1.3l-0.1-1.3l0.1-1.4l0.6-1.4l-0.7-1.3l0.7-1.4l-1-1.3V143l-0.2-1.3l0.4-1.4l0.6-1.4
	l-0.7-1.3l-0.7-1.3l0.1-1.4v-1.3l0.4-1.4l0-1.3l-0.3-1.3l-0.4-1.3l0.1-1.4l0.5-1.4l-0.2-1.3l-0.4-1.3l1-1.4l-0.6-1.3l0.5-1.3
	l-0.7-1.3l-0.3-1.3l-0.2-1.4l1.2-1.3l0-1.3l-1.1-1.3l1.1-1.3l0.1-1.3l-0.6-1.4l0.1-1.3l-0.7-1.4l1-1.3l-0.9-1.4l1.2-1.3l-0.9-1.4
	l0.6-1.3l0.5-1.3l-0.2-1.4l-1-1.4l0.7-1.3l0.3-1.3l-0.6-1.4L9.8,88l1.3-1.3l-0.2-1.4l-0.7-1.4l0.6-1.3l0.1-1.3l-0.7-1.4l1.2-1.2
	l-0.6-1.4l0.7-1.3l-0.4-1.4l0-1.4l-0.1-1.4l0.1-1.3l0-1.4l0.9-1.2L12,66.6l-0.4-1.4l0.6-1.3l0.2-1.3l-0.6-1.4l0.4-1.3l0.7-1.3
	l0.1-1.4l0.2-1.3l0.4-1.3l0.2-1.3l-0.1-1.4l0.3-1.3l0.4-1.3l-1.1-1.6l0.2-1.3l1.2-1.1l-0.8-1.5l1.5-1.1l-1-1.6l1.3-1.1l-0.8-1.5
	l0.3-1.3L16,36l0.3-1.3l0.3-1.3l0.5-1.2l-0.5-1.5l0.4-1.3L16.7,28l0.8-1.2l-0.6-1.5l0.7-1.2l0.2-1.3l0.3-1l-0.8,0.6l-1.3,0.2
	l-0.7,1.4l-1.4-0.1L13.5,25l0.5,0.4l1.1,0.2l1.2-0.4l0.9,1.3l1.2-0.6l1,1l1.1-0.1l1,0.9l1.2-1.2l1.1,0.7l1.2-0.5l1,1.1l1.1-0.3
	l1.1,0.4l1.2-0.8l1.1,0.2l1.1,0.1l1.1,1l1.1-0.2l1.1,0.3l1.1-0.8l1.1-0.2l1.1,0.4l1.1-0.3l1.1,0.5l1.1,0.4l1.1-0.8l1.1,0.4l1.1-0.8
	l1.2,0.7l1.1-0.8l1.1-0.6l1.2,1l1.1-0.1l1-1.1l1.2,0.7l1.1-0.7l1.2,0.7l1.1-0.3l1-0.9l1-0.7l1.2,0.3l1-0.8l1.2,0.3l1.1-0.1l1.2,0.7
	l0.9-1.6l1.2,0.4l1.1-0.1l1.2,0.3l1.1-0.3l1-0.7l1.2,0.5l1.1-0.1l1.1-0.4l1-1.3L76,23l1.1-0.3l1.1-0.4l1-0.8l1.2,0.4l1.1-0.7
	l1.1-0.7l1.2,0.5l1.1-0.6l1.1-0.5l1.3,1.1l1.1-0.4l1-1.3l1.2,0.9l1-0.8l1.2,0.3l1.2,0.1l1-0.8L96,20l1.1-0.4l1-1.4l1.2,0.1l1.2,0.2
	l1.1-0.5l1.2,0.3l1.1-0.5l1.2,0.6l1.1-0.2l1.1-0.2l1-1l1.2,0.4l1.2,0.4l1-1.5l1.2,1l1-1.3l1.2,0.6l1.2,0.6l1-1.4l1.1-0.3l1.2,0.8
	l1.1-0.1l1.1-0.3l1.2,0.4l1-1.5l1.1-0.2l1.2,0.4l1.1-0.6l1.2,0.9l1.1,0.3l1.1,0l1.1-0.7l1.1,0.2l1-1.3l1.1,0.1l1.2,0.7l1.1,0.3
	l1.1-1.2l1.2,1l1.1-0.3l1.2,0.2l1.1-0.3l1.1-0.5l1.2,0.4l1.1-1.4l1.2,0.4l1.1-0.2l1.1-0.5l1.2,1.5l1.1-1.6l1.1,0.2l1.1-0.4l1.2,0.8
	l1.1-0.9l1.1-0.1l1.2,0.7l1.1-0.1l1.1-0.8l1.1,0l1.2,1.3l1.1-0.8l1.1,0.2l1.2,0.3l1.1-0.6l1.1-0.1l1.1-0.3l1.2,0.8l1.1-1.3l1.2,1
	l1.1-0.5l1.1-0.6l1.2,0.9l1.1-1.2L179,12l1.1-1l1.2,1.6l1.1-0.3l1.1-1.3l1.2,1.1l1.1-0.2l1.1-0.7l1.2,0.7l1.1-0.8l1.2,0.8l1.1-0.4
	l1.1,0l1.1-0.2l1.2,0.5L196,12l1.1-0.5l1.1-0.6l1.1-0.3l1.1,0.8l1.1-0.4l1.1-0.1h1.1l1.1,0.6l1.1,0.5l1.1-0.8l1.1-0.7l1.1-0.2
	l1.1,0.8l1.1-0.5l1.1,0.3l1.1-0.3l1.1-0.3l1.1,0.7l1.1,0.5l1.1-0.2l1.1-1.2l1.1,1.2l1.1-0.1l1.1,0l1.1,0.1l1.1-0.4l1.1-0.3l1.1-0.2
	l1.1-0.3l1.1,0.9l1.1-1l1.1,0.6l1.1-0.4l1.1-0.1l1.1,1.1l1.1-0.5l1.1-0.8l1.1,0.5l1.1-0.4l1.1,0.9l1.1-0.7l1.1,1l1.1,0.2l1.1-1.2
	l1.1,0.2l1.1-0.4l1.1,0.6l1.1,0.2l1.1,0.6l1.1-0.8l1.1-0.2l1.1,0.8l1.1-1.2l1.1,0.3l1.1-0.3l1.1,1.5l1.2-1.4l1.1,0.5l1.1,0.6
	l1.1-0.6l1.1-0.1l1.1,0.1l1.1,0.2l1.1-0.4l1,1.2l1-0.1l1.3-0.3l0.3,1.8l1.1,0.3l0.2,1.3l1,0.8l0.8,1.2l-0.3,1.4l-0.2,1.3l-0.1,1.3
	l-0.2,1.3l-0.1,1.3l-0.1,1.3l-0.1,1.4l0.5,1.4l-0.6,1.4l0.3,1.4l0.2,1.4l-0.7,1.4l0.6,1.4l-0.1,1.4l0.1,1.4l-0.1,1.4l-0.9,1.4
	l0.6,1.4l0.1,1.3l0.3,1.3l0.3,1.3l-0.8,1.3l-0.4,1.3l0.9,1.3l0.3,1.3l-0.7,1.3l-0.7,1.3l0.9,1.4l-0.9,1.3l1.1,1.4l-1.1,1.3l1.3,1.4
	l-0.6,1.3l0.2,1.3l-0.4,1.3l0.5,1.3l0,1.3l-1,1.3l-0.1,1.3l-0.2,1.3l0.3,1.3l1,1.4l0,1.3l-0.3,1.3l-0.4,1.3l0.2,1.4l-0.6,1.3
	l0.7,1.4l0.1,1.4l-0.6,1.3l-0.6,1.3l0.9,1.4l0.4,1.4l-0.7,1.3l-0.6,1.3l0.8,1.4l-0.7,1.3l-0.1,1.3l-0.2,1.3l-0.1,1.4l1.3,1.4
	L272,100l-0.4,1.3l0.8,1.4l0,1.3l-0.7,1.3l-0.5,1.3l0.7,1.4l-0.8,1.3l1.2,1.4l-0.9,1.3l0.9,1.4l-1.3,1.3l0.7,1.4l0.5,1.4l-1.3,1.3
	l0.1,1.4l0.2,1.3l-0.1,1.4l-0.3,1.3l1,1.4l-0.7,1.3l-0.1,1.3l0.8,1.4l-0.7,1.3l-0.3,1.3l0.5,1.4l-0.5,1.3l0.9,1.4l0.1,1.4l-0.9,1.3
	l0.1,1.3l0.3,1.4l-0.6,1.3l0.5,1.4l-0.5,1.3l1,1.4l-1.1,1.3l0.9,1.4l-0.5,1.3l0.1,1.4l0.1,1.3l0.3,1.4l-0.4,1.3l0.1,1.4l-0.9,1.3
	l0.1,1.4l-0.1,1.3l0.1,1.3l0.5,1.4l-0.3,1.3l-0.7,1.3l0.8,1.4l0.2,1.4l0.2,1.4l-0.4,1.3l-0.9,1.3l1.1,1.4l-1.2,1.3l0.6,1.4l0.1,1.4
	l-0.7,1.3l0.2,1.4l0.3,1.4l-0.8,1.3l0.4,1.4l-0.1,1.3l0.6,1.4l-0.8,1.3l0.1,1.4l-0.1,1.3l0.1,1.4l0.4,1.4l-1,1.3l-0.1,1.3l0,1.4
	l0.6,1.4l-0.4,1.3l-0.7,1.3l1,1.4l-0.3,1.3l0.1,1.4l-1.2,1.3l0.5,1.4l0.5,1.4l-0.7,1.3l-0.5,1.3l-0.2,1.3l-0.1,1.3l0.9,1.4l-0.4,1.3
	l0.4,1.4l-0.3,1.3l-0.5,1.3l-0.5,1.3l0.1,1.4l0.8,1.4l-0.2,1.3l-0.4,1.3l0,1.4l-0.4,1.3l0.2,1.4l0.2,1.4l-0.3,1.3l-0.7,1.3l1.2,1.4
	l-1,1.3l0.6,1.4l-0.1,1.3l-0.1,1.3l-0.9,1.3l-0.2,1.3l1.1,1.4l-0.6,1.3l-0.8,1.3l-0.1,1.3l0.1,1.4l0.6,1.4l-1,1.3l0.6,1.4l-0.9,1.3
	l0.9,1.4l-0.1,1.3l-0.7,1.3l0.3,1.4l-0.4,1.3l-0.1,1.3l0.8,1.4l-0.5,1.3l-0.6,1.3l0.4,1.4l0.6,1.4l-1.2,1.3l0.2,1.4l0.4,1.4
	l-0.2,1.3l-0.2,1.3l-0.3,1.3l0.7,1.4l-0.4,1.3l-0.7,1.3l0.3,1.4l-0.3,1.3l0.8,1.4l-0.3,1.3l0,1.4l-0.8,1.3l0.9,1.4l0,1.3l-0.5,1.3
	l0.4,1.4l-0.1,1.3l-0.8,1.3l-0.3,1.3l0.3,1.4l0.3,1.4l0.1,1.4l-0.1,1.3l0.2,1.4l-1.2,1.3l0.3,1.4l0.6,1.4l-0.7,1.3l0.7,1.4l-0.2,1.3
	l-0.5,1.3l-0.4,1.3l0.1,1.4l1,1.4l0.2,1.3l-1.3,1.3l0.5,1.4l-0.5,1.3l0.9,1.4l0.4,1.4l-0.3,1.3l0.2,1.3l-1,1.4l0.4,1.3l-0.3,1.4
	l0,1.3l0.9,1.3l0.2,1.3l-0.6,1.4l0.3,1.3l0.1,1.3l-0.9,1.4l0.6,1.3l0.6,1.3l-0.9,1.4l0.1,1.3l0.7,1.3l0.3,1.3l-1,1.4l1.1,1.3l0,1.3
	l-1.1,1.4l0.3,1.3l0.4,1.3l0.3,1.3l-0.4,1.4l-0.2,1.4l1.4,1.2l-0.2,1.4l0.1,1.3l0.4,1.3l-0.5,1.4l-0.6,1.4l0.5,1.3l0.3,1.3l0.6,1.3
	l-0.6,1.4l0.3,1.3l-0.2,1.4l1.2,1.2l-0.6,1.4l0.1,1.4l0.4,1.3l0.5,1.3l0.1,1.3L266,394l-0.1,1.4l0.9,1.2l-0.1,1.4l-0.3,1.4l-0.1,1.4
	l1.1,1.2l-0.7,1.5l0.1,1.3l0.3,1.3l-0.1,1.4l1.1,1.2l0,1.3l-0.7,1.5l0.6,1.3l0.7,1.2l-0.1,1.4l-0.2,1.4l0,1.4l0.9,1.2l-1,1.5
	l0.6,1.3l1.1,1.2l-0.2,1.4l-0.1,1.3l-0.5,1.4l0.8,1.2l-0.3,1.4l1,1.2l0,1.3l-0.6,1.4l-0.4,1.4l1.1,1.2l0.4,1.3l-1.2,1.5l0.7,1.3
	l-0.6,1.4l1.3,1.2l-0.8,1.4l0.5,1.3l0.7,1.3l-0.3,1.4l0.2,1.3l0.2,1.3l0.1,1.3l-0.5,1.4v1.3l0.6,1.3l-0.4,1.4l0.2,1.3l-0.1,1.4
	l0.8,1.3l-1.1,1.4l0.7,1.3l0.6,1.3l-0.5,1.3l0.2,1.3l0.1,1.3l0,1.3l0.3,1.3l-1,1.3l-0.3,1.3v1.3l0.2,1.3l-0.3,1.3l0.1,1.3l0.7,1.4
	l0.7,1.1l-0.1,1.3l0.4,1.3l1.1,0.3l1,0.3h1l0.9-0.4l1-0.2l1-0.4l1-0.7l0.5-1.2l0.4-1.4l-1.1-1.4l0.9-1.3l0.5-1.3l-0.6-1.4l-0.1-1.3
	l-0.1-1.4l0-1.3l-0.4-1.3l0.2-1.4l-0.3-1.3l0.8-1.4l-0.5-1.3l0.4-1.4l-0.9-1.3l1.1-1.4l0.1-1.4l-1.4-1.3l0.7-1.4l-0.1-1.3l0.2-1.4
	l0.1-1.4L280,452l-0.1-1.3l0.9-1.4l-1.3-1.2l0-1.4l0.8-1.4l-0.6-1.3l-0.1-1.3l-0.5-1.3l0.2-1.4l0.7-1.4l-0.9-1.3l-0.5-1.3l1.2-1.5
	l0-1.3l-1-1.2l0.1-1.4l-0.5-1.3l-0.4-1.3l-0.2-1.3l0.4-1.4l0.6-1.4l0-1.4l-1.4-1.2l0.7-1.4l-0.8-1.3l0-1.4l0.7-1.4l-1.2-1.2l0.7-1.4
	l0.3-1.4l-1-1.2l0.1-1.4l0.1-1.4l-0.9-1.2l0.1-1.4l0.9-1.5l-0.6-1.3l-0.6-1.3l0.1-1.4l-0.7-1.3l0.9-1.5l-0.9-1.2l0.5-1.4l-0.2-1.3
	l-1-1.2l1.1-1.5l-0.8-1.2l-0.1-1.4l0.6-1.4l-1-1.2l0.1-1.4l0.5-1.4l-0.4-1.3l-1-1.2l0.9-1.5l-0.2-1.3l-1.2-1.2l0-1.4l0.1-1.4
	l-0.1-1.3l0.4-1.4l0-1.3l-0.7-1.3l0.2-1.4l-0.8-1.3l0.4-1.4l-0.1-1.3l0.2-1.4l0.3-1.4l-0.9-1.3l-0.3-1.3l0-1.3l0.4-1.4l-0.5-1.3
	l0.7-1.4l-1.1-1.3l0.6-1.4l-0.1-1.3l0.2-1.4l-0.5-1.3l0.3-1.4l-0.5-1.3l0.6-1.4l-0.3-1.3l-0.3-1.3l0.5-1.4l-0.4-1.3l-0.2-1.3
	l-0.3-1.3l1-1.4l-0.6-1.3l0.2-1.4l0.3-1.3l0.2-1.3l-1.1-1.4l0.3-1.3l0.2-1.3l0.8-1.3l-0.2-1.3l-0.7-1.4l-0.2-1.3l0.6-1.3l0.2-1.3
	l-0.5-1.4l0.2-1.3l-0.3-1.3l0.2-1.3l0.6-1.3l0.1-1.3l-0.2-1.4l0.5-1.3l0-1.3l0-1.3l-0.5-1.4l0.7-1.3l-0.5-1.4l0.1-1.3l-0.5-1.4
	l1.3-1.3l-1.1-1.4l0.5-1.3l0.4-1.3l0-1.3l-0.7-1.4l0.2-1.3l-0.2-1.4l0.9-1.3l0.2-1.3l0.2-1.3l-0.6-1.4l0-1.4l0.1-1.3l-0.2-1.4
	l1.3-1.2l-0.9-1.4l0.9-1.3l-1-1.4l1.1-1.3l-0.3-1.4l-0.8-1.4l0.4-1.3l1-1.3l0-1.3l-1-1.4l1.3-1.2l-0.5-1.4l0-1.4l-0.3-1.4l-0.1-1.4
	l0.1-1.3v-1.3l0.9-1.3l0.2-1.3l-0.5-1.4l0.5-1.3l-0.5-1.4l0.2-1.3l0.4-1.3l0.8-1.3l-0.2-1.4l-0.5-1.4l-0.2-1.4l1-1.3l0.2-1.3
	l-0.3-1.4l-0.3-1.4l-0.2-1.4l1.4-1.2l0-1.4l-0.9-1.4l0.2-1.3l0.4-1.3l0.2-1.3l0.4-1.3l-1-1.4l0.9-1.3l0.5-1.3l-0.2-1.4l0.1-1.3
	l-0.4-1.4l0.3-1.3l-0.7-1.4l1.4-1.2l-1.1-1.4l0.5-1.3l0.4-1.3l-0.1-1.3l-0.4-1.4l0.6-1.3l-0.2-1.4l0.9-1.3l-0.7-1.4v-1.3l0.4-1.3
	l-0.6-1.4l0.7-1.3l-0.6-1.4l0.7-1.3l0.2-1.3l0.1-1.3l-0.6-1.4l1.2-1.3l0-1.3l-1.1-1.4l0-1.3l-0.1-1.3l0.9-1.3l-0.4-1.4l0.8-1.3
	l0.1-1.3l-0.5-1.4l-0.6-1.4l0.9-1.3l0.2-1.3l0-1.3l-0.2-1.4l0.7-1.3l-1-1.4l0.1-1.3l0.6-1.3l-0.9-1.4l1.3-1.3l-0.3-1.4l0.4-1.3
	l-0.4-1.3l0.4-1.3l-1.1-1.4l0.9-1.3l-0.1-1.3l0.4-1.3l-0.1-1.3l0.2-1.3l-0.5-1.4l0.3-1.3l0.5-1.3l-0.6-1.4l0.3-1.3l-0.3-1.3l0.6-1.3
	l-0.3-1.3l0.4-1.3l-0.7-1.4l0.1-1.3l0.3-1.3l0.3-1.3l-0.1-1.3l0.3-1.3l0-1.3l0.2-1.3l-0.5-1.3l0.4-1.3l-1-1.4l0.7-1.3l0.4-1.3
	l0.1-1.3l-0.5-1.4l-0.7-1.4l0.3-1.3l0.7-1.3l-0.7-1.3l-0.1-1.3l1.1-1.3l-0.1-1.3l-0.2-1.3l-0.2-1.3l0-1.3l0.2-1.3l0-1.3l0.4-1.3
	l-0.6-1.4l0.3-1.3l-0.3-1.3l0-1.3l0.5-1.3l-0.6-1.4l-0.2-1.3l-0.1-1.3l0.8-1.3l0.1-1.3l-0.4-1.3l0.1-1.3l0.8-1.3l-1.1-1.4l0.4-1.3
	l0.4-1.3l-0.8-1.3l0.8-1.3l-0.1-1.3l0-1.3l-0.3-1.3l0.2-1.3l-0.1-1.3l-0.4-1.3l0.7-1.3l0.3-1.3l-0.3-1.3l-0.2-1.3l0.8-1.3l-0.5-1.3
	l-0.4-1.3l-0.1-1.3l0.6-1.3l-0.4-1.3l0.5-1.3l-0.5-1.3l0.1-1.4l-0.4-1.4l0.9-1.4l0-1.4l0.1-1.4l-0.1-1.4l-0.3-1.4l-0.1-1.4l0.1-1.4
	l-0.6-1.4l0.1-1.4l0.7-1.4l-0.8-1.3l0.8-1.3l0-1.3l0.1-1.3l-0.7-1.3l0.5-1.3l0.3-1.3l-0.8-1.3l0.5-1.3l-0.6-1.2l0.9-1.5l-0.7-1.2
	l-0.9-1l-0.2-1.2l0.6-1.9L280,7l-1.5-0.4l0-1.9l-1.4-0.2l-0.9-0.8l-1.1-0.5l-1.1-0.5L273,2.3l-1.2,0l-1-1l-1.2,0.6l-1.1-0.8
	l-1.1,0.2l-1.1,0l-1.1-0.5L264,0.8l-1.1,0l-1.2-0.2L260.6,0l-1.2,1.3l-1.1-1l-1.1,1.2L256,1.3l-1.2-0.2l-1.1-1l-1.1,0L251.5,1
	l-1.1-0.9l-1.1,1.4L248,0.6l-1.2,0.1l-1.1,0.2l-1.1-0.3L243.5,1l-1.1-0.4l-1.1-0.2L240,1.5l-1.2-1.4l-1.1,1.6L236.6,1l-1.1,0.6
	l-1.2,0.1L233.2,1L232,1.7l-1.1-1.3l-1.1,1.1l-1.1-0.3l-1.1,0.4l-1.1-1.1l-1.1,0.5l-1.1,0.7l-1.1-1.4l-1.1,0.3l-1.1,0.1l-1.1,0.4
	l-1.1-0.6l-1.1,0.8l-1.1,0.5l-1.1-1.5l-1.1,1.2l-1.1-1l-1.1,0.7l-1.1,0.5l-1.1-0.2l-1.1-1h-1.1l-1.1,1.2l-1.1-1L204,1.3l-1.1-0.5
	L201.7,1l-1.1,0.8l-1.1-0.2l-1.1,0.3L197.2,1l-1.1,0.2L195,1.3L193.8,1l-1.1,0.9l-1.1-0.1l-1.2-1.1l-1.1,1.3l-1.1-1.2l-1.1,0.9
	L186,1.8l-1.1,0.6l-1.2-1.1l-1.1-0.1l-1.1,0l-1.1,1.1l-1.2-0.7l-1.1,0.1L177,1.5l-1.1,1l-1.1-0.2l-1.1-0.6l-1.1,0.9l-1.2-1.2
	l-1.1,0.1l-1.1,0L168,1.4l-1.1,1.2l-1.2-0.5l-1.1,0l-1.1,0.1l-1.1,0.7l-1.1,0.3l-1.2-0.9L159,2.8l-1.1,0l-1.2-0.7l-1.1,0l-1.1,1.4
	l-1.2-0.5l-1.1,0.8l-1.2-0.9L150,2.6l-1.1,0.9l-1.2-0.6l-1.1-0.1l-1.1,0.6l-1.1,1l-1.2-0.9l-1.1,0L141,3.5l-1.1,1.3l-1.1,0.2l-1.1,0
	L136.6,5l-1.2-0.7l-1.1,0.5l-1.1,0.1L132,4.4l-1.1,0.5l-1.2-0.8l-1.1,0.2l-1.1,0.2l-1.1,0.6l-1.1,1.1l-1.2-0.6L123,5l-1.1,0.1
	l-1,1.2l-1.2-0.7l-1.1,0.8l-1.1-0.1h-1.1l-1.1,0.1L114,6.1l-1.1,0.3l-1.1,0.8l-1.1,0.4l-1.2-0.6l-1.1,0.1l-1.1,0.3l-1.1,0.6
	l-1.2-0.3l-1.2-0.3l-1.1,0.1l-1,1.4l-1.2-0.9l-1.2,0l-1.1,0.2l-1.1,0.4l-1.1,0.4L95,9.4L94,10.2l-1.1,0.1l-1.1,0.2l-1.1,0.1
	l-1.2-0.7l-1.1,0.5L87.3,11l-1.1,0.4l-1.3-1l-1,0.7l-1.2-0.3l-1,1l-1.2,0l-1.2-0.7l-1,0.9l-1.1,0.1l-1.1,0.3L75,12.1l-0.9,1.5
	L73,13.8l-1.2-0.3l-1,0.7l-1.1,0.2l-1.1,0.5l-1.2-0.7l-1.1,0.6l-1.1,0.5l-1.2-0.5l-1.2-0.1l-1,1l-1.2-0.2L59.7,16l-1.1,0.3l-1,0.8
	L56.4,17l-1.2-0.2l-1.2-0.6L53,16.5l-1,1.2l-1.1,0.1l-1.1-0.1l-1.1,0.4l-1.2-1.4l-1,1.7L45.2,17l-1,1.4L43,18.5l-1.1,0.4l-1.1-0.6
	l-1.1-0.5L38.5,19L37.4,18l-1.1,0.6L35.2,18l-1.1-0.3l-1.2,1.2l-1.1-1.1l-1.1,0.1l-1.1-0.5l-1.2,0.6l-1.1-0.4l-1.2,0.7l-1.1-0.7
	L24,17.2L22.9,17l-1.2,0.1l-1-1.2l-1.3,0.8l-0.9-1.4l-1.3,0.7l-1.1-0.4l-0.9-1l-1.2,0.8L13,14.9l-1.2,0.3L11,16.4l-0.4,1.3l-0.5,1.2
	l-0.6,1.2l0.4,1.5l-0.1,1.3l-0.4,1.3l-1.3,1.1L8,26.6l-0.1,1.3L8,29.3l0.3,1.4l-0.8,1.2l0.4,1.5l-1,1.2L7.1,36l0.3,1.4l-1.1,1.2
	l-0.2,1.3l-0.2,1.3L6,42.6l0.8,1.5l-0.4,1.3l-1.1,1.2L6.1,48l-1.3,1.2l0.4,1.4L5.2,52l0.1,1.4l-0.6,1.3L4.8,56l0.1,1.4l-0.5,1.3V60
	l-0.8,1.3l0.8,1.5L3.8,64l0.3,1.4l-0.9,1.3l-0.1,1.3l0.4,1.4l-0.6,1.3L3.5,72l-0.7,1.3l0.4,1.4l0.3,1.4l-0.7,1.3l-0.2,1.3L2.3,80
	l0.5,1.4L3,82.8l-0.5,1.3l-0.2,1.3l0.4,1.4l0.1,1.4l-1.1,1.3l0.6,1.4l0.5,1.4l-0.7,1.3l0.4,1.4l-0.7,1.3l0.1,1.4l0,1.4l0.1,1.3
	l-0.1,1.4l0.1,1.3l-0.7,1.3l0.8,1.4l0.1,1.4l-0.1,1.3l-0.4,1.3l0.6,1.4l0.1,1.3l-0.3,1.3l0.2,1.4l-1,1.3l1.3,1.3l-1,1.4l0.4,1.3
	l-0.6,1.4v1.4l0,1.3l1,1.3l-0.7,1.4l-0.3,1.4l0.3,1.3l0.1,1.3l0.8,1.3l0,1.3l0.3,1.3L2,136.5l0.2,1.3L2,139.2l-0.3,1.4l1.1,1.3
	l-0.7,1.4L2,144.6l0.9,1.3l0.1,1.3l-1,1.4l0.8,1.3l-0.3,1.4l0.8,1.3l-0.1,1.4l-0.9,1.4l0.3,1.3l0.4,1.3l0.6,1.3l-0.6,1.4L2.9,162
	l-0.1,1.4l0.3,1.3l1.1,1.3l-0.2,1.4l-0.8,1.4l0.5,1.3l0.9,1.3l-1,1.4l0.5,1.3l0.9,1.3l-0.7,1.4l0.8,1.3l-0.1,1.4l-0.9,1.4l0.8,1.3
	l0.7,1.3l0.1,1.4l-1.1,1.5l0.2,1.3l-0.1,1.4l1.2,1.2L5,191.5l0.1,1.3l0.2,1.3l0.2,1.3l-0.2,1.4l1,1.3l-1,1.5l0.6,1.3l0.5,1.3
	l-0.1,1.4l0.1,1.3l-0.4,1.4l0.6,1.3l-0.3,1.4l0.9,1.3L7,211.6L6.4,213l0.9,1.3l-0.6,1.4l0.9,1.3l-0.6,1.4l0.9,1.3L6.9,221l0.2,1.3
	l0.7,1.3l0.5,1.3l-0.3,1.4l0.3,1.3L8,229l0.4,1.3l0.2,1.3L8.2,233l-0.5,1.4l0,1.3l0.6,1.3l-0.1,1.4l0.2,1.3l-0.1,1.4l0.4,1.3
	l0.5,1.3l-0.4,1.4l0.1,1.3l0.1,1.4l-0.3,1.4l-0.2,1.4l0.1,1.3l1.3,1.3l-1.1,1.4l1,1.3l-0.7,1.4l1,1.3l-1.2,1.4l0.7,1.3l0.6,1.3
	L9,264l0.9,1.3l-0.2,1.4L9.1,268l0.2,1.3l-0.4,1.4L8.8,272l0.6,1.3l0.1,1.4l0.6,1.4l-1.3,1.3l0.4,1.4l-0.2,1.3l-0.1,1.4l-0.2,1.3
	l0.3,1.4l0.6,1.4l0.5,1.4l-0.3,1.3l-0.9,1.3l1.1,1.4l-1,1.3l-0.1,1.3l-0.3,1.3l0.2,1.4l0.2,1.4l0.1,1.4l0.2,1.4l-0.8,1.3l1.1,1.4
	l-1,1.3l0.5,1.4l0.3,1.4l-1,1.3l-0.1,1.3l1.3,1.4L8,312.3l0.9,1.4l-0.1,1.3l-1.1,1.3l-0.2,1.3l0.6,1.4l0.3,1.4v1.4l-0.6,1.3l0.8,1.4
	l0,1.3l-1,1.3l-0.1,1.3l0,1.4l-0.2,1.3l1,1.4l-1.4,1.3v1.4l0.2,1.4l-0.1,1.3l0.9,1.4l-0.3,1.3l0,1.4l0.2,1.4l-0.9,1.3l0.5,1.4
	l-0.1,1.3l-1,1.3L7,350l-0.7,1.3L6,352.6l0.4,1.4l-0.1,1.3l0.5,1.4l0.2,1.4l-0.5,1.3l0.3,1.4v1.4l-1.2,1.3l-0.2,1.3l0.8,1.4
	l-0.8,1.3l0.3,1.4l0.2,1.4l-0.4,1.3l0.6,1.4L5.1,374l0.2,1.4l0.9,1.4l-0.1,1.3l-0.5,1.3l-0.8,1.3l0.9,1.4l0.3,1.4l-0.7,1.3l0.2,1.4
	l-0.2,1.3l0.4,1.4l-0.1,1.3l-0.8,1.3l-0.3,1.3l-0.1,1.3l1,1.4l0.1,1.3l-0.4,1.3l-0.6,1.3l-0.4,1.3l1.2,1.4l-0.4,1.3l-0.5,1.3
	l-0.1,1.3l-0.3,1.3l1,1.4l-0.5,1.3l0.4,1.4l-1.2,1.3l0.9,1.4l-0.2,1.3l-0.7,1.3l0.5,1.4l0.1,1.4l-0.8,1.3l0.7,1.4l-0.3,1.3L4,425
	l-0.9,1.3l0.7,1.4l-1.1,1.3l0.4,1.4l0.5,1.4l0.1,1.4l-1.1,1.3l0.1,1.4L2.3,437l0.4,1.4l-0.1,1.4l0.6,1.4l-0.9,1.3l0.9,1.4l-0.6,1.3
	l-0.3,1.3l0.5,1.4L2,449.1l0.1,1.4l0.9,1.4l-0.6,1.3l-0.7,1.3l0.1,1.4l0.5,1.4l0.1,1.4L2.2,460l0.3,1.4l-0.3,1.3L1.3,464l1.1,1.4
	l-0.3,1.3L1,468l0.1,1.4L1,470.7l0.1,1.4l1.1,1.4l-0.5,1.3L1,476.1l-0.4,1.3l0.9,1.4L1.3,480l-0.7,1.2l0,1.3l-0.1,1.3l0.3,1.3
	l-0.1,1.3l-0.3,1.3l-0.1,1.3l0.4,1.3L0,491.8l0.6,1.3l0.3,1.3l0.4,1.3l-0.5,1.5l0.2,1.3l1.1,1l0.7,1l0.4,1.2l0.5,1.2l-0.4,1.8
	l1.7,0.2l-0.1,1.8l0.6,1.3l1.4,0.2l0.9,0.7l0.4,1.6l1.3,0.1l1.2,0.2l0.8,1l1,0.6l1.1,0.2l0.9,1.1l1,0.9l1.1,0.1l1.1,0.5l1.2-0.1
	l1.1,0.2l1.2-0.4l1.1,0.4l1.2-0.5l1.1,0.1l1.1,0.8l1.1,0.3l1.1-0.9l1.1,0.9l1.1-0.5l1.1-0.6l1.2,0.5l1.1,0.4l1.1-0.7l1.1-0.6l1.2,1
	l1.1-0.9l1.2,0.4l1.1-0.5l1.2,0.2l1.1,0.1l1-1.1l1.2,0.5l1.1,0l1.1-0.8l1.1-0.6l1.1-0.5l1.2,0.4l1.1-0.3l1.2,0.7l1.1-0.4l1.2,0.5
	l1-1.5l1.2,0.9l1.1-1.1l1.2,1.4l1.1-1.2l1.2,1l1.1-1.5l1.2,1.3l1.1-0.2l1.1-0.3l1.1-0.2l1.1-0.1l1.1-0.9l1.2,0.6l1.1-0.5l1.1-0.8
	l1.1-0.1l1.2,0.6l1.1-0.2L77,511l1.1-0.1l1.2,0.2l1.1-0.4l1.1-0.5l1.2,0.1l1.1-1.1l1.1,0l1.2,0.3l1.2,0.3l1.1-0.4l1.1-0.6l1.1,0.1
	l1.2,0.9l1.2,0.2l1.1-0.4l1.1-0.5l1.2,0.6l1.1-0.4l1.1-0.5l1.1-0.8l1.1,0.1l1.1,0l1.2,1l1.1-1.4l1.1,0.4l1.1-0.2l1.1-0.4l1.2,0.9
	l1-1.5l1.2,0.7l1.2,0.4l1.1-0.6l1.2,0.4l1.1-0.9l1.1-0.4l1.1-0.3h1.1h1.1l1.1,0.3l1.2,0.7l1.1-0.9l1.2,0.8l1-1.5l1.2,1.2l1.1-1.2
	l1.1,0.1l1.1-0.2l1.1,0.5l1.2,0.6l1.1-0.6l1.1-0.5l1.1-0.6l1.2,1l1.1-1.3l1.1,0l1.1-0.2l1.1-0.1l1.1,0.1l1.1-0.1l1.1-0.1l1.2,0.6
	l1.1,0.1l1.1,0.2l1.1-0.6l1.1-0.6l1.1,0.1l1.1-0.2l1.1-0.1l1.2,0.8l1.1-0.3l1.1-1l1.2,0.9l1.1-1.1l1.2,0.8l1.1-1.3l1.1-0.2l1.1,0
	l1.1-0.1l1.2,1.2l1.1-0.2l1.1,0.2l1-1.7l1.2,0.9l1.1,0.3l1.1-0.2l1.1-0.4l1.2,0.4l1-1.6l1.2,0.9l1.1-0.7l1.1,0.3l1.1-0.1l1.1-0.7
	l1.1,0.3l1.2,0.6l1-1.4l1.1,0.4l1.1-0.1l1.2,0.7l1.1-0.6l1.1,0.1l1.2,0.4l1.1-0.8l1.1,0.1l1.2,0.2l1.1-0.6l1.1-0.6l1.2,0.9l1.1-0.1
	l1.1-0.5l1.1,0l1.1-0.2l1.1,0.3l1.1-0.2l1.1-1.3l1.1,0.3l1.1-0.3l1.1,0.1l1.1-0.2l1.1-0.2l1.2,1.2l1.1-0.6l1.1-0.3l1.1-0.1l1.1-0.9
	l1.2,1l1.1-0.8l1.1,0.4l1.1-0.3l1.1,0.2l1.2,0.3l1.1-0.8h1.1l1.1-0.8l1.1,0l1.2,1.2l1.1-0.4l1.2,0.1l1.1-0.7l1.1-0.7l1.1,0.1
	l1.2,0.5l1.2,0.3l1.1-0.5l1.1-0.6l1.2,0.7l1.1-0.8l1.1-0.1l1.2,0l1.2,0.8l1.1-1.4l1.2,1l1.1-0.5l1.2,0.4l1.2,0l1.1-0.8l1.2,0.3
	l1-1.3l1.1-0.4l1.1-0.6l1.4,1.1l1-0.7l1-0.7l0.9-1.1l1.2-0.1h1.2l1-0.7l0.7-1.4l1.5,0.8l1-0.5l1.1-0.4l0.7-1.7l1-0.6l1.4,0.9
	l0.8-1.7l1.2-0.1l1.2,0.3l1.1-0.5l1.3,0.9l1.1-0.6l0.6-1.4l0.4-1.2l0.5-1.1l-0.3-1.3l0.6-1.3l-0.6-1.1l0-1.7l-1.4-0.2l-1.1,0.1
	L276.7,476.8z"/>
</svg>
