<svg width="635" height="449" viewBox="0 0 635 449" fill="none" xmlns="http://www.w3.org/2000/svg">
<mask id="path-1-inside-1_122_156" fill="white">
<path d="M39.9058 426.314L40.4542 424.579L40.3078 422.871L38.9158 421.35L40.0576 419.434L39.7005 417.743L39.2587 416.071L38.0116 414.641L38.607 412.711L36.9777 411.424L36.9382 409.653L36.9837 407.841L35.9048 406.415L34.8464 405.012L34.4251 403.362L34.11 401.672L33.5405 400.062L33.4588 398.29L33.5679 396.457L31.9172 395.192L31.5385 393.522L31.8158 391.693L30.7595 390.203L30.0855 388.569L30.5093 386.766L29.9619 385.113L29.7945 383.404L30.3661 381.583L29.546 379.902L30.1596 378.082L30.1824 376.334L30.4581 374.571L28.7541 372.911L29.767 371.101L28.8214 369.394L29.9814 367.588L28.1303 365.924L28.0271 364.174L29.7977 362.339L28.9367 360.613L28.1382 358.91L27.9719 357.158L28.1004 355.391L27.9551 353.639L27.5361 351.902L29.4118 350.07L28.1293 348.377L28.3419 346.612L29.2702 344.822L27.8196 343.125L27.6532 341.372L27.6971 339.625L28.9202 337.82L27.8905 336.112L27.4083 334.373L27.3682 332.624L28.4016 330.836L28.1922 329.127L26.5302 327.468L27.458 325.699L28.3016 323.929L27.6502 322.23L28.1361 320.472L26.7054 318.819L27.1071 317.059L27.1714 315.334L27.931 313.561L26.7531 311.893L26.6283 310.163L26.7347 308.44L27.0944 306.679L26.6953 304.986L25.8127 303.281L26.9722 301.497L25.5414 299.844L25.6694 298.099L25.586 296.392L27.0829 294.572L26.1367 292.888L26.5589 291.15L26.371 289.419L26.1826 287.71L24.7314 286.035L26.2278 284.237L24.5654 282.6L25.8094 280.795L25.495 279.083L25.8121 277.343L25.2026 275.645L24.4883 273.944L24.4475 272.217L25.2701 270.446L24.5347 268.745L24.8308 267.004L23.9266 265.32L25.2548 263.518L23.9503 261.868L24.9836 260.08L25.2377 258.339L23.7229 256.684L24.5455 254.912L23.7465 253.232L24.0006 251.49L23.665 249.777L24.1718 248.02L23.4994 246.32L23.2905 244.588L23.1021 242.879L22.8932 241.148L22.5997 239.436L23.3167 237.684L24.4341 235.898L22.7302 234.238L23.0893 232.499L24.1858 230.713L23.7031 228.996L23.6414 227.268L22.6525 225.605L23.4332 223.832L23.3714 222.104L22.699 220.405L22.8269 218.66L21.7121 216.993L22.7455 215.205L22.494 213.495L22.3482 211.765L22.7493 210.026L21.2766 208.372L21.9942 206.598L21.2371 204.919L21.6179 203.158L22.5246 201.389L21.2625 199.719L21.6433 197.958L22.7182 196.193L21.4561 194.523L21.6682 192.78L21.3957 191.068L21.9445 189.312L21.6515 187.578L21.5898 185.851L21.8223 184.13L20.2234 182.473L20.983 180.7L20.2896 179L21.1543 177.23L21.5555 175.492L20.757 173.789L19.9369 172.108L20.7385 170.336L19.6452 168.648L20.1731 166.891L19.5637 165.193L19.9649 163.455L21.0403 161.668L19.2938 160.029L19.8216 158.272L20.6233 156.501L20.3929 154.79L19.6363 153.089L20.3539 151.315L18.9653 149.663L20.1037 147.878L18.7366 146.204L19.8331 144.418L18.5285 142.768L20.1304 140.951L18.8474 139.28L19.4383 137.525L18.892 135.829L18.0299 134.146L18.9161 132.355L19.1066 130.633L17.8236 128.962L18.5411 127.188L18.7111 125.444L17.4485 123.795L17.5765 122.05L18.9257 120.249L18.4424 118.554L17.3912 116.867L18.1718 115.095L17.9414 113.384L17.7955 111.654L17.2282 109.957L17.7981 108.202L16.873 106.518L16.8952 104.792L17.9917 103.006L18.0145 101.258L18.1419 99.535L16.3113 97.8938L16.7341 96.1344L17.9777 94.3519L17.558 92.6369L16.843 90.9581L16.6972 89.2281L16.6564 87.5008L16.5106 85.7708L16.0273 84.076L17.1874 82.2696L17.3989 80.5486L16.6004 78.8459L17.0652 77.0875L16.7716 75.3757L16.2675 73.6804L16.9855 71.8847L15.3657 70.2269L15.3459 68.5001L16.7808 66.635L16.2351 64.9168L15.9842 63.1842L15.1646 61.481L14.724 59.7655L14.6417 58.0152L14.7072 56.2468L15.3838 54.4282L14.6063 52.7261L13.914 50.9824L15.4109 49.1625L15.6655 47.3989L14.4682 45.6643L13.9866 43.9041L14.8507 42.1557L13.7182 40.3572L15.0015 38.6631L15.5913 36.9516L15.992 35.2354L15.1138 33.3559L15.2002 31.588L14.9731 29.7467L16.8373 28.3731L15.9651 26.2534L18.3024 25.3069L18.598 23.588L19.5584 22.1917L19.798 20.1873L21.6011 19.577L22.4215 17.8932L24.3774 17.8986L25.6858 16.8825L27.2543 16.3975L28.9181 16.3081L30.4683 15.7134L32.0484 14.7697L33.7443 15.0745L35.4383 14.6144L37.1287 14.3072L38.8659 13.8046L40.4382 15.6796L42.1815 14.9367L43.8536 15.3502L45.5302 15.589L47.1472 16.5255L48.9103 15.8268L50.5857 16.1093L52.2192 16.3907L53.9712 15.2984L55.5135 16.6919L57.2413 15.7301L58.8096 16.9277L60.4403 17.3183L62.1719 16.2036L63.7446 17.2264L65.4718 16.2864L67.1268 16.5465L68.7629 16.7187L70.4559 16.3024L71.9624 18.285L73.6642 17.5192L75.2955 17.888L77.0193 17.079L78.5314 18.8433L80.22 18.6017L81.8837 18.5123L83.6136 17.4632L85.1268 19.1838L86.7828 19.4002L88.4471 19.289L90.1721 18.4364L91.6886 20.026L93.4687 18.6503L95.0106 20.0657L96.6412 20.4563L98.305 20.367L100.004 19.7104L101.669 19.5555L103.306 19.7059L104.992 19.5734L106.533 21.0325L108.265 19.896L109.954 19.6324L111.586 19.9575L113.098 21.7437L114.757 21.829L116.521 20.2563L118.031 22.1298L119.72 21.8662L121.357 21.9948L123.115 20.6622L124.714 21.4891L126.408 21.029L127.981 22.03L129.576 23.0097L131.337 21.568L132.972 21.762L134.639 21.5635L136.17 23.3938L137.842 22.9988L139.475 23.2801L141.201 22.3838L142.763 23.8435L144.463 23.1432L146.127 23.032L147.667 24.5348L149.356 24.2713L150.994 24.3779L152.754 22.9581L154.324 24.1119L155.928 24.6985L157.556 25.2202L159.278 24.4767L160.946 24.2345L162.551 24.7774L164.214 24.7318L165.844 25.1661L167.506 25.1422L169.204 24.5293L170.774 25.6395L172.506 24.503L174.165 24.632L175.646 26.7889L177.462 24.8023L179.035 25.8033L180.731 25.2777L182.391 25.3631L183.931 26.8222L185.627 26.3184L187.2 27.3194L188.858 27.4703L190.621 25.9194L192.252 26.31L193.793 27.7472L195.516 26.982L197.213 26.3909L198.809 27.3487L200.408 28.1319L202.163 26.9522L203.766 27.5825L205.36 28.584L207.022 28.5821L208.716 28.122L210.375 28.2074L212.011 28.4014L213.577 29.7082L215.244 29.466L217.024 28.1121L218.565 29.5712L220.314 28.5881L221.91 29.5022L223.488 30.3285L225.269 28.931L226.933 28.8198L228.441 30.7589L230.159 30.1683L231.761 30.8641L233.447 30.7316L235.175 29.748L236.742 31.011L238.376 31.2706L240.098 30.549L241.691 31.5724L243.293 32.2682L245.082 30.5431L246.645 31.959L248.273 32.4588L250.001 31.497L251.693 31.1242L253.224 32.9546L254.989 31.3381L256.642 31.7074L258.247 32.2722L259.839 33.3392L261.531 32.9884L263.197 32.7899L264.918 32.0901L266.582 32.0226L268.214 32.3258L269.843 32.8038L271.539 32.2782L273.131 33.3453L274.788 33.518L276.452 33.4505L278.091 33.5135L279.74 33.992L281.454 32.7457L283.039 34.1185L284.692 34.4441L286.407 33.1542L288.035 33.654L289.65 34.656L291.365 33.3879L293.016 33.7791L294.633 34.7156L296.316 33.8838L297.984 34.472L299.665 33.6838L301.337 34.0973L302.974 35.078L304.647 35.4478L306.312 35.3148L308.013 34.5927L309.685 34.1758L311.362 34.3709L313.005 35.9636L314.681 35.3939L316.361 35.4798L318.039 33.9704L319.714 35.9792L321.384 34.7974L323.063 34.927L324.72 35.0997L326.411 35.601L328.076 34.6158L329.758 35.4884L331.435 35.7054L333.117 35.7257L334.743 33.7999L336.45 35.3505L338.118 35.0647L339.807 35.6534L341.456 34.4929L343.142 35.1908L344.817 35.4733L346.456 33.8755L348.152 34.9889L349.796 34.0031L351.512 35.2043L353.142 33.9341L354.863 34.917L356.476 33.5153L358.111 32.8789L359.808 33.1619L361.516 33.8166L363.176 33.8583L364.804 32.6973L366.499 33.0458L368.161 33.022L369.867 33.7423L371.55 33.719L373.246 34.0238L374.851 32.9278L376.549 33.1453L378.158 31.9182L379.804 31.6755L381.471 31.477L383.213 32.4604L384.82 31.2552L386.496 31.5376L388.27 32.9151L389.888 32.1254L391.51 31.2046L393.218 31.8375L394.888 31.5298L396.532 31.3526L398.182 31.0007L399.847 30.8458L401.57 31.7632L403.243 32.133L404.85 30.9715L406.553 31.8009L408.113 29.9827L409.758 29.8054L411.408 29.4317L413.146 30.5898L414.792 30.3689L416.504 30.8489L418.164 30.9343L419.811 30.6479L421.37 28.8952L423.079 29.5062L424.724 29.329L426.392 29.065L428.054 29.0412L429.747 29.477L431.379 28.9717L433.052 29.3415L434.762 29.9089L436.364 28.9439L438.027 28.8983L439.689 28.8745L441.342 28.3478L442.961 27.5581L444.682 28.5409L446.331 28.189L447.989 28.3399L449.613 27.2881L451.302 27.8987L452.938 27.2405L454.6 27.1948L456.277 27.4117L457.977 28.4159L459.6 27.4296L461.298 28.4993L462.912 27.0102L464.573 27.0519L466.243 26.7224L467.909 27.3542L469.609 28.3584L471.253 27.3726L472.879 26.2771L474.557 26.4504L476.218 26.4921L477.883 27.1895L479.545 27.1657L481.216 26.7706L482.869 26.2658L484.547 26.4391L486.209 27.2893L487.856 27.0247L489.533 26.3895L491.176 27.9604L492.859 27.1067L494.499 27.9564L496.187 26.9062L497.838 26.4888L499.527 26.2252L501.142 28.0795L502.801 28.1867L504.504 26.525L506.123 28.2265L507.78 28.3992L509.486 27.4587L511.141 27.7188L512.87 26.7351L514.449 28.3481L516.208 26.9719L517.779 28.8907L519.515 27.6013L521.133 28.4941L522.753 29.2997L524.444 28.9706L526.227 27.5076L527.819 28.5746L529.447 29.0963L531.194 28.1786L532.879 28.0898L534.383 30.1599L536.095 29.8532L537.867 28.7833L539.44 29.8061L541.095 30.0444L542.888 29.0186L544.377 30.8479L546.145 29.9745L547.694 31.0842L549.432 30.5596L551.112 30.6674L552.796 30.6223L554.452 30.8387L556.132 30.9246L557.632 32.3389L559.34 32.1633L561.099 31.6175L562.653 32.5524L564.307 32.8343L566.117 31.962L567.699 32.6354L569.227 33.7446L570.906 33.896L572.539 34.1992L574.121 34.8508L575.751 35.2632L577.48 35.0881L579.087 35.5874L580.646 36.304L582.62 34.7365L584.252 35.0834L585.615 36.9314L587.537 35.7559L588.803 38.1259L590.775 36.6239L592.092 38.6455L594.037 37.4051L595.643 37.9262L597.105 39.1648L598.714 39.5985L600.321 40.0977L601.835 40.9225L603.702 40.2701L605.262 40.9648L607.038 40.5942L608.479 41.8541L610.395 40.9407L611.861 42.0265L613.515 42.3084L614.744 42.7981L614.061 41.5136L613.858 39.5418L612.205 38.3639L612.429 36.1625L610.925 35.7532L610.441 36.5715L610.125 38.268L610.583 40.1369L608.971 41.5169L609.618 43.4124L608.277 44.8647L608.296 46.6133L607.08 48.1561L608.482 50.1144L607.6 51.7093L608.228 53.5169L606.801 55.0763L607.177 56.8339L606.652 58.5034L607.595 60.2971L607.259 61.9713L607.048 63.6704L605.765 65.3209L605.974 67.0524L605.595 68.7474L606.603 70.499L606.791 72.2082L606.223 73.8984L606.495 75.6098L605.779 77.3399L605.294 79.0759L606.261 80.761L605.713 82.4954L606.617 84.157L605.732 85.9267L606.741 87.591L607.499 89.2489L606.171 91.0511L606.275 92.7801L607.58 94.3862L606.652 96.1767L607.494 97.8149L606.544 99.6484L606.859 101.339L607.891 102.938L608.734 104.555L608.374 106.337L609.386 107.914L608.962 109.696L609.003 111.423L608.115 113.28L610.077 114.728L609.59 116.529L609.61 118.256L609.208 120.038L609.523 121.728L610.408 123.324L609.773 125.144L609.899 126.851L610.34 128.523L611.859 130.047L610.95 131.904L611.222 133.615L611.664 135.287L612.57 136.905L611.978 138.704L612.757 140.34L613.578 141.978L612.964 143.798L613.702 145.434L614.312 147.088L612.918 148.998L613.36 150.67L614.898 152.238L613.737 154.088L614.726 155.708L614.261 157.488L614.091 159.254L615.038 160.873L613.982 162.726L614.382 164.419L616.11 165.948L615.897 167.713L615.559 169.474L616.126 171.149L615.724 172.931L616.314 174.585L615.553 176.401L615.699 178.109L615.909 179.819L617.109 181.445L616.517 183.222L616.031 184.979L617.822 186.554L616.577 188.38L618.198 189.994L617.396 191.788L616.615 193.56L618.257 195.175L618.551 196.865L617.496 198.674L617.621 200.403L617.957 202.094L617.429 203.851L619.282 205.449L619.449 207.18L618.942 208.937L619.594 210.614L618.455 212.421L618.033 214.159L618.032 215.885L618.831 217.566L618.577 219.308L620.176 220.943L619.964 222.686L619.036 224.454L618.593 226.191L619.982 227.843L618.695 229.647L618.967 231.38L618.692 233.143L618.985 234.877L619.615 236.597L619.087 238.354L620.79 240.035L620.304 241.793L620.45 243.545L621.016 245.264L619.12 247.074L621.013 248.76L620.717 250.501L621.22 252.24L620.145 254.005L621.195 255.736L621.278 257.464L620.308 259.231L620.348 260.981L621.356 262.71L621.27 264.456L619.649 266.229L620.594 267.958L620.298 269.698L619.917 271.459L620.652 273.182L620.692 274.931L620.985 276.665L619.952 278.431L621.507 280.152L620.243 281.912L620.768 283.63L621.502 285.375L620.343 287.138L621.73 288.855L620.655 290.62L621.811 292.354L619.79 294.095L620.167 295.852L621.764 297.575L620.353 299.331L620.562 301.063L621.401 302.81L620.453 304.557L621.355 306.306L620.323 308.05L620.784 309.788L620.719 311.534L620.949 313.266L620.295 315.02L620.062 316.762L620.649 318.503L621.342 320.247L621.655 322.003L620.602 323.725L621.105 325.486L621.188 327.192L621.145 328.896L620.303 330.601L619.588 332.309L620.575 334.038L621.415 335.742L621.603 337.473L620.614 339.175L621.244 340.895L620.781 342.588L621.095 344.3L621.473 346.014L620.609 347.741L619.914 349.45L620.082 351.158L621.49 352.876L619.975 354.586L620.016 356.292L619.994 358.018L619.888 359.719L620.286 361.456L620.6 363.168L620.789 364.877L621.103 366.59L619.924 368.308L621.101 370.02L620.343 371.728L620.783 373.465L620.909 375.173L619.499 376.864L620.023 378.603L620.989 380.332L620.358 382.042L620.84 383.759L619.725 385.457L620.502 387.181L619.261 388.876L619.008 390.575L620.457 392.337L620.162 394.034L620.602 395.772L619.781 397.456L619.549 399.176L618.707 400.859L619.694 402.611L619.84 404.341L618.81 405.997L620.195 407.78L619.836 409.498L620.15 411.232L618.196 412.843L619.917 414.657L619.202 416.321L618.466 418.007L619.137 419.751L619.22 421.479L619.009 423.178L618.674 424.809L619.158 426.482L617.668 427.996L617.712 429.614L618.041 431.567L615.76 431.947L615.338 433.684L613.712 433.949L612.665 435.453L611.141 436.66L609.449 436.202L607.84 435.791L606.247 435.576L604.657 435.23L603.063 435.081L601.489 434.932L599.769 434.736L598.005 435.5L596.325 434.54L594.567 435.02L592.836 435.283L591.161 434.17L589.395 434.978L587.676 434.738L585.949 434.826L584.23 434.608L582.561 433.233L580.816 434.041L579.152 434.13L577.481 434.525L575.811 434.877L574.204 433.547L572.558 432.894L570.862 434.294L569.191 434.645L567.579 433.534L565.967 432.401L564.25 433.756L562.646 432.317L560.924 433.891L559.348 432.147L557.617 434.07L555.981 433.068L554.313 433.31L552.689 432.657L551.008 433.446L549.346 433.469L547.743 431.965L546.107 431.815L544.453 431.511L542.78 431.971L541.061 433.414L539.399 433.416L537.771 432.916L536.146 432.307L534.457 432.571L532.863 431.548L531.154 432.619L529.47 432.664L527.853 431.728L526.216 430.747L524.48 432.058L522.784 432.606L521.171 431.494L519.533 430.557L517.819 431.803L516.185 430.714L514.527 430.563L512.874 430.237L511.197 429.998L509.443 432.03L507.83 430.941L506.185 430.288L504.453 431.402L502.792 431.382L501.157 430.336L499.515 429.552L497.806 430.623L496.197 429.359L494.427 431.172L492.822 429.755L491.085 431.088L489.516 429.06L487.785 430.153L486.085 430.854L484.517 428.804L482.833 428.871L481.165 429.113L479.489 428.874L477.841 428.33L476.101 429.772L474.489 428.639L472.834 428.379L471.102 429.516L469.491 428.361L467.84 427.926L466.141 428.583L464.498 427.842L462.762 429.153L461.075 429.33L459.47 427.913L457.804 428.067L456.113 428.418L454.497 427.438L452.775 428.16L451.156 427.31L449.396 428.73L447.821 426.943L446.083 428.319L444.442 427.535L442.755 427.711L441.091 427.779L439.376 428.238L437.753 427.542L436.069 427.631L434.484 426.236L432.8 426.303L431.144 426.065L429.481 426.132L427.761 426.81L426.112 426.288L424.521 425.156L422.766 426.379L421.076 426.664L419.389 426.862L417.764 426.232L416.179 424.859L414.393 426.453L412.864 424.557L411.115 425.496L409.431 425.563L407.839 424.474L406.151 424.694L404.46 425.045L402.871 423.803L401.155 424.328L399.497 424.178L397.751 425.03L396.183 423.81L394.496 423.986L392.84 423.792L391.156 423.837L389.44 424.34L387.903 422.728L386.246 422.534L384.564 422.535L382.815 423.475L381.192 422.8L379.623 421.624L377.817 423.174L376.168 422.696L374.482 422.828L372.973 420.955L371.228 421.741L369.486 422.462L367.915 421.374L366.316 420.547L364.664 420.156L363.008 419.94L361.23 421.228L359.608 420.51L357.889 421.1L356.26 420.644L354.663 419.774L353.041 419.012L351.356 419.123L349.581 420.28L347.927 419.976L346.324 419.324L344.642 419.304L343.018 418.673L341.328 418.958L339.617 419.243L337.99 418.721L336.421 417.568L334.589 419.313L333.051 417.745L331.282 418.684L329.647 418.446L327.992 418.208L326.429 416.792L324.795 416.511L322.967 418.147L321.37 417.255L319.801 416.058L318.144 415.907L316.46 415.952L314.691 416.869L313.175 415.279L311.406 416.196L309.864 414.803L308.065 416.091L306.409 415.874L304.839 414.742L303.124 415.202L301.5 414.549L299.843 414.333L298.07 415.446L296.472 414.576L294.876 413.662L293.16 414.165L291.414 415.017L289.883 413.165L288.195 413.385L286.476 413.975L284.825 413.562L283.194 413.193L281.567 412.65L279.795 413.698L278.193 413.024L276.602 411.87L274.89 412.22L273.26 411.786L271.486 412.943L269.857 412.487L268.174 412.488L266.607 411.247L264.826 412.645L263.166 412.581L261.547 411.71L259.831 412.235L258.175 412.019L256.586 410.799L254.958 410.277L253.244 410.715L251.552 411.088L249.867 411.198L248.209 411.047L246.518 411.376L244.966 409.524L243.275 409.875L241.549 410.771L239.938 409.594L238.208 410.643L236.556 410.252L234.916 409.402L233.269 408.815L231.585 408.904L229.845 410.324L228.177 410.61L226.566 408.581L224.865 409.325L223.225 408.453L221.508 409.852L219.81 410.444L218.16 409.987L216.492 410.251L214.83 408.614L213.154 409.184L211.482 408.748L209.821 408.729L208.127 410.041L206.459 410.305L204.8 409.367L203.127 409.806L201.462 409.961L199.774 408.476L198.112 409.352L196.448 410.294L194.757 408.94L193.092 409.095L191.445 410.19L189.774 410.542L188.047 408.968L186.429 410.61L184.768 410.591L183.023 408.864L181.372 409.303L179.717 409.874L178.067 410.247L176.359 409.593L174.666 409.179L173.099 411.281L171.403 410.976L169.739 411.087L168.104 411.702L166.379 410.85L164.636 409.91L163.021 410.591L161.351 410.942L159.751 411.842L158.009 410.858L156.359 411.21L154.642 410.905L153.105 412.658L151.363 411.675L149.678 411.763L148.064 412.379L146.428 413.037L144.765 413.104L143.034 412.536L141.335 412.341L139.786 413.722L138.068 413.482L136.335 412.98L134.656 412.807L133.165 414.408L131.385 413.271L129.721 413.36L128.112 413.779L126.414 413.583L124.922 415.206L123.26 415.23L121.48 414.071L119.902 414.927L118.36 416.025L116.66 415.873L114.985 415.591L113.304 415.526L111.778 416.821L109.948 415.18L108.37 416.036L106.858 417.615L105.162 417.311L103.504 417.16L101.758 416.351L100.194 417.514L98.5014 417.056L96.9702 418.569L95.3086 418.571L93.565 417.653L91.8762 417.064L90.3406 418.752L88.7079 419.279L86.9237 417.464L85.3409 418.517L83.6178 417.622L82.0977 419.528L80.3628 418.261L78.7451 419.029L77.143 420.016L75.4515 419.536L73.8254 419.801L72.1766 420.131L70.5139 420.177L68.8295 419.414L67.169 419.372L65.5481 420.271L63.8819 419.617L62.2359 419.838L60.56 419.578L58.9318 420.76L57.25 419.057L55.6257 420.087L53.9632 420.963L52.3209 420.201L50.6516 420.509L49.0084 420.62L47.3484 420.557L45.6759 420.996L44.0528 419.469L42.4038 418.969L40.7644 418.927L39.0957 419.213L37.4683 418.692L35.8261 418.76L34.1194 419.722L32.7037 420.823L31.1516 420.653L29.5399 421.18L29.1178 422.918L28.6806 424.415L28.6422 425.944L29.0894 427.397L29.2412 428.887L29.751 430.364L30.5733 431.958L32.0885 432.761L33.7551 433.392L35.5004 431.732L37.1269 433.127L38.7697 433.868L40.4742 432.993L42.1391 432.86L43.8238 432.771L45.4849 432.791L47.1591 432.287L48.8323 432.657L50.5043 432.24L52.1744 433.571L53.8325 432.87L55.4997 433.48L57.1732 432.167L58.855 433.87L60.5342 433.999L62.1644 431.899L63.8621 432.968L65.5253 432.901L67.2002 433.205L68.879 433.357L70.5076 432.152L72.1703 432.106L73.9013 433.527L75.4861 431.556L77.167 431.62L78.9019 432.887L80.5239 431.945L82.1894 431.79L83.8275 431.044L85.5212 431.436L87.2605 432.529L88.851 431.17L90.4692 430.381L92.2733 432.24L93.9349 432.238L95.5076 430.748L97.2057 430.965L98.8228 430.219L100.457 429.648L102.103 429.427L103.812 430.016L105.577 430.957L107.259 430.955L108.763 428.873L110.522 430.01L112.108 428.804L113.789 428.89L115.55 429.962L117.069 428.099L118.83 429.148L120.562 429.672L122.094 428.137L123.793 428.311L125.493 428.485L127.042 427.082L128.72 427.255L130.535 428.677L132.134 427.843L133.731 427.031L135.429 427.27L137.031 426.284L138.827 427.64L140.374 426.324L142.122 427.067L143.77 426.759L145.323 425.246L147.151 426.997L148.716 425.812L150.4 425.723L152.145 426.619L153.697 425.085L155.394 425.346L157.14 426.199L158.773 425.65L160.326 424.093L162.119 425.559L163.765 425.36L165.305 423.475L166.985 423.583L168.664 423.713L170.329 423.58L172.059 424.191L173.721 424.189L175.344 423.203L177.037 423.617L178.643 422.499L180.35 423.176L182.014 423.086L183.708 423.479L185.418 424.046L187.03 422.688L188.68 422.292L190.341 422.312L192.05 422.945L193.686 422.287L195.405 423.335L197.022 421.759L198.723 422.698L200.387 422.586L202.061 422.934L203.719 422.255L205.39 422.712L207.049 421.967L208.729 422.927L210.402 422.466L212.072 422.115L213.733 422.965L215.408 422.417L217.077 422.131L218.75 421.671L220.391 423.329L222.074 422.454L223.75 422.736L225.399 423.236L227.053 423.54L228.8 421.814L230.428 422.314L232.079 422.705L233.69 423.903L235.358 423.618L237.089 422.547L238.756 422.304L240.374 423.219L242.025 423.632L243.726 422.888L245.377 423.301L247.048 422.95L248.702 423.253L250.318 424.212L251.952 424.471L253.641 424.23L255.262 424.991L256.923 425.011L258.583 425.075L260.306 424.288L261.899 425.333L263.622 424.568L265.28 424.719L267.002 423.975L268.508 425.98L270.294 424.364L271.913 425.235L273.514 425.952L275.176 425.95L276.927 424.902L278.581 425.206L280.269 424.986L281.81 426.423L283.44 426.835L285.094 427.139L286.818 426.33L288.501 426.307L290.157 426.523L291.847 426.216L293.332 428.22L295.133 426.867L296.673 428.348L298.456 426.885L299.967 428.671L301.682 428.233L303.456 427.098L305.059 427.75L306.596 429.34L308.258 429.338L310.062 427.854L311.544 429.967L313.266 429.245L314.947 429.309L316.64 428.871L318.325 428.782L319.98 429.042L321.64 429.084L323.183 430.478L324.815 430.803L326.558 430.082L328.158 430.843L329.88 430.121L331.534 430.425L333.138 431.012L334.707 432.209L336.398 431.88L338.142 431.094L339.831 430.852L341.369 432.398L343 432.789L344.691 432.438L346.406 431.979L348.117 431.672L349.578 433.806L351.26 433.827L353.039 432.495L354.692 432.842L356.297 433.429L357.928 433.798L359.553 434.428L361.356 432.966L362.897 434.403L364.477 435.164L366.186 434.945L367.822 435.117L369.561 434.549L371.168 435.048L372.94 433.978L374.42 436.178L376.229 434.519L377.827 435.346L379.452 435.955L381.118 435.778L382.837 435.166L384.432 436.146L386.122 435.86L387.685 437.255L389.434 436.271L391.095 436.313L392.721 436.9L394.447 435.982L396.016 437.158L397.764 436.24L399.334 437.372L400.987 437.698L402.644 437.892L404.368 437.083L405.899 438.936L407.558 439.021L409.344 437.427L411.005 437.425L412.668 437.357L414.252 438.774L415.95 438.161L417.537 439.468L419.194 439.619L420.895 438.919L422.618 438.11L424.181 439.526L425.836 439.808L427.497 439.828L429.186 439.564L430.777 440.697L432.517 439.254L434.153 439.427L435.769 440.407L437.505 439.096L439.033 441.079L440.725 440.684L442.35 441.293L444.025 440.789L445.648 441.485L447.413 439.847L448.977 441.241L450.642 441.108L452.267 441.717L453.933 441.54L455.587 441.822L457.286 441.166L458.915 441.622L460.536 442.384L462.241 441.509L463.87 441.965L465.54 441.613L467.157 442.572L468.83 442.111L470.455 442.72L472.162 441.736L473.819 441.909L475.447 442.409L477.076 442.865L478.74 442.775L480.366 443.341L482.026 443.404L483.678 443.795L485.359 443.007L486.982 443.725L488.723 442.217L490.316 443.263L491.963 443.872L493.598 444.088L495.297 443.41L497.006 442.36L498.633 442.882L500.248 443.927L501.933 442.964L503.598 442.853L505.172 444.641L506.835 444.573L508.502 444.375L510.17 444.111L511.829 444.196L513.461 444.565L515.123 444.541L516.746 445.238L518.452 444.297L520.079 444.819L521.751 444.424L523.41 444.509L525.031 445.271L526.735 444.439L528.402 444.197L530.067 444.086L531.677 445.307L533.312 445.501L534.986 444.996L536.644 445.147L538.254 446.346L539.977 444.75L541.601 445.425L543.246 446.056L544.939 444.809L546.547 446.117L548.209 446.071L549.871 446.048L551.542 445.674L553.173 446.043L554.837 445.976L556.514 445.362L558.126 446.495L559.776 446.952L561.449 446.491L563.115 446.293L564.726 447.491L566.405 446.769L568.08 446.243L569.743 446.197L571.36 447.134L573.034 446.607L574.677 447.348L576.357 446.625L578.077 446.821L579.817 446.21L581.486 447.584L583.207 447.693L584.925 447.955L586.651 447.911L588.408 447.474L590.133 447.43L591.852 447.692L593.596 446.883L595.316 447.101L597.012 448.215L598.681 447.098L600.204 448.404L601.8 448.51L603.416 448.638L605.104 447.609L606.662 448.37L608.27 448.803L609.899 447.621L611.52 448.361L613.057 447.46L614.83 448.903L616.327 447.891L617.624 446.525L619.146 446.214L621.435 447.167L622.912 446.134L623.411 443.852L625.767 443.845L626.073 441.733L627.158 440.384L627.871 438.785L628.48 437.161L629.11 435.516L629.134 433.725L630.391 432.227L629.682 430.33L630.753 428.718L630.608 426.944L630.631 425.196L631.305 423.487L631.244 421.715L631.246 419.967L631.522 418.204L632.406 416.5L630.895 414.67L632.179 412.954L630.774 411.149L631.007 409.407L631.303 407.644L632.545 405.927L632.631 404.181L631.519 402.383L632.635 400.663L630.935 398.872L632.114 397.132L632.053 395.36L631.908 393.608L632.268 391.847L631.849 390.089L632.44 388.333L632.694 386.592L631.33 384.809L633.161 383.085L631.271 381.289L632.114 379.541L631.38 377.774L631.362 376.003L632.267 374.278L631.449 372.509L633.112 370.803L631.789 369.043L632.253 367.329L631.77 365.59L633.201 363.9L632.614 362.159L631.732 360.41L633.541 358.729L633.164 356.994L633.061 355.243L632.578 353.526L633.358 351.798L632.455 350.049L631.909 348.33L633.866 346.631L632.396 344.868L633.637 343.173L632.819 341.426L632.295 339.687L632.611 337.968L633.937 336.253L633.981 334.528L632.489 332.786L633.794 331.071L632.955 329.323L633.586 327.613L633.378 325.881L632.454 324.132L632.771 322.413L632.394 320.678L633.551 318.958L633.385 317.228L633.28 315.521L633.765 313.785L632.736 312.055L632.906 310.332L634.337 308.598L632.74 306.876L634.256 305.144L633.206 303.413L633.018 301.682L632.367 299.961L633.82 298.227L633.989 296.505L633.99 294.779L632.645 293.063L633.573 291.316L633.49 289.587L633.722 287.867L632.461 286.153L632.736 284.411L633.474 282.682L632.381 280.972L633.96 279.219L633.941 277.493L633.963 275.767L634.217 274.025L632.829 272.329L633.504 270.576L633.569 268.852L633.486 267.123L632.667 265.398L632.311 263.663L633.491 261.901L632.798 260.179L632.883 258.455L633.769 256.685L633.855 254.961L632.13 253.279L632.742 251.524L631.838 249.819L632.998 248.034L633.441 246.297L632.306 244.586L633.15 242.815L633.298 241.093L632.543 239.369L631.281 237.698L632.398 235.913L632.463 234.166L632.738 232.425L631.224 230.748L631.035 229.039L631.037 227.291L630.996 225.563L631.862 223.771L631.273 222.074L631.191 220.346L631.887 218.571L631.32 216.852L632.312 215.064L632.103 213.332L631.893 211.622L631.221 209.923L629.937 208.273L630.676 206.478L631.479 204.685L631.417 202.957L629.944 201.325L630.809 199.511L629.842 197.848L629.97 196.103L630.013 194.355L629.994 192.629L630.438 190.848L630.081 189.135L629.072 187.47L628.588 185.775L629.349 183.981L629.329 182.232L629.015 180.52L628.3 178.841L628.681 177.081L629.104 175.299L629.085 173.551L627.421 171.979L628.582 170.129L628.647 168.361L628.417 166.65L627.976 164.957L627.471 163.261L627.178 161.55L626.188 159.908L626.064 158.178L625.854 156.468L625.813 154.741L626.701 152.906L626.132 151.253L625.437 149.618L624.974 147.968L626.242 146.055L625.42 144.439L625.822 142.657L624.642 141.098L624.728 139.33L625.595 137.472L624.562 135.895L624.437 134.187L624.08 132.496L624.567 130.694L622.774 129.229L622.543 127.54L622.945 125.737L622.06 124.141L621.83 122.431L621.303 120.779L622.276 118.902L621.581 117.246L620.992 115.592L621.605 113.772L621.818 112.007L620.595 110.447L620.871 108.684L620.282 107.008L619.988 105.318L619.061 103.7L619.168 101.954L619.444 100.191L620.183 98.3739L619.889 96.6839L618.436 95.0959L618.311 93.3664L618.502 91.623L617.998 89.9278L619.789 88.0935L617.664 86.4886L619.602 84.658L617.961 83.0215L617.857 81.2926L617.395 79.5765L618.196 77.8484L618.87 76.1172L617.357 74.3966L618.725 72.6827L617.991 70.938L618.811 69.2541L619.254 67.5607L617.848 65.7554L619.298 64.131L619.194 62.4021L619.909 60.7374L619.259 58.9511L619.764 57.2811L618.948 55.4469L619.809 53.8296L620.146 52.1336L620.419 50.4578L620.337 48.6858L621.888 47.2606L620.885 45.2906L622.644 43.9362L621.852 41.9714L622.44 40.3473L623.779 38.9605L622.797 37.0129L623.516 35.1735L623.163 33.329L621.635 32.1762L620.075 31.4814L618.664 30.7467L617.173 29.8133L615.329 30.3571L613.675 30.097L612.091 29.5109L610.815 27.534L609.163 27.1647L607.507 26.9483L605.758 27.1011L603.982 27.4717L602.518 26.2768L600.673 26.886L599.284 25.2777L597.533 25.496L595.755 25.9102L594.368 24.2146L592.736 23.8677L591.082 23.564L589.377 23.6304L587.477 24.7409L585.895 24.1111L584.487 22.3931L582.605 23.6133L581.226 21.5683L579.468 22.0704L577.762 22.1587L576.057 22.247L574.503 21.2902L572.798 21.3566L571.091 21.5104L569.512 20.7278L567.83 20.6856L566.304 19.4891L564.467 20.6229L562.914 19.6443L561.202 19.9946L559.681 18.5579L558.026 18.2978L556.288 18.8442L554.714 17.8869L552.925 18.7816L551.377 17.6064L549.637 18.1964L547.902 18.6336L546.333 17.4579L544.703 17.0454L543.049 16.7417L541.305 17.5064L539.616 17.7699L537.997 16.8989L536.343 16.617L534.624 17.2294L532.94 17.2964L531.407 15.5097L529.659 16.4491L527.936 17.2362L526.346 16.06L524.629 16.585L523.037 15.4962L521.352 15.6068L519.669 15.6083L518.005 15.7194L516.327 15.5243L514.663 15.6137L513.031 14.4364L511.321 15.5516L509.634 15.7277L507.977 15.5332L506.334 14.8145L504.63 15.6458L502.966 15.7788L501.315 15.344L499.626 15.5857L498.004 14.0153L496.294 15.9609L494.652 14.3463L492.974 14.9816L491.317 13.9785L489.636 13.9362L487.977 13.829L486.3 15.2729L484.623 14.2255L482.953 13.7247L481.281 14.1416L479.615 14.2965L477.946 15.4564L476.286 15.3929L474.615 15.7879L472.943 14.5222L471.275 14.7863L469.601 14.4165L467.931 13.9156L466.272 15.491L464.596 14.4219L462.916 14.2923L461.263 15.6275L459.6 15.695L457.894 14.1225L456.264 15.3708L454.574 14.8258L452.947 15.9868L451.268 15.8572L449.556 14.5031L447.903 14.986L446.247 15.6L444.607 16.4329L442.907 15.4506L441.213 15.0584L439.516 14.7973L437.867 15.171L436.268 16.8572L434.575 16.4432L432.84 15.1759L431.203 15.8559L429.613 17.2146L427.863 15.7065L426.206 16.3642L424.616 17.7009L422.879 16.521L421.271 17.7262L419.572 17.5524L417.82 16.1317L416.215 17.2496L414.612 18.2582L412.927 18.3689L411.16 16.7074L409.512 16.9938L407.812 16.8419L406.253 18.6165L404.515 17.5021L402.849 17.6569L401.201 17.9652L399.535 18.1637L397.842 17.7497L396.246 19.3048L394.479 17.6652L392.858 18.5642L391.239 19.3539L389.561 19.2025L387.896 19.3355L386.186 18.7463L384.565 19.6234L382.852 19.187L381.263 20.4801L379.554 19.869L377.812 18.8856L376.221 20.266L374.5 19.2613L372.891 20.5321L371.17 19.571L369.56 20.8418L367.809 19.3774L366.162 19.6638L364.539 20.6282L362.901 21.3738L361.19 20.8501L359.54 21.202L357.865 20.8977L356.212 21.4025L354.546 21.601L352.854 21.1215L351.15 20.292L349.488 20.3158L347.846 21.2142L346.169 21.0192L344.502 21.2395L342.825 21.0007L341.172 21.5055L339.513 22.2287L337.827 21.5308L336.163 21.642L334.479 21.7089L332.809 21.1863L331.137 20.7728L329.474 20.8184L327.828 22.7219L326.125 21.0403L324.469 22.5065L322.795 21.3281L321.138 22.7943L319.459 20.9821L317.795 21.9455L316.112 22.7774L314.446 21.2714L312.774 22.5406L311.1 22.1926L309.44 21.2987L307.77 21.6282L306.105 20.9309L304.448 20.78L302.764 21.6773L301.077 21.8535L299.374 22.663L297.784 20.6345L296.088 21.1601L294.437 20.7471L292.759 20.5957L291.106 20.2482L289.413 20.6428L287.71 21.4741L286.011 22.1307L284.363 21.5867L282.759 20.126L280.995 21.6988L279.416 20.1076L277.759 19.9131L276.109 19.4783L274.421 19.6763L272.734 19.8743L271.048 19.9849L269.358 20.2921L267.771 18.9848L265.986 20.5789L264.428 18.9664L262.705 19.7099L260.991 20.1257L259.434 18.4914L257.779 18.2531L255.963 20.1961L254.434 18.2566L252.655 19.5886L250.998 19.4159L249.441 17.7597L247.787 17.4559L246.042 18.2862L244.348 18.7462L242.666 18.704L241.073 17.6806L239.297 18.8598L237.639 18.7526L236.08 17.1619L234.425 16.9018L232.743 16.9033L231.089 16.5777L229.308 17.9971L227.806 15.8397L226.124 15.7974L224.436 16.0391L222.78 15.8227L220.979 17.1979L219.35 16.7418L217.669 16.6777L215.98 16.9194L214.418 15.4816L212.698 16.1377L211.043 15.8776L209.483 14.3525L207.728 15.5321L206.138 14.3777L204.486 14.0085L202.789 14.5777L201.132 14.3831L199.409 15.1484L197.72 15.4119L196.099 14.6501L194.405 15.0883L192.724 15.0461L191.192 13.2376L189.56 12.9125L187.785 14.0698L186.218 12.8286L184.523 13.3105L182.812 13.6171L181.209 12.9432L179.463 13.8171L177.934 11.8776L176.243 12.2066L174.486 13.5173L172.83 13.3009L171.21 12.4517L169.644 11.1886L167.863 12.5862L166.171 12.9589L164.602 11.805L162.914 12.0248L161.26 11.7211L159.542 12.2898L157.884 12.1607L156.317 10.8977L154.69 10.3542L153.035 10.0941L151.254 11.5135L149.591 11.5592L147.969 10.841L146.373 9.88313L144.75 9.20865L142.936 11.0861L141.334 10.3903L139.712 9.6503L138.054 9.52124L136.427 8.99963L134.645 10.419L133.026 9.59164L131.33 10.1172L129.799 8.24319L128.02 9.57521L126.389 9.2283L124.798 8.09573L123.074 8.88284L121.391 8.92797L119.823 7.70857L118.071 8.80089L116.443 8.27928L114.729 8.69513L113.165 7.34471L111.413 8.43703L109.877 6.78139L108.159 7.37195L106.438 8.04987L104.754 8.11683L103.197 6.46067L101.511 6.61499L99.8953 5.61293L98.1764 6.22533L96.4999 5.98656L94.7544 6.81681L93.1904 5.44455L91.3887 6.84155L89.7939 5.86185L88.1443 5.38339L86.4033 6.03893L84.8151 4.79718L83.1314 4.8423L81.3517 6.19616L79.7342 5.28145L78.1422 4.19256L76.4585 4.23768L74.7141 5.02426L73.0067 5.17806L71.3545 4.80878L69.6416 5.18096L68.0148 4.6375L66.4297 3.26471L64.6225 4.8801L62.9719 4.44531L61.4173 2.70179L59.7336 2.74692L58.0781 2.50867L56.3933 2.59748L54.5872 4.16919L52.968 3.31999L51.4142 2.38503L49.8536 1.71212L48.0735 3.08782L46.4838 2.74196L44.9752 1.67702L43.3363 1.61401L41.72 1.48602L40.0476 1.92477L38.4125 1.70889L36.8072 1.14412L35.17 1.0156L33.5378 1.52091L31.8838 0.386763L30.2622 1.30754L28.6534 1.72604L27.0837 2.25478L25.2964 1.40136L23.6487 1.68777L22.3858 3.40423L21.0558 4.44159L19.5912 4.97297L18.1439 5.65775L15.8693 4.94506L15.5944 7.51672L13.3487 7.32921L11.772 8.14185L11.4251 10.231L10.5061 11.6501L8.53496 12.2562L8.35894 14.2403L8.10322 16.0476L6.79038 17.2384L6.01638 18.7486L5.72075 20.4675L4.36319 21.7664L3.25343 23.2464L3.06238 24.9897L2.34867 26.6107L2.40883 28.4041L2.11327 30.123L2.50968 31.9249L2.00556 33.573L2.52865 35.3562L2.40186 37.0575L1.41376 38.7153L0.950582 40.4081L2.00023 42.1608L0.779364 43.8783L1.34607 45.597L2.03952 47.2971L1.40653 49.0512L0.921332 50.7872L1.78342 52.4696L2.45636 54.1473L1.21163 55.9735L2.28508 57.6175L1.71464 59.395L2.24047 61.069L1.9648 62.8321L1.79541 64.5542L3.10114 66.1604L2.40403 67.9566L2.31806 69.7026L3.2444 71.3429L3.93887 72.9993L4.50729 74.6525L3.99988 76.4316L4.3786 78.1019L3.4719 79.871L3.95459 81.5876L3.27908 83.3626L5.15165 85.0048L3.99162 86.8112L5.33768 88.484L3.50397 90.3172L4.97616 91.9931L3.66901 93.7959L5.47801 95.4584L3.87603 97.2756L4.04236 99.0279L4.31485 100.739L4.48118 102.492L4.52193 104.219L5.61521 105.907L4.85507 107.702L5.37987 109.419L6.36807 111.105L6.47131 112.856L5.71172 114.629L5.89958 116.36L5.07642 118.153L5.1802 119.882L4.8415 121.643L5.2816 123.381L5.89096 125.079L5.76246 126.845L7.12958 128.519L7.06465 130.265L6.66292 132.025L6.21921 133.784L6.7019 135.501L7.43677 137.224L7.22474 138.966L6.08569 140.773L5.74699 142.535L6.18765 144.25L6.75448 145.969L5.99483 147.742L6.39289 149.478L6.98065 151.197L7.94787 152.883L7.81992 154.628L7.79709 156.375L6.55292 158.179L8.19332 159.86L7.64442 161.616L7.8113 163.346L8.27239 165.084L7.04933 166.889L8.87992 168.53L8.01465 170.322L7.46526 172.1L8.1587 173.8L7.56721 175.577L8.70259 177.267L9.20633 178.984L9.52025 180.718L9.47638 182.465L9.43251 184.212L9.03084 185.972L8.0605 187.762L9.13279 189.449L8.05738 191.236L9.86692 192.877L8.34903 194.696L9.84275 196.351L9.69381 198.095L9.94476 199.828L9.24881 201.58L8.48916 203.353L9.20359 205.054L9.79135 206.773L10.4848 208.473L9.19864 210.276L10.7764 211.933L10.6906 213.679L10.921 215.389L11.0038 217.118L10.8969 218.863L10.9371 220.612L11.0199 222.341L10.2603 224.113L10.0482 225.856L9.81523 227.599L10.5296 229.299L11.2441 231L11.053 232.743L11.3041 234.476L11.3658 236.204L10.3113 237.991L10.5833 239.724L11.7823 241.393L10.6012 243.199L11.9689 244.85L10.9144 246.638L12.4713 248.294L12.6381 250.024L12.6363 251.772L12.6771 253.5L11.1592 255.319L11.305 257.049L10.9669 258.789L12.9866 260.435L11.8482 262.22L11.4885 263.981L11.6974 265.712L12.096 267.427L11.5471 269.183L13.5248 270.828L12.3233 272.612L13.1008 274.314L12.7201 276.074L12.8239 277.803L13.6014 279.505L13.2002 281.243L12.419 283.038L14.0814 284.675L13.5746 286.432L13.6359 288.182L12.7501 289.951L13.5066 291.653L13.3577 293.397L12.8718 295.155L13.8181 296.84L13.627 298.583L13.3514 300.346L14.0659 302.047L14.7803 303.747L13.5998 305.531L13.6821 307.282L14.2283 308.978L14.1634 310.725L14.3513 312.456L13.8865 314.214L14.0323 315.944L15.6096 317.622L15.2079 319.382L15.5434 321.095L15.3945 322.84L15.6245 324.572L15.8753 326.304L14.3364 328.123L15.0293 329.845L15.3648 331.558L15.4051 333.307L16.4353 334.994L15.1702 336.798L16.0737 338.503L15.5669 340.26L15.944 341.996L15.6479 343.737L15.1825 345.517L16.0867 347.2L16.0428 348.948L17.052 350.634L17.0292 352.381L15.4482 354.199L15.952 355.916L15.7604 357.681L16.58 359.385L17.4 361.066L17.2294 362.832L16.617 364.608L16.2573 366.369L16.7826 368.065L17.4544 369.786L16.5682 371.578L17.5774 373.264L17.6171 375.035L17.5937 376.804L16.4961 378.634L18.2206 380.317L16.9753 382.165L17.5625 383.906L17.0115 385.749L16.9876 387.541L17.9968 389.227L17.6349 391.075L19.216 392.601L19.6782 394.295L20.3517 395.951L18.9517 398.101L19.8165 399.674L20.6819 401.225L21.9732 402.569L22.0538 404.385L22.0072 406.241L22.8095 407.791L24.5261 408.948L23.4165 411.259L23.965 412.868L24.4493 414.519L26.5038 415.619L27.1784 417.231L26.0107 419.344L28.1443 420.643L28.1624 422.435L27.759 424.261L28.2837 425.978L27.1209 427.894L27.8548 429.661L29.5358 430.555L31.0338 431.204L32.424 431.96L34.0108 431.585L35.6283 432.5L37.0397 431.574L39.1005 431.582L39.3634 429.491L39.2585 427.805L39.9058 426.314Z"/>
</mask>
<path d="M39.9058 426.314L40.4542 424.579L40.3078 422.871L38.9158 421.35L40.0576 419.434L39.7005 417.743L39.2587 416.071L38.0116 414.641L38.607 412.711L36.9777 411.424L36.9382 409.653L36.9837 407.841L35.9048 406.415L34.8464 405.012L34.4251 403.362L34.11 401.672L33.5405 400.062L33.4588 398.29L33.5679 396.457L31.9172 395.192L31.5385 393.522L31.8158 391.693L30.7595 390.203L30.0855 388.569L30.5093 386.766L29.9619 385.113L29.7945 383.404L30.3661 381.583L29.546 379.902L30.1596 378.082L30.1824 376.334L30.4581 374.571L28.7541 372.911L29.767 371.101L28.8214 369.394L29.9814 367.588L28.1303 365.924L28.0271 364.174L29.7977 362.339L28.9367 360.613L28.1382 358.91L27.9719 357.158L28.1004 355.391L27.9551 353.639L27.5361 351.902L29.4118 350.07L28.1293 348.377L28.3419 346.612L29.2702 344.822L27.8196 343.125L27.6532 341.372L27.6971 339.625L28.9202 337.82L27.8905 336.112L27.4083 334.373L27.3682 332.624L28.4016 330.836L28.1922 329.127L26.5302 327.468L27.458 325.699L28.3016 323.929L27.6502 322.23L28.1361 320.472L26.7054 318.819L27.1071 317.059L27.1714 315.334L27.931 313.561L26.7531 311.893L26.6283 310.163L26.7347 308.44L27.0944 306.679L26.6953 304.986L25.8127 303.281L26.9722 301.497L25.5414 299.844L25.6694 298.099L25.586 296.392L27.0829 294.572L26.1367 292.888L26.5589 291.15L26.371 289.419L26.1826 287.71L24.7314 286.035L26.2278 284.237L24.5654 282.6L25.8094 280.795L25.495 279.083L25.8121 277.343L25.2026 275.645L24.4883 273.944L24.4475 272.217L25.2701 270.446L24.5347 268.745L24.8308 267.004L23.9266 265.32L25.2548 263.518L23.9503 261.868L24.9836 260.08L25.2377 258.339L23.7229 256.684L24.5455 254.912L23.7465 253.232L24.0006 251.49L23.665 249.777L24.1718 248.02L23.4994 246.32L23.2905 244.588L23.1021 242.879L22.8932 241.148L22.5997 239.436L23.3167 237.684L24.4341 235.898L22.7302 234.238L23.0893 232.499L24.1858 230.713L23.7031 228.996L23.6414 227.268L22.6525 225.605L23.4332 223.832L23.3714 222.104L22.699 220.405L22.8269 218.66L21.7121 216.993L22.7455 215.205L22.494 213.495L22.3482 211.765L22.7493 210.026L21.2766 208.372L21.9942 206.598L21.2371 204.919L21.6179 203.158L22.5246 201.389L21.2625 199.719L21.6433 197.958L22.7182 196.193L21.4561 194.523L21.6682 192.78L21.3957 191.068L21.9445 189.312L21.6515 187.578L21.5898 185.851L21.8223 184.13L20.2234 182.473L20.983 180.7L20.2896 179L21.1543 177.23L21.5555 175.492L20.757 173.789L19.9369 172.108L20.7385 170.336L19.6452 168.648L20.1731 166.891L19.5637 165.193L19.9649 163.455L21.0403 161.668L19.2938 160.029L19.8216 158.272L20.6233 156.501L20.3929 154.79L19.6363 153.089L20.3539 151.315L18.9653 149.663L20.1037 147.878L18.7366 146.204L19.8331 144.418L18.5285 142.768L20.1304 140.951L18.8474 139.28L19.4383 137.525L18.892 135.829L18.0299 134.146L18.9161 132.355L19.1066 130.633L17.8236 128.962L18.5411 127.188L18.7111 125.444L17.4485 123.795L17.5765 122.05L18.9257 120.249L18.4424 118.554L17.3912 116.867L18.1718 115.095L17.9414 113.384L17.7955 111.654L17.2282 109.957L17.7981 108.202L16.873 106.518L16.8952 104.792L17.9917 103.006L18.0145 101.258L18.1419 99.535L16.3113 97.8938L16.7341 96.1344L17.9777 94.3519L17.558 92.6369L16.843 90.9581L16.6972 89.2281L16.6564 87.5008L16.5106 85.7708L16.0273 84.076L17.1874 82.2696L17.3989 80.5486L16.6004 78.8459L17.0652 77.0875L16.7716 75.3757L16.2675 73.6804L16.9855 71.8847L15.3657 70.2269L15.3459 68.5001L16.7808 66.635L16.2351 64.9168L15.9842 63.1842L15.1646 61.481L14.724 59.7655L14.6417 58.0152L14.7072 56.2468L15.3838 54.4282L14.6063 52.7261L13.914 50.9824L15.4109 49.1625L15.6655 47.3989L14.4682 45.6643L13.9866 43.9041L14.8507 42.1557L13.7182 40.3572L15.0015 38.6631L15.5913 36.9516L15.992 35.2354L15.1138 33.3559L15.2002 31.588L14.9731 29.7467L16.8373 28.3731L15.9651 26.2534L18.3024 25.3069L18.598 23.588L19.5584 22.1917L19.798 20.1873L21.6011 19.577L22.4215 17.8932L24.3774 17.8986L25.6858 16.8825L27.2543 16.3975L28.9181 16.3081L30.4683 15.7134L32.0484 14.7697L33.7443 15.0745L35.4383 14.6144L37.1287 14.3072L38.8659 13.8046L40.4382 15.6796L42.1815 14.9367L43.8536 15.3502L45.5302 15.589L47.1472 16.5255L48.9103 15.8268L50.5857 16.1093L52.2192 16.3907L53.9712 15.2984L55.5135 16.6919L57.2413 15.7301L58.8096 16.9277L60.4403 17.3183L62.1719 16.2036L63.7446 17.2264L65.4718 16.2864L67.1268 16.5465L68.7629 16.7187L70.4559 16.3024L71.9624 18.285L73.6642 17.5192L75.2955 17.888L77.0193 17.079L78.5314 18.8433L80.22 18.6017L81.8837 18.5123L83.6136 17.4632L85.1268 19.1838L86.7828 19.4002L88.4471 19.289L90.1721 18.4364L91.6886 20.026L93.4687 18.6503L95.0106 20.0657L96.6412 20.4563L98.305 20.367L100.004 19.7104L101.669 19.5555L103.306 19.7059L104.992 19.5734L106.533 21.0325L108.265 19.896L109.954 19.6324L111.586 19.9575L113.098 21.7437L114.757 21.829L116.521 20.2563L118.031 22.1298L119.72 21.8662L121.357 21.9948L123.115 20.6622L124.714 21.4891L126.408 21.029L127.981 22.03L129.576 23.0097L131.337 21.568L132.972 21.762L134.639 21.5635L136.17 23.3938L137.842 22.9988L139.475 23.2801L141.201 22.3838L142.763 23.8435L144.463 23.1432L146.127 23.032L147.667 24.5348L149.356 24.2713L150.994 24.3779L152.754 22.9581L154.324 24.1119L155.928 24.6985L157.556 25.2202L159.278 24.4767L160.946 24.2345L162.551 24.7774L164.214 24.7318L165.844 25.1661L167.506 25.1422L169.204 24.5293L170.774 25.6395L172.506 24.503L174.165 24.632L175.646 26.7889L177.462 24.8023L179.035 25.8033L180.731 25.2777L182.391 25.3631L183.931 26.8222L185.627 26.3184L187.2 27.3194L188.858 27.4703L190.621 25.9194L192.252 26.31L193.793 27.7472L195.516 26.982L197.213 26.3909L198.809 27.3487L200.408 28.1319L202.163 26.9522L203.766 27.5825L205.36 28.584L207.022 28.5821L208.716 28.122L210.375 28.2074L212.011 28.4014L213.577 29.7082L215.244 29.466L217.024 28.1121L218.565 29.5712L220.314 28.5881L221.91 29.5022L223.488 30.3285L225.269 28.931L226.933 28.8198L228.441 30.7589L230.159 30.1683L231.761 30.8641L233.447 30.7316L235.175 29.748L236.742 31.011L238.376 31.2706L240.098 30.549L241.691 31.5724L243.293 32.2682L245.082 30.5431L246.645 31.959L248.273 32.4588L250.001 31.497L251.693 31.1242L253.224 32.9546L254.989 31.3381L256.642 31.7074L258.247 32.2722L259.839 33.3392L261.531 32.9884L263.197 32.7899L264.918 32.0901L266.582 32.0226L268.214 32.3258L269.843 32.8038L271.539 32.2782L273.131 33.3453L274.788 33.518L276.452 33.4505L278.091 33.5135L279.74 33.992L281.454 32.7457L283.039 34.1185L284.692 34.4441L286.407 33.1542L288.035 33.654L289.65 34.656L291.365 33.3879L293.016 33.7791L294.633 34.7156L296.316 33.8838L297.984 34.472L299.665 33.6838L301.337 34.0973L302.974 35.078L304.647 35.4478L306.312 35.3148L308.013 34.5927L309.685 34.1758L311.362 34.3709L313.005 35.9636L314.681 35.3939L316.361 35.4798L318.039 33.9704L319.714 35.9792L321.384 34.7974L323.063 34.927L324.72 35.0997L326.411 35.601L328.076 34.6158L329.758 35.4884L331.435 35.7054L333.117 35.7257L334.743 33.7999L336.45 35.3505L338.118 35.0647L339.807 35.6534L341.456 34.4929L343.142 35.1908L344.817 35.4733L346.456 33.8755L348.152 34.9889L349.796 34.0031L351.512 35.2043L353.142 33.9341L354.863 34.917L356.476 33.5153L358.111 32.8789L359.808 33.1619L361.516 33.8166L363.176 33.8583L364.804 32.6973L366.499 33.0458L368.161 33.022L369.867 33.7423L371.55 33.719L373.246 34.0238L374.851 32.9278L376.549 33.1453L378.158 31.9182L379.804 31.6755L381.471 31.477L383.213 32.4604L384.82 31.2552L386.496 31.5376L388.27 32.9151L389.888 32.1254L391.51 31.2046L393.218 31.8375L394.888 31.5298L396.532 31.3526L398.182 31.0007L399.847 30.8458L401.57 31.7632L403.243 32.133L404.85 30.9715L406.553 31.8009L408.113 29.9827L409.758 29.8054L411.408 29.4317L413.146 30.5898L414.792 30.3689L416.504 30.8489L418.164 30.9343L419.811 30.6479L421.37 28.8952L423.079 29.5062L424.724 29.329L426.392 29.065L428.054 29.0412L429.747 29.477L431.379 28.9717L433.052 29.3415L434.762 29.9089L436.364 28.9439L438.027 28.8983L439.689 28.8745L441.342 28.3478L442.961 27.5581L444.682 28.5409L446.331 28.189L447.989 28.3399L449.613 27.2881L451.302 27.8987L452.938 27.2405L454.6 27.1948L456.277 27.4117L457.977 28.4159L459.6 27.4296L461.298 28.4993L462.912 27.0102L464.573 27.0519L466.243 26.7224L467.909 27.3542L469.609 28.3584L471.253 27.3726L472.879 26.2771L474.557 26.4504L476.218 26.4921L477.883 27.1895L479.545 27.1657L481.216 26.7706L482.869 26.2658L484.547 26.4391L486.209 27.2893L487.856 27.0247L489.533 26.3895L491.176 27.9604L492.859 27.1067L494.499 27.9564L496.187 26.9062L497.838 26.4888L499.527 26.2252L501.142 28.0795L502.801 28.1867L504.504 26.525L506.123 28.2265L507.78 28.3992L509.486 27.4587L511.141 27.7188L512.87 26.7351L514.449 28.3481L516.208 26.9719L517.779 28.8907L519.515 27.6013L521.133 28.4941L522.753 29.2997L524.444 28.9706L526.227 27.5076L527.819 28.5746L529.447 29.0963L531.194 28.1786L532.879 28.0898L534.383 30.1599L536.095 29.8532L537.867 28.7833L539.44 29.8061L541.095 30.0444L542.888 29.0186L544.377 30.8479L546.145 29.9745L547.694 31.0842L549.432 30.5596L551.112 30.6674L552.796 30.6223L554.452 30.8387L556.132 30.9246L557.632 32.3389L559.34 32.1633L561.099 31.6175L562.653 32.5524L564.307 32.8343L566.117 31.962L567.699 32.6354L569.227 33.7446L570.906 33.896L572.539 34.1992L574.121 34.8508L575.751 35.2632L577.48 35.0881L579.087 35.5874L580.646 36.304L582.62 34.7365L584.252 35.0834L585.615 36.9314L587.537 35.7559L588.803 38.1259L590.775 36.6239L592.092 38.6455L594.037 37.4051L595.643 37.9262L597.105 39.1648L598.714 39.5985L600.321 40.0977L601.835 40.9225L603.702 40.2701L605.262 40.9648L607.038 40.5942L608.479 41.8541L610.395 40.9407L611.861 42.0265L613.515 42.3084L614.744 42.7981L614.061 41.5136L613.858 39.5418L612.205 38.3639L612.429 36.1625L610.925 35.7532L610.441 36.5715L610.125 38.268L610.583 40.1369L608.971 41.5169L609.618 43.4124L608.277 44.8647L608.296 46.6133L607.08 48.1561L608.482 50.1144L607.6 51.7093L608.228 53.5169L606.801 55.0763L607.177 56.8339L606.652 58.5034L607.595 60.2971L607.259 61.9713L607.048 63.6704L605.765 65.3209L605.974 67.0524L605.595 68.7474L606.603 70.499L606.791 72.2082L606.223 73.8984L606.495 75.6098L605.779 77.3399L605.294 79.0759L606.261 80.761L605.713 82.4954L606.617 84.157L605.732 85.9267L606.741 87.591L607.499 89.2489L606.171 91.0511L606.275 92.7801L607.58 94.3862L606.652 96.1767L607.494 97.8149L606.544 99.6484L606.859 101.339L607.891 102.938L608.734 104.555L608.374 106.337L609.386 107.914L608.962 109.696L609.003 111.423L608.115 113.28L610.077 114.728L609.59 116.529L609.61 118.256L609.208 120.038L609.523 121.728L610.408 123.324L609.773 125.144L609.899 126.851L610.34 128.523L611.859 130.047L610.95 131.904L611.222 133.615L611.664 135.287L612.57 136.905L611.978 138.704L612.757 140.34L613.578 141.978L612.964 143.798L613.702 145.434L614.312 147.088L612.918 148.998L613.36 150.67L614.898 152.238L613.737 154.088L614.726 155.708L614.261 157.488L614.091 159.254L615.038 160.873L613.982 162.726L614.382 164.419L616.11 165.948L615.897 167.713L615.559 169.474L616.126 171.149L615.724 172.931L616.314 174.585L615.553 176.401L615.699 178.109L615.909 179.819L617.109 181.445L616.517 183.222L616.031 184.979L617.822 186.554L616.577 188.38L618.198 189.994L617.396 191.788L616.615 193.56L618.257 195.175L618.551 196.865L617.496 198.674L617.621 200.403L617.957 202.094L617.429 203.851L619.282 205.449L619.449 207.18L618.942 208.937L619.594 210.614L618.455 212.421L618.033 214.159L618.032 215.885L618.831 217.566L618.577 219.308L620.176 220.943L619.964 222.686L619.036 224.454L618.593 226.191L619.982 227.843L618.695 229.647L618.967 231.38L618.692 233.143L618.985 234.877L619.615 236.597L619.087 238.354L620.79 240.035L620.304 241.793L620.45 243.545L621.016 245.264L619.12 247.074L621.013 248.76L620.717 250.501L621.22 252.24L620.145 254.005L621.195 255.736L621.278 257.464L620.308 259.231L620.348 260.981L621.356 262.71L621.27 264.456L619.649 266.229L620.594 267.958L620.298 269.698L619.917 271.459L620.652 273.182L620.692 274.931L620.985 276.665L619.952 278.431L621.507 280.152L620.243 281.912L620.768 283.63L621.502 285.375L620.343 287.138L621.73 288.855L620.655 290.62L621.811 292.354L619.79 294.095L620.167 295.852L621.764 297.575L620.353 299.331L620.562 301.063L621.401 302.81L620.453 304.557L621.355 306.306L620.323 308.05L620.784 309.788L620.719 311.534L620.949 313.266L620.295 315.02L620.062 316.762L620.649 318.503L621.342 320.247L621.655 322.003L620.602 323.725L621.105 325.486L621.188 327.192L621.145 328.896L620.303 330.601L619.588 332.309L620.575 334.038L621.415 335.742L621.603 337.473L620.614 339.175L621.244 340.895L620.781 342.588L621.095 344.3L621.473 346.014L620.609 347.741L619.914 349.45L620.082 351.158L621.49 352.876L619.975 354.586L620.016 356.292L619.994 358.018L619.888 359.719L620.286 361.456L620.6 363.168L620.789 364.877L621.103 366.59L619.924 368.308L621.101 370.02L620.343 371.728L620.783 373.465L620.909 375.173L619.499 376.864L620.023 378.603L620.989 380.332L620.358 382.042L620.84 383.759L619.725 385.457L620.502 387.181L619.261 388.876L619.008 390.575L620.457 392.337L620.162 394.034L620.602 395.772L619.781 397.456L619.549 399.176L618.707 400.859L619.694 402.611L619.84 404.341L618.81 405.997L620.195 407.78L619.836 409.498L620.15 411.232L618.196 412.843L619.917 414.657L619.202 416.321L618.466 418.007L619.137 419.751L619.22 421.479L619.009 423.178L618.674 424.809L619.158 426.482L617.668 427.996L617.712 429.614L618.041 431.567L615.76 431.947L615.338 433.684L613.712 433.949L612.665 435.453L611.141 436.66L609.449 436.202L607.84 435.791L606.247 435.576L604.657 435.23L603.063 435.081L601.489 434.932L599.769 434.736L598.005 435.5L596.325 434.54L594.567 435.02L592.836 435.283L591.161 434.17L589.395 434.978L587.676 434.738L585.949 434.826L584.23 434.608L582.561 433.233L580.816 434.041L579.152 434.13L577.481 434.525L575.811 434.877L574.204 433.547L572.558 432.894L570.862 434.294L569.191 434.645L567.579 433.534L565.967 432.401L564.25 433.756L562.646 432.317L560.924 433.891L559.348 432.147L557.617 434.07L555.981 433.068L554.313 433.31L552.689 432.657L551.008 433.446L549.346 433.469L547.743 431.965L546.107 431.815L544.453 431.511L542.78 431.971L541.061 433.414L539.399 433.416L537.771 432.916L536.146 432.307L534.457 432.571L532.863 431.548L531.154 432.619L529.47 432.664L527.853 431.728L526.216 430.747L524.48 432.058L522.784 432.606L521.171 431.494L519.533 430.557L517.819 431.803L516.185 430.714L514.527 430.563L512.874 430.237L511.197 429.998L509.443 432.03L507.83 430.941L506.185 430.288L504.453 431.402L502.792 431.382L501.157 430.336L499.515 429.552L497.806 430.623L496.197 429.359L494.427 431.172L492.822 429.755L491.085 431.088L489.516 429.06L487.785 430.153L486.085 430.854L484.517 428.804L482.833 428.871L481.165 429.113L479.489 428.874L477.841 428.33L476.101 429.772L474.489 428.639L472.834 428.379L471.102 429.516L469.491 428.361L467.84 427.926L466.141 428.583L464.498 427.842L462.762 429.153L461.075 429.33L459.47 427.913L457.804 428.067L456.113 428.418L454.497 427.438L452.775 428.16L451.156 427.31L449.396 428.73L447.821 426.943L446.083 428.319L444.442 427.535L442.755 427.711L441.091 427.779L439.376 428.238L437.753 427.542L436.069 427.631L434.484 426.236L432.8 426.303L431.144 426.065L429.481 426.132L427.761 426.81L426.112 426.288L424.521 425.156L422.766 426.379L421.076 426.664L419.389 426.862L417.764 426.232L416.179 424.859L414.393 426.453L412.864 424.557L411.115 425.496L409.431 425.563L407.839 424.474L406.151 424.694L404.46 425.045L402.871 423.803L401.155 424.328L399.497 424.178L397.751 425.03L396.183 423.81L394.496 423.986L392.84 423.792L391.156 423.837L389.44 424.34L387.903 422.728L386.246 422.534L384.564 422.535L382.815 423.475L381.192 422.8L379.623 421.624L377.817 423.174L376.168 422.696L374.482 422.828L372.973 420.955L371.228 421.741L369.486 422.462L367.915 421.374L366.316 420.547L364.664 420.156L363.008 419.94L361.23 421.228L359.608 420.51L357.889 421.1L356.26 420.644L354.663 419.774L353.041 419.012L351.356 419.123L349.581 420.28L347.927 419.976L346.324 419.324L344.642 419.304L343.018 418.673L341.328 418.958L339.617 419.243L337.99 418.721L336.421 417.568L334.589 419.313L333.051 417.745L331.282 418.684L329.647 418.446L327.992 418.208L326.429 416.792L324.795 416.511L322.967 418.147L321.37 417.255L319.801 416.058L318.144 415.907L316.46 415.952L314.691 416.869L313.175 415.279L311.406 416.196L309.864 414.803L308.065 416.091L306.409 415.874L304.839 414.742L303.124 415.202L301.5 414.549L299.843 414.333L298.07 415.446L296.472 414.576L294.876 413.662L293.16 414.165L291.414 415.017L289.883 413.165L288.195 413.385L286.476 413.975L284.825 413.562L283.194 413.193L281.567 412.65L279.795 413.698L278.193 413.024L276.602 411.87L274.89 412.22L273.26 411.786L271.486 412.943L269.857 412.487L268.174 412.488L266.607 411.247L264.826 412.645L263.166 412.581L261.547 411.71L259.831 412.235L258.175 412.019L256.586 410.799L254.958 410.277L253.244 410.715L251.552 411.088L249.867 411.198L248.209 411.047L246.518 411.376L244.966 409.524L243.275 409.875L241.549 410.771L239.938 409.594L238.208 410.643L236.556 410.252L234.916 409.402L233.269 408.815L231.585 408.904L229.845 410.324L228.177 410.61L226.566 408.581L224.865 409.325L223.225 408.453L221.508 409.852L219.81 410.444L218.16 409.987L216.492 410.251L214.83 408.614L213.154 409.184L211.482 408.748L209.821 408.729L208.127 410.041L206.459 410.305L204.8 409.367L203.127 409.806L201.462 409.961L199.774 408.476L198.112 409.352L196.448 410.294L194.757 408.94L193.092 409.095L191.445 410.19L189.774 410.542L188.047 408.968L186.429 410.61L184.768 410.591L183.023 408.864L181.372 409.303L179.717 409.874L178.067 410.247L176.359 409.593L174.666 409.179L173.099 411.281L171.403 410.976L169.739 411.087L168.104 411.702L166.379 410.85L164.636 409.91L163.021 410.591L161.351 410.942L159.751 411.842L158.009 410.858L156.359 411.21L154.642 410.905L153.105 412.658L151.363 411.675L149.678 411.763L148.064 412.379L146.428 413.037L144.765 413.104L143.034 412.536L141.335 412.341L139.786 413.722L138.068 413.482L136.335 412.98L134.656 412.807L133.165 414.408L131.385 413.271L129.721 413.36L128.112 413.779L126.414 413.583L124.922 415.206L123.26 415.23L121.48 414.071L119.902 414.927L118.36 416.025L116.66 415.873L114.985 415.591L113.304 415.526L111.778 416.821L109.948 415.18L108.37 416.036L106.858 417.615L105.162 417.311L103.504 417.16L101.758 416.351L100.194 417.514L98.5014 417.056L96.9702 418.569L95.3086 418.571L93.565 417.653L91.8762 417.064L90.3406 418.752L88.7079 419.279L86.9237 417.464L85.3409 418.517L83.6178 417.622L82.0977 419.528L80.3628 418.261L78.7451 419.029L77.143 420.016L75.4515 419.536L73.8254 419.801L72.1766 420.131L70.5139 420.177L68.8295 419.414L67.169 419.372L65.5481 420.271L63.8819 419.617L62.2359 419.838L60.56 419.578L58.9318 420.76L57.25 419.057L55.6257 420.087L53.9632 420.963L52.3209 420.201L50.6516 420.509L49.0084 420.62L47.3484 420.557L45.6759 420.996L44.0528 419.469L42.4038 418.969L40.7644 418.927L39.0957 419.213L37.4683 418.692L35.8261 418.76L34.1194 419.722L32.7037 420.823L31.1516 420.653L29.5399 421.18L29.1178 422.918L28.6806 424.415L28.6422 425.944L29.0894 427.397L29.2412 428.887L29.751 430.364L30.5733 431.958L32.0885 432.761L33.7551 433.392L35.5004 431.732L37.1269 433.127L38.7697 433.868L40.4742 432.993L42.1391 432.86L43.8238 432.771L45.4849 432.791L47.1591 432.287L48.8323 432.657L50.5043 432.24L52.1744 433.571L53.8325 432.87L55.4997 433.48L57.1732 432.167L58.855 433.87L60.5342 433.999L62.1644 431.899L63.8621 432.968L65.5253 432.901L67.2002 433.205L68.879 433.357L70.5076 432.152L72.1703 432.106L73.9013 433.527L75.4861 431.556L77.167 431.62L78.9019 432.887L80.5239 431.945L82.1894 431.79L83.8275 431.044L85.5212 431.436L87.2605 432.529L88.851 431.17L90.4692 430.381L92.2733 432.24L93.9349 432.238L95.5076 430.748L97.2057 430.965L98.8228 430.219L100.457 429.648L102.103 429.427L103.812 430.016L105.577 430.957L107.259 430.955L108.763 428.873L110.522 430.01L112.108 428.804L113.789 428.89L115.55 429.962L117.069 428.099L118.83 429.148L120.562 429.672L122.094 428.137L123.793 428.311L125.493 428.485L127.042 427.082L128.72 427.255L130.535 428.677L132.134 427.843L133.731 427.031L135.429 427.27L137.031 426.284L138.827 427.64L140.374 426.324L142.122 427.067L143.77 426.759L145.323 425.246L147.151 426.997L148.716 425.812L150.4 425.723L152.145 426.619L153.697 425.085L155.394 425.346L157.14 426.199L158.773 425.65L160.326 424.093L162.119 425.559L163.765 425.36L165.305 423.475L166.985 423.583L168.664 423.713L170.329 423.58L172.059 424.191L173.721 424.189L175.344 423.203L177.037 423.617L178.643 422.499L180.35 423.176L182.014 423.086L183.708 423.479L185.418 424.046L187.03 422.688L188.68 422.292L190.341 422.312L192.05 422.945L193.686 422.287L195.405 423.335L197.022 421.759L198.723 422.698L200.387 422.586L202.061 422.934L203.719 422.255L205.39 422.712L207.049 421.967L208.729 422.927L210.402 422.466L212.072 422.115L213.733 422.965L215.408 422.417L217.077 422.131L218.75 421.671L220.391 423.329L222.074 422.454L223.75 422.736L225.399 423.236L227.053 423.54L228.8 421.814L230.428 422.314L232.079 422.705L233.69 423.903L235.358 423.618L237.089 422.547L238.756 422.304L240.374 423.219L242.025 423.632L243.726 422.888L245.377 423.301L247.048 422.95L248.702 423.253L250.318 424.212L251.952 424.471L253.641 424.23L255.262 424.991L256.923 425.011L258.583 425.075L260.306 424.288L261.899 425.333L263.622 424.568L265.28 424.719L267.002 423.975L268.508 425.98L270.294 424.364L271.913 425.235L273.514 425.952L275.176 425.95L276.927 424.902L278.581 425.206L280.269 424.986L281.81 426.423L283.44 426.835L285.094 427.139L286.818 426.33L288.501 426.307L290.157 426.523L291.847 426.216L293.332 428.22L295.133 426.867L296.673 428.348L298.456 426.885L299.967 428.671L301.682 428.233L303.456 427.098L305.059 427.75L306.596 429.34L308.258 429.338L310.062 427.854L311.544 429.967L313.266 429.245L314.947 429.309L316.64 428.871L318.325 428.782L319.98 429.042L321.64 429.084L323.183 430.478L324.815 430.803L326.558 430.082L328.158 430.843L329.88 430.121L331.534 430.425L333.138 431.012L334.707 432.209L336.398 431.88L338.142 431.094L339.831 430.852L341.369 432.398L343 432.789L344.691 432.438L346.406 431.979L348.117 431.672L349.578 433.806L351.26 433.827L353.039 432.495L354.692 432.842L356.297 433.429L357.928 433.798L359.553 434.428L361.356 432.966L362.897 434.403L364.477 435.164L366.186 434.945L367.822 435.117L369.561 434.549L371.168 435.048L372.94 433.978L374.42 436.178L376.229 434.519L377.827 435.346L379.452 435.955L381.118 435.778L382.837 435.166L384.432 436.146L386.122 435.86L387.685 437.255L389.434 436.271L391.095 436.313L392.721 436.9L394.447 435.982L396.016 437.158L397.764 436.24L399.334 437.372L400.987 437.698L402.644 437.892L404.368 437.083L405.899 438.936L407.558 439.021L409.344 437.427L411.005 437.425L412.668 437.357L414.252 438.774L415.95 438.161L417.537 439.468L419.194 439.619L420.895 438.919L422.618 438.11L424.181 439.526L425.836 439.808L427.497 439.828L429.186 439.564L430.777 440.697L432.517 439.254L434.153 439.427L435.769 440.407L437.505 439.096L439.033 441.079L440.725 440.684L442.35 441.293L444.025 440.789L445.648 441.485L447.413 439.847L448.977 441.241L450.642 441.108L452.267 441.717L453.933 441.54L455.587 441.822L457.286 441.166L458.915 441.622L460.536 442.384L462.241 441.509L463.87 441.965L465.54 441.613L467.157 442.572L468.83 442.111L470.455 442.72L472.162 441.736L473.819 441.909L475.447 442.409L477.076 442.865L478.74 442.775L480.366 443.341L482.026 443.404L483.678 443.795L485.359 443.007L486.982 443.725L488.723 442.217L490.316 443.263L491.963 443.872L493.598 444.088L495.297 443.41L497.006 442.36L498.633 442.882L500.248 443.927L501.933 442.964L503.598 442.853L505.172 444.641L506.835 444.573L508.502 444.375L510.17 444.111L511.829 444.196L513.461 444.565L515.123 444.541L516.746 445.238L518.452 444.297L520.079 444.819L521.751 444.424L523.41 444.509L525.031 445.271L526.735 444.439L528.402 444.197L530.067 444.086L531.677 445.307L533.312 445.501L534.986 444.996L536.644 445.147L538.254 446.346L539.977 444.75L541.601 445.425L543.246 446.056L544.939 444.809L546.547 446.117L548.209 446.071L549.871 446.048L551.542 445.674L553.173 446.043L554.837 445.976L556.514 445.362L558.126 446.495L559.776 446.952L561.449 446.491L563.115 446.293L564.726 447.491L566.405 446.769L568.08 446.243L569.743 446.197L571.36 447.134L573.034 446.607L574.677 447.348L576.357 446.625L578.077 446.821L579.817 446.21L581.486 447.584L583.207 447.693L584.925 447.955L586.651 447.911L588.408 447.474L590.133 447.43L591.852 447.692L593.596 446.883L595.316 447.101L597.012 448.215L598.681 447.098L600.204 448.404L601.8 448.51L603.416 448.638L605.104 447.609L606.662 448.37L608.27 448.803L609.899 447.621L611.52 448.361L613.057 447.46L614.83 448.903L616.327 447.891L617.624 446.525L619.146 446.214L621.435 447.167L622.912 446.134L623.411 443.852L625.767 443.845L626.073 441.733L627.158 440.384L627.871 438.785L628.48 437.161L629.11 435.516L629.134 433.725L630.391 432.227L629.682 430.33L630.753 428.718L630.608 426.944L630.631 425.196L631.305 423.487L631.244 421.715L631.246 419.967L631.522 418.204L632.406 416.5L630.895 414.67L632.179 412.954L630.774 411.149L631.007 409.407L631.303 407.644L632.545 405.927L632.631 404.181L631.519 402.383L632.635 400.663L630.935 398.872L632.114 397.132L632.053 395.36L631.908 393.608L632.268 391.847L631.849 390.089L632.44 388.333L632.694 386.592L631.33 384.809L633.161 383.085L631.271 381.289L632.114 379.541L631.38 377.774L631.362 376.003L632.267 374.278L631.449 372.509L633.112 370.803L631.789 369.043L632.253 367.329L631.77 365.59L633.201 363.9L632.614 362.159L631.732 360.41L633.541 358.729L633.164 356.994L633.061 355.243L632.578 353.526L633.358 351.798L632.455 350.049L631.909 348.33L633.866 346.631L632.396 344.868L633.637 343.173L632.819 341.426L632.295 339.687L632.611 337.968L633.937 336.253L633.981 334.528L632.489 332.786L633.794 331.071L632.955 329.323L633.586 327.613L633.378 325.881L632.454 324.132L632.771 322.413L632.394 320.678L633.551 318.958L633.385 317.228L633.28 315.521L633.765 313.785L632.736 312.055L632.906 310.332L634.337 308.598L632.74 306.876L634.256 305.144L633.206 303.413L633.018 301.682L632.367 299.961L633.82 298.227L633.989 296.505L633.99 294.779L632.645 293.063L633.573 291.316L633.49 289.587L633.722 287.867L632.461 286.153L632.736 284.411L633.474 282.682L632.381 280.972L633.96 279.219L633.941 277.493L633.963 275.767L634.217 274.025L632.829 272.329L633.504 270.576L633.569 268.852L633.486 267.123L632.667 265.398L632.311 263.663L633.491 261.901L632.798 260.179L632.883 258.455L633.769 256.685L633.855 254.961L632.13 253.279L632.742 251.524L631.838 249.819L632.998 248.034L633.441 246.297L632.306 244.586L633.15 242.815L633.298 241.093L632.543 239.369L631.281 237.698L632.398 235.913L632.463 234.166L632.738 232.425L631.224 230.748L631.035 229.039L631.037 227.291L630.996 225.563L631.862 223.771L631.273 222.074L631.191 220.346L631.887 218.571L631.32 216.852L632.312 215.064L632.103 213.332L631.893 211.622L631.221 209.923L629.937 208.273L630.676 206.478L631.479 204.685L631.417 202.957L629.944 201.325L630.809 199.511L629.842 197.848L629.97 196.103L630.013 194.355L629.994 192.629L630.438 190.848L630.081 189.135L629.072 187.47L628.588 185.775L629.349 183.981L629.329 182.232L629.015 180.52L628.3 178.841L628.681 177.081L629.104 175.299L629.085 173.551L627.421 171.979L628.582 170.129L628.647 168.361L628.417 166.65L627.976 164.957L627.471 163.261L627.178 161.55L626.188 159.908L626.064 158.178L625.854 156.468L625.813 154.741L626.701 152.906L626.132 151.253L625.437 149.618L624.974 147.968L626.242 146.055L625.42 144.439L625.822 142.657L624.642 141.098L624.728 139.33L625.595 137.472L624.562 135.895L624.437 134.187L624.08 132.496L624.567 130.694L622.774 129.229L622.543 127.54L622.945 125.737L622.06 124.141L621.83 122.431L621.303 120.779L622.276 118.902L621.581 117.246L620.992 115.592L621.605 113.772L621.818 112.007L620.595 110.447L620.871 108.684L620.282 107.008L619.988 105.318L619.061 103.7L619.168 101.954L619.444 100.191L620.183 98.3739L619.889 96.6839L618.436 95.0959L618.311 93.3664L618.502 91.623L617.998 89.9278L619.789 88.0935L617.664 86.4886L619.602 84.658L617.961 83.0215L617.857 81.2926L617.395 79.5765L618.196 77.8484L618.87 76.1172L617.357 74.3966L618.725 72.6827L617.991 70.938L618.811 69.2541L619.254 67.5607L617.848 65.7554L619.298 64.131L619.194 62.4021L619.909 60.7374L619.259 58.9511L619.764 57.2811L618.948 55.4469L619.809 53.8296L620.146 52.1336L620.419 50.4578L620.337 48.6858L621.888 47.2606L620.885 45.2906L622.644 43.9362L621.852 41.9714L622.44 40.3473L623.779 38.9605L622.797 37.0129L623.516 35.1735L623.163 33.329L621.635 32.1762L620.075 31.4814L618.664 30.7467L617.173 29.8133L615.329 30.3571L613.675 30.097L612.091 29.5109L610.815 27.534L609.163 27.1647L607.507 26.9483L605.758 27.1011L603.982 27.4717L602.518 26.2768L600.673 26.886L599.284 25.2777L597.533 25.496L595.755 25.9102L594.368 24.2146L592.736 23.8677L591.082 23.564L589.377 23.6304L587.477 24.7409L585.895 24.1111L584.487 22.3931L582.605 23.6133L581.226 21.5683L579.468 22.0704L577.762 22.1587L576.057 22.247L574.503 21.2902L572.798 21.3566L571.091 21.5104L569.512 20.7278L567.83 20.6856L566.304 19.4891L564.467 20.6229L562.914 19.6443L561.202 19.9946L559.681 18.5579L558.026 18.2978L556.288 18.8442L554.714 17.8869L552.925 18.7816L551.377 17.6064L549.637 18.1964L547.902 18.6336L546.333 17.4579L544.703 17.0454L543.049 16.7417L541.305 17.5064L539.616 17.7699L537.997 16.8989L536.343 16.617L534.624 17.2294L532.94 17.2964L531.407 15.5097L529.659 16.4491L527.936 17.2362L526.346 16.06L524.629 16.585L523.037 15.4962L521.352 15.6068L519.669 15.6083L518.005 15.7194L516.327 15.5243L514.663 15.6137L513.031 14.4364L511.321 15.5516L509.634 15.7277L507.977 15.5332L506.334 14.8145L504.63 15.6458L502.966 15.7788L501.315 15.344L499.626 15.5857L498.004 14.0153L496.294 15.9609L494.652 14.3463L492.974 14.9816L491.317 13.9785L489.636 13.9362L487.977 13.829L486.3 15.2729L484.623 14.2255L482.953 13.7247L481.281 14.1416L479.615 14.2965L477.946 15.4564L476.286 15.3929L474.615 15.7879L472.943 14.5222L471.275 14.7863L469.601 14.4165L467.931 13.9156L466.272 15.491L464.596 14.4219L462.916 14.2923L461.263 15.6275L459.6 15.695L457.894 14.1225L456.264 15.3708L454.574 14.8258L452.947 15.9868L451.268 15.8572L449.556 14.5031L447.903 14.986L446.247 15.6L444.607 16.4329L442.907 15.4506L441.213 15.0584L439.516 14.7973L437.867 15.171L436.268 16.8572L434.575 16.4432L432.84 15.1759L431.203 15.8559L429.613 17.2146L427.863 15.7065L426.206 16.3642L424.616 17.7009L422.879 16.521L421.271 17.7262L419.572 17.5524L417.82 16.1317L416.215 17.2496L414.612 18.2582L412.927 18.3689L411.16 16.7074L409.512 16.9938L407.812 16.8419L406.253 18.6165L404.515 17.5021L402.849 17.6569L401.201 17.9652L399.535 18.1637L397.842 17.7497L396.246 19.3048L394.479 17.6652L392.858 18.5642L391.239 19.3539L389.561 19.2025L387.896 19.3355L386.186 18.7463L384.565 19.6234L382.852 19.187L381.263 20.4801L379.554 19.869L377.812 18.8856L376.221 20.266L374.5 19.2613L372.891 20.5321L371.17 19.571L369.56 20.8418L367.809 19.3774L366.162 19.6638L364.539 20.6282L362.901 21.3738L361.19 20.8501L359.54 21.202L357.865 20.8977L356.212 21.4025L354.546 21.601L352.854 21.1215L351.15 20.292L349.488 20.3158L347.846 21.2142L346.169 21.0192L344.502 21.2395L342.825 21.0007L341.172 21.5055L339.513 22.2287L337.827 21.5308L336.163 21.642L334.479 21.7089L332.809 21.1863L331.137 20.7728L329.474 20.8184L327.828 22.7219L326.125 21.0403L324.469 22.5065L322.795 21.3281L321.138 22.7943L319.459 20.9821L317.795 21.9455L316.112 22.7774L314.446 21.2714L312.774 22.5406L311.1 22.1926L309.44 21.2987L307.77 21.6282L306.105 20.9309L304.448 20.78L302.764 21.6773L301.077 21.8535L299.374 22.663L297.784 20.6345L296.088 21.1601L294.437 20.7471L292.759 20.5957L291.106 20.2482L289.413 20.6428L287.71 21.4741L286.011 22.1307L284.363 21.5867L282.759 20.126L280.995 21.6988L279.416 20.1076L277.759 19.9131L276.109 19.4783L274.421 19.6763L272.734 19.8743L271.048 19.9849L269.358 20.2921L267.771 18.9848L265.986 20.5789L264.428 18.9664L262.705 19.7099L260.991 20.1257L259.434 18.4914L257.779 18.2531L255.963 20.1961L254.434 18.2566L252.655 19.5886L250.998 19.4159L249.441 17.7597L247.787 17.4559L246.042 18.2862L244.348 18.7462L242.666 18.704L241.073 17.6806L239.297 18.8598L237.639 18.7526L236.08 17.1619L234.425 16.9018L232.743 16.9033L231.089 16.5777L229.308 17.9971L227.806 15.8397L226.124 15.7974L224.436 16.0391L222.78 15.8227L220.979 17.1979L219.35 16.7418L217.669 16.6777L215.98 16.9194L214.418 15.4816L212.698 16.1377L211.043 15.8776L209.483 14.3525L207.728 15.5321L206.138 14.3777L204.486 14.0085L202.789 14.5777L201.132 14.3831L199.409 15.1484L197.72 15.4119L196.099 14.6501L194.405 15.0883L192.724 15.0461L191.192 13.2376L189.56 12.9125L187.785 14.0698L186.218 12.8286L184.523 13.3105L182.812 13.6171L181.209 12.9432L179.463 13.8171L177.934 11.8776L176.243 12.2066L174.486 13.5173L172.83 13.3009L171.21 12.4517L169.644 11.1886L167.863 12.5862L166.171 12.9589L164.602 11.805L162.914 12.0248L161.26 11.7211L159.542 12.2898L157.884 12.1607L156.317 10.8977L154.69 10.3542L153.035 10.0941L151.254 11.5135L149.591 11.5592L147.969 10.841L146.373 9.88313L144.75 9.20865L142.936 11.0861L141.334 10.3903L139.712 9.6503L138.054 9.52124L136.427 8.99963L134.645 10.419L133.026 9.59164L131.33 10.1172L129.799 8.24319L128.02 9.57521L126.389 9.2283L124.798 8.09573L123.074 8.88284L121.391 8.92797L119.823 7.70857L118.071 8.80089L116.443 8.27928L114.729 8.69513L113.165 7.34471L111.413 8.43703L109.877 6.78139L108.159 7.37195L106.438 8.04987L104.754 8.11683L103.197 6.46067L101.511 6.61499L99.8953 5.61293L98.1764 6.22533L96.4999 5.98656L94.7544 6.81681L93.1904 5.44455L91.3887 6.84155L89.7939 5.86185L88.1443 5.38339L86.4033 6.03893L84.8151 4.79718L83.1314 4.8423L81.3517 6.19616L79.7342 5.28145L78.1422 4.19256L76.4585 4.23768L74.7141 5.02426L73.0067 5.17806L71.3545 4.80878L69.6416 5.18096L68.0148 4.6375L66.4297 3.26471L64.6225 4.8801L62.9719 4.44531L61.4173 2.70179L59.7336 2.74692L58.0781 2.50867L56.3933 2.59748L54.5872 4.16919L52.968 3.31999L51.4142 2.38503L49.8536 1.71212L48.0735 3.08782L46.4838 2.74196L44.9752 1.67702L43.3363 1.61401L41.72 1.48602L40.0476 1.92477L38.4125 1.70889L36.8072 1.14412L35.17 1.0156L33.5378 1.52091L31.8838 0.386763L30.2622 1.30754L28.6534 1.72604L27.0837 2.25478L25.2964 1.40136L23.6487 1.68777L22.3858 3.40423L21.0558 4.44159L19.5912 4.97297L18.1439 5.65775L15.8693 4.94506L15.5944 7.51672L13.3487 7.32921L11.772 8.14185L11.4251 10.231L10.5061 11.6501L8.53496 12.2562L8.35894 14.2403L8.10322 16.0476L6.79038 17.2384L6.01638 18.7486L5.72075 20.4675L4.36319 21.7664L3.25343 23.2464L3.06238 24.9897L2.34867 26.6107L2.40883 28.4041L2.11327 30.123L2.50968 31.9249L2.00556 33.573L2.52865 35.3562L2.40186 37.0575L1.41376 38.7153L0.950582 40.4081L2.00023 42.1608L0.779364 43.8783L1.34607 45.597L2.03952 47.2971L1.40653 49.0512L0.921332 50.7872L1.78342 52.4696L2.45636 54.1473L1.21163 55.9735L2.28508 57.6175L1.71464 59.395L2.24047 61.069L1.9648 62.8321L1.79541 64.5542L3.10114 66.1604L2.40403 67.9566L2.31806 69.7026L3.2444 71.3429L3.93887 72.9993L4.50729 74.6525L3.99988 76.4316L4.3786 78.1019L3.4719 79.871L3.95459 81.5876L3.27908 83.3626L5.15165 85.0048L3.99162 86.8112L5.33768 88.484L3.50397 90.3172L4.97616 91.9931L3.66901 93.7959L5.47801 95.4584L3.87603 97.2756L4.04236 99.0279L4.31485 100.739L4.48118 102.492L4.52193 104.219L5.61521 105.907L4.85507 107.702L5.37987 109.419L6.36807 111.105L6.47131 112.856L5.71172 114.629L5.89958 116.36L5.07642 118.153L5.1802 119.882L4.8415 121.643L5.2816 123.381L5.89096 125.079L5.76246 126.845L7.12958 128.519L7.06465 130.265L6.66292 132.025L6.21921 133.784L6.7019 135.501L7.43677 137.224L7.22474 138.966L6.08569 140.773L5.74699 142.535L6.18765 144.25L6.75448 145.969L5.99483 147.742L6.39289 149.478L6.98065 151.197L7.94787 152.883L7.81992 154.628L7.79709 156.375L6.55292 158.179L8.19332 159.86L7.64442 161.616L7.8113 163.346L8.27239 165.084L7.04933 166.889L8.87992 168.53L8.01465 170.322L7.46526 172.1L8.1587 173.8L7.56721 175.577L8.70259 177.267L9.20633 178.984L9.52025 180.718L9.47638 182.465L9.43251 184.212L9.03084 185.972L8.0605 187.762L9.13279 189.449L8.05738 191.236L9.86692 192.877L8.34903 194.696L9.84275 196.351L9.69381 198.095L9.94476 199.828L9.24881 201.58L8.48916 203.353L9.20359 205.054L9.79135 206.773L10.4848 208.473L9.19864 210.276L10.7764 211.933L10.6906 213.679L10.921 215.389L11.0038 217.118L10.8969 218.863L10.9371 220.612L11.0199 222.341L10.2603 224.113L10.0482 225.856L9.81523 227.599L10.5296 229.299L11.2441 231L11.053 232.743L11.3041 234.476L11.3658 236.204L10.3113 237.991L10.5833 239.724L11.7823 241.393L10.6012 243.199L11.9689 244.85L10.9144 246.638L12.4713 248.294L12.6381 250.024L12.6363 251.772L12.6771 253.5L11.1592 255.319L11.305 257.049L10.9669 258.789L12.9866 260.435L11.8482 262.22L11.4885 263.981L11.6974 265.712L12.096 267.427L11.5471 269.183L13.5248 270.828L12.3233 272.612L13.1008 274.314L12.7201 276.074L12.8239 277.803L13.6014 279.505L13.2002 281.243L12.419 283.038L14.0814 284.675L13.5746 286.432L13.6359 288.182L12.7501 289.951L13.5066 291.653L13.3577 293.397L12.8718 295.155L13.8181 296.84L13.627 298.583L13.3514 300.346L14.0659 302.047L14.7803 303.747L13.5998 305.531L13.6821 307.282L14.2283 308.978L14.1634 310.725L14.3513 312.456L13.8865 314.214L14.0323 315.944L15.6096 317.622L15.2079 319.382L15.5434 321.095L15.3945 322.84L15.6245 324.572L15.8753 326.304L14.3364 328.123L15.0293 329.845L15.3648 331.558L15.4051 333.307L16.4353 334.994L15.1702 336.798L16.0737 338.503L15.5669 340.26L15.944 341.996L15.6479 343.737L15.1825 345.517L16.0867 347.2L16.0428 348.948L17.052 350.634L17.0292 352.381L15.4482 354.199L15.952 355.916L15.7604 357.681L16.58 359.385L17.4 361.066L17.2294 362.832L16.617 364.608L16.2573 366.369L16.7826 368.065L17.4544 369.786L16.5682 371.578L17.5774 373.264L17.6171 375.035L17.5937 376.804L16.4961 378.634L18.2206 380.317L16.9753 382.165L17.5625 383.906L17.0115 385.749L16.9876 387.541L17.9968 389.227L17.6349 391.075L19.216 392.601L19.6782 394.295L20.3517 395.951L18.9517 398.101L19.8165 399.674L20.6819 401.225L21.9732 402.569L22.0538 404.385L22.0072 406.241L22.8095 407.791L24.5261 408.948L23.4165 411.259L23.965 412.868L24.4493 414.519L26.5038 415.619L27.1784 417.231L26.0107 419.344L28.1443 420.643L28.1624 422.435L27.759 424.261L28.2837 425.978L27.1209 427.894L27.8548 429.661L29.5358 430.555L31.0338 431.204L32.424 431.96L34.0108 431.585L35.6283 432.5L37.0397 431.574L39.1005 431.582L39.3634 429.491L39.2585 427.805L39.9058 426.314Z" fill="black" stroke="black" stroke-width="2" mask="url(#path-1-inside-1_122_156)"/>
</svg>
