<svg width="282" height="516" viewBox="0 0 282 516" fill="none" xmlns="http://www.w3.org/2000/svg">
<path d="M276.66 476.771L275.524 476.365L274.417 476.517L273.451 477.669L272.187 476.788L271.094 477.11L270.014 477.499L269.106 478.532L267.842 478.092L267.032 479.43L265.882 479.497H264.703L263.795 480.395L262.9 481.275L261.835 481.647L260.741 481.935L259.705 482.426L258.554 482.528L257.362 482.477L256.566 483.831L255.487 484.17L254.294 483.984L253.343 484.864L252.292 485.44L251.113 485.135L250.048 485.609L248.94 485.779L247.748 485.355L246.668 486.049L245.475 485.592L244.339 485.609L243.189 485.423L242.138 486.828L240.945 486.049L239.852 486.845L238.659 485.948L237.608 487.472L236.472 487.59L235.251 486.202L234.143 486.93L233.05 487.607L231.914 487.776L230.763 487.709L229.627 487.861L228.505 488.233L227.284 486.761L226.205 487.827L225.055 487.692L223.876 486.981L222.797 488.183L221.661 488.352H220.525L219.332 487.404L218.238 488.267L217.116 488.691L215.98 488.758L214.802 487.963L213.694 488.166L212.643 489.537L211.479 488.826L210.314 488.183L209.221 488.741L208.071 488.386L207.02 489.571L205.869 489.283L204.747 489.266L203.583 488.691L202.518 489.673L201.396 489.808L200.274 489.757L199.124 489.503L198.031 489.859L196.937 490.604L195.758 489.706L194.708 490.892L193.571 490.824L192.464 490.925L191.257 489.757L190.177 490.553L189.041 490.248L187.92 490.435L186.812 490.621L185.747 491.823L184.554 490.655L183.517 492.026L182.324 491.061L181.217 491.349L180.081 491.129L178.987 491.654L177.894 492.263L176.772 492.331L175.607 491.704L174.514 492.331L173.378 492.128L172.299 492.889L171.106 491.857L170.055 492.94L168.876 492.145L167.74 491.975L166.689 493.228L165.525 492.602L164.446 493.279L163.309 493.11L162.202 493.414L161.052 493.042L159.958 493.617L158.836 493.821L157.729 494.007L156.607 494.21L155.499 494.481L154.349 493.939L153.17 493.076L152.119 494.481L150.983 494.227L149.805 493.38L148.697 493.804L147.575 493.888L146.51 494.718L145.345 494.125L144.224 494.21L143.13 494.786L141.994 494.718L140.929 495.649L139.75 494.853L138.643 495.09L137.521 495.243L136.385 494.955L135.334 496.174L134.169 495.632L133.09 496.276L131.94 496.005L130.775 495.311L129.71 496.36L128.56 496.089L127.396 495.26L126.331 496.31L125.194 496.174L124.087 496.428L122.937 496.022L121.815 496.293L120.693 496.377L119.571 496.225L118.52 497.545L117.356 496.97L116.262 497.562L115.098 496.902L113.962 496.614L112.868 497.291L111.789 497.986L110.624 497.376L109.545 498.29L108.395 497.901L107.301 498.426L106.165 498.138L104.987 497.308L103.95 498.747L102.8 498.358L101.635 497.749L100.528 497.969L99.4342 498.612L98.2697 498.07L97.2188 499.222L96.0402 498.341L94.9751 499.476L93.7965 498.629L92.7456 499.713L91.5385 498.46L90.4735 499.526L89.3232 499.086L88.2297 499.56L87.1505 500.288L85.9718 499.611L84.8499 499.492L83.7849 500.559L82.6204 500.017L81.4843 499.916L80.4335 500.965L79.2974 500.898L78.1045 499.848L77.0111 500.271L75.9318 501.152L74.7673 500.559L73.6597 500.779L72.5378 500.932L71.4444 501.423L70.2941 500.999L69.2148 501.778L68.093 501.795L66.9143 500.949L65.7782 500.965L64.6564 500.898L63.6197 502.405L62.4694 502.1L61.2908 501.135L60.1831 501.507L59.1038 502.117L57.982 502.269L56.8601 502.337L55.7382 502.489L54.6448 502.913L53.4519 502.015L52.33 501.88L51.2366 502.557L50.0863 502.218L48.9786 502.489L47.8852 502.929L46.7065 502.388L45.6557 503.725L44.5338 503.776L43.2983 502.659L42.1907 503.133L41.0688 503.37L39.9753 504.064L38.8677 504.453L37.7316 504.555L36.5813 504.538L35.3885 504.03L34.295 504.69L33.1731 505.283L31.9661 504.115L30.8158 503.945L29.7081 504.944L28.5721 505.367L27.4218 504.707L26.2715 505.655L25.1497 504.656L24.0278 504.216L22.9059 503.928L21.6989 504.673L20.5486 504.639L19.3557 504.86L18.4327 503.387L17.0694 504.132L16.4162 502.269L15.2943 502.066L14.3712 501.321L13.0648 501.169L12.6387 499.73L11.5311 499.103L11.5027 497.528L10.821 496.496L10.4802 495.243L10.395 493.905L9.98318 492.669L9.34414 491.417L9.51455 490.045L9.18793 488.691L8.96072 487.336L8.6057 485.948L9.79857 484.644L9.28734 483.256L9.52875 481.901L9.65656 480.547L10.2388 479.226L9.75597 477.821L9.91218 476.467L10.0684 475.146L9.32994 473.758L10.2104 472.488L9.55716 471.116L10.3098 469.83L10.537 468.509L9.78437 467.138L10.4234 465.851L9.78437 464.48L9.92638 463.142L10.0116 461.821L9.71336 460.467L10.9772 459.214L10.4518 457.86L10.6648 456.539L10.111 455.168L11.2329 453.915L11.0482 452.56L10.963 451.223L10.253 449.851L11.3465 448.598L11.4601 447.261L11.3607 445.923L10.7784 444.552L11.7867 443.299L10.8636 441.894L11.7583 440.624L11.9855 439.303L11.9003 437.966L11.4459 436.612L11.3181 435.274L11.3891 433.953L11.2755 432.599L12.1985 431.329L11.4317 429.958L11.2329 428.603L11.4175 427.283L12.5535 426.03L12.5819 424.692L11.5311 423.304L12.7239 422.051L12.5251 420.697L12.5819 419.376L11.6873 417.988L12.1985 416.684L11.8719 415.329L12.4967 414.043L13.1074 412.739L12.1417 411.351L12.2411 410.03L12.0849 408.693L13.2494 407.423L12.9654 406.085L13.1216 404.765L12.5109 403.393L13.434 402.107L12.9512 400.752L12.8517 399.415L13.8032 398.145L13.6044 396.79L13.647 395.47L12.6955 394.081L13.4198 392.795L13.7748 391.491L14.0872 390.17L13.576 388.799L13.3914 387.461L13.718 386.158L13.6612 384.82L13.9168 383.5L13.8742 382.162L13.4482 380.808L14.144 379.521L13.3772 378.149L13.434 376.812L14.8115 375.576L13.4908 374.154L14.1156 372.867L13.7464 371.513L13.7748 370.175L14.6979 368.905L14.3428 367.551L14.9677 366.264L15.0387 364.926L14.002 363.538L14.2292 362.218L15.1381 360.948L14.6126 359.576L14.2008 358.222L14.7973 356.918L15.2801 355.615L14.4848 354.226L14.8683 352.923L15.4931 351.619L15.4647 350.281L15.1381 348.927L15.1665 347.589L15.2659 346.269L16.0895 344.982L15.9049 343.644L14.9961 342.239L15.9191 340.969L15.2517 339.581L15.8197 338.277L16.3309 336.991L15.3937 335.585L15.2943 334.248L16.5298 332.995L16.1179 331.624L16.544 330.32L16.4304 328.965L15.7629 327.594L16.5582 326.307L16.7002 324.987L16.2031 323.615L16.8422 322.312L17.2682 321.008L16.1179 319.603L17.0126 318.316L17.3108 316.995L16.6576 315.624L16.3878 314.27L17.5522 313L16.473 311.611L16.686 310.274L17.0268 308.97L17.6942 307.667L17.4386 306.312L17.2824 304.975L16.7996 303.603L16.7286 302.266L16.899 300.945L17.183 299.624L16.8138 298.27L17.4812 296.966L17.5664 295.629L17.4954 294.291L17.5096 292.971L17.7936 291.633L16.9558 290.279L17.822 288.975L18.0066 287.637L17.1404 286.283L17.4386 284.962L18.0634 283.642L17.2114 282.287L17.4386 280.95L18.0208 279.629L17.4528 278.292L17.8078 276.937L17.2682 275.6L17.5096 274.245L18.1203 272.908L18.3333 271.553L18.2197 270.216L17.7226 268.861L17.4244 267.524L17.5238 266.169L18.5321 264.815L18.1345 263.477L18.1629 262.123L17.1546 260.802L18.4327 259.414L17.6374 258.093L17.6942 256.739L17.7794 255.401L18.0777 254.03L17.4102 252.709L17.9498 251.338L18.0634 249.983L18.0492 248.629L16.7712 247.359L17.751 245.954L17.538 244.616L17.893 243.245L17.112 241.941L17.538 240.57L17.6942 239.215L16.6292 237.929L17.325 236.54L16.6576 235.237L17.4102 233.831L16.5582 232.545L17.1688 231.139L16.2315 229.869L15.7913 228.566L15.9475 227.194L16.3451 225.806V224.469L15.5641 223.182L15.7629 221.81L15.7203 220.473L16.1605 219.085L16.1179 217.73L16.2883 216.359L15.5499 215.089L15.6635 213.717L14.8399 212.448L14.6553 211.127L14.499 209.79L15.1097 208.367L14.3002 207.098L14.4564 205.743L15.3227 204.287L14.7831 203L14.1582 201.714L14.5416 200.325L14.3144 198.988L14.1724 197.667L13.9168 196.346L13.789 195.009L14.357 193.604L14.57 192.249L13.789 190.979L14.3002 189.591L13.0932 188.372L12.9512 187.051L12.6813 185.731L13.4056 184.309L13.2352 182.988L13.5192 181.6L13.5476 180.262L13.3346 178.942L12.1701 177.723L12.5393 176.334L12.3973 175.014L12.1985 173.676L12.1559 172.339L12.4115 170.967L12.0565 169.664L12.2695 168.309L12.6103 166.921L11.9571 165.651L11.9003 164.313L11.8577 162.976L11.4885 161.655L10.9488 160.369L11.5595 158.963L11.3039 157.643L11.3749 156.305L10.6648 155.018L11.034 153.647L10.5796 152.343L10.5228 151.006L10.6364 149.651L11.2613 148.263L10.5938 146.976L11.2613 145.588L10.2672 144.318V142.981L10.0258 141.643L10.4092 140.289L11.034 138.9L10.3666 137.597L9.62816 136.31L9.71336 134.955V133.618L10.1394 132.263L10.0968 130.926L9.81277 129.588L9.45775 128.268L9.54295 126.913L10.0684 125.559L9.86957 124.238L9.42935 122.901L10.4234 121.546L9.84117 120.209L10.3666 118.871L9.65656 117.534L9.35834 116.213L9.15953 114.859L10.3382 113.521L10.3808 112.183L9.27314 110.846L10.3524 109.508L10.4376 108.171L9.79857 106.816L9.94058 105.479L9.27314 104.107L10.2956 102.804L9.37255 101.415L10.5938 100.112L9.72757 98.7404L10.2814 97.4198L10.7784 96.0992L10.537 94.7448L9.55716 93.3395L10.2246 92.0358L10.537 90.7152L9.91218 89.3269L9.82697 87.9724L11.1476 86.7196L10.9204 85.3482L10.1962 83.9429L10.8352 82.6562L10.963 81.3186L10.2672 79.8964L11.4317 78.6605L10.8352 77.2552L11.5311 75.9854L11.1618 74.5971L11.2045 73.2426L11.1476 71.8882L11.2613 70.5506L11.2897 69.1962L12.1843 67.9602L12.0423 66.5888L11.6589 65.1836L12.2411 63.9138L12.3973 62.5762L11.8009 61.1371L12.2127 59.8504L12.9086 58.5975L12.9796 57.243L13.15 55.9224L13.5476 54.6357L13.789 53.3151L13.647 51.9268L13.9452 50.6231L14.3854 49.3533L13.3346 47.7957L13.5334 46.475L14.7121 45.3407L13.9168 43.8169L15.4363 42.7503L14.428 41.1926L15.7203 40.0921L14.8825 38.5514L15.1949 37.2478L15.9759 36.0457L16.2315 34.742L16.5298 33.4383L17.041 32.2024L16.5866 30.7125L17.0126 29.4427L16.7428 28.0205L17.538 26.8353L16.9132 25.3115L17.5948 24.1095L17.751 22.7719L18.0492 21.773L17.2256 22.3487L15.9475 22.5518L15.2091 23.9063L13.7748 23.7708L13.5334 24.9899L14.073 25.3623L15.1807 25.5824L16.3878 25.1761L17.3108 26.4459L18.5321 25.8872L19.4977 26.9369L20.6338 26.8861L21.6563 27.8342L22.9059 26.666L23.9568 27.3432L25.1213 26.8015L26.1579 27.9189L27.294 27.5803L28.3875 27.9697L29.5377 27.1739L30.6312 27.411L31.7388 27.5464L32.8323 28.5453L33.9542 28.3422L35.0618 28.6131L36.1837 27.7665L37.2914 27.5803L38.399 28.0035L39.5067 27.7496L40.6428 28.2914L41.7788 28.6469L42.8581 27.8342L43.9942 28.2406L45.0592 27.4787L46.2237 28.1559L47.2887 27.3094L48.3538 26.666L49.5467 27.6988L50.6685 27.5803L51.691 26.4967L52.8697 27.2078L53.9205 26.4967L55.1276 27.2247L56.2211 26.9369L57.2435 26.0734L58.2802 25.3623L59.4447 25.6163L60.4529 24.7698L61.6174 25.0745L62.7393 25.0068L63.9605 25.684L64.8694 24.0756L66.048 24.4311L67.1699 24.3804L68.3344 24.6682L69.4278 24.3804L70.4503 23.6354L71.6432 24.1095L72.7508 23.974L73.8301 23.5846L74.7957 22.3317L76.017 23.0259L77.1247 22.7719L78.2039 22.3825L79.2406 21.6206L80.4193 22.0608L81.4701 21.4005L82.521 20.7064L83.7139 21.1635L84.7647 20.5371L85.8298 20.0122L87.0937 21.0958L88.1729 20.7064L89.167 19.4366L90.3883 20.3339L91.4249 19.5043L92.5894 19.8429L93.7397 19.9445L94.7763 19.1487L95.9976 19.9614L97.091 19.6059L98.0567 18.1837L99.207 18.3191L100.357 18.5562L101.437 18.0652L102.601 18.353L103.666 17.8451L104.859 18.4207L105.967 18.2683L107.074 18.0652L108.111 17.0662L109.275 17.5064L110.426 17.862L111.42 16.389L112.627 17.3541L113.649 16.0165L114.828 16.626L115.992 17.2186L117.015 15.8642L118.108 15.5933L119.301 16.4059L120.423 16.2705L121.516 15.9657L122.667 16.3552L123.675 14.8314L124.797 14.6621L125.947 15.0346L127.026 14.4758L128.219 15.3562L129.355 15.661L130.477 15.6271L131.556 14.9499L132.693 15.1192L133.729 13.7986L134.865 13.934L136.03 14.6451L137.166 14.9668L138.217 13.8155L139.41 14.8145L140.531 14.5605L141.682 14.7467L142.803 14.4758L143.911 13.934L145.061 14.3235L146.126 12.9182L147.277 13.2737L148.413 13.1214L149.52 12.6304L150.728 14.1203L151.793 12.5627L152.929 12.7658L154.051 12.3256L155.215 13.1552L156.323 12.2748L157.445 12.1732L158.609 12.9182L159.745 12.8505L160.853 12.0039L161.989 12.0378L163.167 13.3076L164.275 12.5119L165.411 12.715L166.561 12.9859L167.669 12.3595L168.805 12.2918L169.927 12.0209L171.092 12.8166L172.185 11.5299L173.349 12.5119L174.457 12.0547L175.579 11.4283L176.743 12.3256L177.837 11.1743L179.001 12.0039L180.109 11.0389L181.274 12.6304L182.41 12.2918L183.503 10.9712L184.668 12.0717L185.789 11.8685L186.911 11.1574L188.062 11.8854L189.183 11.1235L190.334 11.9193L191.456 11.5129L192.592 11.5299L193.713 11.3098L194.864 11.8008L196 11.9531L197.122 11.4452L198.244 10.8526L199.38 10.5648L200.516 11.3775L201.652 10.9373L202.759 10.8357H203.867L204.989 11.4791L206.111 12.0209L207.218 11.1913L208.312 10.4802L209.434 10.2939L210.556 11.0558L211.663 10.514L212.771 10.8526L213.879 10.5648L214.986 10.2262L216.122 10.8865L217.244 11.4114L218.352 11.2421L219.445 10.0738L220.581 11.259L221.689 11.1913L222.811 11.1743L223.919 11.2251L225.04 10.8696L226.148 10.5818L227.256 10.3955L228.363 10.1077L229.5 11.022L230.593 10.04L231.715 10.6156L232.837 10.2262L233.944 10.0908L235.066 11.1913L236.188 10.7341L237.296 9.92145L238.418 10.3955L239.525 9.97224L240.647 10.8357L241.755 10.1754L242.877 11.1405L243.984 11.3098L245.106 10.1077L246.214 10.3109L247.336 9.92145L248.443 10.5479L249.565 10.7003L250.673 11.3436L251.795 10.514L252.917 10.3616L254.01 11.1574L255.146 10.0061L256.268 10.2601L257.39 9.97224L258.469 11.5129L259.62 10.0908L260.713 10.6325L261.821 11.1913L262.943 10.6156L264.064 10.514L265.172 10.6495L266.237 10.8865L267.316 10.4632L268.325 11.6315L269.375 11.5637L270.639 11.259L270.923 13.0875L272.059 13.3923L272.258 14.6959L273.252 15.5086L274.062 16.7107L273.792 18.0821L273.551 19.3858L273.437 20.6725L273.238 21.9592L273.167 23.246L273.096 24.5158L272.997 25.9041L273.522 27.3094L272.926 28.6808L273.266 30.086L273.465 31.4744L272.769 32.8458L273.323 34.251L273.195 35.6393L273.281 37.0277L273.167 38.416L272.301 39.7874L272.855 41.1757L272.94 42.5132L273.224 43.8508L273.479 45.1883L272.642 46.5089L272.244 47.8464L273.181 49.184L273.437 50.5215L272.741 51.8421L272.031 53.1627L272.94 54.5172L272.031 55.8378L273.082 57.1922L271.974 58.4959L273.252 59.8504L272.627 61.1879L272.812 62.5254L272.414 63.846L272.954 65.1836L272.997 66.5211L272.045 67.8417L271.974 69.1623L271.804 70.4999L272.13 71.8374L273.096 73.1918L273.124 74.5294L272.826 75.85L272.457 77.1706L272.656 78.5251L272.017 79.8287L272.741 81.1832L272.798 82.5377L272.216 83.8583L271.605 85.1958L272.485 86.5672L272.869 87.9216L272.173 89.2422L271.591 90.5798L272.429 91.9342L271.747 93.2718L271.676 94.6093L271.491 95.9468L271.364 97.3013L272.713 98.6727L272.031 99.9933L271.633 101.331L272.386 102.702L272.4 104.04L271.747 105.377L271.264 106.715L271.988 108.069L271.193 109.39L272.4 110.778L271.506 112.099L272.4 113.47L271.108 114.774L271.846 116.145L272.329 117.5L271.023 118.803L271.094 120.158L271.278 121.495L271.151 122.85L270.824 124.187L271.79 125.559L271.08 126.879L270.938 128.217L271.704 129.588L270.98 130.909L270.725 132.246L271.179 133.601L270.725 134.938L271.605 136.31L271.747 137.664L270.852 138.985L270.98 140.322L271.236 141.677L270.625 142.998L271.122 144.369L270.597 145.69L271.548 147.078L270.412 148.382L271.335 149.753L270.852 151.09L270.994 152.445L271.065 153.782L271.392 155.154L270.966 156.474L271.051 157.829L270.171 159.133L270.242 160.487L270.114 161.825L270.185 163.162L270.654 164.534L270.341 165.871L269.631 167.175L270.455 168.563L270.668 169.918L270.824 171.272L270.441 172.593L269.574 173.896L270.639 175.302L269.432 176.571L270.071 177.96L270.142 179.314L269.461 180.618L269.631 181.972L269.887 183.327L269.106 184.63L269.475 186.002L269.404 187.339L269.986 188.728L269.219 190.014L269.361 191.369L269.262 192.706L269.319 194.061L269.674 195.432L268.651 196.702L268.552 198.04L268.58 199.394L269.219 200.782L268.807 202.103L268.069 203.39L269.106 204.812L268.822 206.149L268.935 207.504L267.742 208.757L268.282 210.145L268.779 211.533L268.097 212.82L267.586 214.124L267.359 215.461L267.245 216.799L268.112 218.204L267.671 219.525L268.083 220.896L267.813 222.217L267.274 223.52L266.805 224.841L266.905 226.196L267.686 227.601L267.515 228.938L267.118 230.242L267.132 231.596L266.748 232.917L266.961 234.271L267.174 235.643L266.862 236.964L266.138 238.25L267.302 239.689L266.308 240.959L266.947 242.364L266.819 243.685L266.691 245.023L265.797 246.309L265.641 247.63L266.734 249.069L266.18 250.373L265.428 251.659L265.357 252.997L265.413 254.351L266.038 255.757L265.03 257.01L265.655 258.415L264.774 259.685L265.641 261.107L265.527 262.444L264.817 263.731L265.144 265.102L264.746 266.423L264.632 267.761L265.385 269.166L264.845 270.47L264.277 271.773L264.632 273.145L265.215 274.533L264.036 275.803L264.206 277.157L264.618 278.529L264.377 279.866L264.164 281.187L263.837 282.507L264.547 283.913L264.135 285.216L263.411 286.52L263.667 287.891L263.411 289.212L264.192 290.617L263.922 291.938L263.951 293.292L263.17 294.579L264.107 295.984L264.093 297.322L263.553 298.642L263.922 300.014L263.809 301.351L263.042 302.655L262.729 303.976L263.042 305.347L263.312 306.701L263.411 308.056L263.34 309.393L263.582 310.748L262.403 312.035L262.658 313.389L263.269 314.761L262.531 316.081L263.241 317.453L263.013 318.79L262.488 320.128L262.133 321.465L262.218 322.82L263.17 324.191L263.383 325.529L262.09 326.866L262.602 328.22L262.062 329.558L262.999 330.913L263.411 332.267L263.141 333.604L263.34 334.942L262.303 336.313L262.701 337.651L262.445 339.005L262.46 340.343L263.34 341.68L263.539 343.018L262.957 344.372L263.269 345.71L263.397 347.048L262.46 348.436L263.056 349.756L263.695 351.077L262.843 352.465L262.971 353.803L263.709 355.107L263.965 356.444L262.971 357.866L264.064 359.136L264.079 360.474L262.985 361.913L263.298 363.233L263.695 364.554L263.965 365.875L263.567 367.263L263.326 368.634L264.718 369.853L264.547 371.225L264.647 372.562L265.073 373.866L264.547 375.271L263.965 376.693L264.434 377.98L264.689 379.318L265.3 380.587L264.689 382.01L264.945 383.33L264.774 384.719L265.939 385.921L265.328 387.343L265.413 388.697L265.839 389.984L266.294 391.288L266.365 392.625L266.024 394.031L265.925 395.402L266.848 396.621L266.72 398.009L266.422 399.415L266.336 400.769L267.402 401.937L266.691 403.393L266.777 404.731L267.075 406.018L266.976 407.389L268.055 408.557L268.097 409.895L267.373 411.351L267.955 412.604L268.694 413.823L268.623 415.194L268.467 416.548L268.452 417.903L269.319 419.105L268.282 420.612L268.864 421.865L269.915 423.05L269.745 424.421L269.674 425.759L269.177 427.181L269.958 428.417L269.688 429.788L270.696 430.99L270.725 432.328L270.157 433.75L269.801 435.122L270.923 436.324L271.293 437.627L270.142 439.1L270.852 440.353L270.299 441.758L271.562 442.944L270.767 444.366L271.293 445.653L271.96 446.922L271.676 448.294L271.875 449.597L272.116 450.918L272.173 452.256L271.704 453.627V454.964L272.315 456.251L271.917 457.606L272.088 458.926L271.946 460.281L272.741 461.567L271.662 462.956L272.358 464.243L272.954 465.563L272.485 466.901L272.713 468.238L272.812 469.559L272.798 470.896L273.11 472.234L272.145 473.571L271.846 474.909V476.23L272.059 477.567L271.747 478.888L271.818 480.208L272.471 481.563L273.21 482.68L273.124 483.933L273.494 485.22L274.63 485.525L275.61 485.846H276.604L277.541 485.457L278.507 485.305L279.458 484.864L280.48 484.17L280.978 482.934L281.361 481.58L280.253 480.208L281.134 478.871L281.588 477.533L280.992 476.179L280.878 474.841L280.793 473.487L280.779 472.149L280.424 470.812L280.637 469.457L280.339 468.12L281.176 466.748L280.694 465.428L281.063 464.073L280.182 462.753L281.262 461.364L281.318 460.01L279.927 458.74L280.594 457.352L280.523 456.014L280.694 454.66L280.765 453.305L279.955 452.019L279.898 450.681L280.793 449.259L279.486 448.023L279.501 446.668L280.296 445.246L279.657 443.959L279.529 442.622L279.018 441.318L279.245 439.947L279.927 438.525L279.018 437.272L278.478 435.985L279.657 434.495L279.628 433.158L278.634 431.922L278.748 430.55L278.237 429.264L277.839 427.96L277.669 426.639L278.024 425.251L278.606 423.812L278.578 422.457L277.2 421.289L277.91 419.85L277.101 418.597L277.129 417.243L277.797 415.804L276.561 414.618L277.214 413.179L277.527 411.774L276.504 410.572L276.589 409.201L276.675 407.829L275.737 406.61L275.823 405.256L276.717 403.766L276.149 402.496L275.595 401.226L275.723 399.855L275.056 398.585L275.908 397.112L275.027 395.893L275.482 394.471L275.255 393.15L274.246 391.931L275.354 390.424L274.559 389.188L274.474 387.834L275.027 386.412L274.005 385.193L274.147 383.821L274.672 382.399L274.289 381.095L273.252 379.876L274.175 378.403L274.019 377.083L272.769 375.881L272.812 374.526L272.869 373.172L272.755 371.834L273.124 370.429L273.096 369.091L272.429 367.805L272.67 366.433L271.917 365.163L272.329 363.775L272.244 362.438L272.471 361.066L272.812 359.678L271.903 358.408L271.619 357.088L271.605 355.75L271.988 354.362L271.534 353.058L272.187 351.653L271.136 350.383L271.719 348.995L271.619 347.657L271.818 346.303L271.349 344.982L271.619 343.628L271.108 342.307L271.704 340.936L271.378 339.598L271.122 338.26L271.648 336.906L271.264 335.568L271.051 334.231L270.725 332.893L271.775 331.539L271.179 330.201L271.335 328.847L271.633 327.509L271.804 326.172L270.654 324.8L270.952 323.48L271.179 322.142L271.932 320.822L271.719 319.484L270.994 318.113L270.81 316.775L271.378 315.455L271.619 314.117L271.108 312.763L271.349 311.425L271.094 310.088L271.264 308.75L271.861 307.429L272.003 306.109L271.818 304.754L272.287 303.434L272.272 302.096L272.287 300.759L271.747 299.387L272.4 298.084L271.875 296.712L271.946 295.375L271.435 294.003L272.713 292.75L271.633 291.345L272.173 290.025L272.613 288.721L272.585 287.383L271.875 285.995L272.045 284.658L271.875 283.303L272.784 282.033L273.025 280.713L273.195 279.375L272.642 278.004L272.599 276.649L272.713 275.312L272.485 273.957L273.764 272.721L272.855 271.299L273.792 270.029L272.812 268.624L273.948 267.371L273.636 266L272.869 264.595L273.266 263.291L274.275 262.021L274.246 260.684L273.252 259.261L274.601 258.025L274.104 256.654L274.119 255.3L273.806 253.945L273.721 252.591L273.863 251.253V249.916L274.743 248.646L274.928 247.325L274.431 245.937L274.9 244.633L274.403 243.262L274.573 241.924L274.928 240.621L275.681 239.334L275.439 237.979L274.9 236.591L274.715 235.237L275.695 233.967L275.922 232.646L275.666 231.292L275.34 229.92L275.113 228.549L276.476 227.33L276.462 225.975L275.567 224.57L275.766 223.233L276.121 221.929L276.334 220.608L276.717 219.288L275.737 217.866L276.646 216.596L277.115 215.309L276.945 213.938L277.03 212.617L276.632 211.229L276.93 209.925L276.206 208.52L277.612 207.284L276.504 205.862L277.016 204.558L277.385 203.237L277.243 201.9L276.817 200.528L277.427 199.225L277.214 197.87L278.095 196.584L277.427 195.195V193.858L277.782 192.537L277.158 191.166L277.896 189.879L277.271 188.491L277.981 187.204L278.166 185.866L278.265 184.529L277.711 183.157L278.89 181.888L278.918 180.55L277.853 179.145L277.825 177.807L277.754 176.47L278.649 175.166L278.223 173.812L279.046 172.508L279.117 171.17L278.634 169.816L278.081 168.445L278.975 167.158L279.131 165.82L279.117 164.483L278.918 163.128L279.628 161.825L278.663 160.453L278.748 159.133L279.359 157.812L278.478 156.441L279.742 155.171L279.458 153.816L279.827 152.496L279.472 151.158L279.898 149.838L278.805 148.449L279.685 147.163L279.572 145.825L279.941 144.504L279.799 143.167L279.955 141.829L279.501 140.475L279.77 139.154L280.239 137.834L279.643 136.479L279.912 135.159L279.657 133.821L280.253 132.5L279.927 131.163L280.296 129.842L279.628 128.488L279.714 127.15L280.012 125.83L280.282 124.509L280.197 123.172L280.537 121.851L280.552 120.513L280.779 119.176L280.239 117.838L280.679 116.518L279.671 115.146L280.324 113.843L280.694 112.505L280.807 111.185L280.339 109.83L279.628 108.476L279.941 107.155L280.594 105.834L279.941 104.497L279.841 103.159L280.978 101.856L280.907 100.518L280.75 99.1806L280.552 97.8431L280.58 96.5056L280.793 95.185L280.75 93.8474L281.176 92.5268L280.537 91.1724L280.85 89.8518L280.566 88.5142L280.594 87.1767L281.063 85.8561L280.495 84.5016L280.31 83.1641L280.211 81.8266L280.978 80.506L281.077 79.1854L280.722 77.8478L280.793 76.5103L281.546 75.1897L280.48 73.8352L280.892 72.5146L281.276 71.1771L280.438 69.8396L281.262 68.519L281.205 67.1814L281.162 65.8439L280.892 64.5063L281.105 63.1857L281.034 61.8482L280.608 60.5107L281.318 59.1901L281.588 57.8525L281.262 56.515L281.105 55.1775L281.858 53.8569L281.361 52.5193L280.992 51.1818L280.935 49.8443L281.517 48.5237L281.148 47.1861L281.602 45.8486L281.105 44.5111L281.205 43.1227L280.779 41.7344L281.645 40.363L281.688 38.9747L281.83 37.5864L281.773 36.1981L281.46 34.7928L281.404 33.4045L281.546 32.0161L280.992 30.6278L281.105 29.2395L281.801 27.8512L281.049 26.5306L281.872 25.2777L281.915 23.9909L281.972 22.6873L281.276 21.3497L281.744 20.0799L282 18.7763L281.205 17.4895L281.659 16.1689L281.049 14.9499L281.957 13.4938L281.276 12.3087L280.367 11.2928L280.14 10.0738L280.722 8.21144L280.026 7.04321L278.535 6.68767L278.492 4.79142L277.115 4.58825L276.22 3.74171L275.169 3.19992L274.104 2.74279L273.025 2.26873L271.861 2.28566L270.867 1.30367L269.645 1.91318L268.58 1.08357L267.43 1.23595L266.294 1.25288L265.172 0.744955L264.022 0.829609L262.886 0.863471L261.735 0.677232L260.614 0L259.449 1.25288L258.313 0.253962L257.163 1.42219L256.027 1.26981L254.876 1.06664L253.74 0.101585L252.604 0.0677232L251.454 0.998917L250.318 0.135446L249.182 1.5407L248.032 0.62644L246.881 0.711094L245.745 0.863471L244.595 0.609509L243.459 0.981986L242.309 0.541786L241.173 0.372478L240.037 1.50684L238.886 0.0677232L237.75 1.62536L236.6 0.981986L235.464 1.60843L234.314 1.65922L233.178 0.965056L232.041 1.65922L230.905 0.355547L229.784 1.45605L228.662 1.11743L227.54 1.5407L226.418 0.42327L225.296 0.931194L224.174 1.67615L223.052 0.253962L221.93 0.592578L220.794 0.711094L219.687 1.13436L218.551 0.541786L217.429 1.30367L216.321 1.77773L215.185 0.237031L214.063 1.45605L212.941 0.490993L211.82 1.18516L210.698 1.64229L209.576 1.42219L208.44 0.389408H207.318L206.21 1.62536L205.074 0.609509L203.952 1.3206L202.83 0.84654L201.709 1.04971L200.587 1.82853L199.465 1.60843L198.343 1.94704L197.207 1.04971L196.085 1.21902L194.977 1.33753L193.841 0.981986L192.734 1.84546L191.612 1.74387L190.461 0.62644L189.368 1.94704L188.218 0.761886L187.11 1.64229L185.988 1.82853L184.881 2.38724L183.73 1.25288L182.608 1.15129L181.487 1.18516L180.393 2.30259L179.243 1.5915L178.121 1.69308L176.999 1.5407L175.906 2.59041L174.77 2.40417L173.633 1.84546L172.54 2.75972L171.376 1.52377L170.254 1.57456L169.132 1.5915L167.996 1.42219L166.917 2.57348L165.766 2.06556L164.644 2.04863L163.523 2.15021L162.415 2.84437L161.293 3.16606L160.129 2.2518L159.021 2.84437L157.899 2.81051L156.735 2.13328L155.613 2.09942L154.548 3.52161L153.397 3.06447L152.304 3.82636L151.125 2.92903L149.989 2.60734L148.896 3.55547L147.731 2.9121L146.609 2.82744L145.502 3.47081L144.437 4.52052L143.258 3.65705L142.122 3.64012L140.986 3.45388L139.921 4.70676L138.813 4.893L137.677 4.92686L136.555 4.99459L135.376 4.33428L134.283 4.84221L133.161 4.94379L131.997 4.41894L130.889 4.90993L129.71 4.14805L128.588 4.35122L127.481 4.55439L126.387 5.13003L125.336 6.19667L124.158 5.63796L122.979 5.02845L121.857 5.1131L120.821 6.33212L119.628 5.67182L118.563 6.4845L117.427 6.41677H116.291L115.169 6.46757L114.004 6.14588L112.897 6.46757L111.832 7.31411L110.738 7.73738L109.559 7.16173L108.423 7.21252L107.316 7.50034L106.236 8.10985L105.086 7.83896L103.922 7.53421L102.786 7.585L101.792 8.95639L100.57 8.05906L99.42 8.04213L98.3123 8.26223L97.2188 8.65164L96.1254 9.09184L95.0177 9.36273L93.9669 10.1923L92.845 10.3278L91.7373 10.531L90.6155 10.5987L89.4084 9.92145L88.3433 10.4124L87.2925 11.005L86.2274 11.4114L84.9635 10.4294L83.9269 11.1235L82.7624 10.8357L81.7684 11.8177L80.6181 11.7838L79.3968 11.1235L78.3886 11.987L77.2809 12.1225L76.1874 12.4441L75.0088 12.0886L74.0857 13.5616L72.9922 13.7817L71.8136 13.4938L70.7911 14.2388L69.6834 14.4589L68.6184 14.916L67.3829 14.1711L66.3179 14.7637L65.2528 15.2716L64.0599 14.8145L62.9097 14.679L61.9156 15.6949L60.7653 15.5086L59.6861 16.0165L58.5926 16.2874L57.5559 17.0662L56.4199 17.0155L55.2696 16.8292L54.0767 16.2705L52.9833 16.5414L51.975 17.7435L50.8532 17.8789L49.7171 17.7604L48.6236 18.2006L47.4024 16.7954L46.3941 18.5392L45.1728 17.0155L44.1362 18.3699L43.0143 18.4884L41.9066 18.8948L40.7706 18.2853L39.6345 17.7773L38.541 19.0302L37.405 17.9636L36.2831 18.59L35.1754 17.9636L34.0678 17.6419L32.9175 18.8101L31.8383 17.6758L30.7164 17.7943L29.6229 17.2525L28.4727 17.8112L27.3792 17.4387L26.2005 18.1329L25.1355 17.4726L24.0278 17.2356L22.9343 17.0493L21.7841 17.1509L20.8326 15.9319L19.5687 16.7784L18.6599 15.3901L17.396 16.0673L16.3309 15.6271L15.4079 14.5774L14.1582 15.407L12.9512 14.8652L11.7583 15.1869L11.034 16.4398L10.608 17.7096L10.1536 18.8609L9.57136 20.0799L9.95478 21.5529L9.81277 22.8904L9.45775 24.1772L8.19388 25.2438L7.98086 26.5814L7.86726 27.9189L7.99507 29.3241L8.26488 30.7463L7.51224 31.9484L7.93826 33.4214L6.9158 34.5727L7.08621 35.978L7.38443 37.4001L6.30517 38.5514L6.10636 39.872L5.93595 41.2096L6.00695 42.581L6.75959 44.0878L6.37617 45.3745L5.28271 46.5428L6.10636 48.0327L4.79988 49.184L5.1549 50.5892L5.2401 51.9606L5.32531 53.332L4.72887 54.6018L4.79988 55.9732L4.92769 57.3446L4.44486 58.6314V59.9858L3.69221 61.2387L4.45906 62.6948L3.84842 63.9646L4.10404 65.336L3.19519 66.5888L3.05318 67.9264L3.4366 69.3147L2.84017 70.6014L3.4508 72.0236L2.71236 73.2934L3.12418 74.6818L3.4366 76.0701L2.69816 77.3568L2.45674 78.6774L2.28633 80.015L2.81176 81.4033L3.01057 82.7578L2.47094 84.0784L2.31473 85.4159L2.74076 86.7873L2.81176 88.1418L1.6757 89.4116L2.31473 90.7999L2.85437 92.1713L2.11592 93.475L2.48514 94.8463L1.8035 96.15L1.90291 97.5045L1.93131 98.8589L2.03072 100.196L1.93131 101.551L2.01652 102.888L1.27807 104.226L2.03072 105.58L2.17273 106.935L2.07332 108.272L1.63309 109.61L2.20113 110.964L2.31473 112.302L2.05912 113.64L2.24373 114.994L1.24967 116.332L2.54195 117.669L1.51949 119.024L1.95971 120.361L1.33488 121.716V123.07L1.29228 124.408L2.25793 125.728L1.60469 127.1L1.30648 128.454L1.60469 129.792L1.7325 131.129L2.51355 132.45L2.49935 133.787L2.78336 135.125L1.98812 136.496L2.18693 137.834L1.97391 139.188L1.6757 140.543L2.72656 141.846L2.05912 143.218L2.00232 144.572L2.89697 145.876L2.96797 147.213L1.97391 148.619L2.81176 149.905L2.48514 151.277L3.26619 152.563L3.20939 153.918L2.35734 155.323L2.69816 156.644L3.12418 157.964L3.69221 159.268L3.08158 160.656L2.85437 162.028L2.71236 163.399L2.98217 164.72L4.10404 165.973L3.86262 167.344L3.06738 168.766L3.53601 170.07L4.44486 171.323L3.4934 172.762L3.94783 174.082L4.84248 175.335L4.10404 176.758L4.91349 178.027L4.82828 179.399L3.93363 180.838L4.68627 182.108L5.36791 183.378L5.46732 184.732L4.41646 186.188L4.62947 187.509L4.55847 188.88L5.73713 190.099L5.04129 191.521L5.1691 192.859L5.39631 194.179L5.55252 195.517L5.31111 196.888L6.34777 198.141L5.31111 199.597L5.92174 200.884L6.46138 202.171L6.39037 203.525L6.50398 204.863L6.14896 206.251L6.74539 207.538L6.48978 208.926L7.35603 210.179L6.98681 211.567L6.37617 212.989L7.29922 214.242L6.67439 215.648L7.52644 216.917L6.93 218.323L7.78205 219.592L6.859 221.032L7.07201 222.352L7.72525 223.639L8.23648 224.943L7.92406 226.331L8.17968 227.652L8.00927 229.006L8.36429 230.327L8.5205 231.664L8.23648 233.036L7.72525 234.424L7.76785 235.761L8.37849 237.065L8.27908 238.42L8.44949 239.757L8.32168 241.112L8.6767 242.432L9.17373 243.753L8.74771 245.124L8.84711 246.462L8.91812 247.816L8.6057 249.171L8.36429 250.525L8.42109 251.863L9.68496 253.149L8.6199 254.555L9.59976 255.858L8.86131 257.23L9.84117 258.533L8.69091 259.922L9.34414 261.242L9.91218 262.58L8.96072 263.951L9.81277 265.272L9.61396 266.626L9.06013 267.981L9.30154 269.318L8.87552 270.673L8.80451 272.01L9.41515 273.348L9.55716 274.702L10.111 276.057L8.81871 277.377L9.18793 278.732L8.94652 280.069L8.87552 281.424L8.6767 282.761L8.96072 284.116L9.52875 285.47L9.98318 286.825L9.65656 288.162L8.73351 289.483L9.78437 290.871L8.77611 292.175L8.6767 293.512L8.42109 294.85L8.5773 296.204L8.73351 297.559L8.83291 298.913L9.06013 300.268L8.23648 301.571L9.30154 302.977L8.27908 304.263L8.79031 305.635L9.08853 307.006L8.05187 308.293L7.92406 309.63L9.21634 311.053L7.98086 312.322L8.87552 313.728L8.79031 315.065L7.73945 316.352L7.56904 317.69L8.13707 319.078L8.46369 320.432V321.787L7.82466 323.09L8.6199 324.496L8.5773 325.833L7.56904 327.12L7.42703 328.458L7.45543 329.812L7.27082 331.15L8.22228 332.555L6.8448 333.808V335.162L7.02941 336.517L6.9158 337.854L7.83886 339.276L7.56904 340.597L7.55484 341.951L7.73945 343.306L6.8306 344.593L7.28502 345.964L7.14302 347.302L6.17736 348.588L6.97261 349.977L6.24836 351.28L6.03535 352.618L6.43297 353.972L6.33357 355.31L6.859 356.681L7.05781 358.036L6.58918 359.356L6.9016 360.711V362.065L5.75133 363.335L5.56672 364.656L6.34777 366.061L5.56672 367.348L5.90754 368.702L6.13476 370.073L5.72293 371.377L6.31937 372.765L5.0839 374.035L5.32531 375.39L6.20576 376.778L6.09215 378.116L5.56672 379.436L4.77148 380.723L5.70873 382.128L5.97855 383.483L5.25431 384.769L5.42472 386.124L5.25431 387.461L5.65193 388.833L5.59513 390.17L4.79988 391.457L4.47326 392.778L4.33125 394.115L5.28271 395.52L5.33951 396.858L4.89928 398.179L4.30285 399.482L3.89103 400.803L5.1407 402.225L4.71467 403.529L4.26025 404.849L4.20344 406.187L3.89103 407.507L4.84248 408.913L4.33125 410.233L4.70047 411.588L3.5076 412.858L4.40226 414.263L4.20344 415.583L3.4934 416.887L4.03303 418.258L4.08984 419.613L3.32299 420.9L4.06144 422.288L3.74902 423.609L4.04724 424.98L3.19519 426.267L3.93363 427.655L2.88277 428.925L3.29459 430.296L3.76322 431.668L3.83422 433.022L2.78336 434.309L2.91117 435.663L2.28633 436.984L2.71236 438.355L2.58455 439.71L3.15258 441.098L2.28633 442.385L3.22359 443.807L2.61295 445.111L2.32894 446.448L2.78336 447.837L2.00232 449.14L2.05912 450.495L2.96797 451.9L2.39994 453.221L1.7183 454.524L1.7751 455.879L2.31473 457.267L2.44254 458.638L2.22953 459.976L2.49935 461.347L2.17273 462.668L1.30648 463.972L2.38574 465.394L2.13012 466.731L1.02246 468.018L1.07926 469.373L0.951455 470.71L1.03666 472.065L2.08752 473.487L1.56209 474.807L0.979857 476.077L0.568033 477.347L1.49109 478.752L1.29228 480.039L0.624836 481.275L0.610636 482.596L0.553832 483.899L0.86625 485.237L0.752644 486.557L0.411824 487.861L0.355021 489.182L0.710041 490.485L0 491.84L0.624836 493.127L0.923054 494.413L1.29228 495.666L0.766845 497.122L0.979857 498.443L2.11592 499.425L2.81176 500.474L3.18098 501.643L3.64961 502.794L3.22359 504.639L4.89928 504.809L4.81408 506.62L5.36791 507.873L6.73119 508.11L7.66845 508.821L8.09447 510.396L9.38675 510.497L10.5654 510.667L11.3607 511.7L12.3547 512.292L13.4766 512.495L14.3428 513.562L15.3227 514.425L16.4588 514.544L17.5238 515.086L18.6883 515.001L19.8102 515.204L20.9746 514.849L22.0539 515.221L23.2041 514.764L24.3118 514.832L25.4053 515.594L26.5129 515.932L27.6348 515.052L28.7709 516L29.8785 515.509L30.972 514.916L32.1223 515.391L33.2583 515.746L34.3376 515.018L35.4169 514.442L36.6239 515.407L37.6748 514.51L38.8393 514.933L39.9185 514.476L41.0688 514.662L42.1907 514.764L43.2131 513.68L44.3918 514.205L45.5278 514.239L46.5787 513.46L47.6438 512.868L48.7088 512.377L49.8733 512.749L50.9526 512.411L52.117 513.105L53.2247 512.682L54.3892 513.189L55.4258 511.649L56.6187 512.546L57.6838 511.429L58.905 512.868L59.9701 511.649L61.163 512.665L62.2138 511.175L63.4209 512.428L64.557 512.258L65.6646 512.004L66.8007 511.835L67.9226 511.767L69.0018 510.853L70.1805 511.429L71.2881 510.972L72.3674 510.142L73.5035 510.023L74.6679 510.599L75.7898 510.413L76.9685 511.039L78.0903 510.921L79.2406 511.158L80.3625 510.768L81.4559 510.244L82.6062 510.311L83.6713 509.177L84.8073 509.194L85.9576 509.482L87.1079 509.803L88.2155 509.38L89.3232 508.754L90.4593 508.889L91.6521 509.769L92.8024 510.007L93.9101 509.617L95.0177 509.126L96.1822 509.702L97.3041 509.346L98.4117 508.838L99.491 508.026L100.627 508.093L101.763 508.076L102.956 509.041L104.021 507.687L105.171 508.093L106.293 507.924L107.415 507.518L108.608 508.466L109.645 506.959L110.823 507.619L111.988 508.026L113.081 507.433L114.246 507.873L115.325 506.925L116.433 506.485L117.554 506.197H118.691H119.827L120.977 506.485L122.155 507.23L123.235 506.333L124.413 507.162L125.45 505.672L126.657 506.857L127.708 505.621L128.844 505.706L129.966 505.469L131.116 505.994L132.281 506.57L133.374 505.96L134.482 505.452L135.575 504.86L136.768 505.858L137.819 504.555L138.955 504.589L140.063 504.369L141.185 504.267L142.321 504.318L143.457 504.25L144.579 504.148L145.743 504.724L146.879 504.86L148.015 505.012L149.109 504.402L150.202 503.793L151.338 503.911L152.46 503.674L153.582 503.59L154.761 504.402L155.882 504.148L156.948 503.15L158.14 504.064L159.191 502.929L160.37 503.742L161.421 502.455L162.543 502.286L163.679 502.252L164.801 502.184L166.008 503.37L167.13 503.217L168.266 503.454L169.302 501.795L170.481 502.675L171.631 502.929L172.753 502.726L173.861 502.371L175.011 502.777L176.048 501.152L177.226 502.083L178.32 501.423L179.47 501.694L180.592 501.575L181.685 500.915L182.821 501.202L184 501.795L185.037 500.424L186.187 500.796L187.323 500.711L188.488 501.389L189.581 500.745L190.717 500.83L191.867 501.186L192.947 500.39L194.083 500.508L195.233 500.695L196.326 500.085L197.42 499.476L198.599 500.39L199.735 500.288L200.828 499.814L201.964 499.831L203.086 499.645L204.236 499.983L205.358 499.831L206.423 498.527L207.573 498.815L208.681 498.51L209.817 498.595L210.939 498.375L212.061 498.138L213.268 499.34L214.376 498.747L215.483 498.443L216.619 498.375L217.699 497.512L218.892 498.494L219.985 497.732L221.135 498.104L222.257 497.766L223.393 497.969L224.558 498.307L225.637 497.545H226.773L227.852 496.699L228.988 496.682L230.195 497.918L231.303 497.478L232.453 497.596L233.547 496.902L234.626 496.208L235.776 496.31L236.941 496.767L238.091 497.021L239.184 496.563L240.292 495.988L241.471 496.665L242.55 495.819L243.7 495.751L244.851 495.734L246.058 496.58L247.123 495.158L248.344 496.123L249.466 495.615L250.673 496.022L251.837 496.005L252.917 495.158L254.124 495.412L255.089 494.108L256.183 493.702L257.248 493.127L258.668 494.21L259.676 493.482L260.67 492.754L261.522 491.687L262.701 491.586H263.908L264.902 490.909L265.626 489.503L267.146 490.35L268.183 489.876L269.248 489.453L269.929 487.776L270.966 487.201L272.358 488.098L273.167 486.354L274.332 486.303L275.524 486.591L276.632 486.134L277.896 487.031L279.032 486.405L279.586 485.034L279.983 483.815L280.452 482.68L280.182 481.41L280.75 480.09L280.125 478.972L280.097 477.313L278.734 477.144L277.64 477.262L276.66 476.771Z" fill="black"/>
</svg>
