<?xml version="1.0" encoding="UTF-8"?>
<svg id="Layer_2" data-name="Layer 2" xmlns="http://www.w3.org/2000/svg" viewBox="0 0 722.43 99.88">
  <g id="Layer_1-2" data-name="Layer 1">
    <g>
      <path d="m464.82,32.27c10.11-3.24,16.66-7.42,19.91-16.13,2.74-7.36,12.24-7.55,17.73-.35.61.8-.12,3.03-.8,4.31-4.25,8.1-10.37,14.45-18.55,18.74-2.43,1.27-3.79,2.74-2.75,5.91,3.32,10.15,6.3,20.42,9.48,30.62,2.84,9.09,2.88,9.09-6.54,9.2-3.65.05-7.3.06-10.94.09-5,.05-7.5-2-7.43-7,.05-4.24.74-8.51,1.43-12.71.93-5.68,2.31-11.32-.31-17.57-6.04,2.79-6.64,8.34-7.73,13.46-1.17,5.48-1.74,11.11-3.15,16.52-.46,1.75-2.69,4.18-4.18,4.24-1.7.06-4.24-1.81-5.1-3.5-3.67-7.26-4.04-15.43-1.16-22.55,4.08-10.1,3.91-20.29,3.9-30.65,0-9.75-.03-9.75,9.5-10.02,1.16-.03,2.38-.28,3.47-.02,2.41.59,4.76,1.44,7.13,2.19-.82,1.9-1.91,3.73-2.4,5.71-.69,2.79-.93,5.68-1.51,9.52Zm-16.76,41.88c.73.06,1.45.12,2.18.18.48-2.71.75-5.47,1.49-8.11,2.02-7.14.88-15.28,7.15-21.11,4.68-4.36,10.16-3.43,12.48,2.44,2.41,6.1,1.87,12.2.5,18.42-.93,4.23-1.44,8.55-2.25,13.53h16.74c-3.61-11.42-6.86-22.26-10.47-32.98-2.53-7.51-2.11-9.36,5.44-13.33,7.04-3.69,11.57-9.39,15.01-16.52-3.8-2.07-6.04-.17-6.85,2.62-2.94,10.14-11.25,14.23-19.93,17.71-1.7.68-5.48-.31-6.35-1.72-1.8-2.93-2.48-6.61-3.24-10.06-.35-1.6.17-3.4.33-5.66-2.62.31-4.49.53-6.43.76,0,3.01-.02,5.47,0,7.94.1,8.88-.05,17.6-2.87,26.31-2.01,6.19-2.03,13.02-2.94,19.56Z" style="stroke-width: 0px;"/>
      <path d="m722.4,64.75c.58,11.09-7.41,21.81-17.81,23.9-9.85,1.98-22.64-5.09-25.56-14.52-.9-2.9-1.25-6.26-.75-9.23,2.53-14.88,6.69-29.26,16.03-41.52,1.92-2.52,4.8-4.6,7.65-6.09,5.89-3.07,13.11,1.87,13.04,8.59,0,.33-.07.66-.1.98-.86,10.44-.91,10.13-11.31,11.79-2.77.44-5.56,2.96-7.62,5.18-5.12,5.55-5.6,12.59-4.43,19.53.47,2.79,2.35,6.61,4.58,7.49,2.16.85,5.82-1.06,8.4-2.5,2.6-1.45,2.23-3.43-.68-4.58-.31-.12-.64-.18-.95-.29-3.35-1.15-7.87-1.67-7.17-6.48.71-4.88,7.13-8.37,11.85-7.24.8.19,1.57.55,2.37.71q11.84,2.39,12.46,14.27Zm-36.94-1.39c-.38.02-.75.03-1.13.05-.2,2.23-.69,4.48-.55,6.69.64,10.21,13.16,17.48,21.49,12.69,8.23-4.74,13.31-11.02,11.98-21.15-.36-2.73-.04-5.76-3.72-5.8-3.8-.04-8.69-4.49-11.44,2.35,2.27,1.01,4.45,1.81,6.45,2.91,3.8,2.08,4.55,5.56,2.15,9.13-5.13,7.62-16,7.92-21.31.46-1.6-2.24-2.63-4.87-3.92-7.33Zm9.34-28.99c4-.31,7.26-.32,10.42-.91,1.4-.26,3.7-1.75,3.66-2.58-.15-3.04-1.09-6.06-1.89-9.04-.03-.13-1.88-.07-2.63.35-4.82,2.65-7.74,6.79-9.55,12.18Z" style="stroke-width: 0px;"/>
      <path d="m550.79,50.63c.44-9.55,1.06-19.1,1.27-28.66.14-6.56,4.78-9.35,9.67-11.2,4.54-1.72,9.61-2.16,14.5-2.84,9.99-1.39,16.95,7.79,18.6,15.84.43,2.11-2.29,6.02-4.58,7.28-5.6,3.1-11.69,5.46-17.79,7.5-5.8,1.94-7.57,5.53-6.53,11.67.98,5.77.77,11.77.74,17.67-.02,4.05-.19,8.2-1.17,12.09-.56,2.21-2.59,5.18-4.49,5.65-3.03.74-6.53-.19-9.76-.8-.41-.08-.53-2.47-.53-3.79.01-4.06.2-8.12.23-12.18.04-6.07.01-12.15.01-18.22-.06,0-.11-.01-.17-.02Zm5.24,30.17c.69.24,1.38.48,2.07.72.8-1.68,2.23-3.34,2.29-5.05.31-9.52.74-19.06.25-28.56-.42-8.15,1.85-11.62,9.55-14.08,5.92-1.89,11.5-4.87,17.12-7.6,2.79-1.36,2.63-3.79,1.55-6.39-2.61-6.32-11.07-8.86-18.57-5.11,1.28.45,2.36.79,3.4,1.22,4.41,1.84,5.04,3.66,2.32,7.41-1.14,1.57-2.59,3.02-4.15,4.19-6.61,4.95-11.53,3.18-13.35-4.5-4.19,19.11-1.26,38.52-2.46,57.75Zm16-60.4c-5.45-1.34-7.59-.02-8.28,3.38.37.53.74,1.07,1.11,1.6,2.03-1.41,4.05-2.81,7.17-4.98Z" style="stroke-width: 0px;"/>
      <path d="m173,53.89c-.96,3.85-1.86,7.01-2.53,10.23-.98,4.7.2,6.06,4.99,6.02.5,0,1-.01,1.5-.05,16.33-1.16,13.68.43,12.2,14.79-.13,1.25-2.16,3.16-3.44,3.27-3.92.34-7.9.04-11.85-.17-2.95-.16-5.89-.75-8.84-.81-4.87-.09-8.81-3.6-8.56-8.3.74-13.91,1.71-27.82,2.42-41.73.24-4.61.11-9.24-.09-13.85-.15-3.41,1.07-5.45,4.63-5.68,5.46-.36,10.92-.94,16.38-.87,4.69.06,8.36,4.57,7.64,9.12-.2,1.22-1.76,2.69-3.03,3.16-1.63.6-3.6.45-5.41.38-2.79-.11-5.48-.32-5.92,3.48-.41,3.59-.06,6.58,4.47,7.17,2.46.33,4.87,1.02,7.32,1.44,6.58,1.13,9.56,5.66,7.22,11.72-.46,1.19-2.66,2.18-4.17,2.38-2.43.32-4.98.06-7.44-.23-2.44-.29-4.83-.93-7.46-1.46Zm12.04,20.25c-4.48,0-8.24.08-11.99-.02-6.2-.16-9.32-4.21-8.05-10.2.72-3.37,1.58-6.75,1.88-10.17.37-4.26,2.16-5.41,6.26-4.21,3.33.97,6.82,1.57,10.28,1.84,1.16.09,2.44-1.35,3.66-2.08-.96-1.26-1.66-3.2-2.91-3.64-4.02-1.43-8.42-1.89-12.3-3.58-1.78-.77-3.68-3.45-3.82-5.39-.77-10.77-.47-10.91,10.44-11.69.96-.07,1.92-.17,2.88-.26l.9-1.14c-1.12-1.08-2.14-2.92-3.4-3.09-2.73-.38-5.58.13-8.38.21-5.46.16-6.55,2.97-6.37,8.11.3,8.54-.42,17.12-.87,25.67-.42,8.04-1.17,16.07-1.49,24.12-.05,1.31,1.21,3.7,2.15,3.85,6.48,1.02,13.03,1.59,19.81,2.32.44-3.58.78-6.33,1.32-10.64Z" style="stroke-width: 0px;"/>
      <path d="m610.83,12.19c11.23.53,22.35-1.63,32.7,4.58,5.31,3.18,6.39,7.31,6.55,12.73.14,4.8-1.29,8.01-5.69,10.49-7.32,4.13-14.28,8.65-22.59,11.01-2.17.62-4.14,5.93-4.18,9.1-.09,7.84,1.16,15.68,1.54,23.54.13,2.62.03,6.99-1.32,7.6-3.23,1.46-7.43,1.94-10.9,1.22-1.61-.33-3.41-4.37-3.45-6.75-.14-8.86,0-17.77.81-26.59,1.11-11.94,2.9-23.81,4.49-35.7.48-3.58,1.28-7.12,2.03-11.25Zm-1.17,75.43c4.73.24,5.09-.54,4.58-4.72-1.04-8.47-2.28-17.02-2.01-25.49.13-3.9,3.01-10.46,5.7-11.04,8.79-1.91,15.72-6.7,23.16-10.92,3.89-2.21,4.34-5.63,3.38-8.87-.78-2.63-2.83-5.65-5.17-6.93-7.36-4.01-15.4-2.08-22.87-1.94-7.01,23.26-6.87,46.59-6.75,69.92Z" style="stroke-width: 0px;"/>
      <path d="m337.28,43.38c3.38-.38,6.8-.79,10.22-1.16,3.61-.38,5.1,1.74,5.57,4.87.19,1.3.16,2.63.19,3.95.17,6.07-.8,7.01-7.1,7.05-2.99.02-6,.37-8.97.13-2.59-.21-4.34.02-4.19,3.12.13,2.77,1.03,4.89,4.34,4.86,3.15-.03,6.3-.2,9.44-.11,3.92.11,6.44,1.56,5.4,6.15-.4,1.76-.1,3.75-.79,5.36-.53,1.23-2.09,2.85-3.21,2.86-7.28.11-14.58.09-21.85-.39-6.01-.4-7.65-2.24-7.18-8.2.65-8.33,1.91-16.62,2.82-24.93.41-3.76.38-7.59.98-11.32.76-4.67,1.8-9.32,3.1-13.87.27-.96,2.19-2.07,3.35-2.07,5.48.02,10.98.14,16.42.72,6.3.66,9.43,6.05,7.08,11.99-.41,1.04-2.08,2.03-3.3,2.22-1.93.31-3.97,0-5.95-.17-7.11-.63-8.73,1.56-6.36,8.94Zm8.71,26.85c-2.94,0-5.27.18-7.57-.05-2.26-.23-4.62-.52-6.68-1.4-3.27-1.4-4.9-6.93-3.73-11.3.98-3.66,3.96-3.48,6.8-3.52,2.66-.04,5.34.17,7.96-.11,1.79-.19,3.96-.61,5.08-1.77.69-.71.27-3.62-.65-4.43-.99-.87-3.15-.36-4.78-.58-3.62-.49-9.32.07-10.36-1.85-1.66-3.06-1.21-8.2.28-11.64.88-2.03,5.4-2.84,8.44-3.48,2.06-.43,4.39.38,7.68.77-.75-2.72-.97-5.85-1.76-6-4.66-.88-9.66-2.02-14.1-1.04-1.94.43-3.6,5.54-4.04,8.72-1.75,12.52-3.05,25.11-4.31,37.7-.23,2.25-.83,5.59,2.89,5.75,6.22.28,12.46.08,18.83.08v-5.84Z" style="stroke-width: 0px;"/>
      <path d="m377.64,33.78c.48,3.03.83,5.28,1.29,8.19,3.69,0,7.29-.09,10.89.02,4.12.12,7.38,1.15,5.97,6.45-.16.6.13,1.3.17,1.96.35,5.69-.12,6.09-6.04,6.06-3.48-.02-6.98-.03-10.41.45-1.09.15-2.71,1.83-2.8,2.91-.5,6.06-.79,12.15-.77,18.23.01,2.9-1.02,4.41-3.77,4.76-7.91.99-12.91.26-11.91-9.15.79-7.5,1.44-15.01,1.86-22.54.4-7.23.46-14.49.6-21.73.11-5.84,4.19-11.8,9.95-12.32,8.84-.8,17.78-.56,26.67-.66.91,0,2.57.65,2.61,1.12.34,3.66.76,7.39.3,10.99-.16,1.28-2.58,3.03-4.15,3.25-5.19.73-10.46.83-15.7,1.24-1.43.11-2.84.45-4.76.77Zm12.91,18.53q.49-5.9-7.17-6.11-9.76-.28-10.48-10.23c-.4-5.5.52-6.47,6.3-6.78,4.81-.26,9.61-.52,14.42-.85,2.93-.2,4.33-2.14,3.68-4.71-.37-1.48-2.2-3.69-3.39-3.7-6.08-.06-12.3-.2-18.2,1.01-5.63,1.15-7.49,5.14-7.59,11.13-.12,7.08-.4,14.17-.87,21.24-.48,7.22-1.43,14.42-1.8,21.64-.06,1.19,1.77,2.47,2.73,3.71.81-1.14,2.23-2.22,2.34-3.42.56-5.9,1.09-11.83,1.01-17.74-.05-4.36,1.88-5.39,5.73-5.23,4.44.19,8.9.04,13.29.04Z" style="stroke-width: 0px;"/>
      <path d="m133.77,76.12c1.2-.14,1.85-.16,2.47-.3q11.51-2.5,12.49,9.12c.8,9.61.8,9.59-8.87,9.35-3.49-.09-6.98.04-10.46-.03-3.49-.07-6.17-1.18-6.42-5.27-.72-12.15-1.61-24.3-2.19-36.46-.42-8.88-.62-17.78-.48-26.67.03-1.75,1.67-4.19,3.26-5.05,3.31-1.8,7.09-2.75,10.66-4.06,4.79-1.75,7.12.09,6.14,5.14-.62,3.23-2.07,6.31-2.6,9.54-1.04,6.34-1.79,12.73-2.47,19.11-.73,6.87-1.28,13.75-1.81,20.64-.12,1.56.17,3.16.28,4.95Zm.15-54.01c-8.39,3.11-8.46,3.11-8.4,10.79.07,8.72.25,17.43.43,26.15.15,7.23-.04,14.51.67,21.69.95,9.62,1.42,9.72,10.99,9.46,6.19-.16,6.86-1.21,5.61-7.07-.69-3.21-2.47-3.35-5.04-2.86-7.39,1.39-10.61-1.25-10.06-9.03.68-9.5,1.12-19.03,2.17-28.49.75-6.79,2.34-13.48,3.63-20.64Z" style="stroke-width: 0px;"/>
      <path d="m258.59,32.9c-2.5-.15-4.25.23-5.39-.42-1.93-1.11-4.78-2.72-4.99-4.4-1.23-9.87.31-13.76,10.76-14.45,5.26-.35,10.49-1.26,15.74-1.38,1.8-.04,4.43,1.07,5.3,2.48,1.68,2.75,2.77,6.02,3.29,9.21.18,1.08-2,3.58-3.26,3.68-5.4.47-6.3,3.96-6.43,8.18-.42,13.49-.83,26.99-1.15,40.49-.15,6.46-2.54,9.97-8.47,11.91-4.6,1.51-7.81-.23-7.89-5.05-.16-9.54.01-19.1.45-28.64.32-7.01,1.29-13.98,2.03-21.62Zm-5.28-4.85q10.56-.13,10.29,10.28c-.02.82-.09,1.65-.14,2.47-.79,13.14-1.6,26.27-2.34,39.41-.06,1.01.44,2.04.68,3.06.58.17,1.16.34,1.74.52,1.14-2.39,2.66-4.69,3.32-7.2.56-2.15.06-4.56.15-6.84.55-14.1,1.23-28.2,1.66-42.3.1-3.25,1.97-2.96,4.19-3.41,1.66-.33,4.27-1.8,4.35-2.92.23-2.96-2.11-4.11-5.02-3.89-3.63.28-7.27.53-10.9.81-7.44.57-8.5,1.86-7.98,10.02Z" style="stroke-width: 0px;"/>
      <path d="m16.77,65.95c.37,3.42.77,6.84,1.1,10.27.42,4.36,3.3,5.75,7.18,5.91,6.89.29,7.65,1.1,6.58,7.82-1.5,9.38-3.44,10.63-13.23,8.51C6.99,96,.5,87.98.03,76.25c-.22-5.48.64-11.07,1.64-16.5,1.04-5.64,2.19-11.42,4.44-16.66,4.82-11.2,15.34-18.84,27.79-19.37,4.75-.2,6.53,1.64,6.68,6.4,0,.16,0,.33,0,.5.2,3.07,1.63,7,.24,8.94-1.25,1.75-5.63,1.14-8.55,1.9-1.71.45-3.77,1.13-4.79,2.4-5.22,6.49-13.46,11.69-10.72,22.09Zm9.44,20.63c-9.53-1.44-12.94-3.74-13.98-11.68-.88-6.65-.24-13.49-.2-20.25,0-.59.38-1.29.8-1.75,6.39-7.02,10.62-16.98,22.68-15.89,0-1.55.04-2.51,0-3.47-.32-5.88-1.01-6.75-6.5-4.27-4.96,2.24-9.57,5.61-13.71,9.19-6.06,5.26-5.59,13.48-8.08,20.36-2.77,7.67-2.68,15.42-.58,23.35,1.42,5.37,3.93,8.92,9.36,11.1,8.07,3.24,10.03,2.32,10.23-6.7Z" style="stroke-width: 0px;"/>
      <path d="m204.56,64.03c.79-9.95.86-20.03,2.57-29.83,2.06-11.77,10.94-17.78,21.75-16.26,4.55.64,9.58,9.45,7.55,13.46-.46.91-1.59,1.83-2.58,2.08-8.12,2.03-11.69,7.51-12.16,15.42-.37,6.24-.55,12.49-1.07,18.72-.26,3.19,1.06,4.24,4,3.97.5-.05,1-.07,1.5-.07,3.34-.06,7.65-2.61,8.97,2.95,1.74,7.36-.02,11.89-6.43,13.27-11.25,2.42-20,1.37-21.84-9.31-.81-4.69-.78-9.52-1.14-14.29-.37-.04-.75-.08-1.12-.12Zm24.92,12.26c-3.04-.29-6.15-.55-9.25-.91-3.08-.36-4.83-1.98-4.66-5.25.42-8.22.88-16.44,1.23-24.66.33-7.72,4.72-12.4,11.5-15.19,2.68-1.1,2.79-2.7,2.15-5.11-.72-2.71-2.22-3.25-4.8-2.78-7.48,1.36-13.52,6.94-13.94,15.29-.62,12.42.08,24.9.03,37.36-.05,10.68,5.79,10.12,13.29,8.93,3.96-.63,6.14-3.07,4.45-7.67Z" style="stroke-width: 0px;"/>
      <path d="m97.4,73.36c15.64-.1,11.82.43,13.97,12.83.24,1.36-1.64,4.32-2.85,4.5-6.34.93-12.8,1.66-19.17,1.42-1.88-.07-4.92-3.39-5.2-5.51-1.19-9.1-1.59-18.31-2.2-27.48-.64-9.66-.96-19.35-1.85-28.99-.72-7.84,5.67-12.99,13.11-9.84,1.41.6,2.98,2.8,3.03,4.3.4,13.69.46,27.4.67,41.09.04,2.58.32,5.15.48,7.69Zm8.69,12.93c-.14-1.34-.46-2.5-.33-3.6.47-4.1-1.3-5.43-5.2-4.51-.8.19-1.65.1-2.48.15-5.03.29-6.11-.79-6.2-5.79-.25-14.66-.54-29.32-.89-43.97-.05-1.91.9-4.87-2.86-4.31-3.32.49-3.56,2.67-2.96,5.55.96,4.66,2.08,9.37,2.22,14.09.31,10.2-.11,20.43.04,30.64.21,14.67,4.05,17.12,18.66,11.76Z" style="stroke-width: 0px;"/>
      <path d="m543.13,45.73c-1.05,3.08-1.86,6.27-3.18,9.23-3.03,6.76-6.11,13.51-9.52,20.08-5.68,10.93-10.68,10.67-18.14,5.99-1.82-1.14-3.71-2.15-5.48-3.35-7.82-5.25-6.81-12.39-4.15-19.8,3.27-9.13,6.3-18.37,10.03-27.31,2.04-4.88,4.9-9.68,10.52-11.57,1.13-.38,2.96-.6,3.67.02,8.2,7.06,15.98,14.45,16.26,26.7Zm-5.6-3.74c-.67-1.98-1.68-5.21-2.85-8.39-1.74-4.75-5.96-7.49-10.25-6.96-2.6.32-5.6,4.4-6.82,7.43-3.93,9.74-7.22,19.74-10.54,29.71-2.26,6.81-1.37,8.72,4.92,12.28,1.44.81,2.98,2.02,4.47,2.02,2.03,0,5.24-.39,5.9-1.67,5.17-9.87,9.88-19.98,14.65-30.05.4-.85.25-1.95.52-4.37Z" style="stroke-width: 0px;"/>
      <path d="m672.61,46.72c-2.07,3.22-3.9,5.1-4.6,7.33-3.71,11.84-5.64,23.95-5.17,36.43.35,9.2.17,9.23-5.79,9.39-7.4.2-12.49-3.83-12.45-10.32.03-4.41.65-8.82,1.15-13.21,1.04-9.13,2.3-18.24,3.2-27.39.3-3.06,1.99-3.79,4.52-4.11,4.45-.56,8.91-1.75,13.34-1.63,2.14.06,4.21,2.48,5.8,3.5Zm-18.14,9.45c-.1.67-.43,2.45-.65,4.23-1.23,10.13-2.4,20.27-3.66,30.4-.47,3.78,2.6,3.88,4.8,4.17.73.1,2.69-2.43,2.59-3.63-1.11-12.71.9-25.02,4.46-37.14,1.01-3.45.18-4.64-3.68-4.72-4.74-.1-4,2.76-3.85,6.69Z" style="stroke-width: 0px;"/>
      <path d="m74.51,49.96c-1.85,9.01-3.13,17.64-5.49,25.96-2.11,7.44-9.84,13.03-15.9,12.82-7.24-.24-12.04-5.53-12.24-12.69-.43-14.81,3.97-27.43,15.62-37.23,5.33-4.48,10.35-4.11,13.96,1.88,1.73,2.87,2.73,6.16,4.06,9.25Zm-28.55,22.98c.16,2.2.07,4.56.57,6.78.81,3.61,4.49,5.85,7.52,4.21,3.12-1.69,6.79-3.76,8.33-6.65,4.96-9.31,5.44-19.8,5.83-30.11.06-1.61-1.88-4.39-3.31-4.7-1.94-.42-4.84.42-6.36,1.79-8.4,7.61-12.17,17.38-12.58,28.68Z" style="stroke-width: 0px;"/>
      <path d="m286.32,76.1c.94-9.79,1.91-19.58,2.81-29.38.33-3.6,2.18-5.94,5.73-6.44,4.15-.59,8.79-2.28,11.86,2.13.93,1.34,1.23,3.9.61,5.4-4.37,10.51-5.76,21.54-6.47,32.73-.5,7.86-1.48,9.11-6.8,8.8-5.71-.33-7.98-3.44-7.48-10.26.07-.98.21-1.96.32-2.93-.2-.02-.39-.04-.59-.06Zm16.07-32.57c-4.45.25-7.76,1.32-8.17,5.51-1.05,10.75-1.78,21.53-2.42,32.32-.07,1.21,1.24,2.51,1.92,3.76.62-1.18,1.62-2.31,1.79-3.55.91-6.49,1.32-13.06,2.45-19.51,1.04-5.94,2.78-11.77,4.42-18.53Z" style="stroke-width: 0px;"/>
      <path d="m676.02,8.66c-.08,7.4-1.87,10.65-6.44,11.12-3.98.41-7.76-.3-9.89-4.11-1.78-3.19.57-9.81,4.15-12.33,1.35-.95,2.84-1.71,4.34-2.43,4.66-2.23,7.81-.3,7.84,4.78,0,.99,0,1.98,0,2.97Zm-12.08,6.27c6.56-1.08,7.45-3.11,4.52-9.33-1.62,3.34-2.79,5.75-4.52,9.33Z" style="stroke-width: 0px;"/>
      <path d="m297.85,20.34c.05-5.35,5.03-11.15,9.42-10.99,4.3.16,8.94,5.37,8.92,10.03-.02,5.94-4.22,10.71-9.34,10.64-5.22-.08-9.05-4.2-9-9.68Zm10.05-6.65c-4.99,4.11-6.15,7.43-3.46,10.43.75.84,3.16,1.37,3.93.82,3.08-2.19,2.76-8.34-.46-11.25Z" style="stroke-width: 0px;"/>
      <path d="m622.41,41.33c-5.63-.13-8.25-2.89-7.64-6.74.6-3.71,1.52-7.37,2.36-11.04.14-.62.44-1.28.87-1.74,2.51-2.76,11.55-.73,15.27,3.39,3.13,3.46,2.7,5.82-1.81,9.32-3.31,2.57-6.7,5.05-9.05,6.81Zm-1.27-5.34c3.32-3.02,5.85-5.33,8.45-7.7-5.89-4.69-8.13-1.55-8.45,7.7Z" style="stroke-width: 0px;"/>
      <path d="m530.38,42.35c-.93,6.97-1.34,13.34-2.73,19.49-1.27,5.62-5.21,8.02-10.05,7.39-5.11-.67-8.27-4.64-6.43-9.44,2.68-6.97,6.05-13.71,9.64-20.27.89-1.62,4.35-3.43,5.64-2.87,1.79.77,2.66,3.68,3.93,5.7Zm-7.37,3.16c-3,6.27-7.15,11.43-6.59,18.52,6.37-1.01,9.49-9.69,6.59-18.52Z" style="stroke-width: 0px;"/>
      <path d="m63.22,62.63c-1.23,4.14-2.02,8.49-3.91,12.3-.76,1.53-4.09,2.72-6.01,2.44-1.32-.19-3.37-3.34-3.14-4.87.92-6.08,2.32-12.13,4.21-17.98.48-1.49,3.43-2.2,5.25-3.27.82,1.56,2.03,3.05,2.36,4.7.41,2.05.1,4.24.1,6.37.38.1.77.2,1.15.3Z" style="stroke-width: 0px;"/>
    </g>
  </g>
</svg>