<svg width="45" height="57" viewBox="0 0 45 57" fill="none" xmlns="http://www.w3.org/2000/svg">
<g clip-path="url(#clip0_122_44)">
<path d="M10.5634 5.28292C11.2312 5.23698 11.7963 5.1117 12.3496 4.70661L9.4766 4.31406L9.76904 4.6565C10.4211 5.41655 11.824 5.65877 12.642 5.04906C13.2664 4.5855 11.5671 5.53349 12.0335 5.18269C12.2706 5.00312 11.4762 5.21192 12.3061 5.22028C13.136 5.22863 13.6498 5.12423 14.4085 4.72332L12.5828 4.97388C12.8594 5.03653 13.2664 5.15763 13.5075 5.1284C14.1477 5.05323 12.2903 4.53122 12.8989 4.97806C13.6103 5.4959 14.5706 5.37062 15.2938 4.97806C15.7877 4.70661 14.8116 5.13675 15.3175 4.97806L13.4917 4.72749C13.9264 4.99477 14.4402 5.22445 14.9381 5.31633C15.602 5.43744 16.1632 5.41238 16.7639 5.06576C18.4711 4.08019 16.1632 5.17434 16.7876 4.98224L14.4797 4.33911L14.7721 4.65232C15.3293 5.24951 16.3054 5.59195 17.08 5.29545C17.2065 5.24533 17.5898 5.17434 17.6688 5.06158L17.8151 5.03653C17.3962 5.17434 16.9852 5.11587 16.5742 4.86113C16.914 4.83607 17.5147 5.29127 17.9178 5.29545C18.475 5.3038 18.9176 5.0407 19.4077 4.81937L17.5819 5.06994C18.4869 5.34974 19.1824 5.2161 19.9965 4.73167L17.1235 4.33911L17.4159 4.66903C18.2972 5.66712 19.874 5.58778 20.7711 4.66903L21.0674 4.36417H17.7123C18.4908 5.20775 19.2219 5.45832 20.3126 5.32468C21.601 5.17016 18.8781 5.31633 20.2494 5.34138C22.9485 5.39567 19.0204 5.40403 21.1544 5.42073C21.7867 5.42491 22.4229 5.13675 22.9406 4.78178L21.1149 5.03235C21.4626 5.12005 21.8578 5.09917 22.1858 5.17851C21.8499 5.09917 21.7788 5.1994 22.1424 5.24533C23.3121 5.39567 23.9444 5.18687 24.8929 4.40593L23.2173 5.14093C23.8772 5.2328 21.9645 4.67738 22.6087 4.97806C23.6717 5.47502 24.5886 5.36644 25.4817 4.5855L25.7781 4.32658H22.4229L22.7154 4.69826C23.5334 5.72976 25.2327 5.6003 26.0705 4.69826L26.3669 4.38087L24.6913 5.11587C25.2801 5.06158 22.8023 4.53539 24.6478 5.14928C24.802 5.1994 25.9362 5.29545 25.0905 5.21192C26.2642 5.32886 26.8807 5.15763 27.841 4.37252L24.9679 4.76508L25.2604 4.99059C25.9401 5.51678 26.9636 5.38732 27.6552 4.99059L27.9516 4.82354H25.5568C26.7898 5.40403 27.9358 5.68383 29.1253 4.81102L26.2523 4.41846L26.5447 4.71079C27.26 5.42491 28.5483 5.74229 29.4178 5.10334C29.892 4.75673 28.9554 5.22028 29.4415 5.01565L27.1336 4.37252L27.426 4.66903C28.0188 5.26621 28.9277 5.59613 29.7339 5.31215C29.9473 5.23698 30.7061 5.05741 30.7416 4.88201C30.6112 5.50843 27.6315 4.57298 29.7221 5.27039C30.6428 5.57525 31.5597 5.53766 32.358 4.90289L29.4849 4.51033L29.7774 4.75673C31.0854 5.85087 32.4963 5.62954 33.5 4.25141L33.7964 3.84633L30.0738 4.35164L30.3662 4.69826C30.872 5.29545 31.947 5.65877 32.6741 5.34138L32.9705 5.21192L31.1447 4.96136C31.9114 5.42073 32.5635 5.50843 33.4131 5.32468C32.6543 5.48755 33.7134 5.27457 33.8557 5.22028C34.164 5.10334 34.4406 4.953 34.7172 4.77343H32.3224C33.2392 5.21192 33.7214 5.24951 34.737 5.21192C35.0531 5.1994 34.4722 5.35391 34.6935 5.20357C34.8279 5.1117 35.1361 5.19104 35.2823 5.21192L33.6067 4.47693C34.5473 5.4082 35.1519 5.45414 36.3533 5.37062C35.555 5.42491 36.5825 5.44161 36.7959 5.34556C37.3294 5.1117 37.7127 4.82354 38.1356 4.42264L36.46 5.15763C36.9975 5.16599 35.3258 4.64815 35.8514 5.02817C36.2861 5.34138 36.8631 5.38315 37.365 5.32468C37.9024 5.26204 38.3727 5.05323 38.8351 4.7609L37.0093 5.01147C37.3057 5.06158 36.9896 4.96971 36.8829 4.89454C37.195 5.11587 37.5428 5.22863 37.9103 5.27874C38.5782 5.37479 39.1473 5.14928 39.7163 4.79849L36.8433 4.40593L37.1358 4.75673C37.6851 5.41655 38.6651 5.62536 39.4437 5.39985C39.7401 5.31215 40.0206 5.21192 40.3249 5.16181L38.4992 4.91124L38.7916 5.14928C39.416 5.65459 40.5502 5.58778 41.1864 5.14928C41.6607 4.81937 40.7241 5.27039 41.2102 5.08664L38.9023 4.44352L39.1947 4.77343C39.9258 5.59613 41.1627 5.69218 42.0677 5.16599L42.3641 4.99477L40.5383 5.24533C41.7713 5.688 42.787 5.39985 43.7275 4.46022L40.8545 4.85278L41.1272 5.00729L40.0364 3.50806C40.2261 4.15954 40.5265 4.65232 40.9493 5.15763L40.3407 2.71877C40.2419 3.04034 40.1511 3.38278 40.1511 3.72522C40.159 5.67547 40.487 3.38696 40.2894 3.60411C39.9258 4.00085 40.2064 5.26204 40.3131 5.68383L41.4038 2.85241L41.0758 3.06957C40.2459 3.62082 39.6215 4.8486 39.9851 5.90099L40.1273 6.31025L40.7359 3.87139C40.1866 4.41011 39.7835 5.01982 39.6373 5.80493L41.2931 4.05514C40.9651 4.13031 40.6253 4.21801 40.3289 4.40175C40.1708 4.50198 39.2145 5.61701 39.4753 5.28709C39.3014 5.50425 38.8193 6.54411 38.7126 7.40022L40.4514 4.98224C39.3093 5.34138 38.7284 5.98033 38.3609 7.17053L40.0167 5.42073L39.665 5.49172C38.926 5.64207 38.1435 6.45224 38.0091 7.24152C37.9024 7.73431 38.0447 7.52968 38.4438 6.63181C39.3014 6.2142 39.495 6.0555 39.0327 6.15155C37.9854 6.31025 37.3373 7.56726 37.2938 8.56953L37.2741 9.03308L39.6452 6.52741C39.0722 6.54829 38.6098 6.64434 38.0763 6.88238C37.1911 7.28328 37.527 7.48374 38.0487 7.09118C37.2267 7.70507 36.7485 8.01828 36.1794 8.89945L38.2265 7.65914L37.8274 7.61738C36.7445 7.5088 35.8712 8.48183 35.5392 9.45487C35.3021 10.1481 36.2426 8.45678 35.8237 8.93286L37.4993 8.19786C36.4442 8.19786 35.5313 8.54865 35.0057 9.58433C34.9939 9.60521 35.7566 9.16254 35.1875 9.41729C34.5433 9.70544 34.0849 9.9393 33.6976 10.5908C33.4487 11.0042 33.6344 10.8288 34.2509 10.0646C35.1875 9.87249 35.4562 9.78896 35.061 9.80984C34.982 9.9226 33.5791 10.3068 33.2985 10.5448C33.1444 10.6743 33.0179 10.8706 32.8915 11.0335L34.5671 10.2985L34.1916 10.2483C33.1444 10.1063 32.1999 11.1337 31.9035 12.0858L31.781 12.4784L34.0691 10.6409C32.8875 10.7077 32.1287 11.1211 31.5162 12.2069L33.5633 10.9666C32.5674 11.0251 31.7691 11.259 31.042 12.0232C29.8327 13.2886 31.3226 11.8311 31.5162 11.8979C31.2949 11.8186 30.9037 12.1067 30.7337 12.2153C30.5361 12.3448 31.9628 11.9981 31.3779 11.9271C30.3069 11.8019 29.4099 12.8041 29.0898 13.7646L28.9554 14.1739L31.8719 12.4241L31.5123 12.3531C30.4808 12.1527 29.3822 12.4784 28.8329 13.5057L28.655 13.8356L31.3344 12.683L30.955 12.5577C30.2002 12.3113 29.1727 12.5577 28.6471 13.2009L28.4377 13.4598L30.1133 12.7248C29.1965 12.8375 28.5523 13.0004 27.916 13.7479L30.2239 13.1048L29.8841 13.0547C28.8724 12.9002 27.7264 13.1424 27.2047 14.2073L27.0308 14.5665L29.0779 13.3261C28.2836 13.3053 27.2956 13.251 26.7502 14.0236C26.3551 14.5832 27.8291 13.4765 27.3035 13.7438C26.7779 14.011 26.4025 14.199 26.0429 14.6667L27.7185 13.9317C26.7898 13.9484 26.1496 14.2115 25.5014 14.9173L28.3745 14.5247L27.9714 14.2616C26.9281 13.5809 25.2999 13.9734 24.7269 15.1595L24.5451 15.5395L26.5922 14.2992C25.3868 14.2616 24.6597 14.8254 24.0274 15.8611L25.4461 14.7084C25.1142 14.7794 26.0389 14.4913 25.1655 14.746C24.7625 14.863 24.391 14.9757 24.0235 15.2054L25.8492 14.9548C24.9047 14.7419 24.2922 14.8254 23.4228 15.268L25.2485 15.0175C23.8851 14.5665 22.8221 15.1261 21.8499 16.1242L24.1578 15.481L23.8259 15.3892C22.7549 15.0926 21.7432 15.6021 21.1465 16.5418L20.937 16.8717L22.3558 15.7191C21.7788 15.8109 23.6283 15.8778 22.9841 15.6397C22.6561 15.5186 22.3716 15.5478 22.0554 15.5729C20.9924 15.6522 20.3008 16.2453 19.8108 17.2016L21.2295 16.049C20.6406 16.1576 22.5099 16.2202 21.8776 16.0365C21.6089 15.9613 21.2967 15.9404 21.02 15.9529C20.2099 15.9863 19.5499 16.3204 19.0401 16.9803L20.7157 16.2453C19.7712 16.3622 19.2061 16.5626 18.5027 17.2517L21.3757 16.8591L21.0003 16.5919C20.0004 15.8819 18.2853 16.3204 17.7558 17.4897L17.5661 17.9115L18.9848 16.7589C18.3446 17.0053 20.3166 16.9886 19.6527 16.809C19.4986 16.7673 18.965 16.6879 18.7082 16.6838C18.3881 16.6796 18.1035 16.7046 17.7755 16.7756C17.6728 16.7965 16.6413 17.3728 17.3764 16.9844C14.8749 18.3124 16.8824 17.0387 17.2104 17.3227C16.6967 16.8717 15.4597 17.9742 15.1317 18.2582L18.0047 17.8656L17.6372 17.6359C16.9654 17.2141 15.9063 17.1264 15.2424 17.6359C14.697 18.0535 16.507 17.5983 15.8707 17.4522C15.4914 17.3645 15.0013 17.544 14.6575 17.6944C13.9501 18.0034 13.4878 18.5881 13.053 19.2395L15.1001 17.9992C14.8946 18.0201 14.6852 18.0285 14.4876 18.0702C13.7367 18.2414 14.2426 17.97 14.5073 18.1579C15.0053 18.5045 14.9183 18.0786 14.1912 18.0368C13.962 18.0243 13.7999 18.0118 13.5589 18.0452C12.4879 18.2039 11.6541 18.9347 11.085 19.866L13.7644 18.7134C12.563 18.492 11.8161 18.6716 10.8874 19.5193L13.1953 18.8762C12.5551 18.6966 11.9505 18.6257 11.3142 18.9096C11.006 19.0474 10.7293 19.2354 10.4922 19.4859C10.2749 19.7156 10.9625 19.1602 10.5357 19.4484L12.3615 19.1978C12.1362 19.1477 11.9149 19.0976 11.6936 19.0391C10.7531 18.8052 9.45684 19.1727 9.01423 20.1917L8.83244 20.6135L10.8795 19.3732C10.6384 19.3732 10.3974 19.3899 10.1524 19.4066C7.65873 19.582 6.73004 23.8041 9.52007 24.3302C10.7768 24.5641 11.5355 24.3804 12.5116 23.5034H9.1565L9.44498 23.7748C10.3104 24.585 11.2984 24.6518 12.318 24.1674C12.8278 23.9252 11.8201 24.3637 12.3378 24.1757L10.512 23.9252C11.2747 24.5015 12.0256 24.5516 12.9147 24.3135L11.089 24.063C12.1204 24.8606 13.5945 24.7938 14.6457 24.0964L12.8199 24.347C13.2743 24.4388 12.3891 24.0504 12.8199 24.3428C13.547 24.8356 14.4797 24.752 15.2147 24.3428C15.8154 24.0045 14.0173 24.5307 14.614 24.5015L12.9384 23.7665L13.1993 24.1006C14.0845 25.2323 15.6218 24.8648 16.5544 24.1006L16.8706 23.8416L13.1479 23.3363C14.124 24.7228 15.4084 25.3116 16.9733 24.6936L15.1475 24.443C16.0723 24.9483 17.1511 25.0861 18.151 24.7103L16.3252 24.4597C16.748 24.6769 15.9932 24.0672 16.3766 24.4931C16.9022 25.0778 17.9415 25.4578 18.6845 25.1362L18.9967 24.9984L17.1709 24.7479C17.5384 24.9191 18.7121 25.5747 19.0204 25.1738C19.2456 24.8815 17.4989 24.7813 18.6054 25.0861C19.0046 25.1947 19.3958 25.2866 19.8108 25.3409L18.1352 24.6059L18.396 24.8439C19.1903 25.5706 20.3245 25.8378 21.269 25.2365L21.601 25.0235L18.3565 24.1256L18.5936 24.4848C19.5499 25.9297 21.0477 26.0299 22.3162 24.9901L22.6601 24.7061L20.3522 25.3492L20.6367 25.4202L19.218 24.2676C20.1704 25.6374 21.2018 26.0508 22.743 25.6875L20.9173 25.4369C21.6681 25.9965 22.4625 26.0759 23.3279 25.771L21.5022 25.5204C21.7946 25.7209 21.9645 25.7752 22.332 25.9548C22.743 26.1552 21.8697 25.6583 22.3162 25.9255C23.0157 26.3431 24.0195 26.4267 24.7111 25.9255L25.0628 25.6708L21.8183 24.7729L22.0238 25.2114C22.5336 26.2972 23.6954 26.506 24.7032 26.364C25.292 26.2805 23.8417 26.4225 23.8851 26.3724C23.9207 26.3348 24.7466 26.4851 24.9679 26.4684C25.2999 26.4392 25.6082 26.3724 25.9243 26.2596L24.0985 26.0091C24.6083 26.2805 23.3279 24.9734 23.731 25.5747C24.3791 26.5436 25.2999 26.9696 26.4104 26.7273C27.181 26.5561 24.719 26.7733 26.0547 26.8025C26.4855 26.8109 26.8886 26.7816 27.3154 26.6898L25.0075 26.0466C25.3315 26.3223 25.6516 26.5687 26.0152 26.7733C27.1533 27.4164 25.2011 26.0132 25.7939 26.5102C26.6001 27.1867 27.7185 27.55 28.6669 26.9027L29.0028 26.6731L25.7583 25.7752L25.9875 26.1677C26.6356 27.2744 28.1374 27.8257 29.232 27.0656L29.5561 26.8401L27.7303 27.0907C28.1294 27.1867 28.5286 27.2577 28.9356 27.2285L27.26 26.4935L27.513 26.8276C28.3587 27.9384 29.9789 27.6294 30.8681 26.8276L31.1922 26.5352L29.5166 27.2702L29.805 27.2995L27.758 26.0592L28.0109 26.481C28.5997 27.4623 29.6272 27.88 30.6903 27.6336C31.287 27.4916 29.4375 27.4916 30.0105 27.6795C30.2556 27.7589 30.5361 27.7547 30.7891 27.7505C31.1013 27.7463 31.4135 27.6461 31.7178 27.596C31.1171 27.6962 31.6585 27.7171 31.8442 27.5835C32.3105 27.2535 33.0693 28.0303 31.3423 27.4707C31.0775 27.3872 30.0777 26.7232 30.955 27.2744C31.7849 27.7964 32.3856 27.8507 33.3143 27.6628L31.4885 27.4122C32.4133 27.8465 33.2353 27.9593 34.1877 27.6127L32.3619 27.3621C32.7136 27.5333 33.7569 27.6377 33.915 27.8382C33.915 27.8382 33.1562 27.621 33.1483 27.6336C33.0456 27.7463 34.5512 28.0345 34.4169 28.0219C34.7884 28.0554 35.1203 27.9593 35.4839 27.9259C34.7212 27.9969 35.8988 27.9217 36.2189 27.7964L34.3932 27.5459C34.6619 27.7338 34.9346 27.8841 35.2428 27.9969C36.0806 28.3017 36.0292 27.9969 35.7526 27.9927C36.9935 28.0011 37.4796 27.951 38.4399 27.0823L35.5669 27.4749C36.4837 27.9969 37.5231 28.3059 38.5347 27.9217C39.0524 27.7254 39.0682 27.7672 38.5189 27.7923C37.203 27.8549 38.3569 27.9468 38.3569 27.9426C38.3529 27.9677 37.776 27.8591 38.1593 27.9677C38.4517 28.0512 38.7758 28.0554 39.0801 28.0762L37.4045 27.3412C37.8076 27.7254 38.187 28.0971 38.7323 28.2516C39.005 28.331 40.9217 28.2057 39.6571 28.2224C38.3925 28.2391 40.3289 28.3185 40.5779 28.2433C42.4787 27.692 39.8942 28.0971 40.5383 28.1723L38.8627 27.4373C39.3804 27.8633 39.8389 28.2642 40.5067 28.3602C40.7557 28.3978 41.309 28.4604 41.5263 28.285C41.7318 28.1222 40.2854 28.189 40.7794 28.2809C41.0876 28.3352 42.6605 28.4604 42.7553 27.9342C42.6723 28.3978 40.8189 27.8716 42.044 28.2057L40.9968 24.017C40.4593 24.6518 41.8108 23.3154 41.4828 23.8041C41.388 23.9502 41.8741 23.6287 41.1627 23.7915C40.4 23.9669 39.8626 24.2801 39.3212 24.8815L40.9968 24.1465C39.6729 24.1298 38.4913 24.5349 37.855 25.8671L39.9021 24.6268H39.578C38.7718 24.61 37.9143 25.0987 37.531 25.8629L37.3531 26.2137L38.7718 25.0611C38.4913 25.1822 38.2186 25.3283 37.9301 25.4327C37.4835 25.5956 38.4438 25.2323 37.8748 25.4327C37.4084 25.5998 36.9777 25.675 36.5469 25.9882L38.3727 25.7376C37.7997 25.6457 37.2701 25.558 36.7011 25.7125C36.4521 25.7794 35.389 26.3306 36.1004 26.0174C36.1755 25.984 36.626 25.9464 36.2861 26.0258C35.8593 26.126 35.4839 26.1302 35.0887 26.3682C34.7884 26.5478 34.2628 27.003 34.1877 27.3454C34.1244 27.6461 35.0571 26.552 34.65 26.8777L36.4758 26.6271L36.1241 26.5478C35.1322 26.3264 33.9466 26.6814 33.4447 27.7004C33.1444 28.3101 34.3062 27.0656 33.8518 27.2911H36.2466L35.8554 27.1032C34.6026 26.506 33.425 26.8025 32.6109 28.0011C32.4054 28.3059 33.1523 27.4331 33.425 27.3454C33.67 27.2661 34.9701 27.3078 33.8834 27.2744C32.9665 27.2452 32.3342 27.5292 31.6585 28.1932L33.3341 27.4582C33.2985 27.4582 30.6586 28.0721 30.9788 28.4939C31.1329 28.6985 32.2433 27.7171 31.3581 28.1806C30.876 28.4354 30.4927 28.6734 30.0698 29.0284L32.9428 28.6358L32.5635 28.4479C31.1171 27.7338 29.6154 28.3185 29.0818 29.9471L28.9317 30.4065L31.2198 28.569C30.7021 28.6108 31.7691 28.7152 31.2159 28.6233C30.7337 28.544 30.2832 28.5147 29.809 28.6484C28.9633 28.8822 28.5009 29.4126 28.0465 30.1518L30.7258 28.9992L30.3623 28.8405C29.0977 28.2809 27.8607 29.4669 27.4458 30.5903L27.2837 31.0329L30.7653 29.5337L30.3899 29.3333C29.2873 28.7402 27.7698 28.9783 27.1454 30.2311L26.9597 30.607L29.0068 29.3667C28.3547 29.3667 27.8093 29.5337 27.2403 29.8594H29.6351C28.2124 29.1495 27.0071 29.2957 25.9124 30.49L27.588 29.755C26.0231 29.9221 25.1695 30.2687 24.1855 31.6218L26.2325 30.3815C25.6082 30.4023 28.082 30.7949 26.1772 30.3021C25.6872 30.1768 25.2485 30.2144 24.7783 30.3564C24.2527 30.5151 23.9721 30.7991 23.5295 31.1039C22.7272 31.6594 24.059 30.9035 24.0037 30.8492C23.8496 30.703 23.3832 31.1332 23.1619 31.2167C23.8496 30.9619 23.1698 31.154 23.0236 31.2125C22.7509 31.3169 22.415 31.4464 22.1819 31.58C21.9566 31.7178 21.759 31.8932 21.593 32.0979C21.8815 31.8932 21.9211 31.8682 21.7235 32.0269L23.5492 31.7763C21.7393 31.0037 20.4747 32.2858 19.8424 33.9562L22.7589 32.2064L22.3834 32.0937C21.6207 31.8598 20.613 32.0811 20.0755 32.7368C19.6764 33.2254 21.1583 32.2398 20.609 32.4111C20.3126 32.5029 20.0439 32.6616 19.8028 32.8579L21.6286 32.6073C20.8224 32.4612 20.2257 32.4988 19.4472 32.7953C19.052 32.9456 19.8108 32.67 19.5578 32.8036C19.3049 32.9373 19.0441 33.0458 18.7951 33.1628C19.4709 32.8454 18.479 33.2755 18.1944 33.4634C17.4554 33.9562 17.1749 34.5868 16.8982 35.4221L19.1864 33.5846C18.1707 33.501 17.3448 33.6931 16.6176 34.5117L18.2932 33.7767H17.9692C16.8745 33.785 16.0249 34.5618 15.681 35.6183L15.5388 36.0526L17.8269 34.2151C17.0247 34.1442 16.4398 34.4407 15.7956 34.8833H18.1905L17.8032 34.7079C16.7125 34.2193 15.851 34.3237 14.9302 35.1005C14.29 35.6434 14.1082 36.4536 14.8551 35.3344C15.1001 34.9669 15.0487 35.4262 14.5824 35.397C16.3291 35.5056 14.8472 35.1297 14.0173 35.3552C13.4364 35.5139 12.9582 35.894 12.5274 36.3241L14.8353 35.681C13.389 35.1798 12.0493 35.7854 11.334 37.1927L12.7527 36.0401L12.4642 36.1153L14.29 36.3659L13.9383 36.1905C13.219 35.8397 12.2469 35.635 11.5434 36.1905L11.2312 36.4368C9.33828 37.9361 9.97849 40.8844 12.4286 41.1058L12.8159 41.1392C13.5984 41.2102 14.5073 40.6213 14.863 39.8989L15.0566 39.5021L12.3773 40.6547C13.0254 40.7675 13.6063 40.8677 14.2386 40.5837C14.5073 40.4668 14.8907 40.2664 15.0645 40.0033C15.2187 39.7694 14.0134 40.5044 14.4955 40.3958L12.6697 40.1453C13.6932 40.851 14.3453 40.5879 15.4676 40.3415C15.0211 40.4376 15.602 40.3833 15.9695 40.258L13.6616 39.6149C14.1793 40.0784 14.6377 40.4585 15.3254 40.5754C15.681 40.6339 16.7836 40.4585 16.5346 40.5044C16.0367 40.5921 16.8745 40.4209 16.8271 40.4668C16.9852 40.4585 17.1393 40.4292 17.2895 40.3791L16.3212 40.3582C16.9022 40.329 17.4317 40.4501 18.0285 40.3123L16.2027 40.0617C16.5702 40.2872 15.9893 39.7986 16.1948 40.0241C16.4991 40.3582 16.8982 40.5837 17.3053 40.7299C17.7597 40.897 18.4987 41.0348 18.9216 40.7926C18.8781 40.8176 16.835 40.4835 18.4513 40.8886C18.9611 41.0181 20.5616 41.1517 18.6054 40.7466C18.7912 40.7842 20.7315 41.2352 20.6446 41.0556C20.7118 41.1976 19.5262 40.9679 19.5539 40.6714C19.4827 41.3856 21.8223 41.7865 22.1779 41.8074L20.5023 41.0724C20.7236 41.277 20.9607 41.5317 21.2176 41.6821C21.5101 41.8491 23.2924 42.1498 22.1147 41.8783C21.0042 41.6236 22.3558 42.0579 22.6719 42.1039C23.1185 42.1665 23.5295 42.083 23.9602 41.966L21.6523 41.3229C22.4901 42.3335 23.5216 42.6969 24.7624 42.3335L22.0831 41.1809C22.502 41.8992 22.9485 42.3461 23.6915 42.6593C25.0154 43.2231 23.897 42.2834 24.4898 42.8263C24.7308 43.0477 25.8966 42.6551 23.9088 42.4087C24.1736 42.4421 24.5056 42.889 24.7901 43.0268C25.2801 43.2648 25.7583 43.3609 26.2997 43.3316L24.6241 42.5966C25.6714 43.4611 26.3827 43.7785 27.7619 43.5572L25.9362 43.3066L26.1891 43.4695L25.0984 41.9702L25.2604 42.3795C25.7702 43.6741 26.7937 44.4675 28.1769 44.1293C28.7736 43.9831 27.6671 44.1543 28.2322 44.1L25.9441 42.2626L26.0705 42.7512C26.276 43.5488 26.932 44.3339 27.7264 44.501C28.252 44.6137 28.7617 44.6931 29.2952 44.6471L27.2482 43.4068C28.1769 44.8559 29.6233 45.7037 31.287 45.1566L28.6076 44.004C29.1135 44.6931 29.5245 45.0188 30.2239 45.4322C30.6745 45.6995 29.7062 45.236 30.1726 45.4698C30.4057 45.5868 30.6903 45.7538 30.9432 45.8123C31.7375 46.0002 29.2676 44.7557 31.0301 45.9125C31.5715 46.2675 32.1129 46.3844 32.7452 46.3844L30.6982 45.1441C31.1566 45.9835 31.694 46.4303 32.5753 46.6976L31.1566 45.545C31.37 45.925 31.619 46.2675 31.9074 46.5848C32.437 47.1653 33.4684 47.5537 34.2153 47.228L34.6579 47.0359L31.7415 45.2861C31.9193 45.854 32.1287 46.2967 32.4726 46.7769C32.6543 46.9649 32.8559 47.1194 33.0811 47.2447C32.8045 46.9983 32.7492 46.9774 32.9231 47.1779C33.3657 47.5119 33.6897 47.8001 34.2351 47.9504C34.4959 48.0006 34.7607 48.034 35.0294 48.0507C34.6658 47.9922 34.6105 47.9838 34.8713 48.0256L33.2155 46.2758L33.338 46.6558C33.7648 47.988 34.9425 48.7147 36.2545 48.4056L36.6457 48.3138L33.9664 47.1612C34.4801 47.988 35.1559 48.6896 36.1122 48.8316L34.4564 47.0818L34.5433 47.5328C34.7686 48.6813 35.8316 49.2701 36.8315 49.3703C37.5586 49.4455 35.6143 49.2367 36.1992 49.2283C36.6497 49.2242 37.1358 49.6668 36.6774 49.4371C36.8829 49.5374 37.0607 49.6668 37.2741 49.7629C38.0882 50.122 37.2543 49.671 37.5665 49.8213L36.3928 47.6581L36.4205 47.9087L37.5942 45.7454C37.5942 45.7454 38.1474 45.3612 37.4677 45.7747C37.0844 46.0085 36.7603 46.2257 36.4719 46.5848L39.3449 46.1923L38.9971 46.0002C38.0566 45.4823 36.8947 45.5826 36.1241 46.3927C35.5866 46.9565 37.3452 45.7956 36.5707 46.1004C36.4086 46.1631 36.2426 46.209 36.0806 46.2716L37.9064 46.5222C36.8473 45.996 35.9463 45.8206 34.9109 46.5306L36.7366 46.28L36.4205 46.2299C35.3337 46.0503 34.3497 46.3593 33.7411 47.3825L33.5238 47.75L36.2031 46.5974C35.0452 46.138 33.8557 46.5013 33.0337 47.4535L35.9067 47.0609C34.247 46.3092 33.2748 46.5097 31.8758 47.6957L34.7488 47.3031L34.3892 47.0359C33.6186 46.4596 32.1248 46.6183 31.5162 47.4284C31.204 47.8419 32.9823 47.1319 32.3935 47.1862C31.8363 47.2405 31.4135 47.4117 30.9274 47.6748L32.7531 47.4242C32.1999 47.3324 31.7375 47.3491 31.1803 47.37C30.7693 47.3867 31.7573 47.3115 31.0815 47.4034C30.1251 47.5328 29.3703 47.6498 28.7222 48.4892L31.0301 47.846C30.8207 47.8085 30.6152 47.7583 30.4057 47.7291C29.643 47.6247 29.1767 48.0131 28.5128 48.0173C29.4968 48.0089 29.5442 47.3783 28.5721 47.8502C28.0741 48.0924 27.6947 48.3555 27.2679 48.7105L30.141 48.3179L29.805 48.13C28.6709 47.4952 27.2324 47.821 26.5606 49.0279L26.3392 49.4288L28.3863 48.1885C28.0939 48.1759 29.149 48.1885 27.7698 48.1008C27.098 48.059 26.8688 48.2386 27.2561 48.1551C26.4776 48.3221 26.1693 48.4349 25.5054 48.8901C25.1379 49.1949 25.3513 49.0655 26.1496 48.5017C27.1454 48.5936 27.4102 48.5685 26.9439 48.4223C26.1812 48.1467 25.1774 48.4474 24.636 49.0655L24.387 49.3494L27.26 48.9569L26.9202 48.7397C26.0863 48.2094 24.7071 48.3012 24.0472 49.1323C23.6994 49.5708 24.4107 48.9861 24.0076 49.1866L26.8807 49.5791L26.5289 49.2826C25.6635 48.556 24.6676 48.3138 23.6559 48.8901C23.4741 48.9945 23.2924 49.1031 23.1145 49.2116L24.9403 48.9611C24.0472 48.8107 23.0631 48.5685 22.2965 49.2576C21.7156 49.7838 23.7863 48.9068 22.5454 49.1824C22.2056 49.2576 21.9013 49.3327 21.597 49.5207C21.3362 49.6835 22.1542 49.3202 21.68 49.4998L23.9879 50.1429L23.6401 49.8548C22.6126 49.007 21.3046 48.8232 20.285 49.8548C20.04 50.0803 20.1269 50.0469 20.5458 49.7587C20.937 49.4413 21.3915 49.3703 21.9013 49.5499C21.7353 49.3661 21.2453 49.4288 21.0398 49.4246C20.854 49.4246 19.9333 49.5624 20.7078 49.5666C19.6369 49.5583 19.1666 49.4789 18.2458 50.1847C17.7242 50.5856 19.3168 49.7671 18.7437 49.8548C18.4671 49.8965 18.151 50.122 17.902 50.2598L19.7278 50.0093C18.5699 49.5541 17.7439 49.9967 16.8389 50.7484L19.712 50.3559L19.3919 50.2056C18.3604 49.7295 17.3764 49.7838 16.5188 50.5981L16.258 50.8445L18.5659 50.2014C18.1905 50.0552 17.7992 49.9759 17.3962 49.9842C17.1986 49.9884 16.7955 49.9842 16.6216 50.0928C16.3963 50.2306 17.902 50.2014 17.3645 50.1011C16.2699 49.9007 15.3017 50.2473 14.6852 51.2538L14.4441 51.6463L16.4912 50.406C16.2896 50.3977 16.0999 50.406 15.8984 50.4269L17.574 51.1619L17.2381 50.8863C16.4438 50.2348 15.2977 49.8213 14.3651 50.4937C13.5905 51.0533 14.4797 50.477 14.7998 50.5522C14.29 50.4311 13.6972 50.8069 13.2506 51.0282L15.0764 50.7777C14.7603 50.6775 14.4876 50.5898 14.1359 50.5898C13.8276 50.5898 13.053 51.0617 12.8041 51.0282C13.0728 51.0658 13.9146 50.5021 13.4957 50.8111C13.4206 50.8654 12.8713 50.715 13.2862 50.8278C13.7012 50.9405 12.7962 50.7025 12.6618 50.6942C12.4168 50.6775 11.4525 50.9698 12.2271 50.7944C11.7331 50.9071 11.3577 50.8487 10.8795 51.1327C10.4567 51.3832 11.3577 51.0366 10.8914 51.1869L13.1993 51.8301C11.5039 50.4227 9.88759 50.5522 8.59928 52.4481L11.8438 51.5503L11.5276 51.3665C10.595 50.832 9.41732 50.9573 8.65461 51.7591L8.38983 52.0347L10.0654 51.2997C9.29876 51.2496 8.69413 51.379 7.99069 51.7424H10.3855C8.89172 50.832 7.69035 51.2872 6.23606 51.9512L8.06183 51.7006C7.81681 51.6254 6.76956 51.5294 7.14499 51.5628C7.52042 51.5962 5.53263 51.6421 5.92386 51.592C6.29139 51.5461 5.17696 51.6463 5.02283 51.6881C4.78967 51.7465 4.52095 51.8885 4.31545 52.0305C4.4182 51.9595 5.14929 51.8969 4.78967 51.8844L6.46527 52.6194C5.97919 52.2059 4.04277 50.8529 3.47765 51.8175C3.41837 51.9178 4.40634 51.8885 4.29569 51.8342C4.01115 51.6923 3.5725 51.7257 3.27611 51.7716C2.60429 51.8676 2.13401 52.256 1.64003 52.7196L4.51304 52.327C3.33934 51.6254 2.39879 51.8092 1.23299 52.3521C-1.55309 53.6467 0.857558 57.9648 3.62782 56.6786C4.11786 56.4489 3.12989 56.8581 3.63573 56.7203L1.80996 56.4697L2.12216 56.6535C3.08642 57.2298 4.19294 57.0168 4.99517 56.2609L5.26785 56.002L2.95996 56.6451C3.73057 56.8456 4.36287 56.7704 5.09792 56.5324L2.79002 55.8893C3.46975 56.4697 4.07438 56.9291 5.01098 56.9041C5.34294 56.8957 5.62747 56.8331 5.92781 56.7287C6.62334 56.4906 6.97506 56.4739 6.24792 56.4739C4.99122 56.4739 6.20444 56.5616 6.23606 56.5783L6.86836 56.4906C7.32678 56.3779 7.05015 56.357 6.04637 56.4322C6.07008 56.5491 6.78142 56.5115 6.97506 56.5366C6.25582 56.4447 7.1608 56.6243 7.42953 56.6201C7.86028 56.6159 8.38983 56.4572 8.76921 56.215C9.25134 55.9018 8.76921 56.2609 8.76921 56.1858C8.76921 56.3319 8.16853 56.1816 8.72574 56.2317C7.30307 56.1064 7.86028 56.1231 8.55976 56.3236C9.25924 56.524 9.75718 56.3069 10.3855 56.073C11.0139 55.8391 9.17625 56.073 9.76904 56.2943C10.5673 56.5992 11.5 55.835 12.0097 55.3046L9.13674 55.6972L9.45289 55.8809C10.6582 56.5741 11.9307 56.1106 12.6974 54.983L12.9503 54.6114L10.9032 55.8517L11.1996 55.8392L9.52402 55.1041C10.4092 55.8391 11.1561 56.3111 12.3022 55.977C12.3931 55.9519 13.1795 55.6638 13.1479 55.5719C12.9424 54.9496 11.3656 56.5658 13.0847 55.7013C13.1479 55.6679 11.2154 55.7055 12.9819 55.8433C13.1242 55.8559 13.2823 55.8308 13.4245 55.8266C14.1161 55.8141 14.7484 55.6805 15.3372 55.267L13.5115 55.5176C14.0687 55.6888 14.5113 55.6512 15.0804 55.6136C15.768 55.5677 16.2185 54.5696 14.8788 55.5719C15.1001 55.4048 15.9419 55.3923 16.2264 55.2378C16.4121 55.1376 16.59 54.9496 16.7639 54.8243L13.8908 54.4318C15.5783 55.8183 17.5305 55.835 18.7833 53.7887L16.1039 54.9413C16.4675 55.0081 17.4001 55.3213 17.6688 54.9956C17.8309 54.8035 17.0128 54.9204 17.3092 55.0373C18.1154 55.3547 19.0204 54.958 19.6171 54.3942L19.8779 54.1478L17.0049 54.5404L17.325 54.6907C18.4118 55.1919 19.2812 55.0624 20.198 54.2982L20.4628 54.0768L18.1549 54.7199C19.0164 55.0582 19.625 54.7993 20.4351 54.5153C19.8345 54.7283 20.5498 54.5529 20.858 54.3566C21.1228 54.1854 21.3599 53.9432 21.601 53.7344L19.2931 54.3775C19.6803 54.4443 20.0597 54.5111 20.451 54.4944C20.6248 54.4861 21.3796 54.4151 20.6367 54.3859C21.9211 54.4318 22.6284 54.4234 23.6362 53.4045H20.281C21.3204 54.2647 22.5494 54.816 23.7824 53.9766C24.304 53.6216 22.9446 54.2773 23.0078 54.1687C23.0355 54.1228 23.7113 54.1228 23.7903 54.0935C24.2131 53.939 24.5332 53.7051 24.885 53.4295L23.0592 53.6801C24.2092 53.8931 25.0193 53.797 26.0468 53.2124L23.1738 52.8198L23.5255 53.1163C24.4265 53.8722 25.3513 54.0351 26.3985 53.5089C26.7977 53.3084 27.1138 53.0286 27.3984 52.6695L24.5253 53.062L24.8652 53.2792C25.7346 53.8346 27.0387 53.6884 27.7382 52.8866L27.9872 52.6026L25.6793 53.2458C26.9202 53.6926 27.8844 53.2458 28.8526 52.4272L27.177 53.1623C27.2363 53.1623 27.43 53.1873 27.4734 53.1539L28.1057 53.0662C28.41 53.0244 28.2994 53.0203 27.7738 53.0495C27.6671 53.1497 26.8965 53.0495 27.7659 53.1372C27.9793 53.1581 28.1729 53.1873 28.3824 53.1957C29.2083 53.2291 30.0184 52.6945 30.4294 51.9553L30.6507 51.5544L27.4063 52.4523L27.7422 52.6402C28.7736 53.2165 29.7497 52.9743 30.6152 52.2477L30.872 52.0305L29.1965 52.7655C29.8485 52.824 30.3978 52.6152 30.9708 52.302L29.1451 52.5525C29.3545 52.5943 29.56 52.6319 29.7695 52.6695C30.5559 52.8073 31.5202 52.7488 32.0774 52.0263L32.3145 51.7173L30.6389 52.4523C30.9353 52.4105 31.2317 52.4231 31.5281 52.3813C32.109 52.2978 32.4726 51.8927 31.8165 52.2351C31.283 52.2017 31.1763 52.2059 31.4925 52.2519C31.8086 52.3563 32.1248 52.373 32.437 52.2978C32.7373 52.256 33.2353 51.8718 33.4526 51.9261C32.682 51.7257 32.0813 52.5609 33.3222 52.0932C33.9387 51.8593 34.4604 51.5085 34.8674 50.9656L31.9944 51.3582L32.354 51.6254C33.2787 52.3145 34.4485 51.8969 35.227 51.2329C35.4049 51.0825 35.5669 50.928 35.7289 50.761L33.421 51.4041C33.9545 51.5336 32.9586 51.1326 33.5079 51.379C34.4524 51.805 35.6182 51.8718 36.381 50.9865C36.7129 50.6273 36.4956 50.7401 35.717 51.3206C34.7291 51.2287 34.4643 51.2621 34.9346 51.4208C35.9265 51.8175 37.0883 51.1494 37.6139 50.2682L37.8313 49.9007L35.1519 51.0533C36.0727 51.2036 36.7485 51.2287 37.5547 50.6733H35.1598C36.6339 51.4041 38.2858 51.1702 39.4674 49.9299L36.5944 50.3225L36.9421 50.5146C37.8115 50.9948 39.1236 50.9907 39.8151 50.122C40.2222 49.6125 38.7837 50.5313 39.2895 50.3977C39.5227 50.335 39.7717 50.1972 39.9772 50.0677C40.6332 49.6501 41.2418 48.7606 41.1509 47.9045C41.056 46.9899 40.9059 46.2883 40.1906 45.687C39.9456 45.4823 38.4913 44.8685 39.2461 45.2276C38.8865 45.0564 38.5347 44.8434 38.1672 44.6764C38.9102 45.0146 37.2069 44.3924 36.8196 44.3506L39.1078 46.1881L39.0208 45.7371C38.8746 44.9812 38.1158 44.0959 37.365 43.9873C37.0093 43.933 38.3727 45.1357 38.0566 44.6221C37.4519 43.649 36.4521 43.2189 35.3772 43.4695L34.986 43.5613L37.9024 45.3111L37.7799 44.9311C37.5349 44.1669 36.9461 43.3149 36.1241 43.1813C35.5629 43.0894 34.0177 43.1354 35.9225 43.2941C36.0253 43.3024 36.2861 43.6532 36.0727 43.3692C35.8949 43.1312 35.5945 42.9767 35.3377 42.8305L36.4284 44.3297L36.3059 43.9455C35.9384 42.7804 34.6263 41.657 33.3894 42.1957L32.9468 42.3878L35.2547 43.031C35.0847 42.8389 35.1124 42.8806 35.3298 43.1562C35.2033 42.9182 35.0492 42.6969 34.8713 42.4964C34.4445 42.1414 34.0533 41.9201 33.5356 41.7656L34.9543 42.9182C34.5868 42.2458 34.1047 41.6737 33.3657 41.4524C31.7415 40.9638 33.6937 41.8491 33.6028 41.7155C33.2787 41.2352 32.6583 41.1809 32.1959 40.9638C32.7571 41.2269 31.8205 40.7257 31.4727 40.5837L32.8915 41.7364L32.6899 41.4607C32.0537 40.5921 31.1013 39.949 30.0105 40.3081C29.2399 40.5629 31.3305 40.567 30.544 40.3081C30.3544 40.2455 31.5676 41.2352 31.3265 40.8635C30.88 40.1661 30.133 39.5439 29.2794 39.6232C28.6313 39.6817 29.0542 39.6734 28.9712 39.6566L30.627 41.4064L30.5006 40.9178C30.2437 39.9323 29.236 38.9843 28.2124 39.0803C27.7698 39.1221 27.3312 39.1806 26.8965 39.285L29.8129 41.0348C29.0819 39.1847 28.0544 38.4623 26.1417 38.7713L27.9674 39.0219C27.5288 38.7212 28.3666 39.4019 27.9556 39.0428C27.6394 38.7671 27.3114 38.5207 26.9083 38.3996C24.798 37.7649 28.0662 39.3267 26.8807 38.5541C26.0468 38.0112 25.2683 37.8442 24.3001 37.7231L26.3472 38.9634L26.1575 38.6335C25.6082 37.6855 24.5056 37.1802 23.4781 37.4809L23.1303 37.5811L25.4382 38.2242C25.2683 38.0781 25.126 37.9319 24.9798 37.7565C24.4226 37.0883 23.4544 36.9004 22.6719 37.1134L22.3281 37.2053L24.1539 37.4558C23.5729 37.151 23.0355 36.9589 22.3834 36.9881L24.059 37.7231C23.648 37.3472 22.6956 36.4661 22.0712 36.7668C22.1779 36.7167 23.6796 37.4224 22.2767 36.6081C21.2571 36.0151 20.3996 35.99 19.2733 36.2155L21.0991 36.4661C20.7513 36.2782 19.9293 35.7394 19.5618 35.9858C19.463 36.0526 20.6762 36.274 19.6961 36.0109C19.0678 35.8397 18.5066 35.6893 17.8585 35.8731C17.3211 36.0234 18.6647 35.9107 18.6726 35.9148C18.9571 35.9984 19.9175 36.6874 19.0797 36.0735C18.637 35.752 18.2379 35.4889 17.6807 35.4137C17.4989 35.3886 16.7125 35.3051 16.586 35.493C16.5939 35.4847 17.9336 35.564 17.4041 35.4847C17.0761 35.4346 15.5388 35.6309 16.3291 35.4847C16.0525 35.5348 15.7482 35.5139 15.4795 35.61C15.2108 35.706 16.0762 35.6016 15.602 35.5891L17.2776 36.3241C15.8707 35.0713 14.4994 35.2675 12.9622 36.0318H15.357C14.0489 35.1339 12.6974 35.4179 11.6106 36.5078L13.9185 35.8647L13.5984 35.8063C12.5907 35.6267 11.4367 35.9107 10.919 36.9589L10.7254 37.3556L12.7725 36.1153L12.3852 36.0819L13.5826 40.7508L13.8948 40.5044H11.5C13.1123 41.2979 14.6812 41.0849 15.5822 39.3184L14.1635 40.471C14.6654 40.3039 12.9187 40.2872 13.5312 40.5002C14.3414 40.78 15.2424 40.4501 15.8391 39.8571C16.0762 39.6399 15.9814 39.6817 15.5625 39.974C15.3135 40.2121 15.0211 40.2914 14.6931 40.2037C13.9659 40.4626 14.4718 40.329 15.0211 40.3374C15.4163 40.3415 15.8549 40.2288 16.2343 40.1077C16.5939 39.9907 16.9535 39.8279 17.2697 39.6149C17.653 39.356 17.9376 39.072 18.1865 38.6753C18.4592 38.2409 17.8822 38.9425 18.2419 38.6377L15.3688 39.0302C16.2659 39.4311 16.8982 39.6692 17.8664 39.3309C17.985 39.2891 18.2932 39.1555 18.3999 39.0302C18.8149 38.55 17.0998 39.1597 17.7874 39.2182C18.8623 39.31 19.7554 38.3662 20.0755 37.3807L20.2178 36.9463L17.9297 38.7838C18.8504 38.7797 19.5144 38.5166 20.1467 37.8024L18.4711 38.5374C18.6963 38.5541 18.9176 38.5709 19.1429 38.5917C20.2217 38.6794 21.103 37.744 21.431 36.7542L21.5693 36.3283L20.4786 37.8275C20.8501 37.6145 20.1032 37.9319 20.3798 37.8484C20.6565 37.7649 20.8936 37.6062 21.1425 37.4892C20.451 37.8108 21.518 37.3347 21.7946 37.1217L19.9688 37.3723C20.8738 37.5393 21.4429 37.3848 22.2728 37.0883C21.6049 37.3305 23.075 36.6665 23.3872 36.2823L21.0793 36.9255L21.4547 37.0382C22.7865 37.4433 23.9009 36.5329 24.3712 35.2884L24.5253 34.8875L23.4346 36.3867L23.6757 36.1946L21.8499 36.4452C22.7075 36.8085 23.4781 36.7459 24.2527 36.2113C25.9954 35.0086 23.2528 36.274 24.5135 35.9274C24.8612 35.8313 24.9521 35.7854 25.3829 35.6309C25.8137 35.4763 24.9759 35.8689 25.3671 35.6559C25.8137 35.4137 26.1338 35.2341 26.5329 34.9084C27.3154 34.2778 25.4896 35.3845 26.1337 35.1381L24.308 34.8875C24.9245 35.1798 25.4975 35.4513 26.1891 35.397C26.8807 35.3427 27.3272 35.1255 27.8647 34.662C28.3428 34.2527 28.9356 33.7057 27.7303 34.6745C28.4614 34.0857 26.359 34.9794 27.5446 34.7706C28.1057 34.6703 28.4851 34.5492 28.9831 34.2319C29.6944 33.7767 28.9593 34.1859 29.2281 34.0105H26.8332C27.4458 34.3154 28.003 34.591 28.7104 34.4866C28.9949 34.4448 29.4296 34.3613 29.6588 34.1525C29.8446 33.9855 28.4377 34.3822 28.9633 34.3822C29.7695 34.3822 30.627 33.9145 31.0104 33.1419L31.1961 32.766L27.9516 33.6639L28.327 33.8644C29.7971 34.6578 31.2356 33.9228 31.8086 32.3651L31.9707 31.9225L29.0542 33.6722L29.4178 33.8309C30.4018 34.2653 31.5755 33.5261 32.0971 32.6783L32.2987 32.3526L30.88 33.5052C31.4964 33.4008 29.5719 33.3507 30.2437 33.5136C30.5519 33.5887 30.8641 33.6054 31.1803 33.5804C32.2947 33.4969 33.1009 32.8496 33.4684 31.7429L33.6186 31.2835L30.137 32.7827L30.5164 32.9707C31.5834 33.4969 32.4923 33.334 33.3894 32.5781C31.5636 34.1107 34.1403 31.8849 34.2983 32.0436C34.2114 31.9559 32.1287 32.9289 33.9308 32.386C34.4524 32.2315 34.8239 31.8932 35.2073 31.5132L32.8994 32.1563C34.5275 32.5196 35.721 31.9392 36.6694 30.536L33.425 31.4338C35.0373 32.2023 36.6339 31.9934 37.5072 30.2311L34.8279 31.3837C36.3968 31.7345 37.4401 31.1875 38.2937 29.801L36.2466 31.0413C36.5904 30.9912 37.9617 30.9118 38.1554 30.4692C38.104 30.5903 35.8 30.7072 37.7048 30.6654C37.9103 30.6613 39.2658 30.1518 38.8746 30.2938C38.598 30.394 39.9376 29.9388 40.0839 29.8762C39.6689 30.0641 40.1629 29.9847 40.5541 29.6465C41.0007 29.2664 41.3129 28.9282 41.5816 28.3978L39.5346 29.6381H39.8586C40.649 29.6548 41.5421 29.1662 41.9057 28.402L42.0796 28.0428L40.6608 29.1954C41.0876 29.0493 40.155 29.1161 40.6253 29.162C40.7201 29.1704 40.8545 29.1829 40.9493 29.162C41.5777 29.0493 43.5971 27.8215 42.044 28.6317C41.1074 29.1203 42.3404 28.7361 42.7632 28.6108C43.3916 28.4229 43.8698 28.0679 44.2966 27.5584C45.4505 26.1928 45.0593 23.8625 43.2493 23.3697C42.1388 23.0691 41.1588 23.0691 40.155 23.6997L41.9808 23.4491C41.3445 23.2737 40.7517 23.2445 40.1313 23.4825L42.4392 24.1256C41.2457 23.1401 40.0483 22.7809 38.6928 23.6621L40.5186 23.4115C39.8744 23.3029 39.3133 23.2946 38.673 23.4199L40.9809 24.063C40.5739 23.6746 40.1787 23.3489 39.6531 23.1526C39.412 23.0607 39.1236 23.115 38.8785 23.0565C39.3251 23.1651 39.1789 23.0649 38.76 22.9897C37.8945 22.8394 37.0923 22.8853 36.3652 23.47L38.1909 23.2194C37.5705 22.9855 38.0605 23.2403 37.8985 23.1484C36.9066 22.5846 35.8554 22.7893 35.0255 23.541L34.7172 23.8166L37.0251 23.1735C36.788 23.1359 35.9858 22.9271 35.9581 23.0565C35.8198 23.7372 37.6811 23.1025 36.1597 22.9688C35.9344 22.9479 34.1758 23.1233 35.0847 22.9772C34.8239 22.9396 34.5671 22.9647 34.3102 23.0524C34.1047 23.1066 34.1126 23.1108 34.3299 23.0607C34.6224 23.4324 36.2624 23.2403 34.7054 22.9062C33.0614 22.5512 34.7291 23.0649 34.7686 23.0691C34.0494 23.0148 33.6739 22.6598 32.8717 22.7809C32.6781 22.8101 32.4726 22.9145 32.2789 22.9647L34.1047 23.2152C33.2274 22.8018 32.6543 22.6974 31.7019 22.8895L34.0098 23.5326C33.5435 23.1442 33.1404 22.7976 32.5476 22.6347C32.1801 22.5345 31.8244 22.5596 31.4569 22.5637C31.3463 22.5637 30.5282 22.7642 31.3265 22.6139C30.8602 22.7016 29.9868 22.7057 30.9037 22.7558C31.3779 22.7809 30.3978 22.6306 30.303 22.6347C29.9947 22.6431 29.6746 22.7224 29.3743 22.7934L32.0537 23.946C30.876 21.9874 29.07 21.8287 27.4655 23.282H30.8207C30.6073 23.0022 30.382 22.7433 30.0856 22.5554C29.8683 22.4176 28.4812 22.2046 28.9119 22.2547C29.3427 22.3048 28.248 22.1712 27.9951 22.2088C27.5367 22.2756 27.1691 22.4677 26.7858 22.7308L30.0303 23.6287L29.8011 23.2361C29.149 22.1252 27.6552 21.5865 26.5566 22.3382L26.2207 22.5679L29.0937 22.9605C28.8882 22.7893 27.7224 22.0877 27.7224 22.0918C27.7224 22.0668 28.4733 22.6222 28.3705 22.547C27.9753 22.2631 27.758 21.9958 27.264 21.8496C26.8411 21.7243 26.4262 21.7828 26.0033 21.8496C25.4027 21.9415 26.8569 21.8246 26.8095 21.8663C26.774 21.8997 25.4264 21.812 25.0944 21.8872L27.7738 23.0398C26.9755 21.8454 26.0547 21.1731 24.6123 21.4237C23.6322 21.5949 24.8889 21.7619 25.0944 21.5364C25.0905 21.5406 23.6915 21.4863 23.3872 21.5281L26.0666 22.6807L25.8611 22.2422C25.3197 21.0896 23.6204 20.6135 22.6166 21.3443L22.2649 21.5991H24.6597C24.2803 21.3735 23.3556 21.0436 23.9128 21.2399C23.1185 20.9643 22.5336 20.7597 21.6997 21.0562L23.5255 21.3067C23.0829 20.981 22.6205 20.7764 22.0673 20.7722C21.8025 20.7889 21.5377 20.8348 21.2808 20.8975C21.6563 20.8557 21.7156 20.8348 21.4587 20.8432L23.5058 22.0835C22.2095 20.2168 20.6327 20.033 18.9137 21.4445L22.6363 21.9499L22.3992 21.5907C21.6721 20.4924 20.3245 19.9453 19.1547 20.6928L18.8228 20.9058L21.6958 21.2984C21.0951 20.7471 20.5577 20.4548 19.7594 20.3253C19.1547 20.2293 20.7394 20.3671 20.4589 20.5258C20.4826 20.5133 19.1429 20.1458 19.1943 20.1499C18.2735 20.1291 19.5183 20.4214 19.5815 20.4548C18.8425 20.0789 18.1352 19.9745 17.3724 20.3045L19.6803 20.9476C19.301 20.53 18.8979 20.2084 18.3841 20.0038C17.823 19.7824 17.408 19.8493 16.8389 19.8785C16.5307 19.8952 17.0681 20.0956 16.8706 19.8868C16.5505 19.5486 17.9613 20.4297 17.5621 20.1583C17.2144 19.9203 16.7204 19.7783 16.2975 19.7783C15.9142 19.7783 15.6771 19.8576 15.3609 19.9871C14.9499 20.1583 15.8549 19.9704 15.4044 19.9328L17.4515 21.1731L17.1986 20.8098C16.2066 19.3982 14.7761 19.2354 13.4759 20.3045L13.1597 20.5634H16.5149C15.5111 19.2771 14.0884 19.2938 12.7843 20.0247H15.1792C14.8472 19.7991 14.5034 19.6279 14.1201 19.5402C13.6814 19.44 13.2269 19.3982 12.7883 19.5235L12.2232 19.7741C11.9307 19.9453 12.0295 19.937 12.5195 19.749C12.7962 19.795 13.1518 19.5528 13.4522 19.7407C12.7922 19.3272 12.0493 19.3732 11.33 19.5653L13.1558 19.8159C12.0572 18.9848 11.0139 19.3105 9.8955 19.8451L12.7685 20.2376L12.48 19.9662C11.4644 19.014 10.1524 19.0433 9.12488 19.9662L8.83639 20.2251L11.1443 19.582L10.7451 19.5068L10.1128 24.4305C10.3539 24.4138 10.595 24.4012 10.84 24.3971C11.6146 24.3845 12.5472 23.9419 12.8871 23.1568L13.0689 22.735L10.3895 23.8876C11.7805 24.2384 12.8159 24.0421 13.8592 22.9855L11.5513 23.6287C12.729 23.9586 13.5352 23.6829 14.4402 22.8561L12.1323 23.4992L12.4563 23.5577C13.547 23.7581 14.5192 23.4115 15.1357 22.4051C15.5664 21.7035 14.1201 23.2194 14.8274 22.7893C14.9934 22.689 13.8039 23.0899 13.7604 23.0189C13.9699 23.3489 14.9816 23.0189 15.2463 22.9981C14.539 23.0524 15.3807 23.0482 15.6889 22.9312C16.3331 22.6849 16.7085 22.3675 17.1077 21.7786C17.3922 21.3735 17.2223 21.5322 16.6018 22.2547L15.681 22.4886C15.681 22.4886 17.3527 22.1628 17.5938 21.9749H15.1989L15.5664 22.2046C16.5465 22.8227 17.6175 22.522 18.4394 21.812L18.6884 21.5991L17.0128 22.3341C17.823 22.4009 18.3802 22.1044 19.0243 21.6659C20.1032 20.9267 18.234 22.142 18.7437 21.8079C19.0125 21.6325 20.4193 20.6803 18.5185 21.7118C18.6687 21.6283 19.1785 21.8872 18.5106 21.6868C18.973 21.8246 19.463 21.8287 19.9293 21.716C20.8066 21.5072 21.435 20.8724 21.8104 20.0372L18.5659 20.9351L18.9413 21.2023C19.8345 21.8371 21.0754 21.5322 21.8144 20.8098L22.0554 20.5717L20.3798 21.3067C21.2967 21.194 21.9685 21.0311 22.5771 20.2418L20.9015 20.9768C21.431 20.9643 20.3403 20.8474 20.8975 20.9434C21.3796 21.0269 21.8262 21.0478 22.3044 20.9183C23.1619 20.6803 23.6599 20.1416 24.0669 19.3523L22.0198 20.5926C22.5336 20.555 21.4508 20.4757 22.0278 20.6051C22.4901 20.7095 22.9762 20.7095 23.4346 20.5843C24.2882 20.3504 24.7427 19.8159 25.209 19.0767L22.5296 20.2293C23.1343 20.3963 25.3987 20.4632 25.4659 19.3815C25.4422 19.7866 23.0236 19.8367 24.2685 19.9035C24.9403 19.9411 25.4461 19.7783 26.0468 19.4692L24.221 19.7198C24.7822 19.8451 25.2406 19.8451 25.8136 19.795C26.0626 19.7156 26.2918 19.607 26.5092 19.4609C25.5331 19.6655 25.2801 19.7449 25.7465 19.7031C26.8688 19.7699 27.7145 19.0015 28.2875 18.0702L26.2405 19.3105L26.5566 19.3189C27.347 19.3439 28.2401 18.8345 28.6037 18.0786L28.7855 17.6986L25.541 18.5964L25.9441 18.8595C26.8253 19.4358 28.0978 19.2479 28.8171 18.467L29.0423 18.2206L27.3667 18.9556C27.6829 18.9514 27.999 18.9556 28.3112 18.8595C28.5879 18.776 29.236 18.1078 29.4652 18.0786C28.825 18.1663 28.327 19.0641 29.3743 18.2456C29.6391 18.0368 29.8604 17.8447 30.0619 17.5733L28.3863 18.3083C28.6037 18.325 28.8171 18.3375 29.0384 18.3459C29.8327 18.3667 30.714 17.8614 31.0855 17.1055L31.2593 16.7464L28.58 17.899C29.7339 18.0744 30.6191 18.0243 31.4451 17.0554L29.7695 17.7904C30.6784 17.6777 31.3423 17.5232 31.9628 16.7589L29.6549 17.402L30.0343 17.5273C31.0183 17.8489 32.2117 17.3185 32.7136 16.3747L32.8915 16.0448L30.2121 17.1974L30.5717 17.2684C31.8995 17.5232 33.0337 16.8926 33.4882 15.5186L33.6226 15.1094L31.3344 16.9468C31.7928 17.0011 33.4566 16.4415 32.7334 16.7339C33.4408 16.4457 33.8478 16.2536 34.3655 15.6355C34.7488 15.1762 34.6777 15.385 34.4643 15.4601C34.1956 15.7817 33.8794 15.9529 33.5159 15.9696C33.3025 15.9905 33.3025 15.9947 33.5198 15.978C34.4959 16.1325 35.2942 15.2179 35.7408 14.4286L33.6937 15.669L34.0256 15.6481C35.1164 15.5854 35.9739 14.9047 36.3138 13.8106L36.4363 13.418L34.1482 15.2555C35.2073 15.4017 35.9305 14.8546 36.6102 14.0862L34.9346 14.8212C36.1913 14.7753 37.0963 14.27 37.7483 13.1173L36.3296 14.2699C37.6139 13.8482 38.4478 13.2009 39.1354 11.9606L37.0883 13.2009C38.6849 13.1967 39.5504 12.2863 40.0641 10.7787L37.776 12.6162L38.1751 12.658C39.0287 12.7457 39.7756 12.1067 40.2222 11.4177C40.3486 11.2214 40.4435 11.0418 40.5304 10.8246L39.1117 11.9773C39.8191 11.6766 40.3368 11.3675 40.894 10.8121L39.2184 11.5471L39.5899 11.5346C40.9138 11.4845 41.9017 10.4279 41.961 9.02891L41.9808 8.56536L40.2419 10.9833C41.4275 10.8038 42.3206 9.79732 42.5301 8.57371L40.8742 10.3235L41.226 10.2525C42.048 10.0855 42.6368 9.292 42.8818 8.50272L42.9845 8.16862L41.3287 9.91842L41.6607 9.81402C42.7751 9.46323 43.2572 8.53195 43.3995 7.39604L43.4469 7.02436L42.7514 8.79504C43.0438 8.50272 43.273 8.16445 43.5141 7.82201L42.0954 8.97462L42.4945 8.88274C43.2454 8.70735 44.0002 7.93894 44.1503 7.13294C44.2452 6.62346 43.6682 7.76354 44.0278 7.40857C44.6009 6.84479 44.917 5.76735 44.6364 4.96971L44.4942 4.56045L43.4034 7.39186L43.7315 7.17471C44.6285 6.57752 45.0988 5.44161 44.8222 4.34329C44.6799 3.78786 44.5732 5.44579 44.7787 5.00729C44.8577 4.83607 44.8894 4.52704 44.8973 4.35999C44.9091 4.05514 45.0632 3.41201 44.7985 3.20738C44.6285 3.07375 44.9368 5.37897 44.9328 3.3786C44.9328 2.79812 44.7076 2.33457 44.423 1.85849C43.9014 0.985681 44.3598 2.03389 44.5851 2.30534C44.0634 1.68309 43.9765 0.9648 43.1821 0.513778C42.2258 -0.0291188 41.0956 0.121222 40.3091 0.906334L40.0127 1.19866L42.3206 0.555539C41.301 0.384318 40.5739 0.26321 39.6096 0.822812L42.4827 1.21537L42.1902 0.885454C41.6449 0.275739 40.645 -0.0458234 39.8823 0.24233C39.4753 0.39267 39.088 0.559715 38.7284 0.810283H41.1232C40.1708 0.0376992 39.171 0.250682 38.1198 0.555539L40.4277 1.19866L40.1352 0.847868C39.4476 0.0209947 38.1277 -0.0792324 37.2622 0.455312L36.9658 0.639062H39.3607C38.8865 0.355085 38.432 0.171335 37.8906 0.117046C37.3492 0.062756 36.9026 0.142102 36.377 0.413551C35.9384 0.643238 36.8275 0.300795 36.3533 0.430255L38.1791 0.680823C36.8789 -0.242102 35.5353 0.0836367 34.4248 1.1402L36.1004 0.405199C35.6854 0.380142 35.2823 0.44696 34.8832 0.559715L37.1911 1.20284C36.8552 0.872925 34.1798 -0.693124 33.5593 0.292443C33.8794 -0.221221 34.9385 0.605653 34.65 0.421903C34.0612 0.0460515 33.4645 0.0669321 32.8243 0.171335C31.1171 0.442784 32.9823 0.659943 33.014 0.296619C33.014 0.296619 32.1643 0.438608 31.943 0.534659L33.7688 0.785226C32.9823 0.313324 32.2196 0.108693 31.3542 0.484545L33.6621 1.12767L33.3696 0.78105C32.2394 -0.546959 30.5164 0.096165 29.647 1.28636L29.3506 1.69145L33.0732 1.18613L32.7808 0.939743C32.0299 0.309148 30.797 -0.162755 29.9078 0.547187C29.1925 1.11514 31.1842 -0.00406209 31.2712 0.563892C31.2277 0.300795 30.0817 0.167159 29.9276 0.154631C29.5403 0.121222 29.5284 0.11287 29.0028 0.204744C28.7617 0.300795 28.5207 0.409375 28.2875 0.530483C28.6116 0.39267 28.6511 0.367613 28.414 0.455312L30.7219 1.09844L30.4294 0.801931C29.8683 0.233977 28.8961 -0.171107 28.1215 0.158807C27.7185 0.330028 27.3233 0.488721 26.9676 0.751817L29.8406 1.14437L29.5482 0.852045C28.8329 0.13375 27.5446 -0.175283 26.6752 0.459488C26.4776 0.605653 28.7183 0.739289 27.6078 0.346733C26.7265 0.0376992 26.0112 0.179688 25.2011 0.643238H27.5959L27.3035 0.417727C26.3867 -0.292215 25.209 0.171335 24.4305 0.810283L24.1341 1.0525L26.442 0.409375C26.2167 0.338381 25.3868 0.137926 25.371 0.221449C25.3157 0.551363 27.2363 0.434432 25.2446 0.108693C24.225 -0.0583518 23.3674 0.384318 22.664 1.14437H26.0191L25.7267 0.772698C24.8929 -0.30892 23.3319 0.000114039 22.415 0.797755L22.1186 1.05667L24.9917 0.664119C23.5018 -0.0291188 22.5415 0.0418754 21.2374 1.11932L23.5453 0.476193C23.237 0.375966 21.9843 0.175511 22.3479 0.217273C22.7944 0.26321 21.3085 0.158807 21.107 0.217273L20.5418 0.467841C20.3087 0.614005 20.3482 0.609829 20.6683 0.467841C21.5851 0.726761 22.0317 0.384318 20.858 0.3175C19.2654 0.225625 20.7118 0.730937 21.0477 0.430255C20.9845 0.484545 19.4235 0.417727 19.052 0.50125L21.3599 1.14437L21.0674 0.826988C20.1664 -0.150227 18.6252 -0.108465 17.7123 0.826988L17.4159 1.13185H20.7711L20.4786 0.801931C19.7554 -0.0165905 18.5027 -0.120994 17.6056 0.409375L17.3092 0.584772L19.135 0.334204C18.2063 0.0460515 17.5819 0.238153 16.7204 0.63071H19.1152C18.0324 -0.0625279 16.9496 0.029347 15.8154 0.463664L18.1233 1.10679L17.8309 0.793579C17.246 0.162983 16.3291 -0.0959369 15.523 0.150455C14.8788 0.346733 14.4046 0.697528 13.8869 1.13185L16.1948 0.488721C16.1118 0.455312 15.8154 0.413551 15.7522 0.350909C16.2106 0.810283 15.4637 0.171335 14.9974 0.104517C14.2188 -0.00823823 13.5747 0.284091 12.895 0.65159H15.2898C14.9934 0.434432 14.8195 0.3175 14.4283 0.183864C14.1121 0.0752844 13.2467 0.13375 13.9857 0.175511C13.6103 0.154631 13.2744 0.0418753 12.895 0.096165C12.4484 0.158807 11.9347 0.325852 12.0018 0.396846C12.3615 0.768522 13.879 0.171335 12.0335 0.171335C11.3537 0.171335 10.8005 0.313324 10.2472 0.722585L13.1202 1.11514L12.8278 0.772698C12.1718 0.000114039 10.7807 -0.225397 9.95477 0.375966C9.41337 0.768522 11.1166 0.229801 10.5634 0.267386C7.53227 0.472017 7.51252 5.48337 10.5634 5.27874V5.28292Z" fill="black"/>
</g>
<defs>
<clipPath id="clip0_122_44">
<rect width="45" height="57" fill="white"/>
</clipPath>
</defs>
</svg>
