<?xml version="1.0" encoding="UTF-8"?>
<svg id="Layer_2" data-name="Layer 2" xmlns="http://www.w3.org/2000/svg" viewBox="0 0 209.28 124.22">
  <g id="Layer_1-2" data-name="Layer 1">
    <path d="m59.18,28.32c-.11-.68-.16-1.33.53-1.93.6-.51.9-1.39,1.53-1.83,1.21-.85,1.96-2.07,2.95-3.09.41-.43,1.04-.65,1.51-1.03.28-.22.71-.65.64-.83-.33-.87.21-1.37.65-1.92,1.42-1.76,2.8-3.55,4.3-5.24.62-.7,1.53-1.13,2.2-1.79.44-.43.69-1.04,1.01-1.58.22-.37.34-.81.62-1.12,1.72-1.88,3.41-3.78,5.22-5.57,1.16-1.15,2.67-1.8,4.21-2.3.75-.24,1.49-.02,1.76.81.63,1.86,1.31,3.72,1.74,5.63.71,3.12,1.31,6.27,1.84,9.43.38,2.22.57,4.47.85,6.71.03.26.07.52-.06.52.98-.77,1.97-1.54,2.94-2.33.95-.78,1.7-1.89,3.19-1.84.13-1.69,1.08-2.95,2.32-4.04.17-.15.28-.37.45-.54.84-.81,1.69-1.61,2.53-2.43,1.08-1.06,2.14-2.13,3.21-3.2.05-.05.1-.15.09-.21-.39-2.74,1.92-3.77,3.35-5.38-.63-.93.5-2.68,1.78-2.99,2.1-.5,3.63.3,4.88,1.83.45.56.83,1.26.99,1.95.92,3.98,1.76,7.98,2.64,11.97.26,1.19.55,2.37.88,3.82.6-.21,1.21-.39,1.78-.65.54-.25,1.06-.57,1.53-.92.97-.73,1.91-1.51,2.87-2.25.68-.52,1.4-.99,2.08-1.5,1.71-1.26,3.41-2.54,5.13-3.79.35-.25.77-.44,1.18-.58,1.49-.5,3-.98,4.5-1.45.86-.27,1.72-.65,2.61-.72,2.05-.15,3.72-1.27,5.54-1.99.63-.25,1.34-.33,2.02-.45.82-.15,1.67-.19,2.46-.42,1.96-.57,3.89-1.22,5.83-1.85,1.01-.33,1.99-.73,3.01-1,.62-.16,1.3-.13,2.17-.21.09.3.3.8.41,1.32.25,1.13.42,2.27.67,3.39.33,1.49-.29,2.83-.51,4.25-.44,2.87-.57,5.78-1.04,8.64-.2,1.18-.75,2.29-.51,3.55.05.29-.22.66-.37.98-.07.14-.29.23-.3.36-.17,1.58-.32,3.16-.48,4.84,1.62-.13,3.26.18,4.36-.45,1.35-.78,2.01-.07,2.94.38.76.37,1.15-.09,1.57-.64.28-.36.66-.75,1.08-.87,1.48-.44,3-.78,4.5-1.13.3-.07.67-.15.93-.04.95.42,1.52.03,1.74-.43.85-.34,1.37-.59,1.92-.77,1.78-.59,3.53-1.3,5.36-1.66.65-.13,1.54.55,2.19,1.03.62.45,1,1.23,1.61,1.69.87.66.78,1.43.45,2.23-.31.74-.32,1.44-.32,2.25,0,1.34-.41,2.72-.87,4-.98,2.73-1.43,5.57-1.97,8.4-.11.58-.18,1.17-.27,1.76.61.03,1.22.03,1.83.11.51.07,1.01.22,1.51.35,1.91.49,3.79,1.11,5.73,1.43,1.79.3,3.4,1.15,5.27,1.3,1.41.11,3.11-.07,4.25,1.31.22.27.83.35,1.24.31,2.05-.2,2.66,1.52,3.58,2.72.49.63-.39,1.66-1.19,1.55-.98-.13-1.79-.03-2.71.65-1.6,1.19-3.46,2.03-5.2,3.04-.37.22-.7.53-1.07.73-2.83,1.56-5.34,3.53-7.7,5.72-1.24,1.15-2.57,2.23-3.69,3.49-1.23,1.4-1.73,3.16-1.68,5.03.09,3.03.32,6.07.28,9.1-.04,3.31-.33,6.62-.48,9.92-.04.89.08,1.79,0,2.68-.25,2.63-.56,5.26-.84,7.88-.14,1.28-.53,2.53-1.89,2.81-.95.2-2.07-.01-3.01-.32-.78-.26-1.4-.97-2.13-1.41-.6-.36-1.27-.51-1.4-1.44-.05-.34-1.02-.48-1.23-.89-.59-1.14-2.14-1.3-2.49-2.62-.02-.09-.18-.17-.28-.2-2.06-.65-3.4-2.26-4.87-3.69-.11-.11-.22-.33-.32-.33-1.68.06-2.23-2.04-3.88-2.02-1.66-1.81-4.05-2.35-6.04-3.57-.85-.52-1.79-.86-2.61-1.42-.99-.67-1.71-.38-2.14.69-.26.65-.64,1.27-1.02,1.86-1.78,2.8-3.68,5.53-5.35,8.39-1.13,1.94-2.01,4.03-2.88,6.11-1.92,4.56-3.76,9.15-5.66,13.71-.6,1.45-1.25,2.89-2.02,4.25-.56,1-1.34,1.97-2.67,1.88-.69-.05-1.5-.22-2.03-.62-1.26-.95-2.39-2.08-3.56-3.14-.57-.52-1.17-1.02-1.7-1.59-1.01-1.07-2-2.16-2.96-3.29-.3-.35-.46-.82-.67-1.24-.08-.17-.06-.52-.16-.55-1.75-.51-1.49-2.4-2.44-3.45-.22-.25-.62-.34-.83-.6-1.02-1.26-2.04-2.51-2.98-3.83-.79-1.12-1.79-2.15-1.87-3.65,0-.14-.33-.28-.52-.38-.17-.08-.47-.04-.55-.16-.69-.98-1.34-1.99-2-3-.15-.23-.3-.45-.46-.67-.86-1.16-1.71-2.33-2.58-3.48-.32-.42-.68-.81-1.12-1.33-1.1,1.47-2.06,2.78-3.06,4.06-.58.74-1.31,1.36-1.83,2.13-1.91,2.82-4.52,4.99-6.93,7.33-2.16,2.1-4.32,4.22-6.68,6.06-1.37,1.07-3.16,1.6-4.75,2.39-.37.19-.79.41-1.03.73-.48.63-.94,1.03-1.81.74-.25-.08-.64.2-.95.33-.28.12-.53.31-.82.41-1.32.47-2.64.95-3.97,1.38-.62.2-1.27.33-1.92.4-1.52.17-2.92.62-4.2,1.48-.51.34-2.22-.6-2.48-1.45-.63-2.01-1.29-4.03-1.68-6.09-.34-1.8-.29-3.67-.49-5.49-.07-.68-.43-1.32-.57-1.99-.15-.71-.21-1.44-.3-2.16-.18-1.37-.39-2.73-.51-4.1-.05-.52.12-1.06.21-1.68-1.39.17-2.87.8-3.86-.97-.72.65-1.28,1.36-2.01,1.77-.72.4-1.6.73-2.4.71-2-.06-3.95.1-5.92.47-1.53.29-3.14.15-4.7.33-1.76.19-3.51.54-5.27.78-1.84.26-3.67.56-5.52.68-2.59.17-5.19.17-7.78.26-2.24.08-4.47.2-6.71.26-1.89.05-3.78.06-5.67.02-2.6-.06-5.2-.21-7.8-.29-1.02-.03-1.59-.99-1.22-2.08.44-1.3.68-2.69,1.3-3.9.65-1.27,1.56-2.45,2.51-3.53,1.62-1.82,3.45-3.39,5.82-4.21.13-.04.18-.3.28-.44.45-.61.9-1.22,1.37-1.81.11-.15.38-.25.4-.39.22-2.27,2.09-3.45,3.3-5.07.85-1.14,1.65-2.32,2.5-3.46.74-.98,1.41-2.07,2.34-2.84.81-.67,1.94-.97,3.1-1.51-.81-.48-1.55-.84-2.2-1.32-3.25-2.41-6.72-4.59-9.65-7.35-2.35-2.21-5.14-3.71-7.56-5.77-2.14-1.82-4.2-3.6-5.66-6.03-.4-.67-1.04-1.22-1.39-1.91-.79-1.54-.16-2.88,1.55-3.22.9-.18,1.86-.07,2.8-.08.23,0,.52.15.69.06,1.83-.9,3.82-.9,5.77-1.15.86-.11,1.7-.45,2.52-.78,1.33-.52,2.62-1.14,3.94-1.67.64-.26,1.31-.48,1.99-.63,2.01-.43,4.02-.84,6.04-1.2.93-.17,1.93-.06,2.83-.32,1.5-.43,2.96-1.01,4.41-1.59.85-.34.64-1.04.44-1.71-.68-2.27-1.64-4.5-1.96-6.82-.41-2.92-.31-5.91-.41-8.87-.05-1.58-.09-3.17-.07-4.75,0-.57.28-1.13.28-1.69,0-.77-.19-1.54-.19-2.31,0-.42.09-1.05.36-1.2.27-.15.9.06,1.21.31.73.58,1.37,1.24,2.42.89.07-.02.2-.02.23.02.86,1.25,2.76,1.21,3.42,2.61.48,1.03,1.35,1.4,2.23,1.54.88.15,1.25.54,1.46,1.3.15.53.37.95,1.1.78.22-.05.56.22.79.41,1.59,1.27,3.14,2.59,4.75,3.83.48.37,1.19.47,1.66.85.49.4.99.93,1.18,1.5.23.72.6,1.06,1.3,1.19,1.42.25,2.82.55,4.24.78.21.03.48-.35.69-.32.4.05.77.26,1.18.41Zm-27.52,47.01c-1.19.83-2.4,1.59-3.5,2.5-.61.5-1.03,1.24-1.51,1.88-.15.2-.27.63-.36.62-1.26-.15-2,.73-2.68,1.47-1.44,1.57-2.61,3.39-4.1,4.91-2.84,2.9-5.69,5.81-9.1,8.09-.61.41-1.02,1.12-1.52,1.69l.16.51c1.45.17,2.9.48,4.35.47,2.68-.03,5.35-.26,8.03-.38.79-.04,1.59,0,2.38.01,2.21.05,4.43.12,6.64.16.63.01,1.27.02,1.88-.09,2.24-.4,4.46-.86,6.69-1.27.71-.13,1.48-.37,2.15-.23,2.17.45,4.18-.28,6.25-.58.97-.14,2.06-.61,2.89-.33.99.33,1.77.03,2.64-.05,1.58-.13,3.17-.22,4.75-.29,1.44-.06,2.87-.13,4.31-.1.61.01,1.45.08,1.79.47,1.19,1.36,2.22,2.87,3.27,4.35.21.29.23.73.29,1.1.05.31-.08.69.05.94,1.1,1.97.62,4.42,1.93,6.33.06.09-.06.3-.06.46,0,.45-.08.94.06,1.35.33.99.94,1.91,1.13,2.91.31,1.66,2.42,1.32,2.83,2.78,0,.02.24.02.34-.02,1.56-.68,3-1.5,3.9-3.11q1.82-.23,2.72-2.07c.08-.15.32-.21.43-.36,1.68-2.15,4.31-3.01,6.43-4.57,2.15-1.58,4.39-3,6.3-4.9.5-.5,1.06-.94,1.58-1.44.95-.91,1.9-1.84,2.83-2.77.63-.63,1.43-1.18,1.82-1.94,1.38-2.66,3.7-4.31,5.85-6.08.44.27.71.43.98.59,1.19.7,2.83.69,3.49,2.24.21.5.44,1.01.76,1.44,2.52,3.39,5.11,6.73,7.6,10.15,2.2,3.01,4.2,6.17,6.46,9.14,1.51,1.99,3.26,3.79,4.97,5.62,1.03,1.1,2.18,2.09,3.5,3.34.49-1.52.8-2.77,1.31-3.94.57-1.3,1.32-2.52,1.99-3.78.05-.1.08-.22.12-.33.75-1.91,1.54-3.8,2.24-5.73.24-.66.13-1.45.38-2.09.52-1.3,1.18-2.55,1.79-3.81.64-1.32,1.03-2.88,1.99-3.9,1.02-1.09.77-2.6,1.96-3.67,1.21-1.09,1.8-2.86,2.67-4.32.12-.19.36-.31.49-.5.53-.73,1.19-1.42,1.53-2.23.36-.87.41-1.86,1.6-2.08.19-.04.35-.36.47-.59.96-1.77,2.84-2.1,4.35-.76.36.31.71.65,1.12.88,1.68.9,3.42,1.69,5.06,2.66,1.26.75,2.39,1.72,3.6,2.55,2.02,1.4,4.08,2.75,6.1,4.16.53.37.93.91,1.43,1.31,1.7,1.37,3.42,2.71,5.12,4.08.94.77,1.83,1.59,2.96,2.58.16-1.25.26-2.06.36-2.86.1-.89.31-1.79.26-2.68-.05-.95-.41-1.87.46-2.66.13-.12,0-.57-.06-.86-.07-.3-.31-.59-.3-.89.05-1.86.08-3.73.24-5.58.1-1.24.52-2.47.56-3.7.04-1.36.17-2.89-.37-4.05-1.19-2.54-.52-4.84.22-7.22.34-1.09.91-2.24.8-3.3-.08-.79.22-1.05.6-1.43.6-.61,1.38-1.09,1.84-1.79,1.11-1.67,2.22-3.24,4.49-3.33.18,0,.46-.25.51-.44.46-1.64,1.98-2.19,3.12-3.13.27-.22.58-.41.9-.54,1.05-.44,2.11-.83,3.16-1.26.58-.24,1.12-.56,1.69-.8,1.17-.48,2.35-.92,3.81-1.49-.58-.23-.82-.37-1.08-.42-2.77-.58-5.55-1.11-8.31-1.74-3.22-.73-6.41-1.75-9.77-1.54-2.07.13-3.51-1.32-3.05-3.58.48-2.32.79-4.66,1.26-6.98.28-1.42.56-2.87,1.14-4.18.42-.95.86-1.85.97-2.9.04-.37.45-.7.48-1.07.08-.84.02-1.7.02-2.41-2.95.78-5.71,1.51-8.46,2.25-.91.24-1.88.35-2.7.74-2.34,1.12-4.8,1.73-7.33,2.12-1.33.21-2.8.14-3.94.72-1.91.97-3.65.38-5.46.05-.66-.12-.95-.49-.66-1.2.26-.65.47-1.34.63-2.02.32-1.33.6-2.68.86-4.02.13-.69.27-1.4.25-2.1-.03-.9-.27-1.78.65-2.44.19-.14.19-.58.24-.88.26-1.64.39-3.3.78-4.9.7-2.83,1.17-5.64.32-8.56-.34.36-.62.67-1.05,1.13-.26-.61-.46-1.08-.74-1.74-1.37.32-2.81.65-4.24,1.01-1.3.33-2.62.62-3.88,1.07-1.1.39-2.16.94-3.19,1.5-1.98,1.08-3.86,2.34-5.89,3.31-1.5.72-3.14,1.16-4.74,1.64-1.26.38-2.62,1.03-3.83.86-1.2-.17-1.74.38-2.42.94-1.96,1.63-3.87,3.3-5.82,4.94-.14.12-.37.12-.55.19-.61.24-1.25.45-1.83.75-.84.43-1.65.92-2.46,1.41-.92.55-1.93.62-2.67-.09-.78-.75-1.15-1.81-.84-2.97.08-.29.22-.67.1-.88-1.06-1.81-.05-4.17-1.58-5.84-.11-.12-.08-.39-.08-.58.03-.99.12-1.98.09-2.97-.01-.37-.27-.75-.47-1.09-.23-.37-.62-.66-.77-1.06-.42-1.11-.7-2.26-1.13-3.36-.13-.34-.54-.57-.83-.85-.22.3-.45.59-.67.89-.18.25-.31.53-.49.78-.76,1.04-1.58,2.04-2.29,3.11-1.41,2.14-2.59,4.41-4.66,6.09-1.26,1.02-2.23,2.4-3.31,3.64-1.27,1.45-2.52,2.93-3.79,4.39-1.11,1.28-2.22,2.55-3.34,3.81-.22.25-.5.49-.8.64-1,.5-2.01,1-2.93.35-.21-.74-.4-1.34-.56-1.95-.22-.82-.43-1.65-.64-2.47-.11-.42-.34-.87-.28-1.27.27-1.87-.77-3.53-.68-5.45.08-1.63-1.04-3.31-1.59-4.98-.16-.47-.18-.99-.24-1.5-.08-.67-.04-1.38-.23-2.02-.39-1.31-.9-2.58-1.44-4.08-.99.81-2,1.46-2.76,2.32-1.28,1.44-2.39,3.04-3.61,4.54-.61.75-1.3,1.42-1.94,2.14-1.86,2.1-3.82,4.13-5.53,6.35-1.65,2.15-3.25,4.29-5.23,6.19-1.49,1.43-3.41,2.73-3.58,5.16-.01.18-.29.45-.48.48-.84.13-1.71.33-2.54.23-1.38-.16-2.79-.38-4.09-.86-1.26-.46-2.48-1.16-3.57-1.94-1.86-1.33-3.46-3.1-5.45-4.16-2.04-1.09-3.65-2.6-5.4-3.98-1.21-.96-2.46-1.85-3.73-2.73-.26-.18-.74-.3-.99-.17-.19.1-.2.6-.25.93-.06.38-.09.77-.13,1.16-.13,1.12-.32,2.23-.38,3.35-.04.63.15,1.26.2,1.89.03.43-.11.88-.02,1.29.36,1.72.09,3.51.84,5.2.72,1.62,1.23,3.35,1.69,5.07.33,1.22.8,2.59.52,3.73-.21.88-1.39,1.67-2.31,2.18-1.29.72-2.72,1.2-4.12,1.7-1.12.4-2.27.93-3.42.97-3.13.12-6.2.3-9.08,1.7-.7.34-1.62.26-2.27.65-2.82,1.65-5.94,1.88-9.07,2.22-.53.06-1.04.76-1.43,1.27-.08.11.49.99.65.96.92-.19,1.2.25,1.39,1.01.04.18.45.24.65.41.4.32.79.65,1.14,1.03.26.29.37.81.67.95.98.47,2.2.35,2.96,1.38.24.33.74.46,1.09.72.43.32.82.69,1.24,1.02.43.34.91.62,1.33.97,1.94,1.64,3.88,3.28,5.79,4.95,1.61,1.42,3.3,2.78,4.73,4.37,1.5,1.67,2.73,3.58,4.29,5.67Z" style="stroke-width: 0px;"/>
    <path d="m31.66,75.33c-1.57-2.1-2.79-4.01-4.29-5.67-1.43-1.59-3.12-2.95-4.73-4.37-1.91-1.68-3.85-3.31-5.79-4.95-.42-.35-.89-.64-1.33-.97-.42-.33-.81-.7-1.24-1.02-.35-.26-.85-.39-1.09-.72-.76-1.02-1.98-.91-2.96-1.38-.3-.15-.41-.66-.67-.95-.34-.38-.74-.7-1.14-1.03-.2-.16-.61-.23-.65-.41-.19-.76-.47-1.2-1.39-1.01-.16.03-.73-.85-.65-.96.38-.51.9-1.21,1.43-1.27,3.13-.34,6.25-.57,9.07-2.22.66-.39,1.57-.31,2.27-.65,2.88-1.39,5.95-1.58,9.08-1.7,1.15-.04,2.31-.57,3.42-.97,1.4-.5,2.83-.98,4.12-1.7.92-.52,2.1-1.31,2.31-2.18.28-1.14-.19-2.51-.52-3.73-.46-1.72-.97-3.45-1.69-5.07-.75-1.69-.48-3.49-.84-5.2-.09-.41.05-.86.02-1.29-.04-.63-.23-1.27-.2-1.89.06-1.12.25-2.23.38-3.35.05-.39.07-.77.13-1.16.05-.33.06-.84.25-.93.25-.12.73,0,.99.17,1.27.88,2.52,1.77,3.73,2.73,1.75,1.39,3.37,2.9,5.4,3.98,1.99,1.06,3.59,2.83,5.45,4.16,1.1.79,2.31,1.48,3.57,1.94,1.3.47,2.71.69,4.09.86.83.1,1.7-.1,2.54-.23.19-.03.47-.3.48-.48.17-2.43,2.08-3.72,3.58-5.16,1.98-1.89,3.57-4.04,5.23-6.19,1.71-2.22,3.67-4.25,5.53-6.35.64-.72,1.33-1.4,1.94-2.14,1.22-1.5,2.33-3.1,3.61-4.54.77-.86,1.78-1.51,2.76-2.32.54,1.51,1.05,2.78,1.44,4.08.19.64.15,1.34.23,2.02.06.5.08,1.02.24,1.5.55,1.67,1.67,3.35,1.59,4.98-.09,1.92.95,3.58.68,5.45-.06.4.18.84.28,1.27.21.83.41,1.65.64,2.47.16.61.35,1.21.56,1.95.92.65,1.93.15,2.93-.35.3-.15.58-.39.8-.64,1.13-1.26,2.24-2.54,3.34-3.81,1.27-1.46,2.51-2.94,3.79-4.39,1.08-1.24,2.05-2.62,3.31-3.64,2.07-1.68,3.25-3.95,4.66-6.09.71-1.07,1.53-2.07,2.29-3.11.18-.25.32-.53.49-.78.21-.3.44-.59.67-.89.28.28.7.51.83.85.43,1.1.71,2.26,1.13,3.36.15.39.54.68.77,1.06.21.34.46.72.47,1.09.03.99-.06,1.98-.09,2.97,0,.2-.03.46.08.58,1.53,1.67.52,4.03,1.58,5.84.12.21-.02.59-.1.88-.31,1.16.06,2.22.84,2.97.74.71,1.75.64,2.67.09.81-.49,1.62-.98,2.46-1.41.58-.3,1.22-.5,1.83-.75.18-.07.41-.08.55-.19,1.94-1.64,3.86-3.31,5.82-4.94.68-.57,1.23-1.11,2.42-.94,1.21.17,2.57-.48,3.83-.86,1.6-.49,3.25-.92,4.74-1.64,2.02-.98,3.91-2.23,5.89-3.31,1.03-.57,2.09-1.11,3.19-1.5,1.26-.45,2.58-.74,3.88-1.07,1.43-.36,2.87-.68,4.24-1.01.28.66.48,1.13.74,1.74.42-.46.71-.77,1.05-1.13.85,2.92.38,5.73-.32,8.56-.4,1.6-.52,3.27-.78,4.9-.05.31-.05.74-.24.88-.92.66-.68,1.54-.65,2.44.02.7-.11,1.41-.25,2.1-.26,1.35-.54,2.69-.86,4.02-.16.69-.37,1.37-.63,2.02-.28.72,0,1.09.66,1.2,1.81.33,3.56.91,5.46-.05,1.14-.58,2.61-.52,3.94-.72,2.54-.4,5-1,7.33-2.12.83-.4,1.8-.5,2.7-.74,2.76-.73,5.51-1.46,8.46-2.25,0,.72.05,1.57-.02,2.41-.03.37-.45.7-.48,1.07-.11,1.05-.55,1.94-.97,2.9-.57,1.31-.86,2.76-1.14,4.18-.47,2.32-.78,4.67-1.26,6.98-.46,2.26.98,3.71,3.05,3.58,3.36-.22,6.54.8,9.77,1.54,2.76.63,5.54,1.15,8.31,1.74.26.05.5.19,1.08.42-1.46.57-2.64,1.01-3.81,1.49-.58.24-1.12.56-1.69.8-1.05.44-2.11.83-3.16,1.26-.32.13-.63.32-.9.54-1.14.94-2.67,1.49-3.12,3.13-.05.19-.33.43-.51.44-2.27.09-3.38,1.66-4.49,3.33-.46.7-1.24,1.18-1.84,1.79-.38.38-.68.64-.6,1.43.11,1.06-.46,2.21-.8,3.3-.74,2.39-1.42,4.68-.22,7.22.54,1.16.41,2.69.37,4.05-.04,1.24-.46,2.46-.56,3.7-.15,1.85-.19,3.72-.24,5.58,0,.29.23.58.3.89.07.28.2.74.06.86-.87.79-.52,1.72-.46,2.66.05.88-.16,1.78-.26,2.68-.09.81-.2,1.62-.36,2.86-1.13-.99-2.02-1.81-2.96-2.58-1.69-1.38-3.42-2.71-5.12-4.08-.5-.41-.91-.95-1.43-1.31-2.02-1.41-4.07-2.76-6.1-4.16-1.21-.84-2.34-1.81-3.6-2.55-1.64-.97-3.38-1.76-5.06-2.66-.41-.22-.77-.56-1.12-.88-1.51-1.34-3.39-1.01-4.35.76-.12.22-.28.55-.47.59-1.19.23-1.24,1.21-1.6,2.08-.34.82-.99,1.5-1.53,2.23-.14.19-.38.31-.49.5-.88,1.46-1.46,3.24-2.67,4.32-1.19,1.06-.94,2.58-1.96,3.67-.96,1.02-1.36,2.58-1.99,3.9-.61,1.27-1.27,2.51-1.79,3.81-.26.64-.15,1.43-.38,2.09-.7,1.93-1.48,3.82-2.24,5.73-.04.11-.07.23-.12.33-.67,1.26-1.42,2.48-1.99,3.78-.51,1.17-.82,2.43-1.31,3.94-1.31-1.24-2.47-2.23-3.5-3.34-1.71-1.83-3.46-3.63-4.97-5.62-2.25-2.97-4.26-6.13-6.46-9.14-2.49-3.42-5.08-6.76-7.6-10.15-.32-.43-.55-.94-.76-1.44-.66-1.55-2.3-1.54-3.49-2.24-.27-.16-.54-.32-.98-.59-2.15,1.78-4.47,3.42-5.85,6.08-.39.76-1.19,1.31-1.82,1.94-.93.93-1.88,1.86-2.83,2.77-.51.49-1.07.93-1.58,1.44-1.9,1.89-4.15,3.32-6.3,4.9-2.12,1.56-4.74,2.42-6.43,4.57-.11.14-.36.2-.43.36q-.91,1.84-2.72,2.07c-.89,1.61-2.34,2.43-3.9,3.11-.1.04-.33.05-.34.02-.41-1.46-2.52-1.12-2.83-2.78-.19-1-.8-1.92-1.13-2.91-.14-.41-.05-.9-.06-1.35,0-.16.12-.36.06-.46-1.31-1.91-.83-4.36-1.93-6.33-.14-.24,0-.63-.05-.94-.06-.38-.08-.81-.29-1.1-1.04-1.48-2.08-2.98-3.27-4.35-.34-.39-1.18-.45-1.79-.47-1.43-.03-2.87.03-4.31.1-1.59.07-3.17.16-4.75.29-.88.07-1.66.38-2.64.05-.83-.28-1.92.19-2.89.33-2.07.3-4.09,1.03-6.25.58-.67-.14-1.44.1-2.15.23-2.23.41-4.46.87-6.69,1.27-.61.11-1.25.1-1.88.09-2.21-.04-4.43-.11-6.64-.16-.79-.02-1.59-.05-2.38-.01-2.68.12-5.35.36-8.03.38-1.45.01-2.9-.3-4.35-.47l-.16-.51c.5-.57.91-1.28,1.52-1.69,3.41-2.29,6.25-5.2,9.1-8.09,1.49-1.52,2.66-3.34,4.1-4.91.68-.74,1.42-1.63,2.68-1.47.09.01.21-.42.36-.62.49-.64.91-1.38,1.51-1.88,1.1-.9,2.31-1.66,3.5-2.5Zm103.05-3.01c-.06-.01-.12-.02-.18-.03-.03-.56-.07-1.12-.1-1.67-.07-1.81-.86-3.17-2.62-3.72-1.59-.5-3.22-.87-4.85-1.19-.84-.17-1.34-.42-1.5-1.37-.14-.85-.53-1.67-.91-2.46-.56-1.14-2.07-1.66-3.29-1.22-.97.35-1.44,1.37-1.11,2.72.85,3.56.72,7.12.27,10.71-.23,1.85-.39,3.73-.41,5.6-.01,1.33.55,1.69,2.06,1.69,1.92,0,2.38-.34,2.55-1.76.38-3.17.81-6.34,1.17-9.51.08-.74.46-.93,1.1-.95,2.13-.07,3.1.69,2.84,2.78-.4,3.23-1.06,6.44-1.72,9.63-.49,2.36-.17,2.92,2.25,3.18.24.03.48.05.72.04.83-.02,1.32-.41,1.5-1.25.33-1.51.77-3,1.07-4.51.44-2.22.79-4.47,1.18-6.7Zm-70.66,4.51h-.05c0,.88-.09,1.77.02,2.63.31,2.67,1.32,5.01,3.61,6.6,1.18.82,2.51,1.16,3.84.45,1.71-.91,3.4-1.87,4.65-3.43.65-.8.31-1.54-.13-2.19-.51-.74-1.13-.45-1.76-.02-.55.38-1.16.72-1.79.95-1.65.6-3.29-.34-3.42-2.07-.15-2.06-.11-4.15-.08-6.22,0-.32.27-.82.53-.93,1.17-.46,2.4-.74,3.56-1.22.44-.18,1.06-.71,1.04-1.05-.03-.47-.48-1.1-.93-1.33-.69-.35-1.52-.48-2.3-.59-1-.13-1.18-.65-1.13-1.57.08-1.63.17-3.28-.02-4.88-.19-1.65-.78-1.87-2.3-1.26-.52.21-1.02.46-1.56.61-.64.18-.89.53-.86,1.21.05,1.12-.07,2.24.01,3.35.1,1.24-.44,1.81-1.6,2.06-1.25.26-2.48.59-3.7.97-.68.21-1.38.73-.85,1.49.49.69,1.28,1.2,2.02,1.64.37.21.94.07,1.42.1,1.45.08,1.71.34,1.78,1.82.04.96,0,1.91,0,2.87Zm-19.39,5.79c2.17.11,4.25-.23,5.83-1.85,1.14-1.16,2.19-2.44,3.09-3.8,1.17-1.76.84-3.63-.47-5.3-1.6-2.05-3.93-2.8-6.18-3.67-1.21-.47-1.97-1.12-2.2-2.4-.24-1.29.39-2.17,1.35-2.85,1.44-1.02,3.01-1.67,4.84-1.72.86-.02,1.74-.43,2.54-.81.23-.11.39-.78.29-1.11-.21-.74-2.61-2.12-3.38-1.99-1.71.29-3.47.46-5.1.99-2.84.92-4.73,2.93-5.46,5.86-.68,2.72.89,5.71,3.41,6.62,1.11.4,2.38.5,3.33,1.11,1.03.66,1.79,1.75,2.64,2.68.08.09.03.42-.08.55-1.07,1.41-1.92,3.08-3.89,3.52-.66.15-1.32.31-1.96.53-1.07.37-1.55,1.29-1.42,2.47.13,1.23,1.04,1.11,1.87,1.15.32.01.64,0,.96,0Zm43.49-3.43c1.15-.15,2.3-.27,3.44-.46.72-.12,1.52-.28,1.36-1.29-.14-.92-.71-1.6-1.69-1.53-1.91.13-3.15-.65-4.04-2.33-.43-.82-.32-1.25.4-1.64,1.16-.62,2.3-1.29,3.52-1.77,1.67-.66,2.75-1.9,3.58-3.37,1.65-2.94.22-6.74-2.9-7.72-2.33-.73-4.75-.28-6.74.74-2.89,1.48-4.4,4.13-4.33,7.56.08,3.55,1.28,6.7,3.12,9.66.98,1.57,2.4,2.28,4.27,2.14Zm11.51-11.6s-.08,0-.12,0c.09,1.07.06,2.17.31,3.21.58,2.52,1.21,5.04,1.99,7.5.5,1.57,1.51,2.93,3.29,3.14,3.86.46,8.75-3.46,9.39-7.35.32-1.96.8-3.9,1.1-5.86.33-2.14.95-4.27-1.19-6.07-.94-.8-1.45-.41-1.81.15-.58.91-1.11,1.96-1.29,3.02-.47,2.74-.76,5.52-1.09,8.28-.15,1.27-.68,2.28-1.74,3-1.29.88-2.03.63-2.46-.85-.87-2.99-1.64-5.97-1.68-9.15-.04-2.72-.64-3.44-3.28-2.89-.92.19-1.44.6-1.43,1.58.02.76,0,1.52,0,2.28Zm-4.78-23.46c-.11-3.64-1.18-4.52-4.76-5.44-.69-.18-1.46-.11-2.12-.34-.43-.15-.86-.58-1.08-.99-.37-.69-.52-1.51-.87-2.22-.51-1.04-1.79-1.51-2.85-1.09-1.08.43-1.19,1.37-.97,2.3.74,3.21.61,6.41.2,9.64-.18,1.46-.34,2.94-.34,4.4,0,1.35.43,1.64,1.79,1.65,1.7,0,2.05-.26,2.22-1.63.33-2.61.66-5.23,1.02-7.84.05-.34.18-.94.31-.95.73-.05,1.52-.08,2.19.15.4.14.9.78.9,1.19,0,1.39-.09,2.79-.33,4.15-.35,1.96-.83,3.9-1.3,5.84-.26,1.05.15,1.61,1.14,1.83.47.1.94.18,1.42.21.83.05,1.33-.31,1.51-1.18.25-1.24.63-2.46.87-3.7.39-1.99.71-3.99,1.06-5.99Zm3.38,2.97c.02,1.67.98,3.46,2.23,3.62,1.88.23,3.8.16,5.71.25.62.03,1.32.05,1.84.34,1.08.58,1.9.01,2.62-.54.34-.26.47-1.03.41-1.54-.13-1.14-.55-2.25-.67-3.39-.44-4.28-.8-8.57-1.2-12.85-.06-.67-.07-1.38-.29-2-.16-.45-.64-1.11-.97-1.11-.64,0-1.32.33-1.89.68-.27.17-.42.7-.43,1.07-.05,1.98-.13,3.96-.01,5.93.11,1.8.05,2.05-1.7,2.51-.62.16-1.26.25-1.85.48-.55.21-1.18.45-1.52.88-1.3,1.66-2.16,3.53-2.27,5.68Zm23.13,3.06c.95-.12,1.91-.2,2.84-.37.61-.11,1.39-.21,1.26-1.11-.12-.82-.65-1.44-1.54-1.37-1.65.12-2.69-.59-3.45-2.02-.39-.74-.22-1.11.4-1.44,1.06-.55,2.11-1.13,3.21-1.61,1.45-.62,2.4-1.74,3.03-3.09,1.23-2.64-.08-5.72-2.74-6.47-2.01-.57-4.09-.2-5.81.7-2.47,1.29-3.75,3.58-3.68,6.51.07,2.96.99,5.62,2.51,8.13.91,1.51,2.16,2.31,3.97,2.14Zm9.88-11.39c-.09,0-.19.01-.28.02.4,4.09.79,8.17,1.18,12.26.1,1.05.59,1.77,1.71,1.78,1.44,0,2.37-.94,2.4-2.41.02-1.04-.04-2.08-.14-3.11-.23-2.34-.59-4.67-.73-7.02-.15-2.39,1.69-3.48,3.76-2.21.86.52,1.79,1.27,2.17,2.15.59,1.35,1.47,1.31,2.59,1.17,1.78-.23,2.25-.99,1.53-2.67-.17-.4-.42-.77-.69-1.11-1.89-2.33-4.57-2.94-7.34-3.2-1.18-.11-2.1-.24-2.73-1.44-.62-1.16-1.8-.54-2.7-.37-.31.06-.65.8-.68,1.25-.08,1.63-.03,3.27-.03,4.91Zm-67.12,5.04c-.03,3.15.59,3.98,2.95,4.77.51.17.97.53,1.43.83.33.21.6.55.96.69,2.9,1.12,7.34-1.49,8.16-3.53.88-2.18.77-4.39-.08-6.54-.22-.56-.81-1.03-1.33-1.41-.59-.44-1.26-.8-1.94-1.1-1.04-.47-2.1-.87-3.17-1.27-.13-.05-.36.09-.52.18-.61.35-1.17.82-1.82,1.08-3.18,1.27-4.43,3.79-4.65,6.31Zm89.29-.34s0,.06-.01.09c-.6,0-1.2-.02-1.79,0-1.34.05-2,.59-2.06,1.66-.05.81,1.02,2.21,1.88,2.34,2.63.4,5.27.77,7.91,1.11,1,.13,1.79-.46,1.85-1.27.1-1.32-1.14-3.05-2.44-3.25-1.77-.28-3.55-.47-5.32-.7Z" style="fill: #fff; stroke-width: 0px;"/>
    <path d="m134.72,72.32c-.39,2.23-.74,4.48-1.18,6.7-.3,1.52-.74,3-1.07,4.51-.18.84-.67,1.23-1.5,1.25-.24,0-.48-.01-.72-.04-2.42-.26-2.74-.82-2.25-3.18.67-3.19,1.32-6.4,1.72-9.63.26-2.09-.71-2.85-2.84-2.78-.64.02-1.02.21-1.1.95-.36,3.17-.79,6.34-1.17,9.51-.17,1.42-.63,1.76-2.55,1.76-1.51,0-2.08-.35-2.06-1.69.02-1.87.18-3.74.41-5.6.45-3.59.58-7.16-.27-10.71-.32-1.35.15-2.37,1.11-2.72,1.22-.45,2.73.08,3.29,1.22.38.78.77,1.61.91,2.46.16.95.66,1.2,1.5,1.37,1.63.33,3.26.7,4.85,1.19,1.77.55,2.55,1.91,2.62,3.72.02.56.06,1.12.1,1.67.06.01.12.02.18.03Z" style="stroke-width: 0px;"/>
    <path d="m64.06,76.84c0-.96.03-1.92,0-2.87-.06-1.48-.33-1.73-1.78-1.82-.48-.03-1.05.12-1.42-.1-.75-.44-1.54-.96-2.02-1.64-.53-.75.17-1.28.85-1.49,1.22-.38,2.45-.71,3.7-.97,1.16-.24,1.69-.82,1.6-2.06-.09-1.11.03-2.24-.01-3.35-.03-.68.22-1.02.86-1.21.53-.15,1.04-.41,1.56-.61,1.53-.61,2.11-.39,2.3,1.26.19,1.61.11,3.26.02,4.88-.05.92.14,1.43,1.13,1.57.79.1,1.61.24,2.3.59.44.23.9.86.93,1.33.02.34-.6.87-1.04,1.05-1.16.47-2.39.76-3.56,1.22-.27.1-.53.61-.53.93-.02,2.07-.07,4.15.08,6.22.13,1.73,1.77,2.66,3.42,2.07.63-.23,1.23-.57,1.79-.95.63-.43,1.25-.72,1.76.02.45.65.78,1.39.13,2.19-1.25,1.56-2.94,2.52-4.65,3.43-1.33.71-2.66.37-3.84-.45-2.29-1.59-3.3-3.92-3.61-6.6-.1-.87-.02-1.75-.02-2.63h.05Z" style="stroke-width: 0px;"/>
    <path d="m44.67,82.63c-.32,0-.64.01-.96,0-.83-.04-1.74.07-1.87-1.15-.13-1.18.35-2.1,1.42-2.47.64-.22,1.3-.39,1.96-.53,1.97-.44,2.81-2.11,3.89-3.52.1-.13.16-.46.08-.55-.85-.93-1.61-2.02-2.64-2.68-.95-.61-2.23-.71-3.33-1.11-2.52-.91-4.09-3.89-3.41-6.62.73-2.93,2.62-4.94,5.46-5.86,1.64-.53,3.39-.71,5.1-.99.77-.13,3.17,1.26,3.38,1.99.09.33-.06,1-.29,1.11-.8.38-1.68.79-2.54.81-1.83.05-3.4.7-4.84,1.72-.96.68-1.59,1.56-1.35,2.85.23,1.28.99,1.93,2.2,2.4,2.25.87,4.58,1.62,6.18,3.67,1.31,1.67,1.64,3.54.47,5.3-.9,1.35-1.95,2.63-3.09,3.8-1.58,1.61-3.65,1.96-5.83,1.85Z" style="stroke-width: 0px;"/>
    <path d="m88.16,79.2c-1.86.14-3.29-.57-4.27-2.14-1.84-2.96-3.05-6.11-3.12-9.66-.07-3.43,1.43-6.08,4.33-7.56,1.99-1.02,4.41-1.47,6.74-.74,3.12.98,4.55,4.78,2.9,7.72-.83,1.47-1.91,2.71-3.58,3.37-1.22.48-2.36,1.15-3.52,1.77-.72.38-.83.82-.4,1.64.89,1.68,2.13,2.46,4.04,2.33.98-.07,1.55.61,1.69,1.53.16,1-.64,1.17-1.36,1.29-1.14.18-2.29.31-3.44.46Zm2.48-15.84c-.23-.44-.46-1.2-.96-1.64-.2-.18-1.17.17-1.52.54-1.68,1.78-2.65,3.84-2.27,6.4.14.91.47,1.08,1.26.7,2.4-1.15,2.99-3.36,3.48-6Z" style="stroke-width: 0px;"/>
    <path d="m99.67,67.61c0-.76.01-1.52,0-2.28-.02-.98.51-1.39,1.43-1.58,2.65-.55,3.24.18,3.28,2.89.04,3.17.81,6.16,1.68,9.15.43,1.48,1.18,1.73,2.46.85,1.05-.72,1.59-1.73,1.74-3,.32-2.77.61-5.54,1.09-8.28.18-1.06.71-2.1,1.29-3.02.36-.56.86-.95,1.81-.15,2.14,1.8,1.52,3.93,1.19,6.07-.31,1.96-.78,3.9-1.1,5.86-.64,3.89-5.53,7.8-9.39,7.35-1.78-.21-2.8-1.57-3.29-3.14-.78-2.46-1.4-4.98-1.99-7.5-.24-1.04-.21-2.14-.31-3.21.04,0,.08,0,.12,0Z" style="stroke-width: 0px;"/>
    <path d="m94.89,44.14c-.35,2-.67,4-1.06,5.99-.24,1.24-.63,2.46-.87,3.7-.17.87-.67,1.23-1.51,1.18-.47-.03-.95-.11-1.42-.21-.99-.22-1.4-.78-1.14-1.83.48-1.94.96-3.87,1.3-5.84.24-1.36.33-2.77.33-4.15,0-.42-.49-1.05-.9-1.19-.67-.23-1.46-.19-2.19-.15-.13,0-.26.61-.31.95-.35,2.61-.69,5.22-1.02,7.84-.17,1.37-.53,1.64-2.22,1.63-1.37,0-1.79-.3-1.79-1.65,0-1.47.16-2.94.34-4.4.41-3.23.54-6.43-.2-9.64-.22-.94-.1-1.88.97-2.3,1.06-.42,2.34.06,2.85,1.09.35.71.5,1.52.87,2.22.22.41.65.84,1.08.99.67.23,1.43.16,2.12.34,3.58.91,4.65,1.8,4.76,5.44Z" style="stroke-width: 0px;"/>
    <path d="m98.27,47.11c.11-2.15.97-4.02,2.27-5.68.34-.43.98-.67,1.52-.88.59-.23,1.23-.31,1.85-.48,1.75-.46,1.81-.71,1.7-2.51-.12-1.97-.04-3.96.01-5.93,0-.37.16-.91.43-1.07.57-.35,1.25-.68,1.89-.68.33,0,.81.66.97,1.11.22.62.23,1.33.29,2,.4,4.28.76,8.57,1.2,12.85.12,1.14.53,2.25.67,3.39.06.51-.07,1.28-.41,1.54-.72.56-1.54,1.13-2.62.54-.52-.28-1.22-.3-1.84-.34-1.9-.1-3.82-.02-5.71-.25-1.26-.16-2.21-1.95-2.23-3.62Zm7.83-3.85c-1.73-.23-2.9.51-3.38,2.11-.25.83-.16,1.76-.23,2.65,1,.05,2.01.15,3.01.13.21,0,.57-.45.58-.7.06-1.41.03-2.83.03-4.19Z" style="stroke-width: 0px;"/>
    <path d="m121.4,50.18c-1.81.17-3.06-.62-3.97-2.14-1.51-2.51-2.43-5.17-2.51-8.13-.07-2.93,1.21-5.21,3.68-6.51,1.72-.9,3.8-1.27,5.81-.7,2.66.75,3.97,3.83,2.74,6.47-.63,1.35-1.58,2.46-3.03,3.09-1.1.47-2.15,1.05-3.21,1.61-.62.32-.8.7-.4,1.44.76,1.43,1.8,2.14,3.45,2.02.89-.06,1.42.55,1.54,1.37.13.9-.65,1-1.26,1.11-.94.17-1.9.25-2.84.37Zm-2.06-10.37c0,.35,0,.55,0,.75.05,1.37.36,1.54,1.57.82,1.54-.91,2.77-3.64,2.41-5.39-.23-1.14-1.1-1.5-1.86-.64-1.15,1.3-2.38,2.64-2.13,4.46Z" style="stroke-width: 0px;"/>
    <path d="m131.28,38.78c0-1.64-.05-3.28.03-4.91.02-.45.37-1.19.68-1.25.91-.18,2.09-.8,2.7.37.63,1.2,1.55,1.33,2.73,1.44,2.77.25,5.45.87,7.34,3.2.27.34.52.71.69,1.11.72,1.68.26,2.44-1.53,2.67-1.12.14-2,.18-2.59-1.17-.38-.87-1.31-1.62-2.17-2.15-2.07-1.26-3.9-.18-3.76,2.21.14,2.35.5,4.68.73,7.02.1,1.03.16,2.07.14,3.11-.02,1.47-.96,2.42-2.4,2.41-1.12,0-1.61-.73-1.71-1.78-.39-4.09-.79-8.17-1.18-12.26.09,0,.19-.01.28-.02Z" style="stroke-width: 0px;"/>
    <path d="m64.16,43.82c.22-2.52,1.47-5.04,4.65-6.31.65-.26,1.21-.72,1.82-1.08.16-.09.39-.23.52-.18,1.07.4,2.13.8,3.17,1.27.68.3,1.35.66,1.94,1.1.51.39,1.11.85,1.33,1.41.84,2.15.95,4.36.08,6.54-.82,2.05-5.26,4.65-8.16,3.53-.35-.14-.63-.48-.96-.69-.46-.3-.92-.66-1.43-.83-2.36-.79-2.98-1.61-2.95-4.77Zm9.86-.17c.01-2.25-.39-2.74-2-2.94-1.46-.18-2.47.48-2.98,1.7-.5,1.21-1.29,2.43.01,3.83,1.59,1.7,1.49,1.82,3.35.48,1.1-.79,1.8-1.81,1.61-3.07Z" style="stroke-width: 0px;"/>
    <path d="m153.45,43.48c1.78.23,3.56.42,5.32.7,1.3.21,2.54,1.93,2.44,3.25-.06.8-.85,1.4-1.85,1.27-2.64-.34-5.28-.72-7.91-1.11-.86-.13-1.93-1.54-1.88-2.34.07-1.07.72-1.61,2.06-1.66.6-.02,1.2,0,1.79,0,0-.03,0-.06.01-.09Z" style="stroke-width: 0px;"/>
    <path d="m90.64,63.36c-.49,2.64-1.08,4.85-3.48,6-.79.38-1.13.21-1.26-.7-.39-2.56.58-4.62,2.27-6.4.35-.37,1.32-.72,1.52-.54.5.44.72,1.2.96,1.64Z" style="fill: #fff; stroke-width: 0px;"/>
    <path d="m106.11,43.27c0,1.37.03,2.78-.03,4.19-.01.25-.37.69-.58.7-1,.02-2.01-.07-3.01-.13.07-.89-.02-1.82.23-2.65.48-1.61,1.65-2.34,3.38-2.11Z" style="fill: #fff; stroke-width: 0px;"/>
    <path d="m119.34,39.8c-.25-1.82.98-3.16,2.13-4.46.76-.86,1.63-.5,1.86.64.35,1.74-.87,4.47-2.41,5.39-1.21.72-1.53.55-1.57-.82,0-.2,0-.4,0-.75Z" style="fill: #fff; stroke-width: 0px;"/>
    <path d="m74.03,43.65c.2,1.26-.51,2.28-1.61,3.07-1.86,1.33-1.77,1.22-3.35-.48-1.3-1.39-.51-2.62-.01-3.83.51-1.23,1.52-1.88,2.98-1.7,1.61.19,2.01.69,2,2.94Z" style="fill: #fff; stroke-width: 0px;"/>
  </g>
</svg>