<?xml version="1.0" encoding="UTF-8"?>
<svg id="Layer_2" data-name="Layer 2" xmlns="http://www.w3.org/2000/svg" viewBox="0 0 1271.59 1218.59">
  <g id="Layer_1-2" data-name="Layer 1">
    <g>
      <path d="m150.31,465.18c.23-1.92,1.03-3.99.58-5.74-1.64-6.37-4.04-12.32-3-19.39,2.34-15.83,21.75-23.36,34.18-13.53.37.29.82.5,1.73,1.04,5.66-9.2,10.97-18.56,16.96-27.46,16.32-24.27,32.85-48.39,49.43-72.47,7.92-11.5,15.74-23.12,24.37-34.07,9.57-12.14,20.62-23.13,29.92-35.45,11.31-14.97,22.18-30.38,31.95-46.38,14.71-24.09,35.39-39.52,62.1-47.66,12.7-3.87,25.88-7.05,37.57-13.04,10.01-5.13,20.44-6.67,30.87-9.17,10.97-2.63,21.97-5.15,32.94-7.79,14.97-3.61,29.93-7.28,44.9-10.91,1.67-.41,3.38-.67,5.32.11-6.58,1.67-13.16,3.34-19.73,5.01.05.28.1.55.15.83,7.54-.56,15.07-1.39,22.61-1.62,26.13-.81,51.63,3.69,76.77,10.22,47.29,12.28,94.37,25.29,140.67,41.05,20.03,6.82,40.74,11.59,61.11,17.41,33.65,9.62,62.66,27.66,89.71,49.39,15.96,12.82,26.25,29.78,36.36,47.07,17.23,29.43,34.78,58.66,52.18,87.99,1,1.68,1.82,3.46,2.79,5.31-10.52,1.38-11.21,2.01-15.98,14.47-6.59-11.55-12.81-23.26-19.78-34.49-20.27-32.67-41.15-64.89-66.59-93.95-15.51-17.72-34.52-30.42-55.58-39.67-22.57-9.92-45.68-18.94-69.18-26.35-52.61-16.59-105.52-32.26-158.48-47.67-27.44-7.99-55.67-11.33-84.31-9.48-20.47,1.32-40.36,5.93-59.97,11.74-24.98,7.4-49.88,15.03-73.19,26.99-3.54,1.82-7.05,3.71-10.54,5.64-2.95,1.62-5.31,3.55-9.48,1.95-2.12-.81-6.34,1.68-8.58,3.79-4.45,4.18-8.21,9.11-12.22,13.75-1.62,1.88-3.19,3.81-4.76,5.69-5.72-3.97-8.47-3.57-12.06,2.63-3.66,6.32-6.92,12.9-9.92,19.57-8.65,19.22-22.51,34.86-34.86,51.53-2.47,3.33-5.15,6.53-8,9.52-2.83,2.98-2.32,5.27.87,7.28,5.18,3.27,10.27,6.74,15.67,9.62,12.87,6.86,25.82,13.57,38.88,20.05,11.33,5.63,22.64,4.23,34.17-.19,5.93-2.27,12.55-2.67,18.79-4.18,9.14-2.21,17.63-5.73,24.46-12.61,3.02-3.04,3.52-6.08,1.85-9.91-6.7-15.37-13.43-30.74-19.82-46.24-1-2.43-.86-5.7-.26-8.36,1.2-5.29.5-6.64-4.44-8.41-1.38-.49-2.9-3.04-2.87-4.61.11-5.25-.99-9.85-4.44-13.91-.77-.91-1.01-2.39-1.19-3.65-1.17-8.18-1.09-16.2,2.43-23.96.41-.91-1.19-2.74-2.32-5.12,2.49-5.3,9.27-8.42,15.99-6.25,7.75,2.5,12.47,9.46,10.64,16.77-2.8,11.15-.71,21.71,4.3,31.44,7.07,13.73,14.8,27.16,22.93,40.3,6.98,11.28,13.83,22.38,13.23,36.43.51-.02,1.01-.03,1.52-.05.12-2.11.64-4.29.28-6.31-1.88-10.47-4.26-20.86-5.93-31.36-1.18-7.41-5.14-13.11-9.25-19.02-3.96-5.69-7.54-11.75-10.47-18.03-2.17-4.64.2-9.59,4.45-11.89,3.64-1.97,8.49-1.12,11.43,3.02,6.22,8.78,12.22,17.73,17.78,26.94,2.21,3.67,2.22,8.72,4.59,12.22,4.43,6.52,9.86,12.37,15.53,19.31,5.63-10.51,12.08-5.22,18.1-2.04,26.22,13.85,53.49,25.19,81.56,34.65,2.11.71,4.81,1.32,6.74.63,8.11-2.93,16.3-2.58,24.63-1.79,3.76.36,7.59.06,11.53.06,1.05-4.58,2.07-9.02,3.15-13.7-13.67.45-26.09-4.93-38.87-8.9-20.1-6.25-40.42-11.81-60.38-18.48-31.74-10.6-59.79-27.19-81.48-53.31-7.61-9.16-13.91-19.02-15.67-31.24-1.19-8.27,3.89-17.82,11.98-21.6,8.13-3.8,18.59-2.18,23.84,4.16,2.38,2.87,4.92,6.19,5.71,9.69,2.52,11.19,8.95,19.96,16.15,28.28,15.62,18.05,35.16,30.71,56.47,41.01,23.11,11.17,47.56,17.25,72.89,20.38,3.9.48,5.99-.33,7.48-4.35,7.99-21.64,12.55-43.94,13.96-66.94.49-7.97,7.34-13.3,15.59-12.46,9.14.93,15.35,8.59,14.07,17.68-.65,4.6-1.96,9.11-2.67,13.71-2.37,15.26-4.55,30.54-6.92,45.8-2.32,15.01-7.28,28.37-22.26,34.55,1.34,3.68,2.63,7.19,4,10.95,3.25-1.43,6.75-3.25,10.44-4.51,5.59-1.91,11.25-3.03,16.79.54.72.47,2.27.28,3.12-.18,8.79-4.78,11.43-.03,14.58,6.12.59,1.15.94,2.58.89,3.86-.53,15.63,8.56,26.88,17.65,37.86,13.09,15.81,29.96,26.62,48.53,34.97,28.52,12.82,58.49,20.65,89.09,26.43,3.93.74,5.96-.14,7.83-3.8,1.44-2.82,3.98-5.48,6.69-7.11,1.93-1.16,5.96-1.64,7.3-.45,4.07,3.61,8.12,2.82,12.81,2.36,8.18-.81,14.97,5.81,15.64,15.36.41,5.89.26,12.07-1.06,17.79-2.83,12.29-6.26,24.41-12.81,35.48-6.45,10.91-14.91,18.58-28.12,20.36.47,5.3,1.31,10.23,1.23,15.14-.08,4.75-1.59,9.48-1.6,14.23,0,4.9.57,9.92,1.74,14.68,2.26,9.13,5.13,18.11,7.74,27.15.71.06,1.43.12,2.14.18.65-1.83,1.77-3.64,1.86-5.5.59-11.13.68-22.29,1.5-33.41.34-4.55,1.5-9.25,3.3-13.44,2.9-6.76,10.07-8.87,16.15-4.87,4.27,2.81,7.89,6.61,12,9.69,1.73,1.3,4.04,2.75,6.01,2.65,6.93-.36,10.76,3.58,13.82,8.88,1.16,2.01,2.36,4.11,2.94,6.33,2.19,8.4,7.98,14.39,13.29,20.75,2,2.39,3.84,3.08,6.81,1.5,24.67-13.08,48.78-9.79,72.45,2.83,5.7,3.04,11.05,6.79,16.88,9.52,2.36,1.1,5.68.83,8.41.34,7.99-1.43,15.87-3.44,23.85-4.87,2.18-.39,4.68.09,6.85.76,4.43,1.37,6.86,4.78,7.19,9.27.37,5.12-3.24,8.21-6.89,10.85-2.67,1.93-5.79,3.26-8.72,4.82-4.08,2.16-4.07,4.68-.47,7.96,2.04-1.76,4.07-3.39,5.97-5.15,3.43-3.18,7.31-4.9,11.82-2.85,4.57,2.07,6.76,6.27,6.5,10.97-.45,8.1-1.02,16.3-2.74,24.19-2.39,10.9-9.32,19.36-17.17,26.99-1.28,1.25-2.92,2.26-4.56,2.99-7.67,3.43-13.9-.42-14.02-8.77-.15-10.49.11-20.98-.2-31.46-.08-2.86-1.56-5.68-2.91-8.34-2.51,11.42-8.46,16.14-22.69,17.55-11.38,1.13-22.78,2.07-34.15,3.27-1.86.2-3.92.95-5.4,2.09-15.56,11.95-31.05,23.99-46.48,36.12-1.23.97-1.85,2.73-2.77,4.1-1.06.18-2.23.14-3.14.61-6.14,3.23-12.11,6.77-18.34,9.8-6.49,3.16-11.79,1-14.55-5.64-1.44-3.47-2.51-7.09-3.76-10.66-7.73,3.24-11.82,1.13-13.43-6.88-1.87-9.28-3.52-18.6-5.41-27.88-.35-1.7-.91-3.93-2.15-4.77-7.46-5.07-8.06-6.82-7.06-15.66.47-4.14.2-8.72-1.11-12.64-8.27-24.77-17.02-49.37-25.34-74.12-1.29-3.85-1.62-8.16-1.64-12.27-.05-8.57.85-17.17.5-25.72-.27-6.66-1.85-13.27-2.78-19.43-7.47,4.77-14.3,9.33-21.32,13.56-9.89,5.94-28.19-.19-29.55-15.17-.31-3.47-.89-6.92-.96-10.39-.14-7.18-.03-7.68-6.98-7.75-18.11-.18-36.23.46-54.34.1-9.82-.2-15.52,4.75-20.6,12.23-3.41,5.02-7.46,9.93-12.2,13.62-3.98,3.09-9.38,4.35-13.84,6.29,1.71,3.72,3.78,8.24,5.83,12.7,6.86-11.03,18.9-13.62,30.63-14.94,9.7-1.09,17-2.69,22.48-12.29,8.28-14.51,22.37-16.44,36.29-6.99,11.27,7.65,16.81,19.44,22.65,31.05,3.28,6.51,6.28,13.21,10.11,19.39,3.23,5.19,7.89,9.48,11.2,14.62,12.29,19.09,23.1,38.91,28,61.43.47,2.17,1.57,4.36,2.92,6.14,3.01,3.97,6.36,7.67,9.56,11.5,2.34,2.79,2.8,5.73.1,8.48-2.68,2.73-5.57,2.58-8.34-.06-.57-.55-1.2-1.03-2.06-1.74-3.76,6.5-8.93,5.51-14.75,2.68,0,1.66-.17,2.8.03,3.88,1.41,7.75,2.13,15.68,5.97,22.81,1.86,3.46,1.29,5.92-2.59,7.98-4.21,2.23-5.66,6.49-4.9,11.12.77,4.68,3.85,7.61,8.3,9.05,1.23.4,2.55.5,4.41.85,0,3.88.36,7.73-.06,11.49-2.07,18.32-4.41,36.6-6.53,54.91-1.08,9.28-1.62,18.59,1.82,27.56,1.7,4.44,5.69,6.22,9.56,4.56,3.52-1.51,4.65-5.37,3.11-9.73-1.21-3.42-3-6.94-3.02-10.43-.07-17.79.34-35.57.62-53.36.01-.8.46-1.59,1.09-3.65,1.93,12.28,4.31,23.17,5.19,34.18.88,11.03.87,22.23.13,33.28-.54,8.03-2.71,15.97-4.52,23.87-1.13,4.93-.8,8.64,4.53,10.86,2.88,1.2,5.36,3.34,8.12,4.86,7.4,4.07,14.85,8.03,22.68,12.25,0-1.34.07-1.69-.01-2-6.59-24.7-1.92-48.14,8.03-70.95.58-1.32,2.01-3.12,3.15-3.2,4.93-.32,6.84-3.76,8.41-7.47,2.27-5.36,4.3-10.82,6.32-16.28,5.08-13.71,11.57-26.48,23.45-35.71,16.92-13.1,35.66-13.71,54.26-2.59,18.12,10.83,32.32,25.98,46.82,40.87,14.16,14.54,28.21,29.19,42.35,43.75,1.01,1.04,2.3,1.8,4.23,3.29,4.27-9.86,8.59-19.13,12.34-28.62,15.17-38.33,24.64-78.16,31.12-118.79,6.66-41.72,7.98-83.76,6.81-125.87-.77-27.9-2.16-55.84-7.91-83.28-1.7-8.12-4.28-16.05-6.41-24.08-2.09-7.89.47-14.03,6.67-16.12,7.65-2.59,14.51,1.71,15.95,10.31,1.23,7.38,2.38,14.8,3.03,22.25,2.15,24.35,4.52,48.7,5.91,73.1,1.09,19.11.92,38.3,1.15,57.46.04,3.13.61,5.06,3.76,6.57,2.68,1.29,5.16,3.65,6.93,6.11,13.35,18.56,19.66,39.66,22.44,62.14,2.59,20.94,5.97,41.77,8.63,62.7,1.22,9.55,1.6,19.21,2.28,28.82,1.26,17.57,2.57,35.15,3.65,52.73.93,15.12,1.47,30.27,2.37,45.39,1.39,23.44,3.49,46.85,4.29,70.31,1.38,40.74,2.18,81.24-5.29,121.92-6.5,35.4-21.7,65.6-42.57,93.74-8.61,11.61-17.53,23.07-27.25,33.74-12.35,13.57-28.68,20.6-46.56,22.67-24.22,2.8-48.56,4.88-72.9,6.13-26.71,1.37-53.38,2.98-79.49,8.78-33.31,7.4-66.28,16.34-99.61,23.67-17.93,3.94-36.25,6.21-54.47,8.66-19.68,2.65-39.44,4.86-59.2,6.85-13.71,1.38-27.48,2.29-41.24,3.03-25.73,1.37-51.47,3.22-77.22,3.5-36.43.39-72.78-1.85-108.11-11.62-21.08-5.83-41.83-12.9-62.67-19.57-42.61-13.65-85.14-27.57-127.79-41.1-32.23-10.22-64.12-21.53-91.78-41.38-20.49-14.71-39.67-31.29-58.99-47.57-12.07-10.17-24.05-20.64-34.77-32.19-29.02-31.3-52.38-66.52-64.96-107.57-6.28-20.48-9.36-42.05-12.68-63.31-4.33-27.74-7.36-55.68-11.12-83.52-4.25-31.41-8.43-62.83-13.19-94.17-1.38-9.1-4.36-18.01-7.21-26.81-.82-2.51-3.37-5.18-5.81-6.33-11.97-5.63-15.61-19.68-9.59-30.34,5.73-10.14,19.11-13.46,30.46-7.26,1,.55,2,1.1,3.39,1.85.27-1.19.62-2.07.66-2.96,1.93-55.43,16.11-108.23,34.42-160.11,13.83-39.2,31.99-76.35,54.88-111.02,19.08-28.9,40.38-56.15,63.6-81.9,26.69-29.6,55.09-57.38,86.2-82.28,47.6-38.09,98.93-70.13,154.52-95.27,36.33-16.43,73.55-30.34,112.12-40.49,25.08-6.6,50.49-11.67,76.43-12.77,21.89-.93,43.88-1.83,65.72-.67,31.16,1.65,61.83,7.38,92.12,15.11,39.08,9.98,76.2,25.04,112.41,42.55,56.17,27.17,109.83,58.74,161.23,94.06,26.98,18.55,54.02,37.34,76.17,61.76,14.05,15.49,26.52,32.41,39.57,48.8,10.04,12.62,19.86,25.42,29.8,38.13,5.16,6.59,9,13.49,6.6,22.38-2.25,8.31-7.51,13.28-15.74,15.4-7.42,1.91-14.47.44-19.05-5.31-6.69-8.41-12.64-17.53-18.02-26.85-10.56-18.28-19.85-37.32-30.89-55.28-17.93-29.16-40.9-54.04-67.89-75.13-37.59-29.35-78.52-53.46-120.03-76.64-35.14-19.63-71.31-37.02-109.03-51.13-32.59-12.19-66.06-20.65-100.46-26.02-31.22-4.87-62.63-6.46-93.93-4.33-24.22,1.65-48.56,5.49-72.19,11.14-61.51,14.7-119.35,39.07-174.36,70.31-40.92,23.24-78.97,50.53-114.58,81.23-11.33,9.77-22.18,20.13-32.83,30.65-9.69,9.58-18.74,19.81-28.22,29.62-3.08,3.18-6.88,5.67-9.83,8.95-2.48,2.77-3.98,6.4-6.31,9.33-7.12,8.99-14.47,17.81-21.67,26.74-5.07,6.29-10.42,12.4-14.87,19.11-1.88,2.83-2.71,7.08-2.37,10.51.51,5.03-.21,8.61-4.8,11.36-2.08,1.25-3.45,3.71-6.05,6.65,1.64-5.31,7.1-7.97,3.83-13.96-5.18,8.41-10.14,16.41-15.03,24.46-1.81,2.98-3.68,5.96-5.15,9.11-2.93,6.32-4.99,13.12-8.5,19.09-10.75,18.29-18.91,37.69-26.41,57.47-1.89,4.99-.44,6.37,4,8.17,7.28,2.95,14.14,6.93,21.18,10.48-.19.39-.38.77-.57,1.16-6.07-2.28-12.14-4.56-18.21-6.83-.62-.23-1.26-.42-1.9-.6-8.69-2.5-8.77-2.2-11.28,6.8-2.27,8.16-5.69,16-7.84,24.19-3.71,14.1-6.7,28.38-10.25,42.53-1.67,6.67-3.49,13.19-.77,20.01.32.81.26,2.51-.21,2.78-6.42,3.72-3.8,10.47-5.66,15.31,4.95-2.19,10.22-3.84,14.75-6.67,7.88-4.92,15.38-10.48,22.86-16.02,1.37-1.01,1.87-3.2,2.77-4.84,1.68-.54,3.79-.6,4.98-1.68,7.74-7.01,15.69-13.87,22.8-21.5,10.82-11.59,21.01-23.76,31.3-35.49-2.21-3.08-3.63-5.45-6.43-2.43Zm1.35,392.61c2.44,1.23,5.2,2.06,7.26,3.76,10.88,8.97,21.01,18.95,32.47,27.08,15.56,11.04,31.83,21.14,48.27,30.83,9.73,5.74,20.38,9.91,30.61,14.78.21-.38.41-.77.62-1.15-1.29-.85-2.53-1.81-3.88-2.54-51.93-28.1-99.15-62.58-140.68-104.69-24.38-24.73-43.96-52.87-58.78-84.32-1.62-3.45-3.25-6.89-4.87-10.34-.6.12-1.2.24-1.8.37,1.39,22.91,2.1,45.88,4.36,68.7,2.13,21.46,5.3,42.87,9.11,64.1,4.46,24.85,13.44,48.35,26.37,69.99,8.92,14.93,18.3,29.91,29.59,43.03,14.18,16.47,30.47,31.13,45.96,46.46,4.76,4.71,9.88,9.05,14.83,13.56.53-.35,1.05-.7,1.58-1.05-1.03-2.49-2.06-4.99-3.09-7.48,0,0-.07.15-.07.15,5.79,2.73,12.1,4.71,17.26,8.33,11,7.73,21.38,16.35,32.06,24.55,25.67,19.7,54.52,33.6,84.07,46.22,3.11,1.33,4.71.84,5.77-2.72,2.7-9.08,5.34-18.24,8.86-27.02,7-17.45,14.46-34.72,21.96-51.96,2.98-6.86,6.43-13.52,10.04-20.07.67-1.23,3.09-1.49,4.7-2.2.56,2.01,1.45,4,1.53,6.02.04,1.07-1.38,2.17-2.1,3.29-4.93,7.7-10.24,15.2-14.7,23.16-12.08,21.58-20.5,44.66-27.35,68.38-1.33,4.6-.72,7.17,4.02,8.64,12.14,3.75,24.23,7.69,36.34,11.54,5.6,1.78,11.2,3.52,17.51,5.5.56-4.13,1.13-7.52,1.47-10.93,2.25-22.77,9.11-44.31,17.65-65.35,3.93-9.7,8.07-19.47,15.77-26.94,1.38-1.34,4.96-2.39,6.14-1.57,3.03,2.11.94,4.58-1.01,6.61-2.07,2.16-4.27,4.23-6.13,6.57-20.79,26.28-27.6,57.35-30.57,89.74-.26,2.82,1.18,3.66,3.48,4.45,10.5,3.6,20.73,8.28,31.47,10.81,9.18,2.16,18.93,1.93,28.38,2.75.8-7.53,3.33-9.42,9.67-8.06,1.61.35,3.17,1,4.71,1.61,13.59,5.4,27.1,11.02,40.78,16.17,16.88,6.36,34.46,10,52.34,12.05,23.58,2.7,47.17,5.3,70.78,7.67,8.28.83,16.64.85,26.01,1.29-2.96-6.68.03-8.89,4.28-10.35,1.1-.38,2.14-.98,3.27-1.22,2.94-.62,3.95-2.35,4.05-5.32.23-6.82.68-13.63,1.23-20.43,1.83-22.61,2.02-45.15-1.73-67.62-.54-3.22-2.32-8.02,2.58-8.71,5.24-.74,4.55,4.4,4.43,7.62-1.06,29.1-2.21,58.2-3.61,87.29-.19,3.99.34,5.12,4.64,4.93,27.9-1.23,55.81-2.05,83.71-3.18,20.81-.84,41.41-3.28,61.64-8.46,29.14-7.45,58.31-14.77,87.48-22.09,1.64-.41,3.41-.31,5.12-.45.08.56.16,1.11.23,1.67-1.81.53-3.6,1.13-5.43,1.58-23.51,5.85-47.17,11.17-70.5,17.68-22.21,6.19-44.66,10.54-67.62,11.93-20.74,1.26-41.52,1.99-62.29,2.56-15.24.42-29.91,3.2-44.08,8.76-.89.35-1.82.58-2.73.86.42.49.84.98,1.26,1.48.98.06,1.97.24,2.94.17,14.08-.99,28.18-1.87,42.24-3.05,22.63-1.89,45.36-3.15,67.84-6.21,23.28-3.17,46.41-7.73,69.44-12.48,36.79-7.58,72.28-20.98,109.93-24.85,15.97-1.64,31.88-4.01,47.87-5.43,19.51-1.74,39.09-2.63,58.61-4.27,15.93-1.35,31.22-5.59,44.55-14.6,21.6-14.6,39.23-33.38,53.73-54.99,16.81-25.04,24.55-53.57,30.12-82.72,4.53-23.7,4.09-47.78,3.03-71.73-2.02-45.74-4.65-91.46-7.09-137.18-.41-7.64-1.23-15.25-1.62-22.88-.15-2.88-1.51-3.91-4.04-4.73-11.88-3.82-23.8-7.35-36.39-7.98-3.52-.18-5.56-3.36-3.59-5.64,1.05-1.22,3.6-2.1,5.17-1.76,5.82,1.26,11.61,2.82,17.24,4.77,7,2.42,13.82,5.33,21.43,8.31-.39-6.39-.7-12-1.09-17.61-.72-10.28-1.26-20.58-2.29-30.83-1.37-13.55-3.17-27.05-4.72-40.57-2.16-18.91-5.6-37.5-13.36-55.03-1.2-2.72-2.98-5.18-5.23-9-1.09,9.25-1.64,16.88-2.95,24.38-4.36,25.03-8.28,50.16-13.69,74.96-7.52,34.47-19.07,67.67-34.99,99.26-.55,1.09-.59,2.85-.1,3.96,1.47,3.32,3.32,6.47,5.02,9.68,4.36-4.63,9.02-9.57,13.66-14.52.57-.6,1.26-1.24,1.49-1.98.53-1.69,1.37-3.56,1.08-5.18-.74-4.22,1.23-6.7,5.45-5.53,4.31,1.18,8.36,3.24,12.62,4.65,3.75,1.24,7.58,2.79,11.45,3.04,13.66.86,18.93,6.95,18.06,20.68-.48,7.62-.62,15.38.25,22.94,2.34,20.36,4.83,40.67,4.17,61.23-.09,2.82.19,5.66.45,8.48,2.3,25.47.94,50.83-6.66,75.19-7.36,23.61-16.36,46.75-25.47,69.76-7.87,19.88-19.94,37.5-32.39,54.76-1.08,1.5-4.92,3.11-5.34,2.66-3.45-3.69-6.55-1.65-9.28.38-12.41,9.25-26.71,13.82-41.42,17.68-28.02,7.36-56.36,12.85-85.27,14.95-16.41,1.19-32.89,1.51-49.28,2.88-11.9.99-23.69,3.18-35.56,4.54-1.82.21-4.15-.77-5.58-1.98-.64-.54.35-3.03.6-4.63.26-1.69,1.01-3.47.72-5.06-4.66-25.17-10.81-49.79-26.06-71.11-.86-1.2.17-3.76.33-5.69,1.99.55,4.87.48,5.79,1.79,2.26,3.21,4.15,6.91,5.27,10.69,5.39,18.16,10.76,36.33,15.57,54.65,3.42,13.04,3.01,13.13,16.52,13.31,30.78.41,61.62.54,92.09-4.14,22.12-3.4,43.9-8.99,65.9-13.26,18.44-3.57,34.44-12.53,49.04-23.49,8.34-6.26,15.03-15.09,21.36-23.59,11.01-14.78,17.36-32.04,24.27-48.99,10.8-26.49,19.42-53.58,22.16-82.12,1.14-11.85.14-23.93-.23-35.89-.51-16.8-.94-33.63-2.16-50.38-1.16-15.9-3.25-31.74-5.05-47.59-.26-2.28-.97-4.6-1.94-6.68-.65-1.4-1.95-3.24-3.23-3.49-9.26-1.79-18.59-4.3-27.9-4.27-4.13.01-8.32,5.28-12.36,8.33-2.91,2.21-5.71,4.6-8.38,7.09-2.12,1.98-3.97,4.25-6.63,7.14,10.71,5.64,20.48,11.24,30.64,16,9.99,4.68,20.37,8.52,30.58,12.73-.27.69-.55,1.38-.82,2.06-21.89-8.04-43.79-16.09-66.94-24.59-10.25,15.48-20.74,31.4-31.31,47.26-10.63,15.96-25.57,28.84-32.96,48.15-4.04-5.36-6.01-1.95-7.92.36-8.17,9.85-16.25,19.77-24.32,29.7-12.79,15.74-26.96,29.78-45.11,39.48-15.82,8.45-31.32,17.52-46.95,26.34-2.97,1.68-6.27,2.88-6.57,7.35-.06.92-3.45,2.03-5.41,2.34-3.64.57-7.62-.13-10.99,1.05-7.2,2.52-14.1,5.92-21.14,8.93-23.73,10.15-48.72,16.05-73.79,21.48-15.37,3.33-30.89,6.15-46.48,8.19-25.21,3.3-50.54,6-76.04,4.98-13.2-.53-25.76,2.27-38.17,6.22-1.08.34-2.05,1.07-3.59,1.91,2.08,1.11,3.48,1.68,4.67,2.54,1.3.95,2.23,2.72,3.63,3.16,6.42,2.01,7.04,2.69,5.27,9.08-6.07,21.97-12.23,43.92-18.44,65.85-.41,1.46-1.54,2.72-2.33,4.07-.5-.22-1.01-.44-1.51-.66,7.12-24.51,14.14-49.04,14.95-74.1-3.39-.98-6.4-1.63-9.25-2.71-15.32-5.78-31-9.93-47.35-11.48-15.05-1.43-30.11-2.75-45.1-4.62-15.65-1.95-31.21-4.59-46.84-6.65-1.65-.22-4.32.95-5.19,2.33-3.11,4.88-6.05,9.95-8.33,15.26-7.88,18.29-12.54,37.51-15.63,57.14-.73,4.66-1.66,9.29-2.5,13.94-.67-.11-1.35-.22-2.02-.34.37-3.34.61-6.7,1.13-10.02,3.96-25.22,10.35-49.82,19.59-73.62,1.56-4.03.32-6.19-3.32-7.16-3.68-.98-7.48-1.56-11.26-2.05-5.77-.75-11.58-1.18-17.34-1.96-1.23-.17-2.35-1.21-3.52-1.85,1.35-.51,2.67-1.17,4.07-1.48.74-.16,1.61.36,2.43.44,3.97.35,7.94.66,11.9.98.1-.41.21-.82.31-1.23-1.94-1.16-3.79-2.52-5.84-3.45-19.68-8.9-39.19-18.22-59.16-26.43-18.58-7.64-37.77-13.78-56.46-21.15-21.77-8.57-41.16-21.59-60.81-34.04-4.63-2.93-8.7-6.86-13.54-9.35-7.96-4.1-16.57-6.94-24.47-11.12-28.32-14.98-54.59-33.01-78.33-54.62-4.37-3.98-8.53-8.2-12.78-12.31,0,0-.2.19-.2.19Zm932.21-72.61c-.9-.99-1.63-1.68-2.22-2.47-6.76-9-16.66-15.13-22.29-25.29-1.76-3.17-5.92-5.1-9.17-7.32-3.24-2.21-6.94-3.79-10.05-6.16-5.15-3.93-9.94-8.33-14.97-12.41-14.5-11.76-29.27-22.97-47.23-29.26-6.96-2.44-12.67-1.59-17.83,3.33-2.39,2.27-4.35,4.99-6.5,7.51-1.06,1.25-1.91,2.78-3.2,3.71-19.48,13.97-30.16,32.26-28.08,56.89,1.44,16.99,5.73,32.69,19.33,44.45,1.11.96,1.55,4.08.86,5.5-1.77,3.64-4.35,6.89-7.01,10.9,17.74,11.58,35.67,23.28,53.59,34.99,1.79,1.17,3.65,2.26,5.32,3.59,5.57,4.46,7.04,12.24,3.59,18.4-4.97,8.88-15.12,10.14-24.36,2.89-24.48-19.2-50.03-36.79-77.21-51.98-1.36-.76-2.83-1.94-3.48-3.29-3.04-6.37-8.31-9.98-14.78-11.62-12.67-3.2-25.16-7.61-38.62-6.32-6.64.64-10.99-3.15-13.92-8.67-2.32-4.36-6.89-6.17-11.36-3.88-4.3,2.21-8.86,3.02-12.79.3-6.28-4.36-12.48-2.04-16.19,1.97-7.43,8.04-15.8,12.9-26.33,15.63-7.12,1.84-8.66,8.41-4.92,14.85,2.16,3.73,4.89,7.15,6.92,10.94,16.71,31.15,33.34,62.35,49.83,93.61.73,1.38.52,4.06-.37,5.38-4.74,7.04-14.93,9.94-23.03,7.38-7.39-2.34-12.12-7.7-15.5-14.01-6.27-11.68-12.28-23.55-17.63-35.68-9.72-22.08-16.43-44.94-14.8-69.49.3-4.53,1.16-9.03,1.8-13.88-8.88.62-17.41,1.22-26.24,1.84,0,1.72.35,3.12-.06,4.26-2.67,7.52,1.36,11.92,6.29,17.01,11.17,11.54,16.38,26.32,19.52,41.79,1.5,7.37,2.3,14.88,3.42,22.31-6.64,1.22-12.19,2.11-17.67,3.3-3.63.79-5.25-.02-6.11-4.01-3.88-17.93-11.55-33.9-25.25-46.54-5.64-5.2-11.87-9.02-19.78-9.54-26.02-1.71-51.4,1.31-76.02,10.08-3.72,1.32-7.34,2.67-8.19,7.52-.3,1.72-2.06,3.41-3.54,4.65-8.12,6.8-17.11,8.81-27.59,4.31.91,4.99-1.49,7.9-5.19,10.79-5.01,3.91-7.11,9.9-6,16.07,1.19,6.62,3.67,13,5.49,19.51.93,3.33,2.3,6.69,2.4,10.06.52,18.04,4.6,34.81,15.27,49.76,1.93,2.7,2.8,6.88,2.55,10.25-.53,6.91-5.62,11.6-12.51,12.93-5.62,1.08-11.85-2.08-15.35-7.93-6.77-11.32-10.83-23.67-11.67-36.73-2.05-31.73-3.49-63.49-5.28-95.23-.36-6.36-1.21-12.69-2-20.69-11.69,6.6-22.27,12.11-32.31,18.46-3.98,2.52-6.62,2.31-10.12-.15-9.33-6.56-18.8-12.92-28.3-19.42.59-.62,1.49-1.58,1.72-1.83-11.96-6.5-23.79-12.93-35.43-19.25,0,4.53.27,9.7-.09,14.82-.25,3.55-.57,7.49-2.24,10.48-5.81,10.42-13.01,20.11-18.21,30.8-7.2,14.81-11.91,30.57-12.68,47.26-.29,6.17.68,11.34,8.61,12.45-2.27,8.34-4.42,16.22-6.77,24.85,9.76,3.61,20.57,7.71,31.46,11.6,49.25,17.56,99.45,31.49,151.13,39.93,27.91,4.56,55.92,7.86,84.2,7.79,18.35-.05,36.7-1.06,54.55-1.63,9.01-34.96,14.88-69.17,9.41-104.53,1.72-.4,2.97-.75,4.24-.98,3.27-.58,6.53-1.23,9.82-1.63,8.07-.99,8.37-.93,8.12,7.05-.92,29.45-2.04,58.9-3.14,88.34-.1,2.58-.57,5.16-.91,8.13,76.93-7.29,148.18-28.11,208.37-78.33,3.18,3.78,5.51,6.6,7.9,9.36,1.58,1.82,3.68,3.87,5.61,1.24.81-1.1-.04-4.3-1.17-5.75-2.09-2.7-4.93-4.81-8.01-7.67,56.52-42.21,95.33-98.36,130.36-157.68Zm-416.96-179.24c.26.15.52.3.79.45-2.12,11.71-4,23.47-6.42,35.12-2.52,12.17-8.41,22.05-20.67,26.8-17.46,6.77-35.48,9.92-54.09,6.94-14.27-2.29-26.66-8.6-32.38-22.67-3.06-7.51-4.14-16.02-5-24.19-1.49-14.16-1.6-28.48-7.87-41.75-1.09-2.3-1.09-5.19-1.27-7.83-.77-11.03-2.83-21.73-8.43-31.39-3.55-6.12-7.63-11.92-11.69-18.18,11.28-1.57,17.75,6.67,25.4,12.3,7-8.46,15.63-13.51,26.28-15.28,1.74-.29,3.62-2.19,4.65-3.84,6.77-10.82,15.16-19.72,27.1-24.94,1.35-.59,2.74-3.01,2.71-4.56-.18-10.61-.03-21.3-1.33-31.8-1.68-13.59-5.22-26.78-14.01-37.88-5.61-7.09-5.75-7.03-12.34-.66-14.77,14.28-30.64,27.14-48.84,36.86-13.09,6.99-26.28,4.31-34.68-7.88-4.49-6.52-7.94-13.81-11.48-20.94-1.63-3.29-3.11-3.79-6-1.64-2.8,2.08-5.71,4.08-8.8,5.68-7.37,3.82-14.95,6.53-23.35,3.06-4.86-2.01-7.28-6.34-5.39-11.25,1.04-2.68,2.78-5.48,4.99-7.24,5.44-4.34,11.37-8.06,17.03-12.14,1.65-1.19,3.04-2.74,5.53-5.03-2.78-.38-3.8-.8-4.66-.59-6.53,1.58-10.77-.95-13.87-6.75-.73-1.37-3.48-2.13-5.39-2.33-16.01-1.69-29.92,5.02-42.45,13.29-12.66,8.36-24.31,18.58-35.23,29.2-11.47,11.14-21.12,24.07-26.41,39.51-1.56,4.54-3.2,10.15-1.85,14.32,1.63,5.05,1.23,8.54-1.66,12.39-13.69,18.24-22.71,38.66-28,60.75-1.28,5.34-1.73,10.88-2.66,16.88,2.41-.78,3.8-1.4,5.25-1.67,4.9-.9,9.68,4.37,8.15,9.08-3.27,10.09-6.3,20.28-10.18,30.13-2.97,7.54-6.6,14.92-10.84,21.81-3.49,5.67-9.89,7.7-14.67,5.71-5.69-2.37-7.66-7.44-7.26-13.04,1.18-16.32,5.34-31.74,15.11-45.25.84-1.16,1.51-2.53,1.89-3.9,6.16-22.27,11.61-44.77,18.63-66.76,4.45-13.93,13.09-26.35,16.17-40.97.6-2.85,2.32-5.51,3.79-8.11,12.49-22.15,28.87-40.99,48.53-57.01,1.33-1.08,2.61-2.22,4.29-3.66-19.7-4.74-38.62-9.03-57.39-13.89-10.32-2.67-21.24-4.47-29.33-14.72.67,5.32,1.1,9.37,1.7,13.39,4.51,30.38,7.17,60.86,4.54,91.58-1.34,15.62-8.21,28.26-21.35,37.16-2.19,1.48-5.35,2.28-6.58,4.31-3.38,5.57-8.86,6.91-14.32,7.99-18.73,3.72-37.53,7.06-56.29,10.65-4.41.84-8.73,2.11-13.1,3.17.03.52.06,1.04.08,1.57,2.11.73,4.18,1.67,6.35,2.14,8.27,1.81,16.51,4.03,24.89,5.08,19.98,2.49,36.3,10.24,46.03,28.98,2.81,5.41,2.52,10.64-1.74,14.4-4.33,3.81-10.57,4.04-14.97.03-2.14-1.95-3.82-4.56-5.19-7.15-5.43-10.17-12.92-16.75-25.11-17.79-13.85-1.18-26.7,2.13-39.42,6.69-6.07,2.18-11.69,5-16.59,9.69-4.84,4.63-10.97,7.91-16.49,11.85-2.07,1.48-4,3.16-6.86,5.43,19.65,6.31,34.3,18.95,50.59,28.8,16.26,9.83,32.72,19.33,49.07,28.96,1.31-3.04,3.19-6.93,4.66-10.96,1.94-5.31,5.49-8.97,10.98-9.61,5.64-.66,9.25,3.35,11.86,7.71,3.83,6.42,6.96,13.26,10.8,19.67,2.18,3.65,4.9,7.08,7.86,10.13,2.81,2.89,5.7,2.64,9.07-.31,11-9.61,17.27-22.23,23.19-35.12,1.03-2.24,1.87-4.62,2.43-7.02,1.3-5.64,1.92-11.47,3.64-16.97,2.47-7.89,6.08-15.44,8.46-23.35,2.48-8.26,4.25-16.76,5.97-25.23.48-2.36-.51-4.99-.5-7.5.02-2.71-.37-5.86.82-8.05,3-5.53,6.7-10.69,10.3-15.88,2.7-3.89,5.88-4.21,9.91-1.98,1.34.74,3.76.93,5.02.21,26.43-15.04,54.21-26.87,83.42-35.26,6.5-1.87,13.17-3.36,19.87-4.19,4.02-.5,6.33,3.04,6.94,6.62.72,4.21-1.81,7.37-5.37,9.25-3.19,1.68-5.92.75-8.23-2.3-.75-.98-3.16-1.37-4.59-1.05-28.67,6.35-55.8,16.38-79.53,34.23-6.67,5.02-13.08,10.4-19.61,15.61,3.86-1.04,7.04-3.06,10.38-4.73,3.26-1.63,6.65-3,10.05-4.3,3.29-1.25,6.67-2.27,10.02-3.39-14.62,11.88-27.29,25.21-38.67,39.87-5.54,7.13-10.1,14.47-10.37,25.02,1.53-2.27,2.46-3.6,3.33-4.95,12.44-19.26,26.63-36.96,44.89-51.13,11.08-8.6,22.3-16.91,36.69-18.93,6.83-.96,13.07-3.16,19.05-6.6,8.59-4.94,17.21-2.32,26.72.34-6.22,4.79-11.65,9.08-17.24,13.15-.83.6-2.42.25-3.65.16-7.24-.53-14.59-2.15-21.7-1.44-10.84,1.08-18.82,8.08-25.14,16.49-18.63,24.8-30.59,52.71-37.01,82.97-4.03,18.98-6.23,38.17-2.02,57.48,2.57,11.78,8.45,21.98,15.93,31.28,3.01,3.74,7.32,4.04,10.46,1.17,3.01-2.76,2.98-6.46-.17-10.15-1.08-1.26-2.34-2.37-3.49-3.57-13.85-14.45-19.29-32.13-18.12-51.61.69-11.51,2.69-23.11,5.58-34.28,6.72-25.93,17.67-50.02,34.38-71.18,9.58-12.14,22.37-14.08,37.3-11.02-1.31,1.16-2.1,1.95-2.99,2.63-2.23,1.71-4.6,3.83-2.21,6.52,2.54,2.85,4.59.37,6.48-1.71,6.86-7.55,6.9-7.53,16.47-4.02,1.87.69,3.64,1.97,5.54,2.15,1.77.17,4.63-.18,5.27-1.29,1.47-2.58-.48-4.27-3.06-5-3.66-1.04-7.34-2.04-11.86-3.29,5.34-3.69,10.06-6.77,14.57-10.12,2.5-1.86,4.4-1.35,6.61.41,8.52,6.77,15.2,15.04,18.85,25.27,2.1,5.88,5.51,9.47,11.28,11.48,4.68,1.63,9.19,3.78,13.72,5.82,3.17,1.42,4.49,3.76,4.4,7.49-.14,6.31.24,12.65.74,18.95.69,8.57,2.17,9.73,11.41,9.44.54,7.38,1.38,14.8,1.58,22.23.54,19.9,13.05,35.8,32.14,40.32,13.76,3.26,27.59,3.42,41.53,1.12,11.59-1.92,23.35-3.17,33.6-9.67,7.74-4.92,14.52-10.72,16.36-20.37,1.83-9.61,3.36-19.27,5.23-28.87,1.78-9.1,3.17-18.35,9.34-25.91,11.59-14.21,28.19-18.39,43.86-23.01.7,2.62.69,5.78,1.93,6.38,1.54.76,4.18-.37,6.21-1.08,2.34-.81,4.71-3.21,6.74-2.89,5.5.89,9.76.05,15.13-2.42,6.15-2.82,13.71-.41,18.54,6.02,22.25,29.56,36.32,62.07,36.08,99.79-.04,6.99-.07,14.01.5,20.97.44,5.3,4.13,8.07,8.25,7.19,4.03-.87,5.92-4.32,5.11-9.36-1.66-10.3-2.87-20.69-5.06-30.87-6.99-32.51-19.43-62.66-39.11-89.7-8.36-11.49-19.02-14.49-32.36-11.04-3.49.9-7.38.35-11.09.35-5.07,0-10.59-1.46-15.14.04-17,5.62-34.38,10.81-48.38,24.63-.91-5.35-1.7-9.97-2.54-14.9-1.02.81-1.95,1.45-2.76,2.21-6.27,5.92-12.22,12.23-18.85,17.72-9.08,7.52-18.31,15.03-29.98,18.37-5.99,1.72-11.97,2.03-16.64-3.01-4.04-4.37-4.81-10.39-1.94-14.89,3.26-5.11,8.09-9.86,13.3-12.96,11.68-6.94,24.9-10.01,38.26-11.9,4.09-.58,6.69-2.56,8.93-5.57,10.53-14.12,15.53-30.35,17.85-47.54.74-5.45.79-10.99,1.15-16.48-.49-.18-.98-.35-1.47-.53-2.17,1.69-4.52,3.19-6.47,5.1-10.93,10.7-21.76,21.5-32.65,32.25-.7.69-1.55,1.58-2.41,1.68-4.84.54-5.47,4.26-6.82,7.94-5.98,16.32-13.68,31.46-29.86,40.26-.95.51-1.95,1.46-2.31,2.43-2.71,7.23-8.39,11.89-14.38,15.97-8.86,6.03-19.41,2.45-23.32-7.51-.79-2.01-1.62-4.12-1.76-6.23-.26-3.84-2.25-5.18-5.82-5.02-1.31,1.86-2.95,3.62-3.86,5.7-.68,1.55-1.19,3.96-.46,5.22,7.21,12.53,13.98,25.41,22.27,37.2,14.04,19.97,35.6,26.74,55.76,16.91,9.08-4.43,17.36-11.56,24.26-19.08,5.31-5.79,7.87-14.1,11.72-21.25,1.37-2.54,2.94-4.98,4.42-7.46Zm-306.1,350.75c3.83-10.46,7.13-20.2,10.96-29.74,5.25-13.08,11.99-25.65,16.12-39.06,7.39-23.99,5.48-48.76,2.69-73.27-1.27-11.15-7.11-19.91-18.12-24.38-9.17-3.72-18.74-3.78-28.41-3.87-4.14-.04-8.41-1.08-12.37-2.42-10.8-3.66-21.32-8.21-32.23-11.49-12.18-3.67-25.24-3.39-37.21-8.7-14.63-6.49-29.15-12.94-40.78-24.36-12.9-12.67-10.74-31.2,4.56-38.09,3.18-1.43,6.83-1.79,9.88-2.55.49-16.65-8.85-26.79-21.3-35.23-11.14-7.55-21.86-15.72-32.91-23.39-16.23-11.27-33.69-19.29-53.87-20.31-12.44-.63-24.44,1.02-36.33,4.62-8.15,2.47-14.53-1.44-15.91-8.97-1.17-6.39,3.58-11.86,11.3-13.07,4.56-.72,9.11-1.54,12.73-2.16,1.86-6.44,2.94-12.55,5.36-18.07,4.59-10.46,13.03-17.99,21.51-25.24,4.64-3.97,10.76-6.47,14.64-11,8.01-9.37,13.26-20.51,17.24-33.3-1.26,1.42-1.91,2.09-2.49,2.81-9.8,12.17-19.01,24.89-29.56,36.37-10.43,11.35-21.78,21.97-33.56,31.91-6.97,5.88-15.88,9.38-25.41,6.72-4.34-1.21-8.19-4.18-13.34-6.93,1.02,12.15,1.82,24,3.07,35.81,1.1,10.37,2.86,20.67,4.01,31.03.69,6.28-.22,12.87,1.3,18.89,3.76,14.96,7.58,30.02,13.02,44.41,17.45,46.2,45.85,84.9,82.55,117.66,6.01,5.36,12.02,10.72,17.95,16,3.58-15.2,7-29.84,10.49-44.47.37-1.56.81-3.96,1.83-4.34,3.8-1.43,2.56-3.42,1.47-5.89-.56-1.25-.67-2.87-.5-4.26,1.87-15.1,1.95-30.14-.79-45.16-2.88-15.75-6.33-31.34-15.82-44.64-3.53-4.95-8.95-8.63-12.05-13.77-6.81-11.29-16.92-14.75-28.92-13.17-14.4,1.9-28.66,4.9-43,7.28-1.2.2-3.06-.29-3.8-1.16-4.82-5.63-6.79-12.22-4.52-19.39,3.48-10.96,12.91-17.57,25.82-16.98,17.9.82,35.84,2.05,53.08,7.75,24.33,8.05,41.88,23.2,48.11,48.72,3.25,13.32,4.73,27.12,6.32,40.78.82,7,.14,14.18.14,21.58-3.57.12-8.11-.49-7.47,4.27.25,1.9,4.21,3.3,6.48,4.93.58-.35,1.15-.7,1.73-1.05-.76,15.43-1.37,30.87-2.34,46.29-.54,8.49-.49,17.49-9.93,22.07-.28.14-.47.47-.68.72-6.01,7.02-5.37,13.63,1.91,19.28,1.39,1.08,2.85,2.05,4.74,3.4-2.31,2.62-4.34,4.93-6.59,7.48,49.05,37.44,104.08,63.76,159.23,89.04Zm268.69-454.49c.16-.34.42-.77.57-1.22,6.85-19.62,19.93-33.28,39.56-39.96,13.64-4.64,27.63-8.21,41.45-12.33,1.5-.45,3.53-.99,4.19-2.13,7.89-13.69,12.38-28.56,7.56-43.91-4.63-14.73-15.57-24.46-30.91-28.25-1.62-.4-4.3.56-5.49,1.83-4.84,5.15-10.31,8.66-17.49,9.54-1.54.19-3.13,2.08-4.22,3.55-4.94,6.66-9.26,13.84-14.65,20.1-9.06,10.53-12.82,10.92-24.7,4.41-1.11,1.6-2.02,3.46-3.41,4.8-2.69,2.57-5.26,6.1-9.8,3.63-4.41-2.4-4.54-6.31-2.96-10.35,4.68-11.9,9.56-23.73,14.32-35.61.35-.86.45-1.82.88-3.63-10.2,11.53-19.57,22.27-29.13,32.84-2.21,2.44-.73,3.78.72,5.44,7.18,8.21,10.92,18.09,13.93,28.39,4.95,16.94,6.46,34.23,5.95,51.8-.05,1.69.65,4.19,1.87,4.99,3.54,2.32,7.52,3.96,11.75,6.08Zm-364.35-159.78c-1.14,1.5-1.67,2.11-2.12,2.79-20.77,31.47-41.52,62.96-62.32,94.4-.93,1.41-2.18,3.22-3.6,3.58-5.66,1.41-7.51,3.51-4.88,8.7,2.64,5.21,6.02,10.56,10.39,14.3,13.05,11.18,27.83,19.79,43.76,26.26,8.36,3.4,14.92,1.06,18.68-7.02,2.21-4.75,3.57-9.92,5.12-14.96,1.61-5.2,2.47-10.7,4.59-15.66,4.69-10.99,9.85-21.68,11.82-33.74.78-4.8,3.59-8.85-3.1-11.11-.46-.15-.79-1.06-.95-1.68-2.34-8.86-8.31-17.19-3.55-27.11.79-1.66.23-4.36-.52-6.25-.57-1.43-2.44-3.3-3.74-3.3-3.82,0-4.04-2.44-4.57-5.09-1.56-7.75-3.21-15.48-5-24.1Zm362.41,10.72c-.82-.69-1.15-1.19-1.57-1.28-4.05-.88-8.11-1.78-12.19-2.51-23.47-4.21-46.33-1.41-68.76,6.17-3.39,1.14-6.03,2.76-7.66,6.41-2.23,4.98-5.27,9.6-8.07,14.31-2.14,3.61-4.44,7.13-6.97,11.15,1.91.11,3.05.24,4.18.23,20.04-.24,39.44,2.37,57.3,12.43,1.14.64,4.13-.28,5.16-1.45,10.31-11.73,20.4-23.64,30.51-35.54,2.75-3.23,5.36-6.58,8.06-9.93Zm-345.03,586.82c-.17.52-.35,1.04-.52,1.56.83.74,1.59,1.6,2.51,2.2,6.96,4.52,13.87,9.14,20.95,13.46,14.19,8.66,28.73,16.53,44.49,22.2,21.01,7.55,41.79,15.75,62.53,24.02,22.69,9.05,45.2,18.54,67.86,27.66,1.69.68,4.25.45,5.91-.36,3.54-1.72,5.11-.61,6.43,2.72.59,1.49,2.09,3.49,3.41,3.68,21.35,3,42.73,5.89,64.13,8.52,19.45,2.39,39.07,3.7,58.37,6.97,10.28,1.74,18.54-2.19,27.56-4.75-.97-.68-1.89-.89-2.82-.96-12.74-1.05-25.61-1.26-38.19-3.28-29.41-4.71-58.89-9.34-87.96-15.75-35.09-7.73-69.45-18.36-103.23-30.81-42.08-15.5-83.18-33.15-122.78-54.27-2.64-1.41-5.76-1.89-8.66-2.8Zm-35.83-236.94c1.91,2.24,3.28,4.06,4.87,5.65,4.31,4.32,8.26,9.16,13.16,12.68,16.16,11.61,34.58,18.96,52.7,26.83,8.3,3.6,16.6,7.2,25.29,10.96-1.43-3.87-2.34-7.22-3.9-10.24-.91-1.75-2.76-3.08-4.36-4.38-2.54-2.06-5.22-3.94-8.81-6.62,9-.96,11.21-4.84,8.71-11.81-2.58-7.16-5.27-14.33-7.08-21.7-2.34-9.57-3.86-19.34-5.78-29.27-3.37,4.88-7.14,9.39-6.12,16.05,1.69,10.98,3.19,21.98,4.52,33.01.24,1.97-.08,4.92-1.34,5.99-5.25,4.42-12.52,4.4-18.57.61-5.83-3.65-8.92-10.41-7.25-17.13,1.22-4.92,3.15-9.67,4.8-14.61-9.1.95-15.66-4.28-21.24-10.88-5.96-7.05-11.43-14.52-18.07-23.02-1.08,7.97-2,14.64-2.9,21.32-.87,6.5-.14,13.77-8.63,16.55Zm330.19-290.99l-.3-2.07c-4.18-2.24-8.19-4.92-12.57-6.64-15.98-6.24-32.61-6.87-49.42-4.79-1.77.22-3.59,1.59-5,2.86-5.42,4.88-10.43,10.28-16.12,14.81-3.25,2.59-2.93,4.82-1.13,7.48,4.55,6.73,8.99,13.58,14.02,19.95,6.39,8.1,11.31,9.51,20.8,5,7.71-3.66,15.16-8.2,21.98-13.35,9.61-7.27,18.53-15.46,27.75-23.25Zm174.53,129.04c-.62.09-1.24.23-1.87.28-17.23,1.32-33.29,7.1-49.24,13.17-1.45.55-3.32,3.34-2.99,4.54.77,2.75,3.23,2.73,5.69,1.41,12.68-6.82,26.36-10.93,40.5-12.67,12.65-1.56,24.98-1.34,36.89,6.11,13.17,8.23,23.32,19.07,33.11,30.63,2.4,2.83,5.09,5.39,2.59,9.58-.34.56.11,1.94.63,2.61,2.95,3.79,6.04,7.49,9.08,11.21-.55-4.19-1.72-8.12-2.85-12.05-4.9-16.98-11.21-33.37-21.12-48.11-1.21-1.79-4.07-3.09-6.34-3.42-4.91-.7-9.97-.29-14.89-.93-20.12-2.62-39-9.35-57.33-17.84-1.31-.61-3.74-1.03-4.45-.33-4.16,4.11-7.96,8.58-11.88,12.93,15.46-5.21,30.04-3.91,44.48,2.9Zm-305.86,607.69c57.18,23.09,116.43,33.19,177.92,28.76-12.49-1.69-25-3.45-37.58-4.25-20.78-1.34-41.25-4.11-61.39-9.58-19.9-5.41-38.69-15.47-60.24-14.15-6.2.38-12.48-.48-18.72-.77Zm38.03-830.31c-.44,1.59-.7,2.06-.69,2.52.33,10.46.57,20.93,1.21,31.37.07,1.11,2.41,2.7,3.9,2.98,4.55.83,10.26-.41,13.59,1.93,7.98,5.61,14.14,2.01,20.79-1.67,1.16-.64,2.32-1.45,3.58-1.75,5.69-1.35,6.29-5.65,6.18-10.37-.1-4.62-3.91-5.01-7.1-6.4-13.69-5.98-30.09-5.62-41.44-18.6Zm-34.37,29.43c-51.17,20.28-102.32,28.33-155.25,2.46.86,8.05,1.52,14.24,2.28,21.38,4.34-8.16,7.44-9.7,15.41-7.19,18.52,5.83,37.55,8.25,56.84,9.1,4.28.19,8.7,1.06,12.81.3,17.44-3.24,34.8-6.94,52.16-10.62,1.83-.39,3.84-1.41,5.08-2.76,3.8-4.13,7.26-8.57,10.66-12.67Zm277.41,168.33c19.49,9.31,38.68,15.25,59.74,13.59-7.25-6.55-14.7-12.55-22.32-18.33-5.22-3.96-10.1-7.9-7.16-15.75-3.77-.41-7.04-1.04-10.3-.99-1.58.03-3.62.94-4.62,2.14-5.08,6.09-9.89,12.41-15.34,19.34Zm134.73-43.32c.23.06.46.12.69.18.17,2.49.21,4.99.53,7.46.92,7.07,3.01,7.93,9.05,4.09,12.33-7.83,18.85-20.05,23.35-33.12,2-5.79.76-12.73.74-19.14,0-.79-1.61-1.57-2.48-2.35-.63.99-1.9,2.07-1.79,2.97.77,6.01-2.71,9.59-7.26,11.92-4.52,2.31-9.62,3.47-14.32,5.47-1.73.73-3.96,2.16-4.39,3.71-1.71,6.18-2.8,12.53-4.13,18.82Zm-122.2-28.97c.25.31.51.62.76.94,10.41,0,20.81-.08,31.22.03,7.13.08,14.25.36,21.37.7,3.11.15,4.3-1.21,3.93-4.14-.66-5.25-1.08-10.56-2.17-15.72-1.37-6.52-2.67-7.02-9.45-6.1-11.69,1.59-21.67,7.07-31.18,13.57-4.96,3.39-9.67,7.14-14.49,10.73Zm30.75-36.36c-12.64-7.08-25.96-14.54-39.77-22.28,9.08,16.19,7.44,33.07,2.94,50.36,12.69-9.68,24.95-19.02,36.83-28.08Zm193.6,167.92c19.16,4.78,38.08,9.64,57.08,14.13,4.07.96,7.76-1.22,11.31-3.66-20.92-18.14-44.31-21.34-68.39-10.47Zm-659.08,527.77c-5.23-2.74-10.4-5.6-15.7-8.19-18.68-9.12-36.4-19.82-53.26-32.01-8.6-6.22-17.51-12.03-26.53-17.61-5.46-3.38-5.68-3.04-9.9-1.05,30.28,27.41,65.87,46.72,105.39,58.86Zm741.41-227.55c.07.48.14.97.22,1.45,1.59-.51,3.75-.54,4.66-1.62,6.05-7.2,12.29-14.3,17.61-22.03,12.3-17.87,24.11-36.08,36.13-54.19-2.34-.21-4.9-.45-7.33-.67-8.35,13.03-16.48,26.13-25.02,38.95-8.55,12.84-17.5,25.42-26.27,38.11Zm-186.07-442.73c-18.33-4.43-35.96-8.69-54.02-13.06.73,8.84,1.41,17.09,2.21,26.8,1.85-2.01,2.61-2.74,3.28-3.56,2.5-3.08,4.75-6.4,7.49-9.24,4.49-4.63,9.29-5.67,14.81-2.33,3.83,2.32,7.03,5.86,10.01,9.3,1.84,2.12,3.12,3.39,5.59,1.26,3.37-2.92,6.74-5.82,10.63-9.18Zm-256.06,130.19c7.26-5.62,14.85-18.29,17.44-28.19,1.74-6.66,1.4-13.27-1.39-19.51-.72-1.61-3.1-2.48-4.71-3.69-.8,1.44-1.89,2.79-2.35,4.33-2.41,8.09-3.92,16.55-7.19,24.27-3.14,7.42-1.26,14.53-1.79,22.79Zm336.71,412.3c25.06-7.19,77.74-52.62,79.02-68.46-23.92,26.11-50.73,48.06-79.02,68.46Zm-257.95-426.32c.23.33.47.67.7,1,8.41-9.05,16.87-18.05,25.2-27.17,2.24-2.45.54-3.81-1.66-5.37-4.65-3.3-9.02-7-12.54-9.78-3.61,12.76-7.66,27.04-11.7,41.33Zm266.21,79.96c.67.12,1.34.24,2.02.35-1.83-8.9,4.82-11.05,10.05-14.33.28-.17.59-.34.9-.41,3.25-.78,3.81-2.82,2.49-5.57-3.44-7.15-6.84-14.33-10.51-21.37-.88-1.69-2.72-2.88-4.12-4.3-.77,2-2.21,4-2.2,6,.05,12.1.41,24.2.72,36.29.03,1.11.42,2.22.64,3.33Zm-1.95,10.45c-1.79,8.91-3.51,17.49-5.23,26.06.37.27.74.54,1.1.81,12.64-8.85,25.27-17.7,37.91-26.56-.24-.38-.47-.75-.71-1.13-5.18,1.84-10.34,5.05-15.55,5.15-5.67.1-11.39-2.69-17.52-4.34Zm-303.67-133.38c.49-.63.94-1.28,1.47-1.87,7.54-8.35,14.81-16.97,22.75-24.93,4.65-4.66,10.8-6.28,17.52-4.36,1.15.33,2.93.42,3.71-.24,5.1-4.28,10-8.79,15.82-13.99-25.78.43-56.47,23.31-61.27,45.38Zm364.12,99.85c-7.69,3.06-15.99,6.26-24.21,9.66-4.34,1.8-1.55,5.57-1.68,8.37-.05,1.01,2.09,2.74,3.49,3.09,8.02,1.98,15.03-.17,20.75-6.12.91-.94,1.49-2.53,1.58-3.86.22-3.49.07-7.01.07-11.15Zm-73.26-35c-1.13-11.15-7.57-18.67-16.16-25.17-6.33,7.03-12.45,13.75-14.9,23.46,5.97.17,11.54,2.47,14.7-4.64.7-1.57,4.58-3.08,6.28-2.5,2.19.75,4.61,3.37,5.22,5.64.84,3.12,1.6,4.49,4.86,3.21Zm32.3,14.9c4.44,8.15,8.05,14.77,11.84,21.74,8.5-3.58,16.91-7.12,25.32-10.66,0-.63,0-1.27-.01-1.9-11.89-2.94-23.78-5.88-37.15-9.18Zm-747.43-71.36c-14.81-9.65-29.03-18.92-43.72-28.48-2.62,4.33-5.48,9.06-8.51,14.08,19.33-1.68,33.96,11.47,52.23,14.41Zm535.03-31.04c12.29,3.5,24.64,7.01,37.17,10.57-3.94-6.5-9.55-11.41-15.78-15.75-9.71-6.75-15.5-5.33-21.38,5.18Zm-79.74-151.75c.72,9.64,1.4,18.86,2.16,29.02,1.46-1.07,3.33-1.8,4.19-3.18,2.62-4.18,4.84-8.61,7.22-12.94,3.04-5.54-.46-10.07-2.99-14.22-.64-1.05-5.45.39-8.34.77-1.11.15-2.18.54-2.24.56Zm-460.08,195.43c0-.41-.01-.83-.02-1.24-.53-.27-1.03-.64-1.6-.78-11.69-3.03-23.38-6.08-35.1-9.04-5.47-1.38-6.38-.68-7.63,5.3q13.65-.61,21.23,10.59c.54.79,2.31,1.39,3.25,1.13,6.66-1.85,13.25-3.94,19.86-5.96Zm614.97,249.88c.71-7.87,1.38-15.43,2.06-22.97-7.24-1.09-13.85,2-14.4,6.61-.85,7.17,5.2,15.5,12.34,16.36Zm-674.66-219.1c-2.07,1.27-4.08,1.96-5.29,3.35-4.1,4.69-8.23,9.42-11.69,14.58-1.24,1.84-.6,4.95-.81,7.47,2.15-.07,4.51.41,6.43-.3,7.84-2.92,14.02-16.13,11.37-25.1Zm216.21-169.87c18.86,5.03,35.46,1.12,50.1-11.65-16.61,3.86-33.22,7.72-50.1,11.65Zm464.11,176.77c.54-.36,1.07-.73,1.61-1.09-5.82-9.89-11.64-19.78-18.04-30.66-2.77,3.69-6.45,6.82-5.88,8.16,1.82,4.32,4.41,9.45,8.2,11.51,4.34,2.36,8.11,4.8,11.17,8.54.97,1.19,1.97,2.37,2.95,3.55Zm65.47,34.22c5.36-3.86,9.11-8.95,10.86-15.41.3-1.12-.31-3.57-.38-3.57-4.31.28-9.76-.73-12.67,1.53-5.3,4.12-3.65,13.18,2.19,17.45Zm-10.75-31.65c.41.07.82.13,1.23.2,5.04-10.79,10.08-21.57,15.32-32.78-2.24-1.55-4.99-3.45-9.18-6.34-2.64,13.93-5.01,26.42-7.38,38.91Zm29.22,102.73c3.98-13.73,4.78-27.62,2.35-41.65-.19-1.11-1.97-1.95-3-2.92l-1.44.65c0,14.65-1.69,29.35,2.1,43.92Zm19.5-76.32c-13.9,7.93-3.63,18.21-4.01,27.2-.04.97,1.9,2.03,2.92,3.05.36-.28.72-.56,1.08-.84v-29.42Zm-392.87-248.77c8.78-2.22,17.1-4.32,26.62-6.73-10.08-1.77-18.79-3.3-27.88-4.89.46,4.21.82,7.6,1.26,11.62Zm-69.77,47.11c-.69-.59-1.38-1.18-2.07-1.77,7.18-6.51,14.35-13.02,21.97-19.93-3.38-.42-6.74-1.02-10.11-1.15-.96-.04-2.54,1.1-2.87,2.04-2.44,6.89-4.65,13.86-6.92,20.81Zm306.57,111.01c7.31,8.3,14.28,16.23,21.52,24.46,2.56-9.52-7.8-21.08-21.52-24.46Zm-73.2,1.26c3.67,3.21,6.37,8.34,10.1,5.86,4.58-3.05,7.54-8.55,11.2-12.99-.44-.52-.87-1.04-1.31-1.56-6.27,2.72-12.53,5.45-19.99,8.69Zm-234.22,309.79c-1.99,3.12-3.51,5.51-5.74,9,7.83,1.25,14.79,2.35,21.76,3.46l.51-1.9c-5.4-3.46-10.81-6.91-16.53-10.57Zm598.64-167.94c.56.05,1.12.1,1.68.16,5.31-4.92,7.7-11.29,9.05-18.65-3.19.9-5.88,1.57-8.5,2.44-.83.28-2.11,1.05-2.13,1.64-.17,4.8-.1,9.6-.1,14.41Zm-410.44-301.91c-7.6,3.62-9.35,11.61-5.53,16.87.53.72,2.05,1.35,2.83,1.11,1.04-.33,2.54-1.51,2.58-2.38.24-5.19.12-10.4.12-15.6Zm-99.69,423.53c5.85.39,10.87,3.71,15.79-.09,1.1-.85,1.85-2.6,2.02-4.03.07-.6-1.69-1.7-2.79-2.1-6.49-2.37-10.18,2.15-15.02,6.22Zm270.28-312.38c-11.1-2.04-17.51,3.1-15.46,12.31,5.16-4.11,10.08-8.03,15.46-12.31Zm-65.85,142.55c-6.99-3.34-14.98-4.76-23.79-1.69,1.56,1.63,3.46,3.59,5.28,3.52,6.34-.25,12.65-1.19,18.51-1.82Zm-642.72-.48c-1.96-6.24-3.55-11.3-5.42-17.21-1.16,3.35-2.55,6.17-3.02,9.13-.42,2.61-.79,6.44.64,7.79,1.43,1.35,5.12.3,7.8.3Zm782.35,21.1c-11.09,5.2-12.27,8.38-7.14,18.2,2.55-6.49,4.85-12.34,7.14-18.2Zm-387.97-314.05c-.27.47-.55.93-.82,1.4,9.36,4.79,18.72,9.59,28.07,14.38.27-.51.53-1.02.8-1.54-8.77-5.84-17.2-12.33-28.05-14.24Zm504.21,321.97c6.79-1.93,13.58-3.86,20.63-5.87-3.18-5.71-10.21-3.6-20.63,5.87Zm-324.71-272.73c-.69,3.97-5.22,6.68-.1,9.32,4.49,2.32,9.21,4.16,14.86,6.67-5.06-5.48-9.44-10.24-14.76-15.99Zm-217.5-64.01v12.4c4.17-.94,7.83-1.76,11.95-2.69-3.3-2.81-6.16-5.26-9.05-7.67-.85-.71-1.81-1.28-2.9-2.03Zm20.81,90.39l-1.95-1.95c-4.87,4.9-9.75,9.8-14.62,14.69.64.64,1.28,1.28,1.91,1.92,8.31-1.45,13.3-6.45,14.65-14.66Zm-63.14-3.46c10.34,2.25,11.86,1.44,12.38-6.31-6.29-.6-8.48.47-12.38,6.31Zm495.74,205.05c-.15-.49-.31-.98-.46-1.47-2.58.23-6.46-.5-7.46.88-2.19,3.01-2.92,7.08-4.24,10.72.35.08.7.15,1.05.23,3.7-3.45,7.41-6.9,11.11-10.35Zm-330.46,243.22c9.51-.78,18.06-1.48,26.62-2.18-8.55.92-17.65-6.41-26.62,2.18Zm-4.38-305.19c-.5-.35-1-.69-1.51-1.04-3.23,3.02-6.47,6.04-10.03,9.37,2.34,1.59,4.02,2.73,6.14,4.17,2-4.62,3.7-8.56,5.4-12.5Zm-130.39,77.94c2.96,5.33,5.65,10.18,8.56,15.41,2.19-8.64-.37-13.19-8.56-15.41Zm116.23-51.01l-.39-1.99c-2.31,0-5.6-.96-6.72.19-2.71,2.78-.66,5.61,2.07,8.43,1.8-2.37,3.42-4.5,5.04-6.63Zm-284.68,53.41c-.65-.28-1.3-.57-1.95-.85-2.72,5.67-5.43,11.34-8.15,17.02.63.3,1.25.6,1.88.9,2.74-5.69,5.49-11.38,8.23-17.07Zm231.29,47.83c.82,9.74,1.95,11.14,9.13,12.62-2.79-3.85-5.58-7.71-9.13-12.62Zm-63.7-279.79c-5.19,1.25-7.06,6.08-6,13.83,1.85-4.25,3.69-8.5,6-13.83Zm55.68-1.79c-7.94,2.01-9.06,4.01-6.68,10.53,2.33-3.67,4.5-7.1,6.68-10.53Zm-56.49-10.44c4.78.14,6.46-4.14,4.14-10.19-1.47,3.62-2.77,6.81-4.14,10.19Zm175.92,7.49c-1.2,3.56-2.11,6.23-3.01,8.91,3.59-1.88,7.18-3.74,3.01-8.91Zm-86.79,193.91l-1.41.28,2.1,10.92c3.16-4.24.26-7.58-.69-11.2Zm379.84,77.16c-.73-.1-1.47-.2-2.2-.3l-1.48,11.04c.51.07,1.01.14,1.52.21.72-3.65,1.44-7.3,2.16-10.95Zm-741.43-74.62c-7.69-1.69-8.51-1.28-8.24,3.38,2.43-1,4.78-1.96,8.24-3.38Zm376.87,26.63c-.6.17-1.19.34-1.79.51.88,2.53,1.77,5.06,2.65,7.59.65-.19,1.29-.39,1.94-.58,1.34-3.11-1.12-5.21-2.8-7.52Z" style="stroke-width: 0px;"/>
      <path d="m1067.44,515.8c-3.66,7.94-9.88,10.27-17.71,9.93-19.06-.83-38.27-.51-56.65-6.72-27.27-9.21-46.41-27.75-59.73-52.85-12.75-24.03-16.87-49.9-16.17-76.76.29-10.94,7.91-19.6,18.21-21.19,10.09-1.56,20.99,4.7,23.14,15.25,1.33,6.5-.28,13.74-1.29,20.54-1.26,8.49-3.45,16.84-4.88,25.31-1.32,7.8,2.21,14.18,6.59,20.3,4.15,5.79,8.21,11.66,11.93,17.73,10.24,16.73,25.96,25.85,44.28,29.58,10.26,2.09,21.29.38,33.16.38-4.56-5.59-8.39-10.31-12.23-15.01-9.29-11.34-15.43-24.37-20.55-37.98-1.46-3.87-2.79-7.87-4.86-11.4-4.02-6.86-3.31-14.02-2.37-21.34.85-6.63,4.34-11.27,10.98-14.16,3.81,7.12,7.76,14.71,11.88,22.2,8.9,16.16,17.39,32.57,26.94,48.34,13.82,22.81,34.9,36.34,59.86,44.42,3.73,1.21,7.76,2.48,10.7,4.89,6.36,5.19,7.4,13.7,3.33,20.26-4.29,6.9-12.7,10.03-20.38,5.9-12.96-6.96-25.39-14.93-37.97-22.59-2.11-1.28-3.89-3.11-6.2-5Z" style="stroke-width: 0px;"/>
      <path d="m904.76,336.44c8.24,1.66,12.82,6.77,14.38,14.36,1.66,8.1-1.93,14.53-8.55,18.77-8.79,5.63-17.96,10.69-27.08,15.8-7.9,4.43-16.68,5.47-25.52,5.74-28.39.88-55.21-4.58-78.86-21.14-11.81-8.27-23.84-16.51-34.36-26.28-15.98-14.85-27.32-33.47-36.72-53.02-5.5-11.43-10.68-23.33-13.66-35.59-3.83-15.74,1.5-30.04,13.13-41.29,12.06-11.67,29.5-7.44,35.27,8.31.83,2.26.49,5.73-.72,7.84-10.94,19.16-13.15,39.77-10.18,61.12,1.09,7.87,6.18,13.84,12.19,18.86,1.91,1.59,3.82,3.27,5.98,4.47,11.07,6.13,18.92,15.97,28.18,24.19,11.3,10.04,24.99,15.45,39.62,18.64,1.43.31,3.02.61,4.17,1.43,20.48,14.58,41.08,11.64,61.96.84,9.9-5.12,16.86-12.66,20.78-23.02Z" style="stroke-width: 0px;"/>
      <path d="m567.27,43.65c-2.39,25.43-4.83,51.35-7.27,77.27-.38-.03-.76-.06-1.14-.1.48-6.42,1.13-12.84,1.4-19.27.72-16.78,1.39-33.55,1.83-50.34.21-8.18,3.8-12.74,11.85-14.4,2.84-.59,5.56-1.77,8.37-2.58.9-.26,1.9-.3,2.84-.22,4.2.34,8.39,1.06,12.58,1.09,17.44.15,34.93-.7,52.3.39,13.86.87,27.56,4.1,41.37,6.03,1.82.25,3.81-1.2,5.78-1.46,1.37-.18,3.06-.07,4.21.6,2.57,1.48,4.67,4.02,7.36,4.99,7.02,2.54,14.27,4.45,21.41,6.65.74.23,1.41.7,1.88,1.72-9.09-2.69-18.19-5.39-27.32-8.09v60.86c-.15,0-.3,0-.45,0,0-4.75-.19-9.5.04-14.24.7-14.57-.33-28.93-4.35-43.02-.96-3.35-2.63-5.45-6.23-6.24-26.28-5.75-52.85-8.1-79.71-7.25-.96.03-1.92.31-3.57.59,4.68,22.38,4.65,44.78,3.89,67.21-.4.02-.8.04-1.2.06,0-1.88-.03-3.76,0-5.63.4-19.18.4-38.28-6.38-56.71-1.41-3.83-2.98-5.05-7.1-4.7-11.2.97-11.25.75-8.92,11.4,4.03,18.41,3.12,36.96,1.02,55.61,0-1.3-.04-2.61,0-3.91.73-18.48,1.94-36.99-5.75-54.59-2.63-6.01-4.02-6.68-10.28-4.49-2.46.86-4.96,1.62-8.46,2.75Z" style="stroke-width: 0px;"/>
      <path d="m830.58,359.63c11.68-2.17,24.41-3.08,36.07-7.09,11.57-3.98,22.06-11.09,33.76-17.21-3.92,20.24-47.29,40.25-69.83,24.3Z" style="stroke-width: 0px;"/>
      <path d="m756.91,314.77c-21.32-10.8-26.35-29.03-21.84-50.41,7.09,16.38,14.52,33.53,21.84,50.41Z" style="stroke-width: 0px;"/>
      <path d="m413.92,90.28c-1.14.93-2.28,1.86-3.36,2.74,10.06,16.24,10.03,35.29,15.92,52.58-5.98-16.91-11.96-33.81-17.94-50.72-.43.15-.86.3-1.3.45-.32-.07-.73-.29-.94-.17-12.55,7.07-25.2,13.96-37.55,21.36-4.64,2.78-8.51,6.84-12.89,10.11-.76.57-2.26.15-3.42.18.27-1.4.07-3.55.9-4.09,5.4-3.53,10.95-6.87,16.61-9.99,12.05-6.65,24.16-13.19,36.33-19.62,2.39-1.27,5.16-1.82,7.76-2.71,0,0-.12-.12-.12-.12Z" style="stroke-width: 0px;"/>
      <path d="m723.97,153.95c-7.46-2.52-14.89-5.12-22.37-7.55-22.56-7.35-45.9-10.5-69.35-13.38-20.07-2.46-40.05-5.65-60.02-8.77-2.78-.43-7.97-1.16-6.5-4.93,1.7-4.34,5.04.22,7.31,1.19,13.51,5.8,27.87,7.39,42.22,9.1,28.2,3.37,56.5,6.21,83.83,14.49,8.52,2.58,16.84,5.84,25.25,8.78l-.37,1.07Z" style="stroke-width: 0px;"/>
      <path d="m1098.4,234.35c-8.08-14.9-22.01-22.79-34.64-32.13-7.32-5.42-14.19-11.45-21.33-17.12-4.03-3.2-8.3-6.12-12.25-9.41-1.05-.87-1.35-2.65-2-4.02,1.61.18,3.64-.2,4.74.64,3.16,2.41,6.31,5.01,8.79,8.08,11.98,14.8,28.28,23.98,43.81,34.13,6.63,4.33,10.83,10.1,12.97,17.56.2.69-.05,1.52-.1,2.28Z" style="stroke-width: 0px;"/>
      <path d="m358.59,173.64c4.36-1.89,8.69-3.84,13.08-5.65,2.88-1.19,5.84-2.19,10.18-3.79-5.81-5.96-10.94-11.22-16.07-16.48-1.27-1.3-2.86-2.41-3.78-3.92-.73-1.19-.66-2.87-.95-4.33,1.39.42,3.28.39,4.1,1.32,3.52,3.98,6.99,8.05,10,12.42,7.56,10.99,7.46,11.06,20.28,7.15,8.74-2.66,17.47-5.34,26.22-7.97.87-.26,1.82-.24,2.89.38-9.06,2.82-18.17,5.49-27.17,8.51-4.49,1.51-8.68,3.94-13.19,5.39-4.96,1.59-10.15,2.45-15.21,3.77-3.53.92-7,2.06-10.49,3.1l.12.1Z" style="stroke-width: 0px;"/>
      <path d="m858.88,79.87c-15.87-4.91-31.7-9.96-47.62-14.68-10.66-3.16-21.41-6-32.21-8.64-4.15-1.02-8.56-.95-12.8-1.67-1.21-.2-2.25-1.42-3.37-2.17,1.21-.78,2.54-2.34,3.62-2.19,4.25.59,8.51,1.43,12.61,2.7,23.96,7.41,47.89,14.91,71.79,22.53,2.8.89,5.28,2.76,7.91,4.18l.08-.05Z" style="stroke-width: 0px;"/>
      <path d="m95.29,515.34c-1.29,1.44-2.58,2.87-4.43,4.93,2.39,2.14,4.66,4.16,6.92,6.18-.33-.05-.7-.01-.98-.16q-8.37-4.44-15.2,2.6c-2.42,2.51-4.6,5.27-7.12,7.68-1,.95-2.61,1.25-3.95,1.85.23-1.63-.13-3.87.8-4.79,3.65-3.61,7.7-6.82,11.63-10.15,1.11-.94,2.31-1.77,4.63-3.53-4.12-2.77-7.54-5.14-11.04-7.36-1.39-.89-3.21-1.2-4.43-2.24-1.43-1.22-2.42-2.95-3.61-4.46,1.95.21,4.19-.11,5.8.75,2.9,1.54,5.64,3.56,8.05,5.8,3.84,3.58,7.61,6.34,12.91,2.91Z" style="stroke-width: 0px;"/>
      <path d="m827.8,188.21c-24.77-7.93-48.06-20.81-74.42-23.49-.36.59-.72,1.17-1.08,1.76,1.24.47,2.47.95,3.71,1.42-.31.39-.63.78-.94,1.17-1.87-.86-3.74-1.71-5.57-2.56,1.85-7.49,2.21-8.05,9.37-5.53,12.84,4.53,25.44,9.72,38.2,14.5,8.87,3.32,17.85,6.34,26.72,9.68,1.5.57,2.66,2.05,3.98,3.11,0,0,.02-.06.02-.06Z" style="stroke-width: 0px;"/>
      <path d="m665.84,126.34c-.31-23.39-3.97-46.32-9.23-69.03-.37-1.61-.81-3.34-.57-4.93.27-1.85,1.24-3.59,1.91-5.37.86,1.77,2.22,3.47,2.47,5.32.59,4.44.47,8.96.98,13.42,1.47,12.87,3.28,25.7,4.59,38.58.74,7.24.76,14.56,1.1,21.85-.42.05-.83.1-1.25.16Z" style="stroke-width: 0px;"/>
      <path d="m1006.48,269.04c4.96-13.19,9.68-26.26,11.42-40.23.31-2.47.49-4.96.54-7.44.1-5.32-.11-10.65.23-15.96.09-1.44,1.7-2.78,2.61-4.16.78,1.44,2.38,2.97,2.23,4.3-2.05,18.01-5.03,35.84-12.23,52.65-1.55,3.63-3.2,7.23-4.8,10.84Z" style="stroke-width: 0px;"/>
      <path d="m816.2,153.39c3.05-14.06,5.91-28.18,9.24-42.18,1.92-8.07,4.6-15.96,6.99-23.91.48-1.59.94-3.32,1.92-4.57,1.05-1.33,2.71-2.19,4.1-3.25-.02,1.67.42,3.52-.15,4.98-4.08,10.52-9.1,20.73-12.39,31.49-3.29,10.77-4.92,22.05-7.28,33.11-.33,1.56-.66,3.11-.99,4.67-.48-.11-.96-.22-1.44-.34Z" style="stroke-width: 0px;"/>
      <path d="m214.15,358.96c.2-2.56.26-5.14.64-7.67.29-1.91.5-4.1,1.56-5.57,9.16-12.78,18.5-25.42,27.79-38.11.56.42,1.11.85,1.67,1.27-.86,1.1-1.72,2.19-2.57,3.29-5.16,6.72-12.51,12.75-14.89,20.34-2.54,8.11-8.29,13.96-10.92,21.63-.6,1.75-2.2,3.17-3.34,4.74,0,0,.06.1.06.1Z" style="stroke-width: 0px;"/>
      <path d="m1079.58,273.3c-5.45,10.53-10.8,20.44-15.73,30.55-4.12,8.45-6.91,17.26-4.91,26.94.22,1.07-.98,2.44-1.52,3.68-.92-1-2.42-1.88-2.68-3.03-1.75-7.73.57-14.89,4.06-21.58,6.21-11.91,12.8-23.62,19.27-35.4.21-.38.74-.58,1.51-1.15Z" style="stroke-width: 0px;"/>
      <path d="m862.32,155.41c2.38-6.51,5.25-12.89,7.04-19.56,2.79-10.41,4.77-21.03,7.31-31.51.39-1.59,1.93-2.9,2.94-4.34.45,1.74,1.68,3.74,1.22,5.19-4,12.67-8.29,25.24-12.53,37.83-1.46,4.35-3.02,8.66-4.54,12.99-.48-.2-.96-.4-1.44-.61Z" style="stroke-width: 0px;"/>
      <path d="m729.94,121.24c0-4.63.23-9.26-.05-13.87-.64-10.9-1.59-21.77-2.22-32.67-.09-1.53.9-3.11,1.39-4.67,1.08,1.33,3.1,2.67,3.1,4,0,11.27-.35,22.54-.66,33.81-.12,4.45-.42,8.89-.63,13.34-.31.02-.62.05-.93.07Z" style="stroke-width: 0px;"/>
      <path d="m900.44,173.38c1.21-9.98,2.64-19.48,3.42-29.03.46-5.58-.27-11.25-.09-16.87.05-1.44,1.54-2.83,2.36-4.25.94,1.5,2.87,3.15,2.66,4.46-2.33,14.88-4.98,29.71-7.57,44.56-.05.27-.34.51-.79,1.13Z" style="stroke-width: 0px;"/>
      <path d="m1017.9,287.07c2.03-4.11,4.09-8.2,6.08-12.32,5.55-11.53,11.01-23.11,16.68-34.58.64-1.29,2.41-2.02,3.66-3,.12,1.77.97,3.97.23,5.25-8.62,14.95-17.47,29.76-26.26,44.6-.13.02-.26.04-.39.06Z" style="stroke-width: 0px;"/>
      <path d="m272.72,262.44c-.84-.1-1.28-.02-1.42-.19-9.83-12.39-18.5-25.43-22.43-41.06-.2-.8-.54-1.74-.29-2.43.39-1.09,1.22-2.03,1.87-3.03.88.79,2.32,1.44,2.55,2.39.78,3.21,1.01,6.54,1.66,9.79,2.3,11.49,7.83,21.4,15.09,30.44.98,1.22,1.84,2.53,2.97,4.1Z" style="stroke-width: 0px;"/>
      <path d="m509.71,115.96c-4.6-12.24-9.26-24.46-13.69-36.76-.43-1.2.54-2.91.86-4.38,1.18.9,3.11,1.6,3.42,2.74,3.55,12.74,6.84,25.56,10.21,38.35-.27.02-.54.03-.81.05Z" style="stroke-width: 0px;"/>
      <path d="m953.48,253.07c-2.72-2.84-5.52-5.6-8.13-8.53-7.49-8.41-14.93-16.87-22.33-25.36-1.07-1.23-2.06-2.66-2.63-4.17-.32-.84.32-2.03.52-3.06,1.14.34,2.79.31,3.36,1.08,9.67,13.02,19.2,26.13,28.75,39.24.19.26.24.62.36.93l.1-.13Z" style="stroke-width: 0px;"/>
      <path d="m186.64,365.34c-12.43-6.9-24.89-13.75-37.25-20.79-1.13-.64-1.6-2.45-2.38-3.71,1.46-.15,3.35-.96,4.3-.33,8.04,5.27,15.96,10.72,23.79,16.28,4,2.84,7.77,6.02,11.64,9.05-.04-.17-.07-.34-.11-.5Z" style="stroke-width: 0px;"/>
      <path d="m925.84,192.82c4.47-11.77,8.94-23.54,13.43-35.31.35-.92.69-2.02,1.4-2.58.79-.62,1.99-.72,3-1.04.26,1.15,1.1,2.59.7,3.41-5.92,11.99-12,23.9-18.05,35.82-.16-.1-.32-.2-.48-.3Z" style="stroke-width: 0px;"/>
      <path d="m149.05,430.49c-4.52-2.93-8.95-6.03-13.6-8.75-7.31-4.27-14.83-8.18-22.11-12.49-1.31-.77-1.89-2.78-2.8-4.22,1.58.07,3.57-.46,4.67.3,11.56,7.98,22.97,16.16,34.43,24.29-.2.29-.39.58-.59.87Z" style="stroke-width: 0px;"/>
      <path d="m258.75,255.77c-10.02-9.14-19.42-17.67-28.71-26.32-.87-.81-1-2.44-1.47-3.68,1.31-.04,2.73-.4,3.9-.02,1.19.39,2.31,1.37,3.15,2.36,7.64,9.05,15.21,18.16,23.13,27.65Z" style="stroke-width: 0px;"/>
      <path d="m208.12,355.5c-5.64-6.43-11.14-13-17-19.22-2.68-2.85-6.23-4.88-9.08-7.6-1.03-.98-1.17-2.9-1.72-4.4,1.46.27,3.46.03,4.3.9,4.36,4.51,8.63,9.14,12.54,14.05,4.07,5.11,7.68,10.58,11.49,15.89-.18.12-.35.24-.53.37Z" style="stroke-width: 0px;"/>
      <path d="m990.1,207.9c2-9.87,3.91-19.75,6.12-29.57.3-1.35,2.11-2.37,3.22-3.54.47,1.44,1.65,3.11,1.29,4.3-3.03,9.78-6.34,19.47-9.57,29.18-.35-.12-.7-.25-1.05-.37Z" style="stroke-width: 0px;"/>
      <path d="m312.81,208.68c-7.11-6.64-14.19-13.32-21.37-19.89-2.56-2.34-5.57-4.22-7.98-6.69-.95-.97-.81-3-1.17-4.55,1.41.4,3.31.36,4.17,1.28,9.01,9.68,17.85,19.52,26.74,29.31-.13.18-.26.36-.39.54Z" style="stroke-width: 0px;"/>
      <path d="m161.38,391.32c-10.14-6.19-20.32-12.31-30.35-18.66-.96-.61-1-2.66-1.46-4.04,1.34.1,3.05-.29,3.95.39,9.49,7.17,18.85,14.52,28.24,21.81-.13.17-.25.33-.38.5Z" style="stroke-width: 0px;"/>
      <path d="m226.76,273.71c-8.39-5.24-16.82-10.42-25.11-15.81-1.01-.65-1.26-2.46-1.87-3.74,1.63-.02,3.81-.73,4.81.06,7.76,6.11,15.29,12.51,22.89,18.82l-.72.67Z" style="stroke-width: 0px;"/>
      <path d="m1087.24,341.65c-5.71,10.5-11.39,21.01-17.18,31.46-.53.96-1.75,1.53-2.65,2.28-.54-1.21-1.8-2.67-1.48-3.6.95-2.81,2.19-5.64,3.89-8.06,4.96-7.09,10.18-13.99,15.38-20.91.43-.57,1.42-.71,2.14-1.05l-.09-.12Z" style="stroke-width: 0px;"/>
      <path d="m211.22,321.38c-7.83-6.82-15.68-13.63-23.48-20.5-1.1-.97-2.22-2.1-2.81-3.39-.38-.84.19-2.11.33-3.19,1.04.18,2.49-.03,3.05.58,7.87,8.64,15.62,17.4,23.4,26.13-.16.12-.32.24-.48.36Z" style="stroke-width: 0px;"/>
      <path d="m115.35,494.38c-4.5-4.83-8.77-9.89-13.57-14.4-2.86-2.68-6.62-4.37-9.79-6.76-1.17-.88-1.78-2.51-2.64-3.79,1.68-.03,3.95-.77,4.93.04,4.44,3.69,8.81,7.57,12.65,11.87,3.46,3.87,6.19,8.38,9.25,12.61-.27.14-.55.28-.82.42Z" style="stroke-width: 0px;"/>
      <path d="m481.43,110.85c-.48-.73-1.04-1.42-1.42-2.19-4.35-8.89-8.68-17.8-13.02-26.7-.22-.44-.72-.86-.71-1.29.01-1.35.2-2.7.32-4.06,1.28.68,3.25,1.05,3.71,2.09,2.62,5.89,4.97,11.91,7.23,17.95,1.7,4.55,3.14,9.21,4.69,13.81-.27.13-.54.25-.81.38Z" style="stroke-width: 0px;"/>
      <path d="m1138.38,308.26c-9.72-8.11-18.6-15.46-27.36-22.94-.77-.66-.79-2.2-1.16-3.34,1.22-.1,2.78-.72,3.59-.19,2.19,1.45,4.25,3.21,6.02,5.16,6.17,6.79,12.19,13.72,18.91,21.31Z" style="stroke-width: 0px;"/>
      <path d="m448.22,125.11c-4.41-8.96-8.9-17.88-13.11-26.94-.46-.99.77-2.76,1.21-4.17,1.07.88,2.71,1.54,3.11,2.66,3.35,9.29,6.47,18.66,9.66,28.01-.29.15-.59.29-.88.44Z" style="stroke-width: 0px;"/>
      <path d="m1099.23,381.62c-4.61,4.41-9.13,8.92-13.92,13.14-1,.88-2.97.65-4.5.93-.26-1.48-1.03-3.13-.64-4.41.51-1.67,2.42-4.52,2.91-4.36,6.42,2.12,9.62-3.11,13.93-5.71.4-.24.85-.38,1.28-.57.31.33.62.65.93.98Z" style="stroke-width: 0px;"/>
      <path d="m456.7,71.88c2.01-1.29,3.87-3.1,6.07-3.78,20.9-6.47,41.85-12.74,62.79-19.07l-.1-.06c-6.96,2.49-13.88,5.12-20.9,7.43-15.94,5.24-31.93,10.32-47.92,15.45-.02-.02.06.04.06.04Z" style="stroke-width: 0px;"/>
      <path d="m358.47,173.54c-1.81,1.15-3.63,2.28-5.43,3.45-5.73,3.71-10.21,8.28-11.57,15.4-.25,1.32-2.15,2.32-3.29,3.47-.4-1.61-1.41-3.34-1.1-4.8,1.68-8.05,12.18-16.39,21.51-17.41,0,0-.11-.1-.11-.1Z" style="stroke-width: 0px;"/>
      <path d="m319,179.32c-5.51-6.14-11.11-12.2-16.43-18.5-.88-1.05-.51-3.16-.72-4.77,1.38.5,3.36.58,4.05,1.56,4.9,6.93,9.54,14.05,14.26,21.11-.39.2-.78.4-1.17.59Z" style="stroke-width: 0px;"/>
      <path d="m953.81,194.34c1.65-8.01,3.22-16.05,5.08-24.01.23-.97,2.06-1.57,3.15-2.34.32,1.34,1.19,2.84.86,3.99-1.44,4.94-3.27,9.77-4.9,14.66-.9,2.69-1.71,5.41-2.55,8.12-.54-.14-1.09-.28-1.63-.42Z" style="stroke-width: 0px;"/>
      <path d="m1267.96,1218.14c-1-3.26-2.19-6.48-2.93-9.8-.42-1.89-.49-4.06.02-5.89.3-1.09,2.04-2.43,3.15-2.45,1.17-.02,3.44,1.5,3.38,2.19-.45,5.49-1.34,10.94-2.09,16.41-.51-.15-1.02-.31-1.53-.46Z" style="stroke-width: 0px;"/>
      <path d="m345.14,167.4c-6.15-5.11-12.36-10.17-18.4-15.41-.7-.6-.48-2.26-.69-3.43,1.18,0,2.87-.5,3.45.09,5.67,5.79,11.16,11.77,16.71,17.69-.36.36-.71.71-1.07,1.07Z" style="stroke-width: 0px;"/>
      <path d="m827.77,188.27c1.39-.25,2.86-.92,4.16-.68,17.61,3.34,35.19,6.8,52.14,10.11.01,0-.97.32-1.86.16-17.64-3.22-35.27-6.49-52.9-9.74-.47-.09-.98.02-1.5.06-.02.02-.04.09-.04.09Z" style="stroke-width: 0px;"/>
      <path d="m858.8,79.92c3.94.91,8.09,1.31,11.76,2.84,9.73,4.05,19.25,8.58,28.52,13.58-13.39-5.5-26.78-11-40.19-16.48-.02.02-.1.07-.1.07Z" style="stroke-width: 0px;"/>
      <path d="m957.14,421.39c1.47,8.73,2.69,16.02,4.14,24.63-5.55-7.85-7.1-15.15-4.14-24.63Z" style="stroke-width: 0px;"/>
      <path d="m953.37,253.19c1.48,1.96,2.96,3.91,4.91,6.5,4.88-5.97,8.77-10.73,12.66-15.49.28.22.56.45.85.67-3.01,3.77-6.23,7.39-8.92,11.37-1.34,1.98-1.71,4.62-2.52,6.95l.11-.13h-3.2c-1.34-3.54-2.57-6.77-3.79-10,0,0-.1.12-.1.12Z" style="stroke-width: 0px;"/>
      <path d="m974.16,240.16c4.78-9.36,9.56-18.73,14.34-28.09.37.19.74.38,1.1.56-4.77,9.36-9.53,18.71-14.3,28.07-.38-.18-.76-.36-1.15-.54Z" style="stroke-width: 0px;"/>
      <path d="m769.57,66.66l-29.75-9.4c.13-.4.25-.8.37-1.21,9.91,3.15,19.82,6.31,29.73,9.46-.12.38-.24.76-.35,1.14Z" style="stroke-width: 0px;"/>
      <path d="m1111.51,456.36c-2.91,1.17-5.78,2.45-8.75,3.41-.59.19-1.81-.66-2.29-1.35-.28-.4.12-1.81.62-2.11,3.06-1.87,6.26-3.35,9.83-1.91.2.65.39,1.3.59,1.95Z" style="stroke-width: 0px;"/>
      <path d="m999.84,332.32c4.69,9.15,9.39,18.3,14.08,27.45-.31.16-.63.33-.94.49-4.8-9.09-9.59-18.17-14.39-27.26.42-.23.84-.45,1.25-.68Z" style="stroke-width: 0px;"/>
      <path d="m379.33,336.78c-9.93,1.97-18.41,1.83-26.23-3.46,8.36,1.1,16.72,2.2,26.23,3.46Z" style="stroke-width: 0px;"/>
      <path d="m960.35,263.2c5.36,8.05,10.72,16.09,16.08,24.14l-1.59,1c-4.8-8.42-9.6-16.83-14.39-25.25,0,0-.1.12-.1.12Z" style="stroke-width: 0px;"/>
      <path d="m525.56,49.03c7.97-2.12,15.95-4.24,23.92-6.36.14.6.27,1.2.41,1.8-8.13,1.51-16.26,3.01-24.41,4.51-.02-.01.08.05.08.05Z" style="stroke-width: 0px;"/>
      <path d="m414.04,90.39c5.25-3,10.5-5.99,15.75-8.99,1.55-.89,3.08-1.82,4.62-2.73,0,0-.04-.06-.04-.06-.69,1.14-1.11,2.84-2.11,3.33-6.03,2.93-12.2,5.59-18.33,8.33,0,0,.12.11.12.11Z" style="stroke-width: 0px;"/>
      <path d="m993.93,324.14c-3.51-6.65-7.01-13.29-10.52-19.94.35-.19.7-.38,1.05-.56,3.54,6.64,7.09,13.29,10.63,19.93-.39.19-.77.38-1.16.57Z" style="stroke-width: 0px;"/>
      <path d="m1147.14,322.53c3.53,6.37,7.06,12.73,10.59,19.1-.43.24-.87.48-1.3.71-3.42-6.43-6.85-12.85-10.27-19.28.33-.18.66-.36.99-.54Z" style="stroke-width: 0px;"/>
      <path d="m1029.08,391.15c-3.64-6.93-7.28-13.86-10.93-20.79.37-.19.73-.38,1.1-.57,3.62,6.94,7.24,13.89,10.85,20.83-.34.18-.68.36-1.03.54Z" style="stroke-width: 0px;"/>
      <path d="m214.09,358.86c-1.15,3.54-2.13,7.15-3.49,10.61-1.38,3.52-3.13,6.9-4.72,10.35l-1.13-.49c3.14-6.78,6.28-13.56,9.4-20.35-.01-.02-.07-.12-.07-.12Z" style="stroke-width: 0px;"/>
      <path d="m434.41,78.68c5.51-2.04,10.98-4.18,16.55-6.06,1.78-.6,3.8-.53,5.72-.75.02.01-.07-.04-.04-.03-5.2,2.15-10.37,4.46-15.68,6.32-2,.7-4.35.36-6.57.47-.02-.02.02.04.02.04Z" style="stroke-width: 0px;"/>
      <path d="m294.11,249.02c-3.7,5.12-7.4,10.25-11.1,15.37l-.97-.68c3.66-5.11,7.32-10.23,10.98-15.34.36.22.73.44,1.09.66Z" style="stroke-width: 0px;"/>
      <path d="m1087.33,341.77c3.23-5.57,6.47-11.14,9.7-16.71.5.32,1.01.65,1.51.97-3.77,5.2-7.55,10.4-11.31,15.61,0,.01.1.13.1.13Z" style="stroke-width: 0px;"/>
      <path d="m144.2,472.31c-4.88,4.89-9.76,9.77-14.63,14.66,4.88-4.89,9.76-9.77,14.63-14.66Z" style="stroke-width: 0px;"/>
      <path d="m1034.07,398.57c2.05,4.58,4.11,9.15,6.16,13.73-.31.15-.63.29-.94.44-2.18-4.56-4.35-9.12-6.53-13.68.44-.16.87-.33,1.31-.49Z" style="stroke-width: 0px;"/>
      <path d="m1126.36,459.05c-1.55.83-2.53,1.79-3.34,1.66-.86-.14-1.56-1.31-2.33-2.03.92-.72,1.78-1.86,2.78-2,.68-.1,1.56,1.21,2.9,2.36Z" style="stroke-width: 0px;"/>
      <path d="m189.61,1028.89c-3.06-2.26-6.11-4.52-9.17-6.78,0,0-.18.17-.18.17,4.81-.12,7.2,3.11,9.28,6.76,0,0,.07-.15.07-.15Z" style="stroke-width: 0px;"/>
      <path d="m143.14,849.43c3.57,2.04,8.2,2.99,8.52,8.35,0,0,.2-.19.2-.19-2.86-2.75-5.71-5.5-8.57-8.25,0,0-.15.08-.15.08Z" style="stroke-width: 0px;"/>
      <path d="m143.14,849.43s.15-.08.15-.08c-4-3.08-8.55-5.65-11.9-9.33-11.54-12.65-22.56-25.77-33.99-38.53-3.8-4.24-8.22-7.92-13.1-11.43,4.14,33.89,6.98,67.75,20.23,100.61,2.38-3.26,4.09-5.83,6.04-8.21,4.51-5.53,9.06-11.04,13.75-16.43,1.72-1.98,4.01-3.54,6.29-.73,2.02,2.49.71,4.42-1.37,6.39-6.75,6.4-13.3,13.01-19.99,19.48-2.6,2.52-3.2,5.26-1.72,8.58,10.16,22.76,20.28,45.55,30.47,68.3.58,1.29,1.68,2.35,3.08,4.25,4.7-8.21,8.86-15.91,13.42-23.36,8.5-13.9,17.23-27.67,25.87-41.48.44-.7.86-1.66,1.52-1.94,1.65-.69,3.44-1.07,5.17-1.57.2,1.94,1.25,4.43.43,5.71-2.51,3.89-5.59,7.45-8.72,10.9-11.49,12.64-20.61,26.89-28.8,41.8-.64,1.17-1.09,2.5-1.93,3.49-5.9,6.9-4.94,13.32.66,19.99,3.05,3.63,5.28,7.95,7.87,11.96,0,0,.08-.12.08-.12-1.38-.91-3.11-1.54-4.09-2.76-13.71-17.02-22.91-36.59-31.5-56.47-4.68-10.84-9.13-21.79-13.61-32.72-13.83-33.73-15.51-43.79-21.7-78.49-2.91-16.33-7.81-32.3-11.87-48.42-.32-1.26-1.09-2.42-1.74-3.58-1.43-2.52-2.51-5.55.91-6.61,1.83-.56,5.81.89,6.52,2.47,7.34,16.47,21.38,27.82,31.71,41.98,8.53,11.68,19.52,21.56,29.35,32.3,1.05,1.15,1.67,2.69,2.49,4.04Z" style="stroke-width: 0px;"/>
      <path d="m1076.01,1019c-2.35-3.36-5-6.56-6.99-10.12-11.69-20.83-25.11-40.06-46.69-51.91-2.44-1.34-5.5-1.66-7.74-3.21-1.71-1.19-2.58-3.59-3.82-5.45,1.97-.62,4.17-2.11,5.86-1.67,3.45.91,6.63,2.87,10.17,4.52,3.03-5.34,6.79-3.85,10.92-1.44,20.79,12.17,37.73,28.74,53.37,46.79,4.14,4.78,8.15,9.67,12.16,14.56.94,1.15,1.64,2.5,1.77,4.38-20.52-23.53-39.96-48.16-70.55-59.12-.29.32-.59.64-.88.96,4.87,5.59,9.74,11.18,14.6,16.78,10.86,12.51,19.81,26.27,26.86,41.27.54,1.14.52,2.54.76,3.82,0,0,.21-.17.21-.17Z" style="stroke-width: 0px;"/>
      <path d="m1011.7,1107.24c-.77-1.47-1.68-2.9-2.3-4.43-10.9-27.16-22.31-54.09-37.26-79.31-5.5-9.27-12.13-17.87-18.06-26.9-2.05-3.13-6.28-7.46-1.53-10.21,4.96-2.87,5.66,3.34,7.25,6.42,10.51,20.36,21.25,40.61,31.22,61.23,7.36,15.24,13.68,30.99,20.41,46.53.82,1.89,1.32,3.93,1.97,5.9-.57.26-1.13.51-1.7.77Z" style="stroke-width: 0px;"/>
      <path d="m242.23,1058.92c1.13-2.43,2.12-4.94,3.41-7.28,12.7-23.04,25.76-45.85,42.1-66.58,4.5-5.71,9.82-10.4,16.85-12.79,4.91-1.67,8.87.26,12.15,3.62.83.85,1.02,3.36.36,4.34-.66.99-3.34,1.89-4.11,1.35-8.15-5.67-14.48-.79-19.37,4.4-8.38,8.91-16.38,18.39-23.17,28.54-8.49,12.69-15.61,26.3-23.33,39.51-1.07,1.84-2.19,3.65-3.29,5.47l-1.6-.58Z" style="stroke-width: 0px;"/>
      <path d="m825.16,1129.36c-.46-3.13-1.05-6.24-1.35-9.38-1.42-14.69-2.22-29.46-4.31-44.05-1.41-9.81-4.54-19.38-7.02-29.02-.7-2.7-1.73-5.67,1.68-6.76,3.88-1.24,4.87,2.14,5.25,4.94,1.69,12.12,3.47,24.25,4.63,36.43,1.35,14.2,2.1,28.45,3.05,42.69.11,1.68-.19,3.39-.3,5.08-.54.02-1.09.05-1.63.07Z" style="stroke-width: 0px;"/>
      <path d="m567.89,1160.38c-.24-1.35-.81-2.74-.69-4.05,2.52-25.74,3.53-51.75,13.24-76.24.25-.62.27-1.52.72-1.83,1.7-1.16,3.89-3.32,5.23-2.91,2.69.82,2.72,3.16,1.52,6.06-4.4,10.72-9.6,21.33-12.12,32.53-3.01,13.34-3.57,27.23-5.22,40.87-.23,1.89-.65,3.76-.99,5.64-.57-.02-1.13-.04-1.7-.07Z" style="stroke-width: 0px;"/>
      <path d="m510.12,1153.4c0-1.84-.31-3.74.05-5.51,3.52-17.27,6.86-34.59,10.84-51.75,2.32-10.02,5.63-19.82,8.67-29.67.87-2.83,2.15-6.48,6.11-4.56,3.44,1.67,1.86,4.89.57,7.42-7.6,14.87-13.97,30.23-17.44,46.61-2.34,11.06-4.13,22.24-6.17,33.36-.25,1.39-.49,2.78-.74,4.17l-1.89-.07Z" style="stroke-width: 0px;"/>
      <path d="m538.79,1156.76c0-1.18-.24-2.41.03-3.53,5.72-23.43,11.48-46.85,17.28-70.26.44-1.77.76-3.89,1.93-5.05,1.14-1.13,3.29-1.23,4.99-1.79.51,1.68,1.92,3.76,1.39,4.99-10.23,23.46-16.65,48.09-22.83,72.81-.26,1.04-.89,1.99-1.35,2.99l-1.45-.16Z" style="stroke-width: 0px;"/>
      <path d="m286.67,1066.15c3.9-7.59,7.17-15.59,11.81-22.7,12.06-18.46,24.71-36.54,37.18-54.74,1.56-2.28,3.77-4.56,6.49-2.06,2.49,2.29.91,4.76-1.05,6.92-8.35,9.21-17.62,17.8-24.72,27.9-9.21,13.11-16.67,27.45-24.92,41.24-.93,1.56-2.09,2.98-3.15,4.46-.55-.34-1.1-.69-1.65-1.03Z" style="stroke-width: 0px;"/>
      <path d="m370.92,1097.83c0-1.18-.3-2.46.04-3.52,7.42-22.54,14.89-45.06,22.44-67.56.79-2.35,2.05-4.54,3.22-6.74,1.26-2.4,3.01-4.3,5.94-2.63,2.95,1.67,2.1,4.01.74,6.42-4.56,8.1-9.62,15.99-13.39,24.46-4.51,10.13-8.02,20.72-11.67,31.22-1.84,5.3-2.98,10.84-4.52,16.24-.24.86-.92,1.6-1.39,2.39-.47-.09-.94-.19-1.41-.28Z" style="stroke-width: 0px;"/>
      <path d="m940.13,1101.05c-.71-1.59-1.49-3.15-2.1-4.78-7.32-19.4-14.49-38.86-22-58.19-1.73-4.45-4.53-8.48-6.9-12.67-1.49-2.63-2-5.23,1.15-6.78,3.14-1.55,4.57.84,5.45,3.33,5.4,15.34,10.83,30.67,16.05,46.07,3.36,9.91,6.38,19.93,9.5,29.91.27.85.17,1.82.25,2.73-.46.13-.92.26-1.38.39Z" style="stroke-width: 0px;"/>
      <path d="m762.68,1129.22c-.72-3.04-1.46-6.07-2.17-9.11-4.94-21.22-9.89-42.43-14.8-63.65-.73-3.15-2.63-7.44,1.92-8.46,5.19-1.16,4.73,3.98,5.27,7.15,3.96,23.45,7.78,46.92,11.62,70.39.17,1.05.02,2.15.02,3.23l-1.85.45Z" style="stroke-width: 0px;"/>
      <path d="m176.23,1011.42c.38-1.61.51-3.32,1.17-4.8,10.68-24.15,21.42-48.27,32.15-72.4.34-.76.56-1.84,1.16-2.16,1.72-.9,3.6-1.47,5.41-2.17.33,2.02,1.61,4.59.82,5.96-4.38,7.62-9.19,15-14,22.36-9.9,15.14-16.58,31.75-22.58,48.7-.62,1.75-1.47,3.42-2.22,5.12l-1.92-.61Z" style="stroke-width: 0px;"/>
      <path d="m211.76,1027.94c0-1.18-.33-2.48.05-3.52,8.46-22.91,16.99-45.8,25.54-68.67.52-1.39,1-3.22,2.08-3.88,1.74-1.07,3.96-1.33,5.98-1.93.15,2.05,1.11,4.51.32,6.07-6.83,13.46-14.5,26.51-20.86,40.18-4.26,9.14-6.8,19.08-10.14,28.65-.41,1.16-1,2.26-1.51,3.38-.48-.09-.97-.18-1.45-.27Z" style="stroke-width: 0px;"/>
      <path d="m240.91,1048.61c-.18-1.36-.68-2.66-.45-3.81,4.52-22.54,9.33-45,21.07-65.2.33-.57.56-1.5,1.03-1.65,1.7-.56,3.48-.86,5.23-1.27.31,1.87,1.57,4.5.78,5.51-14.91,19.1-21.66,41.36-25.66,64.75-.08.45-.44.85-.71,1.25-.07.1-.29.1-1.31.42Z" style="stroke-width: 0px;"/>
      <path d="m717.59,1123.68c-.53-5.03-1.18-10.05-1.57-15.09-1.29-16.6-3.44-33.01-9.32-48.75-.57-1.52.54-4.92,1.86-5.63,2.82-1.53,4.68.77,5.23,3.49,1.27,6.32,2.8,12.64,3.35,19.04,1.23,14.38,1.94,28.81,2.8,43.22.08,1.26-.3,2.54-.46,3.81-.62-.03-1.25-.06-1.87-.08Z" style="stroke-width: 0px;"/>
      <path d="m1127.01,948.6c-11.7-10-23.28-20.15-35.15-29.94-6.07-5-13.01-8.48-20.94-9.94-1.7-.31-3.01-2.81-4.5-4.3,2.01-.97,4.7-3.31,5.93-2.7,6.9,3.44,14.19,6.73,19.97,11.68,11.47,9.83,22.05,20.69,32.95,31.18,1.06,1.02,1.71,2.46,2.55,3.71-.27.1-.53.2-.8.3Z" style="stroke-width: 0px;"/>
      <path d="m1142.24,882.76c-1.17-.23-2.42-.28-3.51-.73-16.85-6.91-34.03-12.33-52.54-12.08-2.8.04-6-1.05-5.22-4.36.38-1.6,4.03-3.75,5.84-3.45,6.85,1.11,13.7,2.68,20.28,4.89,10.53,3.54,20.86,7.71,31.25,11.68,1.58.6,3.03,1.56,4.54,2.35-.21.57-.43,1.13-.64,1.7Z" style="stroke-width: 0px;"/>
      <path d="m130.01,935.41c.3-1.17.48-2.38.91-3.5,5.59-14.56,11.13-29.14,16.95-43.61.69-1.71,3.34-4.15,4.47-3.86,2.91.75,3.86,3.53,2.41,6.42-4.91,9.76-9.94,19.47-14.9,29.21-2.01,3.94-3.93,7.92-5.93,11.86-.71,1.39-1.56,2.72-2.35,4.07-.52-.2-1.04-.39-1.56-.59Z" style="stroke-width: 0px;"/>
      <path d="m1076.01,1019s-.21.17-.21.17c.57.29,1.45.45,1.65.9,3.39,7.91,6.72,15.84,9.98,23.8.32.78.04,1.8.04,3.49-1.07-.86-1.74-1.12-1.94-1.59-3.02-7.17-6.05-14.33-8.88-21.57-.62-1.58-.45-3.46-.64-5.21Z" style="stroke-width: 0px;"/>
      <path d="m180.25,1022.28s.18-.17.18-.17c-6.62-3.36-12.22-7.79-15.37-14.77,0,0-.14.34-.14.34,3.42,2.6,7.02,4.99,10.18,7.87,2.05,1.87,3.46,4.46,5.15,6.73Z" style="stroke-width: 0px;"/>
      <path d="m164.92,1007.68s.14-.34.14-.34c-4.75-1.52-7.49-4.78-8.39-9.66,0,0-.08.12-.08.12,2.78,3.29,5.56,6.59,8.33,9.89Z" style="stroke-width: 0px;"/>
      <path d="m934.1,793.25c-10.76-19.15-5.86-45.71,10.75-62.49-7.89,20.98-14.52,40.87-10.75,62.49Z" style="stroke-width: 0px;"/>
      <path d="m441.38,901.53c-1.66-1.53-4.63-4.25-8.61-7.89,7.62-3.29,14.05-6.06,19.63-8.47,3.56,3.58,6.33,6.37,8.86,8.91-5.4,2.02-11.76,4.4-19.89,7.45Z" style="stroke-width: 0px;"/>
      <path d="m404.05,919.02c1.36-18.11,4.45-35.72,15.89-50.74-5.3,16.91-10.59,33.83-15.89,50.74Z" style="stroke-width: 0px;"/>
      <path d="m759.41,835.64c4.46-1.99,7.89-3.51,11.04-4.92v27.22c-3.87-7.82-7.28-14.71-11.04-22.3Z" style="stroke-width: 0px;"/>
      <path d="m444.3,867.27c2.19,3.34,3.68,5.61,5.27,8.04-4.89,2.55-9.36,4.88-13.84,7.21-.35-.22-.69-.44-1.04-.66,3.03-4.6,6.06-9.2,9.61-14.6Z" style="stroke-width: 0px;"/>
      <path d="m456.16,903.18c3.56-1.09,7.06-2.59,10.7-3.08,1.56-.21,3.4,1.68,5.12,2.62-1.5.6-2.97,1.62-4.51,1.73-3.63.26-7.29.08-10.93.08-.12-.45-.25-.9-.37-1.35Z" style="stroke-width: 0px;"/>
      <path d="m803.29,917.46c4.19,4.98,9.78,9.02,9.78,16.85-3.6-5.39-7.2-10.77-10.8-16.16l1.02-.69Z" style="stroke-width: 0px;"/>
      <path d="m485.88,533.74c12.88-6.93,26.67-3.87,34.42,7.67,6.44,9.59,11.08,19.83,9.59,31.53-6.15-2.57-12.17-5.06-18.15-7.62-.7-.3-1.48-.84-1.83-1.48-6.26-11.38-14.11-21.5-24.02-30.1Z" style="stroke-width: 0px;"/>
      <path d="m467,523.76c5.69.43,11.38.86,17.63,1.34-5.61,4.77-9.37,4.58-17.63-1.34Z" style="stroke-width: 0px;"/>
      <path d="m94.98,682.76c8.06-2.12,16.04-4.71,24.21-6.2,6.3-1.15,12.85-1.04,19.3-1.25,6.88-.22,11.69,3.57,15.79,8.97-19.74-3.45-39.37-1.06-59,1.06-.1-.86-.2-1.72-.3-2.58Z" style="stroke-width: 0px;"/>
      <path d="m387.77,821.01c-8.63-14.88-21.16-24.17-36.8-30.55,21.35-1.57,36.82,9.75,36.8,30.55Z" style="stroke-width: 0px;"/>
      <path d="m275.71,402.28c3.86,5.58,4.01,10.73,0,16.2v-16.2Z" style="stroke-width: 0px;"/>
    </g>
  </g>
</svg>