<?xml version="1.0" encoding="UTF-8"?>
<svg id="Layer_2" data-name="Layer 2" xmlns="http://www.w3.org/2000/svg" viewBox="0 0 420.05 756.92">
  <g id="Layer_1-2" data-name="Layer 1">
    <g>
      <path d="m395.58,185.38c-.95-.78-1.73-1.43-2.42-2-1.6.85-3.11,1.64-4.74,2.5.39,1.95.75,3.83,1.15,5.71.06.29.28.57.46.82q1.12,1.5.88,3.25c1.73,1.54,2.96,3.42,3.22,5.86.06.53.26,1.17.63,1.51,1.41,1.26,1.36,2.96,1.68,4.6.31,1.59.91,3.13,1.47,4.65.72,1.94.16,4.11,1.25,6.02.3.53-.39,1.62-.67,2.61.86,1.15.89,2.61.86,4.17-.03,1.67.28,3.36.57,5.02.08.44.62.86,1.03,1.18,1.46,1.12,2.79,2.3,3.67,3.99.95,1.82,2.13,3.52,3.18,5.29.23.4.49.93.4,1.34-.35,1.77-.82,3.51-1.23,5.23-2.21-.22-3.31-1.46-4.22-3.37-.15.8-.48,1.61-.4,2.38.2,2.16-.68,4.51,1.05,6.41-.05,2.62,1.88,4.68,2.06,7.23.03.46-.06.92,0,1.38.06.51.06,1.11.33,1.5,1.07,1.53,1.28,3.21,1.14,5-.04.45,0,.91.03,1.36.11,1.81.15,3.57-.17,5.41-.5,2.82-.53,5.73-.61,8.61-.04,1.5.33,3.01-1.11,4.14-.25.2-.35.69-.38,1.06-.27,3-.5,6-.76,9-.02.23-.11.48-.24.67-1.79,2.48-1.13,5.53-1.95,8.25-.73,2.4-1.03,4.92-1.48,7.4-.25,1.4-.67,2.83-.58,4.21.19,2.81-.21,5.51-.83,8.23-.35,1.56-.3,3.22-.37,4.84-.1,2.48-.21,4.96-.83,7.39-.04.15-.07.33-.02.46.72,1.59.26,3.03-.36,4.55-.24.59.36,1.48.39,2.23.04,1.42-.03,2.84-.1,4.26-.11,2.05-.52,4.13-.29,6.13.16,1.4.12,2.83.39,4.16.33,1.7,0,3.11-.75,4.65.88.85,1.11,1.82.53,2.97-.18.37-.16.97.02,1.36.35.75.21,1.36-.16,2.02-.15.26-.31.63-.23.88.65,2.03-.94,3.54-1.25,5.35-.23,1.32-1.16,2.27-2.71,2.22-.45,1.5-1.02,2.72-2.69,3.12-.6.14-1.2.83-1.55,1.42-1.07,1.8-2.64,2.41-4.63,2.31-.38-.02-.78.15-1.3.25-.2.54-.4,1.11-.62,1.7-.26.07-.48.17-.71.18-1.42.06-2.85.1-4.27.16-.15,0-.37.04-.45.15-1.38,1.72-3.42,1.57-5.29,1.87-.77.12-1.56.22-2.34.21-1.48,0-2.96-.13-4.44-.13-.35,0-.87.2-1.03.47-.69,1.16-1.55,1.02-2.68.72-1.12-.3-2.35-.19-3.53-.32-1.58-.17-3.15-.4-4.73-.58-1.1-.13-2.35-.59-3.29-.24-3.15,1.15-6.07-.29-9.1-.44-2.61-.13-5.04-.68-7.46-1.79-1.32-.61-3.09-.34-4.53-1.07-.27-.14-.75-.25-.79-.43-.33-1.83-2.01-2.32-3.2-3.28-.47-.39-.34-1.61-1.64-1.02,0,.27-.15.73.02.98,1.86,2.66,3.14,5.61,4.51,8.52,1.3,2.77,2.82,5.4,4.66,7.86,1.08,1.43,1.81,3.12,2.75,4.66.58.94,1.21,1.86,1.93,2.7,2.16,2.49,3.92,5.12,5.2,8.24,1.18,2.89,1.72,5.89,2.57,8.83.8,2.79,1.44,5.66,1.78,8.54.35,3.02,1.8,5.64,2.51,8.5.67,2.69,1.1,5.45,1.52,8.19.25,1.62.24,3.29.44,4.92.08.67.4,1.31.63,1.95.27.73.94,1.54.79,2.15-.61,2.54.46,4.85.81,7.23.69,4.71.5,9.3-1.15,13.75-.51,1.37-1.58,2.53-2.4,3.79-2.64,4.06-5.59,7.82-9.47,10.84-1.54,1.2-2.67,2.91-4.05,4.34-1.25,1.3-2.63,2.47-3.86,3.79-2.65,2.84-5.2,5.79-7.07,9.22-1.74,3.2-3.56,6.38-4.34,10.01-.1.46-.26.92-.49,1.33-1.82,3.3-3.61,6.62-5.54,9.86-.63,1.06-1.69,1.87-2.5,2.83-.79.94-1.44,1.99-2.27,2.88-2.38,2.55-4.84,5.01-7.22,7.55-2.11,2.25-4.16,4.57-6.25,6.85-1.32,1.44-2.96,2.55-4.09,4.23-.56.84-1.85,1.15-2.72,1.82-3.1,2.39-6.6,3.92-10.38,4.85-1.2,1.41-2.89,1.81-4.57,2.27-1.07.29-2.11.66-3.17.96-.3.08-.72-.07-.93.09-2.78,2.18-6.48,1.94-9.43,3.61-1.86,1.06-3.93.93-5.9,1.36-2.42.53-4.74,1.51-7.13,2.19-1.15.33-2.51.82-3.54.49-1.48-.47-2.58.29-3.85.4-1.87.16-3.75.26-5.63.32-1.1.04-2.21,0-3.31-.08-.92-.07-1.83-.27-2.74-.41-1.69-.27-3.38-.65-5.08-.78-3.06-.24-6-.99-8.99-1.65-2.12-.47-4.1-1.64-6.59-.95-1.85.51-4.02-.1-6.05-.23-2.22-.14-4.41.21-6.5.78-2.09.57-3.9.37-5.8-.87-1.6,1.03-3.29.95-5.1.13-1.7-.78-3.51-1.62-5.33-1.77-1.93-.16-3.43-1.66-5.56-1.27-1.08.2-2.36-.68-3.56-1.04-.81-.25-1.63-.45-2.69-.75-.18-.43-.45-1.08-.76-1.8-.05-.04-.16-.2-.3-.22-2.55-.32-3.22-2.49-4.23-4.3-.79-1.41-1.51-2.85-2.25-4.28-.21-.4-.64-.92-.52-1.2.72-1.72-.47-2.98-.94-4.41-.4-1.22-1.16-2.49-1.07-3.68.09-1.25-.72-1.41-.95-1.62-.42-2.09-.77-3.76-1.08-5.45-.14-.76-.18-1.53-.25-2.31-.02-.23.15-.54.05-.7-1.34-2.16-.79-4.6-1.05-6.91-.1-.92-.68-1.77-.91-2.68-.43-1.67-.95-3.35-1.08-5.05-.1-1.31-.67-2.01-1.63-2.38,0-1.2.04-2.23-.02-3.26-.03-.44-.14-.99-.43-1.27-.69-.66-.65-1.6-1.02-2.28-1-1.85-.79-3.87-1.29-5.77-.06-.23-.14-.48-.29-.64-1.5-1.63-2.14-3.49-1.25-5.75-3.64-.98-3.27-3.67-2.94-6.45-3.67-.39-2.23-3.42-2.69-5.37-.54-2.25-.22-4.7-2.59-6.23-.52-.34-.77-1.33-.86-2.05-.25-1.94-.07-3.93-1.03-5.78-.38-.72-.29-1.7-.36-2.57-.1-1.15.37-2.37-.51-3.43-.16-.19-.08-.62-.03-.93.61-3.39.03-6.74-.35-10.1-.11-.95-.09-1.91-.21-2.86-.25-1.92-.08-3.83-.56-5.8-.52-2.11.12-4.5.24-6.76.07-1.35.15-2.69.13-4.04-.01-.75-.35-1.35-1.22-1.54-1.13-.25-1.22-1.1-1.47-2.12-.45-1.86-.1-3.87-1.41-5.62-.63-.84-.38-2.31-.6-3.48-.36-2-1.45-3.86-1.1-6.01.05-.32-.35-.68-.45-1.05-.2-.73-.6-1.55-.44-2.21.31-1.21-.17-1.95-1.11-2.31-1.06-.39-1.14-1.08-1.26-2.02-.27-2.11-1.73-3.25-3.88-3.27-1.27-.01-2.54-.06-3.81-.14-1.77-.11-3.47.06-5,1.07-.2.13-.43.31-.64.31-3.07-.01-5.75,1.88-8.78,1.85-2.04-.02-4.09-.43-6.12-.77-1.17-.2-2.39-.47-3.45-.99-3.54-1.73-7.31-2.98-10.47-5.52-2.12-1.7-4.6-2.95-6.92-4.4-.53-.33-1.03-.71-1.56-1.02-1.13-.66-2.08-1.58-3.48-1.88-1.1-.24-2.07-1.06-3.1-1.62-.56-.31-1.07-.78-1.66-.93-4.69-1.24-7.98-4.49-11.04-7.91-3.16-3.53-6.03-7.33-8.95-11.07-.91-1.17-1.6-2.52-2.3-3.84-1.77-3.35-3.97-6.45-5.56-9.91-.95-2.07-1.92-4.06-2.57-6.27-.35-1.2-1.14-2.28-1.4-3.61-.3-1.56-1.01-3.03-1.42-4.57-.79-2.99-1.44-6.01-3.92-8.23-.47-.42-.45-1.34-.76-1.97-.77-1.55-1.59-3.07-2.41-4.59-.19-.35-.55-.61-.69-.97-1.15-3-2.63-5.94-3.26-9.05-.47-2.29-1.12-4.37-2.23-6.37-.11-.21-.24-.45-.24-.67-.03-1.48.43-3.2-.17-4.39-.71-1.39-.59-2.69-.85-4.04-.37-1.92.34-4.02-.92-5.78.59-1.92-1.14-4.06.47-5.67-.71-2.23-1.75-4.14-1.69-6.48.04-1.84-.4-3.7-.66-5.55-.2-1.41-.65-2.81-.62-4.21.06-2.19-.55-4.2-1.17-6.23-.24-.8-.43-1.49.04-2.27.61-1.01.49-2.01-.35-2.85-.69-.69-.71-1.48-.73-2.4-.06-1.89.2-4.09-.66-5.59-1.31-2.28-1.07-4.73-1.8-6.97-.7-2.16-.78-4.48-1.9-6.58-.77-1.45-.71-3.33-1.1-5-.5-2.16-1.11-4.29-1.6-6.45-.22-.99-.19-2.03-.38-3.02-.21-1.07-.55-2.11-.82-3.18-.13-.51-.23-1.03-.29-1.55-.03-.23.18-.56.08-.7-1.74-2.47.24-5.44-1.07-7.96-.35-.67-.68-1.36-.88-2.09-.39-1.42-.75-2.86-1-4.32-.2-1.16-.18-2.36-.36-3.52-.26-1.62-.75-3.19-.05-4.85.18-.42.01-1.16-.26-1.57-.54-.82-.83-1.59-.92-2.62-.14-1.5-.27-2.84.12-4.39.38-1.52-.24-3.27-.3-4.92-.06-1.49-.29-2.98.54-4.44.32-.57.18-1.58-.08-2.27-.76-2.02-.76-4.04-.5-6.13.09-.7.03-1.42,0-2.13-.01-.32-.26-.73-.13-.93,1.21-1.82-.08-3.62.03-5.43.12-1.91.33-3.82.26-5.72-.07-1.83.12-3.58.42-5.38.28-1.65.11-3.4-.09-5.09-.14-1.14-.16-2.18.26-3.25.14-.35.08-.78.08-1.18,0-1.25-.16-2.52-.03-3.76.26-2.49,0-5.07,1.28-7.38-.71-2.56,1.28-4.75.91-7.37-.2-1.43.68-3.01,1.09-4.52.54-1.98.96-4.02,1.69-5.93,1.21-3.19,2.62-6.3,3.95-9.44.18-.43.55-.83.59-1.27.25-2.77,1.97-4.99,2.77-7.55.33-1.05.51-2.17,1.02-3.12,1.52-2.83,1.97-5.95,2.66-9.01.12-.52-.05-1.1.1-1.61.21-.73.59-1.41,1-2.35-.56-1.01-.68-2.19.09-3.55.52-.91.56-2.15.62-3.25.16-2.93,1.79-5.37,2.71-8.03.78-2.23,2.39-4.18,3.6-6.26.8-1.37,1.49-2.78,2.91-3.7.57-.37,1.2-1.06,1.28-1.68.26-1.84,1.58-2.87,2.68-4.1,1.04-1.17,2.12-2.22,2.75-3.79.49-1.23,1.89-2.06,2.77-3.16,2.3-2.85,3.66-6.27,5.53-9.37,1.21-2,2.34-4.32,4.55-5.54,1.24-.68,2.39-1.3,2.98-2.72.21-.5.99-1.09,1.5-1.08,1.64.02,2.38-1.28,3.53-1.99,1.19-.74,2.62-1.07,3.93-1.62.79-.33,1.56-.72,2.33-1.1.21-.1.37-.33.59-.4,2.71-.83,5.44-1.61,8.14-2.45,1.12-.35,2.33-.62,3.29-1.24,2.98-1.92,5.81-4.09,8.81-5.99,2.11-1.33,4.23-2.59,6.88-2.9,2.3-.27,4.51-1.21,6.76-1.85.38-.11.77-.24,1.17-.27,2.57-.24,5.16-.36,7.71-.71,2.44-.34,4.85-.9,7.28-1.37,2.25-.44,4.44-.88,6.52-2.05,1.82-1.02,3.97-1.43,5.98-2.12.3-.1.6-.22.87-.39,1.48-.95,3.1-1.44,4.83-1.73,2.22-.36,4.4-1.07,6.68-.86,3.63.33,7.25.76,10.88,1.08,1.72.15,3.45.15,5.18.16,2.29.02,4.6.15,6.87-.06,2.06-.19,4.08-.18,6.15-.14,3.57.08,6.76,1.3,9.44,3.3,2.67,1.99,5.56,3.7,8.01,5.98.4.37.71.86.99,1.34.47.81,1.04,1.36,2.04,1.43.44.03.97.24,1.28.55,2.06,2.03,3.89,4.37,6.17,6.1,1.77,1.34,2.99,3.11,4.39,4.68,1.91,2.16,4.9,3.43,5.72,6.55.06.24.4.52.66.59,1.5.39,2.28,1.74,2.72,2.84.68,1.7,2.65,2.64,2.62,4.69,0,.18.5.34.7.56,1.32,1.46,2.94,2.65,3.65,4.63.25.7.89,1.28,1.4,1.87.97,1.12,2.22,2.03,2.3,3.72.01.33.46.62.68.95.56.85,1.1,1.7,1.64,2.57.21.34.3.89.59,1.02,2.48,1.07,2.9,3.65,4.2,5.58.36.53.68,1.09.95,1.67.36.79.65,1.61,1.11,2.78.15.08.7.39,1.35.76.29-.16.7-.29.95-.56,2.31-2.52,4.59-5.08,6.89-7.61.37-.41.75-.87,1.23-1.13,3.91-2.13,6.82-5.58,10.57-7.93.46-.29.78-.78,1.17-1.17.39-.4.72-1.03,1.18-1.14,2.07-.5,3.27-2.25,4.95-3.29,1.2-.74,2.22-1.77,3.44-2.46,3.45-1.95,6.98-3.76,10.45-5.67,2.5-1.37,5.04-2.67,7.43-4.22,3.4-2.2,7.18-3.35,11.01-4.38,2.63-.7,5-1.85,7.27-3.39,3.1-2.11,6.66-3.54,10.36-3.79,1.85-.12,4.05-.85,5.96.58.47.35,1.57-.27,2.3-.09,2.13.52,4.21,1.22,6.3,1.85.22.07.43.21.65.24,5.42.7,11.3,2.65,15.79,5.39.2.12.56.23.58.39.33,2.01,2.26,1.92,3.48,2.77,1.27.89,2.55,1.87,3.53,3.05,2.5,3.01,5.61,5.46,7.85,8.7.52.76,1.36,1.3,2.02,1.98.27.27.67.64.65.94-.15,2.55,2.12,3.41,3.37,4.97.43.53.94,1.05,1.22,1.66.92,1.98,1.68,4.05,3.34,5.59.17.16.35.38.39.6.57,2.79,3.15,4.68,3.38,7.69.06.79,1.46,1.4,1.86,2.26.33.74-.44,1.73.54,2.57.59.5.76,1.5,1.12,2.28.25.56.53,1.12.74,1.69.34.93.64,1.87.95,2.8.17.52.21,1.13.52,1.54,1.41,1.81,1.87,3.92,2.36,6.09.65,2.89,1.58,5.7,2.37,8.56.14.52.22,1.08.23,1.62.04,3.1.51,6.2.09,9.31-.08.62.29,1.33.55,1.96.59,1.45,1.54,2.82,1.76,4.31.15,1,.52,1.76.93,2.61.51,1.07.89,2.19,1.38,3.27.22.48.61.88.88,1.34.54.94,1.53,1.92,1.47,2.83-.09,1.32.36,2.01,1.18,2.87.49.51.54,1.46.77,2.21.65,2.08,1.02,4.32,2.03,6.2.89,1.64,1.2,3.46,2.06,5.03.65,1.19-.54,1.95-.17,2.96.36.95.86,1.97.8,2.93-.07,1.07-.27,1.99.5,2.91.27.32.28.89.34,1.35.17,1.23.31,2.47.47,3.7.02.16.14.35.09.46-.96,1.8.32,3.31.59,4.95.21,1.25.35,2.51.43,3.77.13,2.08.18,4.06,1.09,6.11.85,1.92.72,4.28,1.02,6.44.09.63-.04,1.38.27,1.86,1.08,1.66.93,3.28.03,4.95.48.62.91,1.18,1.2,1.54,0,1.2-.13,2.21.03,3.17.22,1.34-.97,1.45-1.58,2.1ZM47.71,275.36c-.17,2.76.05,5.18.84,7.55.35,1.04.78,2.17.71,3.22-.15,2.09.04,4.07.69,6.07.43,1.33.44,2.81.91,4.12,1.05,2.88,1.33,5.98,2.95,8.71.93,1.57.97,1.83,2.65.9,2.17-1.21,4.04-3.1,6.78-3.12.28,0,.54-.32.83-.44,1.74-.74,3.44-1.8,5.25-2.1,1.81-.31,3.36-1.71,5.33-1.2.18.05.46-.14.63-.29.7-.64,1.31-.56,2.15-.14,1.16.59,2.71,1.52,3.65,1.16,1.44-.56,2.39,0,3.27.56,2.2,1.39,4.78,2.16,6.65,4.07.16.16.37.34.59.38,4.02.91,7.43,3.41,11.41,4.43.34.09.61.45.91.69.62.51,1.15,1.22,1.85,1.48,1.82.68,3.03,2.07,4.25,3.42,1.47,1.62,2.76,3.4,4.18,5.07,2.97,3.5,5.92,7.01,8.55,10.78,1.17,1.67,2.39,3.3,3.6,4.94.19.25.45.45.7.64,1.25.97,2.57,1.87,2.65,3.71.02.42.49.8.72,1.22.44.83.97,1.64,1.23,2.53.35,1.21.39,2.51.72,3.73.32,1.21,1.07,2.35,1.19,3.56.12,1.26-.45,2.57-.44,3.85.04,2.92.35,5.84.36,8.76,0,3.4-.17,6.81-.34,10.21-.09,1.73-.42,3.45-.47,5.18-.04,1.58.2,3.17.22,4.75.04,2.24-.28,4.53.06,6.73.37,2.38.65,4.91,2.4,6.88.28.32.26.9.42,1.35.53,1.49,1.1,2.96,1.6,4.46.88,2.63,2.21,5.23,2.43,7.92.18,2.24,1.07,4.12,1.78,6.06.59,1.61,1.06,3.13,1.05,4.83,0,.63,0,1.31.24,1.87.99,2.32,2.11,4.59,3.1,6.91.3.71.36,1.52.48,2.3.29,2.01.51,4.04.83,6.04.11.7.58,1.35.61,2.04.12,2.91.15,5.82.2,8.73.03,2.21-.08,4.42.09,6.62.19,2.4.84,4.77.91,7.16.12,4.02,1.39,7.84,1.82,11.8.05.43.46.81.67,1.23.6,1.19,1.27,2.36,1.75,3.6,1.06,2.74.55,6.09,3.22,8.2.05.04.07.14.1.22,1.4,3.51,2.81,7.02,4.19,10.54.49,1.26.95,2.53,1.31,3.83,1.28,4.7,2.47,9.42,3.78,14.11.27.96,1.06,1.78,1.26,2.74.64,2.99,1.1,6.03,1.66,9.04.37,1.99,1.07,3.96,1.12,5.95.08,3.08,1.65,5.71,2.2,8.66.59,3.17,1.8,6.33,3.48,9.22.58.99,1.03,1.73,2.35,1.48.59-.11,1.45-.15,1.84.19,1.31,1.12,2.93,1.06,4.43,1.46.74.2,1.57.5,2.07,1.03.79.84,1.67,1.16,2.75,1.19,1.5.04,3.17-.3,4.45.25,2.07.89,4.01.49,5.81-.14,1.57-.55,3.09-.42,4.6-.52,1.99-.13,4.01.24,6.01.25,1.9.01,3.72.15,5.54.88,1.81.73,3.78,1.47,5.68,1.45,2.97-.03,5.53,2.04,8.55,1.36.17-.04.39.29.6.34.5.11,1.01.17,1.52.22,1.93.19,3.9-.74,5.82.3.49.26,1.26.09,1.88-.02,2.93-.52,5.8-1.25,8.82-1.45,2.71-.18,5.4-1.08,8.04-1.83,3.64-1.03,7.29-2.1,10.85-3.37,3.1-1.11,6.08-2.57,9.14-3.83,2.33-.96,4.77-1.69,7.01-2.82,1.43-.72,2.94-1.75,3.77-3.05.92-1.44,2.19-2.4,3.23-3.62,1.07-1.25,2.07-2.4,3.6-2.99-.13-.55-.25-1.01-.27-1.11.81-.86,1.44-1.56,2.12-2.22.27-.26.63-.45.98-.62,1.44-.69,2.32-1.9,3.16-3.18.47-.72.97-1.69,1.67-1.93,1.57-.54,3.21-1.59,3.31-2.94.14-2.01,1.5-3.13,2.75-4.38.2-.2.51-.35.61-.59,1.04-2.57,2.02-5.16,3.06-7.73.53-1.3.96-2.69,1.76-3.8,1.14-1.59,1.51-3.73,3.41-4.8.22-.12.07-.79.24-1.13.61-1.21,1.01-2.98,2-3.44,2.37-1.11,3.35-2.68,3.1-4.94.79-.61,1.75-.98,1.94-1.6.33-1.05,1.14-1.45,1.88-1.6,1.48-.31,1.83-1.71,2.58-2.58.89-1.04,1.54-2.02,2.98-2.45.94-.28,1.68-1.26,2.45-1.88-.45-.48-.75-.8-1.19-1.27,2.59-1.4,5.13-2.61,6.18-5.43.04-.12.32-.14.38-.26.72-1.3,2-2.6,2.02-3.92.07-3.78-.11-7.6-.67-11.34-.48-3.14-.44-6.41-1.78-9.41-.15-.33-.11-.81,0-1.18.55-1.99-.05-3.92-.44-5.8-.39-1.85-1.46-3.55-.93-5.6.09-.35-.46-.9-.77-1.32-.22-.3-.71-.5-.79-.81-.57-2.28-.95-4.61-1.61-6.86-.95-3.27-.4-6.96-2.75-9.86-.36-.44-.33-1.21-.44-1.84-.11-.61-.16-1.23-.25-2-1.82.31-2.14-1.2-3.04-2.12-1.33-1.35-1.98-2.87-2.12-4.65-.1-1.21-.45-2-1.82-2-1.14,0-1.49-.73-1.51-1.74,0-.4-.05-.79-.09-1.39-1.64-.23-1.86-1.68-2.29-2.94-.52-1.49-.82-3.05-2.13-4.18-.5-.43-.87-1.24-.92-1.9-.12-1.56-.76-2.67-2.23-3.2.18-1.52.49-2.67-1.05-3.85-1.29-.98-2.18-2.76-2.31-4.75-.08-1.23-.59-2.9-1.49-3.51-2.54-1.74-2.53-4.38-3-6.84-.36-1.9-.63-3.75-2.24-4.55-.37-2.08-.39-3.99-1.1-5.6-.46-1.05-.82-1.99-.84-3.1-.03-2.54-.04-5.08-.08-7.62-.02-1.16-.13-2.32-.15-3.49-.02-.93.03-1.87.06-2.81.02-.71-.2-1.58.12-2.11.78-1.29.62-2.76,1.08-4.11.88-2.6,1.1-5.41,1.91-8.04.61-1.98.37-4.32,2.25-5.92-.72-2.58-1.4-5.21-.65-7.95.06-.22.15-.57.04-.69-1-1.13-.45-2.4-.42-3.63.03-1.28-.26-2.4-1.01-3.56-.98-1.49-1.65-3.16-3.38-4-.25-.12-.55-.54-.51-.77.28-1.81-2.11-1.76-2.22-3.26-2.53-.67-2.46-4.1-5.03-4.73-.19-2.55-3.19-3.16-3.8-5.45-.09-.34-.64-.67-1.03-.79-1.37-.4-1.98-1.67-1.94-2.68.07-1.81-.61-2.64-2.25-2.83.09-.78.17-1.4.26-2.17-1.46.04-2.28-.6-2.63-1.97-.11-.44-.66-.99-1.1-1.08-2.85-.62-5.7-1.25-8.58-1.63-1.53-.2-3.15.26-4.69.08-1.44-.17-2.8-.39-4.22.09-.32.11-.84-.31-1.23-.55-.88-.55-1.71-.51-2.71-.17-1.94.67-3.87,1.91-6.04.61-.23-.13-.74-.13-.9.03-1.29,1.33-2.99.8-4.51,1.08-1.76.32-3.5.74-5.24,1.16-1.3.31-2.58.86-3.89.99-1.56.16-2.95.54-4.22,1.45-.32.23-.69.49-1.05.52-1.97.15-3.75.76-5.47,1.76-2.49,1.44-5.29,2.42-7.57,4.12-2.17,1.63-3.97,3.83-5.68,5.97-2.1,2.64-3.61,5.76-6.69,7.55-.57.33-.9,1.08-1.39,1.71.85,1.9,2,3.67,1.78,5.81-.1.99-.61,2.11-.29,2.92.64,1.65.08,3.21-.17,4.66-.77,4.46-2.66,8.6-4.45,12.73-1.06,2.44-2.1,4.88-3.54,7.2-1.35,2.18-1.71,4.99-2.46,7.54-.88,3-.58,6.19-1.45,9.2-.06.21-.01.51.1.69.78,1.29.19,2.53-.3,3.64-.43.96-.43,1.74-.21,2.73.48,2.15,1.07,4.28.56,6.56-.25,1.11-.33,2.51.13,3.48,1.57,3.27,1.6,6.79,1.71,10.22.09,2.69,0,5.33,1.05,7.87.36.87.61,1.79.89,2.7.18.59.51,1.21.46,1.8-.19,2.62.65,4.95,1.69,7.27.48,1.08,1.19,2.21,1.2,3.33,0,2.01,1.17,3.61,1.54,5.48.41,2.08,1.34,4.06,1.98,6.11.49,1.59.95,3.2,1.28,4.82.17.83-.11,1.75.07,2.57.7,3.14,1.5,6.25,2.25,9.38.14.61.27,1.24.28,1.86.06,3.16-.06,6.32.6,9.45.38,1.82,1.47,3.61.27,5.53-.12.19.15.61.17.92.15,1.75.9,3.37.78,5.2-.1,1.63.01,3.35.43,4.93.61,2.31,1.12,4.58,1.25,6.99.06,1.11-.29,1.86-.95,2.52-.59.6-1.1,1.19-1.58,1.89-.63.91-1.89,2.02-3.17,1.75-2.06-.44-4.19-1.06-5.98-2.12-1.11-.66-2.4-1.75-2.14-3.68.17-1.26-.14-2.68-.59-3.9-.94-2.57-.49-5.26-.92-7.86-.03-.15,0-.32.03-.48.46-2.4.01-4.73-.48-7.08-.41-1.92-1.05-3.83-.42-5.85.12-.39-.05-.93-.23-1.34-.5-1.17-.91-2.25-.45-3.61.25-.73-.19-1.7-.36-2.55-.15-.78-.66-1.64-.46-2.29.28-.88,0-1.49-.25-2.22-.25-.75-.37-1.55-.54-2.33-.33-1.55-.6-3.1-.98-4.64-.39-1.62-1.15-3.21-1.24-4.84-.1-1.8-.5-3.52-.94-5.19-.99-3.75-2.3-7.41-3.46-11.12-.59-1.89-1.31-3.76-1.61-5.69-.41-2.64-1.84-5.14-1.2-7.94.06-.26-.18-.6-.32-.89-1.12-2.21-1.49-4.6-1.7-7.03-.16-1.86-.05-3.83-.65-5.55-.53-1.53-.41-2.72.4-4.03-1.11-1.07-1.4-2.25-1.31-3.73.12-2.04-.13-4.1-.23-6.15-.08-1.8-.63-3.72-.17-5.36,1.03-3.67-.16-7.6,1.52-11.13.03-.07,0-.16,0-.24.38-2.08.59-4.2,1.19-6.21.42-1.39.62-2.82,1.5-4.17,1.53-2.34,2.61-4.99,3.73-7.58,1.03-2.39,1.73-4.93,2.83-7.29,1.05-2.23,2.23-4.33,1.48-6.93-.12-.41.11-.94.21-1.4.52-2.27.19-4.63-.46-6.67-1.09-3.41-2.85-6.58-4.92-9.6-1.63-2.39-3.4-4.69-5.06-7.05-1.62-2.31-3.66-4.33-5.54-6.45-1.54-1.74-2.86-3.61-4.17-5.54-1.24-1.84-3-3.32-3.63-5.58-.09-.33-.5-.7-.84-.81-1.28-.42-2.6-1.04-3.9-1.04-3.96,0-7.91.25-11.88.26-3.45.01-6.75-.75-10.15-.93-3.43-.19-6.85-.75-10.28-.96-2.14-.13-4.3.19-6.44.12-2.1-.07-4.13-1.24-6.31-.36-.21.09-.57-.22-.87-.29-1.01-.22-2.03-.37-3.03-.63-1.91-.49-3.94-.75-5.66-1.62-2.94-1.49-6.11-1.66-9.22-2.1-2.88-.4-5.8-.48-8.74-.23-3.22.27-6.47.05-9.69.34-3.9.35-7.79.83-11.63,1.56-3.48.66-6.88,1.74-10.33,2.6-1.31.33-2.71.39-3.95.88-2.88,1.14-5.82,2.06-8.85,2.7-.92.19-1.82.54-2.84.86ZM316.6,33.38c-.22-.55-.25-.96-.45-1.1-1.16-.74-2.59-.83-3.79-1.58-.4-.25-1.22.19-1.85.29-.46.07-.96.6-1.36-.19-.11-.21-.65-.46-.77-.38-1.23.85-2.82.27-4.01,1-2.72,1.69-5.66,2.8-8.66,3.83-2.16.74-4.23,1.77-6.35,2.64-.87.36-2.14.38-2.57,1.01-.74,1.06-1.76,1.23-2.74,1.69-2.42,1.16-4.97,2.04-7.12,3.78-1.34,1.09-2.94,1.86-4.47,2.71-4.78,2.65-9.51,5.33-13.63,9.02-1.72,1.54-4.02,2.41-5.82,3.44-.56.87-.92,1.65-1.48,2.27-1.23,1.35-2.64,2.46-4.26,3.38-1.59.91-3.4,1.75-3.61,4.01-.03.33-.49.6-.71.93-1.42,2.14-3.74,3.61-4.61,6.19-.15.44-.76.78-1.23,1.04-1.98,1.14-3.91,2.4-5.99,3.31-1.3.57-2.88.9-4.25.72-.75-.1-1.45-.19-1.91.19-1.75,1.47-3.27,1.04-4.87-.23-.6-.48-1.41-.68-2.08-1.09-.39-.24-.86-.58-.98-.97-.48-1.56-.84-3.15-1.25-4.73-.14.19-.27.38-.41.57-.29-.68-.52-1.4-.89-2.04-.78-1.38-1.83-2.65-2.4-4.12-.55-1.4-1.24-2.72-1.82-4.08-.89-2.07-1.86-3.95-3.61-5.46-1.04-.9-2.34-2.05-2.54-3.25-.33-1.95-2.23-2.84-2.47-4.68-2.36-1.17-1.79-4.72-4.53-5.61-.16-.05-.14-.58-.25-.87-.16-.45-.26-.97-.56-1.3-2.35-2.52-4.17-5.49-6.88-7.73-2.06-1.7-3.86-3.72-5.77-5.61-1.67-1.66-3.3-3.36-5-4.99-1.02-.98-2.32-1.72-3.2-2.81-1.66-2.06-3.51-3.82-5.83-5.1-1.45-.8-2.78-1.86-4.3-2.44-1.93-.73-3.98-1.22-6.02-1.49-.58-.08-1.3.98-1.97,1.51-.12.1-.28.14-.11.06-2.38.18-4.35-1.28-6.54-.21-.47.23-1.47.05-1.86-.32-1.15-1.1-2-.92-2.95.2-.28.33-.77.49-1.02.64-.77-.62-1.49-1.19-2.2-1.76-.32.7-1.54-.63-1.57.7-.61-.16-1.23-.34-1.85-.47-.09-.02-.22.26-.35.28-.57.06-1.14.05-1.71.11-.7.08-1.46-.82-2.11.12-.28-.23-.57-.46-.62-.5-1.34.43-2.51.81-3.68,1.16-.38.11-.84.06-1.15.26-1.89,1.18-3.88,2.06-6.03,2.7-1.94.58-3.63,2.07-5.87,1.31-.13-.04-.35.29-.56.34-1.34.3-2.68.58-3.96.85.02.35.04.65.05.98-.83-.21-1.55-.4-2.36-.61v.93c-.93-.22-1.89-.45-2.87-.69-.15.47-.23.83-.36,1.16-.13.33-.29.65-.39.85-1.19-.96-2.59-.77-3.62-.47-1.94.58-4.04-.13-5.87.95-.24.14-.73.19-.92.04-1.66-1.3-2.29.03-2.81,1.05-.76.04-1.44-.13-1.85.13-1.95,1.23-3.91,2.48-5.71,3.91-1.91,1.53-3.87,2.98-6.15,3.86-.93.36-1.43.8-1.61,1.71-.01.06-.25.08-.44.14-.17-.5-.34-1-.55-1.62-.36.26-.59.48-.86.61-1.29.64-2.25,1.97-4.03,1.62-.65-.13-1.29.54-1.07,1.47.02.07-.17.2-.32.35-.3-.55-.59-1.09-1.06-1.95-1.34,1.84-2.66,2.15-4.14,2.1-.39-.01-.84.25-1.16.52-1.13.92-2.13,1.97-3.69,2.24-.57.1-1.06.66-1.6,1-2.81,1.79-4.23,4.64-5.84,7.4-.67,1.15-.79,2.1-.42,3.08-1.58,1.62-3.02,3.1-4.45,4.58-.21.22-.43.48-.51.76-.52,1.89-1.76,3.3-3.1,4.63-.91.9-1.95,1.65-2.85,2.55-.36.36-.55.92-.76,1.42-.26.62-.3,1.38-.7,1.87-1.08,1.37-2.29,2.63-3.44,3.94-.36.41-.89.82-.97,1.3-.37,2.09-.91,4.1-1.83,6.03-.55,1.15.13,2.75-1.21,3.69-.1.07,0,.44.02.68.14,2.46-.3,4.8-1.43,6.99-.36.7-.72,1.4-1.02,1.97.38.72.97,1.31.9,1.81-.25,1.7-.61,3.4-1.16,5.03-.73,2.16-2.3,4.03-2.23,6.49,0,.24-.36.49-.56.73-.24.3-.72.61-.7.88.17,1.76-1.02,2.72-2.05,3.81-.36.38-.85,1.01-.76,1.4.42,1.68-.65,2.66-1.69,3.79,1.19,1.79.32,3.2-.56,4.8-1.25,2.24-2.16,4.67-3.17,7.04-.11.26-.06.64,0,.94.22.98.48,1.96.8,3.23-.88,1.26-1.91,2.73-2.9,4.16.44.71.81,1.3,1.15,1.85-.42.78-1.18,1.53-1.06,2.12.37,1.94.13,3.64-.94,5.3-.24.38-.21,1.21.05,1.59,1.2,1.75.47,3.34-.28,5.07.96,1.19,1.13,2.49.36,3.95-.21.4.02,1.03.05,1.55.13,2.26,1.05,4.61-.8,6.72,1.69,1.76.06,3.35-.34,5,2.2,2.95,1.15,5.91.19,8.96.26.66.85,1.45.84,2.23-.07,3.86-.33,7.72-.46,11.58-.03.82.22,1.66.33,2.49.07.54.23,1.11.12,1.62-.52,2.5.25,4.82.95,7.23,1.15-2.13,1.98-4.34,3.02-6.45,1.38-2.81,2.08-6.11,5.27-7.71.31-.16.52-.6.68-.96.64-1.41,1.81-1.91,3.25-2.09.59-.08,1.24-.26,1.69-.61.87-.66,1.57-1.55,2.44-2.22,1.43-1.1,2.08-2.55,2.24-4.29.06-.63-.08-1.52.27-1.83,1.09-.96.93-2.31,1.43-3.43.82-1.86,2.13-3.49,2.65-5.52.12-.45.81-.73,1.19-1.14,1.5-1.59,3.03-3.15,4.44-4.81,1.13-1.33,2.16-2.74,3.16-4.18,1.16-1.67,2.25-3.39,3.32-5.12.87-1.41,1.64-2.87,2.49-4.29,1.42-2.36,2.85-4.72,4.33-7.04.37-.58.97-1.03,1.49-1.51.28-.27.79-.42.9-.73.65-1.92,3-2.59,3.41-4.68.05-.25.44-.43.67-.64,2.94-2.62,6.12-4.97,8.86-7.82.11-.11.21-.29.35-.32,2.87-.73,4.14-3.48,6.32-5.09,1.74-1.29,2.88-3.3,4.9-4.36.75-.39,1.29-1.16,1.95-1.74,1.36-1.18,2.67-2.42,4.11-3.5,1.44-1.09,3.06-1.94,4.48-3.04,1.7-1.31,3.32-2.71,5.56-3.03.3-.04.72-.11.86-.32,2.17-3.08,6.06-2.83,8.96-4.54,2.07-1.22,4.81-1.36,7.27-1.88,1.13-.24,2.31-.25,3.47-.35,2.98-.24,5.96-.48,8.94-.71.08,0,.16,0,.24.02,2.67.67,5.37.28,8.05.11,2.84-.18,5.64.42,8.36.86,3.28.53,6.59.58,9.86,1.16,2.62.47,5.37.19,8.04.39,4.07.3,8.18.4,12.08,1.88.51.19,1.09.24,1.64.31,2.84.36,5.64.85,8.28,2.02.7.31,1.39.74,2.12.85,1.24.18,2.51.15,3.77.2,1.96.07,3.91.22,5.87.18,3.2-.08,6.18-1.27,9.21-2.13,1.84-.52,3.66-1.1,5.61-.62.29.07.7.1.92-.05,1.57-1.07,3.37-.66,5.05-.77,4.92-.32,9.76-.96,14.48-2.42,1.13-.35,2.31-.6,3.48-.8,3.98-.66,8-.83,12.03-.73,4.91.12,9.75.44,14.6,1.58,3.63.85,7.22,1.82,10.8,2.84,1.74.5,3.45,1.35,5.21,1.49,2.75.21,4.82,1.82,7.17,2.85,1.82.79,3.12,2.77,5.11,2.29.92.78,1.54,1.72,2.32,1.88,2.14.43,3.34,1.9,4.6,3.33.81.2,1.59.47,2.23.94,2.6,1.93,5.06,4.04,7.73,5.86,2.48,1.69,5.13,3.12,7.75,4.58.73.41,1.67.8,2.45.69,1.24-.17,2.22.26,3.14.85.9.58,1.74,1.01,2.86.78.35-.07.78.12,1.14.25,1.17.44,2.3,1.02,3.5,1.36,1.65.47,2.93,2,4.85,1.66,1.25,1.52,3.96.96,4.69,3.28.06.18.71.16,1.08.27,3.48,1.05,6.07,3.18,7.51,5.82,1.34,1.06,2.54,1.59,3.08,2.52.84,1.42,1.74,2.61,3.24,3.32.25.12.44.45.59.72.89,1.7,1.84,3.31,3.77,4.07.34.13.73.48.84.81.62,1.86,2.47,2.62,3.73,3.75,1.75,1.57,4.02,2.63,5.93,4.17,1.75,1.41,3.74,2.57,6.03,3.21,1.83.51,3.51,1.57,5.55,2.53.07-.69.33-1.45.18-2.11-.59-2.56,0-5.38-1.63-7.72-.04-.05-.02-.17.01-.23.62-1.08-.14-1.99-.36-2.97-.18-.83-.19-1.71-.36-2.55-.2-1.05-.24-2.25-.79-3.1-.85-1.32-1.39-2.67-1.24-4.17.22-2.22-.55-4.23-1.38-6.13-.87-2-.99-4.38-2.83-5.95-.29-.24-.19-.92-.32-1.38-.14-.52-.24-1.1-.53-1.53-.86-1.29-2-2.38-1.3-4.26.23-.62-.4-1.68-.85-2.41-.57-.92-1.43-1.65-2.05-2.55-.53-.76-1.29-1.65-1.26-2.46.06-1.61-.82-2.47-1.82-3.38-.23-.21-.43-.46-.67-.71.17-.65.32-1.26.48-1.87-1.91-1.66-2.57-4.01-3.57-6.16-.14-.3.04-.75.07-1.13.04-.68.09-1.36.12-2.04.06-1.02-.1-2.12.22-3.05.3-.89.11-1.53-.25-2.23-1.2-2.28-1.87-4.69-2.19-7.25-.32-2.53-.55-5.14-2.58-7.11-.41-.39-.63-1.16-.63-1.76,0-2.54-1.67-4.45-2.55-6.63-.71-1.78-2.01-3.29-2.11-5.37-.02-.53-.7-1.01-1.05-1.53-1.35-2.02-3.13-3.9-3.9-6.12-.59-1.7-1.45-3.32-2.46-4.46-1.82-2.08-3.38-4.28-4.92-6.55-2.09-3.07-4.44-5.93-7.52-8.11-.89-.63-1.87-1.28-2.48-2.16-1.48-2.14-4.22-2.12-5.97-3.72-1.88.1-3.38-.98-4.92-1.78-1.11-.58-1.6-.13-2.33.73Zm-56.72,178.32c.83,1.96.69,1.94.48,3.43-.37,2.52-2.01,4.27-3.64,5.9-1.96,1.96-4.22,3.62-6.03,5.76-.24.28-.9.41-1.3.32-3.62-.74-7.39-.51-10.93-1.75-.25-.09-.61.06-.9.14-1.76.52-3.5.99-5.36.36-.57-.19-1.27-.06-1.9.03-1.66.25-3.29.54-4.86-.42-.26-.16-.74.06-1.12.06-1.34-.02-2.67-.05-4.01-.11-2.45-.1-4.55-1.32-6.72-2.23-2.02-.85-3.89-2.05-5.82-3.09-.14-.08-.32-.12-.41-.24-1.35-1.66-2.69-3.32-4.02-4.99-.39-.49-.71-1.05-1.14-1.52-1.02-1.11-2.09-2.17-3.12-3.28-2.79-3.01-3.86-6.39-2.65-10.5.6-2.03.84-4.22.86-6.34.03-3.21-.33-6.42-.4-9.63-.08-3.32-.07-6.65-.01-9.98.04-2.77,0-5.56.38-8.28.35-2.48-.01-4.3-2.08-5.97-.86-.69-2.66-1.28-2.1-3.22.08-.29-.76-.95-1.27-1.28-.69-.44-1.48-.72-2.28-1.09-.2,1.19-.39,2.26-.56,3.27.26.16.39.31.53.31.68.04,1.6-.24,1.98.1,1.09.97-.53,1.12-.76,1.76-.45,1.24.34,2.08.86,2.96-.39.32-.66.54-.94.77,1.19,1.29,1.71,3.72.8,4.78-1.79,2.1-1.09,4.52-1.46,6.73.96.43,1.66.74,2.11.94-.2.59-.44,1.04-.47,1.51-.03.34.41.92.3,1.02-1.01.94-.44,2.04-.47,3.1-.02.92-.56,1.83.3,2.66.12.11-.04.62-.19.89-.91,1.68-1.38,3.37-.8,5.33.2.66-.25,1.51-.37,2.28-.11.7-.39,1.47-.23,2.11.53,2.06-.03,3.79-1.87,4.64-.84.39-1.41.77-1.74,1.73-.29.84-.73,1.56-.93,2.5-.21,1-1.54,1.7-2.16,2.67-1.37,2.15-3.76,2.47-5.81,3.33-1.93.82-4.11,1.08-5.99,1.99-2.99,1.45-5.86,3.17-8.69,4.91-3.18,1.96-6.29,4.05-9.82,5.37-1.39.52-2.78,1.03-4.27,1.58-1.17-.59-2.49-1.25-3.76-1.88-.6-2.14-1.04-4.34-1.83-6.4-.85-2.22-2.54-4.12-2.61-6.66,0-.27-.31-.54-.46-.81-1.01-1.77-2.05-3.53-3.03-5.33-.75-1.38-1.39-2.81-2.13-4.19-1.1-2.09-2.51-4.07-3.3-6.28-1.12-3.1-3.13-5.67-4.52-8.6-.74-1.55-2.19-2.78-2.85-4.34-1.6-3.81-2.93-7.74-4.38-11.62q-1.33.71-.59,2.81c-.55.8-1.35,1.52-1.55,2.38-.55,2.34-.85,4.74-1.21,6.9-.76.46-1.47.7-1.89,1.19-1.15,1.32-.24,2.86-.19,4.22-1.33.66-2.57,1.19-3.73,1.87-.84.5-1.54.36-2.18-.21-2.74-2.45-6.35-2.59-9.65-3.93-.09,1.47-.54,2.84-.15,3.9.87,2.35.72,4.83,1.33,7.19.76,2.94.62,5.91-.32,8.72-.41,1.24-.61,2.37-.6,3.61.02,2.79-.43,5.41-1.92,7.89-.77,1.28-2.54,2.56-.98,4.29-.73,1.01-1.73,1.81-1.89,2.76-.14.86-.62,1.19-1.07,1.67-.35.38-.9.6-1.2,1.02-1.83,2.5-4.13,4-7.37,3.7-.45-.04-.92.12-1.38.19-1.12.19-2.43.82-3.33.46-1.25-.5-2.53-.42-3.43-.04-1.67.7-2.87.19-4.2-.58-.89-.52-1.86-.9-2.78-1.38-.41-.22-1.06-.51-1.09-.81-.14-1.49-1.49-2-2.19-3.01-.81-1.17-1.72-2.33-2.22-3.63-.5-1.28-1.19-2.33-2.01-3.42-1.31-1.75-2.44-3.66-3.42-5.62-1.47-2.93-2.74-5.96-4.15-9.07-.99.6-1.86,1.07-2.08,2.24-.1.55-.26,1.17-.59,1.6-1.41,1.83-3.72,2.78-4.85,4.89-2.22.22-2.24,3.48-4.69,3.42-.05,0-.13.27-.16.42-.29,1.33-1.32,2.06-2.3,2.83-1.58,1.25-3.05,2.7-4.79,3.68-1.01.56-1.62,1.21-2,2.17-.7,1.74-1.9,3.41-3.27,4.28-1.93,1.23-1.99,3.18-2.83,4.76-.47.88-.21,2.39.18,3.45,1.19,3.18,2.56,6.29,3.96,9.38.75,1.65,1.65,3.24,2.55,4.81.75,1.31,1.71,2.5,2.41,3.83,1.18,2.24,2.01,4.67,3.79,6.57.21.23.33.55.47.83.96,1.9,1.92,3.8,2.91,5.75,1.47-.44,2.82-.8,4.14-1.27.63-.22,1.15-.78,1.79-.96,1.35-.38,2.86-.27,3.84-1.63.18-.25.91-.24,1.35-.15,1.73.33,3.29-.21,4.71-1.01,3.41-1.92,7.06-2.61,10.92-2.67,1.15-.02,2.48-.23,3.38-.85,1.37-.93,2.8-.98,4.29-1.12,1.18-.12,2.39-.11,3.54-.37,2.25-.49,4.47-.83,6.81-.7,2.69.15,5.43.23,8.09-.12,1.57-.21,3.18-.22,4.56.04,1.29.24,2.69.64,3.89.48,3.57-.48,6.62,1.08,9.83,2.01,1.23.36,2.3,1.32,3.54,1.6,1.76.4,3.6.44,5.41.6,2.75.24,5.49-.05,8.23-.19,4.19-.22,8.19,1.6,12.41,1.4.21-.01.42.2.65.25,1.47.33,2.93.68,4.42.92.41.07.92-.41,1.3-.31,3.12.8,6.23.14,9.32.18-.05.17-.14.5-.3,1.05,1.21.1,2.34.33,3.46.26,1.9-.12,3.79-.56,5.69-.6.79-.02,1.58.66,2.19.93,1.94.08,3.81-.1,5.56.29,3.23.71,5.32,2.85,6.33,6.03.31.98.53,2.16,1.2,2.83,2.66,2.65,4.33,6.04,6.95,8.76,2.82,2.93,5.62,5.93,7.77,9.5,1.07,1.78,1.72,3.87,3.19,5.35,1.46,1.48,2.18,3.26,2.8,5.15.04.12.23.19.6.47.36-.41.82-.79,1.1-1.28.92-1.55,1.8-3.12,2.65-4.71.62-1.17,1.32-2.35.65-3.82,2.4-.47,3.37-2.6,4.81-3.82,0-.81-.28-1.74.05-2.09,1.07-1.15,2.25-2.29,3.59-3.06,3.41-1.95,6.9-3.77,10.42-5.52,2.42-1.21,4.98-2.1,7.6-2.82,3.47-.96,6.86-2.22,10.35-3.06,2.35-.57,4.82-.66,7.25-.9,2.28-.23,4.61.06,6.8-.91.46-.2,1.09-.02,1.64-.01,2.26.03,4.57.36,6.78.03,3.52-.53,6.81.96,10.27.76.99-.06,2.05.03,2.99.33,2.26.72,4.89.24,6.78,2.19,1.32,1.36,2.93,2.46,4.12,3.91.98,1.19,1.5,2.75,2.29,4.11.9,1.57,1.81,3.15,2.83,4.65.62.91,1.46,1.65,2.18,2.49.96,1.13,1.87,2.3,2.83,3.43.87,1.02,1.79,2,2.65,3.01,1.54,1.81,2.82,3.96,4.68,5.35,1.47,1.1,2.03,2.66,2.88,3.96,1.2,1.84,2.89,3.65,2.76,6.23-.06,1.17,1.21,1.89,2.32,1.53.98-.32,1.9-.82,2.89-1.11,1.45-.43,2.36-1.86,4.09-1.87,1.61-.01,3.11-.94,4.1-2.14,1.67-2.03,3.82-3.05,6.23-3.75.35-.1.81-.25.98-.52,1.54-2.39,4.1-3.65,6.1-5.51,1.31-1.21,2.95-2.15,3.3-4.19.09-.53.85-.9,1.17-1.43.66-1.1,1.27-2.25,1.83-3.41.53-1.11.88-2.31,1.49-3.37.66-1.15,1.99-2.09,2.21-3.28.5-2.68,2.38-4.39,3.91-6.25,1.79-2.18,4.07-3.99,6.27-5.79,2.07-1.69,4.04-3.56,6.59-4.62,1.24-.51,2.18-1.45,2.77-2.79.39-.88,1.25-1.57,1.95-2.3.82-.84,2.19-1.5,2.44-2.46.5-1.93,1.74-2.96,3.25-3.86,2.04-1.22,4.03-2.42,4.52-5.04.05-.29.54-.54.88-.72.55-.3,1.15-.53,1.7-.78.65-1.43-.54-3.1.7-4.38.09-.1-.05-.46-.13-.68-.97-2.51-1.85-5.03-1.6-7.79.01-.15-.07-.3-.11-.46-.91-3.81-1.2-7.7-1.09-11.6.04-1.38.03-2.63-.67-3.91-.33-.61-.35-1.6-.11-2.28.35-.99.2-1.92-.46-2.41-1.39-1.03-1.61-2.38-1.73-3.92-.05-.65-.55-1.26-.87-1.88-.75-1.47-1.6-2.91-2.26-4.42-.73-1.67-1.16-3.47-1.95-5.1-.52-1.07-1.45-1.94-2.21-2.92-.92.53-1.78,1.07-1.4,2.39.23.79-.17,3.37-.59,4.07-.83,1.38-1.66,2.76-2.49,4.14-1.87,3.12-4.04,5.87-7.91,6.64-1.06.21-2.27,1.15-3.08.85-2.53-.91-5.25.98-7.64-.7-.1-.07-.33-.06-.46,0-1.8.92-3.45-.19-5.12-.48-1.09-.19-2.11-1.04-3.07-1.72-1.01-.72-1.92-1.59-2.87-2.39-.36-.3-.86-.52-1.08-.9-1.24-2.11-2.56-4.18-3.55-6.4-.92-2.08-1.49-4.31-2.17-6.5-.81-2.64-1.67-5.27-2.33-7.95-.72-2.89-1.25-5.82-1.95-9.14-.52.63-.94,1.02-1.21,1.5-.56.97-1.04,1.99-1.55,2.99-1.82-.11-1.66,1.34-1.79,2.42-.14,1.22-.52,2.27-1.28,3.24-.8,1.04-1.45,2.2-2.26,3.23-1.42,1.79-2.83,3.59-4.39,5.26-1.67,1.78-3.44,3.48-5.27,5.1-3.06,2.69-6.35,4.59-10.55,2.42-.19-.1-.47-.01-.68-.09-.55-.22-1.21-.35-1.61-.75-2.08-2.04-3.37-4.65-4.33-7.29-1.21-3.32-1.85-6.86-2.83-10.27-.23-.81-.71-1.68-1.33-2.21-2.35-1.99-4.55-4.04-6.34-6.62-1.66-2.39-3.61-4.55-5.08-7.12-1.4-2.45-2.39-4.98-2.97-7.72-.1-.49-.41-.94-.85-1.89-.28,1-.57,1.51-.52,1.98.08.76.51,1.51-.66,1.82-.15.04-.19.57-.23.88-.24,1.62-.74,3.12-1.48,4.61-.33.66-1.19,1.62-.48,2.54.68.88.24,1.58-.14,2.33-.24.49-.72.94-.77,1.43-.17,1.75-.94,3.11-2.34,4.11.45,1.41.66,2.63-.29,3.87-.44.57-.41,1.51-.59,2.28-.34,1.44-.68,2.87-1.02,4.31-.25,1.06-.85,2.2-.62,3.15.2.8.19,1.46-.17,1.99-1,1.48-.88,3.14-.49,4.6.47,1.73-.12,3.26-.85,4.42-.88,1.39-.47,2.61-.5,3.91,0,.3.34.76.23.88-1.31,1.42-.87,4.22-3.83,4.36Zm132.74,45.69c-.41.18-.69.21-.83.37-2.76,3.15-5.48,6.33-8.25,9.47-.83.94-1.95,1.67-2.59,2.71-.94,1.54-2.4,2.26-3.8,3.16-2.18,1.41-4.55,2.66-6.38,4.44-2.21,2.15-4.32,4.6-5.78,7.29-1.37,2.51-3.16,4.95-3.51,7.96-.04.36-.33.72-.58,1.01-1.63,1.89-3.02,3.96-4.64,5.86-2.97,3.47-6.37,6.29-10.15,8.71-2.61,1.67-5.37,3.12-8.06,4.67-2.26,1.3-4.39,2.97-6.81,3.84-4,1.45-7.68,3.68-11.91,4.55-1.5.31-1.89,1.23-1.34,2.7.51,1.36.52,2.62-.21,3.9-.19.33-.29.76-.29,1.14.03,2.55-.4,4.99-1.42,7.34-.46,1.05-.7,2.2-.98,3.32-.63,2.45-1.22,4.9-1.83,7.36-.07.29-.35.7-.24.85,1.03,1.49.47,3.11.38,4.66-.23,4.36.73,8.52,1.91,12.65.5,1.74,1.01,3.49,1.63,5.19.41,1.11,1.09,2.11,1.53,3.21.75,1.88,1.42,3.79,2.25,6.05.52-.9.84-1.51,1.21-2.08.58-.88,1.41-1.29,2.47-1.12,2.81.44,5.61.91,8.42,1.34,2.03.31,4.06.58,6.09.87,3.98.57,7.96,1.43,12,.35.5-.13,1.09.05,1.64.09,3.05.21,6.09.71,9.16.13,1.71-.32,3.44-.6,5.16-.9,1.16-.2,2.33-.37,3.47-.65.92-.23,1.79-.62,2.69-.91,1.05-.35,2.11-.68,3.17-.99,2.55-.76,4.19-2.84,6.21-4.35.7-.53,1.26-1.43,1.57-2.28,1.32-3.54.35-7.31.98-10.94.2-1.14.3-2.32.23-3.47-.13-2.05-.62-4.09-.61-6.14,0-1.93-.6-4.01.8-5.8.15-.19,0-.61,0-.93-.02-1.41-.04-2.82-.05-4.24,0-1.49.27-3.06-.07-4.47-.49-2.02-.05-3.4,1.64-4.21-.32-1.88-.65-3.62-.87-5.37-.07-.53-.02-1.25.29-1.62,1.27-1.5.67-3.33,1.03-4.98.11-.5-.23-1.13-.07-1.59.88-2.43.58-5.03.87-7.51.29-2.45,1.41-4.62,1.59-7.03.1-1.31.37-2.61.59-3.91.14-.83.06-1.84.51-2.43.83-1.07,1.02-2.24.74-3.36-.38-1.51.5-2.6.88-3.85.22-.72.73-1.36.88-2.08.29-1.39.16-2.92.69-4.18.72-1.71.72-3.37.6-5.12-.05-.77-.02-1.56.05-2.33.12-1.53.38-3.05.41-4.58.02-1.34-.13-2.7-.35-4.02-.44-2.63-1.15-5.2-2.12-7.74Zm-148.32-43.63c.71-.18,1.47-.46,2.24-.54,1.65-.18,2.9-.83,3.69-2.39,1.18-2.34,2.3-4.65,2.94-7.25.72-2.94,2.17-5.7,1.94-8.86-.03-.43.25-.9.42-1.33.16-.42.45-.82.51-1.25.27-1.85.42-3.71.74-5.55.41-2.35,1.1-4.67,1.39-7.03.44-3.52,1.84-6.71,3.04-9.98,1.01-2.76,2.25-5.43,3.25-8.19.56-1.56.96-3.2,1.22-4.83.41-2.58.64-5.19.95-7.79.25-2.09.84-4.21.65-6.26-.28-3,.21-5.87.65-8.76.22-1.47.87-2.89,1.05-4.37.37-2.98,1.76-5.55,2.95-8.21.83-1.85,1.73-3.66,2.74-5.78-1.14-.12-1.89-.2-2.6-.27-.31-.5-.63-1.01-.99-1.58-.32.5-.55.85-.75,1.16-.88-.4-1.63-.76-2.4-1.08-.29-.12-.64-.23-.92-.17-1.01.2-1.74-.29-2.54-.78-.79-.49-1.66-.88-2.55-1.13-.92-.26-1.83-.82-2.86.19-.41.4-1.64-.05-2.5-.05-.09,0-.18.4-.37.85-.68-2.13-.67-2.11-2.15-1.62-.34.11-.74-.02-1.11.02-1.55.16-3.04-.07-4.43-.73-.3.65-.54,1.17-.75,1.64-.96.07-1.6-2.13-2.5-.15-.13-.07-.26-.17-.4-.2-.46-.13-.94-.36-1.4-.33-1.09.07-2.18.2-3.24.43-1.67.35-3.33.8-4.99,1.22-.14.04-.28.17-.38.29-1.09,1.35-2.31,2.62-3.23,4.09-2.22,3.58-3.57,7.56-5.04,11.48-.45,1.19-1.09,2.33-1.37,3.55-.47,2.08-1.25,3.99-2.39,5.8-.62.98-.98,2.13-1.53,3.17-.43.82-.77,1.9-1.48,2.33-2.29,1.39-2.42,4.23-4.22,5.9,0,1.64-1.07,2.78-1.9,4.03-1,1.5-2.23,2.95-2.78,4.61-.44,1.33-1.02,2.09-2.12,2.9-1.13.82-2.16,2.06-2.71,3.34-1.03,2.38.83,5.24-1,7.59.32,1.27.42,2.65,1,3.79.98,1.92,1.25,3.91,1.23,5.98-.03,2.15-.23,4.31-.17,6.46.06,2.08.39,4.16.54,6.24.05.67,0,1.37-.14,2.03-.32,1.46-.57,3.23.34,4.2,1.61,1.71,2.81,3.52,3.51,5.74.11.36.67.6,1.03.87.37.27.85.45,1.13.79,1.46,1.8,3.43,2.66,5.61,3.03,1.77.3,3.34.9,4.74,2.2,1-.6,2.04-1.26,3.28-.48.19.12.59-.17.89-.16,1.71.03,3.51-.22,5.1.25,1.05.31,1.83.39,2.89.21,2.77-.46,5.6-.87,8.24.76Zm-157.88,138.42c-1.6-.93-3.16-1.85-4.73-2.76-1.03-.6-2-1.32-3.09-1.75-4.13-1.66-8.37-3.04-12.41-4.88-2.83-1.29-5.47-2.89-7.28-5.78-1.24-1.97-2.01-4.29-3.65-5.91-1.17-1.15-1.85-2.41-2.21-3.89-.21-.88.14-1.93-.17-2.75-.94-2.47-1.5-5.16-3.74-6.95-.33-.26-.63-.85-.58-1.24.22-1.71-.79-2.58-1.94-3.57-1.47-1.26-3.06-2.48-3.48-4.63-.15-.79-.64-1.79-1.28-2.13-1.16-.62-1.28-1.64-1.74-2.62-1.18-2.52-.65-5.34-1.9-7.96-1.11-2.33-.94-5.27-1.31-7.95-.38-2.73-.67-5.47-1.15-8.18-.09-.52-.92-1.29-1.42-1.29-1.15-.02-1.5-.61-1.83-1.51-.27-.73-.73-1.4-1.1-2.1-.63-1.22-.59-1.8.62-2.6.99-.65,1.15-1.43.93-2.42-.4-1.75-.7-3.52-1.97-4.97-.81-.92-1.4-2-1.36-3.36.04-1.13-.32-2.13-1.57-2.65-.53-.22-1.07-.79-1.27-1.33-.5-1.32-.86-2.69-1.17-4.07-.27-1.22-.28-2.53-1.77-2.91.96-2.76.64-3.49-1.13-3.79-.81-1.68-1.52-3.15-2.24-4.64-1.03.41-1.16.99-.69,1.75.2.33.57.6.66.95.72,2.67,1.38,5.35,2.07,8.02,1.31,5.07,2.56,10.15,4,15.18.7,2.46.57,5.02,1.19,7.49.42,1.7.23,3.54.52,5.28.39,2.34.97,4.65,1.48,6.98.22,1,.73,2.02.64,2.98-.27,2.7,1.34,5.19.71,7.91-.09.4.3.89.36,1.36.16,1.17.58,2.44.29,3.51-.31,1.14-.01,1.95.34,2.92.31.85.78,1.97.48,2.65-.63,1.38.09,2.29.55,3.35.28.64.91,1.32.82,1.89-.53,3.33,1.75,6.06,1.85,9.24,2.14,4.14,4.31,8.27,6.42,12.43,2.06,4.07,4.42,8.04,4.85,12.74.04.46.28.92.49,1.35,1.66,3.4,2.66,7.07,4.62,10.37,2.4,4.03,4.3,8.36,7.57,11.84.67.71,1.01,1.73,1.57,2.57.7,1.06,1.85,1.84,2,3.25,0,.09.44.09.61.22.26.2.55.44.67.73.24.56.37,1.17.47,1.51,1.06.41,1.89.64,2.61,1.05.8.46,1.44,1.37,2.27,1.59,1.66.44,2.71,2.05,4.64,2.05.98,0,1.92,1.05,2.94,1.49,1.78.78,2.44,2.58,3.56,3.9,1.58-.81,1.82-.86,2.82.03,1.39,1.24,3.31,1.83,4.25,3.64.21.41.91.55,1.36.85.45.29.83.69,1.31.92.39.19.74-.81,1.31-.01,1.02,1.42,2.7,2.02,4.24,2.48,3.36,1,6.84.91,10.24.51.29-.6.53-1.09.76-1.57,1.03-.11,2.06-.01,2.91-.34,2.51-.96,5.03.11,7.53-.22,1.16,1.04,2.35.12,3.69.22-.14-1.36-.09-2.59-.41-3.71-.59-2.02-.71-4-.5-6.1.2-2.04,0-4.11.08-6.17.08-1.86.1-3.77.53-5.56.49-2.01.94-3.94.48-6-.12-.53-.11-1.1-.1-1.65.06-1.9.16-3.8.24-5.7.06-1.45-.48-2.5-1.71-2.4-1.93.15-2.39-1.18-3-2.37-1.85.2-1.83.19-1.86-1.16-.03-1.34-.12-2.67-.2-4.28,1.42-.14,2.86-.29,4.07-.41.41-.9.73-1.6,1.07-2.34-.72-1.09-.47-2.89-2.31-3.26-.1-.02-.21-.26-.21-.4.05-1.69-.84-2.64-2.36-3.19-.32-.12-.66-.54-.75-.88-.52-1.95-2.64-3-2.83-5.14-.02-.25-.42-.45-.61-.71-.45-.63-.88-1.27-1.31-1.91-.17-.25-.36-.76-.48-.74-1.57.21-1.48-1.12-1.92-1.97-.25-.49-.5-1.22-.9-1.34-1.71-.5-1.83-2.05-2.41-3.36-.64.05-1.26.1-1.87.14-.88-1.2-2.02-1.97-3.02-2.89-1.01-.93-1.9-2-2.65-2.81-1.3-.13-2.5-.1-3.59-.41-1.09-.31-2.07-1-3.13-1.45-2.23-.97-4.49-1.88-6.73-2.84-.21-.09-.35-.34-.55-.45-1.71-.94-3.43-1.89-5.17-2.79-.24-.12-.62.08-.93.05-3.15-.31-5.7,1.95-8.76,2.04-.21,0-.41.23-.62.35-.83.45-1.66.88-2.48,1.34-.53.3-1.05.63-1.46.87.5,3.19,2.07,5.86,1.92,9.01-.06,1.28.26,3.06,1.96,3.49,2.04.52,3.74,1.62,5.54,2.59,2.42,1.3,4.99,2.3,7.49,3.45,2.75,1.25,5.46,2.6,8.24,3.76,3.43,1.43,6.67,3.32,10.25,4.39.3.09.58.27.83.47.96.78,2.04,1.13,3.29,1.24,2.38.23,4.57,1.16,6.57,2.38.89.54,2.02,1.65,2,2.48-.03,1.25.63,2.03,1.19,3.11-1.35.49-1.23,1.68-1.65,2.66-.4.94-1.59,1.54-2.5,2.36-.52.04-1.21.17-1.9.12-1.81-.14-3.76.03-5.37-.63-2.86-1.16-5.49-2.9-8.26-4.29-1.97-.99-3.93-2.27-6.29-1.46Zm46.33-241.46c.15.87.17,1.69.46,2.4.18.44.84.65,1.2,1.05.19.21.22.58.3.88.24.83.27,1.8.73,2.48,1.2,1.74,1.36,3.57,1.14,5.59-.17,1.55.05,3.13-.06,4.69-.09,1.32-.8,2.59-.35,3.96-1.58.92-.53,2.32-.67,3.52-.2,1.69-.02,3.36-.86,5.05-.79,1.58-1.33,3.4-1.73,5.16-.52,2.34-.69,4.74-1.99,6.89-.55.92-.77,2.07-.98,3.15-.19.93-.16,1.89-.23,2.84-.07.89-.13,1.74.89,2.26,1.09.56,1.27,1.49.96,2.64-.13.48.04,1.07.18,1.58.42,1.5.89,2.99,1.41,4.71.5.42,1.23,1.01,1.93,1.64,2.06,1.85,2.23,4.87,4.18,6.79-.31,1.4.88,2.06,1.45,3.05.92,1.61,2.27,3.02,2.52,4.98.21,1.63,1.1,2.84,2.17,4.08.89,1.02,1.61,2.43,1.78,3.75.25,1.96,2.38,2.98,2.2,5.03,0,.07.24.19.39.25,1.17.49,1.33,1.58,1.34,2.6,0,1.26.08,2.31,1.45,2.92.38.17.51.94.73,1.44.33.77.64,1.55,1.02,2.47,2.63-1.39,5.2-2.39,7.34-3.98,3.62-2.69,8.01-3.6,11.87-5.69.46-.25,1.09-.2,1.64-.27.85-.1,1.72-.08,2.54-.29,1.98-.51,3.54-2.74,3.57-4.69.03-1.66.21-3.32.43-4.96.35-2.57.83-5.13,1.2-7.7.22-1.49.39-2.99.47-4.49.29-5.76.52-11.52.79-17.29.03-.55.1-1.12.25-1.65.61-2.12,1.29-4.22,1.87-6.34.28-1.02.23-2.03-.68-2.84-.32-.28-.67-.76-.65-1.14.05-1.36-.82-2.2-1.59-3.08-1.64-1.89-1.94-4.82-1.04-7.13.7-1.78,1.48-3.78,1.31-5.6-.24-2.54,1.38-3.88,2.61-5.42.52-.65.95-1.08.95-1.92,0-.61.19-1.21.21-1.82.01-.44.05-1.09-.2-1.3-1.13-.9-2.35-1.7-3.58-2.46-.29-.18-.86-.25-1.11-.09-1.44.92-1.99.09-2.5-1.1-.2-.48-.68-1.28-.89-1.24-1.56.32-2.48-1.25-4.07-1.18-.92.04-2.55-.24-3.13-.81-1.35-1.31-2.41-1.09-3.56-.27-.8-.44-1.48-1.08-2.19-1.11-.5-.02-1.04.77-1.57,1.2q-1.54-1.16-2.76-.23c-1.23-.66-2.39-1.29-3.62-1.95-.24.61-.42,1.1-.67,1.74-.55-.31-.99-.55-1.41-.78-.47.34-.89.63-1.04.74-.65-.5-1.13-.86-1.62-1.23-.4,1.12-1.02.21-1.52.13-1.22-.19-2.54-.86-3.62-.58-2.14.56-3.8-.12-5.47-1.18-.32-.2-.64-.41-.67-.43-1,.49-1.77,1.19-2.49,1.16-1.34-.06-2.66-.55-4-.87-.05.68-.09,1.25-.13,1.81-.16.05-.31.1-.47.15-.25-1.3-.48-2.62-2.36-1.71Zm-10.91,1.16c-1.08-.18-1.16,1.47-2.05.39-2.5.36-4.85,1.24-7.03,2.46-2.04,1.15-3.77,3.01-5.92,3.79-3.3,1.19-4.91,4.41-7.93,5.78-.06.03-.08.14-.13.2-1.07,1.06-2.01,2.31-3.24,3.12-1.73,1.14-3.24,2.16-4.37,4.13-1.06,1.86-3.29,3.04-4.99,4.54-.93.82-1.84,1.65-2.73,2.51-.39.38-.64,1.04-1.09,1.21-1.57.59-3.15,1.1-3.68,2.96-1.8.36-2.29,2.26-3.69,3.16-.87.56-2.19,1.23-1.66,2.82.07.21-.24.56-.39.83-1.01,1.88-3.89,2.53-3.52,5.33.01.09-.25.2-.32.33-.57,1.01-1.3,1.98-1.62,3.06-.16.56-.29.9-.75,1.24-.88.63-1.7,1.34-2.54,2.02.86,1.73.55,2.96-.93,3.86-.3.19-.53.5-.77.78-.65.76-1.25,1.57-1.94,2.3-.69.73-1.88,1.3-2.07,2.11-.25,1.07-.78,1.41-1.6,1.79-1.09.51-1.74,1.3-1.55,2.65.19,1.37,1.15,1.5,2.22,1.69,1.51.28,2.19,1.17,2.52,2.43.62,2.36,1.2,4.77,2.18,6.99.76,1.72,1.78,3.31,2.11,5.22.1.58.5,1.24.96,1.61.9.72,1.18,1.62,1.35,2.68.09.58.44,1.13.69,1.68,1.07,2.26,3.07,4.12,2.88,6.98,1.49.31,2.27,1.05,2.16,2.65-.04.6.52,1.3.94,1.85.98,1.3,2.26,2.43,2.99,3.85.6,1.15,1.38,1.69,2.49,1.8,1.25.13,2.56-.2,3.77.06,1.87.4,3-.64,3.83-1.85.78-1.12,1.16-2.56,1.52-3.91.37-1.38.42-2.84.76-4.23.82-3.33.28-6.66.09-9.98-.16-2.76-.63-5.5-.87-8.25-.19-2.29-.23-4.59-.36-6.88-.02-.3-.16-.62-.32-.89-1.27-2.18-1.59-4.62-1.94-7.05-.09-.61-.23-1.22-.46-1.78-1.16-2.93-3.36-5.26-4.49-8.29-.8-2.16-2.17-4.15-2.12-6.53.05-2.16-.45-4.74,2.67-5.49.26-.06.41-.54.68-.64.58-.22,1.23-.49,1.82-.44,1.72.16,3.43.47,5.47.77.24.81.54,1.84.91,3.09.85.35,1.89.73,2.16,2.2.21,1.11.79,2.27,1.52,3.15,1.39,1.68,2.47,3.47,2.86,5.05,1.5.98,2.62,1.62,3.64,2.41,1.25.96,2.83,1.82,3.49,3.12.74,1.45,2.03,1.36,3.05,1.85.7.33,1.69-.1,1.9-1.27.24-1.31.49-2.65.96-3.89,2.04-5.33,3.94-10.65,4.91-16.34.82-4.82,2.56-9.47,3.9-14.2.06-.23.16-.45.25-.67.95-2.32,1.91-4.63,2.84-6.95.11-.28.02-.63.06-.95.14-1.11.3-2.21.43-3.32.18-1.55.4-3.11.5-4.67.06-1.01-.04-2.04-.12-3.05-.08-1.01-.21-2.01-.31-2.96Zm182.59,78.28c.42-.11.92-.1,1.16-.34,1.53-1.5,3.05-3.02,4.47-4.62,1.04-1.18,1.93-2.49,2.88-3.76.52-.7,1.05-1.41,1.51-2.15,1.33-2.17,2.65-4.35,3.92-6.56.77-1.35,1.53-2.72,2.11-4.16,1.03-2.55,1.7-5.26,2.92-7.7,1.39-2.77,2.31-5.69,3.37-8.57.27-.73.63-1.44,1.06-2.1.64-.99,1.54-1.81,1.09-3.23-.12-.39.34-.99.59-1.47.31-.61.67-1.2,1.02-1.82-.4-.37-.6-.69-.86-.77-2.99-.84-5.75-2.33-8.95-2.69-1.97-.22-3.87-1.32-5.75-2.15-2.73-1.2-5.45-2.44-8.1-3.8-2.18-1.11-4.32-2.33-6.37-3.67-2.1-1.37-4.06-2.96-6.1-4.43-.63-.45-1.49-.7-1.92-1.28-1.81-2.43-4.74-3.12-7.34-5.21.3,2.38.56,4.25.77,6.13.08.7.24,1.51-.02,2.12-.84,2.02-1.05,4.01-.64,6.18.35,1.88-1.23,3.74-.27,5.71.08.17-.1.45-.14.69-.15.75-.35,1.49-.41,2.25-.1,1.27-.59,2.87-.02,3.74.9,1.39-.27,2.27-.13,3.37.09.69.25,1.38.39,2.07.06.3.29.66.19.9-.72,1.76.62,3.37.33,5.11-.06.34.36.89.71,1.16,1.67,1.33,2.69,3.08,3.55,4.99.25.55.64,1.35,1.09,1.43,2.33.45,2.26,3.42,4.37,4.02.45,2.08,2.44,2.98,3.53,4.58.57.82,1.24,1.42,1.45,2.56.31,1.74,1.16,3.38,1.67,5.1.33,1.13.46,2.32.7,3.47.11.53.22,1.08.45,1.57.5,1.05,1.07,2.06,1.75,3.34Zm35.59-40.03c-.67.59-1.44.98-1.42,1.3.14,1.67-.51,3.21-.6,4.81-.14,2.55.29,5.11-.18,7.66-.12.67.16,1.4.23,2.11.06.63.28,1.35.05,1.87-1.06,2.47.51,4.58.81,6.85.13.97.44,1.93.75,2.87.61,1.82,1.43,3.59,1.87,5.45.7,2.99,1.26,6.01,2.73,8.74,1.44,2.68,2.41,5.67,4.94,7.6,1.19,0,2.4.22,3.5-.06,1.21-.3,2.29-.24,3.48-.04,1.06.18,2.32.34,3.25-.06,1.56-.68,2.48-2.25,3.05-3.78.76-2.07,1.27-4.24,1.74-6.4.98-4.5,2.92-8.72,3.62-13.31.32-2.11.36-2.55-1.47-3.68-2.26-1.4-4.82-2.28-6.87-4.04-.78-.67-1.54-1.38-2.41-1.9-3.36-2.01-6.22-4.63-8.94-7.39-2.69-2.74-5.29-5.57-8.14-8.59Zm-115.24-35.07c-.82-.83-1.31-1.81-2.64-.84-.76.55-2.16,1.09-2.81.75-1.24-.65-1.96.88-2.8.36-1.35-.83-2.05-.39-2.59.87-.01.03-.15,0-.27,0-.27-.21-.57-.43-.91-.68-.41.25-.79.69-1.21.72-2.32.19-4.28,1.92-6.73,1.55-.25-.04-.54.24-.83.32-.57.16-1.19.51-1.7.39-.71-.17-.88.08-1.31.55-.9,1-1.77.29-2.53-.32-.14.6-.39,1.21-.4,1.83-.11,3.79-.68,7.28-3.77,10.05-1.41,1.27-2.65,3.38-1.96,5.3.85,2.4,1.72,4.94,3.93,6.7,1.28,1.02,2.31,2.37,3.36,3.65,1.43,1.74,2.38,3.88,4.41,5.13,1.3.8,1.78.87,2.47-.47,1.31-2.54,2.76-4.96,4.8-7.01.26-.26.3-.74.49-1.09,1.19-2.21,2.1-4.58,4.01-6.36.55-.51.78-1.36,1.18-2.04.68-1.15,1.12-2.7,2.13-3.32,1.18-.72,1.29-1.68,1.63-2.67.23-.66.36-1.35.52-2.02.26-1.07.3-2.25.8-3.19.52-.98,1.74-1.61,2.16-2.6.7-1.68,1.97-2.76,3.24-3.81q-.81-2.78-2.68-1.73ZM35.91,203.19c3.67-3.5,7.15-6.82,10.63-10.15-.93-.04-1.68.26-2.36.67-.47.28-.78.91-1.26,1.06-3.41,1.08-5.43,3.88-7.9,6.28.25.61.51,1.23.88,2.14Z" style="stroke-width: 0px;"/>
      <path d="m327.56,623.06c.3-3.04.11-5.89-.79-8.69-.14-.43-.27-.98-.12-1.38.71-1.97,0-3.7-.6-5.53-.55-1.68-.75-3.48-1.12-5.23-.23-1.09-.31-2.25-.76-3.23-.53-1.15-.49-2.24-.56-3.43-.08-1.34-.9-2.65-1.45-3.95-.65-1.55-1.16-3.1-.51-4.95-2.24-.5-.62-2.79-1.91-3.7.85-1.15,1.56-2.17,2.34-3.15,1.56-1.97,4.94-2.61,7.27-1.46.78.38,1.63.61,2.43.96,2.67,1.18,4.06,3.69,5.87,5.74,1.39,1.58,2.43,3.47,4.31,4.6.27.16.54.36.74.59,1.31,1.56,2.63,3.11,3.96,4.64,1.25,1.41,2.47,2.87,3.83,4.19.44.43.98.76,1.45,1.17.84.72,1.94,1.32,2.42,2.24,1.1,2.1,3.32,2.88,4.79,4.54,1.02,1.15,2.52,1.86,3.8,2.77.19.14.46.27.53.47,1.21,3.23,4.69,4.45,6.42,7.33,1.17,1.95,3.3,3.32,4.98,4.97.79.78,1.49,1.63,2.27,2.42,2.42,2.47,4.64,5.19,7.34,7.31,1.98,1.55,3.62,3.46,5.31,5.19,1.88,1.92,4.34,3.32,5.69,5.85,1.29,2.42,2.99,4.62,4.52,6.92.31.46.58,1.13,1.02,1.29,1.44.5,1.75,1.74,2.23,2.91.82,2.04,1.61,4.09,2.5,6.1.46,1.05.9,2.21,1.67,3.01,1.77,1.82,2.07,4.24,3.04,6.38.71,1.57,1.63,3.06,2.32,4.64.97,2.22,1.79,4.51,2.72,6.75.21.5.63.9.89,1.39.44.84,1.18,1.71,1.18,2.56,0,2.24.86,4.07,2.02,5.86.2.3.39.89.24,1.09-.88,1.17-.31,2.26,0,3.41.53,2.01.02,3.7-1.17,5.51-1.43,2.17-3.66,3.4-5.27,5.34-.66.79-2.12.9-3.2,1.36-.76.32-1.31.76-1.38,1.75-.04.51-.57,1.25-1.05,1.41-1.46.5-2.24,2.19-4,2.15-.42-.01-.88.35-1.27.62-1.27.87-2.55,1.61-4.2,1.24-.28-.06-.74,0-.9.2-1.13,1.34-2.71,1.2-4.18,1.3-2.58.17-5.22,1.16-7.66-.77-.47-.37-1.47-.02-2.21-.11-1.61-.18-3.31-.12-4.48-1.68-1.41.9-2.76,1.55-4-.08-.13-.18-.66-.07-1.01-.06-.3.01-.84.18-.87.12-.72-1.74-2.56-1.11-3.79-1.76-1.26-.66-2.78-.8-4.15-1.27-.48-.16-.88-.59-1.27-.94-1.12-1.04-2.11-2.37-3.95-1.45-.12.06-.36.05-.46-.03-2.64-2.29-6.83-2.1-8.78-5.49-3.45-1.81-5.25-5.34-8.04-7.85-1.88-1.69-3.16-3.87-3.94-6.41-.71-2.28-2.14-4.33-2.98-6.58-.74-1.95-1.53-3.9-1.43-6.14.07-1.5-.46-3.08-.98-4.53-1.12-3.07-1.68-6.14-1.14-9.43.19-1.15,0-2.39-.6-3.66-.67-1.42-.56-3.23-.72-4.87-.31-3.23-.56-6.47-.86-9.7-.15-1.65-.31-3.3-.56-4.94-.22-1.43-.15-2.8.06-4.23.16-1.09.36-2.21-.32-3.52-.59-1.14-1.03-2.88-.16-4.5.8-1.51-.38-2.64-1.35-3.55Zm11.47-19.17c-.27.93-.75,1.64-.58,2.13.88,2.62,1.53,5.26,1.4,8.05-.01.29.18.59.27.89.27.89.69,1.76.79,2.66.37,3.44.64,6.9.93,10.35.08.99-.12,2.07.18,2.97.61,1.8,1.68,3.48.71,5.49-.09.19.26.56.32.86.1.53.16,1.07.19,1.61.05.93-.05,1.87.11,2.78.29,1.61.83,3.18,1.06,4.8.24,1.68.22,3.39.34,5.08.18,2.37.46,4.73.56,7.11.06,1.54,0,3.06.69,4.52.25.53.21,1.22.21,1.84,0,1.02-.34,2.13-.07,3.05.43,1.41.98,2.69,1.09,4.27.1,1.38.85,2.82.98,4.32.02.23.05.48.15.67,1.18,2.18,1.68,4.69,3.17,6.74.3.42.29,1.06.42,1.59.09.38.05.92.29,1.13,2.34,2.06,3.5,5.12,6.27,6.88,1.77,1.12,3.1,2.86,5.41,3.21.95.14,1.77,1.03,2.69,1.51,1.33.68,2.63,1.56,4.05,1.86,1.13.24,2.02.64,3,1.2,1.76,1.02,3.63,2.01,5.59,2.47,3.75.89,7.43,2.04,11.43,2,2.29-.02,4.34-.45,6.02-1.59,3.48-2.37,6.86-4.9,10.1-7.62,1.18-.99,1.64-2.21.95-3.61-.77-1.55.03-3.55-1.46-4.86-.09-.08-.11-.31-.09-.46.29-2.69-1.3-4.7-2.38-6.94-.53-1.1-2.3-1.46-1.8-3.1-1.27-1.45-.76-3.54-1.91-5.11-1.05-1.44-1.66-3.18-2.5-4.78-.22-.41-.54-.78-.85-1.14-.98-1.14-1.84-2.23-1.85-3.93,0-.87-.89-1.76-1.43-2.61-.54-.85-1.47-1.6-1.62-2.5-.28-1.7-1.23-2.87-2.27-4.06-.53-.6-1.2-1.16-1.46-1.87-.76-2.06-2.54-3.11-4.03-4.47-1.56-1.42-3.45-2.68-4.47-4.43-1.08-1.87-2.81-2.94-4.11-4.5-1.66-1.99-3.9-3.5-5.82-5.29-1.66-1.55-3.23-3.19-4.81-4.81-.32-.32-.8-.89-.7-1.14.28-.68.47-1.27-.37-1.49-.48-.13-1.07.12-1.37.17-3.51-2.54-5.68-6.22-9.07-8.79-2.92-2.21-5.39-5-8.07-7.53-.4-.37-.84-.7-1.26-1.05-.9-.76-1.8-1.51-2.68-2.3-.69-.62-1.34-1.29-2.33-2.25Z" style="stroke-width: 0px;"/>
      <path d="m215.51,713.77c-.61-.45-1.18-.88-1.92-1.43,1.63-1.9.21-4.06.45-6.15.07-.58-.02-1.01.32-1.63.51-.93.89-2.17-.17-2.71.33-1.69.72-3.09.86-4.51.23-2.22,1.39-4.29.78-6.68-.29-1.13.84-2.24.71-3.61-.36-3.6,1.17-6.97,1.56-10.5.23-2.12.61-4.23,1.06-6.31.26-1.23.76-2.41,1.19-3.6,1.26-3.47,2.51-6.95,3.86-10.39.27-.7.92-1.26,1.51-2.04-.22-.26-.49-.58-.69-.82.23-1.57.37-3.12.68-4.63.37-1.76.84-3.51,1.34-5.24.32-1.09.17-2.33,1.04-3.26.09-.09.11-.34.05-.46-1.19-2.12.21-4.09.36-6.12.11-1.51,0-3.1.47-4.49.71-2.1.64-4.53,2.4-6.22.93-.89.38-2.06.58-3.09.14-.67-.21-1.45-.07-2.12.45-2.28-.18-4.21-1.66-5.93-1.25-1.46-1.5-3.25-1.64-5.08-.04-.51-.1-1.22-.43-1.46-1.24-.92-1.13-2.4-1.56-3.6-.6-1.66,1.3-3.6,3.07-3.49,2.55.17,4.49,1.17,5.84,3.44.71,1.2,1.8,2.18,2.75,3.22,2.12,2.32,3.38,5.16,4.82,7.89.25.48.49.96.74,1.44,1.89,3.69,3.47,7.45,3.58,11.71.03,1.29.63,2.58,1.03,3.85.97,3.01,1.95,6.01,2.98,8.99.26.74.8,1.37,1.13,2.09,1.58,3.45,3.08,6.92,4.69,10.36,1.1,2.35,2.36,4.63,3.48,6.98,1.36,2.85,2.58,5.77,4,8.59,1.27,2.54,2.74,4.98,4.11,7.47.19.34.51.7.51,1.05,0,2.55,1.55,4.43,2.65,6.52.55,1.05.91,2.19,1.42,3.26,1.66,3.42,3.39,6.81,5.04,10.23,1.43,2.98,2.8,5.98,4.2,8.98,1.1,2.36,2.15,4.75,3.32,7.08,1.34,2.68,2.82,5.3,4.17,7.98.41.82.57,1.77.84,2.66.18.61.27,1.26.55,1.82,1.29,2.57,1.04,5.15.14,7.76-.03.08-.09.14-.1.22-.78,4.41-3.63,7.6-6.57,10.66-1.38,1.43-3.16,2.51-4.88,3.57-1.53.94-3.25,1.56-4.8,2.48-.83.49-1.51,1.02-2.57,1.08-.81.04-1.66.49-2.36.96-1.69,1.12-3.64,1.36-5.54,1.74-1.93.39-4.09.1-5.8.69-2.17.74-4.3.11-6.4.75-1.14.35-2.52-.07-3.78-.17-.47-.04-.99-.32-1.4-.19-1.85.6-3.66,1.34-5.5,1.98-1.71.6-3.43,1.54-5.17,1.6-2.84.1-5.38-.37-7.41-3.27-2.64-3.78-3.98-8-5.85-12.06-1.09-2.36-2.71-4.49-3.8-6.85-1.12-2.42-2.16-4.95-2.71-7.54-.24-1.16-.54-2.24-.85-3.37-.31-1.1-.71-2.31-.26-3.7.35-1.08.74-2.63-.96-3.68-1.18-.73.09-1.79.56-2.67Zm63.67,2.86c-1.01-1.18-1.93-2.06-2.6-3.1-1.44-2.23-1.8-5.06-3.8-7.02-.3-.3-.4-.88-.45-1.35-.14-1.3.09-2.73-.39-3.87-.52-1.25-1.68-2.23-2.56-3.34-.17-.22-.33-.7-.44-.68-1.95.31-1.73-1.49-2.03-2.39-.51-1.54-1.08-2.88-2.21-4.11-.99-1.08-1.55-2.57-2.19-3.93-.21-.45-.32-1.31-.06-1.57,1.28-1.31-.01-2.39-.24-3.51-.1-.48-1.04-.73-1.37-1.24-2.13-3.25-4.24-6.53-6.28-9.84-.48-.78-.63-1.77-1.03-2.61-1.4-2.91-2.87-5.78-4.25-8.69-.75-1.59-1.32-3.27-2.09-4.86-.88-1.82-2.09-3.44-2.03-5.66.03-1.21-.44-2.52-1-3.63-.94-1.87-2.15-3.6-3.18-5.43-.21-.37-.34-1.05-.14-1.34,1.14-1.67-.13-2.72-.94-4.24-.28.65-.54,1.04-.6,1.46-.56,3.66-.91,7.35-1.66,10.97-.77,3.7-.66,7.51-1.97,11.16-1.18,3.29-1.38,6.95-2.67,10.18-1.54,3.83-2.36,7.78-3.16,11.76-.68,3.4-1.02,6.86-1.55,10.28-.18,1.17-.7,2.33-.68,3.49.06,2.64-.73,5.12-1.04,7.68-.38,3.13-.4,6.31-.57,9.47-.06,1.25.03,2.52-.15,3.75-.39,2.59.16,5.03.91,7.46.32,1.05.62,2.12.99,3.15.73,2.01,1.41,4.05,2.28,6,1.31,2.96,3,5.78,4.06,8.82.51,1.48,1.27,2.64,2.08,3.99,1.63-.49,3.17-1.07,4.75-1.42,3.57-.79,7.14-1.56,10.86-1.19,3.76.37,7.48-.87,11.19-.7,2.08.1,3.63-1.47,5.62-1.04,1.84-1.76,4.75-1.7,6.41-3.79.22-.28.69-.47,1.06-.49,1.19-.09,2.07-.5,2.79-1.55.57-.83,1.6-1.34,2.23-2.15.81-1.03,1.44-2.21,2.36-3.66-.1-.66-.17-1.78-.45-2.84-.38-1.42-.85-2.66-2.26-3.68-1.41-1.02-2.17-2.88-1.58-4.72Z" style="stroke-width: 0px;"/>
      <path d="m98.88,672.91c-.08-.53-.17-1.14-.25-1.69.09-.14.11-.25.17-.27,3.06-1.4,2.51-5.41,5.29-7.19,1.33-.85,1.89-2.85,2.91-4.25,1.11-1.52,2.22-3.08,3.57-4.37.77-.74,1.35-1.42,1.7-2.43.73-2.1,1.1-2.42,3.37-4.31.3-.25.38-.8.49-1.23.37-1.57.43-1.64,2.13-2.03.73-2.53,1.71-4.87,4.46-5.87.21-.08.49-.25.55-.44.58-1.92,2.42-2.7,3.61-4.06,1.31-1.5,2.44-3.15,3.78-4.62,1.38-1.51,3.27-2.17,5.26-2.4v-2.36c.87-.44,1.7-.87,2.54-1.29.29-.14.8-.22.84-.41.38-1.81,2.31-2.18,3.2-3.5.57-.85,1.15-1.66,2.19-2.08.43-.17.68-.83.98-1.29.26-.4.36-1.06.7-1.2,2.35-1.02,3.08-3.35,4.37-5.22.31-.44.76-.85,1.24-1.08.8-.39,1.39-.77,1.84-1.68.35-.69,1.53-.97,2.43-1.48.11-.38.27-.9.43-1.43.91,0,1.72-.11,2.49.03.83.15,1.85.29,2.37.83,1.49,1.58,3.15,1.55,4.97.97.4.57.8,1.15,1.3,1.89,1.23-1.09,2.13.37,3.3.5,1.57.16,1.72,1.6,2.05,2.85.18.67.63,1.26.92,1.83-.43.93-.88,1.83-1.27,2.75-1.12,2.62-2.27,5.23-3.3,7.88-1.34,3.44-3,6.73-3.98,10.34-.48,1.78-.58,3.97-2.42,5.23-.17.12-.36.43-.33.61.34,2-1.22,3.33-1.74,5.02-.18.59-.6,1.1-.93,1.63-.21.33-.65.62-.67.94-.07,1.88-.75,3.52-1.77,5.07-.46.71-.8,1.51-1.15,2.29-.6,1.37-1.16,2.76-1.75,4.13-.88,2.03-1.78,4.05-2.65,6.08-.37.87-.68,1.76-1.01,2.65-.14.37-.17.88-.43,1.1-2.2,1.8-1.32,4.49-1.98,6.72-1.07,3.63-1.37,7.45-2.45,11.06-.5,1.67-1.04,3.26-.96,5.04.02.5-.47,1.01-.61,1.54-.19.73-.29,1.49-.4,2.24-.19,1.29-.55,2.6-.5,3.88.09,2.11-.05,4.09-1.26,5.92-.33.51-.4,1.21-.52,1.83-1.11,5.79-4.53,10.22-8.7,14.07-1.4,1.29-3.48,1.79-5.47,2.09-.92.14-1.8.48-2.72.66-.44.08-.92.02-1.37-.04-.46-.05-.95-.33-1.37-.23-5.51,1.3-10.67.15-15.57-2.37-2.51-1.29-4.85-2.91-7.27-4.39-.27-.16-.64-.33-.74-.58-.64-1.7-2.1-2.59-3.5-3.42-2.02-1.2-2.41-3.43-3.64-5.12-.79-1.08-1.4-2.29-2.07-3.46-.35-.61-.9-1.25-.93-1.89-.09-1.88.03-3.78.07-5.66.01-.6.07-1.2.09-1.8.02-.79-.17-1.64.05-2.36,1.11-3.52,2.3-7.01,3.54-10.48.28-.77.93-1.4,1.32-2.14.93-1.81,1.7-3.72,2.76-5.45.5-.83,1.51-1.34,2.4-2.09Zm54.08-45.02c-3.05,2.52-5.85,5.21-8.69,7.83-4.19,3.85-7.95,8.17-11.79,12.39-1.26,1.38-2.2,3.05-3.28,4.59-1.35,1.94-2.68,3.89-4.03,5.83-.59.85-1.16,1.71-1.8,2.51-1.47,1.82-2.08,4.35-4.52,5.39-.33.14-.47.75-.67,1.16-.25.49-.4,1.06-.74,1.47-1.3,1.58-2.27,3.42-3.3,5.12-1.87,3.1-4.52,5.7-5.86,9.17-.48,1.25-1.86,2.14-1.74,3.74.02.26-.23.62-.46.81-2.04,1.7-1.58,4.49-2.86,6.61-.95,1.56-.36,3.99-.75,5.98-.31,1.56.18,2.67,1.19,3.66,1.74,1.69,3.44,3.42,4.78,5.45.18.27.47.76.56.73,1.63-.61,2.08,1.01,3.04,1.61,1.06.66,2.02,1.17,3.36,1.35,1.36.19,2.47.15,3.8-.18,1.95-.49,4.35.61,5.69-1.86.12-.21.76-.11,1.14-.22,2.17-.62,2.93-1.69,3.25-4,.29-2.07.02-4.29,1.44-6.12.21-.28.16-.77.21-1.16.43-3.24.83-6.47,1.29-9.71.12-.85.34-1.7.6-2.53.34-1.1,1.24-2.28,1.05-3.26-.54-2.8.91-5.18,1.35-7.74.28-1.59.85-3.21,1.07-4.89.17-1.3.78-2.54.96-3.84.48-3.39,2.86-6.16,3.02-9.65.02-.35.4-.68.61-1.01.58-.92,2.01-1.48,1.17-3.04-.13-.23.67-.96,1.04-1.46.32-.43.99-.95.9-1.27-.6-2.2,1.15-3.57,1.89-5.2,1.26-2.78,2.43-5.57,3.43-8.45.62-1.79,1.25-3.64,2.28-5.2.96-1.46,1.25-2.97,1.36-4.65Z" style="stroke-width: 0px;"/>
    </g>
  </g>
</svg>