<?xml version="1.0" encoding="UTF-8"?>
<svg id="Layer_2" data-name="Layer 2" xmlns="http://www.w3.org/2000/svg" viewBox="0 0 757.71 1041.18">
  <g id="Layer_1-2" data-name="Layer 1">
    <path d="m748.32,395.46c0,6.84-1.61,16.28.31,24.95,4.91,22.14,1.71,44.5,3.6,66.66.46,5.37,2.88,10.62,3.07,15.97.34,9.42.27,18.95-.72,28.31-2.01,19.06.66,37.81,2.58,56.64.34,3.31.56,6.65.55,9.97-.05,11.51-8.06,17.16-18.82,13.57-1.28-.43-3.64-.2-4.33.66-3.38,4.25-6.33,8.84-9.5,13.27-1.53,2.14-3.3,4.11-4.79,6.28-6.06,8.83-11.7,17.97-18.16,26.5-11.5,15.18-23.16,30.26-35.41,44.84-5.48,6.52-13.25,11.12-18.69,17.67-6.51,7.83-11.51,16.92-17.42,25.27-6.57,9.28-13.23,18.51-20.21,27.48-7.4,9.52-15.27,18.66-22.83,28.06-7.25,9.01-14,18.44-21.67,27.07-4.9,5.51-11.32,9.64-16.62,14.84-10.03,9.82-20.24,19.54-29.48,30.08-12.43,14.17-26.83,26.12-40.84,38.54-6.17,5.48-12.49,10.8-18.54,16.41-10.89,10.12-21.45,20.61-32.49,30.55-6.14,5.53-12.75,10.64-19.6,15.26-7.34,4.95-15.09,9.36-22.91,13.52-7.34,3.91-15.12,6.96-22.49,10.82-5.7,2.98-11.02,6.68-16.57,9.96-9.21,5.44-18.44,10.84-27.72,16.15-4.31,2.47-8.75,4.7-13.13,7.05-.58.31-1.09.9-1.69,1.01-9.37,1.83-18.73,3.67-28.13,5.38-5.83,1.06-11.68,2.12-17.57,2.74-3.87.4-7.84.23-11.74-.07-8.92-.68-17.97-.9-26.7-2.62-8.78-1.72-17.51-4.38-25.8-7.77-18.73-7.65-32.51-21.84-45.31-36.87-7.14-8.39-13.6-17.43-19.78-26.56-2.91-4.29-4.34-9.56-6.64-14.29-2.27-4.68-4.86-9.2-7.15-13.86-1.89-3.85-3.48-7.86-5.34-11.73-6.41-13.34-13-26.6-19.29-40-4.62-9.83-9-19.77-13.29-29.75-4.32-10.05-8.62-20.12-12.47-30.36-2.3-6.1-3.51-12.6-5.61-18.79-1.35-3.99-3.53-7.69-5.13-11.6-3.83-9.33-8.15-18.52-11.12-28.13-3.2-10.38-6.62-20.75-7.07-31.9-.46-11.43-2.05-22.81-3.16-34.21-.06-.66-.16-1.34-.36-1.97-2.25-7.01-4.52-14.01-6.79-21.02-.36-1.11-.85-2.18-1.09-3.32-2.05-9.89-3.37-19.99-6.28-29.61-2.34-7.75-6.31-15.06-10.09-22.28-2.13-4.06-2.92-8.02-.88-11.89,3.43-6.51,3.29-13.34,1.86-19.99-1.64-7.58-4.85-14.82-6.63-22.38-2.2-9.37-4.09-18.94,1.03-28.14.56-1.01,1.03-2.11,1.31-3.23,1.47-5.87,3.3-11.7,4.21-17.66,2.12-13.87,3.7-27.82,5.7-41.71.43-3.02,1.66-5.92,2.56-8.87.19-.63.67-1.17.84-1.8,1.87-6.96,3.65-13.95,5.58-20.9,2.42-8.73,4.97-17.42,7.44-26.13.27-.96.49-1.93.68-2.91,1.92-9.56,3.48-19.22,5.89-28.66,1.49-5.83,4.28-11.32,6.51-16.95.24-.62.7-1.16.87-1.79,1.88-7.3,3.48-14.69,5.65-21.91,2.21-7.36,4.92-14.57,7.52-21.81,1.77-4.91,3.65-9.79,5.67-14.6,1.6-3.81,3.28-7.61,5.27-11.23,7.05-12.77,14.38-25.38,21.35-38.19,4.94-9.08,9.39-18.42,14.25-27.55,1.14-2.14,3.33-3.72,4.53-5.84,3.17-5.65,5.92-11.52,9.08-17.18,2.31-4.13,5.09-7.99,7.49-12.06,3.17-5.37,5.92-11.01,9.33-16.23,5.03-7.7,10.52-15.1,15.71-22.7,2.56-3.75,5-7.59,7.27-11.52,3.41-5.88,6.51-11.93,9.96-17.78,3.11-5.26,6.69-10.25,9.76-15.53,2.83-4.88,5.2-10.02,7.9-14.98,2.8-5.14,5.64-10.27,8.65-15.28,5.78-9.62,10.96-19.72,17.72-28.59,11.65-15.28,22.88-31.12,37.98-43.31,9.59-7.74,20.23-14.09,33.07-14.89,10.58-.66,19.41,4.8,23.87,14.43,4.26,9.21,9.01,18.03,18.58,22.88,2.18,1.11,4.62,2.35,6.96,2.38,6.14.08,10.62,3.22,15,6.86.63.53,1.27,1.25,2.01,1.42,7.89,1.79,15.74,3.94,23.73,5.07,8.22,1.16,16.58,1.85,24.87,1.76,10.3-.12,20.83-.14,30.79-2.33,6.67-1.47,12.74-6.32,18.69-10.23,5.92-3.89,11.23-8.69,17.06-12.73,3.22-2.23,6.78-4.31,10.49-5.46,17.3-5.35,34.55-10.1,52.91-3.72,16.36,5.68,31.57,13.28,45.97,22.85,7.55,5.02,15.92,8.77,23.61,13.61,8.37,5.27,16.27,11.29,24.55,16.71,14.36,9.39,24.7,22.49,33.63,36.72,4.28,6.82,7.2,14.48,10.73,21.77.29.6.35,1.38.78,1.83,9.15,9.7,11.35,22.91,17.16,34.29,3.7,7.24,5.92,15.21,9.24,22.66,3.91,8.78,8.35,17.32,12.44,26.02,4.97,10.56,9.2,21.53,14.91,31.67,5.29,9.39,6.13,19.63,8.85,29.58,3.56,13,2.55,26.05,4.15,39,1.37,11.11,4.32,22.04,6.61,33.03.24,1.13.88,2.19,1.06,3.33,2.12,13.23,4.2,26.47,6.65,42.04Zm-22.37,153.64c.69-.01,1.39-.02,2.08-.03.47-1.99,1.21-3.95,1.37-5.96.33-4.15.21-8.33.53-12.49.47-6.27.97-12.55,1.81-18.77.71-5.23,1.95-10.4,2.94-15.59.95-4.98,1.99-9.95,2.78-14.96.41-2.59.85-5.33.43-7.85-.8-4.82-2.84-9.48-3.23-14.3-.86-10.52.11-21.01-4.04-31.39-2.4-5.99-1.98-13.1-4.09-19.72-2.98-9.35-3.85-19.4-5.22-29.21-.83-5.92-.62-11.98-1.35-17.92-1.33-10.85-3.01-21.65-4.54-32.47-.23-1.63-.39-3.28-.71-4.89-.94-4.83-2.04-9.64-2.86-14.49-.5-2.94-.35-5.99-.91-8.91-2.59-13.52-5.43-27-7.96-40.53-1.77-9.46-3.2-18.99-4.79-28.48-.11-.65-.32-1.3-.6-1.89-3.06-6.4-5.7-13.05-9.31-19.13-6.74-11.35-14.34-22.19-21.01-33.58-4.63-7.91-11.55-14.16-14.99-23.03-2.27-5.85-7.14-10.66-10.67-16.06-1.35-2.07-1.74-4.89-3.35-6.64-6.18-6.72-12.29-13.57-19.13-19.57-10.34-9.06-21.1-17.66-31.99-26.07-10.75-8.3-21.77-16.26-32.91-24.02-3.59-2.5-8.56-3.18-11.85-5.93-8.65-7.24-19.2-7.42-29.37-9.15-2.43-.41-5.02-.63-7.42-.25-13.22,2.09-26.47,4.02-39.56,6.76-6.99,1.46-13.72,4.26-20.45,6.79-3.05,1.14-5.79,3.1-8.68,4.67-4.12,2.23-8.03,5.6-12.41,6.4-8.46,1.54-17.19,2.22-25.81,2.18-13.14-.07-26.28-.97-39.41-1.69-3.12-.17-6.22-.91-9.29-1.58-3.99-.87-7.96-1.88-11.92-2.9-6.79-1.75-13.56-3.54-20.33-5.35-.44-.12-.76-.66-1.2-.86-5.29-2.38-10.44-5.21-15.94-6.94-3.87-1.22-5.48-3.1-5.74-6.93-.37-5.46-.83-10.94-1.64-16.35-.91-6.09-7.7-9.76-12.68-7.05-4.05,2.2-8.29,4.19-11.95,6.93-11.51,8.62-23.12,17.16-34.03,26.51-5.91,5.07-10.71,11.52-15.57,17.7-5.9,7.5-11.53,15.22-16.89,23.11-4.79,7.06-9.07,14.47-13.56,21.73-2.79,4.51-5.68,8.95-8.29,13.57-2.72,4.81-5,9.87-7.74,14.68-3.1,5.44-6.53,10.69-9.73,16.07-5.55,9.32-11.04,18.68-16.54,28.04-3.93,6.68-7.81,13.39-11.74,20.07-3.19,5.42-6.25,10.93-9.69,16.2-3.66,5.61-7.86,10.88-11.53,16.48-4.92,7.51-9.51,15.24-14.36,22.8-1.23,1.92-3.25,3.37-4.3,5.35-2.22,4.19-3.85,8.69-6.07,12.87-3.52,6.65-7.31,13.15-7.64,20.96-.03.81-.34,1.62-.62,2.4-2.64,7.55-5.22,15.12-7.99,22.62-2.11,5.72-4.53,11.32-6.71,17.01-2.3,6.01-4.82,11.96-6.61,18.12-2.24,7.69-3.69,15.6-5.75,23.34-2.41,9.01-5.61,17.84-7.53,26.95-1.73,8.18-1.75,16.57-4.24,24.81-2.01,6.63-1.02,14.21-1.08,21.37-.01,1.39,1.29,2.79,1.98,4.18,1.22-.88,2.73-1.54,3.61-2.69,6.45-8.44,9.37-18.53,12.23-28.46,3.1-10.81,11.16-18.09,16.99-26.98,4.46-6.8,7.57-14.53,10.91-22.01,2.47-5.53,3.88-11.55,6.62-16.92,3.13-6.13,7.37-11.67,10.82-17.65,4.29-7.42,8.05-15.15,12.41-22.53,7.9-13.35,15.95-26.6,24.17-39.75,7-11.2,14.06-22.38,21.61-33.2,4.34-6.22,9.86-11.61,14.57-17.58,9.44-11.97,18.14-24.57,28.17-36.01,11.14-12.71,23.4-24.45,35.21-36.58,14.62-15.03,32.9-24.22,52.15-31.41,6.91-2.59,13.7-6.95,21.8-5.56,1,.17,2.15-.8,3.27-1.09,4.12-1.05,8.2-2.38,12.39-2.97,5.1-.71,10.29-1.16,15.43-1.04,10.97.25,22.06.09,32.84,1.74,8.01,1.23,15.54,5.37,23.45,7.61,9.21,2.6,17.7,6.43,25.64,11.77,5.89,3.97,12.21,7.27,18.16,11.16,7.47,4.88,15.1,9.61,22.01,15.22,9.37,7.6,17.99,16.12,27.18,23.95,12.88,10.97,26.01,21.66,39,32.5,3.67,3.07,6.94,6.72,10.92,9.31,9.05,5.89,16.17,13.56,22.51,22.15,3.01,4.08,6.42,7.85,9.53,11.85,2.82,3.64,5.45,7.43,8.2,11.13,1.96,2.65,4.06,5.2,5.95,7.9,5.82,8.31,8.93,18.32,16.7,25.51,3.05,2.82,4.91,7.01,7.04,10.73,1.56,2.71,2.45,5.81,4.03,8.51,4.33,7.4,8.94,14.63,13.27,22.03,2,3.42,3.67,7.04,5.42,10.59,3.9,7.92,7.82,15.83,11.63,23.78,2.55,5.31,4.43,11.01,7.49,16,5.41,8.85,11.41,17.34,17.28,25.9,4.47,6.52,9.23,12.85,13.61,19.43,1.71,2.57,2.64,5.64,4.05,8.42,3.71,7.32,7.82,14.46,11.15,21.95,3.06,6.9,5.29,14.17,7.93,21.26,1.85,4.96,3.83,9.86,5.64,14.83,3.58,9.82,7.09,19.67,10.63,29.51ZM57.23,679.86c1.22,5.93,4.57,11.52,8.81,12.34,9.25,1.79,18.61,3.06,27.86,4.87,7.59,1.48,15.09,3.42,22.62,5.19.47.11.89.44,1.32.7,6.4,3.97,13.45,4.19,20.68,3.75,12.04-.72,23.98-4.02,35.75,3.32,6.47,4.03,11.69,8.29,14.84,15.04,2,4.29,4.73,8.6,9.55,8.43,9.19-.32,18.12.46,26.98,2.77.31.08.67,0,1-.03,11.49-1.36,21.73,3.62,32.38,6.45,4.38,1.16,8.63,3.98,12.94,3.97,7.86-.01,16.14-.32,23.45-2.82,7.92-2.72,15.05-7.37,23.97-6.93,9.64.48,19.32.22,28.96.75,3.37.18,6.64,1.83,9.99,2.64,7.67,1.87,15.4,5.17,23.06,5.06,9.1-.13,18.77-1.81,27.08-5.4,11.9-5.13,23.52-2.66,35.35-2.21.78.03,1.69.41,2.29.92,4.35,3.76,9.51,3.84,14.67,2.94,8.31-1.45,16.55-3.29,24.81-4.98.48-.1.91-.42,1.39-.56,8.33-2.45,16.52-6,25.03-7.07,13.84-1.75,27.88-1.99,41.85-2.6,4.06-.18,8.16.77,12.25.86,8.22.17,15.98,6.22,24.63,1.48,4.46-2.44,9.5-3.83,14.12-6.02,3.37-1.59,3.63-5.16,1.47-8.24-2.65-3.77-5.18-7.69-7.28-11.79-3.74-7.31-7.16-14.8-10.65-22.24-3.63-7.76-8.15-15.28-10.55-23.42-4.28-14.51-12.93-26.15-22.65-36.97-6.72-7.48-13.87-14.61-22.26-20.74-10.47-7.64-19.2-17.7-28.52-26.87-10.93-10.76-24.06-16.08-39.29-16.67-2.29-.09-4.6-.63-6.84-1.21-15.27-3.91-30.76-2.45-46.21-1.91-.8.03-1.59.47-2.37.76-10.81,4.03-21.64,8.03-32.43,12.12-4.13,1.57-8.2,3.28-12.25,5.05-9.99,4.36-19.99,8.64-28.07,16.36-7.67,7.32-15.46,14.54-23.49,21.45-8.55,7.36-17.69,8.47-24.41,2.99-4.63-3.77-8.94-7.99-12.99-12.37-12.5-13.52-24.76-27.26-37.23-40.81-4.37-4.75-10-7.07-16.48-6.84-6.49.24-12.97.65-19.44,1.18-1.95.16-3.92.79-5.75,1.53-5.17,2.11-10.11,4.9-15.42,6.51-10.85,3.29-19.92,9.89-28.58,16.45-11.96,9.06-24.47,17.67-34.07,29.65-4.84,6.04-10.98,11.01-16.27,16.71-6.47,6.99-12.65,14.24-18.98,21.36-.43.48-1.11.73-1.61,1.16-2.97,2.52-6.27,4.76-8.81,7.66-3.25,3.72-6.16,7.82-8.73,12.04-2.78,4.57-5.01,9.47-7.47,14.23Zm362.34-218.62l1.41.22c-2.52,10.21-3.97,20.87-7.95,30.47-2.35,5.67-3,10.99-3.51,16.71-.31,3.45-.42,7.14-1.75,10.23-2.76,6.43-2.53,7.05,4.72,7.13,9.99.11,20.27-1.1,29.89.88,13.4,2.75,27.45,2.64,40.24,8.36,5.54,2.48,11.61,4.03,16.73,7.17,9.15,5.62,18.11,11.68,26.52,18.36,11.41,9.06,22.71,18.38,33.16,28.51,10.54,10.21,20.44,21.14,27.7,34.18,4.39,7.88,10.51,14.78,12.94,23.77.44,1.64,1.97,3.01,3.1,4.42,1.75,2.21,3.83,4.2,5.34,6.55,4.12,6.42,8.21,12.87,11.95,19.52,3.32,5.9,6.66,11.88,9.03,18.19,2.52,6.69,3.7,7.51,8.8,2.35,9.81-9.93,19.84-19.71,28.85-30.34,11.94-14.09,22.17-29.48,30.7-45.93,1.67-3.22,3.54-6.33,5.44-9.42,5.31-8.62,9-18.54,19.14-23.3,1.07-.5,2.11-3.49,1.58-4.54-4.01-8.07-8.57-15.86-12.61-23.91-1.91-3.82-2.48-8.35-4.65-11.98-4.37-7.33-8.47-14.61-8.54-23.46,0-.95-.55-1.89-.84-2.84-1.13-3.69-2.32-7.36-3.36-11.07-.54-1.91-.6-3.97-1.27-5.82-3.91-10.67-7.61-21.44-12.06-31.89-2.83-6.64-6.36-13.11-10.43-19.07-4.35-6.38-9.94-11.9-14.58-18.11-5.82-7.8-11.29-15.86-16.75-23.91-4.6-6.78-9.02-13.7-13.44-20.6-5.59-8.72-11.05-17.53-16.65-26.24-4.22-6.55-8.69-12.93-12.84-19.52-3-4.77-4.65-4.97-10.14-3.64-6.68,1.61-13.66,3.05-20.45,2.81-5.73-.2-11.28-3.48-17.06-4.32-6.85-.99-12.56-3.71-17.83-7.96-3.54-2.85-6.02-2.18-7.65,2-3.76,9.64-12.09,14.91-20.95,16.59-12.06,2.29-24.69,2.11-37.07,1.97-6.35-.07-12.63-2.94-19.03-3.44-6.76-.53-11.7-4.23-16.9-7.61-3.59-2.34-6.46-2.29-8.87,1.34-4.18,6.32-9.8,9.91-17.43,10.95-7.18.98-8.33,3.34-6.02,10.28.46,1.39,1.44,2.6,2.04,3.96,2.37,5.41,5.08,10.72,6.92,16.32,2.22,6.78,3.69,13.81,5.49,20.73.08.32.29.6.43.9,4.34,9.81,8.59,19.64,8.5,30.69-.06,7.78-.01,15.56-.01,23.35Zm-149.07,550.18c.18.59.35,1.17.53,1.76,4.15-1.39,8.3-2.78,12.44-4.19.94-.32,1.82-.92,2.78-1.06,6.47-.98,12.82-1.17,19.18-4.23,6.5-3.14,14.41-3.27,21.62-5.06,6.04-1.5,12.01-3.34,17.91-5.33,3.36-1.13,6.76-2.49,9.69-4.44,6.01-3.99,11.93-8.18,17.48-12.77,10.45-8.66,20.52-17.79,30.93-26.5,9.13-7.65,18.23-15.39,27.87-22.37,10.8-7.83,22.58-14.32,33.19-22.38,8.26-6.27,15.13-14.33,23.05-21.08,12.31-10.49,25.01-20.53,37.51-30.8,2.41-1.98,5.05-3.85,6.97-6.25,5.89-7.36,11.33-15.1,17.24-22.44,8.61-10.7,17.53-21.16,26.24-31.79,10.24-12.5,20.46-25.03,30.51-37.68,1.03-1.3.9-3.52,1.3-5.31-1.54-.08-3.15-.5-4.61-.19-8.24,1.75-16.47,3.56-24.64,5.58-7.29,1.8-14.5,3.89-21.74,5.86-.16.04-.29.17-.44.24-7.37,3.66-14.75,7.31-22.11,10.98-3.37,1.68-6.66,3.55-10.11,5.06-5.06,2.22-10.34,3.95-15.32,6.33-11.57,5.54-22.97,11.44-34.54,16.99-4.41,2.11-9.16,3.5-13.64,5.49-5.07,2.25-9.86,5.19-15.04,7.14-11.89,4.47-23.95,8.52-35.93,12.75-4.83,1.71-9.54,3.91-14.49,5.09-9.11,2.18-18.37,3.78-27.56,5.63-.49.1-1.03.15-1.44.4-6.47,4.04-13.75,3.27-20.87,3.66-3.09.17-6.16,1.11-9.21,1.84-3.14.75-6.21,1.81-9.36,2.48-3.53.75-7.14,1.09-10.66,1.86-3.18.7-6.24,1.96-9.42,2.56-3.58.68-8.02-.25-10.69,1.57-4.6,3.13-9.35,2.85-14.25,3.28-5.63.49-11.23,1.27-16.86,1.75-19.5,1.69-39.03,5.26-58.39-1.16-5.75-1.9-11.65-3.35-17.34-5.39-4.8-1.72-9.39-4.04-14.1-6.04-8.61-3.65-16.94-8.57-25.93-10.61-16.19-3.67-29.85-11.69-42.27-21.86-9.54-7.81-19.44-15.61-25.49-26.91-.91-1.71-2.59-3.01-3.95-4.47-1.96-2.09-3.29-1.09-3.96,1.06-.43,1.39-.63,3.02-.38,4.44,1.83,10.26,3.78,20.5,5.77,30.73.22,1.11.95,2.12,1.4,3.2,2,4.73,4.03,9.44,5.95,14.2,2.57,6.37,5.03,12.79,7.57,19.18,2.19,5.5,4.41,10.99,6.64,16.48.43,1.06.81,2.21,1.49,3.1,9.08,11.85,13.77,25.96,20.2,39.17,2.44,5.02,4.25,10.39,7.05,15.19,3.24,5.55,7.42,10.55,10.91,15.97,11.84,18.4,26.52,34.43,42.04,49.64,6.41,6.28,13.84,12.25,21.92,15.9,9.21,4.16,19.54,6.55,29.62,7.88,8.05,1.06,16.48-.37,24.7-1.19,4.39-.44,8.68-1.94,13.02-2.96ZM28.4,586.48c.3,1.49.43,2.31.64,3.11,2.5,9.56,1.96,19.63,6.52,28.96,3.27,6.7,4.04,14.61,6.12,21.93,1.92,6.75,4.78,7.68,9.74,3.41,1.38-1.19,2.81-2.34,4.11-3.62,6.04-5.88,11.94-11.9,18.09-17.65,3.18-2.97,7.11-5.17,10.11-8.29,4.35-4.51,8.05-9.64,12.27-14.29,2.2-2.42,5.13-4.18,7.38-6.57,3.86-4.09,6.81-9.31,11.25-12.51,15.29-11,29.65-23.45,46.96-31.46,3.39-1.57,6.48-3.79,9.9-5.27,5.42-2.35,11-4.31,16.51-6.45,6.21-2.41,12.29-5.24,18.66-7.09,3.68-1.07,5.25-2.56,5.57-6.34.25-3,.55-6.82,2.42-8.72,6.64-6.77,6.92-14.72,5.73-23.16-.3-2.11-1.51-4.12-1.68-6.23-1.26-15.59-3.41-31.29.36-46.72,1.53-6.26,1.56-13.1,6.32-18.61,3.64-4.2,6.27-9.34,8.94-14.29,3.65-6.75,6.47-13.99,10.47-20.52,5.29-8.65,5.02-10.01-4.97-12.3-1.46-.33-2.94-.6-4.43-.75-8.03-.79-16.05-.6-23.66-4.67-6.59-3.53-13.31-6.42-18.55-12.11-1.39-1.51-5.53-2.17-7.42-1.24-8.43,4.15-16.45,9.13-24.73,13.6-3.58,1.93-7.94,2.7-11.07,5.11-6.3,4.85-12.54,8.66-20.91,6.47-1.01-.26-2.37.18-3.37.69-8.09,4.1-16.16,8.23-24.17,12.49-2.17,1.15-4.48,2.41-6.07,4.21-7.88,8.94-10.87,20.26-13.91,31.3-1.68,6.11-4.34,11.29-8.27,15.94-3.91,4.62-8.31,8.83-12.16,13.49-1.73,2.1-2.59,4.91-3.9,7.36-2.7,5.01-5.64,9.89-8.11,15.01-2.63,5.46-5.08,11.04-7.15,16.73-2.13,5.87-4.95,11.88-5.29,17.94-.86,15.44-.61,30.95-.6,46.43,0,6.61-.38,12.94-4.58,18.51-1.46,1.94-2.22,4.39-3.08,6.16Zm247.81,178.91c1.36,4.08,3.16,7.13,3.26,10.24.24,7.26.09,14.6-.7,21.81-.58,5.29-5.67,9.83-9.6,9.94-6.2.17-11.03-3.51-11.58-9.9-.66-7.6-.76-15.28-.57-22.91.15-5.96-2.17-9.43-8.13-10.29-2.97-.43-5.98-.53-8.93-1.05-11.23-2.01-22.55-2.5-33.67-.04-15.04,3.33-28.47-5.05-35.57-17.62-3.14-5.56-5.53-6.73-11.49-4.8-10.04,3.26-14.05,1.7-18.35-7.77-1.48-3.27-3.51-4.96-7-5.46-9.69-1.39-19.36-2.87-29.02-4.46-4.08-.67-8.07-1.85-12.15-2.53-5.25-.87-10.52-1.64-15.82-2.12-2.83-.26-4.03,1.48-2.94,4.19,2.26,5.62,4.3,11.37,7.06,16.73,5.13,9.94,9.87,20.13,17.71,28.45,5.53,5.87,9.97,12.98,16.15,17.98,11.69,9.47,24.14,18.03,36.56,26.55,7.28,4.99,14.38,10.68,23.82,11.37,1.24.09,2.36,1.22,3.62,1.58,2.01.58,4.08,1.11,6.16,1.3,2.8.25,5.7-.2,8.44.28,9.42,1.66,18.76,3.8,28.19,5.37,9.8,1.64,19.7,4.08,29.53,3.96,23.74-.3,47.46-1.77,71.18-3.03,11.13-.59,21.59-3.76,31.47-9.11,4.44-2.4,9.36-4.1,14.24-5.47,7.59-2.12,15.34-3.68,23.01-5.51.64-.15,1.19-.62,1.82-.81,3.29-.96,6.58-1.94,9.9-2.8,2.09-.54,4.28-.7,6.33-1.35,7.36-2.31,14.66-4.81,22.01-7.14,5.45-1.72,10.94-3.31,16.43-4.92,3.74-1.1,4.27-3.57,2.46-6.51-4.84-7.84-3.17-15.62-.23-23.5-6.47-4.79-17.67-5.35-24.7-1.27-3.13,1.81-6.2,3.88-9.56,5.09-7.38,2.65-14.84,5.22-22.45,7.04-3.46.83-5.2,1.68-5.67,5.44-.3,2.39-1.52,5.48-3.36,6.7-5.35,3.55-11.54,4.64-17.58,1.78-5.13-2.43-6.48-7.36-6.33-12.64.09-3.14-1.23-4.8-4.04-6.07-10.81-4.89-21.68-8.77-33.95-8.02-6.89.42-14.57.76-20.68-1.79-9.88-4.11-17.25.69-25.3,3.08Zm3.6-340.7c1.45-10.18-2.59-20.94-8.63-31.17-2.28-3.86-5.82-4.54-8.96-1.2-3.13,3.33-5.93,7.06-8.41,10.92-4.06,6.33-6.98,12.92-6.51,20.95.38,6.57-.62,13.25-1.39,19.83-.67,5.75-2.01,11.41-2.76,17.15-.79,6.07-.31,12.45-2,18.22-3.02,10.23-1.76,20.41-1.37,30.63.12,3.19.89,6.37,1.57,9.51,1.04,4.73,1.58,8.99,6.85,12.3,8.04,5.04,15.44,11.53,21.93,18.5,9.35,10.05,17.6,21.12,26.42,31.67,3.22,3.85,6.64,3.54,9.85-.39,2.31-2.83,4.61-5.72,7.3-8.17,11.13-10.17,22.49-19.78,36.46-26.34,10.45-4.9,20.62-10.11,31.94-12.62,4.25-.94,6.1-3.6,6.03-7.9-.04-2.97-.75-6.47.53-8.82,3.64-6.69,3.3-13.8,3.76-20.92.27-4.13.7-8.27,1.29-12.37.82-5.67,2.75-11.33,2.62-16.95-.22-9.43-1.8-18.83-2.57-28.26-.19-2.4.68-4.86.8-7.3.29-5.85,1.39-11.89.36-17.53-1.13-6.14-5.49-11.74-6.28-17.86-1.12-8.66-6.32-14.87-10.53-21.61-3.31-5.29-7.98-7.55-11.54-5.33-4.01,2.5-7.01,5.84-8.01,10.85-1.12,5.67-2.51,11.33-4.35,16.8-4.65,13.82-4.4,28.21-4.56,42.41-.11,9.39,3.08,18.81,3.13,28.22.04,8.29-.18,17.68-3.9,24.66-7.14,13.37-20.52,19.69-35.05,23.07-1.73.4-3.95.75-5.39.01-5.82-2.98-12.32-4.95-16.36-10.77-7.7-11.09-11.43-23.61-12.13-36.8-.74-13.76-.16-27.59-.16-43.39Zm62.92-286.42c-.07.19-.13.38-.2.57-2.49.2-5.4-.37-7.39.74-8.16,4.52-17.73,2.65-26.27,6.96-7.71,3.89-15.5,7.29-22.23,12.81-2.43,1.99-5.15,3.64-7.76,5.4-5.75,3.88-11.73,7.46-17.23,11.66-8.81,6.73-17.43,13.73-25.92,20.86-8.03,6.74-17.34,12.29-22.03,22.33-.45.96-1.1,2.7-.75,3,.87.73,2.33,1.25,3.43,1.08,1.4-.21,2.65-1.27,4.02-1.83,9.01-3.64,17.9-7.66,27.11-10.71,7.58-2.51,15.56-3.85,23.34-5.75.79-.19,1.51-.7,2.26-1.06,8.16-3.98,17.03-3.38,24.76-.6,14.03,5.05,24.28,15.25,31.13,28.65,2.25,4.4,4.26,4.94,8.78,2.43,3.48-1.93,6.86-4.05,10.44-5.78,9.07-4.37,18.13-8.8,27.38-12.75,5.58-2.38,11.18-5.31,17.67-4.27,4.55.73,9.08,1.74,13.66,2.04,11.96.8,23.43,2.11,33.25,10.52,6.06,5.19,13.42,8.96,20.45,12.89,3.59,2.01,7.44,4.55,11.98,1.02,4.94-3.84,10.4-7.01,15.42-10.75,1.23-.92,2.28-2.92,2.26-4.41-.02-1.18-1.63-2.58-2.85-3.42-1.46-1.01-3.43-1.29-4.9-2.3-11.7-8.06-23.39-16.14-34.98-24.36-12.42-8.81-24.75-17.75-37.08-26.68-10.72-7.76-19.95-18.05-34.11-19.91-.16-.02-.36-.08-.45-.2-3.35-4.06-8.03-3.19-12.46-3.53-2.95-.23-5.89-.9-8.79-1.57-4-.93-7.96-2.04-11.93-3.08Zm55.31,99.06l-.39-1.47c-7.96,2.31-16.24,3.87-23.79,7.12-10.34,4.45-19.99,10.24-28.43,18.05-5.25,4.86-11.8,8.23-19.33,8.23-4.63,0-4.91,1.91-3.45,5.61,3.82,9.68,6.82,19.74,11.33,29.08,4.16,8.62,9.61,16.66,14.96,24.63,3.81,5.68,10.24,6.33,16.52,7.67,9.61,2.05,18.14-.94,25.62-5.56,9.03-5.58,14.13-14.57,14.76-25.61.11-1.97.94-3.89,1.14-5.86.32-3.2.91-6.5.44-9.62-1.12-7.43-3.33-14.92,2.11-21.55,4.4-5.37,11.71-9.13,17.22-5.18,7.27,5.21,11.97,12.19,13.75,20.57,2.23,10.48,3.78,21.2,4.41,31.88.33,5.57,2.57,8.71,6.92,10.88,2.17,1.08,4.75,1.56,7.2,1.78,9.4.87,18.81,1.58,28.23,2.25,5.07.36,11.87-2.97,12.53-6.2,1.87-9.07,3.22-18.27,5.5-27.24,1.91-7.56,3.04-15.59,10.11-20.94,5.14-3.89,11.54-5.09,17.73-2.17,5.53,2.61,7.95,7.28,7.6,14.42-.38,7.65-.63,15.3-1.01,22.95-.34,6.75,4.79,8.58,9.56,10.45,4.58,1.79,8.75.93,12.22-2.96,1.36-1.53,3.2-3.01,5.11-3.6,6.48-1.99,7.62-5.11,3.47-10.74-3.74-5.06-7.72-9.96-11.24-15.18-9.05-13.42-19.73-25.33-31.99-35.88-2.98-2.57-5.78-2.62-9.12-.88-2.3,1.2-4.87,2.81-7.28,2.73-9.05-.29-14.68,4.84-20.12,11.04-6.17,7.03-19.97,13.77-29.69,7.69-7.03-4.4-12.87-10.74-19.11-16.36-12.43-11.19-25.54-20.85-43.51-20.04Zm-119.33,118.15c.1-.45.21-.9.31-1.35,8.55-.24,13.67-1.99,19.65-7.67,1.69-1.61,3.23-4.4,3.2-6.63-.15-11.63-.65-23.26-1.38-34.86-.71-11.26-1.87-22.5-2.77-33.75-.41-5.09.62-9.3,5.5-12.39,4.61-2.92,4.65-5.42,1.58-10.05-2.84-4.28-5.64-8.59-8.58-12.81-3.87-5.56-8.86-8.57-16.04-8.05-7.94.58-15.56,1.67-23.36,3.84-8.92,2.49-16.57,6.04-23.27,12.24-2.91,2.69-6.56,4.61-9.26,7.46-3.11,3.27-6.48,6.82-8.04,10.9-2.57,6.7-7.01,10.22-13.66,11.55-5.66,1.13-9.99-.76-13.38-5.54-.79-1.12-3.63-2.01-4.67-1.45-1.79.98-3.79,3.07-4.04,4.91-.21,1.52,1.62,4.05,3.21,4.94,6.96,3.88,9.82,9.66,10.16,17.47.17,3.81,1.8,7.63,3.14,11.31,1.53,4.17,3.53,8.16,5.23,12.28,5,12.12,12.78,21.08,26.21,24.17,5.65,1.3,11.09,3.5,16.71,4.99,11.15,2.94,22.36,5.67,33.54,8.49Zm26.41,95.17c-.22.02-.43.04-.65.06.24,1.3.43,2.62.72,3.91,1.84,8.15,3.57,16.34,5.61,24.44,1.08,4.28,2.5,8.52,4.28,12.56.42.96,3.26,1.87,4.34,1.38,11.67-5.24,16.87-18.67,12.54-30.92-1.31-3.71-2.41-7.7-2.51-11.59-.3-12.13-.72-24.32.16-36.4.73-9.97,2.77-19.93,5.16-29.66,1.79-7.28,5.07-14.19,7.68-21.26,2.03-5.48,1.24-6.97-4.22-8.86-1.83-.63-3.56-1.7-5.19-2.78-4.32-2.85-5.8-2.07-9.52,1.49-4.07,3.89-8.78,7.48-13.84,9.89-7.38,3.51-15.37,5.72-22.95,8.86-.98.4-1.95,3.87-1.36,4.54,8.73,9.91,12.88,22.13,15.44,34.45,2.71,13.03,2.97,26.57,4.3,39.88Zm-172.12-89.09c.28-.09.95-.2,1.51-.51,11.78-6.64,23.94-12.73,35.09-20.31,3.2-2.18,4.54-8.6,4.79-13.18.28-4.96-1.55-10.09-2.76-15.07-1.16-4.78-2.61-9.51-4.18-14.18-.36-1.06-1.74-1.78-2.65-2.65-.86.91-1.93,1.7-2.55,2.76-5.47,9.34-10.64,18.86-16.32,28.07-5.62,9.11-11.87,17.82-17.54,26.89-2.5,4-.21,7.93,4.62,8.17Zm335.08,399.49c2.65,3.61,5.31,6.76,7.4,10.27,1.14,1.92,1.04,4.54,1.99,6.62.54,1.19,2.34,2.92,3.11,2.71,3.14-.86,6.35-1.97,9.08-3.71,9.07-5.76,19.18-9.07,29.01-13.09,1.21-.49,2.8-1.7,2.93-2.74.14-1.15-.99-3.38-1.91-3.58-3.09-.68-6.34-.87-9.52-.87-2.7,0-5.39.56-8.09.84-11.34,1.2-22.68,2.38-34.02,3.6-.2.02-.35.48.02-.06Z" style="stroke-width: 0px;"/>
  </g>
</svg>