<?xml version="1.0" encoding="UTF-8"?>
<svg id="Layer_2" data-name="Layer 2" xmlns="http://www.w3.org/2000/svg" viewBox="0 0 1147.81 1143.39">
  <g id="Layer_1-2" data-name="Layer 1">
    <g>
      <path d="m1142.86,499.19c-3.71-23.64-11.96-46.18-19.11-68.98-7.58-24.18-17.02-47.6-28.52-70.09-16.68-32.6-35.86-63.74-57.57-93.26-8.86-12.05-17.75-24.1-27.21-35.66-11.37-13.89-23.52-27.13-35.5-40.5-16.95-18.92-34.92-36.77-54.41-52.77-21.03-17.25-44.18-31.9-68.61-44.08-22.27-11.1-44.91-21.46-67.53-31.83-13.89-6.37-28.05-12.13-42.08-18.21-17.09-7.4-34.69-13.45-52.27-19.55-15-5.21-29.69-11.31-45.43-14.34-20.93-4.02-42.06-6.05-63.21-8.33-21.68-2.34-43.29-2.26-64.62,1.32-26.79,4.49-53.61,9.09-79.69,17.16-19.42,6.01-38.66,12.44-56.83,21.64-40.38,20.44-79.08,43.68-116.51,69.14-21.51,14.63-41.36,31.29-60.25,48.96-17.94,16.78-34.5,35.04-51.44,52.87-6.63,6.97-12.63,14.54-18.92,21.83-14.43,16.73-24.29,36.5-36.45,54.73-16.24,24.35-30.38,49.93-43.58,75.98-14.34,28.28-23.45,58.56-31.01,89.2-5.41,21.9-9.68,44.11-13.68,66.33-3.34,18.6-7.39,37.13-7.16,56.27.08,7.22.09,14.64-.53,21.68-1.2,13.74-.98,27.26,1.03,40.74,3.17,21.26,4.75,42.87,13.64,62.97,4.01,9.06,6.28,18.9,10.47,27.85,3.51,7.5,7.27,14.92,10.54,22.53,13.4,31.16,29.99,60.71,46.11,90.47,15.06,27.8,32.73,53.97,51.47,79.42,7.89,10.71,16.14,21.1,25.02,31.02,10.42,11.64,21.37,22.9,30.83,35.28,12.13,15.88,27.9,27.61,43.37,39.46,11.4,8.73,22.87,17.17,32.57,27.76,5.04,5.5,11.4,9.14,17.38,13.34,2.71,1.9,6.08,2.69,7.86-.61,3.29-6.13,7.61-2.91,11-1.27,17.65,8.49,35.17,17.26,52.6,26.2,22.17,11.37,44.91,21.1,69.07,27.61,31.88,8.6,63.92,15.61,97.16,15.54,1.97,0,3.95.53,5.93.73,9.91,1,19.82,2.68,29.74,2.84,31.3.49,62.62-.09,93.85,2.58,18.47,1.3,36.37-3.28,54.47-5.48,15.46-1.88,29.96-8.88,45.8-9.33,2.56-.07,5.1-1.46,7.6-2.35,31.16-11.05,59.99-26.96,88.89-42.73,13.67-7.46,25.76-17.5,39.48-24.75,18.28-9.66,34.92-21.89,51.8-33.49,28.85-19.81,53.69-44.45,76.41-71.2,19.13-22.51,32.5-48.46,45.55-74.54,9.34-18.67,17.26-38.06,25.51-57.26,6.96-16.19,14.18-32.32,20.05-48.91,7.08-20.04,13.83-40.2,21.4-60.07,6.41-16.85,12.31-34.14,12.48-52.11.27-27.71,5.82-54.82,7.45-82.38,1.59-26.85-.26-53.14-4.38-79.38Zm-63.58-118.47c-.58.47-1.29.59-2.04.38.75.2,1.45.09,2.04-.38ZM149.43,253.71c-.26.33-.31.79-.33,1.26.02-.48.07-.94.33-1.26Zm-77.79,114.25c-.12.61-.41.46-.71-.42.27.14.73.33.71.42Zm-.75-.45h0c-.69.07-1.44.02-2.2-.02.76.04,1.51.09,2.2.02Zm57.99-78.04l-.07-.07s.03.03.07.07Zm-62.98,78.07c-.34.07-.67.17-.96.32.3-.15.62-.26.96-.32Zm1031.29,254.9c-1.62,18.83-2.3,37.75-6.28,56.39-2.58,12.07-5.7,23.84-9.88,35.45-7.57,20.97-14.26,42.26-21.99,63.17-5.18,14.03-11.41,27.67-17.34,41.42-5.27,12.22-11.03,24.23-16.11,36.53-4.72,11.45-11.01,22.01-17.41,32.51-7.08,11.6-13.03,23.85-21.76,34.54-10.18,12.46-22.04,23.14-33.56,34.18-9.12,8.73-19.14,16.5-28.37,25.12-18.79,17.56-39.95,31.81-61.63,45.43-15.48,9.72-30.62,19.93-46.85,28.49-19.77,10.43-40.49,18.37-61.28,26.41-26.35,10.19-53.89,14.4-81.57,17.43-15.42,1.69-31.17.8-46.83-.74-13.87-1.36-27.97-.89-41.96-.57-16.7.38-33.2-1.05-49.64-3.74-1.64-.27-3.32-.39-4.98-.34-20.73.66-41.04-2.95-61.34-6.23-22.34-3.61-44.26-9.28-65.3-17.59-29.12-11.5-56.87-25.92-84.38-40.88-21.62-11.76-42.59-24.62-64.13-36.5-21.67-11.95-38.65-29.18-54.45-47.78-4.3-5.06-8.09-10.66-12.89-15.19-16.13-15.23-28.15-33.64-40.34-51.84-16.28-24.32-31.66-49.15-45.15-75.26-12.46-24.11-19.81-50.08-30.59-74.75-6.56-15.01-9.86-30.81-10.93-47.35-1.09-16.87-4.05-33.63-6.62-50.38-1.52-9.9-1.11-19.89-2.35-29.83-1.43-11.48-3.13-23.02-2.63-34.77.79-18.59.95-37.04,5.29-55.44,6.24-26.48,9.7-53.66,18.5-79.5,6.53-19.17,14.42-37.88,21.84-56.73.83-2.1,2.62-3.81,3.89-5.74,4.02-6.11,8.83-11.86,11.85-18.44,7.54-16.43,18.98-30.47,27.32-46.39,4.31-8.23,9.52-15.99,14.25-24.01,6.45-10.94,14.03-21.19,22.69-30.27,20.68-21.69,40.38-44.37,62.42-64.73,15.64-14.44,31.8-28.26,51.09-37.94,10.69-5.36,20.03-13.05,30.75-18.54,18.06-9.25,36.19-18.27,55.2-25.4,9.94-3.73,19.96-7.24,29.93-10.92,8.41-3.1,16.59-6.93,25.91-6.69,2.24.06,4.51-1.05,6.76-1.63,20.28-5.24,41.1-7.61,61.66-11.32,8.14-1.47,16.54-2.07,24.74-2.43,19.26-.85,38.48-3.54,56.05-2.03,29.49-1.27,56.74,2.25,84.04,6.93,35.56,6.1,70.14,15.32,103.45,29.01,14.42,5.93,28.12,13.61,42.25,20.28,12.03,5.68,23.49,12.2,33.54,21.01.74.65,1.57,1.27,2.46,1.68,14.86,6.78,28.12,15.86,40.23,26.86,4.88,4.43,10.79,7.78,16.45,11.27,17.28,10.66,30.99,25.38,43.94,40.48,25.7,29.96,49.11,61.73,71.15,94.54,19.79,29.48,34.78,61.17,47.01,94.35,5.87,15.92,12.04,31.71,18.83,47.29,4.62,10.62,6.96,22.25,7.07,33.83.18,17.66,2.26,35.12,3.82,52.65.65,7.28,1.36,14.59,1.83,21.85,1.13,17.58,3.85,35.18,2.34,52.8Z" style="stroke-width: 0px;"/>
      <path d="m1051.98,567.49c-3.36-14.81-10.98-27.5-20.24-39.24-5.55-7.04-11.75-13.56-17.62-20.35-15.66-18.11-30.84-36.66-47.04-54.26-19.38-21.06-39.33-41.59-58.68-62.7-15.53-16.94-29.72-35-44.95-52.18-14.86-16.77-31.09-32.05-48.2-46.29-16.59-13.81-34.52-26.01-53.53-36.41-29.27-16.02-59.47-29.38-92.84-34.71-19.74-3.15-39.25-5.27-59.38-3.93-22.57,1.51-45.07,3.15-67.47,6.29-36.53,5.11-71.29,16.05-104.36,32.21-22.09,10.79-43.86,22.27-65.76,33.45-9.48,4.84-18.82,9.89-27.56,16.07-14.39,10.18-28.02,21.19-41.34,32.76-18.59,16.15-37.56,31.82-54.67,49.58-3.69,3.82-7.24,7.78-10.92,11.61-23.24,24.13-49.97,44.58-71.95,70.19-16.45,19.16-33.35,37.91-48.96,57.81-11.78,15.01-21.55,31.11-30.27,47.99-4.6,8.9-4.37,17.36.91,25.57,4.69,7.28,8.64,15.01,13.29,22.27,14.91,23.3,27.88,47.68,40.74,72.12,13.8,26.24,29.92,51.09,45.43,76.28,14.27,23.17,30.08,45.38,47.61,66.36,12.6,15.09,24.92,30,41.44,41.28,13.35,9.12,27.19,16.22,42.82,20.42,10.99,2.95,22.13,4.21,33.3,5.9,23.67,3.58,47.26,2.31,70.61-1.11,26.36-3.85,52.72-6.8,79.35-7.3,3.66-.07,7.35-.1,10.97-.59,14.18-1.92,28.44-2.75,42.72-3.24,2.97-.1,5.97.3,8.94.63,14.52,1.63,29.01,3.64,43.56,4.89,22.35,1.92,43.93,6.61,64.78,15.04,15.02,6.07,29.1,14.08,45.17,18.07,18.26,4.54,35.73,1.91,53.01-2.4,10.91-2.72,20.61-9.7,29.05-17.15,22.2-19.59,44.56-39.04,65.17-60.38,15.96-16.52,32.38-32.59,46.44-50.83,9.98-12.94,20.86-25.05,32.52-36.48,2.13-2.09,4.17-4.32,5.99-6.69,10.34-13.41,20.6-26.87,30.88-40.32,20.92-27.36,42.27-54.46,52.48-88.18,1.16-3.83,4.46-6.36,5.2-10.63,2.05-11.8,5.26-23.34,11.01-33.99,1.95-3.61,3.16-7.33,2.88-11.48-.16-1.99-.07-4.03-.51-5.96Zm-129.27-63.46c.48-9.14,2.67-18.1,2.16-28.96,8.18,3.98,11.07,9.81,15.2,14.43,7.27,8.15,14.63,16.22,21.92,24.35,1.52,1.69,3.67,3.4,2.33,5.99-1.35,2.59-4.09,1.92-6.23,1.5-9.06-1.81-18.36-2.52-27.11-5.83-7.34-2.78-8.66-4.07-8.27-11.49Zm-76.45-116.35c6.87,7.23,13.8,14.46,20.01,22.25,5.84,7.32,12.31,13.97,18.76,20.69,5.6,5.84,5.45,6.73-.75,11.51-3.95,3.05-7.91,6.09-11.81,9.2-1.9,1.51-3.93,2.48-7.72,2.21-6.33-1.93-14.42-2.94-19.87-9.75-5.16-6.45-9.34-13.76-16.93-18.03-3.03-1.71-3.02-4.77-1.67-7.94,2.21-5.2,3.94-10.61,6.33-15.71,1.98-4.23,3.83-8.46,5.28-12.91,2.22-6.79,3.14-7.02,8.37-1.52Zm6.25,95.87c6.6-.02,12.06-2.27,16.14-7.39-4.08,5.12-9.54,7.38-16.14,7.4-4.16.06-12.2-5.16-16.56-9.99,4.35,4.84,12.4,10.06,16.55,9.99Zm-267.1-126.75s0,0,0,0c.21-.48.65-1.06.65-1.46,0,.4-.44.98-.65,1.47Zm11.15,89.05c-.54.02-1.08.02-1.62,0,.54.01,1.08,0,1.62,0Zm108.9-39.89c-.49-.01-.98-.01-1.47,0,.49-.01.98-.01,1.47,0Zm20.62-38.79c1.79-6.68,1.36-13.84,1.95-20.75,1.15-13.53,3.12-27.01,2.91-40.69-.08-5.18-3.83-10.12-1.17-15.39,3.56-.96,6.02,1.18,8.49,2.59,18.74,10.72,36.6,22.71,52.75,37.15,4.19,3.75,8.87,6.92,12.82,11.01,3.53,3.67,3.87,7.19,1.78,11.71-6.96,15.07-10.9,31.33-18.02,46.35-1.13,2.39-1.75,5.05-3.02,7.35-6.18,11.19-7.91,11.78-20.48,8.82-12.9-3.03-26.01-4.55-39.26-4.89h0c-.73-.26-1.47-.53-2.2-.79,0,0,0,0,0,0-.06-14.25-.29-28.46,3.47-42.48Zm-127.51-103.26c-.34-4.58,1.58-6.47,6.3-6.76,29.36-1.81,57.66,2.73,84.96,13.64,5.4,2.16,6.99,4.94,4.08,9.91-4.62,7.92-5,16.37-4.93,25.01.15,18-1.04,35.71-5.93,53.29-2.79,10.04-2.71,20.88-3.92,31.36-.11.99-.11,2.02-.36,2.97-4.24,15.61-4.54,16.68-19.47,14.89-17.93-2.15-36.23-3.7-54.46-1.7-1.29-.24-2.59-.48-3.88-.72,0,0,0,0,0,0-3.03-1.97-4.5-4.61-4.23-8.38.98-13.87-2.11-27.72-.14-41.63.69-4.9.14-10.2-.81-14.75-3.26-15.6-.73-31.1-.95-46.62-.02-1.65-.07-3.42.45-4.95,2.82-8.31,3.97-16.81,3.32-25.55Zm-123.37,15.57c12.94-4.33,25.88-8.65,39.21-11.6,10.04-2.22,20.17-4.08,30.28-5.99,7.73-1.46,9.33-.65,12.36,5.69-.35,2.34-.69,4.68-1.04,7.02,1.22,4.28,1.57,8.74.79,12.98.78-4.23.43-8.7-.8-12.98-1.66,1.35-2.28,3.13-2.47,5.23-1.25,13.92-2.57,27.8-2.36,41.82.32,20.65.19,41.31.25,61.97.03,9.96-.17,10.53-9.85,10.14-20.93-.84-41.81-2.57-62.81-2.01-8.46.23-14.43-8.21-16.15-19.73-3-19.99-1.88-39.74,2.07-59.48,1.62-8.12,2.71-16.38,3.46-24.63.44-4.82,2.88-7.04,7.05-8.43Zm-55.44,131.62c2.01,7.57,2.73,9.26,7.32,8.93-4.59.33-5.31-1.35-7.32-8.93,0,0,0,0,0,0Zm11.14,8.46c.83.07,1.88.17,2.54.57-.66-.41-1.71-.5-2.54-.57h0Zm-3.06-109.82c-.55-2.23-2.57-3.68-5.62-2.67,3.05-1.01,5.07.44,5.62,2.67Zm-73.16,31.85c5.19-3.58,10.14-7.61,15.63-10.64,13.08-7.21,26.45-13.89,39.65-20.9,3.64-1.93,7.39-2.91,11.48-2.66,0,0,0,0,0,0-.03,2.02-.06,4.03-.09,6.04-2.88,9.57-4.67,19.01-3.19,29.31,1.41,9.8.51,19.93.75,29.91.13,5.62-.02,11.21,1.54,16.81,1.73,6.26.39,9.07-5.58,10.76-14.44,4.09-27.84,10.83-42,15.57-8.56,2.86-9.22,2.55-12.33-5.97-4.5-12.32-5.68-25.14-5.73-38.17-.03-8.18,1.92-16.61-2.58-24.39-1.54-2.66.45-4.3,2.46-5.68Zm-32.45,102.88c.38.54.78,1.06,1.22,1.55.65.74,1.36,1.43,2.12,2.04.34.27.69.53,1.05.77-.36-.25-.71-.5-1.05-.77-.76-.62-1.47-1.3-2.12-2.04-.43-.49-.84-1.01-1.22-1.55-.38-.54-.72-1.1-1.04-1.68.32.58.66,1.14,1.04,1.68Zm12.41,7.02c1.88.15,3.5-.17,4.97-.78-1.47.61-3.09.93-4.97.78-2.52-.05-4.89-.78-6.98-2,2.09,1.21,4.46,1.95,6.98,2Zm9-3.3c.5-.4,1-.83,1.49-1.26-.49.43-.99.85-1.49,1.26-.5.4-1.01.79-1.54,1.15.53-.36,1.04-.74,1.54-1.15Zm-94.69-13.63c11.3-10.75,22.07-22.06,33.24-32.96,6.66-6.5,13.67-12.64,20.57-18.89,1.19-1.08,2.37-2.38,5.2-1.94.83,3.34,2.49,7.08,2.54,10.84.14,10.43,2.3,20.47,5.12,30.36,1.29,4.51.44,7.72-2.82,10.72-6.61,6.08-13.19,12.16-21.54,15.93-4.55,2.05-9.34,3.92-13.29,6.86-7.89,5.87-15.27,5.31-22.84-.16-.57.86-1.27,1.46-2.05,1.84.77-.38,1.47-.99,2.04-1.84-.63-.63-1.27-1.26-1.9-1.89-.64-.85-1.27-1.69-1.91-2.53.08-.52-.04-.98-.38-1.38-.11-1.14-.76-1.83-1.81-2.2,0,0,.02,0,.02,0-.18-1.14-.79-1.87-1.97-2.06,0,0,.05-.15.04-.15,0,0,0,0,0,0-1.96-3.93-1.94-7.06,1.73-10.55Zm-70.46,70.19c.19-.27.42-.51.66-.74,10.9-10.19,20.43-21.67,30.75-32.4,5.91-6.15,7.36-5.7,11.97,1.2q10.92,16.37,2.53,34.1c-4.6,9.71-6.18,10.73-16.69,10.73-9.32-.26-17.97-3.95-27.07-5.43-4.43-.72-4.84-3.64-2.15-7.46Zm64.41,246.78c-.25.21-.54.4-.75.65-2.42,2.86-.61,9.18-5.97,9.14-4.24-.03-5.95-4.95-7.99-8.09-5.41-8.32-10.17-17.06-15.24-25.61-2.39-4.03-1.86-7,3.02-8.19,3.61-.88,6.8-2.61,9.94-4.44,6.94-4.04,9.2-3.24,12.26,4.17,1.13,2.73-.21,6.11,2.38,8.39.13-.1.26-.2.4-.3-.14.1-.28.2-.4.3.17,8.05,3.81,15.76,2.34,23.97Zm71.16,100.65c-9.91-4.31-18.27-11.15-25.77-18.57-8.24-8.14-15.3-17.53-22.5-26.66-4.09-5.19-3.58-6.77,2.32-9.55,5.05-2.37,8.34-6.53,11.76-10.54,2.8-3.28,5.61-6.73,7.49-10.56,6.03-12.34,17.59-12.89,28.25-11.73,11.05,1.2,11.87.32,11.16,13.44,1.08,6.48-1.68,13.17-2.22,20.13-1.3,16.56-3.61,33.03-3.81,49.69-.07,5.71-1.55,6.58-6.69,4.35Zm224.02-8.66c2.01-.07,3.92-.49,5.79-1.06-1.87.58-3.78,1-5.79,1.06Zm-186.42-49.54c.23-.53.46-1.07.69-1.6,0,0,0,0,0,0-.23.53-.46,1.07-.69,1.6Zm2.32-.9s.01,0,.02,0c-.09.21-.16.45-.24.69.08-.24.15-.49.24-.69,0,0-.01,0-.02,0Zm-15.07-159.51c2.14,2.8,4.56,5.45,6.59,8.74.45.73.89,1.5,1.29,2.31-.41-.81-.84-1.57-1.29-2.31-2.03-3.29-4.44-5.94-6.59-8.74h0Zm-.26-.6c-.08-.14-.15-.23-.22-.27.07.04.14.13.22.27.07.13.15.31.22.52h0c-.08-.21-.15-.39-.22-.52Zm269.47-26.87c-.19-.49-.28-1.21-.56-1.49.28.28.37,1,.56,1.49,0,0,0,0,0,0Zm-113.97,47.98c-.19-.49-.28-1.21-.56-1.5.28.29.37,1.01.57,1.5,0,0,0,0,0,0Zm197.67-43.06c4.08,3.45,4.87,3.76,13.53-.45,5.89,4.29,6.73,13.61,13.61,17.05-6.88-3.44-7.72-12.76-13.62-17.05-8.66,4.21-9.45,3.9-13.53.45-.31-.27-.65-.55-1-.85.36.3.69.59,1,.85Zm-263.8-23.28c.07-1.84-1.73-1.69-2.6-2.51.87.83,2.67.67,2.6,2.51,0,0,0,0,0,0Zm-93.31,81.74c-.28.07-.55.17-.82.28.26-.11.54-.21.82-.28Zm84.32,177.77c-.05,4.46,1.73,8.42,3.01,12.52.79,2.52.79,5.12-2.26,5.45-13.42,1.43-26.6,5.39-40.4,3.18-4.9-.79-6.19-2.94-7.39-7.37-2.24-8.28-.64-16.55-1.26-22.82-.4-19.27,2.38-36.31,4.35-53.42,1.11-9.67,5.58-16.74,15.19-20.17,8.79-3.13,17.89-4.89,26.99-6.61,4.46-.85,6.03,1.03,5.06,5.86-5.54,27.63-3,55.56-3.28,83.38Zm107.21,8.75c-15.9.8-31.78,2.24-47.66,3.41-1.33.1-2.66.1-3.99.13-12.28.27-12.55-.33-7.9-12.07,3.42-8.66,2.13-17.78,1.19-26.63-1.36-12.96-1.03-25.78-.06-38.75,1-13.33,4.13-26.19,6.57-39.22.82-4.35,2.71-8.15,4.48-12.1,3.93-8.76,10.38-12.23,19.98-11.21,10.91,1.16,21.82.47,32.58-1.92.32-.07.66-.15.99-.16,4.64-.11,9.83-1.77,13.8.43,5.5,3.04,1.24,8.59.79,12.62-2.9,26.39-4.24,52.92-7.56,79.28-1.4,11.12-4.02,22.3-2.59,33.7h0c-.29,1.92-.59,3.85-.88,5.77h0c-1.76,4.41-4.64,6.46-9.75,6.72Zm151.04,16.5c-9.69-2.3-18.97-5.92-28.75-7.99-19.85-4.2-39.86-7-60.04-8.59-11.53-.91-13.71-2.71-13.69-14.7.03-16.97,2.36-33.77,4.6-50.55.57-4.31,1.05-8.56,1.05-12.87.02-17.68,4.32-34.85,6.18-52.32.57-5.35,4.83-6.14,8.88-5.83,12.7.99,23.76,4.19,33.81,13.95,23.18,22.51,37.44,49.67,46.78,79.88,3.24,10.47,3.65,21.58,4.74,32.46.72,7.26.67,14.6,2.15,20.31.4,5.79-.86,7.39-5.71,6.24Zm123.3-11.34c-12.04,11.42-23.17,24.1-38.26,31.63-11.85,5.92-23.99,3.05-35.74-1.35-2.78-1.04-3.94-3.43-3.85-6.39.03-1-.03-2,.06-3,2.87-32.08-1.82-63.47-8.68-94.65.9-.8,1.8-1.6,2.7-2.4h0c9.48-1.37,18.65-4.47,28.5-3.76,18.25,1.32,31.72,11.03,43.18,24.05,5.56,6.31,5.33,15.01,6.06,22.8.85,9.08,2.1,17.83,6.48,25.89,1.44,2.65,1.93,4.95-.43,7.19Zm1.34-126.35c.51-.41,1.02-.82,1.53-1.21-.52.38-1.02.79-1.53,1.21Zm36.75,89.28c-4.45-13.88-4.13-28.15-13.88-38.56-1.51,5.9-2.12,11.82-1.49,17.71-.63-5.89-.02-11.81,1.49-17.71.05-3.32.11-6.65.16-9.97h0c5.4-3.75,10.13-8.35,15.67-11.99,6.75-4.43,13-4.23,19.16.51,6.84,5.26,13.18,11.05,16.51,19.34-.2.67-.4,1.34-.6,2.02,0,0,0,0,0,0-11.38,13.21-23.12,26.07-37.03,38.64Zm87.94-99.03c-3.91,8.14-10.19,14.64-16.36,21.12-.6.63-1.79.69-3.03,1.14-.99-.69-2.25-1.25-3.05-2.2-1.91-2.28-3.6-4.76-5.39-7.15-3.05-4.07-2.91-8.04.6-11.69,3.91-4.07,7.87-8.12,12.03-11.93,2.63-2.41,5.51-5.23,9.61-3.24,3.68,1.79,7.38,10.22,5.59,13.95Zm80.29-140.67c-4.72,11.75-8.25,23.87-11.89,35.94-6.18,20.44-17.69,37.86-29.58,55.15-.75,1.09-1.63,2.11-2.57,3.06-4.2,4.26-6.02,4.25-8.95-1.06-6.11-11.1-15.63-16.68-27.78-18.96-5.61-1.06-10.48-.5-15.13,2.82-7.58,5.41-15.07,10.94-21.75,17.46-8.1,7.92-16.06,15.97-24.08,23.96-2.6,2.59-5.12,5.83-9.23,5.09-13.63-2.44-24.63,3.99-35.56,10.34-10.56,6.14-21.41,11.95-30.14,20.77,4.68,1.37,7.84-1.04,10.9-3.53-3.06,2.49-6.22,4.9-10.9,3.54-1.07.35-2.15.7-3.22,1.05-9.28.03-16.98-5.39-25.69-7.44-8.15-1.91-8.05-2.38-4.75-9.91,3.86-8.8,8.23-17.44,11.22-26.53,4.03-12.26,5.42-25.1,7.13-37.93,3.33-25,.74-49.03-8.98-72.16-9.96-23.69-22.84-45.78-40.96-64.19-16.98-17.25-37.7-29.9-57.39-43.71-12.9-9.05-28.33-12.6-43.12-17.41-2.5-.82-4.4.12-6.66.62-7.42,1.65-13.6,5.9-20.36,8.92-10.53,4.71-16.96,12.76-16.47,23.71.49,10.83-3.55,19.49-8.43,28.11-4.49,7.93-10.93,12.96-21.1,11.97-14.32-1.39-27.2-5.65-37.81-15.93,7.31-15.68,17.29-29.67,25.51-44.66,2.2-4.01,3.36-8.7,3.32-13.38-.08-9.55-9.66-17.44-18.97-15.4-3.64.8-7.21,1.34-10.85,1.09-5.73-.38-10.49,1.51-14.4,5.54-4.55,4.69-10.29,8.14-16.28,9.25-7.4,1.37-13.76,4.81-20.59,7.26-21.54,7.72-40.45,19.86-58.02,34.35-16.43,13.56-30.21,29.91-46.42,43.69-2.35,1.99-3.82,4.56-3.77,7.8-1.64.59-2.21,1.94-2.49,3.49-2.77.24-3.65,2.55-4.94,4.46-4.07,6.06-7.74,12.45-12.37,18.05-9.21,11.14-15.16,24.08-21.71,36.73-2.34,4.51-3.35,9.41-4.21,14.27-.61,3.43-1.39,7.45,2.83,9.72.27-.69.49-1.41.77-2.09.19-.45.41-.88.69-1.26-.28.38-.5.81-.69,1.26-.28.68-.5,1.4-.77,2.09.25,1.04.5,2.07.75,3.11,1.15.41,2.13,1.05,3.01,1.8-.89-.75-1.86-1.39-3.01-1.8,1.67,9.76,6.9,17.53,13.6,24.49.14,2.17,1.33,3.83,2.67,5.4.45-.05.87-.17,1.28-.33-.41.16-.83.28-1.28.33,2.21,9.54,7.38,17.68,12.46,25.83,5.28,8.47,11.21,16.55,15.05,25.85.97,2.35,3.47,4.79,1.12,7.28-2.53,2.68-5.55,1.03-8.29-.23-8.21-3.8-16.75-6.13-25.79-7.27-9.31-1.18-18.47-1.67-27.74.09-2.91.55-5.96.31-8.94.56-4.37.37-6.76-1.62-7.98-5.77-3.59-12.22-10.66-22.81-16.43-33.97-5.08-9.82-22.88-18.96-36.73-17.34-11.7,1.37-20.78,5.79-28.9,13.75-5.13,5.03-7.17,4.69-10.57-1.35-14.5-25.79-29.44-51.31-45.05-76.45-4.36-7.03-7.43-14.85-11.23-22.23-1.87-3.65-2.15-7.09.91-10.08,7.05-6.88,10.9-15.84,15.84-24.08,5.65-9.42,5.5-9.58,14.8-4.32,15.01,8.47,31.13,13.79,48.26,14.68,15.43.8,33.79-6.63,41.23-24.06,3.64-8.54,9.22-16.15,12.27-25,1.28-3.7,3.63-5.83,7.96-6.4,6.68-.88,12.77-3.51,17.51-8.73,1.29-1.42,3.1-2.66,4.91-3.29,14.59-5.09,25.5-15.33,36.03-25.93,6.54-6.57,12.98-9.58,22.17-5.05,8.46,4.17,17.23,1.03,25.05-2.29,21.74-9.23,44.34-16.16,66.14-25.19,3.47-1.44,7.25-1.49,10.83-.64,10.88,2.59,21.64,1.27,32.62.44,9.89-.74,20.5-4.01,29.98,2.54.47.33,1.33.32,1.94.19,14.18-3.01,28.37-1.53,42.56-.14.54.05,1.14-.59,1.72-.92-5.98-2.72-10.33-7.41-14.88-11.86,4.55,4.45,8.89,9.14,14.88,11.86,2.92.76,5.31,2.51,7.73,4.19.58,2.2,1.92,3.35,4.27,3.08.42.38.9.61,1.46.69,0,0,0,0,0,0,3.77,6.26,10.31,7.21,16.48,7.47,15.61.67,31.22.29,46.86-.84,10.5-.76,21.23.5,31.76,1.72,10.29,1.19,20.46,2.36,30.66-.18,3.11-.78,5.9.21,8.75,1.19,8.89,3.05,18.07,5.29,27.41,4.13,11.35-1.41,21.53,3.61,32.39,4.79,5.6.61,11.2,1.53,16.81,1.38,7.02-.19,12.47,2.47,16.08,8.22,9.1,14.47,22.8,21.78,38.8,25.73,2.58.64,5.42.85,7.68,2.1,10.48,5.79,20.39,4.59,30.2-1.61,1.58-1,3.4-2.29,6.1-.88,1.31,6.87.59,14.17.32,21.36-.59,15.91,7.1,25.99,20.61,33.45,15.83,8.73,32.69,12.57,50.43,14.06,5.92.5,11.7,2.09,17.77,1.88,6.39-.23,12.69-.46,18.18-4.14,2.3-1.54,4.05-1.38,6.33.08,11.09,7.12,13.74,10.39,8.79,22.7Z" style="stroke-width: 0px;"/>
    </g>
  </g>
</svg>