<?xml version="1.0" encoding="UTF-8"?>
<svg id="Layer_2" data-name="Layer 2" xmlns="http://www.w3.org/2000/svg" viewBox="0 0 311.3 328.15">
  <g id="Layer_1-2" data-name="Layer 1">
    <g>
      <path d="m273.53,283.97c-.07,1.39-.73,2.42-1.84,3.39-1.17,1.02-2.04,2.4-3.05,3.61-2.08,2.49-4.06,5.08-6.29,7.42-1.75,1.84-3.3,3.73-4.45,6.02-.48.95-1.66,1.55-2.5,2.33-.27.25-.53.54-.73.85-.21.33-.31.99-.53,1.03-2.98.5-2.83,4.13-5.21,5.17-1.25.55-1.95,1.89-3.5,2.12-.69.1-1.21,1.18-1.86,1.76-.46.41-1.18,1.15-1.48,1.02-1.56-.68-2.24.68-3.33,1.11-2.31.9-4.51,2.16-7.22,2.05-1.17-.05-2.36.05-3.59-.04-1.04-.08-2.23.53-3.2,1.09-2.14,1.24-4.45.62-6.67.77-1.91.13-3.83-.25-5.77.09-.75.13-1.63-.47-2.64-.8-1.41,1.96-3.33.42-5.08.38-2.31-.06-4.52-1-6.9-.96-1.03.02-2.19-.44-3.08-1.01-1.52-.97-3.15-1.31-4.86-1.62-.81-.15-1.58-.68-2.28-1.16-2.27-1.57-4.81-3.07-6.07-5.47-.92-1.74-2.23-3.18-3.06-4.92-1.88-3.94-5.36-5.77-9.14-7.25-.87-.34-1.77-.6-2.84-.95-.06.44-.14.86-.18,1.28-.08.91-.32,1.56-1.29,2.06-.74.38-1.22,1.33-1.72,2.1-1.6,2.44-2.5,5.44-5.52,6.71-.32.14-.61.52-.76.86-.43,1-.89,1.9-2.21,1.81-.2-.01-.56.13-.6.28-.54,1.77-2.69,1.62-3.52,3.02-3.34,1.04-6.16,3.56-9.88,3.54-.31,0-.78,0-.91.18-1.06,1.49-2.82,1.54-4.3,2.15-.79.32-1.59.59-2.39.9-.56.22-1.17.38-1.66.7-.94.62-1.86,1.04-3.06.87-.64-.09-1.54.03-1.97.44-1.42,1.34-3.09,1.04-4.74,1.02-.94,0-2.06.16-2.77-.28-1.42-.87-2.38.08-3.58.52-1.25-.87-2.56-1.05-4.18-.79-1.33.22-3.02.17-4.15-1.13-.2-.23-.5-.47-.78-.51-1.39-.23-2.94-.08-4.14-.66-1.54-.76-3.26-.69-4.8-1.73-2.28-1.54-4.74-2.82-6.73-4.78-2.6-2.55-5.33-4.87-8.56-6.67-1.82-1.01-3.25-2.79-4.76-4.31-1.55-1.56-3.27-2.86-5.04-4.15-1.69-1.23-3.2-2.76-4.61-4.32-2.17-2.42-4.85-4.23-7.15-6.44-.77-.74-1.69-1.15-2.46-1.83-.78-.69-1.01-2.03-2.34-2.1-.6-1.87-2.38-2.84-3.33-4.41-.67-1.1-2.12-1.45-2.32-3.12-.13-1.11-1.36-2.14-2.24-3.09-1.27-1.37-2.86-2.48-3.95-3.97-1.79-2.45-3.19-5.16-5.36-7.38-.73-.75-.68-2.2-1.23-3.2-.79-1.42-1.79-2.72-2.75-4.04-1.01-1.39-1.9-2.68-2.23-4.55-.31-1.72-1.67-3.33-2.8-4.8-1.05-1.36-1.89-2.76-2.33-4.42-.57-2.17-2.47-3.4-3.69-5.12,1.12-1.55.74-2.65-.94-3.11-1.44-2.65-.62-6.16-3.52-7.99-.45-1.85-.9-3.68-1.35-5.51-2.11-1.02-1.4-3.77-3.22-5.11-1.11-.82-1.46-2.4-.85-3.93-2.49-1.63-3.65-4-4.57-6.68-.47-1.37-1.27-2.6-1.37-4.15-.04-.56-.78-1.08-1.56-1.45.05-.7.1-1.41.15-2.19h-1.13c-.19-.64.66-2.01-.94-1.97-.37-1.23-1-2.45-1.05-3.7-.08-1.84.29-3.69.42-5.54.22-3.06.46-6.12.56-9.18.03-.77-.21-1.81-.73-2.3-.94-.89-1.32-2.26-2.16-2.94-1.39-1.12-1.08-2.45-1.02-3.67.06-1.2.4-2.74,1.21-3.46,1.41-1.25,1.57-2.62,1.56-4.25-.01-4.75.01-9.5.06-14.24,0-.6.15-1.24.39-1.79.9-2.08,1.87-4.13,2.82-6.2.13-.28.21-.67.43-.8,1.55-.89,1.31-2.19,1.27-3.71-.07-2.23-.22-4.59,1.09-6.64-.67-1.65,1.3-2.41,1.29-3.98-.01-1.35.86-2.69,1.12-4.08.64-3.36,1.71-6.63,1.73-10.11.02-2.39.42-4.74,2.54-6.42.57-.45.84-1.34,1.12-2.08,1.26-3.34,2.45-6.7,3.73-10.03.21-.56.71-1.02,1.12-1.48.62-.7,1.28-1.24.87-2.44-.18-.54.48-1.43.88-2.09,1.06-1.72,2.84-3.05,2.71-5.42-.02-.33.67-.92,1.12-1.02,1.2-.28,1.55-1.18,2.06-2.11.98-1.8,1.88-3.77,3.31-5.16,1.39-1.36,2.56-2.89,3.92-4.26,2.23-2.24,4.1-4.75,4.98-7.9.48-1.73.86-3.59,2.76-4.5.19-.09.43-.36.42-.54-.1-2.5,2.16-3.57,3.21-5.36.52-.88,1.17-1.68,1.73-2.54.69-1.05,1.24-2.18,2.5-2.78.48-.23.89-.98,1-1.56.32-1.59,1.24-2.77,2.19-4,1.01-1.32,1.94-2.72,2.73-4.19.76-1.4,1.82-2.59,2.23-4.26.27-1.11.86-2.65,2.54-2.87.17-.02.36-.31.44-.51,1.15-2.93,3.52-4.81,5.57-7.06,2.72-2.97,6.18-4.91,9-7.68,1.46-1.43,3.08-2.72,4.76-3.9,2.22-1.55,4.72-2.46,7.44-2.82,4.22-.55,8.4-.21,12.52.64,4.81.99,9.58,2.18,14.37,3.29,2.7,2,6.39,1.95,8.92,4.33.38.36.98.5,1.49.7,2.81,1.08,5.7,1.98,8.41,3.27,1.6.76,2.92,2.12,4.35,3.24,2.63,2.05,4.88,4.33,6.49,7.39,1.64,3.12,3.15,6.24,4.2,9.59.06.19.32.32.66.65.38-.56.7-1.06,1.04-1.55.58-.85,1.11-1.74,2.31-1.91.44-.06,1.07-.34,1.21-.68.58-1.41,1.52-2.36,2.94-2.86.51-2.08,2.82-2.46,3.82-4.07,1.32-2.13,3.32-3.71,4.43-6.08.84-1.78,2.66-3.06,3.06-5.16,1.73-.31,1.51-2.85,3.39-2.99.14-1.99,2.65-1.49,3.1-2.72.58-1.59,2.03-1.95,3-2.93.57-.57,1.52-.75,2.27-1.15.81-.43,1.54-1.01,2.37-1.38,2.67-1.2,5.29-2.58,8.07-3.4,2.48-.73,4.87-2,7.59-1.8.39.03.86.04,1.18-.14,2.88-1.65,5.94-1.14,9.03-1.02,3.3.13,6.62-.27,9.93-.16,2.25.07,4.48-.24,6.78.13,2.12.35,4.26.31,6.17,1.47.19.11.5.19.69.11,2.15-.83,3.26.57,4.4,2.13,1.99-.78,3.3.78,4.76,1.57,3.67,2.01,7.24,4.22,10.79,6.44,1.19.74,2.15,1.83,3.33,2.6,2.82,1.84,5.79,3.47,8.53,5.42,2.17,1.55,4.18,3.34,6.08,5.22,4.17,4.12,7.48,8.93,10.67,13.82,1.42,2.18,3.15,4.15,4.59,6.32,1.7,2.56,3.24,5.22,4.85,7.84,1.31,2.13,1.9,4.58,2.92,6.84.33.73.4,1.8.14,2.55-.92,2.65.21,4.96,1.35,7.05,1.44,2.65,2.56,5.42,3.84,8.13.57,1.21.92,2.52,1.39,3.78.68,1.84,1.48,3.64,2.05,5.52.72,2.35,1.24,4.75,1.88,7.12.74,2.71,1.6,5.38,2.26,8.11.23.97-.18,2.08.02,3.06.57,2.84,1.31,5.65,1.97,8.47.12.53.23,1.08.26,1.62.14,2.85.21,5.71.4,8.56.06.94.43,1.86.57,2.8.67,4.39.67,8.75-.14,13.17-.66,3.62-1.22,7.3-.53,11.05.28,1.49-.02,3.1-.09,4.65-.15,2.91-.25,5.83-.53,8.73-.16,1.62-.48,3.24-1.75,4.5-.56.56-.51,1.31-.49,2.17.07,2.47.54,4.94-.06,7.45-.3,1.25.13,2.67.21,4.02.11,1.71-.06,3.48.36,5.11.67,2.58.47,5.18.46,7.74-.01,2.95.43,5.96-.73,8.87-.41,1.02-.57,2.27.01,3.47.28.59.44,1.59.13,2.05-.8,1.2-.61,2.54-.94,3.78-.3,1.12-.89,2.16-1.21,3.27-.37,1.28-.63,2.59-.87,3.9-.46,2.48-.52,5.08-2.37,7.09-.15.16-.22.41-.27.64-.53,2.63-1.05,5.25-1.58,7.88-.05.23-.09.52-.24.65-1.47,1.19-1.43,2.88-1.69,4.54-.17,1.11-.9,2.14-1.42,3.18-1.26,2.51-2.53,5.01-3.84,7.49-.44.83-.93,1.66-1.54,2.37-1.16,1.38-2.64,2.51-3.24,4.33-.13.38-.69.62-1.04.93-.28.25-.75.5-.79.8-.31,2.37-1.99,3.99-3.08,5.94-.8,1.43-1.34,3.01-2.01,4.52-.19.44-.3,1.06-.64,1.26-1.79,1.05-1.92,2.95-2.62,4.59-.9,2.09-1.97,4.11-3.09,6.08-.26.47-1.04.64-1.64.99Zm-79.69-46.5c1.77.01,2.93-.27,3.61-1.6.55-1.06,1.83-1.46,1.93-3.08.1-1.63.99-3.31,1.87-4.77,1.36-2.26,3.95-2.39,6.2-2.76.97-.16,1.95-.29,2.83-.67,3.07-1.33,3.76-1.84,8.03-.76.22.06.53-.1.71,0,.65.39,1.3.81,1.88,1.3.6.5,1.13,1.09,1.69,1.65.44.44,1.12.84,1.23,1.36.32,1.45,1.72,2.3,1.82,3.99.05.9,1.04,2.42,3,2.44-.28-.88-.51-1.58-.7-2.18,1.6-2.55,4.31-4.27,4.93-7.44.08-.39.57-.73.92-1.04.54-.46,1.07-1.04,1.71-1.25.64-.21,1.48.15,2.1-.08,2.94-1.09,6.03-1.42,9.11-2.13,1.09,1.51,2.49,1.87,3.78,1.25,1.78,1.71,3.39,3.24,4.88,4.67,1.91.23,3.18-.2,3.33-2.26.03-.35.34-.73.61-1,1.91-1.93,4.13-3.57,5.76-5.78,1.26-1.7,2.52-3.4,3.79-5.09.99-1.31,1.79-2.9,3.08-3.79.89-.61,1.28-1.24,1.65-2.09.66-1.49,1.34-2.97,2.11-4.67-.14-.51-.36-1.32-.47-1.72-1.46-.96-2.52-1.87-3.74-2.42-1.47-.66-2.93-1.37-4.46-1.93-1.83-.67-3.7-.96-5.53-1.33-2.09-.42-4.27-.55-6.46-.61-3.11-.09-6.19-1.17-9.3-1.75-2.93-.54-5.87-1.22-8.83-1.35-2.59-.11-5.15-.49-7.79-.32-3.28.22-6.61-.37-9.93-.45-1.57-.04-3.23.05-4.71.52-2.05.66-4.09,1.14-6.24,1.21-1.87.07-3.84-.05-5.59.48-2.03.62-4.21.48-6.18,1.54-1.2.65-2.75.66-4.14.93-2.11.41-4.22.64-6.37.36-.37-.05-.78.09-1.16.2-1.66.5-3.28,1.02-5.07,1.07-.8.02-1.85.68-2.31,1.37-.78,1.16-1.68,1.76-3.02,1.87-.38.03-.74.3-1.12.42-1.12.35-2.24.69-3.36,1.02-.6.18-1.21.34-1.82.51-.51.14-1.03.29-1.55.38-1.94.31-3.9.49-5.81.91-1.62.36-3.16,1.32-4.77,1.43-3.2.22-6.37.4-9.5,1.22-.61.16-1.39-.2-2.07-.38-1.13-.3-2.25-.65-3.37-.99-.61-.19-1.31-.26-1.79-.62-.81-.61-1.77-.56-2.6-.86-2.15-.78-4.27-1.06-6.51-.77-.2.03-.42-.17-.64-.25-2-.73-4.02-1.24-6.15-.5-.32.11-.74-.02-1.11-.08-.86-.13-1.71-.26-2.56-.43-.91-.18-1.82-.41-2.73-.63-.37-.09-.74-.27-1.11-.28-2.51-.08-5.04.05-7.51-.27-1.2-.15-2.07.05-3.14.44-1.3.47-2.78.52-4.19.64-.99.09-2.03-.17-3,.01-1.25.23-2.47.68-3.65,1.15-1.19.47-2.3,1.14-3.49,1.63-1.68.69-3.39,1.35-5.12,1.91-1.28.42-2.61.7-3.93.99-2.29.51-4.48,1.13-5.58,3.54-.15.32-.59.5-.88.76-.76.66-1.52,1.33-2.28,1.99-.42.36-.77.88-1.26,1.06-2.34.86-3.85,2.78-5.6,4.37-1.14,1.03-1.02,2.55-.62,3.93.37,1.27,1.52,1.13,2.52,1.23.23.02.44.17.68.28.06.23.12.45.16.67.13.73.3,1.57,1.19,1.55.98-.02,2.35.18,2.69-.98.43-1.46,1.49-1.3,2.44-1.34,1.4-.06,2.83.28,4.22.12,2.5-.28,4.92.2,7.34.57,1.04.16,2.01.86,3,1.35.9.45,1.79.92,2.66,1.43,1.29.76,2.13,2.02,3.15,3,1.04.99,1.3,2.03,1.8,3.13.34.74.82,1.41,1.27,2.17,3.46-2.81,5.5-6.54,8.97-8.89,1.08-.74,2.03-1.22,3.27-.96,1.17.24,2.31.7,3.48.85,1.44.18,1.32,1.78,2.26,2.26,1.03.52,2.39.39,3.07,1.6.12.21.11.5.25.67,1.65,1.92,3.13,4.04,5.04,5.65,1.96,1.65,4.35,2.8,6.76,4.3.02-.56.1-.91.04-1.24-.23-1.39.65-3.89,1.78-4.2,2.23-.61,4.09-2.23,6.74-1.86,2.2.31,4.31,1.37,6.65.93.51-.1,1.27.82,1.69.66,1.72-.66,2.9.17,4.15,1.08,1,.73,2.1,1.33,3.12,2.04.99.7,1.83,1.83,2.9,2.12,1.48.4,3.13.31,4.68.19,1.54-.12,3.06-.55,4.78-.88-.06.81-.09,1.33-.13,1.81.65.29,1.26.68,1.92.84.83.2,1.78.47,2.53.24,1.74-.53,3.49-.83,5.29-1,.51-.05,1-.4,1.49-.6,1.22-.51,2.4-1.23,3.68-1.48,2.9-.56,5.79-1.39,8.8-.03,1.07.49,2.56.08,4.44.08-1.02-.62-1.52-.92-2.51-1.52ZM29.36,153.23c.99-.14,1.85-.13,2.08-1.3.05-.28.31-.59.57-.74,2.11-1.24,4.21-2.49,6.36-3.65,2.29-1.23,4.63-2.39,6.98-3.51,2.21-1.05,4.39-2.26,6.72-2.92,1.67-.47,3.28-1.71,5.21-1.05.12.04.32-.07.44-.16,1.45-1.23,3.35-1.21,4.96-1.2,2.19.01,4.24-.3,6.3-.88.6-.17,1.26-.18,1.89-.25,1.49-.17,3.02-.16,4.47-.52,2.26-.56,4.55-.38,6.77-.27,2.91.13,5.79.84,8.69,1.28.69.11,1.43.36,2.08.22,2.89-.6,5.77-1.24,8.71-1.56,1.66-.19,3.32-.41,4.99-.47,3.48-.12,6.97-.14,10.45-.21,1.98-.04,3.96-.12,5.95-.13.45,0,1.03.04,1.33.31.63.57,1.24.46,1.99.39.74-.07,1.52.17,2.27.33,1.77.38,3.45,1,5.37.4,1.41-.43,2.98-.31,4.42.35.48.22,1.16.47,1.57.3,1.45-.61,2.96-.33,4.42-.57,1.01-.17,1.77.07,2.71.37,2.42.78,4.03,2.64,5.99,4.01,1.1.77,2.34,1.52,3.04,2.6,1.21,1.87,2.66,3.48,4.21,5.04.48.48.81,1.15,1.11,1.77,1.18,2.45.81,5.3,2,7.76.14.3-.09.76-.09,1.15.02,1.56-1.23,2.47-1.87,3.68-1.12,2.15-2.06,4.43-3.44,6.38-.74,1.04-1.12,2.08-.84,3.06.52,1.8.56,3.66,1.28,5.49,1.16,2.92,2.88,4.7,5.98,4.84,1.88.08,4.04.32,5.61-.45,2.27-1.12,3.37-3.65,3.83-6.1.32-1.71.1-3.6-.23-5.34-.63-3.35-1.35-6.7-2.34-9.95-.9-2.94.03-5.47,1.13-8.02.33-.76.9-1.51,1.54-2.02,1.33-1.06,2.54-2.11,2.65-3.98.05-.88.65-1.39,1.5-1.67,3.23-1.1,6.38-2.49,9.68-3.27,3.62-.85,6.27-2.78,8.52-5.59.85-1.06,1.58-2.31,3.16-2.73.69-.18,1.21-1.15,1.73-1.82.53-.67.87-1.51,1.47-2.1,1.4-1.36,2.93-2.59,4.36-3.92,1.35-1.26,2.91-2.1,4.54-2.97,1.54-.83,2.91-1.94,4.7-2.27,1.85-.34,3.29-1.45,4.82-2.48,2.67-1.79,5.91-2.21,8.84-3.39.7-.28,1.56-.21,2.19-.58,1.7-1.01,3.58-1.13,5.31-.73,3.4.79,6.68.58,10.02-.22,1.85-.45,3.76-.61,5.64-.95.49-.09.97-.32,1.42-.56,2.05-1.06,4.27-1.16,6.5-1.18,1.64,1.8,3.01.76,4.24-.5,1.23.41,2.31.77,3.61,1.2v-1.81c2.8-.54,4.29,2.32,6.84,2.2.99,1.65,2.61,2.38,4.32,2.99.42.15.87.3,1.22.57,1.19.9,2.22,2.14,3.54,2.72,2.09.91,2.66,2.32,2.28,4.26,1.89,2.18,4.03,1.17,6.26.66,0-.88.37-2.1-.07-2.65-1.23-1.52-1.65-3.22-1.78-4.85-2.83-1.94-5.19-4.28-8.39-5.24-.9-.27-1.79-.57-2.65-.94-2.43-1.07-4.74-2.54-7.27-3.18-3.26-.83-6.67-1.15-10.03-1.38-1.26-.09-2.55.82-3.87,1.05-2.44.43-4.93.58-7.19,1.78-.52.28-1.23.22-1.86.28-1.16.12-2.33.18-3.48.34-1,.14-2.02.26-2.96.61-1.56.58-2.66-.83-4.06-.77-.91.04-1.22-.45-1.42-1.26-.64-2.66-1.39-5.3-2.04-7.96-.27-1.12-.4-2.27-.59-3.35-1.92-.05-3.45.22-4.99.93-1.77.82-1.77,2.73-3.07,3.78.45.29.76.49,1.14.73-1.03,1.27-2.4,2.3-2.78,3.61-.44,1.52-1.56,2.2-2.45,3.18-.94,1.03-1.85,2.15-2.97,2.94-2.69,1.89-5.81,2.64-9.05,2.86-1.33.09-3.05.43-3.96-.23-2.11-1.54-4.47-3.02-5.46-5.75-.27-.73-1.01-1.28-1.75-2.17-.12,1.71-.17,3-.33,4.27-.08.65-.74,1.43-.54,1.87.59,1.3-.24,2-.76,2.94-.52.94-.79,2.02-1.14,3.05-.07.21.04.64-.05.67-1.53.58-.91,1.99-1.28,3.03-.7,1.94-.87,4.25-3.16,5.3-1.64.75-3.21,1.65-4.85,2.4-2.69,1.22-5.4.04-8.09-.08-1.08-.04-2.26.1-3.2-.3-1.17-.5-2.11-.4-3.2.03-.64.25-1.4.29-2.1.27-1.57-.06-3.13-.3-4.7-.31-2.13,0-3.79-1.06-5.35-2.26-1.93-1.49-3.23-3.49-3.98-5.83-.1-.3-.38-.53-.85-1.17-.19,1.32-.3,2.17-.43,3.01-.47,3.26-1.78,4.48-4.93,4.94-1.81.27-3.61.34-5.44.3-1.16-.03-2.33.42-3.5.62-1.69.29-3.39.54-5.09.8-1.88-1.66-4.77.53-6.49-1.7-2.55-.45-5.11-.9-7.85-1.38-.1-.84-.48-1.83-.27-2.68.43-1.73-.43-2.68-1.71-3.7-.46.44-.91.87-1.34,1.31-1.32,1.33-2.47,2.94-4.74,2.6-.32-.05-.83.21-1.04.49-1.47,1.89-3.8,1.36-5.68,1.81-1.8.43-3.9-.13-5.81-.5-1.99-.38-3.49-1.66-4.68-3.29-.19-.25-.53-.39-.98-.71-.27,1.37-.5,2.5-.71,3.57-.59.47-1.33.81-1.67,1.38-.85,1.43-2.36,1.81-3.61,2.63-2.3,1.51-4.8.58-7.09.46-3.5-.2-6.14-2.63-8.55-5.05-.88-.89-1.53-2.04-2.18-3.14-.49-.82-1.12-1.01-1.96-.89-.37,1.65-.67,3.25-1.08,4.82-.79,3.03-2.9,4.88-5.35,6.72-2.44,1.83-4.92.1-7.26.88-1.18-.91-2.4-.51-3.66-.2-.49.12-1.11,0-1.6-.21-2.12-.86-4.19-1.8-6.31-2.66-.76-.31-1.59-.46-2.59-.75.23,2.79.02,5.12-1.96,6.91-.21.19-.3.55-.39.85-.69,2.4-3.65,5.28-6.01,5.68-1.2.21-1.83.68-2.39,1.9-.65,1.44-1.38,2.89-2.15,4.28-.74,1.33-1.18,2.57-.91,4.36Zm160.61-35.01c.5-2.13,1.59-3.95,1.88-6.09.31-2.22,1.08-4.31,2.19-6.38.91-1.69,1.88-3.73,1.38-5.99-.15-.67.42-1.49.66-2.24.51-1.66,1.18-3.29,1.49-4.99.35-1.91.29-3.88.57-5.81.27-1.87-.99-3.83.37-5.62.07-.09-.05-.3-.06-.46-.05-1.01-.07-2.02-.14-3.03-.07-1.08.02-2.23-.33-3.22-.44-1.25-.53-2.43-.27-3.7.12-.6.08-1.23.13-2.15-2.51,1.67-4.58.22-6.41-.34-1.09.33-1.9.8-2.71.79-3.77-.04-7.52.23-11.26.63-1.29.14-2.63.41-3.88.58-1.42.19-2.98-.2-4.55.11-1.3.26-2.69.05-3.89.05-.09,2.29-.18,4.55-.26,6.8,0,.29-.06.7.1.86,1.94,1.98,1.22,4.53,1.29,6.81.07,2.43-.49,4.88-.72,7.32-.16,1.72-.47,3.47-.3,5.17.19,1.82.63,3.57-.36,5.28.85,2.54-.15,5.04-.25,7.55-.07,1.79-.94,3.54-.21,5.38,1.43,1.18,3.53,1.4,4.62,3.16.16.26.77.45,1.09.36,1.49-.38,2.12.67,2.82,1.78,1.6-.82,3.16-1.36,4.88-.63.38.16.93-.11,1.41-.13.55-.02,1.19-.16,1.65.06,2.11,1.03,3.99.99,5.89-.56.82-.67,2-.89,3.17-1.37Zm-59.53-43.05c-.45.77-.79,1.37-1.18,2.03-.74-.19-1.4-.36-1.58-.41-1.47.86-2.5,1.57-3.62,2.1-2.17,1.04-2.4,1.39-1.98,3.77.06.36.2.71.32,1.14.36-.33.6-.56.89-.82,1.01,2.33,2.25,4.46,1.09,6.97,1.37.85,1.42,2.08,1.4,3.41-.01.91.23,1.83.44,2.73.2.84.83,1.73.67,2.48-.31,1.51.45,2.34,1.55,3.22-.98,1.22-.41,2.34.09,3.5.27.63.39,1.32.54,1.99.29,1.24-.27,2.71,1.15,3.65.23.15.08.89.09,1.36.01.47-.13.99.03,1.39.64,1.52,1.39,2.98,2.06,4.49.76,1.7,2.48,2.71,4.27,2.53,3.34-.34,6.55-1.1,9.67-2.37,1.73-.71,3.51-1.19,4.78-2.7.33-.39.93-.56,1.38-.82.07-.87.11-1.73.2-2.58.56-5.32,1.2-10.63.69-16-.1-1.06.04-2.25.44-3.23,1.29-3.1,1.38-6.23.79-9.48-.13-.71.23-1.51.4-2.26.24-1.07.75-2.14.74-3.2-.03-1.96-.35-3.92-.57-6.04-1.98-.24-4.03-.47-6.06-.72-.86-.11-1.35.27-1.63,1.06-.16.43-.4.83-.71,1.45-1.83-.31-3.61-.6-5.54-.93-.9,1.1-2.1,1.52-3.68,1.24-.64-.11-1.61.34-2.09.86-.99,1.05-2.01,1.12-3.24.65-.51-.19-1.06-.28-1.8-.46Zm32.04,202.46c.03-2.6,1.11-5.12.64-7.78-.54-3.03.6-6-.12-9.1-.55-2.38-.11-4.99-.09-7.49,0-.94.02-1.89.14-2.83.28-2.32-.86-3.49-3.25-3.38-.77.03-1.75.14-2.29-.25-1.9-1.39-4.41,0-6.21-1.53-2.32.55-4.5-.39-6.74-.67-2.04-.26-3.25.76-3.63,2.87-.21,1.16-.23,2.5-.85,3.39-1.05,1.51-1.34,3.23-1.95,4.86-.4,1.07-.48,2.26-.7,3.4-.35,1.82-.67,3.65-1.04,5.47-.2.99-.27,2.1-.78,2.93-.53.87-.41,1.65-.35,2.5.05.7.14,1.39.15,2.09.02,1.63,0,3.26,0,4.94,2.58,1.12,5.55-.7,7.73,1.24,1.15-.33,2.12-.79,3.11-.86,1.87-.13,3.74,0,5.62-.09,3.42-.16,6.87.16,10.61.29Zm58.47-175.73c.12-.72.13-1.45.38-2.09.42-1.1,1.17-2.09,1.48-3.21.99-3.54,2.51-6.92,3.19-10.56.12-.66.47-1.28.7-1.92.55-1.56,1.27-3.09,1.58-4.7.3-1.53.18-3.15.2-4.73.03-1.55,0-3.1,0-4.68-2.04-.26-3.66-1.5-5.57-.66-.26.11-.63,0-.94-.03-1.66-.2-3.31-.47-4.98-.61-1.68-.14-3.41-.4-5.05-.15-1.43.22-2.78.86-4.3.67-.15-.02-.45.45-.51.73-.16.68-.29,1.39-.3,2.09-.02,1.49.03,2.98.06,4.48.05,2.19-.69,4.36.16,6.61.37.98.06,2.29-1.89,3.38,2.73-.19,1.62,1.54,2.22,2.31.99,1.29.96,2.72.79,4.09-.23,1.8-.33,3.46,1.11,4.7-.53.57-1.11.95-1.34,1.49-.77,1.78.26,4.12,2.03,4.89.43.19.92.28,1.28.56,1.89,1.46,3.66.94,5.46-.2,1.34-.85,2.74-1.59,4.23-2.45Zm-30.27,144.29c-2.87-.16-5.65-.47-8.41.72-1.62.7-3.46.94-5.23,1.21-1.67.26-3.61,2.58-2.89,4.08.72,1.48.33,2.8.26,4.21-.07,1.41-.08,2.82-.05,4.23.03,1.48.12,2.96.2,4.44.03.6-.11,1.29.14,1.78.54,1.06.38,2.29-.1,2.97-1.36,1.96-.66,4.15-1.11,6.18-.19.86.15,1.56,1.19,1.69,3.74.44,7.43.39,10.95-1.13,2.08-.9,4.06-2.04,6.15-2.91,1.89-.79,3.64-2.28,5.96-1.48.31.11.75-.19,1.11-.3.44-2.02.36-1.98-.58-3.76-1.03-1.96-1.92-4.01-2.86-6.02-.61-1.32-1.08-2.73-1.83-3.97-1.16-1.9-.34-4.45-2.16-6.1-.13-.11-.13-.5-.04-.69.58-1.22.26-2.27-.42-3.36-.26-.42-.18-1.06-.29-1.8Zm-68.31,28.14c0-2.26-.05-4.07.01-5.87.08-2.36-.17-4.7.09-7.1.18-1.65.64-3.59-.31-5.33-.22-.4.16-1.08.12-1.62-.17-2.58.58-5.53-2.66-6.95-.19-.08-.27-.39-.44-.55-.88-.79-1.68-1.68-2.67-2.3-1.51-.95-2.93-1.96-3.72-3.61-.6-1.25-1.74-1.74-3.11-2.44-.52,2.35-1.42,4.31-3.68,5.22-.12.05-.15.27-.24.4-1.51,2.06-2.73,4.23-3.03,6.84-.08.69-.34,1.45-.76,1.99-1.53,2-1.3,4.51-2.08,6.71-.31.87-.35,1.84-.69,2.69-.81,2.03-.71,2.37,1.26,3.3.43.2.82.48,1.24.68,2.15,1.01,4.2,2.16,6.54,2.83,3.56,1.01,7.01,2.44,10.5,3.7,1.1.4,2.18.85,3.62,1.41Zm117.1-181.94c1.35.11,1.83.98,2.08,2.34.64,3.41,1.5,6.78,2.31,10.16.24,1.01.67,1.95,1.94,2.48,2.14-1.32,4.37-2.68,6.57-4.07,1.06-.67,2.21-1.27,3.11-2.13.95-.91,1.64-2.09,2.54-3.28,0-2.86-.1-5.91.04-8.95.07-1.58.55-3.14.9-4.7.3-1.35-1-3.32-2.42-3.62-3.04-.63-5.7-2.13-7.76-4.33-.91-.97-1.92-1.37-2.95-1.92-.39-.21-.85-.29-1.26-.49-1.69-.8-3.37-1.62-5.39-2.59-.21.93-.44,1.64-.51,2.36-.11,1.16-.07,2.33-.18,3.5-.16,1.71-.69,3.35-.46,5.15.16,1.25,2.04,1.88,1.09,3.41,1.56,2.1.6,4.32.35,6.68Zm-12.76,163.81c-.79-.93-1.67-1.52-1.84-2.26-.48-2.14-1.65-3.89-2.7-5.75-1.19-2.11-2.16-4.35-3.26-6.51-.46-.9-1.01-1.75-1.54-2.61-1.03-1.67-2.01-3.38-3.12-5-.55-.81-1.36-1.32-2.47-1.06-1.04.24-1.33,1.07-1.61,1.9-.41,1.19-.77,2.39-1.12,3.59-.11.38-.21.77-.22,1.16-.04,1.09-.04,2.17-.03,3.26.01,1.64.7,3.28.05,4.93,1.31,2.21.48,4.79,1.24,7.11.44,1.35.74,2.78.14,4.22-.1.24.05.62.14.91.61,2.09,1.24,4.18,1.89,6.37,1.54-.88,2.63-2.62,4.69-2.51.16,0,.37-.28.52-.47,1.68-2.08,4.45-2.6,6.31-4.41.99-.96,1.98-1.94,2.96-2.91ZM108.96,114.34c-.2-.19-.39-.38-.59-.57.89-.55,1.8-1.05,2.65-1.66.89-.64,1.42-1.54,1.27-2.68-.46-3.4.31-6.89-1.23-10.23-1-2.18-.98-4.72-1.65-7.07-.8-2.79-1.08-5.73-1.59-8.65-.82-.34-1.67-.79-2.33.23-.82,1.26-1.89,1.11-3.16.86-1.06-.21-2.21-.12-3.3,0-.94.11-1.39.85-1.2,1.75.77,3.68,1.43,7.36,1.02,11.16-.06.55.31,1.29.71,1.73,2.32,2.54,3.08,5.79,4.22,8.89.78,2.11,1.71,4.17,2.5,6.08,1.12.07,1.9.11,2.68.16Zm-21.85,137.87c-.1-2.3-.37-4.44.9-6.52.79-1.29,1.26-2.88,1.44-4.39.24-1.94.16-3.94.01-5.89-.18-2.35-.73-2.84-3.1-3.36-.3-.07-.59-.23-.89-.29-1.92-.35-3.72-1.77-5.82-.68-.17.09-.47-.03-.69-.1-.94-.3-1.68,0-2.39.65-.3.28-.81.4-1.24.45-1.29.13-2.32,1.13-1.86,2.25.81,1.98.36,4.45,2.3,5.99.16.13.2.42.3.64.62,1.35.97,2.94,1.91,4,1.29,1.47,1.39,3.22,1.92,4.91,1.96.18,1.65,2.06,2.36,3.18q2.34.43,4.84-.83Zm-1.69-162.03c-.79.49-1.29,1.01-1.53.91-1.79-.74-2.65.63-3.86,1.42-1.17.76-2.6,1.39-3.97,1.51-1.23.1-2.11.65-3,1.21-2.01,1.28-2.18,2.31-.87,4.36.76,1.19,1.67,2.29,1.61,3.82,0,.19.18.4.29.58.99,1.59,2.44,2.89,2.96,4.78.05.19.26.49.39.49,1.18-.02,1.16.74,1.22,1.6.03.36.53.68.82,1.01.26.29.59.54.82.86,1.22,1.68,2.42,3.38,3.88,5.42.54-1.25,1.1-2.02,1.16-2.83.14-1.78.05-3.57.03-5.36-.03-2.68-.36-5.4-.02-8.03.33-2.56-.52-5.04,0-7.57.25-1.18.04-2.45.04-4.18Zm-42.08,25.52c1.5.77,2.97,1.17,3.93,2.09,2.16,2.07,4.82,2.62,7.55,3.04,1.04.16,2.14-.08,3.19-.13.17-3.2.6-6.11.41-8.99-.18-2.88.6-5.77-.2-8.63-.99.42-1.98.85-2.55,1.09-.83,1.09-1.33,1.98-2.05,2.63-1.05.95-2.26,1.73-3.39,2.59-1.11.85-2.1,2.04-3.36,2.48-1.96.69-2.71,2.15-3.54,3.82Zm199.77,112.45c-1.92,3.15-3.93,5.79-4.93,9.06-.98,3.2-.1,6.4-.72,9.78,4.37-4.07,8.58-7.81,11.52-12.56-2-2.14-3.82-4.09-5.88-6.28Zm30.88-131.59c-.2.11-.39.21-.59.32-.1.84-.2,1.68-.3,2.54.44-.02.73-.04,1.03-.05.27,2.74,2.44,3.47,4.64,4.26-.24-.98-.53-1.94-1.1-2.69-1.15-1.52-2.44-2.92-3.68-4.38Z" style="stroke-width: 0px;"/>
      <path d="m268.44,200.88c-.61.54-.92.82-1.1.98-1.24-.67-2.09-1.12-2.93-1.57q.67-.86,4.03.59Z" style="stroke-width: 0px;"/>
    </g>
  </g>
</svg>