<?xml version="1.0" encoding="UTF-8"?>
<svg id="Layer_2" data-name="Layer 2" xmlns="http://www.w3.org/2000/svg" viewBox="0 0 876.82 897.05">
  <g id="Layer_1-2" data-name="Layer 1">
    <g>
      <path d="m827.34,249.73c1.06-.33,2.12-.65,3.22-.99,7.62,10.53,14.47,21.49,18.08,34.33,1.7-3.96,2.03-7.55.11-11.88-1.4-3.16-.39-7.3-1.1-10.88-1.22-6.11-2.03-12.4-5.48-17.84-.09-.14-.33-.24-.32-.36.25-4.34.52-8.67.87-14.38-.99-2.45-2.53-6.5-4.28-10.45-.72-1.62-2.27-2.9-2.81-4.55-1.67-5.13-3.21-10.31-4.4-15.56-.32-1.42.51-3.35,1.36-4.71.71-1.13,2.21-1.77,3.39-2.66-.5-.55-.8-1.03-.92-.99-1.84.64-4.62,2.44-5.3,1.84-2.78-2.45-5.23-5.45-7.07-8.67-.5-.87,1.53-3.2,2.63-5.3-1.1-.57-2.81-1.5-4.55-2.36-1.8-.89-3.63-1.71-5.45-2.56.64-.66,1.28-1.33,1.92-1.99,2.08-2.21,4.16-4.43,6.24-6.64,0,0-.03,0-.03,0,1.14,1.73,2.27,3.47,3.52,5.38,3.89-1.62,6.81-.91,8,4.45-1.57.29-3.11.57-4.89.89,1.88,2.08,3.9,5.18,6.69,7.21,5.31,3.86,7,6.89,5.76,13.23,4.96,1.37,6.01,4.66,6.18,9.79.12,3.73,3.19,7.59,5.53,10.98,3.27,4.73,3.22,6.38-1.65,9.67.95,4.26-2.02,10.46,5.13,11.09,1.41,4.49,2.67,8.51,3.97,12.69-3.21.87-5.13,1.38-6.71,1.81,3.62,3.7,6.98,7.12,10.85,11.08-2.19,1.13-3.36,1.73-4.7,2.42.5.69.78,1.04,1.02,1.43.66,1.06,2.04,2.88,1.83,3.08-2.55,2.54-.8,3.29,1.03,5.33,2.47,2.76-.37,4.02-4.73,4.64,3.62,2.52,6.25,4.35,8.77,6.11v18.29c.45,0,.9,0,1.35,0-.96.6-1.91,1.2-2.87,1.79,1.07,1.45,2.14,2.9,3.66,4.97-.5,1.19-1.31,3.08-2.18,5.15.64.8,1.45,1.82,2.38,2.98-1.64,1.97-8.19-.98-5.39,5.81.91-1.19,1.44-1.89,2.42-3.16.39,3.04,1.93,6.59.82,7.9-3.34,3.94-1.04,7.46-.57,11.2.12.98.19,2.5-.38,2.96-2.66,2.14-1.65,4.97-2,7.62-.39,2.91-1.59,5.71-2.17,8.61-.35,1.79-.88,4.04-.14,5.46,1.91,3.66,3.37,6.97,1.09,11.08-.5.91,1.02,2.76.94,4.14-.06,1.08-1.16,2.09-1.47,2.59,1.45,2.19,2.87,4.32,4.76,7.17-4.67.59-6.4,2.13-4.97,5.7.22.55-.3,1.44-.03,1.93,4.59,8.33,1.78,15.79-2.74,22.86,3.06,4.18,4.46,7.95,1.51,12.93-.94,1.59,1.37,5.1,2.24,7.88-.44.05-1.51.18-1.73.2-.57,2.97-1.06,5.52-1.49,7.74,4.26,3.63,8.64,7.02,12.6,10.83,3.38,3.26,2.59,5.64-1.79,7.14-1.67.57-3.25,1.41-4.87,2.13.45.33.89.67,1.34,1-.85,1.52-1.96,2.95-2.46,4.57-.4,1.29-.24,2.85.03,4.22.33,1.64,1.04,3.21,1.72,5.19-1.78.14-2.75.29-3.72.28-4.18-.06-4.07,2.02-2.29,4.73,3.97,6.07,2.31,11.76-.07,18.04-2.24,5.92-2.83,12.47-4.09,18.75-.12.61.41,1.41.2,1.95-1.96,5.08-4.11,10.09-6.01,15.19-.77,2.08-1.27,4.31-1.52,6.52-.18,1.57.28,3.22.47,5.04-4.48-2.26-4.48,1.93-5.01,3.57-.77,2.37-.2,5.17-.2,8.82-2.64,1.82-4.48,9.74-2.5,16.5-4.14.52-6.44,2.44-6.31,7.15.06,2-1.96,4.06-3.24,6.5,3.87,2.22,3.86,4.93.71,9.48-2,2.89-.96,7.8-1.59,11.76-.3,1.88-1.3,3.65-1.98,5.48-5.72-.28-6.27.68-4.09,6.02.43,1.05-.06,2.94-.81,3.92-1.69,2.21-2.62,3.89.62,5.48.56.28.68,1.46,1.01,2.23-.9-.11-1.82-.12-2.69-.33-2.58-.62-5.14-1.31-7.71-1.97-.12.43-.24.86-.36,1.29,2.3.7,4.6,1.4,6.99,2.12-1.76,1.5-3.46,2.95-5.8,4.94,1.67,1,3.01,1.8,4.68,2.8-2.52,3.62-10.7,4.99-6.08,12.52-.92.04-1.84.08-2.98.14.36,1.11.7,2.14,1.14,3.49-8.57,1.83-7.92,10.36-12.48,15.66-.53-.08-1.78-.26-2.86-.41-1.03,2.04-1.95,3.85-3.05,6.03.97,1.13,2.11,2.46,3.64,4.24-8.8,3.19-8.64,12.17-12.55,18.95-3.06-2.7-5.9-2.89-8.66,1.64,2.76.15,4.9.27,8.38.46-2.13,1.83-3.15,2.7-4.38,3.76.92,1.28,1.86,2.59,3.46,4.83-3.14,1.63-6.05,4.25-9.07,4.38-2.97.13-4.9.05-6.27,2.99-.47,1-1.95,1.54-3.53,2.7,2.67.93,4.94,1.72,6.54,2.28-2.57,4.69-4.81,8.79-7.22,13.19-.72-.39-1.96-1.04-2.92-1.55-6.69,3.88-3.42,10.17-4.43,15.45-1.15-.38-2.46-.81-4.87-1.59,1.05,1.94,1.59,2.93,2.38,4.38-2.59,1.85-5.27,3.77-8.31,5.95-.27-.19-1.14-.79-2.11-1.47-.28,5.2-4.77,5.5-7.88,6.95-2.88,1.34-3.56,2.16-.63,4.03,3.24,2.07,2.12,3.88-.68,4.79-2.58.83-5.41.92-7.39,1.22.12,1.75.26,3.68.43,6.08q-9.22-2.81-11.22.69c3.41.82,8.79-.97,8.32,4.32-6.02,2.32-11.57,4.46-17.87,6.89,1.9,1.47,3.12,2.42,4.41,3.42-6.76,4.7-7.76,15.76-18.52,16.21.95.26,2.21.25,2.74.86.46.54.37,2.49.04,2.62-2.58,1.05-5.27,1.8-7.92,2.65-1.44.46-2.88.95-5.29,1.74,2.2,1.55,3.17,2.24,4.68,3.31-4.2.82-7.72,1.51-11.57,2.26.84,1.77,1.6,3.37,2.44,5.13-2.78,2.37-5.5,4.7-8.23,7.03-2.97-5.29-9.1-4.56-13.06.46-2.54,3.22-3.12,8.43-8.98,7.82-.21-.02-.69.73-.74,1.17-.75,5.92-5.93,6-9.94,7.7-1.98.84-3.88,1.94-5.6,3.21-.32.23.39,1.85.63,2.84-13.71,4.8-27.43,9.6-41.19,14.41-.95-2.08-1.55-3.4-2.32-5.07-1.81,1.06-3.7,1.65-4.82,2.93-5.04,5.77-12.77,3.8-18.8,6.71-.98.47-2.69-.59-5.45-1.29-2.43,2.09-7.14,2.83-11.75,4.28-8.71,2.74-16.99,1.01-25.55.94-9.11-.07-18.23,1.87-26.14,2.79-1.79-2.07-3-3.47-4.08-4.73-1.51,2.15-2.5,4.45-3.2,4.37-1.98-.24-3.83-1.46-6.68-2.71-5.48,4.06-12.39,4.75-19.28.5-.42.44-.95,1.48-1.46,1.47-3.54-.06-7.08-.33-10.62-.53-.17,0-.37.05-.49-.03-5.24-2.94-11.27-.67-16.74-2.54-2.87-.98-6.06-1.03-9.12-1.42-4.9-.63-9.84-.95-14.69-1.84-6.96-1.28-13.85-2.96-20.78-4.47.26-1.04.47-1.9.89-3.62-5.71,3.68-10.01,2.41-13.6-2.34-1.57,1.22-2.98,2.31-4.39,3.41.03-.36.06-.72.1-1.07-2.64-.29-5.27-.58-7.91-.86-.16-.02-.36.1-.49.04-6.86-3.41-14.14-.47-21.11-1.42-6.7-.92-13.28-2.76-19.93-4.1-3-.6-6.1-.75-9.05-1.5-1.84-.47-3.49-1.69-4.29-2.09-4.2,0-7.98.81-11.22-.16-8.08-2.41-15.91-5.69-23.89-8.46-1.56-.54-3.45-.81-5.04-.48-3.54.73-11.12-2.12-13.97-4.91-1.21-1.18-3.68-.99-5.49-1.66-2.54-.94-5-2.11-7.5-3.17-2.99-1.27-6.03-2.42-8.96-3.83-5.63-2.71-11.5-5.09-16.7-8.48-4.62-3.02-8.47-7.23-12.66-10.92-.25-.22-.38-.65-.64-.74-11.05-3.61-15.36-15.01-24.33-21.07-5.32-3.59-10.24-7.75-16.01-12.17.74-5.92-1.76-10.55-9.31-11.31-.3-.03-.71-.2-.86-.44-2.61-4.21-5.14-8.45-7.78-12.64-1.11-1.76-2.11-3.74-3.65-5.04-4.45-3.75-8.08-7.96-9.67-13.69-.69-2.49-1.55-4.93-2.5-7.95-2.38.61-4.03-.05-4.07-4.13-.02-1.99-2.62-4.56-4.7-5.78-3.5-2.05-4.78-5.73-2.38-10.18-.93-.52-2.22-.8-2.75-1.59-2.65-4.02-5.09-8.17-7.63-12.27-.33-.53-1.2-1.03-1.13-1.44.91-5.93-2.16-10.18-5.66-14.38-.98-1.18-1.05-3.07-1.74-4.54-.75-1.62-1.8-3.1-2.58-4.71-.46-.95-.67-2.03-.97-3.06-.4-1.4-.41-3.73-1.21-4.04-4.11-1.58-3.44-5.56-4.9-8.46-1.28-2.53-3.17-4.75-4.72-7.15-2.57-4.01-5.12-8.03-7.59-12.1-1.21-1.99-2.24-4.1-3.74-6.88,2.51-3.28-.86-6.7-3.06-9.91-3.34-4.9-3.93-9.47-.32-14.63-8.74-5.39-8.27-15.76-12.47-23.84-1.55-2.99-2.38-6.62-2.53-10.01-.22-4.88-3.22-7.68-5.88-11.2-2.75-3.64-4.55-8.29-5.65-12.77-.52-2.12-.79-4.18-1.49-6.39-1.68-5.26-5.45-10.5-2.72-16.58.11-.25,0-.67-.13-.96-1.9-4.39-3.83-8.76-5.77-13.21.53-.32,1.18-.71,1.82-1.1-.19-.38-.27-.84-.49-.92-3.79-1.39-4.95-3.91-4.83-8.03.06-2.15-1.85-5.03-3.72-6.44-4.87-3.66-5.63-5.41-2.77-11.31-2.45-.28-5.47.23-6.85-1.04-1.1-1.02-.22-4.19-.22-6.88-4.08-1.65-6.87-5.35-7.71-10.9-.77-5.1-2.67-10.06-3.15-15.17-.25-2.63.9-5.89,2.5-8.08,3.08-4.23,6.99-7.84,10.39-11.85,1.03-1.22,1.52-2.89,2.26-4.36h-5.33c.5-2.34,1-4.67,1.32-6.13-2.19-2.51-3.95-4.53-5.76-6.6-.55.36-1.52.99-2.48,1.62l.12.11c-.85-4.22.85-7.76,2.16-11.72,3.87-11.77,6.68-23.9,9.89-35.89,2.43-9.08,4.88-18.16,7.25-27.25.58-2.21.79-4.52,1.4-6.72.98-3.55,1.89-7.15,3.3-10.54,2.32-5.57,5.02-10.98,7.09-16.76-.68.75-1.36,1.5-2.04,2.25-.5-.1-1.01-.2-1.51-.3,1.45-8.86,2.9-17.73,4.35-26.59-.48-.11-.96-.22-1.43-.33-.88,1.78-1.75,3.56-3.28,6.67-1.65-3.49-2.81-5.93-3.97-8.36-.4.2-.81.39-1.21.59-1.48,5.27-2.96,10.55-4.41,15.69.53,1.65,1.16,3.6,1.55,4.8-2.44-1.04-4.81-2.06-6.89-2.94.97-4.32,1.81-8.91,3.1-13.37.59-2.05,2.07-3.85,3.43-6.28-1.54-3.37-.2-6.56,3.63-8.19.51-2.96.55-5.61,1.44-7.93,4.18-10.95,8.37-21.9,13.04-32.64,1.47-3.39,4.46-6.12,6.99-9.48-3.4-2.34-1.7-5.29.18-8.98,3.4-6.65,5.96-13.73,8.92-20.61,1.1-2.57,2.61-4.98,3.47-7.62,1.2-3.67,3.03-7.59,2.65-11.19-.42-4.01-.03-6.7,4.09-8.78-1.05-.66-1.62-1.25-2.28-1.38-5.8-1.13-5.77-1.76-3.79-7.27,1.62-4.51,2.11-9.44,2.87-14.22.32-1.97.05-4.03-.54-5.74-.36-1.07-1.23-2.27-1-3.19,2.41-9.37,6.26-17.96,12.91-25.28,4.39-4.83,7.66-10.69,12.07-15.49,5.66-6.15,11.93-11.75,18.03-17.49,2.09-1.96,4.3-3.89,6.74-5.36,1.89-1.13,4.23-1.51,7.32-2.54,1.7-3.92,5.4-5.44,10.85-3.73,1.9.6,4.21-.2,6.33-.16,1.16.02,2.76.06,3.38.77,1.94,2.24,3.64,3.23,5.94-1.66.27.95.55,1.9.82,2.85-1.75,2-3.49,4.01-5.91,6.78,3.56-1.65,6.3-2.93,9.47-4.39.1-3.53,1.5-7.53,5.83-7.2,2.95.22,5.69,3.13,8.71,4.95-.56-1.86-4.56-4.62,1.14-5.55-1.62-.94-2.72-1.59-4.06-2.37,5.7-5.88,12.09-9.66,20.23-11.07.38-3.26,1.83-5.44,6.76-6.23,3.89-.62,7.15-4.68,10.94-6.75,1.88-1.03,4.34-.97,6.51-1.49,3.18-.77,6.54-1.19,9.47-2.53,5.59-2.54,9.7-8.79,17.24-6.38.64.21,1.91-1.53,1.98-1.6h12.34c-.16-.23-.31-.46-.47-.69,1.45-.71,2.94-2.08,4.36-2,4.78.27,9.06-.55,13.52-2.58,3-1.37,6.94-.53,10.4-1.04,7.47-1.1,14.88-2.65,22.37-3.59,6.5-.82,13.43-3.4,18.65,3.69.81,1.09,3.86.53,6.53.8-.79-2.08-1.34-3.51-2.17-5.66,3.99-.51,7.63-.97,11.4-1.45-.15.77-.3,1.51-.7,3.53,2.97-.8,5.4-1.52,7.87-2.08.9-.2,2.29-.42,2.77.06,4.59,4.54,9.95,4.32,15.76,3.32,2.27-.39,4.78.8,7.2.98,4.38.32,8.78.55,13.18.55,3.03,0,6.08-.34,9.09-.72,1.99-.25,3.97-.75,5.91-1.3,6.21-1.78,12.35-3.32,18.99-2.63,4.09.42,8.51-1.38,12.45-.57,4.41.91,7.42.22,11.49-1.81,5.24-2.61,11.67-2.84,17.59-4.06,10.82-2.24,21.65-4.43,32.46-6.69,3.22-.67,6.59-2.56,9.55-2.03,4.33.78,7.99-1.37,11.51-1.45,9.9-.22,19.52-5.7,29.62-1.83.8.31,2.05-.78,3.13-.88,1.7-.16,3.43-.1,5.14-.01,1.34.07,2.66.4,3.99.45,1.41.05,2.84-.09,4.25-.17,2.11-.13,4.22-.46,6.32-.38,3.06.12,6.1.67,9.16.81,8.59.39,17.31-.15,25.72,1.24,6.35,1.04,12.23,4.69,18.46,6.74,2.78.92,5.92.8,8.9,1.08,4.5.43,9.04.55,13.49,1.25,5.46.85,9.37,3.52,8.45,9.25,2.55-1.83,4.97-3.57,8.02-5.75.25,3.65-.78,7.49,4.58,5.43,2.14-.82,5.04.27,3.87,3.32,3.02.54,6.07,1.08,9.12,1.61l-.02,1.42c-2.79,2.23-5.58,4.46-8.45,6.75.4.32,1.02.83,1.86,1.52-.68.45-1.12.96-1.41.89-2.51-.6-5.2-.9-7.42-2.08-3.08-1.64-5.45-2.47-8.77-.05-1.13.83-4.35-1.21-7.07-2.08,1.14-1.66,1.99-2.92,2.91-4.25-4.16-1.21-7.29-1.42-9.99,2.78-1.89,2.93-10.55,2.25-12.09-.29-.57-.93-.74-2.11-1.11-3.23-.85.06-1.93.14-3.35.24.62-1.68,1.1-2.96,1.93-5.19-5.13-.34-9.72-.64-14.31-.94-.18.45-.36.89-.55,1.34,3.35.61,7.41.68,4.93,5.7-.09.19,1.71,1.62,2.8,2,1.79.64,3.71.9,6.17,1.45-4.49,2.99-4.98,3.05-12.09,1.51.39,1.61.71,2.92,1.03,4.23-3.38-.38-6.56-.25-8.37,4.07,2.77-.64,5.55-1.27,8.32-1.91-1.88,2.53-5.96,5.47,1.27,6.24.62.07.97,1.63,1.69,2.19.5.39,1.42.25,2.15.34v-3.14c3.09-.52,5.95.23,8.47,3.69,1.35,1.86,4.27,2.58,6.48,3.82-2.34,3.17-4.78,6.47-7.58,10.26-1.31.11-3.64.3-6.98.57,6.03,3.55,9.19,2.91,13.67-2.4,1.88,3.63,3.65,7.04,5.74,11.06,2.98-3.72,4.93-6.68,8.82-1.94,1.67,2.04,5.68,2.22,8.67,3.13,3.69,1.13,7.91,1.39,10.99,3.41,3.44,2.26,6.13,2.35,9.66.28-.2-.64-.56-1.35-.6-2.07-.05-.76.21-1.54.33-2.31.59.32,1.15.73,1.78.93,1.4.45,3.36,1.58,4.16,1.05,6.66-4.43,8.93-4.52,16-.22,1.21.74,2.83.8,5.15,1.41v5.99c2.46-.76,4.78-1.8,7.2-2.13,1.85-.25,3.84.33,5.74.69,1.95.37,3.87.94,6.23,1.52.87,3.12,1.35,7.57,7.26,6.19.44-.1,1.18,0,1.42.31,3.69,4.52,9.67,6.22,13.24,10.94,1.14,1.5,3.06,2.41,4.75,3.68-2.74.99-6.24,2.45-2.78,6.7.82,1.01,2.04,1.91,3.26,2.34,4.28,1.49,8.65,2.74,12.98,4.1.31.1.65.27.85.51,3.82,4.75,7.61,9.51,12.05,15.06-8.36,1.58-9.07-6.21-13.91-7.71-2.65,1.94-7.49.89-9.04-2.13-1.12-2.17-3.71-3.3-6.46-3.19-1,.04-2.04-.67-3.05-1.09-1.44-.6-2.86-1.24-4.3-1.86-.42.62-.85,1.24-1.27,1.86,2.66,2.38,5.28,4.82,8,7.14,2,1.71,4.14,3.26,6.19,4.9.38.31.63,1.04.99,1.08,7.31.7,10.62,6.69,15.36,10.97,1.36,1.23,5.79.49,7.89-.82,5.5-3.44,7.87-3.67,9.95-.13-4.63,1.47-9.48,3-15.47,4.9,1.51,1.33,3.41,2.95,5.24,4.63,3.99,3.67,8.42,6.99,11.78,11.16,3.47,4.31,8.21,7.63,9.85,13.62.79,2.9,4.72,4.81,6.59,7.6,2.93,4.36,7,8.93,7.4,13.69.34,3.95,3.71,5.89,3.5,9.47-.21,3.62-.27,7.25-.26,10.88,0,1.02.23,2.68.83,2.94,4.1,1.81,3.03,4.9,2.17,7.94,5.8,1.55,11.3,10.93,10,16.9.91.05,1.81.1,3.06.16-.59,2.05-1.09,3.77-1.59,5.49-1.53-1.13-3.53-1.96-4.49-3.46-1.69-2.66-2.5-5.87-4.15-8.57-1.56-2.55-3.73-4.74-5.63-7.08-.5.2-.99.4-1.49.59.24,1.55.14,3.26.78,4.63,5.72,12.36,11.19,24.86,17.54,36.9,3.25,6.16,4.3,13.59,9.95,18.41,1.13.96,2.68,1.44,4.04,2.14.11-1.44.7-3.04.26-4.29-3.18-9.05-9.77-16.75-10.53-26.77-5.25-2.63-4.92-8.1-6.42-12.63Zm-98.52-147.38c-2.79,3.46,1.46,4.75,2.62,5.47,1.94,1.19,4.89.73,8.36,1.05-1.19-2.52-1.69-3.6-2.2-4.67-.29.45-.58.91-.87,1.36-2.67-1.04-5.35-2.08-8.02-3.12.97-1.05,1.94-2.11,2.92-3.18q-7.81-6.02-15.6-5.43c1.15,1.44,2.1,2.65,2.14,2.69,2.46-.41,4.91-1.19,5.13-.78.96,1.79,1.27,3.93,1.9,6.25.73.07,2.19.21,3.63.37Zm-558.37,49.42l-6.93.3c.31,1.47.62,2.94.91,4.36-.54.24-1.58.69-2.62,1.14-.02.47-.05.93-.07,1.4,3.06.96,6.12,1.92,9.17,2.89.35-.48.7-.96,1.05-1.44-1.34-1.73-2.68-3.46-4.05-5.24.79-1.18,1.59-2.37,2.38-3.55,2.11.26,4.22.51,6.57.8-.38-5.39-3.82-3.93-6.28-4.3-.05,1.22-.09,2.43-.14,3.65Zm28.92,23.03c-4.1.5-8.21.99-13.03,1.57-.75-.55-2.31-1.69-3.86-2.82,1.74-.45,3.48-.91,5.72-1.49-1.59-4.69-.49-8.36,4.73-10.76,1.72-.79,2.34-4,3.72-6.59,5.41-1.11,5.7-10.4,12.57-9.5-2.57-7.15-4.89-13.59-7.12-19.79-1.33.95-3.24,3.13-5.57,3.79-4.83,1.36-4.77-3.28-6.18-6,3.05.11,6.1.23,9.15.31.03,0,.07-.55.1-.84-1.14-.63-2.29-1.27-2.43-1.34,2.59-1.56,5.37-3.03,7.77-4.95.27-.22-1.53-3.03-2.5-4.88-.5,2.43-.84,4.09-1.21,5.92-1.96-1.57-2.99-2.39-4.01-3.21-.21,1.04-.07,2.51-.7,3.02-1.32,1.07-3.04,1.68-4.63,2.39-.91.41-1.89.64-2.84.96-.2-1.01-.4-2.02-.6-3.03-.52.05-1.05.1-1.57.15-.14,2.33-.27,4.65-.43,7.33-3.01-.92-5.78-1.77-9.36-2.86.39,2.17.85,4.67,1.46,8.07-1.55.22-3.93.27-6.11.95-1.37.43-2.46,1.79-3.67,2.74,1.22.44,2.44.88,3.65,1.34.45.17.92.63,1.31.56,3.75-.69,7.49-1.46,11.42-2.25.5,1.23,1.37,3.39,2.34,5.78h-5.09c3.01,2.95,5.87,5.77,9.21,9.05-2.23,1.28-3.48,1.77-4.45,2.6-.97.82-1.49,2.56-2.5,2.84-1.26.34-3.37.06-4.09-.8-.74-.9-.24-2.81-.31-4.28-.13-2.53-.72-4.64-4.67-5.01,1.79,5.35,3.27,9.8,4.74,14.2-1.32.22-3.06.5-5.17.85.52,1.66.94,2.99,1.21,3.87,2.71.33,4.93.6,8.49,1.03-4.38,1.31-7.25,2.16-10.18,3.03,1.08,2.04,1.72,3.25,2.65,5-3.57.5-6.46.9-9.36,1.3,0,.35.01.71.02,1.06.92.53,1.85,1.06,2.27,1.31-2.51,2.74-5.37,4.95-6.79,7.86-.58,1.18,1.53,4.63,3.25,5.63.99.58,3.63-1.67,6.06-2.92-1.99-1.67-3.26-2.74-4.88-4.1,2.86-.58,5.5-.47,7.3-1.64,2.76-1.8,4.95-4.48,7.37-6.78-.31,5.21,1.91,7.34,8.37,8,5.09.52,7.54-1.49,8.27-6.79,2.02-.37,4.04-.74,7.33-1.34-2.86-1.43-4.31-2.15-5.57-2.78,1.37-1.65,2.43-2.93,3.49-4.2-.35-.29-.7-.58-1.05-.87-4.04,1.95-4.92,5.26-4.05,9.34Zm-17.16-79.59c-2.69-.7-5.39-1.41-8.97-2.34.27,3.09.49,5.48.58,6.59-1.83,1.53-3.12,2.61-4.42,3.7.37.47.75.94,1.12,1.41,5.75-2.6,11.51-5.21,17.42-7.89-2.59-.66-4.22-1.07-5.89-1.51,1.03-1.38,2.97-2.82,2.88-4.12-.17-2.49-1.11-5.35-6.08-3.98,1.15,2.8,2.26,5.47,3.36,8.15Zm283.25,720.63c-3.16,1.17-6.31,2.34-9.47,3.51-1.27-2.04-2.55-4.09-4.39-7.04-.82,3.88-1.45,6.82-2.15,10.17-2.21-1.49-4.04-2.72-6.32-4.25-.95,2.52-1.39,5.42-2.97,7.43-1.89,2.39-4.72,2.87-6.67.22-5,1.81-9.77,3.54-14.92,5.41,1.44-9.98-2.77-13.63-14.68-11.97,2.42,1.45,4.41,3.19,4.91,2.84,4.67-3.29,5.05.68,6.91,3.88-2.16.16-3.57.26-5.78.42,2,1.76,3.33,2.93,4.67,4.11-1.53.75-2.81,1.01-3.38,1.79-.32.43.6,2.53.86,2.51,2.89-.23,5.75-.72,9.31-1.24.09.98.23,2.55.53,5.86,2.24-3.29,3.69-5.42,4.48-6.57,2.19,2.6,4.6,5.47,7.31,8.68-.35.89-1.06,2.66-1.67,4.21-5.06.27-9.85.6-14.64.75-1.47.05-2.97-.25-4.41-.58-3.3-.75-6.53-1.99-9.87-2.34-5.61-.6-11.28-.74-16.92-.93-5.55-.19-11.15-2.95-16.74.32-.29.17-2.31-2.6-3.52-4,3.48-1.55.48-3.44-.29-4.11-1.1-.96-3.04-1.08-4.65-1.29-3.29-.44-6.6-.68-9.9-1.04-1.14-.12-2.37-.75-3.38-.48-4.57,1.22-7.74-.73-10.14-4.24-3.19,1.46-6.13,2.81-9.26,4.25-.32-1.47-.68-3.11-.91-4.18-3.19-.59-6.87-.17-8.33-1.78-2.37-2.61-4.16-1.75-6.47-.89-1.47-1.86-2.93-3.73-5.34-6.78-.87,2.9-2.47,6.04-1.85,6.58,2.01,1.72,4.86,3.35,7.27.03-.82,1.76-1.65,3.52-2.45,5.24h11.29c-1.73,3.05-3.03,5.32-4.32,7.59.18.43.35.86.53,1.29,12.2-8.04,19.45,3.44,30.08,5.64,7.12-4.35,11.73-1.98,13.33,7.95-10.43,1.1-20.89,2.21-31.48,3.33-.17-.56-.57-1.86-.73-2.37-2.35.36-4.33,1.25-5.94.8-5.29-1.45-10.58-3.06-15.59-5.25-3.4-1.49-5.99-2.56-7.93,3.39-1.58-3.35-2.6-5.5-3.45-7.29-3.31-.9-6.67-1.82-10.08-2.75-.25,1.58-.44,2.72-.8,4.99-3.32-3.54-1.22-9.27-6.7-10.33-4.06-.78-7.9-2.74-11.81-4.16.87,2.19,1.62,4.1,2.7,6.82-1.39-.69-1.87-.83-2.23-1.11-3.84-2.96-12.05-1.22-10.69-9.86.01-.09-.84-.31-1.28-.49-3.87-1.66-7.74-3.32-11.72-5.03-.95,1.56-1.76,2.9-3.01,4.96-2.45-2.29-4.54-4.25-6.65-6.2-2.47-2.28-4.77-4.8-7.48-6.75-4.03-2.91-8.72-4.98-12.45-8.2-4.59-3.96-7.99-9.2-13.06-12.78-2.58-1.82-4.99-3.99-7.11-6.33-3.11-3.45-7.09-6.43-3.14-12.34,2.24-3.36-2.34-8.02-7.83-7.69,2.13,2.62,3.92,4.83,5.7,7.02-3.15,4.33-3.34,4.29-11.43-3.09,1.92-3.91,3.92-7.97,6.21-12.61-1.93-.16-3.66-.59-5.3-.35-1.44.21-2.77,1.17-4.14,1.79,0-1.74-.61-3.79.09-5.17,1.48-2.92.58-3.65-2.09-5.11-2.26-1.25-3.49-4.37-5.18-6.66-1.43-1.03-3.86-1.57-6.29-1.61-.97-.02-2.88,1.27-2.8,1.62,1.04,4.59,1.1,10.33,3.97,13.3,2.5,2.58,5.61,4.51,6.88,8.15.56,1.62.56,3.58,1.5,4.9,3.65,5.1,6.01,10.44,4.33,16.91,2.65.44,5,.83,7.46,1.24-2.14,1.95-3.92,3.58-5.7,5.2.26.32.53.65.79.97.83-.32,1.67-.65,2.53-.99.27.9.54,1.8.81,2.7.31.22.63.45.94.67.29-1.1.58-2.21.99-3.76,1.41,1.89,2.15,2.48,2.33,3.21,1.42,5.63,4.8,9.23,10.38,11.08,8.46,2.79,12.93,10.61,12.56,18.22,1.1-.3,2.14-.58,3.21-.87-.42-.9-.72-1.54-1.02-2.18,1.86.3,3.08,1.07,4.15,2.03,5.78,5.18,11.46,10.47,18.77,13.58,4.73,2.01,9.31,4.37,13.98,6.54,6.26,2.9,12.38,6.22,18.86,8.52,7.25,2.57,14.82,4.22,22.26,6.23,3.6.97,7.17,2.15,10.84,2.72,4.62.72,9.33.78,13.97,1.41,3.4.46,6.72,1.73,10.12,2.01,5.46.45,10.98.3,16.46.61,1.43.08,2.8.97,4.23,1.35,2.2.6,4.41,1.27,6.65,1.58,3.93.53,7.94.58,11.85,1.23,5.42.9,10.78,2.12,16.13,3.36.41.1.53,1.47.8,2.24,4.35-3.71,7.41.54,10.98,1.66.34-.75.73-1.61,1.17-2.59,2.79,1.54,5.24,3.09,7.88,4.23.86.37,2.37-.03,3.27-.59,2.33-1.43,4.49-3.13,6.94-4.88.98,1.36,2.08,2.89,3.1,4.32,3.13-1.05,5.83-1.95,8.52-2.85.06-.45.12-.9.18-1.34-3.11-1.22-6.23-2.44-9.47-3.71q4.28-5.86,12.59-8.33c.61,1.66,1.21,3.3,1.91,5.22-3.51.68-6.7,1.3-9.89,1.92.15.31.31.61.46.92,4.06,1.17,8.12,2.34,12.18,3.51-2.86-7.03-2.21-10.09,2.14-12.4-.84-.97-2.38-1.98-2.53-3.16-.1-.77,1.69-2.11,2.88-2.62,1.27-.55,2.92-.18,4.25-.65,1.15-.41,3.06-1.63,2.96-2.17-.86-4.49,2.74-5.44,5.29-7.28,2.09-1.51,4.12-3.11,5.87-4.45,2.6,0,5.13.1,7.65-.02,3.9-.2,8.53-1.61,7.34,5.27-.08.46.39,1.01.83,2.06,1.11-7.05,2.54-8.3,9.39-9.38,1.31-.21,2.89-.87,3.59-1.86.37-.51-.6-2.59-1.5-3.26-1.49-1.11-3.77-1.27-5.06-2.51-2.64-2.54-5-2.47-7.36-.03-1.36-1.72-2.25-3.44-3.66-4.41-.89-.61-3.1-.64-3.76.02-1.27,1.28-3.11,1.88-4.02,2.7-4.45,4.07-6.21.87-9.48-3.38,4.01-.93,7.21-1.67,9.62-2.23,1.2-1.72,2.25-3.21,3.32-4.74,1.22.79,2.35,2,3.67,2.28,2.82.59,5.74.71,8.71,1.02-.14-.47-.52-1.73-1.1-3.67,6.98,6.71,9.6,7.43,14.25,3.43-2.59-1.24-4.77-2.45-7.08-3.34-3.03-1.18-6.16-2.11-9.25-3.15,5.31-3.14,10.62-6.29,15.93-9.43l-.66-1.53c-3.54,1.42-7.08,2.85-10,4.02-2.48-2.01-4.95-4.02-7.42-6.04.35-1.47.71-2.95,1.19-4.95,2.3,3.5,4.92,4.65,8.37,1.3-4.7-4.56-9.24-8.97-13.91-13.5-4.58.65-9.43,2.58-13.57,1.57-4.39-1.07-8.65-2.78-13.32-3.01,4.66-5.02,4.81-5.68,2.16-8.45-.75,1.4-1.82,2.83-2.25,4.43-.34,1.26.13,2.73.24,4.11-2.43.45-4.9,1.45-7.27,1.23-5.61-.52-9.62,1-10.71,5.92-2.31-2.08-4.15-3.74-5.45-4.91-3.08.28-5.93.54-9.3.85,1.18-2,1.9-3.22,2.16-3.65-2.67-.83-4.74-1.58-6.85-2.11-2.56-.64-4.66.69-5.38,3.03,1.63.25,3.28.51,5.19.8-.82,6.99-6.82,3.4-9.81,5.51-.69-1.64-1.23-2.91-2.37-5.58-1.81,3.43-3.01,5.72-3.91,7.43,3.48,2.72,6.42,5.03,9.99,7.81-2.16.58-3.07.83-4.32,1.16,3.83,2.86,7.63,2.08,10.6-1.73h12.68c.07-.35.28-1.36.22-1.07,3.22.66,6.01,1.23,8.79,1.8-.45,2.47-.91,4.94-1.53,8.29,4.82-1.38,9.15-.72,10.68-6.89-3.36-.46-6.32-.86-9.29-1.26.25-1.06.5-2.11.53-2.23,9.77-1.48,19.21-2.9,29.51-4.46-1.05,2.21-1.77,3.72-2.48,5.19-1.42-.38-2.53-.9-3.64-.91-1.28,0-3.32.06-3.68.77-.54,1.09-.32,2.95.28,4.13,1.11,2.19,11.02,4.36,13.66,3.27.27,4.25,5.08,4.37,6.04,3.58,2.13-1.74,6.12-3.6,3.95-7.87,1.06.1,2.12.2,3.18.3v8.06c.24-.05,1.27-.28,1.92-.42v5.55ZM325.37,131.94c1.11,1.42,2.08,3.86,3.36,4.03,2.46.33,5.2-.34,7.6-1.21.84-.3,1.52-2.46,1.4-3.7-.17-1.8-1.14-3.52-1.71-5.29-.36-1.13-.63-2.29-.94-3.43-1.22.63-2.53,1.13-3.63,1.93-2.05,1.49-3.97,3.15-6.49,5.18,0,.04.26,1.34.51,2.63-2.45-.45-4.89-.89-7.7-1.41.64,2.96,1.06,4.86,1.7,7.82-1.99-1.68-2.97-2.51-3.96-3.34-.37.33-.74.67-1.11,1,.97,1.15,1.78,3.06,2.93,3.3,3.55.72,7.32,1.1,9.63-2.77-.56-1.66-1.08-3.2-1.61-4.74Zm323.59-16.35l-1.06,4.15c.4.31.81.61,1.21.92,3.38-1.86,6.75-3.72,10.54-5.8-6.46-5.17-7.41-5.08-10.08.06-4.84-10.06-11.48-11.6-18.87-4.61,2.01.94,4.19,1.74,6.14,2.94,1.59.98,2.79,3.21,4.36,3.41,1.31.17,2.9-1.8,4.09-2.63-.32,1.13-.81,2.89-1.3,4.65.23.27.47.54.7.81,1.42-1.3,2.85-2.6,4.27-3.89Zm-227.59-40.99c.14-2.09-.33-4.01-2.88-3-1.58.62-2.73,2.32-4.07,3.54,1.72.29,3.43.75,5.15.79.63.01,1.29-.96,1.93-1.49v4.01c-4.18.38-7.97.36-11.57,1.18-2.51.57-4.76,2.3-7.12,3.51-4.89-.79-9.78-1.59-14.63-2.37v-5.95c-3.92,2.84-6.84,4.95-10.16,7.36.14-1.45.23-2.37.32-3.35-1.73.16-3.44.31-5.39.49-.25-1.73-.45-3.13-.64-4.44h-4.99c.78,2.54,1.53,4.72,2.1,6.94.33,1.29.35,2.66.5,3.99-2.66-.17-5.42-.02-7.93-.74-.65-.19-.34-3.16-.78-4.77-.43-1.57-.85-3.71-1.99-4.39-2.69-1.61-5.78-2.59-8.78-3.64-1.02-.36-2.24-.17-4.48-.3,2.6,1.99,4.15,3.17,6.13,4.69-1.58,1.51-2.39,2.29-3.19,3.05-1.13-1.23-1.98-2.15-2.73-2.97-1.43,2.53-2.71,6.41-3.78,6.36-3.97-.2-5.23,2.87-7.95,4.37,2.46,1.8,4.52,3.3,7.06,5.15.8-2.38,1.5-4.48,2.21-6.59,1.1.19,2.2.39,3.34.59-2.91,5.8,1.87,4.64,4.44,5.69.46-1.52.81-2.65,1.3-4.27,1.06,1.34,1.71,2.17,3.21,4.07v-5.87c1.6.36,3.18.71,3.74.84,1.13,3.02,2.03,5.44,3.18,8.52q-2.62,4.44-6.49,2.94c-.43,6.46-3.77,10.82-11.66,15.04-2.44-5.04,2.02-4.77,3.61-5.25-.26-2.77-.45-4.82-.67-7.14-1.61-.79-3.54-1.74-5.48-2.7-.21.31-.42.62-.64.93,1.3,1.12,2.61,2.24,4.18,3.58-.59.72-1.18,2.07-1.77,2.07-6.25-.04-7.88,4.78-10.04,9.15-1.43,2.88-1.5,2.85,1.19,4.51,1.87-2.52,3.7-5,5.53-7.47l1.48.62c-.41,1.69-1.31,3.45-1.1,5.07.22,1.72,1.5,3.31,2.45,5.25-1.52-.15-2.93-.28-4.1-.4-.37,1.82-.71,3.45-1.08,5.26,2.24.17,4.45.34,6.67.51l.2.86c-1.64.48-3.28.95-5.12,1.49-.67,3.51.76,4.45,4,2.6,1.41-.81,2.81-1.89,3.78-3.18,2.01-2.67,3.45-2.26,5.5.05,1.03,1.17,2.98,1.58,4.57,2.18,1.09.41,2.29.54,3.43.84,1.07.29,2.43,1.23,3.14.86,6.29-3.26,12.46-6.75,18.93-10.31,3.04,2.65,11.46,1.89,15.11-2.09-3.03-4.93-6.16-8.16-10.33-.84-.89-1.15-1.76-2.28-2.74-3.55,5.26-2.42,10.27-4.76,15.31-7.02,2.11-.95,4.3-1.73,6.56-2.63-2.01-3.1-3.21-4.95-4.1-6.32-1.97-.53-3.96-.49-4.96-1.46-2.21-2.15-3.92-4.81-5.84-7.26,0,0-.15.26-.15.26.94-.27,1.95-.41,2.8-.86.83-.44,1.49-1.21,2.22-1.83-.96-.33-1.92-.66-3.24-1.11.73-.79,1.21-1.67,1.96-2.07,2.17-1.15,4.44-2.1,6.7-3.09,5.57,3.99,9.39,4.48,11.72,1.55.69.65,1.42,1.91,2.06,1.86,3.92-.27,7.81-.84,11.67-1.31.69-5.77-3.56-7.88-6.85-10.61Zm-261.12,99.12c-1.05-.09-2.66.22-3.07-.35-2.93-4.03-2.85-4.09-7.18-1.75-3.95,2.13-3.95,2.32-.56,5.31.78.69,1.42,1.54,1.94,2.11-1.81.88-3.35,1.62-4.88,2.37-.13.56-.27,1.13-.4,1.69,7.39-4.51,4.2,3.43,8.05,5.36,3.33-3.43,6.65-6.87,9.59-9.89-1.73-2.37-2.67-3.67-3.61-4.96,2.06-2.18,4.36-4.19,6.04-6.63.57-.82.04-3.47-.8-3.99-2.32-1.45-5.07-2.22-7.68-3.27-.12.98.06,2.1-.4,2.81-2.07,3.22-3.27,5.93,1.91,7.39.66.18.72,2.49,1.05,3.81Zm334.58-56.9c-2.86-.72-5.73-1.44-8.59-2.16,3.84-.66,7.76-1.01,11.48-2.07,2.7-.77,3.25-2.87,1.25-5.49-3.69,3.17-7.24,3.33-9.98,1.16-.29-2.2-.04-3.72-.68-4.36-.77-.78-2.29-.81-3.49-1.16.13-.43.25-.85.38-1.28,3.35.91,6.7,1.82,10.36,2.81,1.59-.99,3.69-2.3,5.79-3.61,2.32,3.4,6.32,6.23,3.93,11.27-1.13.01-2.25.02-3.38.04.37,1.55.24,3.91,1.19,4.48,2.48,1.49,5.43,2.2,8.62,3.38.02-4.83-4.25-5.64-6.56-8.02,5.45-.14,10.67-.93,14.73-5.6-2.43-2.79-1.04-4.6,2.26-4.53,2.47.05,4.91,1.34,7.59,2.15q-.36-4.6-12.26-7.62c-.4.99-.8,1.98-.68,1.67-3.31-.26-5.84-.46-8-.64-.03-4-3.4-2.2-5.03-3.3-1.59,3.52-.24,5.11,2.76,5.84,1.13.27,2.39.37,3.31.97.86.57,1.56,1.63,1.9,2.62.14.43-.83,1.76-1.28,1.75-.99-.02-2-.56-2.94-1.02-2.12-1.05-4.2-2.19-6.3-3.29-.23-1.22-.46-2.44-.7-3.66-2.1,1.06-4.2,2.12-5.68,2.86-1.47-3.25-3-6.65-4.54-10.05-.33.09-.66.19-.99.28-.2,1.22-.4,2.44-.62,3.76-1.92.18-3.63.35-5.44.52v6.21c-4.67-3.5-8.99-5.7-13.2-1.34-1.74-1.34-3.1-2.39-4.52-3.48-3.05,2.86-5.72,5.35-8.96,8.39-1.96-2.34-4.29-5.12-7.15-8.53v16.04c-1.72.23-3.79.5-4.99.66-.75-4.69-1.45-9.07-2.06-12.88-2.53-.44-5.02-.15-6.19-1.26-1.32-1.25-1.44-3.76-2.08-5.73.57,5.08-3.06,7.93-4.96,11.42-.51-3.01-1.02-6.03-1.56-9.25-.5.24-.96.35-1.27.62-1.49,1.32-2.95,2.68-4.41,4.03,1.4,1.03,2.76,2.13,4.22,3.06.96.61,2.08.96,3.13,1.43-.28,1.03-.56,2.07-.83,3.08-1.58-.65-2.82-1.15-5.03-2.06,2.64,5.45,6.19,4.22,10.13,3.44-.34,1.86-.74,3.92-1.88,4.49-2.68,1.33-5.72,1.95-9.42,3.1,4.36-9.07-4.31-9.62-8.05-13.68,3.34,7.13-1.06,12.81-4.58,19.6,5.28-.25,8.95-.43,12.62-.6,2.45-.12,4.91-.18,7.36-.35,5.82-.41,11.64-.86,17.44-1.29-1.05.73-2.1,1.45-3.14,2.18,3.59,1.2,6.76.8,9.78,1.29,5,.81,9.9,2.23,14.86,3.32.76.17,1.85.22,2.39-.2,5.32-4.06,11.3-5.75,17.96-6.07,2.06-.1,4.02-2.19,6.03-3.35.63,1.63,1.3,3.24,1.89,4.88.67,1.85.83,4.82,2.04,5.33,1.82.77,4.37-.18,7.26-.46-1.29-2.79-2.08-4.5-2.87-6.21-2.22.03-3.62-.75-5-1.55-1.11-.65-2.21-1.31-3.32-1.97Zm199.47,609.07c-.86.26-2.2.27-2.48.83-1.24,2.45-2.18,5.05-3.22,7.59.19.39.38.77.57,1.16,1.43-.73,3-1.28,4.25-2.24,2.91-2.25,1.69-4.97.56-7.61,5.12,1.39,5.38-4.51,8.66-5.15,1.64.76,3.84,1.78,4.99,1.09,5.37-3.24,10.49-6.89,15.61-10.52,4.77-3.39,11.95-3.75,13.85-10.85.09-.34.82-.79,1.21-.74,7.13.8,8.85-4.99,11.78-9.45,2.07-3.15,1.06-4.8-.86-5.51-5.29,3.47-9.8,6.44-14.39,9.45-.86-1.2-1.49-2.09-2.86-4.02-.55,3.05-1.31,4.97-1.15,6.82.29,3.43-.96,5.03-4.27,6.07-3.29,1.03-6.28,3-8.31,4.01-.13,2.27-.2,3.55-.27,4.83-3.39-.48-4.76,2.23-6.73,4.12-.55.53-1.93.69-2.7.41-9.56-3.5-11.64-2.89-17.71,5.76,1.11,1.26,2.3,2.61,3.48,3.95Zm-62.11,68.58c-3.09,1.13-6.12,2.47-9.29,3.29-1.62.42-4.09.61-5.14-.3-4.71-4.07-10.63-.12-15.44-2.74-.13-.07-.67.29-.77.55-1.94,4.82-7.13,5.99-10.47,9.25-3.95,3.85-9,6.74-12.29,11.03-2.45,3.19-5.43,4.63-8.45,6.68-3.32,2.25-5.76,5.81-8.96,9.21,4.85.81,10.82-2.66,13.08-5.46,3.04-3.77,6.3-8.06,10.47-10.09,11.02-5.36,21.66-11.86,34.11-13.86,2.84-.46,5.51-2.46,8.3-2.57,3.81-.15,5.17-1.55,4.77-5.11.91.34,2.11,1.24,2.67.94,5.76-3.1,11.42-6.39,17.1-9.63-.38-.68-.76-1.35-1.14-2.03-6.18,3.61-12.36,7.22-18.54,10.83Zm147.84-123.56c.63-1,1.26-2.01,1.89-3.01-.49-.41-.99-.82-1.48-1.23-1.87,2.07-3.75,4.14-5.62,6.21.23.43.45.87.68,1.3,1.5-.08,3-.16,4.5-.25-.33-.58-.67-1.16-1-1.75.4-.46.79-.93,1.19-1.39,3.71,2.57,1.79,5.26.37,8.14-.83,1.68-1.01,3.69-1.7,6.42,6.43-2.63,20.45-28.49,18.92-32.73,4.56-1.63,19.09-32.58,18.9-41.88-2.07,2.1-3.39,3.12-4.31,4.42-2.41,3.41-5.88,6.28-5.17,11.3.15,1.07-1.44,3-2.67,3.55-3.61,1.62-2.74,4.74-3.22,7.52-.23,1.33-.97,3.56-1.71,3.66-4.27.56-4.28,3.17-3.69,6.36.18.97.14,1.99.2,2.98-.38.09-.75.18-1.13.26-1.02-2.4-2.04-4.79-3.05-7.19l-1.23.28c.09,2.01-.6,5.11.41,5.83,4.36,3.11.51,5.07,0,7.44-2.22-1.68-4.13-3.12-6.59-4.99-1,2.22-1.8,4-2.77,6.14,6.52-.47,7.87.47,8.16,3.87-1.54,1.46-3.13,2.24-3.3,3.26-.64,3.89-3.06,5.24-6.55,5.48ZM608.96,67.64c-.27,1.62-.54,3.24-.81,4.87.45.11.9.21,1.35.32,1.81-1.47,3.63-2.94,5.44-4.4-.1-.52-.21-1.04-.31-1.57l-5.13.35c3.12-6.33,2.81-7.9-3.31-10.19-3.27-1.22-6.96-1.35-10.43-1.96-.53,1.97-.99,3.66-1.5,5.57-1.45-.46-3.18-1.31-3.38-1.04-2.23,3.05-4.61.43-6.87.58-5.56.37-11.61.27-15.54,5.62-.48.66-1.73,1.24-2.47,1.09-.79-.16-1.78-1.12-2.01-1.93-.38-1.34-.21-2.83-.34-5.82-2.18,2.73-3.5,4.38-4.19,5.26-3.25.62-5.92,1.93-8.06,1.33-2.23-.63-3.94-3.1-6.49-5.28-.78,3.11-1.47,5.89-1.81,7.25-4.52,1.23-8.41,2.28-13.04,3.54,2.29,2.75,3.52,4.22,4.75,5.7,3.54-.41,6.84.15,10.07.95,3.29.82,6.52,1.88,6.32-3.42,1.29,0,2.12-.06,2.94.02.91.09,1.81.3,2.78.47-1.93,5-5.54,7.63-9.13,6.87-5.17-1.09-10.37-2.07-15.5-3.36-1.2-.3-2.17-1.63-3.16-2.58-2.89-2.79-5.71-5.65-8.62-8.41-.24-.23-.95.05-1.44.09-2.22.17-4.43.34-6.56.5-.92-5.38-4.06-1.6-5.35-1.56-1.68-1.47-2.84-2.47-4.39-3.83-2.24,2.87-4.18,5.35-6.46,8.28-2.01-2.48-4.1-5.05-5.95-7.33-.93,2.48-1.66,4.41-2.45,6.49,0,0,.57.35,1.33.81-10.17,1.27-16.04,7.98-11.4,15.17,1.02-3.95,1.76-6.84,2.4-9.29,8.5-1.38,15.45.51,18.51,9.84,1.16-.19,2.38-.39,3.6-.6l-.79,1.05c1.86,2.15,3.58,4.47,5.7,6.32.49.43,2.38-.75,3.73-1.22-.97-2.08-1.62-3.46-2.58-5.49,6.1.69,11.47,1.29,17.41,1.96.43.38,1.58,1.41,2.74,2.44l-.1-.13c1.83,2.66,3.56,2.68,6.06.48,1.97-1.74,4.54-3.02,7.06-3.88,4.05-1.38,8.27-2.25,12.65-3.39-.01-.02.14.89.67,1.45,3.7,3.95,16.13,4.18,19.8.22.53-.58.06-3.25-.41-3.39-1.62-.49-3.45-.3-5.2-.33-2.79-.05-7.44.86-8.01-.29-1.52-3.05-1.29-6.97-1.91-11.7,2.74,3.22,4.5,5.28,6.26,7.34.02-.63.04-1.26.06-1.89,2.43-1.18,4.85-3.31,7.29-3.33,5.38-.03,11.02-.59,15.95,2.76,1.77,1.2,3.93,1.82,7.07,3.21-1.78-2.81-2.86-4.5-4.52-7.13,7.3,2.39,13.22,2.39,17.71-3.41Zm89.47,35.08l.14.13c.03-2.97-2.09-4.95-4.34-4.14-3.73,1.35-7.01,3.95-10.6,6.09.51-3.48.99-6.72,1.55-10.54-2.25.16-4.58.33-6.34.46.21-2.57.47-5.68.76-9.32-9.35,7.53-18.57,8.53-28.27,3.07-1.43,1.58-2.7,2.97-3.97,4.37.45.17.91.34,1.36.51-.74,2-1.48,4-2.69,7.25-3.49-4.8-5.93-8.15-8.57-11.78.24-.39.9-1.49,2.01-3.34h-5.91c-.15-2.31-.28-4.18-.38-5.76-5.51,1.9-10.86,3.74-16.18,5.57-1.11-1.35-2.12-2.59-2.59-3.16-4.23.9-7.8,1.66-11.19,2.39-1.04-1.81-1.82-3.2-2.61-4.58-.52.19-1.05.38-1.57.56.31,1.75.62,3.5.99,5.62-4.95.26-9.87.53-15.34.82,0-.02-.19-.98-.77-1.41-1.19-.88-2.6-1.48-3.92-2.19.17,1.38.15,2.81.56,4.12,1.6,5.16,3.34,10.28,4.97,15.23,8.64-4.98,9.37-4.98,11.83-.34-1.49,1.41-2.78,2.63-4.07,3.85,3.71,2.36,7.33,4.91,11.19,6.98,1.56.84,3.68.63,5.7.92.03-.34.11-1.48.21-2.8,9.62,5.21,13.56,4.47,13.88-1.99-1.56.29-3.8,1.43-4.72.76-5.33-3.9-10.73-6.01-17.06-2.2-.66-5.96,1.73-8.08,6.49-6.41,1.34.47,2.73,1,4.12,1.07,5.44.25,10.89.45,16.33.44,5.23-.02,10.48-.17,15.69-.58,2.21-.17,4.35-1.17,6.47-1.78.98,1.06,1.92,2.08,3.15,3.43h-9.11c2.23,1.49,3.32,2.83,4.23,2.72,6.07-.78,10.78,1.42,16.1,4.44,11.23,6.38,23.33,11.25,35.07,16.72,2.37,1.1,4.77,2.13,7.16,3.19-.37-2.6-.32-5.35-1.2-7.76-1.36-3.7-3.37-7.16-5.16-10.85.24-.05,1.52-.35,4.26-.99-4.08-2.61-.81-9.24-7.67-8.76Zm-417.17,660.11c-1.9.43-3.79,1.14-5.71,1.21-2.27.08-6.14.22-6.52-.74-.82-2.14.11-4.95.32-7.36-2.29-1.7-5.3-3.94-7.28-5.41-1.5,1.48-3.59,3.63-5.83,5.61-.24.21-1.35-.56-2.59-1.12,1.3-.74,2.06-1.18,2.84-1.63-2.5-2.36-3.91-7.34-8.7-2.77-1.85-2.04-3.19-4.78-4.96-5.09-1.46-.25-3.42,2.38-5.16,3.73-.28-.22-.55-.44-.83-.65.62-1.3,1.24-2.6,2.01-4.22-1.39-1.18-2.93-2.48-4.47-3.79-.32.24-.65.48-.97.72.53,1.63,1.05,3.26,2.11,6.52-6.61-3.27-11.88-5.87-17.16-8.48.32-.74.63-1.48.95-2.21,2.16.75,4.33,1.5,6.62,2.29-1.67-3.07-3.05-5.59-4.67-8.56-2.43,2.13-4.97,4.37-6.57,5.78-2.37-.7-4.26-1.23-6.13-1.82-1.23-.39-2.71-.55-3.62-1.34-5.27-4.54-10.27-9.39-15.62-13.82-2.9-2.39-6.32-4.15-10.6-6.9v10.76c5.55-2.03,8.58-.34,10.17,4.53.53,1.63,1.84,3.16,3.14,4.35,5.54,5.09,11.15,10.1,16.85,15.01,2.71,2.34,5.07,5.97,7.69,4.52,7.13,2.79,12.96,5.07,18.8,7.36l-.54,2.17c-7.15-1.16-14.51-1.65-21.38-3.74-4.13-1.25-7.46-5.05-11.22-7.61-2.89-1.97-5.87-3.79-8.81-5.68-1.79-1.32-3.11-3.5-5.02-4.38-2.28-1.05-5.08-.97-8.66-1.55,1.94-.7,2.95-1.06,5.12-1.84-3.01-.91-5.06-1.53-7.09-2.14,1.28-1.9,2.56-3.8,3.84-5.7-.25-.21-.51-.42-.76-.63-1.45.86-2.9,1.73-5.16,3.07-1.66-4.08-3.13-7.67-4.53-11.11-5.74-8.61-11.55-17.3-17.25-25.85-1.51.24-3.4.54-5.22.83.55,2.46,1.06,4.73,1.6,7.14.76-.1,1.71-.22,3.28-.42-.67,2.1-1.14,3.55-1.36,4.24,2.17,2.29,3.66,4.96,5.89,5.98,4.07,1.85,5.4,3.18,3.55,8.16-.92,2.49,2.92,6.76,4.81,10.63,1.15-1.82,1.82-2.87,2.97-4.68,1.09,6.32,1.94,7.45,5.47,10.46.8.68.47,2.68.79,5.02,2.42,2.02,5.88,4.92,8.28,6.92,1.01,4.06.88,8.62,2.73,9.67,2.23,1.25,6.14-.49,9.95-1.03-.89,2.26-1.53,3.87-2.19,5.55,1.04.14,1.98.27,2.12.29.75,2.44,1.36,4.43,1.96,6.38,3.29-2.19,5.61-3.74,7.56-5.04,1.09,4.09,1.86,7.01,2.8,10.57-2.07-.74-3.43-1.56-4.79-1.57-.64,0-1.89,1.58-1.83,2.36.14,1.76.67,3.61,1.53,5.16.64,1.16,1.98,1.97,3.1,2.8.42.31,1.44.05,1.65.39,2,3.21,3.85,6.52,5.83,9.74.57.93,1.58,2.45,2.19,2.36,5.36-.81,7.37,3.11,10,7.4,2.36-1.97,4.42-3.69,6.65-5.54-2.17-1.78-3.56-2.91-4.95-4.05.39-.08.77-.16,1.16-.24v-4.08c3.5-1.87,6.71-3.62,9.97-5.29.69-.35,1.94-.84,2.23-.55,3.79,3.74,11.12,3.29,12.18,10.4.19,1.27,2.09,2.27,3.93,4.14.47-3.35.7-5.03.99-7.09,2.32,1.15,4.04,2,5.79,2.87-.47,3.9-.95,7.86-1.47,12.19,4.75-1.17,6.5-3.51,4.43-9.19,7.08,1.11,13.1,2.19,19.16,2.94,2.78.34,6.06-.91,8.37.17,4.1,1.92,8.32,4.45,11.23,7.82,4.98,5.77,10.41,7.92,17.65,5.6,1.02-.33,2.2-.17,3.46-.24.89,5.43,3.84,7.8,9.14,7.1.8-.11,1.67.66,2.55.84,4.84.98,9.65,2.32,14.54,2.72,4.53.36,9.14-.32,14.12-.56.4.81,1.03,2.08,1.89,3.83,1.98-2.08,3.75-3.94,5.55-5.82,7.98,2.54,16.25,2.04,24.55,1.06v-2.36c-4.35-1.12-8.08-2.08-12.69-3.27.94,2.2,1.53,3.55,2.12,4.94-4.99-1.37-7.78-7.96-15.33-5.78,2.16.79,3.23,1.19,4.3,1.58-4.22.21-9.77,4.36-10.79-4.07-3.74,2.56-7.02,1.88-9.15-1.08-.57-.79,1.61-3.55,2.52-5.41-2.08-.03-4.26.69-5.65,2.16-1.65,1.75-2.97,3.44-5.23,1.35-2.08-1.93-3.88-4.16-5.8-6.26,1.34-1.21,2.69-2.42,4.03-3.63-1.8-.47-3.58-.07-5.28.54-1.77.64-3.46,1.5-5.66,2.47,1.09-3.51,1.77-5.69,2.44-7.86-.45-.18-.9-.37-1.36-.55-1.33,1.16-2.66,2.32-4.2,3.68-.88-.77-2.17-1.34-2.49-2.26-1.93-5.45-6.99-5.66-11.34-7.07-2.11-.68-4.49-.88-6.36-1.96-5.64-3.26-10.3-9.45-18.26-5.22-.2-2.16-.38-4.11-.62-6.71-3.42,2.1-3.97,7.38-8.48,4.93-1.99-1.08-3.69-2.72-5.52-4.11.39-.54.77-1.09,1.16-1.63,2.18.97,4.36,1.95,6.66,2.98,2.1-2.55,4.75-5.76,7.23-8.76,1.69.21,3.52.45,6.48.82-1.24-3.31-2.03-5.39-2.81-7.46-.46.11-.92.22-1.38.33-.16,1.04-.33,2.09-.5,3.2-1.45-1.74-2.68-3.23-4.5-5.42-1.57,2.19-2.75,3.84-3.5,4.89-.58-.37-1.49-1.28-2.57-1.57-2.02-.54-4.14-.73-6.21-1.07l.32-.15Zm256.76,92.82l.05-.17h-16.6c-.3-.66-.87-1.92-1.02-2.25-2.67-.31-5.1.11-6.01-.87-1.02-1.1-.66-3.47-.95-5.73-1.05,1.46-1.96,2.73-3.01,4.18-2.67-2.02-5.04-3.82-7.42-5.61-.43.45-.86.89-1.29,1.34.91,2.18,1.82,4.36,2.43,5.83-3.1.43-5.75.8-8.39,1.17l.16.82c-1.78-.7-3.56-1.4-4.51-1.77-.83-2.01-1.07-4.12-2.13-4.7-.97-.53-2.85.59-4.95,1.15-3.39-2.07-7.11-1.12-10.12,3.25-1.89,2.75-8.91,4.97-10.26,3.01-2.85-4.13-6.94-3.72-10.91-3.99-.8,2.8-1.51,5.29-2.22,7.79-.09-.47-.19-.95-.28-1.42-3.35.41-6.82,1.58-10.01,1.05-4.74-.79-7.19,1.3-9.21,4.92,2.98,4.61,4.27-1.05,6.43-1.27,2.56,2.65,4.68,5.52,1.07,8.36-3.23,2.53-6.26,6.19-11.36,4.73-.83-.24-1.98.64-2.97,1,.26.71.39,1.94.79,2.03,3.92.89,7.86,1.73,11.84,2.32,5.07.75,10.4.53,15.21,2.03,9.52,2.98,18.59,1.05,27.68-1.21,2.24-.55,4.13-2.48,6.43-3.93.25.49.85,1.66,2.03,3.97,2.57-6.95,7.14-4.92,11.72-4.56,4.4.35,8.9-.76,13.37-1.07,2.54-.18,5.1-.03,7.49-.03.19,1.95.32,3.31.53,5.42,1.24-1.05,1.99-2.06,2.35-1.93,4.5,1.59,8.05-.51,12.08-2.11,2.84-1.12,6.22-3.41,9.94-1.19.65.39,3.42-.99,3.59-1.87.68-3.45-3.3-8.03-6.97-8.61.06-.43.12-.86.18-1.29,2.74.39,5.48.77,8.41,1.19.1-.13.68-.88,1.27-1.64.46.33.93.66,1.39,1-1.14,1.57-2.28,3.14-3.57,4.92,1.12,3.18,3.96,4.29,7.48,4.12,10.87-.53,20.81-5.71,32-5.65,5.88.03,11.92-3.5,17.64-5.99,9.53-4.14,18.99-8.48,28.22-13.24,5.05-2.6,9.56-6.24,14.25-9.37-1.31-2.19-2.09-3.5-2.32-3.89,2.98,0,6.41,1.06,8.35-.19,6.74-4.32,13.02-9.38,19.36-14.3,2.88-2.24,2.55-5.76-.34-6.82-1.71-.63-3.39-1.37-5.91-2.4-.26.22-1.31,1.13-2.59,2.24,1.24,1.16,2.24,2.09,3.25,3.03-.22.55-.43,1.09-.65,1.64-3.18-.86-6.37-1.71-9.17-2.47,2.07-3.28,3.5-5.55,5.13-8.12.65-.22,1.93-.66,3.22-1.1-8.25-1.94-12.86,3.54-17.63,8.33-.91.91-.13,3.5-.13,5.32.26-.13.52-.27.78-.4-.86,1.4-1.71,2.8-2.57,4.2.37.13.74.26,1.11.38,2.63-1.06,5.26-2.12,7.89-3.19.27.24.54.47.81.71-1.5,2.17-2.99,4.34-4.45,6.45-4.84,1-9.67,2-14.34,2.97-.19.95-.45,2.22-.88,4.36-1.01-1.35-1.34-1.7-1.58-2.11-.58-1.01-1.12-2.05-1.67-3.07-.42.99-.71,2.05-1.28,2.94-.67,1.05-1.58,1.95-2.68,3.27-.4-1.96-.65-3.17-.9-4.38-.43.03-.86.06-1.3.09,0,2.37.14,4.76-.06,7.11-.1,1.19-.63,3.2-1.25,3.32-1.44.27-3.07-.3-4.58-.7-2.65-.71-5.27-1.56-7.91-2.34-.23.71-.46,1.42-.69,2.12,2.26.84,4.53,1.68,6.79,2.53-.11.64-.22,1.28-.33,1.92-2.84,0-5.68-.04-8.51.01-2.95.05-6.01-.29-8.81.41-5.45,1.36-6.5.77-6.53-4.93,0-.76-.13-1.52-.24-2.84-4.2.58-8.03,1.1-12.28,1.68.82,2.24,1.3,3.58,1.79,4.93-4.46,3.96-9.23,1.31-12.84-.15-4.75-1.92-8.33-2.11-10.89.24-4.54-1.57-8.26-2.85-11.98-4.13l.13.11c.09-1.48.18-2.95.28-4.61,1.2-.16,2.42-.31,2.88-.37,2.76-4.4.54-5.94-3.35-6.51-.05-.45-.11-.9-.16-1.35,1.49-.79,2.97-1.58,4.46-2.37-.2-.09-.4-.18-.6-.27,3.67-3.62,7.34-7.25,10.74-10.61-2.16-1.74-5.03-2.88-5.37-4.54-.93-4.56-3.91-5.92-7.02-6.72-2.19,2.59-4.11,4.87-6.54,7.74,3.19.31,5.84.57,8.83.86-.5,2.09-1.07,4.46-1.64,6.83-.51-.12-1.03-.24-1.54-.35-.82-1.52-1.64-3.03-2.56-4.73-3.02,4.83-7.79,4.47-10.61-.14-.86-1.41-2.8-2.94-4.25-2.95-1.19,0-2.43,2.14-3.55,3.42-.15.17.29.84.62,1.71.81-1.01,1.41-1.75,2.01-2.5-1.01,1.21-2.02,2.43-3.04,3.64,2,.72,4,1.44,5.99,2.16.34-.3.67-.61,1.01-.91-2.02.96-4.05,1.93-4.96,2.36-2.64-.63-5.13-.53-5.65-1.49-1.35-2.5-2-4.22-4.89-1.44-1.34,1.29-3.6,1.57-5.18,2.69-.49.35-.5,2.23-.02,2.86.43.56,1.85.43,2.83.45,1.09.02,2.19-.15,3.28-.23,0,.36.02.73.03,1.09-1.03.72-2.05,1.44-3.4,2.37,2.04.98,3.63,1.74,4.94,2.37-.85,1.62-1.58,3.01-2.3,4.39,1.45.18,2.89.37,3.55.45.43,3.12.84,6.06,1.25,9.01,1.1-.72,2.19-1.45,3.53-2.33-.09,7.61,6.13,4.44,9.95,5.64-.96,2.67-1.83,5.07-2.7,7.47ZM271.97,203.33c-5.84,2.68-11.71,5.31-17.52,8.06-7.25,3.44-14.47,6.92-21.65,10.5-5.98,2.98-11.96,5.99-17.8,9.26-3.09,1.73-6.27,3.65-8.65,6.19-2.07,2.22-3.08,5.44-4.83,8.72,2.26,2.65-2.25,3.49-3.27,5.68-1.16,2.49-2.39,5.08-2.79,7.75-.39,2.56.23,5.27.44,8.26-1.35-.85-2.27-1.43-3.19-2.01l-1.41.39c.68,3.8,1.41,7.59,2,11.41.16,1.04-.09,2.15-.12,3.22-.05,1.31-.09,2.62-.1,3.93-.03,2.14.66,4.62-.21,6.33-1.38,2.75-2.42,4.76.25,5.6-3.77,14.69-4.91,28.75.08,43.08,6.13-.27,12.33-.26,18.47-.87,12.3-1.21,24.63-2.34,36.82-4.3,11.31-1.81,22.5-4.44,33.61-7.24,1.99-.5,4.21-3.36,4.75-5.52.87-3.46.62-7.25.49-10.89-.34-9.62-.64-19.24-1.39-28.83-.84-10.9-2.07-21.77-3.28-32.63-.84-7.57-1.68-15.15-3-22.64-.87-4.92-1.46-10.58-4.32-14.23-2.45-3.13-3.67-5.69-3.44-9.3,2.54.6,5.08,1.2,7.98,1.88.41-1.85.76-3.38,1.38-6.17-3.74,1.75-6.52,3.05-9.3,4.35Zm180.93,91.2c-.44-.08-.87-.16-1.31-.24-1.24,2.48-2.89,4.85-3.65,7.48-3.27,11.16-11.65,18.19-20.3,24.72-3.05,2.31-7.9,2.06-11.55,3.8-4.79,2.28-8.91,2.45-13.44-.62-2.65-1.8-4.99-1.81-6.83,2.3-2.57,5.73-6.88,7.66-12.57,4.86-2.53-1.25-5.77-1.19-8.71-1.43-5.58-.45-11.58.48-16.66-1.3-7.2-2.51-14.23-4.39-21.8-3.77-8.69.71-17.51.94-26.01,2.64-5.44,1.09-9.3.1-12.14-4.09-2.06-3.03-3.03-2.33-5.2-.2-2.46,2.42-5.31,5.35-8.44,6.04-19.47,4.3-39.06,7.94-59.08,8.78-8.62.36-17.29.76-25.78,2.15-5.28.86-9.43-.12-13.28-3.34-2.11-1.76-3.38-1.48-4.61.96-2.01,4-4,8.03-6.4,11.8-4.87,7.66-9.61,15.46-15.18,22.59-3.49,4.46-9.24,2.84-11.34-2.29-.54-1.32-1.44-2.55-2.35-3.67-3.28-4.02-6.99-7.73-9.87-12.01-2.55-3.8-4.66-8.04-6.15-12.36-1.52-4.41-2.21-9.14-2.96-13.78-.37-2.27-.06-4.64-.06-6.96-.5-.17-1-.35-1.5-.52-2.53,2.75-5.38,5.26-7.52,8.28-7.54,10.65-14.87,21.46-22.18,32.27-.65.97-1.28,2.8-.82,3.54,2.39,3.84-.28,5.48-2.53,7.83-2.3,2.42-3.96,5.46-5.71,8.36-.2.33.77,1.91,1.44,2.11,5.7,1.7,11.42,4.39,17.2,4.54,10.19.27,14.92-.68,19.45-10.71,1.36-3.01,3.88-5.5,6.06-8.5.68.85,1.51,1.54,1.39,1.8-1.57,3.57-3.2,7.11-4.98,10.58-.39.76-2.03,1.26-1.99,1.8.47,7.14-5.56,7.4-9.82,8.88-7.94,2.76-15.63.2-23.25-2.22-1.93-.61-4.15-.3-6.24-.41l-.59,1.54c4.23,5.26,8.09,10.87,12.77,15.69,5.67,5.84,6.81,16.71,1.11,22.56-3.96,4.07-8.63,7.45-13.01,11.11-2.13,1.77-4.14,3.79-6.51,5.14-6.5,3.71-13.55,2.91-20.27,1.07-5.13-1.4-7.65,1.08-10.33,4.34,2.81,1.47,5.41,2.72,7.89,4.16,7.17,4.18,9.36,12,12.75,18.66,6.99,13.72,13.03,27.91,19.6,41.84,1.95,4.14,5.05,7.85,6.4,12.14,1.51,4.83,1.42,10.13,2.42,15.15,1,5.03,1.83,10.29,4.02,14.82,1.38,2.86,4.37,4.81,2.57,7.75,1.32,2,2.58,3.35,3.18,4.94,1.74,4.68,2.52,9.87,4.95,14.13,4.97,8.72,10.76,16.98,16.29,25.38.39.6,1.4.9,2.18,1.12,4.78,1.35,9.55,2.71,14.36,3.92,6.33,1.59,12.7,3.04,18.74,4.47,3.08-2.72,5.98-6.92,9.92-8.41,10.07-3.84,20.59-6.21,31.63-5.26,6.07.52,9.24,2.65,10.55,8.34.85,3.68,1.79,7.35,2.69,11.02,1.98-3.5,2.68-7.1,4.11-10.37,1.43-3.26,2.89-7.21,5.57-9.09,6.62-4.63,14.15-7.21,22.56-5.28,1.91.44,3.96.31,5.95.36,14.06.38,28.13.66,42.18,1.22,1.78.07,3.74,1.26,5.21,2.43,8.63,6.87,10.45,17.35,13.88,26.93,1.03,2.86,1.27,6,1.87,9.01.55.16,1.1.31,1.65.47.66-1.43,1.49-2.8,1.92-4.3.24-.83-.43-1.92-.24-2.79,1.5-6.81,2.39-13.88,4.92-20.3,1.93-4.89,5.08-10.37,9.3-13.05,6.66-4.22,14.49-6.95,22.16-9.13,7.6-2.16,15.59-3,23.45-4.15,12.76-1.88,24.68-7.18,37.84-8,8.38-.52,14.24.85,18.39,8.08.82,1.42,1.45,2.96,2.1,4.47,2.33,5.42,4.63,10.86,6.94,16.3.49.08.98.16,1.47.24,1.24-2.56,2.31-5.23,3.76-7.67,2.75-4.63,5.07-9.78,8.74-13.56,7.24-7.46,17.13-7,26.62-6.89,11.05.12,22.11.43,33.16.68,1.98.05,4.08-.15,5.93.4,13.66,4.07,27.33,8.14,40.88,12.55,8.01,2.61,13.03,10.21,13.16,18.67.03,1.81.19,3.62.29,5.43,2.75-2.51,4.63-5.02,6.17-7.73,2.78-4.92,7.32-7.91,12.49-7.84,15.85.21,31.71,1.06,47.54,2.05,5.08.32,10.21,1.46,15.09,2.95,4.56,1.39,8.84,9.33,8.97,14.2.08,3-.63,6.76,3.91,8.27.6-1.59,1.37-2.93,1.58-4.34.59-3.98,3.25-5.45,6.58-7.22,7.9-4.19,16.25-2.9,24.41-2.81,7.44.08,14.89,1.29,21.02,6.39.93.77,2.42.89,3.52,1.26,3.99-7.28,11.51-6.52,17.68-8.56,7.11-2.35,13.59-1.22,19.09,4.22,4.96-7.16,9.91-13.65,14.14-20.57,4.4-7.2,8.02-14.86,12.16-22.22,3.96-7.03,8.88-13.62,12.07-20.97,6.06-13.97,11.09-28.38,16.72-42.54,3.61-9.06,7.65-17.96,11.26-27.02,2.75-6.89,5.28-13.87,7.6-20.91,1.08-3.29,1.62-6.8,2.04-10.26.69-5.65-2.79-8.64-7.02-11.8-13-9.7-15.23-25.8-22.25-39.07-.15-.28-.18-.64-.23-.97-1.64-11.39-6.28-21.44-13.35-30.48-7.44-9.52-14.67-19.21-22.09-28.74-.78-1-2.24-1.47-3.17-2.05-.83,3.54-1.54,6.56-2.25,9.58-.5-.08-1-.17-1.51-.25-.52-1.23-1.04-2.46-1.83-4.3-3.81,3.85-7.29,7.15-10.51,10.69-5.68,6.25-10.55,12.93-12.71,21.43-.57,2.24-3.29,4.59-5.58,5.57-3.59,1.54-7.66,1.98-11.53,2.84-4.58,1.02-8.56-1.89-9.11-6.62-.19-1.65-.31-3.3-.53-4.94-1.02-7.69-3.69-15.58-2.75-23.02,1.64-12.98-.13-25.03-4.66-36.97-.58-1.53-1.38-2.97-2.54-5.43-2.31,4.86-4.57,8.38-5.68,12.23-2.77,9.64-9.67,14.47-18.74,16.37-5.25,1.1-10.85.43-16.2,1.21-7.76,1.13-15.38,3.44-23.16,4.14-7.77.7-15.68.32-23.49-.1-6.31-.34-9.65-4.49-9.59-10.44.02-2.55-.43-5.11-.76-7.66-.4-3.07-.76-6.16-1.4-9.18-1.01-4.82-2.23-9.6-3.35-14.39-1.76.97-2.3,1.76-2.65,2.62-1.95,4.9-3.66,9.91-5.84,14.71-2.17,4.78-5.61,6.01-10.87,4.72-1.56-.38-4.18-.99-4.71-.29-3.3,4.35-7.85,2.3-11.84,2.77-6.9.81-13.83,1.76-20.76,1.88-4.18.07-7.44.26-8.93,4.88-.31.98-2.13,2.39-2.68,2.17-1.14-.45-2.04-1.78-2.76-2.92-.84-1.33-1.03-3.26-2.13-4.19-2.35-2-5.47-3.17-7.62-5.33-3.29-3.3-6.4-2.4-9.86-.77-2.22,1.05-4.45,2.38-6.81,2.79-6.51,1.13-13.22,1.34-19.62,2.88-6.37,1.53-12.87-3.12-19.15,1.04-1.19.79-3.92-.18-5.7-.91-9.01-3.71-10.14-12.49-12.46-20.31-1.72-5.78-2.7-11.79-4-17.69Zm-123.36-113.67c-4.33,1.19-7.85,1.86-11.12,3.14-3.99,1.56-7.96,3.34-11.62,5.56-5.73,3.48-11.22,7.37-16.74,11.18-.57.39-.94,1.43-.97,2.19-.3,7.22-.94,14.46-.62,21.65.31,6.94,1.58,13.84,2.55,20.75.71,5.09,1.93,10.14,2.36,15.25,1.18,14.17,1.76,28.4,3.22,42.54.62,6.02,2.73,11.91,4.43,17.78,1.13,3.9,4.03,5.39,8.1,4.89,6.37-.79,12.74-1.82,19.13-2.05,8.15-.3,16.38-1.4,24.32,2.33,3.27,1.53,7.23,1.67,10.91,2.23,6.6,1.01,13.2,2.11,19.85,2.61,1.93.15,4.31-1.26,5.93-2.62,1.72-1.44,2.87-3.62,4.13-5.56,2.22-3.44,5.31-3.66,8.1-1.44,3.7,2.95,7.34,3.66,11.92,2.57,10.89-2.59,19.45-9.5,24.1-18.54,8.23-15.97,11.61-33.45,10.53-51.89-.88-15.01.67-30.14.38-45.2-.12-6.5,1.33-13.79-4.06-18.9.73-2.64,1.63-5.03,2.01-7.51.29-1.91-.07-3.91-.14-5.87-1.89.28-3.78.56-4.82.71,1.09,2.47,1.77,4.02,2.46,5.58-1.81.61-3.62,1.21-6.05,2.03.26-2.89.39-4.34.54-6.06-5.78-.42-11.32-1.27-16.82-1.07-4.98.18-9.92,1.52-15.73,2.49.15.34-.07-1.24-.76-1.48-1.58-.55-3.39-.45-5.11-.61.47,3.83-2.04,1.87-3.61,1.92-1.29.04-2.59.26-3.86.55-5.14,1.16-10.41-.22-15.72,2.25-3.49,1.62-8.58-.4-12.94-.32-1.75.03-3.48,1.32-6.33,2.5-3.39-1.79-4.29-1.38-4.18,3.7-2.63-.88-6.12-.97-7.51-2.73-2.84-3.58-4.67-2.39-6.86.17-.78-.96-1.42-1.76-2.27-2.81-.51,2.63-.92,4.77-1.46,7.54-3.04-1.44-5.53-2.62-8.29-3.92-1.22.52-2.84,1.21-4.47,1.9-.29-.49-.58-.98-.88-1.48,2.33-1.73,4.66-3.47,8-5.95Zm206.68,1.64c0,.39-.02.79-.02,1.18-1.65.13-3.3.4-4.94.37-8.23-.13-16.48-.11-24.69-.59-6.14-.36-12.95.02-18.14-2.57-4.18-2.09-7.62-2.34-9.64.3-2.94,3.84-6.86-.7-9.28,2.28-3.09-2.58-4.78-.39-5.49,2.12-2.04,7.29-4.28,14.6-5.35,22.06-1.19,8.3-1.33,16.77-1.66,25.18-.27,6.92-.17,13.85-.19,20.78-.01,6.26-.38,12.55.17,18.77.78,8.9,2.37,17.73,3.36,26.62.91,8.19,3.68,15.89,8.29,22.4,3.61,5.09,8.7,9.47,16.42,7.87,5.97-1.23,12.2-1.2,18.2-2.35,5.16-.99,11.28-1.54,14.9-4.68,3.77-3.27,6.31-3.24,9.82-1.38,2.46,1.3,4.88,2.82,6.96,4.65,3.27,2.88,6.26,1.51,8.83-.54,1.23-.98,1.53-3.23,2.05-4.96,1.01-3.38,2.68-3.62,5.54-1.79,2.12,1.36,4.68,2.02,7.02,3.05,1.31.58,2.51,1.51,3.86,1.91,2.32.68,5.08,2.09,7.02,1.41,6.96-2.45,13.95-3.23,21.09-1.76,3.59.74,5.35-.57,6.37-3.71,3.56-11.01,7.7-21.87,10.49-33.06,1.98-7.96,2.66-16.35,3-24.59.4-9.52-.28-19.07-.36-28.61-.09-10.29-.02-20.59-.02-29.83-3.09-1.8-5.55-3.16-7.93-4.65-6.16-3.87-9.87-11.76-18.82-11.1-3.17.23-6.39-.36-9.59-.57-.11-.52-.21-1.05-.32-1.57,2.01-.4,4.02-.79,6.03-1.19l.18-1.07c-3.2-.41-6.4-.82-10.02-1.29.55,2.33.82,3.5,1.26,5.37-3.45-.64-6.23-1.15-9-1.66.12-.57.24-1.14.36-1.71,1.57-.16,3.14-.33,4.71-.49-.03-.45-.06-.9-.1-1.34-7.81.88-15.62,1.76-24.07,2.71,1.1-1.39,1.6-2.01,2.34-2.93-4.99-.47-9.47-.89-13.96-1.31-.02.35-.04.69-.07,1.04,1.8.43,3.6.86,5.4,1.28Zm40.18,438.17c-.2-.04-.4-.08-.6-.11-.16-2.32-.36-4.64-.48-6.96-.3-5.88-3.68-9.82-8.81-11.63-11.06-3.9-22.31-7.27-33.52-10.75-2.52-.78-5.18-1.56-7.78-1.6-15.41-.22-30.82-.47-46.22-.15-5.13.1-10.3,1.98-13.13,6.9-3.35,5.82-7,11.64-9.16,17.93-2.05,5.95-2.97,12.47-3.25,18.79-.31,7.02.78,14.09,1.06,21.15.39,9.81.6,19.63.87,29.45.09,3.13-1.06,7.22.49,9.14,1.6,1.98,5.77,2.03,8.88,2.59,7.13,1.29,14.29,2.41,21.45,3.52,2.96.46,5.99.53,8.9,1.15,9.8,2.1,19.5,4.77,29.36,6.48,11.49,2,23.11,3.2,34.67,4.8,2.59.36,4.13-.22,4.36-3.2.33-4.13.87-8.25,1.49-12.35,2.56-17.03,5.19-34.06,7.79-51.09,1.22-8.02,2.42-16.05,3.63-24.08Zm-129.79,10.83c-.21,0-.42,0-.63-.01-.26-3.15.04-6.47-.89-9.4-2.74-8.61-5.38-17.33-9.14-25.51-4.43-9.63-4.95-9.56-15.86-7.64-11.22,1.98-22.4,4.24-33.57,6.5-9.19,1.86-18.39,3.73-27.5,5.97-4.15,1.02-7.98,3.8-12.13,4.28-6.32.74-8.48,5.44-10.58,9.79-4.26,8.87-3.46,19.6-9.84,27.79-.19.24-.29.62-.28.93.11,4.99.01,10,.44,14.96.87,10.2,1.9,20.39,3.14,30.55.48,3.92,2.32,6.82,7.24,6.12,7.52-1.07,15.06-2.09,22.62-2.71,8.43-.69,16.94-.52,25.35-1.38,19.02-1.94,37.95-2.46,56.85,1.1,4.27.81,6.12-.96,5.79-5.44-.15-2.09-.96-4.16-.97-6.24-.08-16.56-.05-33.11-.05-49.67Zm188.1-417.02c-.37,2.26-.35,4.96-1.26,7.28-3.36,8.49-7.35,16.74-10.46,25.32-2.04,5.64-3.19,11.63-4.35,17.55-1.66,8.42-3.04,16.89-4.41,25.36-.49,3.06-1.75,6.67-.66,9.16,1.84,4.2,3.4,8.18,4.09,12.82,1.26,8.54,3.84,16.88,5.1,25.41.46,3.13,1.61,4.55,4.18,4.85,4.09.47,8.28.93,12.35.57,6.08-.54,12.08-2.51,18.13-2.58,11.69-.14,22.94-1.51,34.04-5.55,5.12-1.87,7.08-5.56,9.26-9.56,1.47-2.7,2.67-5.57,3.81-8.44,1.17-2.95,2.67-5.92,3.06-9.01,1.45-11.48,2.78-23,3.51-34.54.18-2.88-1.15-7-3.26-8.68-10.48-8.34-21.33-16.23-32.3-23.94-8.39-5.9-17.17-11.25-25.73-16.92-3.41-2.26-6.63-4.81-10.07-7.04-1.39-.9-3.11-1.29-5.03-2.05Zm-23.37,395.83l-.13,1.18c-1.16,0-2.33-.06-3.49.01-4.72.3-9.46-.17-12.38,5.26-3,5.58-7.9,10-9.77,16.39-1.49,5.11-4.42,9.9-5.34,15.07-2.26,12.81-3.66,25.78-5.54,38.66-1.03,7.06-2.29,14.09-3.54,21.12-.56,3.16,1.04,3.89,3.66,3.56,5.41-.68,10.82-1.33,16.2-2.16,23.67-3.66,46.89-9.09,69.47-17.23,3.04-1.1,4.11-2.46,4.39-5.58.87-9.72,2.22-19.39,3.17-29.11,1.16-11.92.97-23.82-1.61-35.58-.82-3.76-2.67-6.51-7.2-6.91-15.97-1.42-31.92-3.1-47.88-4.68Zm-287.91,83.79c-.75-8.15-.83-17.33-2.58-26.17-2.2-11.11-5.45-22.04-8.87-32.86-2.23-7.04-5.49-13.77-8.52-20.53-.59-1.32-2.19-2.95-3.46-3.07-9.18-.91-18.38-1.61-27.59-2.09-7.44-.39-14.9-.58-22.35-.5-9.35.1-19.04.88-21.59,13.62-.83,4.16-2.14,8.26-2.57,12.45-.6,5.88-1.28,11.9-.67,17.72,1.21,11.53,3.33,22.96,4.99,34.45.44,3.05,1.4,5.37,4.81,6.12,4.34.95,8.68,1.97,12.92,3.28,11.73,3.62,23.62,6.15,35.93,4.28,13.02-1.98,25.98-4.38,39.55-6.7ZM189.36,246.25c-4.1,4.67-7.37,8.41-10.66,12.14-1.31,1.48-2.49,3.18-4.07,4.31-1.42,1.02-3.67,1.02-4.85,2.18-.79.78.22,3.29-.55,4.17-1.58,1.81-3.81,3.05-6.55,5.12-.11.21-.48,2.35-1.63,2.93-4.28,2.15-6.04,5.34-5.71,10.02.07.93-.47,2.41-1.19,2.82-5.06,2.91-9.33,6.31-10.54,12.52-.26,1.31-1.64,2.39-2.49,3.59-3.96,5.56-10.4,9.84-10.09,17.66.21,5.34.31,10.97,2.05,15.92,3.8,10.79,9.14,20.94,17.09,29.39,4.29,4.55,7.1,3.99,10.14-1.56,3.74-6.84,7.38-13.74,11.32-20.45,2.63-4.48,6.21-8.43,6.73-13.94.35-3.63,1.14-7.22,1.35-10.84.34-6.09.08-12.22.62-18.28.54-6.09,1.83-12.12,2.65-18.19.84-6.21,1.76-12.43,2.13-18.68.2-3.34,2.5-7.34-2.37-10.14,5.27-1.1,8-3.71,6.63-10.69Zm530.28,27.93c-1.32,4.08-2.91,7.23-3.27,10.51-.63,5.63-.08,11.41-.8,17.02-.57,4.36-.22,7.82,2.63,11.48,9.02,11.59,14.08,24.46,13.35,39.64-.45,9.29.95,18.68,1.71,28.01.07.92,1.37,2.35,2.26,2.48,4.41.64,8.13-2.37,8.93-6.81.26-1.45.18-3.21.99-4.26,4.9-6.35,9.85-12.69,15.11-18.74,5.5-6.32,10.4-12.89,12.02-21.3.32-1.65.3-3.97-.63-5.15-5.9-7.58-11.67-15.34-18.32-22.23-6.15-6.36-13.43-11.63-20.08-17.53-4.54-4.04-8.85-8.34-13.88-13.11ZM201.94,614.44c-.12-.43-.24-.85-.36-1.28-8.64,2.55-17.55,4.47-25.77,8-3,1.29-5.77,6.28-6.14,9.85-.85,8.1-.31,16.37-.03,24.55.13,3.85-.45,9.05,1.72,11.23,5.5,5.55,11.78,11.09,18.83,14.14,9.39,4.07,19.8,5.78,29.77,8.49,2.57.7,3.95-.13,3.51-2.95-.69-4.42-1.47-8.83-2.19-13.24-.82-5.03-1.65-10.06-2.44-15.09-1.23-7.84-2.24-15.71-3.73-23.5-.82-4.3-2.57-8.41-3.63-12.67-1.82-7.31-1.74-7.33-9.54-7.54Zm470.62,74.05c7.01-2.47,12.81-4.04,18.2-6.5,11.45-5.22,22.69-10.93,34.04-16.38,3.45-1.66,5.35-4.34,5.75-8.08.53-4.95,1.11-9.89,1.42-14.86.52-8.47-2.44-12.52-10.43-15.94-8.36-3.58-17.03-2.65-25.54-1.83-9.01.87-18.64,11.21-17.89,20.24.69,8.22-2.58,15.42-3.28,23.18-.57,6.36-1.42,12.69-2.28,20.16Zm10.4-533.47c1.75,2.39,3.13,5.18,5.3,7.07,12.98,11.28,22.48,26.01,36.37,36.43,4.66,3.49,8.53,8.06,12.6,12.29,2.35,2.44,4.49,3.03,7.28.18-.94-1.28-1.92-2.39-2.65-3.64-2.31-3.95-5.63-7.73-6.53-12-1.22-5.82-3.41-10.51-7.64-14.57-1.88-1.8-3.47-4.07-1.04-6.97,1.59-1.89,2.63-4.24,3.44-5.59-2.82-3.26-5.41-6.27-8.62-9.98,2.34.3,3.36.43,5.08.65-1.74-2.16-2.71-4.39-4.32-5.05-1.65-.68-3.97.02-5.92.44-.51.11-.9,1.4-1.06,2.21-.1.5.34,1.1.54,1.66-.84.23-1.97.92-2.47.61-3.61-2.25-7.58-5.52-7.04-9.55.85-6.37-2.73-7.33-7.07-8.59-1.37-.4-2.61-1.23-3.92-1.87.07.29.15.58.22.87-2.94.44-5.89.88-9.03,1.35.95-2.27,1.45-3.47,1.96-4.67-1.87-.35-3.73-.7-5.24-.98-.33,2.11-.52,3.36-.71,4.61-.71-.53-1.53-.96-2.1-1.61-1.09-1.24-2.04-2.61-3.67-4.73.07-.13.76-1.44,1.41-2.66-1.6-.59-3.09-1.14-5.42-2,2.18,4.95-.29,7.83-3.8,10.09,1.64,2.46,2.84,4.88,4.61,6.77,2.82,3.01,5.47,7.18,10.69,3.21.77-.59,2.77.43,4.2.71,0,.49-.02.98-.02,1.47-1.71,1.21-3.41,2.41-5.43,3.84ZM58.39,444.13c7.44,3.7,16.56,1.93,21.87-3.57,1.89-1.97,4.2-3.77,6.66-4.91,7.45-3.44,11.26-13.08,6.86-19.95-4.32-6.76-9.52-12.97-14.43-19.35-.51-.66-1.68-.81-1.54-.75-1.86,1.86-3.13,3.36-4.63,4.59-4.57,3.77-7.73,8.16-7.26,14.47.08,1.07-.32,2.19-.6,3.26-2.31,8.78-4.63,17.55-6.93,26.22ZM552.26,45.63c2.13-.84,6.6-1.34,7.11-3.04,1.85-6.14,7.23-5.14,11.21-6.98.96-.44,2.47-1.39,2.43-2.01-.3-4.55,3-3.15,5.31-3.53,1.16-.19,2.25-.74,3.41-1.14q-3.74-8.4-1.26-14.59c-4.29-1.76-6.62,1.72-10.29,3.82-.64-1.41-1.04-3.01-1.98-4.16-.91-1.11-2.33-2.36-3.62-2.49-2.26-.22-4.7.07-6.88.74-1.56.48-3.43,1.64-4.06,3.01-.62,1.33.17,3.31.34,5,1.26-.19,2.52-.35,3.77-.59,3.03-.59,5.14.16,5.46,2.99-1.15,1.58-1.9,2.83-2.87,3.87-1.6,1.7-3.08,3.9-5.09,4.73-2.36.97-5.36.28-7.84,1.07-2.57.82-4.85,2.55-7.45,3.99-3.66-6.76-6.53-1.57-8.57-.02-3.94-2.71-7.28-5-11.24-7.72-.67,2.82-1.04,4.38-1.43,6.04-2.21-.13-4.26-.25-6.67-.39.99-1.29,1.66-2.16,2.33-3.03-.19-.23-.38-.46-.57-.69-2.3,1.06-4.59,2.13-7.48,3.46,5.3,3.03,1.7,5.06-.32,7.3,3.31,1.86,3.18,7.47,8.6,6.57-.79-1.17-1.44-2.11-2.44-3.58h21.75c-.04-.57-.13-1.81-.21-2.98,3.01-.07,4.92,7.35,8.47.53,3.17,1.2,6.36,2.42,10.12,3.84ZM224.42,123.91c-5.67-2.7-8.85-1.85-9.56,1.89-2.94-.65-5.53-1.22-8.79-1.93,1.24,4.14,2.32,7.74,3.88,12.94.85-1.82,1.52-2.73,1.69-3.74.78-4.46,3.04-5.73,6.25-3.08,3.84,3.17,7.17,2.89,11.34.27,4.44-2.79,8.88-6.28,14.88-5.26,1.22.21,2.64-.76,3.96-1.18l.09-1.08c-1.59-.53-3.18-1.05-6-1.99,2-1.17,3.18-1.71,4.18-2.47,1.53-1.16,2.96-2.45,4.41-3.71,1.55-1.35,2.9-3.57,4.64-3.93,3.13-.64,6.5-.18,9.76-.18-.1-5.97.87-6.61,7.88-5.65v-4.79c.27-.04.53-.08.8-.13.44.76.87,1.52,1.2,2.09,1.26-1.03,2.41-1.97,3.79-3.1-5.46-2.37.05-2.91.74-4.66-1.75-.57-3.55-.94-5.14-1.73-3.32-1.65-2.33-3.12-.58-4.35,1.83,1.4,3.03,2.32,4.23,3.23.46-.71.92-1.42,1.39-2.12-2.18-1.22-4.66-3.81-6.49-3.42-5.86,1.26-2.36,7.32-3.65,9.52-4.18.72-7.34,1.27-10.5,1.82l.16,1.3c-1.13-.57-2.26-1.14-2.26-1.14-1.75,1.76-3.14,3.02-4.35,4.42-3.16,3.63-11,4.45-6.36,12.69-2.88-.75-4.69-1.22-6.96-1.82.88,6.85-4.7,3.19-6.45,3.43-4.44.62-9.18-.94-13.8-1.62-.19.46-.38.91-.57,1.37,1.7,2.22,3.4,4.44,6.2,8.1Zm73.07,614.76c-2.62,2.27-5.26,3.34-8.39,1.18-1.32-.91-2.91-1.72-4.47-1.94-6.12-.85-12.65.95-18.34-3.17-.52-.38-3.04,2-4.63,3.09.87,1.01,1.96,3,2.59,2.87,4.24-.92,7.22,1.2,10.38,3.4,2.58,1.79,5.37,3.31,8.18,4.71,2.48,1.24,5.23,4.46,6.89.04,1.62,1.2,3.37,1.93,4.25,3.25,2.45,3.68,5.79,4.45,9.91,4.35,2.89-.07,5.8.73,8.69,1.17,2.17.33,4.33.71,6.49,1.07.06-.41.12-.81.18-1.22-1.55-.51-3.09-1.02-6.14-2.03,2.81-1.28,4.44-2.02,6.06-2.76-.43-.43-.87-.87-1.3-1.3-5.43,1.55-16.9-7.14-16.08-11.39,2.48.66,4.98,1.33,8.34,2.23-2.12-6.93-2.88-13.08,5.58-15.81-.06-.53-.13-1.06-.19-1.59-6.19-1.73-12.39-3.45-18.91-5.27-.64,4.77,1.03,10.93-7.06,8.93.05,4.47,2.69,5.43,5.22,4.09,4.41-2.32,6.15.1,7.83,4.32-4.07-.72-8.14-1.44-12.41-2.2.88,1.53,1.68,2.92,2.51,4.35,1.62-.13,3.22-.25,4.82-.38Zm119.38,20.46c1.19-1.97,1.77-4.37,3.15-5,5.87-2.64,7.44,3.52,11.25,6.47-.41-6.31,10.64-3.91,7.41-13.06-1.74,2.09-2.94,3.54-4.14,4.98-1.35-1.94-2.7-3.88-4.18-6.01h-15.71c-.41.98-.95,2.3-1.95,4.72-2.66-2.28-4.82-4.13-7.75-6.63-.66.96-1.57,2.3-2.47,3.62-13.38-6.64-23.57-6.01-31,1.9.65,2.3,1.19,4.2,1.79,6.35,1.27.17,2.96.39,4.76.62-.14-1.15-.23-1.82-.42-3.35,1.7,1.41,2.77,2.14,3.65,3.06.84.88,1.48,1.95,2.33,3.11q3.13-5.91,10.48-.72c1.31-4.18,3.79-5.09,7.87-3.4,2.16.9,5.3,1.78,7.05.85,4.1-2.17,5.91.3,7.89,2.48Zm-254.06-99.73c0-9.38-.02-17.77,0-26.15.01-4.04-1.42-7.57-5.4-8.6-7.13-1.86-14.44-3.03-21.68-4.45-.14-.03-.38.48-1.36,1.78,4.01,6.44,7.9,13.51,12.6,19.99,4.61,6.36,8.11,14.03,15.84,17.44ZM273.49,59.96c-9.48,1.35-15.75,11.31-27.6,8.38,1.7,1.23,2.31,1.67,2.83,2.05-3.85,2.75-7.66,5.58-11.58,8.26-3.91,2.68-7.91,5.21-11.87,7.81-.11-.28-.22-.55-.33-.83-1.24,1.92-2.49,3.84-4.14,6.39-1.27-1.99-1.96-3.06-2.29-3.57-1.55,2.9-3.16,5.9-4.38,8.18-1.97-1.77-3.89-3.5-5.82-5.23-.46.34-.92.68-1.39,1.03.62,3.03.39,6.77,2.14,8.87,1.41,1.7,5.21,1.42,7.34,1.88,2.13-1.66,3.87-2.98,5.57-4.35,1.78-1.43,3.39-3.12,5.29-4.34,4.55-2.92,9.4-5.38,13.8-8.5,3.03-2.15,5.51-5.1,9.17-8.59v5.33c2.85.41,5.43.79,8.22,1.19.17-.71.51-2.09.72-2.97-2.15-.97-4.16-1.47-5.53-2.69-.5-.44.16-3.45.96-3.81,1.97-.89,4.33-.94,6.05-1.24,4.27-4.42,8.54-8.83,12.81-13.24Zm399.97,160.84c3.78-6.12-2.42-5.24-3.67-5.22-2,.03-4.26,1.86-5.8,3.51-.62.67-.12,3.34.76,4.25,1.91,1.97,4.36,3.43,6.63,5.03,7.79,5.48,15.51,11.07,23.44,16.34,2.64,1.75,5.8,2.78,8.8,3.93,1.93.74,4.01,1.1,6.59,1.78.27-.29,1.46-1.56,2.82-3.01-4.72-4.56-9.38-9.15-14.19-13.58-.59-.54-2.04-.29-3.06-.17-6.48.8-6.36.43-7.77-5.81-.59-2.64-3.68-4.72-5.64-7.05-3.08,3.28-5.62-1.58-8.92.02Zm178.16,104.54v-24.58c-2.39.8-4.86,1.18-6.82,2.38-3.67,2.26-6.2.06-7.83-2.29-2.39-3.44-3.66-7.64-5.79-11.29-2.42-4.15-5.27-8.05-7.93-12.06-.38.19-.76.38-1.14.57,4.12,5.74,1.65,13.27,7.87,19.23,4.88,4.67,7.1,12.72,9.07,19.67,1.74,6.17,8.36,8.1,9.66,14.66,1.34-2.91,2.33-5.06,2.91-6.3ZM85.11,587.8c.6-.42,1.2-.83,1.81-1.25-9.36-17.61-18.72-35.21-28.07-52.82-.78.16-1.57.31-2.35.47-.38,2.86-.76,5.72-1.27,9.6,1.69-1.46,2.42-2.1,3.71-3.21,1.1,4.33,2.04,8.02,2.98,11.7-.49.31-.97.62-1.46.94-1.28-1.39-2.56-2.78-4.12-4.48-.92,2.6-1.71,4.83-2.29,6.45,3.5,1.71,7.41,2.46,9.29,4.83,2.4,3.02,3.1,7.37,4.66,11.1.6,1.43,1.57,2.7,2.56,4.35-.16.21-.75,1-1.67,2.21,7.51-2.21,7.86-1.97,11.82,4.76,1.16,1.97,2.92,3.58,4.41,5.35Zm653.71,66.54c.54.12,1.07.23,1.61.35,6.77-6.43,13.6-12.8,20.29-19.31,3-2.92,3.72-8.44,1.65-10.42-2.75-2.62-19.47.99-20.16,4.71-1.5,8.16-2.3,16.44-3.38,24.67Zm34.68,45.08c-7.52.66-10.15,6.06-13.62,9.92-3.72,4.14-6.32,9.26-9.67,13.76-2.59,3.47-5.72,6.51-4.4,11.53.26.99-.63,2.53-1.39,3.5-2.94,3.74-6.2,7.24-8.97,11.09-.72,1.01-.12,2.97-.13,4.49,1.61-.33,3.32-.45,4.81-1.06.79-.33,1.27-1.49,1.81-2.32,7.64-11.78,15.36-23.51,22.86-35.38,2.99-4.73,5.5-9.77,8.7-15.52Zm-180.9,96.66c.84-1,2.23-2.6,3.56-4.25.96-1.19,1.84-2.45,2.75-3.67-1.63-1.21-3.11-2.84-4.93-3.52-2.02-.76-4.37-.65-6.97-.96-.1,2.12-.21,4.38-.33,6.98-1.11-.06-2.57-.04-3.99-.26-1.38-.21-2.73-.66-4.06-.99-5.23,10.13-5.54,10.26-10.21,3.67-1.27,1.86-2.43,3.56-3.72,5.45,1.4,1.17,2.49,2.08,3.59,3-.48,2.14-.36,4.77.72,5.26,3.08,1.39,6.56,1.91,9.88,2.77-.2-.5-.4-.99-.6-1.49,2.36-1.79,4.71-3.59,7.19-5.48-.8-1.5-1.46-2.75-2.24-4.22,3.02-.74,5.72-1.39,9.34-2.28Zm-27.77-687.38c.4,3.59,1.15,6.89.92,10.11-.08,1.12-2.58,2.07-3.98,3.1,0-.65.02-1.31.03-1.96-2.47-1.29-4.94-2.59-7.49-3.92-1.57,8.05,3.39,12.95,7.56,16.51,4.09,3.49,10.7,4.04,16.2,5.87l1.21-1.31c-1.28-4.6-2.25-9.32-3.94-13.76-1.05-2.77-4.64-5.2-4.52-7.66.28-5.85-2.79-6.81-5.98-6.99Zm-27.48,17.65c.18-3.39-.6-5.75-4.27-5.05-4.32.83-8.49,2.41-12.64,3.63-.68-1.27-1.13-2.11-1.1-2.05-5.3,1.77-10.01,3.34-15.42,5.14,6.25,1.51,11.16,2.69,16.07,3.87,1.27-1.34,2.59-2.74,4.79-5.07,1.28,3.04,2.07,5.23,3.13,7.27.38.74,1.48,1.68,2.13,1.6,4.84-.59,10.43.23,12.69-7.61.7,3.15,1.03,4.66,1.47,6.64,2.06-.68,3.96-1.31,5.82-1.93-1.81-4.18-3.41-7.87-4.45-10.28-2.51-.11-4.3-.19-6.42-.29-.18.61-.33,1.39-.64,2.11-.31.71-.78,1.34-1.18,2.01Zm237.41,192.07c-9.61-24.98-29.39-40.32-51.04-53.9,4.15,5.21,8.29,10.44,12.91,15.21,5.39,5.56,11.17,10.74,16.85,16.02,3.59,3.35,7.55,6.34,10.89,9.91,3.73,4,6.95,8.48,10.39,12.76Zm-458.04,402.97c6.47.57,12.83,1.1,19.18,1.69,6.34.59,9.96-2.13,11.23-9.48-4.7,2.15-8.84,4.04-13.5,6.16-.31-4.24-.53-7.36-.75-10.27,1.73-.53,3.81-1.16,5.88-1.79-6.81-1.31-13.48-4.35-19.98-1.29-.05.51-.1,1.02-.14,1.52,3.01,1.54,6.02,3.08,10.31,5.28-2.96,0-5.06.41-6.88-.13-1.42-.42-2.49-2.02-3.12-2.57-.77,3.78-1.4,6.82-2.23,10.88ZM619.17,199.31c.87,14.65-3.63,28.46-.19,41.59,4.35-9.71,8.78-19.51,13.08-29.37.37-.84.26-2.59-.31-3.03-4.09-3.19-8.36-6.15-12.58-9.19Zm-161.79-121.13c-.87-1.28-2-2.96-3.24-4.79-2.97,2.44-4.59,7.33-9.3,4.7-1.22-.68-1.58-2.88-2.07-3.85-3.35-.33-6.74-.67-9.45-.94-3.95,5.25-5.19,9.46,2.2,10.27h11.47c2.67.41,6.6,1.55,10.49,1.43,2.63-.08,5.28-1.79,7.78-3.04.55-.28.87-1.77.71-2.59-.43-2.29-1.17-4.52-1.92-7.25-1.94,1.76-4.24,3.85-6.68,6.05ZM56.53,421.62c-5.85-1.02-7.2,3.94-10.01,6.27-2.22,1.83-3,5.28-4.93,7.59-3.49,4.17-7.48,7.92-10.97,12.09-1,1.2-1.04,3.21-1.51,4.85,1.72-.02,3.65.47,5.12-.14,13.47-5.53,18.97-16.96,22.31-30.67Zm758.21-139.08l1.41-.13c1.95-4.1-.16-8.17-2.25-11.18-2.05-2.96-5.98-4.63-9.08-6.86l1.07-1.56c1.3.86,2.59,1.73,3.89,2.59.42-.13.85-.26,1.27-.39-1.04-2.83-2.08-5.65-3.04-8.25-2.77.55-4.81.95-6.31,1.25-1.5-2.42-2.25-5.27-3.89-5.94-3.4-1.39-7.28-1.61-10.96-2.32,1.32,2.33,3.89,3.47,5.58,5.37,2.39,2.69,4.2,5.92,6.14,8.99,1.14,1.8,1.97,3.78,3.09,5.59.64,1.04,2.03,1.77,2.32,2.85,1.74,6.3,2.95,6.8,8.68,2.39.75,2.77,1.41,5.19,2.07,7.62ZM229.11,143.29c-.1.24-.68,1.86-1.4,3.42-.76,1.66-2.76,3.95-2.27,4.76,1.64,2.65,3.96,5.02,6.47,6.91.69.52,3.4-.57,4.33-1.65,1.33-1.55,4.67-1.8,3.67-5.42-.18-.66,3.71-2.45,6.79-4.4-.12-.86.16-3.42-.9-5.17-1.56-2.59-4.07-4.6-5.45-6.08-3.14,2.13-6.76,4.6-11.24,7.64Zm611.42,192.41c-1.48-2.57-2.29-5.48-3.4-5.6-2.12-.22-4.4,1.15-6.61,1.86.15.47.3.95.45,1.42,1.47.67,2.93,1.34,4.74,2.17,0,2.85.07,5.7-.03,8.55-.05,1.43-.43,2.85-.66,4.27,1.2-.67,2.39-1.34,4.15-2.33.77,4.14,1.57,8.42,2.46,13.16,2.62,1.1,4.45.22,5.08-3.25,1.06-5.88,2.42-11.71,3.13-17.63.13-1.04-2.18-3.17-3.6-3.42-2.03-.36-4.28.56-5.71.81Zm5.69,103.93c.66-.06,1.31-.12,1.97-.19.38-6.93.76-13.86,1.18-21.68-6.47,6.27-7.73,5.91-10.93-1.95-.87-2.14-1.68-4.34-2.79-6.35-2.3-4.16-4.79-8.21-7.21-12.3-.4.22-.8.44-1.21.66.4,1,.81,2,1.21,3.01,1.95,4.92,5.45,9.81,5.52,14.75.14,10.53,5.7,17.36,12.25,24.06Zm-38.38-229.65c-2.53-12.42-22.55-39-30.39-41.77,4.29,7.22,8.78,14.79,13.28,22.36.17.28.46.47.67.73,3.62,4.61,7.14,9.3,10.88,13.82,1.35,1.62,3.2,2.83,5.57,4.87Zm-129.84-32.88c-7.4-18.36-18.49-31.23-24.68-29.34.46,1.37,1,2.73,1.35,4.13.36,1.43,0,3.44.86,4.27,7.12,6.87,14.46,13.53,22.46,20.94Zm-19.93.99c-.64-1.28-.97-2.92-1.97-3.77-5.55-4.71-9.61-10.29-12.83-16.9-1.58-3.24-5.8-5.27-9.01-7.58-.56-.4-2.46.22-3.01.93-.44.56-.09,2.27.5,2.98,1.87,2.28,4.05,4.3,6.03,6.48,2.17,2.38,4.28,4.81,6.36,7.27,3.76,4.45,7.09,9.4,13.94,10.59Zm66.98-46.93c1.95-5.29-1.2-7.39-5.09-9.03-2.41,3.53-2.26,6.48,1.68,8.94.97.61,1.21,2.31,1.92,3.41,2.14,3.29,4.04,6.81,6.63,9.71,2.56,2.87,6.01,3.52,10.58.8-3.72-2.03-6.7-3.65-9.92-5.41,1.24-.59,2.16-1.03,2.83-1.35-1.95-3.22-3.71-6.11-5.57-9.17-1.01.69-2.04,1.4-3.08,2.11ZM155.09,727.04c-.74-8.15-7.36-11.87-11.23-17.38.57-.95,1.14-1.9,2.38-3.98-3.04.65-4.83,1.04-6.89,1.48.47-1.05.82-1.85,1.26-2.85-3.35.97-4.14,4.17-2.25,6.94,2.1,3.08,4.16,6.21,5.91,9.49,2.24,4.18,4.71,7.64,10.8,6.29ZM368.91,142.68c-5.32-4.43-16.65-5.09-17.95-1.35.6.9,1.3,1.94,2.13,3.19-7.21-2.01-8.98-1.3-8.57,3.59,1.64-.9,3.17-1.74,4.7-2.57.12.47.25.95.37,1.42,1.19-.05,2.49.18,3.56-.21,3.55-1.3,5.7-.61,5.89,3.54,1.48-.6,2.96-1.2,4.56-1.85-.78-1.24-1.48-2.35-1.99-3.15,2.4-.85,4.49-1.6,7.29-2.59Zm376.08,95.35c3.25-1.62,2.33-4.58,1.03-6.62-.87-1.37-3.42-1.67-4.83-2.29-2.04-8.17-11.58-9.24-14.86-16.18-.7.45-1.41.9-2.11,1.35.85,1.71,1.37,3.74,2.62,5.07,5.9,6.28,12,12.37,18.15,18.66ZM45.43,480.65c-.38-.52-.72-1.02-1.08-1.49-3.22-4.12-6.38-8.3-9.73-12.32-1.02-1.23-2.57-2.02-3.88-3.01-.69,1.81-2.42,4.1-1.86,5.34,1.6,3.53,4.03,6.73,6.39,9.86.68.89,2.23,1.41,3.44,1.55,2.12.25,4.29.07,6.71.07Zm779.95-127.32c1.48-3.86,3-6.27,3.2-8.79.2-2.44-.97-4.99-1.53-7.48-.6.08-1.19.16-1.79.23,0,1.02-.04,2.04.01,3.06.05,1.03.57,2.23.21,3.06-3.4,7.7-1.8,13.13,5.29,18.1,2.69-2.36,5.27-4.62,7.84-6.88-.19-.43-.38-.86-.56-1.29h-12.67ZM170.03,692.25c-.39.59-.77,1.19-1.16,1.78,3.83,5.97,9.63,9.9,15.26,13.85,4.34-1.91,3.28-4.23.93-6.55-1.3-1.27-2.67-2.56-4.23-3.45-3.53-2.01-7.19-3.77-10.8-5.63Zm-23.74-552.04c2.08-5.36,10.56-5.92,9.82-13.6-2.01.27-5.32.13-5.51.83-1.58,5.78-3.49,2.61-5.48.46-8.77,4.66,1.82,8.04,1.17,12.31Zm195.82,652.62c.16.34.25.83.45.88,5.52,1.42,10.64-.43,15.73-2.15.53-.18,1.18-1.56.97-1.99-.36-.73-1.29-1.28-2.1-1.67-1.37-.67-2.8-1.29-4.26-1.68-1.48-.4-3.69-1.23-4.46-.57-2.4,2.07-4.27,4.75-6.33,7.18ZM535.78,16.8c1.17,1.35,2.36,2.1,2.32,2.77-.32,5.48,4.58,5.25,7.59,6.87.73.39,3.2-.69,3.47-1.54.93-2.93,1.24-6.05,1.71-8.68-2.25.87-5.94,2.55-6.07,2.32-2.2-4.1-5.34-2.15-9.03-1.74Zm92,126.05c-8.18-6.8-15.4-12.81-23.42-19.47,1.21,7.31,15.53,19.29,23.42,19.47Zm-252.1,636.08c4.3-.68,8.59-1.35,12.87-2.03,1.78-.28,3.55-.58,5.33-.87-.02-.41-.04-.82-.05-1.22,1.34.75,2.69,1.51,4.03,2.26.22-.44.45-.88.67-1.32-3.24-1.72-6.32-4.33-9.76-4.97-6.44-1.2-8.94,5.26-13.09,8.16Zm121.22,26.17c-.23,1.76-.57,4.33-.94,7.19,4.97-.58,10.51-1.22,16.66-1.93.53-.93,1.36-2.39,2.76-4.86-3.87.58-6.7,1.38-9.5,1.31-2.81-.07-5.59-1.02-8.98-1.7ZM773.77,202.8c-1.42-8.29-7.47-15.15-18.2-14.29,6.41,5.03,11.95,9.38,18.2,14.29Zm-124.21-55.11c.56-.43,1.11-.86,1.67-1.29.94-10.36-9.6-11.1-13.49-17.42-.61.5-1.22,1-1.83,1.49,4.55,5.74,9.1,11.48,13.66,17.22ZM89.44,639.43c2.02.14,3.62.13,5.18.4,1.8.32,3.53,1.12,5.32,1.24.9.07,2.59-.77,2.7-1.4.34-2.04-6.43-9.4-8.25-9.78-1.63,3.15-3.21,6.17-4.95,9.53Zm62.72-438.52c2.81-.4,5.82-.73,8.78-1.29,1.14-.22,2.47-.7,3.2-1.51.63-.7.98-2.23.65-3.08-.68-1.75-1.89-3.29-2.76-4.7-2.33.93-4.92,1.96-7,2.78-1.15,3.12-2.22,6-2.88,7.8Zm358.99,635.79c-6.67-5.36-11.41.34-16.74,1.85,7.48,5.67,16.71,3.06,20.47-5.88-.37-.37-.73-.73-1.1-1.1-.82,1.6-1.64,3.19-2.63,5.13Zm-50.83-661.89c-.26-.5-.52-1-.78-1.5-2.06.33-4.25.32-6.12,1.09-1.26.52-2.98,2.24-2.87,3.25.2,1.83,1.29,4.72,2.58,5.06,4.69,1.25,4.16,3.76,2.68,7.04-.37.83-.36,1.84-.71,3.83,4.49-5.08,3.85-11.6-1.01-13.14,2.27-2.05,4.26-3.84,6.25-5.63Zm-170.07-87.71c.46.57.91,1.14,1.37,1.71,1.45-.95,3.36-1.59,4.26-2.92,1.97-2.9,3.71-5.53,7.9-4.98.6.08,1.47-1.94,2.22-2.99-1.22-.4-2.54-1.33-3.63-1.11-4.15.83-8.22,2.03-13.92,3.51,3.13,1.19,5,1.9,7.97,3.03-2.33,1.42-4.25,2.58-6.17,3.75ZM48.97,462.28c2.73,3.51,7.27,9.34,12.45,15.99-.61-8.85-7.6-15.4-12.45-15.99Zm734.33-188.69c-4.98,5.02-.22,7.94,1.17,10.65,1.32,2.57,2.64,6.96,8.54,6.22-3.4-5.91-6.45-11.2-9.72-16.87Zm-229.6-170.79c.36,3.81.29,6.66,1.04,9.27.34,1.18,2.29,1.9,3.52,2.83.66-1.13,1.91-2.31,1.84-3.39-.14-1.94-1.09-3.82-1.58-5.35,2.01.1,4.24.22,6.48.34.08-.55.15-1.11.23-1.66-3.52-.62-7.03-1.24-11.52-2.04Zm-340.14,5.39c-.6-1.07-1.27-3.03-1.76-2.99-4.22.39-4.77-2.17-5.39-5.42-.19-.98-2.61-1.53-4.01-2.28-.07,1.4-.28,2.81-.17,4.19.06.75.76,1.43.99,2.2,1.25,4.26,5.69,6.27,10.35,4.29Zm589.95,199.98c.71-.61,1.43-1.23,2.14-1.84-3.24-4.43-6.42-8.91-9.81-13.23-.41-.52-2.05-.41-2.91-.06-.36.14-.59,1.99-.18,2.49,3.5,4.29,7.16,8.45,10.77,12.65Zm-128.61,454.91c-.75.6-1.58.93-1.66,1.4-.11.68.1,1.64.54,2.14,3.84,4.34,6.87,4.55,11.47.7.75-.63.94-1.92,1.39-2.91-1.09-.49-2.54-1.7-3.22-1.36-2.91,1.46-5.56,3.91-8.53.03Zm-44-1.56c-.27.77-.37,1.09-.5,1.39-1.34,3.04-1.77,6.66,1.45,7.96,1.75.71,5.32-1.17,7.09-2.9,2.13-2.07,3.21-5.21,4.59-7.61h-3.44c-1.7,2.34-3.19,4.39-4.82,6.63-1.74-2.18-2.94-3.69-4.36-5.47Zm-98.34-658.01c1.28,4.32,3.24,4.99,6.43,2.61,1.55-1.15,3.63-1.59,5.46-2.37,1.01-.43,2-.88,3.41-1.5-6.23-5.1-10.61-.71-15.3,1.26Zm-177.67,670.54c-5.43-2.79-9.86-5.11-14.37-7.27-.22-.11-1.13,1.22-1.72,1.88.94-.75,1.89-1.51,2.83-2.26,2.53,3.73,5.07,7.47,7.58,11.17,1.16-.72,2.61-1.62,5.68-3.52ZM667.6,188.63c-.31.55-.62,1.1-.94,1.65,1.86,1.25,3.74,2.46,5.57,3.76,3.45,2.45,6.81,5.01,10.36,7.31.32.21,1.67-1.2,2.49-1.8-6.24-3.9-11.86-7.41-17.48-10.92ZM130.99,659.93c-.63,4.08,2.99,12.94,4.99,13.64,1.62.57,3.5.42,6.13.68-4.09-5.26-7.26-9.34-11.12-14.32ZM581.45,22.37c9.25,2.22,13.08.7,12.88-3.28-2.33-.71-4.14-1.27-6.27-1.93-.17.53-.42,1.29-.69,2.12-1.26-.86-2.41-1.64-3.84-2.62-.75,2.05-1.35,3.69-2.08,5.7Zm10.24,7.76c-4.1,4.26-3.89,8.09-.09,10.48,2.61,1.64,5.99,4.66,8.39-1.69-3.2-.99-6.3-1.96-8.29-2.58v-6.21ZM51.21,402.53c-2.8,4.29-4.86,7.45-7.49,11.47,7.41-.46,9.11-6.71,14.41-9.42-3.47-1.03-5.7-1.69-6.92-2.06ZM501,18.82c-4.68-1.36-8.48-2.46-12.31-3.58-.35.88-.89,1.97-1.21,3.12-.3,1.11-.37,2.29-.54,3.43,1.23.1,2.55.53,3.68.24,3.15-.8,6.23-1.9,10.38-3.21Zm20.78,771.23c1.86,1.71,3.1,3.28,4.71,4.21,1.55.89,3.48,1.11,5.24,1.62.03-1.64.52-3.46-.05-4.86-.6-1.47-2.2-2.54-3.31-3.72-1.26.52-2.31.95-3.36,1.39-1.17.49-2.33.98-3.24,1.36Zm166.57-594.98c-.71,2.51-1.6,4.5-1.76,6.55-.11,1.51.45,3.28,1.28,4.57.36.56,2.15.21,3.29.26,1.21.06,2.42.11,4,.18-2.37-4.03-4.62-7.84-6.81-11.56Zm-116.11-96.31c3.99,2.71,7.67,5.21,10.71,7.28,0-2.1.32-4.06-.09-5.85-.37-1.64-1.54-3.09-2.35-4.63-1.05.57-2.07,1.24-3.17,1.67-1.4.54-2.87.87-5.1,1.53Zm-412.72,22.37c1.51-5.1,9.11-3.38,8.1-9.73-7.25-1.23-10.47,2.02-8.1,9.73Zm588.61,114.66c-.1,2.37-.97,4.84-.1,6.21,1.39,2.19,3.93,3.65,6.66,6.01,1.07-6.75-1.11-10.01-6.56-12.21Zm-34.36-140.05c-.66-4.56-1.23-8.48-1.8-12.4-.6.02-1.19.04-1.79.07-1.52,2.63-5.28,4.94-.41,8.48.43.32.55,1.3.54,1.97-.11,4.69,1.92,2.89,3.46,1.89Zm-96.65,698.16c5.31-2.77,9.88-5.16,14.45-7.54-.2-.46-.41-.91-.61-1.37-4.41,1.28-8.82,2.57-13.84,4.03v4.89Zm-5.52-767.65c-2.16-.19-3.49-.3-4.81-.43-1.72-.17-3.44-.33-5.16-.53-1.01-.12-2.37-.75-2.94-.32-.75.56-1.35,2.06-1.14,2.95.17.72,1.62,1.59,2.52,1.61,3.1.05,6.22-.17,9.3-.5.54-.06.98-1.16,2.23-2.78Zm-171.86,27.76c-.02.63-.04,1.25-.07,1.88h17.91c0-.55,0-1.09.01-1.64-5.96.03-11.83-3.49-17.86-.24Zm34.34,731.99c-1.85,2.29-3.88,3.73-4.18,5.48-.3,1.74,1.13,3.78,1.81,5.7,1.96-.57,3.18-.93,4.46-1.31-1.03-1.13-1.94-2.12-3.05-3.34,1.61-.08,2.67-.13,4.1-.2-.93-1.88-1.64-3.33-3.13-6.33Zm-39.14,16.41c-2.31-.14-4.5-.41-6.69-.32-.67.03-1.58.93-1.84,1.64-.18.5.38,1.76.88,1.95,2.58.95,5.24,1.65,8.52,2.64-.41-2.73-.62-4.17-.88-5.9Zm382.18-509.88c-.18-2.67-.32-4.83-.53-8-2.73,1.07-7.13,1.9-7.19,2.98-.28,4.84,4.16,4.22,7.73,5.02Zm-471.73,457.47c10.95,4.99,12.61,4.74,15.06-1.18-4.52.35-9.18.72-15.06,1.18Zm80.49,28.09c-2.84-2.24.65-7.83-5.23-7.17-3.3.37-4.25,2.68-3.07,5.69,2.58.46,4.98.89,8.3,1.48Zm419.33-396.13c.61-.38,1.22-.75,1.83-1.13-1.58-3.14-3.06-6.34-4.85-9.35-.21-.36-2.12.3-4.12.63,3.3,3.45,2.48,8.65,7.14,9.85Zm-469.08,417.97c-.15,3.42-.25,5.62-.36,8.14,4.53-.44,6.3-3.05,6.27-6.35,0-.66-4.13-1.28-5.91-1.79Zm-140.12,1.71q8.25,3.23,11.4,1.7c-5.01-4.69-8.32-5.28-11.4-1.7ZM583.85,123.61c-1.85,7.21,3.28,11.14,5.95,16.23.42-.2.85-.4,1.27-.6-2.41-5.21-4.81-10.42-7.22-15.64Zm-99.33,689.35c.4.36.79.73,1.19,1.09,1.68-1.31,3.33-2.66,5.05-3.91.98-.71,2.26-1.11,3.03-1.98.27-.3-.59-2.32-.94-2.32-1.38,0-3.23.03-4.04.88-1.72,1.8-2.89,4.13-4.28,6.24ZM705.38,84.79c-2.38-.46-4.18-.81-4.89-.95v11.81c1.41-.2,2.75-.4,2.92-.42.73-3.87,1.29-6.86,1.97-10.44Zm-293.85-29.07c-.13-2.48-.24-4.53-.41-7.61-1.65,4.78-2.87,8.29-4.09,11.83,4.33.97,5.04.5,7.17-4.76-1.09.22-1.92.39-2.67.54Zm-49.76,734.73c3.5,6.25,6.95,5.86,11.2,0h-11.2Zm-73.39,27.46c-.21.49-.42.98-.63,1.47,1.12,1.71,2.24,3.43,3.29,5.04,2.59-.19,5.15-.38,7.67-.56-.33-1.41-.72-3.1-1.19-5.09-1.49,1.13-2.86,2.18-3.42,2.6-2.27-1.38-4-2.42-5.72-3.46Zm-200.64-276.38c.46-.27.91-.54,1.37-.81-2.14-4.27-4.27-8.55-6.87-13.75-1.94,3.86,2.08,12.18,5.5,14.56Zm680.12-279.76c-1.97,4.86,2.1,6.35,4.59,9.01q2.08-5.77-4.59-9.01ZM178.99,197.05c1.69-1.11,3.13-1.87,4.33-2.9.75-.65,1.14-1.72,1.69-2.6-.96-.32-1.97-.98-2.89-.88-2.04.21-4.04.81-6.51,1.35,1.34,2,2.36,3.51,3.38,5.04Zm33.13-40.31c6.98-2.21,7.28-6.59,4.6-12.6-1.53,4.19-2.94,8.05-4.6,12.6Zm599.13,170.19c1.49,1.96,2.54,3.66,3.93,4.98.44.42,2.64-.08,2.65-.26.18-2.45.12-4.93.12-7.6-2.64,1.14-4.26,1.83-6.71,2.88ZM207.95,718.04c-4.14-1.94-7.33-3.44-10.53-4.93-.22.51-.44,1.01-.66,1.52,2.66,2.75,5.05,6.16,11.19,3.42Zm542.63-57.12c2.01,0,3.69-.53,4.51.09,3.75,2.81,4.66.29,5.63-2.79-4.09-2.52-7.13-1.12-10.14,2.7Zm-535.23,69.32c.26.42.51.84.77,1.26,2.23-1.28,4.46-2.56,6.78-3.89-3.35-4.23-3.85-4.03-7.55,2.63Zm60.95,93.1c.4-.34.8-.69,1.19-1.04-.29-2.27-.58-4.55-.9-7.1-1.35.13-2.71.26-5.96.58,2.4,3.19,4.03,5.37,5.67,7.55ZM658.75,220.67c-.39-6.48-2.6-8.01-8.1-6.69,2.56,2.11,4.84,4,8.1,6.69Zm-390.96-86.55c-1.22-.89-2.06-1.5-3.08-2.23-.47,1.76-.82,3.08-1.16,4.36-2.72-.38-5.09-.71-7.54-1.06,3.11,4.86,4.63,4.75,11.78-1.07Zm185.23,612.61c-3.54,1.05-6.22,1.85-9.2,2.73,3.7,3.62,7.48,2.75,9.2-2.73Zm162.89,24.21c-.16.46-.32.93-.48,1.39,1.72,1.56,3.43,3.12,5.19,4.71,1.33-1.82,2.42-3.31,3.7-5.07-2.93-.36-5.66-.7-8.4-1.04Zm-196.63,50.81c.42.28.85.57,1.27.85,1.47-.81,2.94-1.62,4.33-2.4-.7-2.33-1.29-4.29-1.88-6.26-.36-.03-.72-.06-1.07-.09-.88,2.63-1.77,5.27-2.65,7.9ZM326.62,69.38c-2.52.96-4.58,1.74-6.64,2.52-.04.48-.07.96-.11,1.43,2.85.17,5.69.35,9.65.59-1.47-2.29-2.14-3.35-2.91-4.54Zm-91.68-1.62c.15-.42.3-.85.46-1.27-1.3-2.09-2.59-4.18-4.28-6.9-.77,1.03-2.42,2.99-2.29,3.11,1.9,1.83,4.04,3.42,6.12,5.06Zm3.75-8.68c2.86-.58,5.3-1.07,7.75-1.57-.06-.49-.13-.99-.19-1.48-1.38-.16-2.79-.17-4.12-.51-4.39-1.13-4.38-1.17-3.43,3.56Zm493.77,613.66c.15.55.31,1.1.46,1.64,1.28.64,2.57,1.28,4.47,2.22,1.15-1.48,2.33-2.99,4.61-5.92-4.02.87-6.79,1.46-9.55,2.05Zm-623.23-26.93c-.31,0-.61,0-.92-.01-.86,2.01-1.71,4.03-2.66,6.26,1.38.89,2.68,1.73,4.85,3.12-.51-3.76-.89-6.57-1.26-9.37ZM335.82,106.65c-.72-.66-1.43-1.32-2.15-1.98-1.86,2-3.72,4.01-5.58,6.01.59.58,1.17,1.15,1.76,1.73,1.99-1.92,3.97-3.84,5.96-5.76Zm-186.97,625.58c1.82.94,3.16,2.12,3.7,1.83,1.71-.92,3.13-2.4,4.65-3.66-.39-.47-.78-.95-1.17-1.42-2,.9-4,1.81-7.19,3.25ZM40.5,266.81c2.57,1.39,4.45,2.54,6.45,3.4.71.3,1.92.15,2.53-.3.44-.33.64-1.79.3-2.2-.54-.65-1.62-1.11-2.49-1.16-1.8-.1-3.61.12-6.79.27Zm276.38,503.7c.17.5.33,1.01.5,1.51,1.71-.22,3.42-.44,5.13-.66-.73-1.62-1.46-3.25-2.72-6.05-1.54,2.75-2.23,3.97-2.91,5.19ZM669.07,135.85c.74-.17,1.48-.34,2.23-.51.16-1.71.52-3.43.37-5.11-.06-.71-1.12-1.6-1.91-1.87-.56-.19-2.09.64-2.06.85.33,2.23.88,4.43,1.37,6.64ZM29.28,430.49c.5.42,1,.84,1.5,1.26,2.26-2.58,4.52-5.16,6.78-7.74-4.35.51-7.35,2.42-8.29,6.47Zm451.73,411.81c3.92-1.4,7.43-2.65,11.1-3.96-2.21-.57-4.25-1.1-6.28-1.63-1.55,1.79-3.07,3.56-4.82,5.59ZM505.75,18.17c3.66.9,7.15,1.24,9.94-.9-.2-.68-.39-1.36-.59-2.04-3.12.98-6.23,1.96-9.35,2.94ZM47.95,273.54c-3.89,1.39-6.8,2.43-10.12,3.62,4.6,2.65,7.37,1.2,10.12-3.62Zm55.19,378.6c.37-5.28-1.63-7.38-6.44-7.07,1.95,2.14,3.9,4.27,6.44,7.07Zm45.62,84.6c-.76.23-1.53.46-2.29.69.41,1.68.72,3.41,1.36,5,.09.22,1.84-.23,2.83-.37-.63-1.77-1.27-3.55-1.9-5.32Zm210.33,38.32h7.88c-2.84-4.22-5.3-3.81-7.88,0ZM87.49,117.03l-.06,1.47c2.58.21,5.17.42,9.03.73-3.72-4.24-6.33-3.83-8.98-2.2Zm535.56,4.15c-2.96-1.27-4.81-2.06-7.45-3.19.51,5.64,2.64,5.87,7.45,3.19Zm-318.93-50.74c-3.32.93-6.45,1.81-9.58,2.69.09.4.18.8.27,1.19,3.21-.38,6.41-.77,9.63-1.15-.1-.86-.19-1.68-.31-2.73Z" style="stroke-width: 0px;"/>
      <path d="m810.1,153.04c-2.46-4.28-6.35-7.37-9.3-11.23-.43-.56.14-1.88.29-3.26-3.89-.23-5.33-1.98-4.69-6.02.62-3.87-2.79-7.41-6.71-8.06-.28-1.79-.56-3.59-.72-4.57-4.78-.31-9.31.46-12.73-1.14-3.07-1.44-6.29-5.19-6.99-8.45-1.15-5.36-4.92-6.27-8.99-7.56l.63-1.64c2.09.69,4.18,1.37,6.57,2.16,0-.74.14-1.8-.02-1.85-4.57-1.34-5.36-5.85-7.8-8.98-1.02-1.31-3.22-1.71-5.13-2.64-.08-.94-.19-2.38-.32-3.95-9.71,1.93-8.2-7.38-11.35-10.84-2.24.19-3.99.34-7.05.61,1.6-1.39,2.15-1.88,2.61-2.28-3.54-.56-6.98-1.1-10.43-1.64-.11-.31-.22-.61-.33-.92,1.24-.6,2.48-1.2,3.7-1.8-.81-1.59-1.61-3.17-2.71-5.32,3.55-.64,6.31-1.13,9.77-1.75-2.12,5.7-.24,7.09,4.68,5.88,1.01-.25,2.57.94,3.61,1.79.86.7,1.2,1.99,1.96,2.85q4.47,5.01,1.72,11.42c3.84-1.21,6.73-2.12,9.56-3.01,1.87,3.31,3.83,6.78,5.42,9.6,3.09,2.21,5.71,4.07,9.5,6.78,0-.02-.4,1.56.09,2.78.79,1.94,1.9,3.92,3.38,5.36,2.79,2.72,5.9,5.13,8.99,7.53.78.6,1.94.88,2.96.98,3.99.37,7.24,4.96,7.16,8.89-.03,1.42,2.3,3.92,3.82,4.15,8.47,1.28,9.64,3.2,5.72,10.66-.64,1.21-1.01,2.56-1.97,5.07,2.2-1.02,3.16-1.84,4.1-1.83,1.79.03,3.57.54,5.36.84-.38,1.63-.56,3.35-1.18,4.88-.93,2.28-2.18,4.44-3.29,6.65l.11-.14Z" style="stroke-width: 0px;"/>
      <path d="m697.89,39.3c3.04,2.31,5.86,6.13,9.16,6.61,7.18,1.04,12.13,5,16.91,9.61.67.65.44,2.23.67,3.66h5.42c-2.16,5.7-5.53,6.28-9.91,1.48-.44,1.29-.8,2.34-1.62,4.73-2.55-2.77-4.65-5.05-7.25-7.89-3.1,1.35-6.18.47-8.82-3.86-1.18-1.93-4.77-2.39-7.35-3.56.94-3.53,1.91-7.19,2.88-10.84,0,0-.09.05-.09.05Z" style="stroke-width: 0px;"/>
      <path d="m809.99,153.18c2.6-2.03,4.85-2.74,7.82-.01,2.29,2.11,5.54,3.17,7.08,3.99-.65,2.7-1.05,4.36-1.45,6.01,0,0,.03-.01.04-.01-.3-.13-.72-.46-.9-.36-6.49,3.6-8.84-2.92-12.85-5.21.13-1.54.26-3.06.38-4.56-.01.01-.12.15-.12.15Z" style="stroke-width: 0px;"/>
      <path d="m697.98,39.24c-.96.25-1.96.4-2.88.76-8.59,3.32-9.2,2.99-11.54-5.71-.37-1.37-1.3-2.6-2.28-4.5,2.23.48,3.87.84,5.54,1.2-.91,2.99-2.86,5.96,3.11,4.89,2.36-.42,5.26,2.2,7.94,3.43.03-.02.12-.07.12-.07Z" style="stroke-width: 0px;"/>
      <path d="m638.92,40.15c.82.05,2.2.42,2.37.1,3.66-6.5,9.77-1.38,14.25-3.94q1.14,6.6-5.01,8.12c.8-1.37,1.6-2.75,2.89-4.97-2.71.72-5.11.97-7.11,1.98-2.99,1.51-5.27,1.19-7.3-1.41l-.1.1Z" style="stroke-width: 0px;"/>
      <path d="m5.14,436.57c2.48.91,4.95,1.81,7.43,2.72-1.04,3.74-2.21,4.35-8.14,4.07-.1.39-.32.82-.29,1.24.03.46.27.91.58,1.83-1.61-.34-2.91-.62-4.72-1,1.89-1.68,3.35-2.97,4.8-4.26-.27-.08-.53-.16-.8-.24.42-1.41.85-2.82,1.27-4.23,0,0-.14-.13-.14-.13Z" style="stroke-width: 0px;"/>
      <path d="m639.02,40.04c-.88-.47-1.76-.94-2.57-1.37v6.1c-1.55-.85-3.1-1.71-4.34-2.39.93-2.71,1.59-4.63,2.41-7.01,2.21.48,4.88.85,4.42,4.76-.01.01.09-.09.09-.09Z" style="stroke-width: 0px;"/>
      <path d="m676.49,30.79c2.28,1.68,6.25,1.88,3.15,5.87-.16.21,1.9,2.14,3.28,3.66-6.94,1.02-7.51.26-5.57-5.36.34-.98-.45-2.35-.86-4.17Z" style="stroke-width: 0px;"/>
      <path d="m11.42,426.72c1.46,4.83-1.2,9.01-6.28,9.85,0,0,.14.13.14.13,1.07-3.94.22-9.09,6.26-9.87,0,0-.12-.11-.12-.11Z" style="stroke-width: 0px;"/>
      <path d="m653.82,64.34c-.6,2.61-1.01,4.36-1.68,7.24-1.27-1.55-2.65-2.56-3.01-3.86-.32-1.19.04-3.22.89-3.87.73-.57,2.55.28,3.8.48Z" style="stroke-width: 0px;"/>
      <path d="m664.54,51.76c-1.2-2.65-4.45-5.14-1.49-8.18.66-.68,1.9-.8,3.34-1.35-.74,3.8-1.3,6.66-1.85,9.53Z" style="stroke-width: 0px;"/>
      <path d="m392.48,91.8c-4.08.7-6.75,4.91-11.37,4.52-.5-.04-1.19,2.01-1.59,2.73-1.93-.12-3.68.15-5.08-.43-1.03-.43-2.24-1.94-2.26-2.99-.03-2.21.66-4.44,1.03-6.46.78-.08,1.78-.15,2.76-.3,3.21-.5,6.39-3.11,9.61.43.69.76,2.95-.1,4.3.35.98.32,1.64,1.58,2.45,2.41,0,0,.15-.26.15-.26Z" style="stroke-width: 0px;"/>
      <path d="m538.02,855.64c3.99.32,7.98.64,11.97.97-4.95,4.61-8.21.64-11.92-1.15,0,0-.06.18-.06.18Z" style="stroke-width: 0px;"/>
      <path d="m280.94,762.98c1.09,2.59,2.18,5.19,3.62,8.61-2.85-1.34-4.57-2.15-6.69-3.15,1.14-1.89,2.26-3.75,3.38-5.61,0,0-.32.15-.32.15Z" style="stroke-width: 0px;"/>
      <path d="m445.75,451.77c.89-2.54,1.28-5.44,2.77-7.56,5.3-7.58,10.68-15.13,16.59-22.23,3.96-4.75,11.19-2.67,13.31,3.02.45,1.2,2.81,2.43,4.24,2.38,3.93-.14,5.22.91,3.93,4.92-4.97,15.45-9.4,31.09-14.85,46.37-1.87,5.24-6.24,9.55-9.24,14.43-1.06,1.72-1.84,3.84-1.99,5.83-.26,3.61-1.15,6.85-4.84,7.89-3.87,1.08-7-.51-9.26-4.01-7.18-11.12-14.94-21.9-21.6-33.32-5.27-9.02-8.95-18.91-9.51-29.58-.3-5.78,2.27-10.2,7.36-13.08,2.76-1.56,5.13-1.2,6.85,1.58,3.73,6.04,7.4,12.13,11.13,18.17,1.1,1.79,2.34,3.49,3.51,5.24.54-.02,1.07-.03,1.61-.05Z" style="stroke-width: 0px;"/>
      <path d="m809.58,394.61c5.22,5.26,5.14,6.82-.56,11.57-.49.41-.9.97-1.2,1.54-1.92,3.59-3.5,7.4-5.77,10.75-4.9,7.25-2.4,13.91,1.12,20.53,2.87,5.39,6.05,10.61,8.98,15.97,1.28,2.35,2.79,3.44,5.61,2.61,3.48-1.02,7.09-1.59,10.59-2.54,4.75-1.29,8.1-.04,9.97,5.61-2.42.48-4.76.85-7.06,1.42-3.56.89-7.22,1.59-10.61,2.94-6.38,2.53-15.03-2.68-15.3-9.33-.07-1.71-.85-3.49-1.66-5.05-2.96-5.7-6.23-11.26-9.1-17-3.48-6.95-2.89-13.83,1.88-20.77-3.52-.59-6.45-.88-9.25-1.62-1.53-.41-3.39-1.23-4.2-2.46-6.18-9.38-12.14-18.9-18.16-28.39-.26-.42-.69-.98-.59-1.35,1.72-6.36,4.02-12.46,6.98-18.26.8.24,1.6.48,2.4.71-.45,2.08-.48,4.37-1.42,6.2-3.36,6.56-4.15,12.39,1.39,18.59,4.32,4.83,7.45,10.73,11.01,16.22,2.05,3.16,4,4.97,7.97,2.3,5.47-3.68,11.3-6.82,16.99-10.2Z" style="stroke-width: 0px;"/>
      <path d="m394.14,861.17c5.92-4.08,10.55,2.47,15.51.86-.97.73-2.23,1.28-2.85,2.24-1.85,2.86-4.52,2.74-6.84.05-1.12-1.3-3.2-1.78-5.82-3.14Z" style="stroke-width: 0px;"/>
      <path d="m392.17,858.87c-1.01,1.83-1.71,3.08-3.2,5.78-1.71-3.09-2.84-5.15-3.98-7.21.33-.33.65-.65.98-.98,1.89.73,3.78,1.47,6.2,2.41Z" style="stroke-width: 0px;"/>
      <path d="m441.95,872.19c.63-1.33,1.27-2.66,2.41-5.05,2.88,1.45,5.7,2.88,8.52,4.3-.12.63-.24,1.27-.35,1.9-3.42.28-6.84.57-10.25.85-.11-.67-.22-1.34-.33-2.01Z" style="stroke-width: 0px;"/>
      <path d="m551.02,842.42c2.45,1.93,4.91,3.85,8.05,6.32-5.55.4-10.1.72-13.71.97,1.82-2.25,3.82-4.71,5.8-7.18-.01,0-.15-.12-.15-.12Z" style="stroke-width: 0px;"/>
      <path d="m531.38,868.82c2.9.34,6.39-.27,6.96,5.05-2.93-1.31-5.31-2.37-7.7-3.44.25-.54.49-1.07.74-1.61Z" style="stroke-width: 0px;"/>
      <path d="m225.16,780.41c1.21,1.54,2.41,3.08,4.57,5.83-3.84,0-6.71.13-9.56-.1-.63-.05-1.65-1.37-1.62-2.06.03-.69,1.04-1.57,1.82-1.95,1.4-.69,2.94-1.08,4.78-1.71Z" style="stroke-width: 0px;"/>
      <path d="m271.53,776.72c-1.9-1.22-3.8-2.43-5.71-3.65,0-.47,0-.94,0-1.41,1.83.13,3.89-.21,5.41.55,1.06.53,1.37,2.55,2.02,3.91-.57.2-1.15.4-1.72.6Z" style="stroke-width: 0px;"/>
      <path d="m253.1,765.91c.93,1.1,1.87,2.2,3.7,4.36-3.36.26-5.68.45-9.14.72,2.42-2.26,3.86-3.6,5.44-5.08Z" style="stroke-width: 0px;"/>
      <path d="m698.43,102.72c-.46,2.02-.75,4.1-1.45,6.04-.31.87-1.42,1.46-2.17,2.18-.38-.93-1.35-2.27-1.04-2.71,1.4-1.94,3.15-3.62,4.78-5.39,0,0-.14-.13-.14-.13Z" style="stroke-width: 0px;"/>
      <path d="m346.49,124.76c1.33-3.29,2.35-5.82,3.32-8.23,2.7,1.6,4.91,2.8,7,4.19,1.07.71,1.91,1.77,2.85,2.68-1.46.3-3.72,1.35-4.25.78-2.97-3.2-5.66-1.33-8.92.58Z" style="stroke-width: 0px;"/>
      <path d="m507.41,79.33c-.52,2.66-.79,4.04-1.1,5.61-3.04-1.55-5.76-2.94-8.46-4.32,2.32-5.69,4.38-6.47,10.06-5.65,2.5.36,5.27-1.08,7.91-1.72,1.04-.26,2.06-.59,3.71-1.07-2.4,2.89-1.57,4.58,1.25,4.07,1.38-.25,2.7-.82,4.49-1.39-.15,3.54-.83,5.03-4.45,4.6-4.42-.52-8.96-.12-13.42-.12Z" style="stroke-width: 0px;"/>
      <path d="m528.54,91.06c.82-1.15,1.59-2.34,2.46-3.44.78-.99,1.69-1.88,2.72-3.02-1.43-1.18-2.53-2.09-4.89-4.03,4.09.78,6.79,1.29,9.83,1.87-1.43,5.67-6.47,6.31-10.24,8.49,0,0,.1.14.1.14Z" style="stroke-width: 0px;"/>
      <path d="m705.5,161.28c-11.2-2.43-13.88-5.58-8.99-12.03.18,2.5.31,4.29.44,6.07,7.09.43,7.51.72,8.55,5.96Z" style="stroke-width: 0px;"/>
      <path d="m480.38,115.14c.42,2.77.4,4.53-3.58,4.29-4.42-.27-8.92.67-13.38,1.09,0,0,.25.2.25.2.33-.74.48-1.92,1.02-2.14,3.75-1.49,5.93-4,6.27-8.13.04-.55,1.22-1,1.85-2.84-2.76-.43-5.51-.86-8.27-1.29-.19-.32-.37-.64-.56-.96,2.4-1.03,4.87-3,7.19-2.85,2.83.19,5.54,2.16,9,3.67,2.09,5.83-7.38,2.36-6.99,7.69,1.86,1.47,3.9,3.9,7.2,1.26Z" style="stroke-width: 0px;"/>
      <path d="m463.67,120.72s-.25-.2-.25-.2c1.22.43,2.45.87,3.67,1.3l-.23,1.28c-6.2-1.28-12.41-2.57-18.61-3.85,2.65-2.05,5.3-4.09,8.79-6.79.14,2.67.2,4,.23,4.58,2.42,1.39,4.41,2.53,6.39,3.68Z" style="stroke-width: 0px;"/>
      <path d="m460.4,802.28c-3.11-1.74-5.26-.58-7.13,2.14-.69,1.01-1.98,1.6-3,2.38.47-4.79.94-9.58,1.39-14.18,1.85,1.51,4.1,3.34,6.34,5.17.44-.36.88-.72,1.32-1.08.36,1.86.73,3.72,1.09,5.58Z" style="stroke-width: 0px;"/>
    </g>
  </g>
</svg>