<?xml version="1.0" encoding="UTF-8"?>
<svg id="Layer_2" data-name="Layer 2" xmlns="http://www.w3.org/2000/svg" viewBox="0 0 562.35 746.79">
  <g id="Layer_1-2" data-name="Layer 1">
    <path d="m219.42,460.99c-44.85-19.75-78.28-50.5-102.7-91.14-19.84-33.02-31.22-68.88-34.61-107.28-3.44-38.95.66-77.12,16.33-112.94,5.96-13.64,12.8-27.4,21.26-40.06,8.54-12.77,17.66-25.02,28.36-36.06,10.7-11.03,22.39-20.9,35.04-29.63,12.64-8.72,25.85-16.52,40.06-22.26,85.47-34.54,167.68-28.48,244.14,23.82,54.36,37.18,85.18,89.75,92.25,155.92,2.26,21.11,3.97,42.11,1.84,63.24-8.41,83.24-47.42,147.21-120.9,188.44-44.82,25.15-93.62,33.33-144.6,29.75-13.3-.93-26.66-2.21-39.42-5.89-6.12-1.77-7.85.54-10.64,4.63-55.85,81.77-111.82,163.47-167.78,245.17-3.3,4.82-6.88,9.42-9.64,14.64-2.36,4.46-13.04,6.86-20.05,4.55-23.51-7.76-39.2-23.69-46.93-47.06-3.74-11.31.22-20.68,8.74-29.03,24.43-23.93,48.46-48.26,72.61-72.47,44.23-44.33,88.43-88.68,132.66-133.01,1.04-1.05,2.27-1.9,4-3.33Zm-116.13-184.9c-.04-12.89.83-25.64,3.66-38.17,9.69-42.81,34.21-75.66,69.17-101.07,38.61-28.06,82.34-42.01,129.72-44.86,51.97-3.13,101.05,7.17,146.07,33.78,38.92,23.01,68.11,54.64,82.57,98.33,4.55,13.75,7.31,27.87,7.04,42.47-.12,6.22-.02,12.44-.02,18.66,1.28-.36,1.21-1.74,1.56-2.73,6.9-19.79,10.69-40.19,10.96-61.12.5-39.63-9.55-76.57-31.26-109.72C480.98,47.83,420.44,14.92,345.51,7.57c-44.34-4.35-87.34,2.83-127.06,23.08-80.61,41.1-125.38,105.47-123.97,198.19.25,16.14,3.48,31.9,8.81,47.25Zm321.78,61.02c2.06,2.67,4.88,1.3,7.01,2.24,10.94,4.84,22.17,6.18,34.16,5.63,8.88-.41,17.47,4.54,26.79,3.56,2.25-.24,4.81,1.18,7.01,2.28,1.67.83,2.66.8,3.78-.67,10.71-14.05,23.14-26.92,27.11-45.18,2.85-13.09,4.91-26.14,4.54-39.55-.07-2.36-.52-3.92-2.84-5.12-10.07-5.17-14.62-14.12-16.27-24.84-.31-2.02-.42-3.71-2.67-4.81-7.52-3.68-12.24-9.73-13.46-18.04-.62-4.27-2.96-5.56-6.79-6.22-9.66-1.66-18.63-5.04-25.88-11.96-1.44-1.38-2.91-1.39-4.58-1-19.34,4.56-37.67,1.06-55.24-7.34-2.54-1.22-4.64-1.23-7.05-.59-26.01,6.87-51.91,7.76-77.61-1.45-2.05-.73-3.77-.63-5.74.18-24.74,10.19-50.03,9.28-75.46,3.31-4.51-1.06-7.98-1.34-12.25,1.58-10.24,6.99-22.63,5.7-34.24,7.23-4.54.6-9.02-.42-12.95-2.83-2.64-1.62-3.71-.79-5.42,1.52-6.98,9.38-16.08,14.9-28.24,13.28-2.81-.37-3.3.65-3.73,2.93-1.62,8.54-6.17,15.37-12.97,20.65-1.58,1.23-1.69,2.52-1.86,4.23-1.05,10.49-5.18,20.15-14.51,24.82-7.03,3.52-6.1,8.05-5.89,13.42.09,2.33.44,4.64.54,6.97.12,2.67,1.43,5.71-2.44,7.18-1.3.49-.26,1.7.06,2.53,8,20.48,19.18,39.07,33.19,55.99.95,1.14,1.8,1.58,3.39,1.15,6.55-1.77,13.16-1.63,19.67.18,1.63.45,2.76.24,4.12-.69,9.45-6.49,19.12-5.59,28.68-.38,1.62.88,2.02.59,3.09-.53,3.2-3.36,6.47-6.6,11.34-7.7,1.83-.41,2.58-1.86,1.45-4.09-18.75-36.94-3.8-88.31,34.82-108.72,13.66-7.22,27.8-12.71,42.88-15.68,6.3-1.24,12.93-1.39,17.51,4.28,4.41,5.46,2.28,11.39-.1,17-2.01,4.74-4.47,9.3-5.29,14.47-.57,3.62-.38,7.29,2.65,9.63,4.88,3.75,10.71,5.71,16.81,4.87,10.72-1.48,15.6-7.14,16.08-18.19.27-6.15-.22-12.32-.1-18.48.13-6.98,2.94-10.19,9.78-11.81,7.15-1.7,14.22-1.03,21.25.65,22.29,5.35,39.35,19.03,54.59,35.18,6.38,6.76,11.76,14.77,13.53,24.13,4.41,23.22,4.44,45.83-12.29,64.82ZM87.45,229.16c-.06.82-.14,1.63-.16,2.45-1.46,46.51,8.93,90.19,32.01,130.6,23.62,41.37,56.5,72.86,100.43,92.27,2.91,1.29,4.6,1.12,6.83-1.19,8.2-8.52,16.63-16.81,24.97-25.2,1.28-1.28,2.33-2.72,4.47-2.82,6.27-.3,15.32,5.34,17.7,11.21.78,1.91,1.41,3.98-.09,5.66-6.7,7.46-11.35,16.39-17.43,24.27-2.52,3.26-2.15,4.17,2,5.02,35.3,7.18,70.66,8.33,106.19,1.94,43.56-7.84,82.4-25.68,115.53-55.19,38.91-34.67,62.15-78.28,72.25-129.14.65-3.26,1.05-6.57,1.5-9.86.44-3.23.81-6.47,1.21-9.71-.42-.05-.84-.1-1.27-.15-.32.88-.71,1.74-.96,2.64-15.24,53.23-47.36,93.65-92.81,124.58-18.18,12.37-37.77,16.04-58.79,14.07-22.02-2.07-43.92-5.41-65.93-7.7-13.38-1.39-26.75-3.28-40.33-1.99-18.8,1.79-36.98,6.55-55.24,10.93-11.22,2.69-21.46,2.15-32.15-3.7-52.76-28.85-90.51-70.32-109.69-127.8-5.54-16.62-8.35-33.83-10.25-51.18Zm274.27-44.37c12.36-.08,24.37-2.73,36.51-4.62,8.12-1.27,11.07-4.67,11.89-12.58,1.61-15.54,4.47-30.96,2.41-46.68-.51-3.88-2.48-8.05-5.49-9.14-25.67-9.29-52.3-13.67-79.57-14.35-2.37-.06-3.17.6-3.16,3.03.15,24.96.23,49.91.22,74.87,0,2.29.9,3.18,2.91,3.77,11.2,3.27,22.48,6.01,34.28,5.7Zm-43.21-46.12c-.07,0-.14,0-.2,0,0-11.82.02-23.65-.01-35.47,0-3.68-.85-6.31-5.64-5.74-7.6.9-15.28,1.1-22.87,2.02-18.2,2.21-35.97,6.35-53.24,12.54-1.27.46-2.53.49-2.95,2.65-3.01,15.7-3.26,31.4-.57,47.13,3.73,21.75-.83,17.85,21.23,22.03,20.46,3.87,40.7,2.84,60.35-4.91,2.93-1.16,4.03-2.59,3.98-5.78-.19-11.49-.08-22.98-.08-34.47ZM72.6,723.91c11.39-16.65,21.94-33.02,33.52-48.62,5.83-7.85,7.93-15.76,7.43-25.3-1.01-19.45-4.14-38.28-12.8-55.94-1.54-3.15-2.41-3.91-5.34-.94-20.55,20.87-41.28,41.58-62.02,62.26-5.6,5.58-11.48,10.89-18.05,17.1,24.81,1.96,50.41,25.74,57.26,51.44Zm116.96-224.15c-28.3,28.06-56.28,55.84-84.34,83.53-1.97,1.94-1.76,3.38-.51,5.55,6.97,12.12,10.39,25.44,12.77,39.08,1.5,8.59,1.92,17.28,2.1,27.46,1.08-1.64,1.33-2.04,1.6-2.44,23.2-33.88,46.41-67.76,69.62-101.64,1.34-1.95,2.24-4.08,2.5-6.43,1.03-9.28,1.33-18.57.37-27.89-.61-5.96-1.67-11.78-4.11-17.23Zm135.66-135.44s.09,0,.13,0c0,9.33.07,18.65-.05,27.98-.03,2.67.72,3.78,3.57,4.01,18.91,1.52,37.76,3.65,56.5,6.65,2.52.4,3.21-.33,3.34-2.67.71-13.46,1.04-26.97,2.44-40.36.76-7.25-1.46-11.96-7.02-16.28-16.45-12.79-34.52-17.1-54.84-11.91-3.6.92-4.19,2.88-4.13,6.1.16,8.82.06,17.65.06,26.48Zm-5.91-.6h-.15c0-8.99-.24-17.98.1-26.95.16-4.23-1.38-6.02-5.36-6.48-15.75-1.82-30.81.07-44.77,8.07-7.65,4.38-13.38,9.93-14.63,19.45-1.8,13.73-.29,27.2,1.57,40.73.42,3.06,1.69,2.64,3.99,2.15,18.38-3.96,36.78-7.92,55.78-5.51,2.98.38,3.59-.67,3.53-3.49-.18-9.32-.07-18.64-.07-27.96Zm-92.12-248.21c-18.76,7.6-35.97,17.17-51.75,29.27-1.04.8-2.08,1.46-2.21,3.07-.75,9.29-1.78,18.54,1.1,27.71,2.66,8.47,10.36,15.01,19.18,14.68,8.26-.31,16.49-1.69,24.72-2.7,3.37-.42,6.2-2.31,9.11-3.88,2.24-1.2,3.21-2.66,2.41-5.63-2.66-9.98-3.38-20.29-4.44-30.53-1.11-10.65.54-21.17,1.88-31.99Zm-28,257.51c-.6,7.15,2.6,15.35,2.42,23.87-.03,1.27,1.15,1.53,1.93,2.05,11.29,7.47,23.2,11.47,36.71,6.48,1.7-.63,3.54-1.11,5.34-1.21,4.51-.26,5.05-2.51,4.4-6.53-2.16-13.34-3.78-26.79-1.26-40.24.75-3.99-.46-6.03-3.26-8.62-8.5-7.87-28.15-8.69-36.16-2.46-8.56,6.67-10.23,15.45-10.12,26.66Zm195.57,18.33c0,3.33.01,6.66,0,9.99,0,1.5-.29,2.83,2.06,3.06,13.54,1.31,26.91.66,40.14-2.64,2.36-.59,3.86-1.79,4.12-4.28,1.5-14.39,4.16-28.69,3.23-43.26-.14-2.29-.42-4.29-2.85-5.26-7.69-3.08-15.28-5.79-23.97-4.77-5.81.69-11.25,2.71-17,3.38-2.51.29-3.42,1.92-3.37,4.4.29,13.18-1.5,26.26-2.36,39.4Zm-193.62,144.78c21.92-31.95,43.85-63.91,65.77-95.86.55-.8,1.1-1.42.62-2.63-1.97-4.94-10.16-6.87-13.86-3.16-17.17,17.21-34.12,34.64-51.61,51.51-5.63,5.43-9.34,10.24-4.67,17.92.74,1.21.73,2.88,1.07,4.34,2.08,9.12,1.78,18.41,2.68,27.89Zm246.2-139.28c13.21-7.74,24.83-16.22,35.67-25.78.56-.5,1.04-1.33,1.15-2.06.77-5.48-6.65-16.44-12.01-17.47-6.4-1.23-12.85-1.36-19.31-.2-1.81.32-2.65.95-2.51,2.85,1.02,14.02-1.55,27.8-2.98,42.66ZM166.8,151.84c-9.35,8.21-16.55,16.45-23.93,24.57-4.72,5.2-4.41,10.52-3.23,16.26,1.14,5.57,4.7,9.11,10.55,9.76,9.22,1.02,15.89-3.51,21.53-10.15,2.05-2.41,3.23-4.57.31-7.54-2.17-2.21-2.85-5.53-3.78-8.58-2.31-7.58-2.14-15.34-1.46-24.31Zm313.53,2c0,1.63.01,2.24,0,2.86-.26,11.3-.58,22.62-6.15,32.89-1.29,2.37.27,2.78,1.61,3.71,7.16,4.95,15.37,6.82,23.77,8.1,1.24.19,2.58.47,3.76-.61,3.23-2.97,4.52-16.57,1.73-20.29-7.07-9.46-14.99-18.14-24.72-26.65Zm-284.14,199.12c-2.04-.82-3.85-1.64-5.72-2.28-8.99-3.09-17.23-1.06-22.62,5.51-5.26,6.42-4.72,14.01,1.54,19.12,4.5,3.67,9.09,7.26,13.82,10.63,3.79,2.69,7.4,5.75,12.37,7.75-1.16-7.4-2.31-14.1-2.4-20.92-.09-6.82.29-13.55,3.01-19.81Zm-63.23-161.97c-6.68,9.99-11.39,20.3-15.26,31.03-1.9,5.29.24,7.87,5.97,7.22,2.05-.23,3.78-1.25,5.32-2.51,6.21-5.06,9.61-11.67,10.69-19.56.22-1.61,0-2.87-1.18-4.06-3.13-3.17-4.51-7.22-5.55-12.12Zm379.85,1.08c-1.58,4.11-1.35,8.7-4.19,11.39-4.41,4.19-2.7,8.4-1.15,12.65,2.64,7.23,11.37,11.9,18.32,10.18,1.54-.38,3.06-.59,2.25-2.81-3.96-10.87-8.59-21.4-15.23-31.41Zm-402.41,65.51c5.53-3.29,9.06-7.38,11.35-12.71,3.7-8.61,3.58-8.73-5.35-11-1.98-.5-2.39.11-2.69,1.53-1.51,7.09-3.15,14.16-3.31,22.18Zm424.14-3.27c-.24-7.51-1.88-14.08-3.5-20.64-.99-4-3.76-1.03-5.67-1.16-1.64-.11-3.5.23-2.97,2.76,1.59,7.59,4.12,14.6,12.14,19.05Zm-387.17,99.75c3.44,3.76,6.47,7.6,11.41,11.26-1.14-4.9,4.05-9.25,1.4-11.4-2.5-2.03-7.89-.5-12-.52-.11,0-.22.18-.8.66Zm338.08.44c1.58,3.4,3.07,6.6,4.73,10.17,2.36-2.44,4.28-4.49,6.27-6.47,1.37-1.37,1.02-2.21-.66-2.83-3.3-1.24-6.67-1.43-10.34-.87Zm69.4-90.67c-.52,1.48-.89,2.83-.32,4.69,1.04-1.81.87-3.18.32-4.69Zm-14.1,22.6c-.1.56-.23.87-.18,1.15.1.55.34.56.55.03.06-.15.14-.33.09-.46-.07-.21-.23-.38-.46-.72Z" style="fill: #2a131e; stroke-width: 0px;"/>
  </g>
</svg>